<svg width="760" height="760" viewBox="0 0 760 760" version="1.1" xmlns="http://www.w3.org/2000/svg">
    <title>Artboard 2</title>
    <desc>Created with Sketch Internal.</desc>
    <g id="Page-1" stroke="none" stroke-width="1" fill="none" fill-rule="evenodd">
        <g id="Artboard-2" fill-rule="nonzero">
            <path d="M260.007225,675.999997 C254.363061,676.004055 249.631926,671.734964 249.057707,666.119812 C248.483487,660.50466 252.252586,655.366228 257.780732,654.227667 C263.308878,653.089106 268.801534,656.320013 270.492678,661.705126 C272.183822,667.09024 269.524477,672.881453 264.338014,675.10804 C262.96956,675.695096 261.496274,675.998529 260.007225,675.999997 L260.007225,675.999997 Z M259.986644,656.000062 C256.012958,656.006007 252.513517,658.61758 251.376789,662.425448 C250.240061,666.233316 251.735145,670.336042 255.05522,672.519596 C258.375296,674.70315 262.7344,674.450618 265.78015,671.898279 C268.825899,669.34594 269.837272,665.09801 268.268483,661.446878 C266.852867,658.132141 263.590797,655.986736 259.986644,656.000062 L259.986644,656.000062 Z"
                  id="Shape" fill="#DFD6FF"/>
            <path d="M645.006568,242.999997 C639.87551,243.003687 635.574478,239.122694 635.05246,234.018011 C634.530443,228.913327 637.956896,224.242026 642.982484,223.20697 C648.008071,222.171914 653.001395,225.109102 654.538798,230.00466 C656.076202,234.900218 653.658615,240.164958 648.943649,242.189127 C647.6996,242.722814 646.360249,242.998663 645.006568,242.999997 L645.006568,242.999997 Z M644.988128,225.000055 C641.455963,225.00534 638.345348,227.326737 637.334924,230.711509 C636.324499,234.096281 637.653462,237.743148 640.60464,239.684085 C643.555818,241.625022 647.430578,241.400549 650.137911,239.131803 C652.845244,236.863058 653.744242,233.08712 652.349762,229.841669 C651.091437,226.895236 648.191819,224.98821 644.988128,225.000055 L644.988128,225.000055 Z"
                  id="Shape-Copy-8" fill="#EFEAFF"/>
            <circle id="Oval-Copy-5" fill="#DFD6FF" transform="translate(546.500000, 648.500000) rotate(-23.260000) translate(-546.500000, -648.500000)" cx="546.5" cy="648.5" r="5.5"/>
            <polyline id="Shape" fill="#EFEAFF" points="391 110 399.694815 96 413 105.148871"/>
            <polyline id="Shape" fill="#DFD6FF" transform="translate(592.000000, 383.000000) rotate(-40.000000) translate(-592.000000, -383.000000)" points="581 390 589.694815 376 603 385.148871"/>
            <polyline id="Shape-Copy-5" fill="#DFD6FF" transform="translate(394.500000, 681.000000) rotate(-86.000000) translate(-394.500000, -681.000000)" points="390 674 399 678.835994 394.250554 688"/>
            <polyline id="Shape-Copy-6" fill="#DFD6FF" transform="translate(549.500000, 110.000000) rotate(-133.000000) translate(-549.500000, -110.000000)" points="545 103 554 107.835994 549.250554 117"/>
            <circle id="Oval-Copy-4" fill="#EFEAFF" transform="translate(328.500000, 637.500000) rotate(-23.260000) translate(-328.500000, -637.500000)" cx="328.5" cy="637.5" r="3.5"/>
            <circle id="Oval-Copy-6" fill="#EFEAFF" transform="translate(567.500000, 506.500000) rotate(-23.260000) translate(-567.500000, -506.500000)" cx="567.5" cy="506.5" r="3.5"/>
            <circle id="Oval" fill="#DFD6FF" transform="translate(571.500000, 189.500000) rotate(-23.260000) translate(-571.500000, -189.500000)" cx="571.5" cy="189.5" r="5.5"/>
            <circle id="Oval" fill="#EFEAFF" transform="translate(578.000000, 268.000000) rotate(-23.260000) translate(-578.000000, -268.000000)" cx="578" cy="268" r="3"/>
            <circle id="Oval-Copy" fill="#DFD6FF" transform="translate(655.500000, 552.500000) rotate(-23.260000) translate(-655.500000, -552.500000)" cx="655.5" cy="552.5" r="5.5"/>
            <circle id="Oval-Copy-3" fill="#DFD6FF" transform="translate(320.500000, 81.500000) rotate(-23.260000) translate(-320.500000, -81.500000)" cx="320.5" cy="81.5" r="5.5"/>
            <path d="M650.853489,641.451723 C651.088887,642.059181 651.038825,642.735214 650.7163,643.30431 C650.393775,643.873406 649.830599,644.27943 649.172986,644.41697 C647.781661,644.706134 647.26878,645.410644 646.406705,646.730284 C645.544629,648.049924 644.382463,649.842742 641.779866,650.410555 C639.17727,650.978369 637.333082,649.800682 635.969038,648.959477 C634.604994,648.118272 633.786567,647.655609 632.346136,647.950031 C631.020285,648.22868 630.594703,648.817523 629.754452,650.121391 C628.914201,651.425259 627.681105,653.354772 624.811156,653.948873 C623.559103,654.210202 622.324261,653.444015 622.053058,652.237547 C621.781856,651.031079 622.576991,649.841194 623.829044,649.579865 C624.702032,649.395852 625.023947,648.985764 625.809636,647.766017 C626.759011,646.288651 628.052125,644.269759 631.364024,643.559993 C634.675924,642.850226 636.880219,644.196154 638.457055,645.168797 C639.66287,645.910109 640.143013,646.157213 640.792298,646.020517 C641.441583,645.883821 641.719848,645.494764 642.467345,644.359137 C643.454913,642.839711 644.813501,640.757729 648.179962,640.05322 C649.308289,639.812284 650.448494,640.408717 650.853489,641.451723 Z"
                  id="Shape-Copy-2" fill="#DFD6FF" transform="translate(636.500000, 647.000000) rotate(53.000000) translate(-636.500000, -647.000000)"/>
            <path d="M629.873697,120.244334 C630.076627,120.765012 630.03347,121.344469 629.755431,121.832266 C629.477392,122.320062 628.991896,122.668083 628.424988,122.785975 C627.22557,123.03383 626.783431,123.637694 626.040263,124.768815 C625.297094,125.899935 624.295227,127.436636 622.051609,127.923333 C619.807991,128.41003 618.218174,127.400584 617.042274,126.679552 C615.866374,125.958519 615.160834,125.561951 613.919083,125.814312 C612.776108,126.053154 612.409227,126.557877 611.684873,127.675478 C610.960518,128.793079 609.897504,130.446948 607.42341,130.956177 C606.344055,131.180173 605.279535,130.523442 605.04574,129.489326 C604.811945,128.45521 605.497406,127.435309 606.576762,127.211313 C607.329338,127.053587 607.606851,126.702084 608.284169,125.656586 C609.102596,124.390272 610.217349,122.659794 613.072435,122.051422 C615.927521,121.443051 617.827775,122.596703 619.187116,123.430398 C620.226612,124.065808 620.640529,124.277611 621.200257,124.160443 C621.759986,124.043275 621.999869,123.709798 622.644263,122.736404 C623.495614,121.434038 624.666811,119.649482 627.568933,119.045617 C628.541628,118.8391 629.524564,119.350329 629.873697,120.244334 Z"
                  id="Shape-Copy-7" fill="#EFEAFF" transform="translate(617.500000, 125.000000) rotate(-3.000000) translate(-617.500000, -125.000000)"/>
            <path d="M719.873697,290.244334 C720.076627,290.765012 720.03347,291.344469 719.755431,291.832266 C719.477392,292.320062 718.991896,292.668083 718.424988,292.785975 C717.22557,293.03383 716.783431,293.637694 716.040263,294.768815 C715.297094,295.899935 714.295227,297.436636 712.051609,297.923333 C709.807991,298.41003 708.218174,297.400584 707.042274,296.679552 C705.866374,295.958519 705.160834,295.561951 703.919083,295.814312 C702.776108,296.053154 702.409227,296.557877 701.684873,297.675478 C700.960518,298.793079 699.897504,300.446948 697.42341,300.956177 C696.344055,301.180173 695.279535,300.523442 695.04574,299.489326 C694.811945,298.45521 695.497406,297.435309 696.576762,297.211313 C697.329338,297.053587 697.606851,296.702084 698.284169,295.656586 C699.102596,294.390272 700.217349,292.659794 703.072435,292.051422 C705.927521,291.443051 707.827775,292.596703 709.187116,293.430398 C710.226612,294.065808 710.640529,294.277611 711.200257,294.160443 C711.759986,294.043275 711.999869,293.709798 712.644263,292.736404 C713.495614,291.434038 714.666811,289.649482 717.568933,289.045617 C718.541628,288.8391 719.524564,289.350329 719.873697,290.244334 Z"
                  id="Shape-Copy-7" fill="#DFD6FF" transform="translate(707.500000, 295.000000) rotate(-113.000000) translate(-707.500000, -295.000000)"/>
            <path d="M192.50624,568.999998 C187.631735,569.003502 183.545754,565.31656 183.049837,560.46711 C182.553921,555.617661 185.809051,551.179924 190.583359,550.196622 C195.357668,549.213319 200.101325,552.003647 201.561858,556.654427 C203.022392,561.305207 200.725684,566.30671 196.246467,568.229671 C195.06462,568.736674 193.792236,568.99873 192.50624,568.999998 L192.50624,568.999998 Z M192.48887,552.000051 C189.177465,552.005006 186.261264,554.181316 185.313991,557.35454 C184.366718,560.527763 185.612621,563.946702 188.37935,565.76633 C191.14608,567.585958 194.778667,567.375515 197.316791,565.248566 C199.854916,563.121617 200.697727,559.581675 199.390402,556.539065 C198.210722,553.776784 195.492331,551.988947 192.48887,552.000051 L192.48887,552.000051 Z"
                  id="Shape-Copy-4" fill="#EFEAFF"/>
            <circle id="Oval" fill="#EFEAFF" transform="translate(163.500000, 410.500000) rotate(-23.260000) translate(-163.500000, -410.500000)" cx="163.5" cy="410.5" r="5.5"/>
            <polyline id="Shape" fill="#DFD6FF" points="164 238 170 241.454282 166.833703 248"/>
            <circle id="Oval" fill="#DFD6FF" transform="translate(88.500000, 233.500000) rotate(-23.260000) translate(-88.500000, -233.500000)" cx="88.5" cy="233.5" r="3.5"/>
            <circle id="Oval-Copy-2" fill="#DFD6FF" transform="translate(228.500000, 353.500000) rotate(-23.260000) translate(-228.500000, -353.500000)" cx="228.5" cy="353.5" r="3.5"/>
            <polyline id="Shape" fill="#EFEAFF" points="130 322.407614 110.41915 331 102 311"/>
            <path d="M177.813072,641.970195 C178.113408,642.794603 178.049536,643.712077 177.638038,644.484421 C177.226541,645.256765 176.508006,645.807799 175.668982,645.99446 C173.893843,646.386897 173.239479,647.343016 172.139589,649.133957 C171.039698,650.924897 169.556935,653.358007 166.236381,654.128611 C162.915827,654.899214 160.562898,653.300925 158.822566,652.15929 C157.082233,651.017655 156.038034,650.389755 154.200243,650.789328 C152.50864,651.167494 151.965656,651.966639 150.893611,653.736174 C149.821567,655.505708 148.248306,658.124334 144.586647,658.930614 C142.989201,659.285274 141.413712,658.245449 141.067695,656.6081 C140.721678,654.97075 141.736162,653.355906 143.333608,653.001246 C144.447421,652.751513 144.858139,652.194966 145.86057,650.539595 C147.071842,648.534598 148.721677,645.794674 152.947204,644.831419 C157.17273,643.868164 159.985108,645.69478 161.996932,647.014796 C163.535385,648.020862 164.147982,648.356218 164.976381,648.170702 C165.804779,647.985186 166.159807,647.45718 167.113509,645.915972 C168.373509,643.853894 170.10688,641.028346 174.402021,640.072227 C175.84161,639.745242 177.296354,640.554688 177.813072,641.970195 Z"
                  id="Shape" fill="#EFEAFF"/>
            <path d="M192.848437,122.555417 C193.091952,123.206265 193.040164,123.930587 192.706517,124.540332 C192.372871,125.150078 191.790275,125.585104 191.109986,125.732468 C189.670684,126.042287 189.140118,126.797118 188.248315,128.211018 C187.356512,129.624919 186.154272,131.545795 183.461931,132.154166 C180.76959,132.762538 178.861809,131.50073 177.450729,130.599439 C176.039649,129.698148 175.193,129.202438 173.7029,129.51789 C172.33133,129.816443 171.891073,130.447347 171.021847,131.844348 C170.152622,133.241349 168.877005,135.308685 165.908092,135.945221 C164.612866,136.225217 163.335442,135.404302 163.054888,134.111658 C162.774333,132.819013 163.596888,131.544137 164.892114,131.264141 C165.795206,131.066984 166.128221,130.627605 166.941003,129.320733 C167.923115,127.737841 169.260819,125.574742 172.686922,124.814278 C176.113025,124.053814 178.39333,125.495879 180.024539,126.537997 C181.271934,127.33226 181.768634,127.597014 182.440309,127.450554 C183.111983,127.304094 183.399843,126.887247 184.173115,125.670504 C185.194737,124.042548 186.600173,121.811852 190.082719,121.057021 C191.249954,120.798876 192.429476,121.437911 192.848437,122.555417 Z"
                  id="Shape-Copy" fill="#EFEAFF" transform="translate(178.000000, 128.500000) rotate(-120.000000) translate(-178.000000, -128.500000)"/>
            <path d="M73.8534888,396.555417 C74.0888874,397.206265 74.0388255,397.930587 73.7163002,398.540332 C73.393775,399.150078 72.8305993,399.585104 72.1729863,399.732468 C70.7816611,400.042287 70.2687805,400.797118 69.4067045,402.211018 C68.5446285,403.624919 67.3824628,405.545795 64.7798664,406.154166 C62.1772699,406.762538 60.3330821,405.50073 58.9690379,404.599439 C57.6049936,403.698148 56.786567,403.202438 55.3461363,403.51789 C54.0202853,403.816443 53.5947035,404.447347 52.7544522,405.844348 C51.914201,407.241349 50.6811049,409.308685 47.8111558,409.945221 C46.5591034,410.225217 45.324261,409.404302 45.0530583,408.111658 C44.7818556,406.819013 45.5769915,405.544137 46.829044,405.264141 C47.7020323,405.066984 48.0239467,404.627605 48.8096362,403.320733 C49.759011,401.737841 51.052125,399.574742 54.3640244,398.814278 C57.6759239,398.053814 59.8802194,399.495879 61.4570546,400.537997 C62.6628697,401.33226 63.1430133,401.597014 63.7922983,401.450554 C64.4415834,401.304094 64.7198484,400.887247 65.4673447,399.670504 C66.4549127,398.042548 67.8135008,395.811852 71.179962,395.057021 C72.3082888,394.798876 73.4484938,395.437911 73.8534888,396.555417 Z"
                  id="Shape-Copy-3" fill="#DFD6FF" transform="translate(59.500000, 402.500000) rotate(-156.000000) translate(-59.500000, -402.500000)"/>
            <path d="M93.0171691,174.999986 C86.8599014,175.009178 81.6950599,170.355974 81.0639072,164.230835 C80.4327545,158.105696 84.5401748,152.496958 90.5699241,151.25024 C96.5996733,150.003522 102.59438,153.523533 104.443787,159.396785 C106.293193,165.270037 103.396947,171.58996 97.7408525,174.023312 C96.2484697,174.66476 94.6415499,174.997009 93.0171691,174.999986 Z M92.9983287,154.000023 C89.0232808,154.000809 85.5195938,156.609589 84.3790861,160.41775 C83.2385784,164.225911 84.7314366,168.331298 88.0515907,170.517205 C91.3717449,172.703112 95.7326496,172.451696 98.7796311,169.89871 C101.826613,167.345724 102.83784,163.095971 101.267301,159.444108 L101.267301,159.444108 C99.839486,156.133279 96.5761488,153.991917 92.9707654,154.000023 L92.9983287,154.000023 Z"
                  id="Shape" fill="#DFD6FF"/>
            <path d="M123.096308,504.794458 C117.388542,507.208515 110.771955,505.929045 106.399259,501.565697 C102.026562,497.20235 100.782336,490.637814 103.259438,485 L105.593485,486.003267 C103.399055,490.989953 104.717463,496.810475 108.852193,500.389851 C112.986924,503.969228 118.985372,504.4828 123.678555,501.659248 L125,503.816272 C124.389219,504.185889 123.753104,504.512748 123.096308,504.794458 L123.096308,504.794458 Z"
                  id="Shape" fill="#DFD6FF"/>
            <polygon id="Shape" fill="#DFD6FF" points="108.321775 488.750797 104.726306 485.62014 100.927416 490 99 488.3174 104.477115 482 110 486.818356"/>
            <path d="M129.737608,495.994984 L127.403878,494.99172 C129.59801,490.005049 128.279782,484.184544 124.145613,480.605178 C120.011444,477.025813 114.013811,476.512242 109.321266,479.335785 L108,477.178768 C113.641238,473.784963 120.851002,474.402674 125.820658,478.705588 C130.790315,483.008502 132.375009,490.00536 129.737608,496 L129.737608,495.994984 Z"
                  id="Shape" fill="#DFD6FF"/>
            <polygon id="Shape" fill="#DFD6FF" points="129.52797 500 124 495.181644 125.678225 493.244105 129.273694 496.37986 133.072584 492 135 493.6826"/>
            <path d="M692.096308,436.794458 C686.388542,439.208515 679.771955,437.929045 675.399259,433.565697 C671.026562,429.20235 669.782336,422.637814 672.259438,417 L674.593485,418.003267 C672.399055,422.989953 673.717463,428.810475 677.852193,432.389851 C681.986924,435.969228 687.985372,436.4828 692.678555,433.659248 L694,435.816272 C693.389219,436.185889 692.753104,436.512748 692.096308,436.794458 L692.096308,436.794458 Z"
                  id="Shape" fill="#EFEAFF" transform="translate(682.500000, 427.500000) rotate(100.000000) translate(-682.500000, -427.500000)"/>
            <polygon id="Shape" fill="#EFEAFF" transform="translate(693.500000, 420.000000) rotate(100.000000) translate(-693.500000, -420.000000)"
                     points="697.321775 422.750797 693.726306 419.62014 689.927416 424 688 422.3174 693.477115 416 699 420.818356"/>
            <path d="M701.737608,445.994984 L699.403878,444.99172 C701.59801,440.005049 700.279782,434.184544 696.145613,430.605178 C692.011444,427.025813 686.013811,426.512242 681.321266,429.335785 L680,427.178768 C685.641238,423.784963 692.851002,424.402674 697.820658,428.705588 C702.790315,433.008502 704.375009,440.00536 701.737608,446 L701.737608,445.994984 Z"
                  id="Shape" fill="#EFEAFF" transform="translate(691.500000, 435.500000) rotate(100.000000) translate(-691.500000, -435.500000)"/>
            <polygon id="Shape" fill="#EFEAFF" transform="translate(679.500000, 443.000000) rotate(100.000000) translate(-679.500000, -443.000000)"
                     points="679.52797 447 674 442.181644 675.678225 440.244105 679.273694 443.37986 683.072584 439 685 440.6826"/>
        </g>
    </g>
</svg>