<svg width="620px" height="99px" viewBox="0 0 620 99" version="1.1" xmlns="http://www.w3.org/2000/svg">
    <g id="Welcome" stroke="none" stroke-width="1" fill="none" fill-rule="evenodd" opacity="0.104282924">
        <g id="Design" transform="translate(-239.000000, -1536.000000)" fill="#FFFFFF">
            <g id="bg-4" transform="translate(239.000000, 1518.000000)">
                <g id="Group-28">
                    <g id="Group-30" transform="translate(-132.000000, -3.000000)">
                        <path d="M921.395322,127.308293 C866.652688,126.595835 866.677448,134.928291 784.395322,127.308293 C718.600831,121.215184 744.721188,92.6414637 674,81.2347572 C646.530654,76.804193 605.333916,92.0420741 540,92 C473.177456,91.9569673 482.951529,31 372.963642,60.6537204 C268.719756,88.7588066 215.83715,83.1331873 162,55 C131.434453,39.0276418 128.269829,-2.62062859 111,1 C59.9317405,11.7064873 65.8997258,98.1917244 27.3953217,86.1917244 C-11.1090823,74.1917244 -9.10027423,154.075156 33.8997258,144.191724 C90.4690561,131.189419 386.300921,125.561609 921.395322,127.308293 Z"
                              id="Path-27"></path>
                    </g>
                </g>
            </g>
        </g>
    </g>
</svg>