<svg width="56px" height="87px" viewBox="0 0 56 87" version="1.1" xmlns="http://www.w3.org/2000/svg">
    <g id="Welcome" stroke="none" stroke-width="1" fill="none" fill-rule="evenodd">
        <g id="Design" transform="translate(-254.000000, -365.000000)" fill="#B4C9D9">
            <g id="tarahi-site-2" transform="translate(50.000000, 236.000000)">
                <g id="Group" transform="translate(204.000000, 129.000000)">
                    <path d="M0.152098765,0.489375 L6.20148148,0.489375 L6.20148148,6.43664063 L0.152098765,6.43664063 L0.152098765,0.489375 Z M12.4928395,0.489375 L18.5422222,0.489375 L18.5422222,6.43664063 L12.4928395,6.43664063 L12.4928395,0.489375 Z M24.8335802,0.489375 L30.882963,0.489375 L30.882963,6.43664063 L24.8335802,6.43664063 L24.8335802,0.489375 Z M37.174321,0.489375 L43.2237037,0.489375 L43.2237037,6.43664063 L37.174321,6.43664063 L37.174321,0.489375 Z M49.5150617,0.489375 L55.5644444,0.489375 L55.5644444,6.43664063 L49.5150617,6.43664063 L49.5150617,0.489375 Z M0.152098765,13.9132031 L6.20148148,13.9132031 L6.20148148,19.8604687 L0.152098765,19.8604687 L0.152098765,13.9132031 Z M12.4928395,13.9132031 L18.5422222,13.9132031 L18.5422222,19.8604687 L12.4928395,19.8604687 L12.4928395,13.9132031 Z M24.8335802,13.9132031 L30.882963,13.9132031 L30.882963,19.8604687 L24.8335802,19.8604687 L24.8335802,13.9132031 Z M37.174321,13.9132031 L43.2237037,13.9132031 L43.2237037,19.8604687 L37.174321,19.8604687 L37.174321,13.9132031 Z M49.5150617,13.9132031 L55.5644444,13.9132031 L55.5644444,19.8604687 L49.5150617,19.8604687 L49.5150617,13.9132031 Z M0.152098765,27.3370313 L6.20148148,27.3370313 L6.20148148,33.2842969 L0.152098765,33.2842969 L0.152098765,27.3370313 Z M12.4928395,27.3370313 L18.5422222,27.3370313 L18.5422222,33.2842969 L12.4928395,33.2842969 L12.4928395,27.3370313 Z M24.8335802,27.3370313 L30.882963,27.3370313 L30.882963,33.2842969 L24.8335802,33.2842969 L24.8335802,27.3370313 Z M37.174321,27.3370313 L43.2237037,27.3370313 L43.2237037,33.2842969 L37.174321,33.2842969 L37.174321,27.3370313 Z M49.5150617,27.3370313 L55.5644444,27.3370313 L55.5644444,33.2842969 L49.5150617,33.2842969 L49.5150617,27.3370313 Z M0.152098765,40.7608594 L6.20148148,40.7608594 L6.20148148,46.708125 L0.152098765,46.708125 L0.152098765,40.7608594 Z M12.4928395,40.7608594 L18.5422222,40.7608594 L18.5422222,46.708125 L12.4928395,46.708125 L12.4928395,40.7608594 Z M24.8335802,40.7608594 L30.882963,40.7608594 L30.882963,46.708125 L24.8335802,46.708125 L24.8335802,40.7608594 Z M37.174321,40.7608594 L43.2237037,40.7608594 L43.2237037,46.708125 L37.174321,46.708125 L37.174321,40.7608594 Z M49.5150617,40.7608594 L55.5644444,40.7608594 L55.5644444,46.708125 L49.5150617,46.708125 L49.5150617,40.7608594 Z M0.152098765,54.1846875 L6.20148148,54.1846875 L6.20148148,60.1319531 L0.152098765,60.1319531 L0.152098765,54.1846875 Z M12.4928395,54.1846875 L18.5422222,54.1846875 L18.5422222,60.1319531 L12.4928395,60.1319531 L12.4928395,54.1846875 Z M24.8335802,54.1846875 L30.882963,54.1846875 L30.882963,60.1319531 L24.8335802,60.1319531 L24.8335802,54.1846875 Z M37.174321,54.1846875 L43.2237037,54.1846875 L43.2237037,60.1319531 L37.174321,60.1319531 L37.174321,54.1846875 Z M49.5150617,54.1846875 L55.5644444,54.1846875 L55.5644444,60.1319531 L49.5150617,60.1319531 L49.5150617,54.1846875 Z M0.152098765,67.6085156 L6.20148148,67.6085156 L6.20148148,73.5557813 L0.152098765,73.5557813 L0.152098765,67.6085156 Z M12.4928395,67.6085156 L18.5422222,67.6085156 L18.5422222,73.5557813 L12.4928395,73.5557813 L12.4928395,67.6085156 Z M24.8335802,67.6085156 L30.882963,67.6085156 L30.882963,73.5557813 L24.8335802,73.5557813 L24.8335802,67.6085156 Z M37.174321,67.6085156 L43.2237037,67.6085156 L43.2237037,73.5557813 L37.174321,73.5557813 L37.174321,67.6085156 Z M49.5150617,67.6085156 L55.5644444,67.6085156 L55.5644444,73.5557813 L49.5150617,73.5557813 L49.5150617,67.6085156 Z M0.152098765,81.0323438 L6.20148148,81.0323438 L6.20148148,86.9796094 L0.152098765,86.9796094 L0.152098765,81.0323438 Z M12.4928395,81.0323438 L18.5422222,81.0323438 L18.5422222,86.9796094 L12.4928395,86.9796094 L12.4928395,81.0323438 Z M24.8335802,81.0323438 L30.882963,81.0323438 L30.882963,86.9796094 L24.8335802,86.9796094 L24.8335802,81.0323438 Z M37.174321,81.0323438 L43.2237037,81.0323438 L43.2237037,86.9796094 L37.174321,86.9796094 L37.174321,81.0323438 Z M49.5150617,81.0323438 L55.5644444,81.0323438 L55.5644444,86.9796094 L49.5150617,86.9796094 L49.5150617,81.0323438 Z"
                          id="Combined-Shape"></path>
                </g>
            </g>
        </g>
    </g>
</svg>