<svg width="913px" height="72px" viewBox="0 0 913 72" version="1.1" xmlns="http://www.w3.org/2000/svg">
    <g id="Welcome" stroke="none" stroke-width="1" fill="none" fill-rule="evenodd" opacity="0.485119048">
        <g id="Software" transform="translate(-26.000000, -4093.000000)" fill="#E2E6F9">
            <g id="Path-30" transform="translate(26.000000, 4093.000000)">
                <path d="M980.361977,-52.3164063 C940.960719,-23.2001063 897.466068,21.1257014 848.348572,28 C799.628352,34.8186974 744.650304,19.865106 696.213166,28 C640.259762,37.3972318 593.343423,55.1489028 536.770851,60.6835937 C484.030309,65.8433839 408.752467,50 327.707406,50 C241.260493,50 202.684828,66.1884675 182.333573,69 C141.796188,74.6002529 38.0866701,71.6835937 -38.5444973,56 C-128.151892,37.6606476 -96.493771,-24.0479036 -52.6992355,-50.3164063 C-32.208079,-62.6072547 6.33243664,-75.0954718 24.7059274,-81.3164063 C61.0819045,-93.6326597 92.7999716,-105.759523 129.897559,-111.316406 C171.984174,-117.620601 173.049133,-114.21563 218.218835,-116.316406 C266.535377,-118.563537 314.787841,-122.092041 363.105421,-124.316406 C444.362061,-128.057166 510.051835,-108.538862 593.336162,-99.3164063 C650.046835,-93.0365734 782.113796,-88.9365253 842.422007,-88.3164063 C899.669058,-87.7277636 933.810841,-90.2961548 987.308594,-78.3164063 L980.361977,-52.3164063 Z"></path>
            </g>
        </g>
    </g>
</svg>