<svg width="188px" height="171px" viewBox="0 0 188 171" version="1.1" xmlns="http://www.w3.org/2000/svg" xmlns:xlink="http://www.w3.org/1999/xlink">
    <defs>
        <linearGradient x1="-19.6973425%" y1="-14.794482%" x2="125.184547%" y2="108.628941%" id="linearGradient-1">
            <stop stop-color="#FFDEA3" offset="0%"></stop>
            <stop stop-color="#FFBA6A" offset="100%"></stop>
        </linearGradient>
        <rect id="path-2" x="0" y="0" width="127" height="111" rx="9"></rect>
        <filter x="-39.0%" y="-36.5%" width="178.0%" height="189.2%" filterUnits="objectBoundingBox" id="filter-4">
            <feOffset dx="0" dy="9" in="SourceAlpha" result="shadowOffsetOuter1"></feOffset>
            <feGaussianBlur stdDeviation="15" in="shadowOffsetOuter1" result="shadowBlurOuter1"></feGaussianBlur>
            <feColorMatrix values="0 0 0 0 0.567970605   0 0 0 0 0.627115348   0 0 0 0 0.770673895  0 0 0 0.163524683 0" type="matrix" in="shadowBlurOuter1"></feColorMatrix>
        </filter>
        <path d="M25.3933983,6 L30.5,0.893398282 L35.6066017,6 L56,6 C60.418278,6 64,9.581722 64,14 L64,28 C64,32.418278 60.418278,36 56,36 L8,36 C3.581722,36 5.41083001e-16,32.418278 0,28 L0,14 C-5.41083001e-16,9.581722 3.581722,6 8,6 L25.3933983,6 Z"
              id="path-5"></path>
        <filter x="-61.7%" y="-101.1%" width="223.4%" height="325.0%" filterUnits="objectBoundingBox" id="filter-6">
            <feOffset dx="0" dy="4" in="SourceAlpha" result="shadowOffsetOuter1"></feOffset>
            <feGaussianBlur stdDeviation="12.5" in="shadowOffsetOuter1" result="shadowBlurOuter1"></feGaussianBlur>
            <feColorMatrix values="0 0 0 0 0   0 0 0 0 0   0 0 0 0 0  0 0 0 0.159391984 0" type="matrix" in="shadowBlurOuter1"></feColorMatrix>
        </filter>
    </defs>
    <g id="Welcome" stroke="none" stroke-width="1" fill="none" fill-rule="evenodd">
        <g id="SEO" transform="translate(-244.000000, -514.000000)">
            <g id="Group" transform="translate(128.000000, 294.000000)">
                <g id="Group-8" transform="translate(130.000000, 241.000000)">
                    <g id="Group-6">
                        <g id="Path-3-Copy" transform="translate(16.000000, 0.000000)">
                            <mask id="mask-3" fill="white">
                                <use xlink:href="#path-2"></use>
                            </mask>
                            <g id="Mask">
                                <use fill="black" fill-opacity="1" filter="url(#filter-4)" xlink:href="#path-2"></use>
                                <use fill="url(#linearGradient-1)" fill-rule="evenodd" xlink:href="#path-2"></use>
                            </g>
                        </g>
                        <path d="M16,54.9691145 C19.4789998,46.3173914 26.3050709,37.684933 40.3950617,39.9952352 C51.9011996,41.8818691 63.9304767,63.2703608 79.8024691,61.9691145 C92.5019356,60.9279639 106.426745,34.5342606 117.333333,25.9691145 C132.263296,14.244338 150.127845,14.7017281 168,13.9691145"
                              id="Path-3" stroke="#FDA83D" stroke-width="3" transform="translate(92.000000, 37.997618) rotate(-180.000000) translate(-92.000000, -37.997618) "></path>
                        <rect id="Rectangle-Copy-2" stroke="#FF4D4D" stroke-width="3" fill-opacity="0.818812274" fill="#FFFFFF" x="40.5" y="53.5" width="9.93103448" height="9.87412944" rx="4.93706472"></rect>
                        <rect id="Rectangle-Copy-3" stroke="#FF4D4D" stroke-width="3" fill-opacity="0.818812274" fill="#FFFFFF" x="90.5" y="10.5" width="9.93103448" height="9.87412944" rx="4.93706472"></rect>
                        <rect id="Rectangle-Copy-4" stroke="#FF4D4D" stroke-width="3" fill-opacity="0.818812274" fill="#FFFFFF" x="162.5" y="18.5" width="9.93103448" height="9.87412944" rx="4.93706472"></rect>
                    </g>
                    <g id="Group-5" transform="translate(66.000000, 27.000000)">
                        <g id="Combined-Shape">
                            <use fill="black" fill-opacity="1" filter="url(#filter-6)" xlink:href="#path-5"></use>
                            <use fill="#FFFFFF" fill-rule="evenodd" xlink:href="#path-5"></use>
                        </g>
                        <svg width="39px" height="10px" viewBox="0 0 39 10" x="10" y="15" version="1.1" xmlns="http://www.w3.org/2000/svg" xmlns:xlink="http://www.w3.org/1999/xlink">
                            <g id="Welcome" stroke="none" stroke-width="1" fill="none" fill-rule="evenodd">
                                <g id="SEO" transform="translate(-336.000000, -579.000000)" fill="#4A1E4D">
                                    <g id="Group" transform="translate(128.000000, 294.000000)">
                                        <g id="Group-8" transform="translate(130.000000, 241.000000)">
                                            <g id="Group-5" transform="translate(66.000000, 27.000000)">
                                                <path d="M16.3449807,27 L16.3449807,23.5410156 L12.8859964,23.5410156 L12.8859964,22.3583984 L16.3449807,22.3583984 L16.3449807,18.90625 L17.5275979,18.90625 L17.5275979,22.3583984 L20.9797464,22.3583984 L20.9797464,23.5410156 L17.5275979,23.5410156 L17.5275979,27 L16.3449807,27 Z M28.8684182,26.9726562 L27.0568948,26.9726562 L27.0568948,26.6992188 C27.0432229,23.3632646 26.7059866,20.6608176 26.045176,18.5917969 L25.9563089,18.3183594 L27.7063089,17.8398438 L27.7815042,18.0927734 C28.141532,19.2366594 28.4126882,20.4785089 28.5949807,21.8183594 C28.772716,23.1764391 28.8638609,24.8033759 28.8684182,26.6992188 L28.8684182,26.9726562 Z M33.2912698,23.6025391 C33.3550722,23.7301439 33.4314061,23.8212888 33.5202737,23.8759766 C33.6091413,23.9306643 33.7219332,23.9580078 33.8586526,23.9580078 C34.0318306,23.9580078 34.1810804,23.8953457 34.3064065,23.7700195 C34.4317327,23.6446934 34.4943948,23.493165 34.4943948,23.3154297 C34.4943948,23.2835285 34.4932555,23.2539064 34.4909768,23.2265625 C34.4886982,23.1992186 34.4841409,23.1718751 34.477305,23.1445312 C34.470469,23.1171874 34.4613545,23.0909832 34.4499612,23.065918 C34.4385679,23.0408527 34.4260355,23.0169272 34.4123635,22.9941406 C34.3986916,22.9713541 34.3838806,22.9485678 34.36793,22.9257812 C34.3519794,22.9029947 34.3326111,22.8824871 34.3098245,22.8642578 C34.2414648,22.7958981 34.1719668,22.7469077 34.1013284,22.7172852 C34.03069,22.6876626 33.9497989,22.6728516 33.8586526,22.6728516 C33.6854747,22.6728516 33.5362249,22.7355137 33.4108987,22.8608398 C33.2855726,22.986166 33.2229104,23.1445303 33.2229104,23.3359375 C33.2229104,23.4316411 33.2456967,23.5205074 33.2912698,23.6025391 Z M31.842051,24.3271484 C31.682545,24.0172511 31.6027932,23.691408 31.6027932,23.3496094 C31.6027932,23.2220046 31.6119077,23.0978196 31.630137,22.9770508 C31.6483662,22.8562819 31.6757097,22.7389329 31.7121682,22.625 C31.7486268,22.5110671 31.7930599,22.4016932 31.845469,22.296875 C31.8978781,22.1920568 31.9582616,22.090658 32.0266214,21.9926758 C32.0949811,21.8946935 32.1724543,21.8024093 32.2590432,21.7158203 C32.4777943,21.4970692 32.7204677,21.331869 32.9870706,21.2202148 C33.2536735,21.1085606 33.5396407,21.0527344 33.8449807,21.0527344 C33.9452417,21.0527344 34.0443618,21.0595702 34.142344,21.0732422 C34.2403263,21.0869141 34.3360284,21.1062824 34.4294534,21.1313477 C34.5228783,21.1564129 34.6140233,21.1871743 34.7028909,21.2236328 C34.7917585,21.2600913 34.8783462,21.3022459 34.9626565,21.3500977 C35.0469668,21.3979495 35.127858,21.4526364 35.2053323,21.5141602 C35.2828066,21.5756839 35.3580012,21.6429033 35.4309182,21.7158203 C35.645112,21.9345714 35.8080336,22.1772448 35.9196878,22.4438477 C36.031342,22.7104506 36.0871682,22.9986964 36.0871682,23.3085938 C36.0871682,23.4316412 36.0780537,23.551269 36.0598245,23.6674805 C36.0415952,23.783692 36.0142518,23.8964838 35.9777932,24.0058594 C35.9413347,24.1152349 35.8969016,24.2211909 35.8444925,24.3237305 C35.7920833,24.42627 35.7316998,24.5253901 35.6633401,24.6210938 C35.5949804,24.7167974 35.5175072,24.8079423 35.4309182,24.8945312 C35.2121671,25.1132823 34.9694938,25.2784825 34.7028909,25.3901367 C34.436288,25.5017909 34.1503208,25.5576172 33.8449807,25.5576172 C33.5487553,25.5576172 33.2741812,25.5109054 33.0212503,25.4174805 C32.7683193,25.3240555 32.5427356,25.1861988 32.3444925,25.0039062 C32.1462493,24.8216137 31.9787705,24.59603 31.842051,24.3271484 Z M40.5100198,23.6025391 C40.5738222,23.7301439 40.6501561,23.8212888 40.7390237,23.8759766 C40.8278913,23.9306643 40.9406832,23.9580078 41.0774026,23.9580078 C41.2505806,23.9580078 41.3998304,23.8953457 41.5251565,23.7700195 C41.6504827,23.6446934 41.7131448,23.493165 41.7131448,23.3154297 C41.7131448,23.2835285 41.7120055,23.2539064 41.7097268,23.2265625 C41.7074482,23.1992186 41.7028909,23.1718751 41.696055,23.1445312 C41.689219,23.1171874 41.6801045,23.0909832 41.6687112,23.065918 C41.6573179,23.0408527 41.6447855,23.0169272 41.6311135,22.9941406 C41.6174416,22.9713541 41.6026306,22.9485678 41.58668,22.9257812 C41.5707294,22.9029947 41.5513611,22.8824871 41.5285745,22.8642578 C41.4602148,22.7958981 41.3907168,22.7469077 41.3200784,22.7172852 C41.24944,22.6876626 41.1685489,22.6728516 41.0774026,22.6728516 C40.9042247,22.6728516 40.7549749,22.7355137 40.6296487,22.8608398 C40.5043226,22.986166 40.4416604,23.1445303 40.4416604,23.3359375 C40.4416604,23.4316411 40.4644467,23.5205074 40.5100198,23.6025391 Z M39.060801,24.3271484 C38.901295,24.0172511 38.8215432,23.691408 38.8215432,23.3496094 C38.8215432,23.2220046 38.8306577,23.0978196 38.848887,22.9770508 C38.8671162,22.8562819 38.8944597,22.7389329 38.9309182,22.625 C38.9673768,22.5110671 39.0118099,22.4016932 39.064219,22.296875 C39.1166281,22.1920568 39.1770116,22.090658 39.2453714,21.9926758 C39.3137311,21.8946935 39.3912043,21.8024093 39.4777932,21.7158203 C39.6965443,21.4970692 39.9392177,21.331869 40.2058206,21.2202148 C40.4724235,21.1085606 40.7583907,21.0527344 41.0637307,21.0527344 C41.1639917,21.0527344 41.2631118,21.0595702 41.361094,21.0732422 C41.4590763,21.0869141 41.5547784,21.1062824 41.6482034,21.1313477 C41.7416283,21.1564129 41.8327733,21.1871743 41.9216409,21.2236328 C42.0105085,21.2600913 42.0970962,21.3022459 42.1814065,21.3500977 C42.2657168,21.3979495 42.346608,21.4526364 42.4240823,21.5141602 C42.5015566,21.5756839 42.5767512,21.6429033 42.6496682,21.7158203 C42.863862,21.9345714 43.0267836,22.1772448 43.1384378,22.4438477 C43.250092,22.7104506 43.3059182,22.9986964 43.3059182,23.3085938 C43.3059182,23.4316412 43.2968037,23.551269 43.2785745,23.6674805 C43.2603452,23.783692 43.2330018,23.8964838 43.1965432,24.0058594 C43.1600847,24.1152349 43.1156516,24.2211909 43.0632425,24.3237305 C43.0108333,24.42627 42.9504498,24.5253901 42.8820901,24.6210938 C42.8137304,24.7167974 42.7362572,24.8079423 42.6496682,24.8945312 C42.4309171,25.1132823 42.1882438,25.2784825 41.9216409,25.3901367 C41.655038,25.5017909 41.3690708,25.5576172 41.0637307,25.5576172 C40.7675053,25.5576172 40.4929312,25.5109054 40.2400003,25.4174805 C39.9870693,25.3240555 39.7614856,25.1861988 39.5632425,25.0039062 C39.3649993,24.8216137 39.1975205,24.59603 39.060801,24.3271484 Z M47.7287698,23.6025391 C47.7925722,23.7301439 47.8689061,23.8212888 47.9577737,23.8759766 C48.0466413,23.9306643 48.1594332,23.9580078 48.2961526,23.9580078 C48.4693306,23.9580078 48.6185804,23.8953457 48.7439065,23.7700195 C48.8692327,23.6446934 48.9318948,23.493165 48.9318948,23.3154297 C48.9318948,23.2835285 48.9307555,23.2539064 48.9284768,23.2265625 C48.9261982,23.1992186 48.9216409,23.1718751 48.914805,23.1445312 C48.907969,23.1171874 48.8988545,23.0909832 48.8874612,23.065918 C48.8760679,23.0408527 48.8635355,23.0169272 48.8498635,22.9941406 C48.8361916,22.9713541 48.8213806,22.9485678 48.80543,22.9257812 C48.7894794,22.9029947 48.7701111,22.8824871 48.7473245,22.8642578 C48.6789648,22.7958981 48.6094668,22.7469077 48.5388284,22.7172852 C48.46819,22.6876626 48.3872989,22.6728516 48.2961526,22.6728516 C48.1229747,22.6728516 47.9737249,22.7355137 47.8483987,22.8608398 C47.7230726,22.986166 47.6604104,23.1445303 47.6604104,23.3359375 C47.6604104,23.4316411 47.6831967,23.5205074 47.7287698,23.6025391 Z M46.279551,24.3271484 C46.120045,24.0172511 46.0402932,23.691408 46.0402932,23.3496094 C46.0402932,23.2220046 46.0494077,23.0978196 46.067637,22.9770508 C46.0858662,22.8562819 46.1132097,22.7389329 46.1496682,22.625 C46.1861268,22.5110671 46.2305599,22.4016932 46.282969,22.296875 C46.3353781,22.1920568 46.3957616,22.090658 46.4641214,21.9926758 C46.5324811,21.8946935 46.6099543,21.8024093 46.6965432,21.7158203 C46.9152943,21.4970692 47.1579677,21.331869 47.4245706,21.2202148 C47.6911735,21.1085606 47.9771407,21.0527344 48.2824807,21.0527344 C48.3827417,21.0527344 48.4818618,21.0595702 48.579844,21.0732422 C48.6778263,21.0869141 48.7735284,21.1062824 48.8669534,21.1313477 C48.9603783,21.1564129 49.0515233,21.1871743 49.1403909,21.2236328 C49.2292585,21.2600913 49.3158462,21.3022459 49.4001565,21.3500977 C49.4844668,21.3979495 49.565358,21.4526364 49.6428323,21.5141602 C49.7203066,21.5756839 49.7955012,21.6429033 49.8684182,21.7158203 C50.082612,21.9345714 50.2455336,22.1772448 50.3571878,22.4438477 C50.468842,22.7104506 50.5246682,22.9986964 50.5246682,23.3085938 C50.5246682,23.4316412 50.5155537,23.551269 50.4973245,23.6674805 C50.4790952,23.783692 50.4517518,23.8964838 50.4152932,24.0058594 C50.3788347,24.1152349 50.3344016,24.2211909 50.2819925,24.3237305 C50.2295833,24.42627 50.1691998,24.5253901 50.1008401,24.6210938 C50.0324804,24.7167974 49.9550072,24.8079423 49.8684182,24.8945312 C49.6496671,25.1132823 49.4069938,25.2784825 49.1403909,25.3901367 C48.873788,25.5017909 48.5878208,25.5576172 48.2824807,25.5576172 C47.9862553,25.5576172 47.7116812,25.5109054 47.4587503,25.4174805 C47.2058193,25.3240555 46.9802356,25.1861988 46.7819925,25.0039062 C46.5837493,24.8216137 46.4162705,24.59603 46.279551,24.3271484 Z"
                                                      id="+-۱۰۰۰"></path>
                                            </g>
                                        </g>
                                    </g>
                                </g>
                            </g>
                        </svg>

                    </g>
                    <path d="M103.833262,97.9121094 C103.664641,97.7434887 103.580332,97.536134 103.580332,97.2900391 C103.580332,97.0439441 103.665781,96.8354501 103.83668,96.6645508 C104.007579,96.4936515 104.216073,96.4082031 104.462168,96.4082031 C104.712821,96.4082031 104.923593,96.4936515 105.094492,96.6645508 C105.265392,96.8354501 105.35084,97.0416655 105.35084,97.2832031 C105.35084,97.5338554 105.265392,97.7446281 105.094492,97.9155273 C104.923593,98.0864266 104.715099,98.171875 104.469004,98.171875 C104.218352,98.171875 104.00644,98.0852873 103.833262,97.9121094 Z M102.794199,95 C102.452401,95 102.281504,94.7994812 102.281504,94.3984375 L102.281504,94.3232422 C102.281504,93.9176412 102.452401,93.7148438 102.794199,93.7148438 L104.386973,93.7148438 C105.20729,93.7148438 105.617442,93.2203825 105.617442,92.2314453 L105.617442,90.2763672 L106.834239,90.2763672 L106.834239,92.1972656 C106.834239,94.0657646 106.052671,95 104.489512,95 L102.794199,95 Z M102.869395,95 L102.69166,95 C100.991782,95 100.141856,94.0498142 100.141856,92.1494141 L100.141856,85.6552734 L101.358653,85.6552734 L101.358653,92.0878906 C101.358653,93.1725315 101.80982,93.7148438 102.712168,93.7148438 L102.869395,93.7148438 C103.211193,93.7148438 103.38209,93.9176412 103.38209,94.3232422 L103.38209,94.3984375 C103.38209,94.7994812 103.211193,95 102.869395,95 Z M96.8469339,88.6425781 C96.6783132,88.4739575 96.5940042,88.2666028 96.5940042,88.0205078 C96.5940042,87.7744128 96.6794525,87.5659188 96.8503518,87.3950195 C97.0212511,87.2241202 97.2297451,87.1386719 97.4758401,87.1386719 C97.7264924,87.1386719 97.937265,87.2241202 98.1081643,87.3950195 C98.2790636,87.5659188 98.364512,87.7721342 98.364512,88.0136719 C98.364512,88.2643242 98.2790636,88.4750968 98.1081643,88.6459961 C97.937265,88.8168954 97.728771,88.9023438 97.482676,88.9023438 C97.2320238,88.9023438 97.0201118,88.8157561 96.8469339,88.6425781 Z M94.7346292,97.078125 C96.3570331,97.0826823 97.1682229,96.383145 97.1682229,94.9794922 L97.1682229,90.8369141 L98.4397073,90.8300781 L98.4397073,94.9658203 C98.4397073,97.2125763 97.2092509,98.3427734 94.748301,98.3564453 L94.0373635,98.3632812 L94.0373635,97.078125 L94.7346292,97.078125 Z M90.8654885,95 L88.3635354,95 L88.3635354,93.7148438 L90.8723245,93.7148438 C92.0845701,93.7148438 92.6792907,93.4391304 92.6565042,92.8876953 C92.6382749,92.564126 92.4058554,92.1425807 91.9592385,91.6230469 L90.0793557,89.4492188 L90.927012,88.5058594 L92.9777932,90.8984375 C93.5884734,91.6093786 93.8915302,92.2998013 93.8869729,92.9697266 C93.8824156,94.323249 92.8752642,95 90.8654885,95 Z M85.5949807,97.9121094 C85.4263601,97.7434887 85.342051,97.536134 85.342051,97.2900391 C85.342051,97.0439441 85.4274994,96.8354501 85.5983987,96.6645508 C85.769298,96.4936515 85.977792,96.4082031 86.223887,96.4082031 C86.4745393,96.4082031 86.6841726,96.4925122 86.8527932,96.6611328 C86.9393822,96.7477218 87.004323,96.843424 87.0476175,96.9482422 C87.0909119,97.0530604 87.1125589,97.1647129 87.1125589,97.2832031 C87.1125589,97.5338554 87.0271105,97.7446281 86.8562112,97.9155273 C86.6853119,98.0864266 86.4768179,98.171875 86.2307229,98.171875 C85.9800706,98.171875 85.7681587,98.0852873 85.5949807,97.9121094 Z M83.380137,97.9121094 C83.2115164,97.7434887 83.1272073,97.536134 83.1272073,97.2900391 C83.1272073,97.0439441 83.2126557,96.8354501 83.383555,96.6645508 C83.5544542,96.4936515 83.7629483,96.4082031 84.0090432,96.4082031 C84.2596955,96.4082031 84.4704682,96.4936515 84.6413675,96.6645508 C84.8122667,96.8354501 84.8977151,97.0416655 84.8977151,97.2832031 C84.8977151,97.5338554 84.8122667,97.7446281 84.6413675,97.9155273 C84.4704682,98.0864266 84.2619742,98.171875 84.0158792,98.171875 C83.7652269,98.171875 83.5533149,98.0852873 83.380137,97.9121094 Z M83.045176,95 C82.7033775,95 82.5324807,94.7994812 82.5324807,94.3984375 L82.5324807,94.3232422 C82.5324807,93.9176412 82.7033775,93.7148438 83.045176,93.7148438 L84.6379495,93.7148438 C85.4582661,93.7148438 85.8684182,93.2203825 85.8684182,92.2314453 L85.8684182,90.2763672 L87.0852151,90.2763672 L87.0852151,92.1972656 C87.0852151,94.0657646 86.3036474,95 84.7404885,95 L83.045176,95 Z M83.1135354,95 L83.0041604,95 C82.1519426,95 81.4136688,94.6080768 80.7893167,93.8242188 C80.4930912,94.6080768 79.6135427,95 78.1506448,95 L75.5461526,95 L75.5461526,93.7148438 L78.0617776,93.7148438 C79.2512367,93.7148438 79.8368428,93.4436876 79.8186135,92.9013672 C79.8049416,92.5732405 79.5702434,92.147138 79.114512,91.6230469 L77.2414651,89.4560547 L78.1027932,88.5126953 L81.7736917,92.9355469 C82.2066365,93.4550807 82.6327391,93.7148438 83.052012,93.7148438 L83.1135354,93.7148438 C83.455334,93.7148438 83.6262307,93.9176412 83.6262307,94.3232422 L83.6262307,94.3984375 C83.6262307,94.7994812 83.455334,95 83.1135354,95 Z M65.9279885,95 C65.58619,95 65.4152932,94.7994812 65.4152932,94.3984375 L65.4152932,94.3232422 C65.4152932,93.9176412 65.58619,93.7148438 65.9279885,93.7148438 L68.3068948,93.7148438 C69.2502589,93.7148438 69.7242125,93.4072296 69.7287698,92.7919922 C69.7287698,92.5367826 69.4849571,92.1311877 68.9973245,91.5751953 L67.1447854,89.4628906 C66.8804612,89.1621079 66.6981713,88.9433601 66.5979104,88.8066406 C66.4794202,88.6471346 66.4315692,88.4329441 66.4543557,88.1640625 C66.4999289,87.6080701 66.7665278,87.2434904 67.2541604,87.0703125 L71.677012,85.5253906 L71.677012,86.7832031 L67.6506448,88.1914062 L69.8381448,90.6796875 C70.5809871,91.5227907 70.913666,92.3134729 70.8361917,93.0517578 C70.7587173,93.7444696 70.4214811,94.2867819 69.8244729,94.6787109 C69.5009036,94.8929047 69.1044232,95 68.6350198,95 L65.9279885,95 Z M65.9963479,95 L65.8527932,95 C65.1053937,95 64.5904249,94.8131529 64.3078714,94.4394531 L64.3010354,94.6308594 C64.2691342,96.8320423 63.0751357,97.9690752 60.7190042,98.0419922 L60.5891214,98.0488281 L60.404551,98.0488281 C57.7476367,98.0488281 56.4191995,96.7978641 56.4191995,94.2958984 L56.4191995,91.9511719 L57.6428323,91.9511719 L57.6428323,94.2890625 C57.6428323,95.9296957 58.5679533,96.75 60.4182229,96.75 L60.7805276,96.75 C62.3391292,96.7135415 63.1184182,95.9980538 63.1184182,94.6035156 L63.1184182,85.6552734 L64.3078714,85.6552734 L64.3078714,92.0332031 C64.3078714,93.1543025 64.8068898,93.7148438 65.8049417,93.7148438 L65.9963479,93.7148438 C66.3381465,93.7148438 66.5090432,93.9176412 66.5090432,94.3232422 L66.5090432,94.3984375 C66.5090432,94.7994812 66.3381465,95 65.9963479,95 Z"
                          id="بازدید-کل" fill-opacity="0.608667346" fill="#000000"></path>
                </g>
            </g>
        </g>
    </g>
</svg>