<svg width="518px" height="151px" viewBox="0 0 518 151" version="1.1" xmlns="http://www.w3.org/2000/svg" xmlns:xlink="http://www.w3.org/1999/xlink">
    <defs>
        <rect id="path-1" x="0" y="0" width="458" height="91" rx="9"></rect>
        <filter x="-10.8%" y="-44.5%" width="121.6%" height="208.8%" filterUnits="objectBoundingBox" id="filter-2">
            <feOffset dx="0" dy="9" in="SourceAlpha" result="shadowOffsetOuter1"></feOffset>
            <feGaussianBlur stdDeviation="15" in="shadowOffsetOuter1" result="shadowBlurOuter1"></feGaussianBlur>
            <feColorMatrix values="0 0 0 0 0.567970605   0 0 0 0 0.627115348   0 0 0 0 0.770673895  0 0 0 0.163524683 0" type="matrix" in="shadowBlurOuter1"></feColorMatrix>
        </filter>
    </defs>
    <g id="Welcome" stroke="none" stroke-width="1" fill="none" fill-rule="evenodd">
        <g id="Home" transform="translate(-210.000000, -1592.000000)">
            <g id="Group-26" transform="translate(221.000000, 1501.000000)">
                <g id="Group-22" transform="translate(19.000000, 0.000000)">
                    <g id="Group-25" transform="translate(0.000000, 112.000000)">
                        <g id="Rectangle">
                            <use fill="black" fill-opacity="1" filter="url(#filter-2)" xlink:href="#path-1"></use>
                            <use fill="#FFFFFF" fill-rule="evenodd" xlink:href="#path-1"></use>
                        </g>
                        <rect id="Rectangle" fill="#6A75F2" x="261" y="20" width="166" height="9" rx="4.5"></rect>
                        <rect id="Rectangle-Copy-23" fill="#66C956" x="356" y="39" width="71" height="7" rx="3.5"></rect>
                        <g id="Group-24" transform="translate(349.000000, 57.000000)" fill="#FFBA44">
                            <g id="rate-star-button" transform="translate(60.000000, 0.000000)">
                                <polygon id="Path" points="7.5 10.7130435 12.125 14 10.375 8.64347826 15 5.47826087 9.375 5.47826087 7.5 0 5.625 5.47826087 0 5.47826087 4.625 8.64347826 2.875 14"></polygon>
                            </g>
                            <g id="rate-star-button-copy-2" transform="translate(30.000000, 0.000000)">
                                <polygon id="Path" points="7.5 10.7130435 12.125 14 10.375 8.64347826 15 5.47826087 9.375 5.47826087 7.5 0 5.625 5.47826087 0 5.47826087 4.625 8.64347826 2.875 14"></polygon>
                            </g>
                            <g id="rate-star-button-copy" transform="translate(45.000000, 0.000000)">
                                <polygon id="Path" points="7.5 10.7130435 12.125 14 10.375 8.64347826 15 5.47826087 9.375 5.47826087 7.5 0 5.625 5.47826087 0 5.47826087 4.625 8.64347826 2.875 14"></polygon>
                            </g>
                            <g id="rate-star-button-copy-3" transform="translate(15.000000, 0.000000)">
                                <polygon id="Path" points="7.5 10.7130435 12.125 14 10.375 8.64347826 15 5.47826087 9.375 5.47826087 7.5 0 5.625 5.47826087 0 5.47826087 4.625 8.64347826 2.875 14"></polygon>
                            </g>
                            <g id="rate-star-button-copy-4">
                                <polygon id="Path" points="7.5 10.7130435 12.125 14 10.375 8.64347826 15 5.47826087 9.375 5.47826087 7.5 0 5.625 5.47826087 0 5.47826087 4.625 8.64347826 2.875 14"></polygon>
                            </g>
                        </g>
                    </g>
                </g>
            </g>
        </g>
    </g>
</svg>