<svg width="144px" height="45px" viewBox="0 0 144 45" version="1.1" xmlns="http://www.w3.org/2000/svg">
    <g id="Welcome" stroke="none" stroke-width="1" fill="none" fill-rule="evenodd" opacity="0.520810082">
        <g id="SEO" transform="translate(-485.000000, -518.000000)">
            <g id="Group" transform="translate(153.000000, 293.000000)">
                <g id="Group-22" transform="translate(76.000000, 0.000000)">
                    <g id="Group-25-Copy" transform="translate(31.000000, 208.000000)">
                        <rect id="Rectangle" fill="#C9D2DA" x="225" y="17" width="144" height="8" rx="4"></rect>
                        <rect id="Rectangle-Copy-23" fill="#DBE3E9" x="308" y="34" width="61" height="6" rx="3"></rect>
                        <g id="Group-24" transform="translate(302.000000, 50.000000)" fill="#C9D2DA">
                            <g id="rate-star-button" transform="translate(52.000000, 0.000000)">
                                <polygon id="Path" points="6.5 9.1826087 10.5083333 12 8.99166667 7.40869565 13 4.69565217 8.125 4.69565217 6.5 0 4.875 4.69565217 0 4.69565217 4.00833333 7.40869565 2.49166667 12"></polygon>
                            </g>
                            <g id="rate-star-button-copy-2" transform="translate(26.000000, 0.000000)">
                                <polygon id="Path" points="6.5 9.1826087 10.5083333 12 8.99166667 7.40869565 13 4.69565217 8.125 4.69565217 6.5 0 4.875 4.69565217 0 4.69565217 4.00833333 7.40869565 2.49166667 12"></polygon>
                            </g>
                            <g id="rate-star-button-copy" transform="translate(39.000000, 0.000000)">
                                <polygon id="Path" points="6.5 9.1826087 10.5083333 12 8.99166667 7.40869565 13 4.69565217 8.125 4.69565217 6.5 0 4.875 4.69565217 0 4.69565217 4.00833333 7.40869565 2.49166667 12"></polygon>
                            </g>
                        </g>
                    </g>
                </g>
            </g>
        </g>
    </g>
</svg>