<svg width="88px" height="76px" viewBox="0 0 88 76" version="1.1" xmlns="http://www.w3.org/2000/svg">
    <defs>
        <linearGradient x1="64.1738656%" y1="0%" x2="40.821231%" y2="62.6686759%" id="linearGradient-1">
            <stop stop-color="#FF9D61" offset="0%"></stop>
            <stop stop-color="#FFD873" offset="100%"></stop>
        </linearGradient>
    </defs>
    <g id="Welcome" stroke="none" stroke-width="1" fill="none" fill-rule="evenodd">
        <g id="SEO" transform="translate(-648.000000, -377.000000)">
            <g id="Group" transform="translate(153.000000, 293.000000)">
                <g id="Group-2" transform="translate(0.000000, 80.000000)">
                    <g id="yellow-paper" transform="translate(495.000000, 3.000000)">
                        <path d="M42.220024,1.012596 C36.706032,16.412994 18.754384,25.301952 0.630168,28.674906 C7.950624,40.153854 22.562144,58.601478 35.255704,71.922318 C35.85956,72.556068 38.305696,73.548618 38.949064,74.069346 C42.838136,77.217426 47.0008,75.437934 49.161816,75.407514 C59.851704,72.050628 69.340304,70.60989 78.236752,62.510448 C82.798144,58.357806 86.186496,54.54579 87.262472,52.698204 C84.604256,44.558202 71.444472,37.428222 42.220024,1.012596 Z"
                              id="" fill="url(#linearGradient-1)"></path>
                        <path d="M46.498002,66.7694484 C46.7007902,71.280385 38.7903611,75.4111778 34.2707859,70.9806895 C39.1175268,75.6390045 43.4284249,76.3263795 47.0040727,76.3149741 C50.5798842,76.3034924 67.2788549,76.3444803 87.194082,52.7096256 C69.5739764,71.9565075 56.2171663,76.9033417 46.498002,66.7694484 Z"
                              id="" fill="#FF9600"></path>
                    </g>
                </g>
            </g>
        </g>
    </g>
</svg>