<svg width="65px" height="51px" viewBox="0 0 65 51" version="1.1" xmlns="http://www.w3.org/2000/svg">
    <defs>
        <linearGradient x1="22.9331881%" y1="100%" x2="73.7088631%" y2="58.1418467%" id="linearGradient-1">
            <stop stop-color="#ACC1E3" offset="0%"></stop>
            <stop stop-color="#D6E3FA" offset="100%"></stop>
        </linearGradient>
    </defs>
    <g id="Welcome" stroke="none" stroke-width="1" fill="none" fill-rule="evenodd">
        <g id="SEO" transform="translate(-704.000000, -491.000000)">
            <g id="Group" transform="translate(153.000000, 293.000000)">
                <g id="Group-2" transform="translate(0.000000, 80.000000)">
                    <g id="paper" transform="translate(550.000000, 117.000000)">
                        <path d="M56.4598677,5.11937002 C58.5390331,7.15931145 60.3116065,9.1373015 61.777022,11.0535583 C64.8279425,15.0425501 65.7391222,20.5562944 65.5268544,20.6955032 C64.3696465,21.4552255 57.7527543,17.0727298 56.4598677,13.5133439 C55.6848149,11.3794392 55.6848149,8.58148432 56.4598677,5.11937002 Z"
                              id="" fill="#A1B8E3"></path>
                        <path d="M1.009087,40.116546 C16.218623,29.75859 24.191623,16.85367 24.929159,1.401786 C28.922895,0.80757 36.637007,1.54899 55.993039,4.90617 C57.795607,5.21883 57.954799,8.07111 56.471151,13.463118 C62.996951,15.850188 65.986759,18.124128 65.441647,20.284722 C60.711447,39.017322 54.454183,47.557962 45.010935,51.57135 C34.177839,52.94322 19.510735,49.124934 1.009087,40.116546 Z"
                              id="" fill="url(#linearGradient-1)"></path>
                    </g>
                </g>
            </g>
        </g>
    </g>
</svg>