<svg width="317px" height="273px" viewBox="0 0 317 273" version="1.1" xmlns="http://www.w3.org/2000/svg">
    <defs>
        <linearGradient x1="29.7408525%" y1="9.37865042%" x2="50%" y2="100%" id="linearGradient-1">
            <stop stop-color="#FDDEDA" offset="0%"></stop>
            <stop stop-color="#FCA49A" offset="100%"></stop>
        </linearGradient>
    </defs>
    <g id="Welcome" stroke="none" stroke-width="1" fill="none" fill-rule="evenodd">
        <g id="Home" transform="translate(-75.000000, -2985.000000)" fill="url(#linearGradient-1)">
            <g id="design-section" transform="translate(35.000000, 2912.000000)">
                <g id="Group-19">
                    <g id="Group-9">
                        <path d="M204.209979,42.2222735 C122.370716,59.2878029 193.032955,88.2265324 173.81181,135.981612 C168.204371,149.913337 79.8592437,206.578781 78.3583105,216.907189 C78.1713308,218.193857 77.6595225,219.71076 78.3583105,220.80765 C90.7383489,240.240632 123.880515,239.553633 126.052026,264.54853 C128.378256,291.324305 114.664269,281.740149 105.637568,310.23964 C92.5609248,351.525786 141.491799,369.482284 171.739385,369.303758 C215.853128,369.043391 241.931256,350.549551 279.506849,325.679712 C336.622958,287.876758 336.936772,218.441667 326.40432,159.137233 C320.426488,125.478225 306.358251,83.4157126 275.458146,63.8141092 C254.071151,50.2471842 243.125759,49.3955425 218.677343,42.8378992 L204.209979,42.2222735 Z"
                              id="Path-13-Copy-2" transform="translate(204.858235, 205.763675) rotate(44.000000) translate(-204.858235, -205.763675) "></path>
                    </g>
                </g>
            </g>
        </g>
    </g>
</svg>