<svg width="30px" height="28px" viewBox="0 0 30 28" version="1.1" xmlns="http://www.w3.org/2000/svg">
    <g id="Welcome" stroke="none" stroke-width="1" fill="none" fill-rule="evenodd">
        <g id="Home" transform="translate(-1023.000000, -4290.000000)" fill="#D0DEEA">
            <g id="testimonials" transform="translate(25.000000, 3914.000000)">
                <g id="Group-52" transform="translate(273.000000, 209.000000)">
                    <g id="testimonials-body-copy" transform="translate(0.000000, 28.000000)">
                        <g id="Group-57" transform="translate(22.000000, 28.000000)">
                            <g id="Group-55" transform="translate(131.000000, 106.000000)">
                                <g id="right-quote-sign-(1)" transform="translate(572.000000, 5.000000)">
                                    <path d="M28.433158,0 C29.2980234,0 30,0.72879067 30,1.62669227 L30,9.40228131 C30,13.2087412 29.6772619,16.2083618 29.0316916,18.4076497 C28.3861527,20.6069376 27.1922504,22.5784887 25.4498908,24.3255562 C24.0209622,25.7570454 22.2692015,26.9347706 20.1947027,27.8652385 C19.417549,28.2133832 18.5181817,27.8652385 18.1546744,27.0714453 L17.0265481,24.598873 C16.650506,23.7724808 16.998345,22.7834519 17.8037018,22.4158194 C19.5554625,21.6122335 20.8653111,20.5939241 21.7302078,19.3641448 C22.8269973,17.8057736 23.4067288,15.7334001 23.4662688,13.1436735 L18.9067585,13.1436735 C18.0418617,13.1436735 17.3399165,12.4149479 17.3399165,11.5169813 L17.3399165,1.62669227 C17.3399165,0.728758136 18.0418617,0 18.9067585,0 L28.433158,0 Z M3.32286769,27.86382 C2.54571405,28.2152823 1.64007936,27.86382 1.27654068,27.0698818 L0.151548112,24.6033659 C-0.224493971,23.7768227 0.123344956,22.7876132 0.928701752,22.4199136 C2.68043113,21.6161808 3.99031105,20.5976855 4.85520784,19.3676815 C5.95199725,17.8090257 6.5317288,15.7362738 6.5912688,13.1460741 L2.03175853,13.1460741 C1.16686174,13.1460741 0.464916515,12.4172154 0.464916515,11.5190848 L0.464916515,1.62698937 C0.464916515,0.72889124 1.16686174,0 2.03175853,0 L11.558158,0 C12.4230861,0 13.125,0.72889124 13.125,1.62698937 L13.125,9.40399858 C13.125,13.2404395 12.8022619,16.2503699 12.156723,18.4337896 C11.5111841,20.6172094 10.3109831,22.5826125 8.55298634,24.3299991 C7.11462537,25.7585283 5.37229704,26.9364361 3.32286769,27.86382 Z"
                                          id="Combined-Shape"></path>
                                </g>
                            </g>
                        </g>
                    </g>
                </g>
            </g>
        </g>
    </g>
</svg>