<svg width="1593px" height="803px" viewBox="0 0 1593 803" version="1.1" xmlns="http://www.w3.org/2000/svg">
    <g id="Welcome" stroke="none" stroke-width="1" fill="none" fill-rule="evenodd">
        <g id="Home" transform="translate(0.000000, -2027.000000)" fill="#F6FBFF">
            <g id="devider" transform="translate(494.807746, 2305.228249) rotate(-1.000000) translate(-494.807746, -2305.228249) translate(-900.692254, 1759.728249)">
                <path d="M2790.07292,251.394947 C2686.86474,301.507572 2086.85197,333.878081 2015.2174,337.36696 C1630.04186,356.126486 1194.41236,321.783257 811.066629,240.075985 C786.212503,234.778514 648.220861,207.259834 605.35925,196.26503 C528.767205,176.617741 269.693199,99.4463827 195.199561,76.4531709 C172.478375,69.4400479 27.3514874,9.57856067 5.01450637,2.03042638 C-36.4335171,-11.9757299 197.568112,88.5213315 159.764987,87.7532558 C155.160922,87.6597114 151.781244,91.0310688 148.773291,93.3712065 C142.979944,97.8783348 138.431129,103.049733 133.65619,108.06547 C103.190713,140.067308 97.9113518,186.471803 91.8843666,222.689786 C88.0630213,245.65341 85.1166119,299.36286 87.1905238,315.06883 C89.8876619,335.494565 97.8353497,355.46828 104.525099,375.476902 C105.711052,379.024012 107.869383,382.47315 110.755416,385.549948 C137.031561,413.56294 166.269282,422.385447 214.475834,428.14519 C306.548919,439.146128 437.806668,452.816872 537.669985,458.889123 C643.508589,465.324705 796.263676,470.717067 898.099704,472.258184 C1033.65889,474.309644 1169.25755,475.130634 1304.84876,475.678791 C1328.35174,475.773807 1351.88253,475.331966 1375.32394,474.187467 C1496.15035,468.288261 1726.25955,453.643856 1875.07749,448.536689 C1936.06357,446.443756 2048.24134,452.366855 2086.85197,452.368827 C2106.70873,452.36984 2126.30275,449.250439 2146.09907,448.211996 C2189.33807,445.943837 2232.98175,446.511058 2275.92829,442.450576 C2304.18461,439.779016 2331.7827,434.223002 2358.81908,428.099884 C2376.59171,424.07479 2391.99794,416.075908 2409.80974,412.1295 C2449.88729,403.249861 2508.12284,403.153326 2544.29903,385.093112 C2584.56684,364.990247 2578.7216,361.200412 2592.86961,324.035653 C2596.17592,315.350461 2596.73922,300.706615 2586.48734,293.412536 C2513.69379,241.620917 2637.49463,335.610077 2574.07736,286.990403 L2790.07292,251.394947 Z"
                      id="Path-2"></path>
                <path d="M134.638334,352.198794 L2590.63833,352.198794 L2590.63833,1090.19879 C1836.97734,1070.47463 1271.9791,1060.61255 895.643622,1060.61255 C519.308144,1060.61255 265.639715,1070.47463 134.638334,1090.19879" id="Rectangle"></path>
            </g>
        </g>
    </g>
</svg>