<svg width="276px" height="297px" viewBox="0 0 276 297" version="1.1" xmlns="http://www.w3.org/2000/svg" xmlns:xlink="http://www.w3.org/1999/xlink">
    <defs>
        <polygon id="path-1" points="0 0.522789474 0 222.578632 275.479245 296.420474 275.479245 74.3652105"></polygon>
        <linearGradient x1="116.11784%" y1="10.9577025%" x2="-270.674368%" y2="239.357487%" id="linearGradient-3">
            <stop stop-color="#F2F2F2" offset="0%"></stop>
            <stop stop-color="#DBEDFB" offset="100%"></stop>
        </linearGradient>
        <path d="M4.87484277,20.3691053 C12.2614591,22.4921053 20.1265912,4.47410526 28.6640755,6.61505263 C37.2015597,8.75542105 43.8978868,26.2118421 52.4544654,28.5050526 C61.011044,30.7988421 65.9153962,-2.45994737 76.2436981,0.308578947 C86.5714214,3.07710526 91.0163522,31.3065789 100.033509,33.6131053 C109.050088,35.9190526 115.029509,33.4955789 123.822742,35.5572105 C132.616553,37.6188421 137.508755,50.2248421 147.612553,52.8306842 L156.022164,55.0845263 L156.022164,72.8883158 L0.135974843,31.1033684 L0.135974843,19.1168421 L4.87484277,20.3691053 Z"
              id="path-4"></path>
        <linearGradient x1="49.9998563%" y1="6.69931958%" x2="49.9998563%" y2="71.2948425%" id="linearGradient-6">
            <stop stop-color="#EBEBEB" offset="0%"></stop>
            <stop stop-color="#FFFFFF" offset="100%"></stop>
        </linearGradient>
        <path d="M63.5586918,15.9916842 C60.4046541,22.7671053 57.1441509,29.7735263 53.6116981,28.8263684 C49.6759497,27.7721053 45.9380881,22.9471579 42.3234717,18.2814211 C38.478566,13.3192632 34.5046289,8.19036842 29.9416604,6.96705263 C29.8971069,6.95547368 29.8531321,6.94389474 29.8091572,6.93231579 C25.0413585,5.73736842 20.7057862,10.0939474 16.5119748,14.3075263 C12.9610063,17.8755789 9.29026415,21.5640526 6.09225157,20.7072105 C6.07084277,20.7014211 6.04943396,20.6950526 6.02918239,20.6892632 L1.28973585,19.4375789 C0.812955975,19.3113684 0.428176101,19.6564211 0.429333333,20.207 C0.431069182,20.7575789 0.817006289,21.3058421 1.29320755,21.4326316 C1.29378616,21.4332105 1.29436478,21.4332105 1.29610063,21.4332105 L6.01703145,22.6808421 C6.04885535,22.6895263 6.08010063,22.6982105 6.11192453,22.7068947 C10.0540377,23.7628947 13.8133082,19.987 17.790717,15.9905263 C21.7368805,12.0258947 25.8167044,7.92636842 29.8346164,8.93373684 C29.8716478,8.943 29.9069434,8.95226316 29.9433962,8.96210526 C33.8502138,10.0094211 37.4115975,14.6056842 41.1783899,19.4682632 C45.0342893,24.4448947 49.0215346,29.5911579 53.6116981,30.8208421 C58.2325283,32.0597895 61.5763522,24.8750526 65.1169057,17.2688421 C68.5949686,9.79405263 72.538239,1.32115789 77.4009308,2.62436842 C82.2445283,3.92294737 85.8770818,11.8493158 89.3898616,19.5151579 C92.9495094,27.2828947 96.3124277,34.6216316 101.132881,35.9138421 C101.154868,35.9196316 101.177434,35.9254211 101.2,35.9312105 C105.928453,37.1406316 109.865358,37.0763684 113.673233,37.0144211 C117.347447,36.9542105 120.817987,36.8974737 125.005434,37.8793684 C128.996151,38.8120526 132.212679,42.1612632 135.608579,45.7015263 C139.366113,49.6186842 143.249786,53.6678421 148.622818,55.1076842 C148.671421,55.121 148.720604,55.1337368 148.769786,55.1464737 L157.179396,57.4003158 C157.656176,57.5282632 158.042692,57.1855263 158.042692,56.6343684 C158.042692,56.0837895 157.656176,55.5337895 157.179396,55.4058421 L148.762264,53.1496842 C148.719447,53.1386842 148.677208,53.1276842 148.635547,53.1166842 C143.77517,51.8140526 140.113107,47.9953158 136.570239,44.3022105 C133.097384,40.6826316 129.50244,36.9345263 124.955673,35.8721579 C120.583648,34.8474211 116.86083,34.9076316 113.260679,34.9672632 C109.548277,35.0274737 105.710314,35.09 101.180906,33.9315263 C101.165862,33.9274737 101.151396,33.924 101.135195,33.9199474 C97.2873962,32.8882632 94.1692327,26.0833158 90.8682264,18.8806316 C87.1083774,10.6752105 83.2189182,2.189 77.4009308,0.629894737 C76.9160503,0.499631579 76.4438994,0.437684211 75.9838994,0.437684211 C70.7971824,0.437684211 67.1218113,8.33452632 63.5586918,15.9916842"
              id="path-7"></path>
        <linearGradient x1="50.000003%" y1="71.1150547%" x2="50.000003%" y2="3.18814905%" id="linearGradient-9">
            <stop stop-color="#4D87FF" offset="0%"></stop>
            <stop stop-color="#F9346B" offset="100%"></stop>
        </linearGradient>
        <path d="M0.0648050314,1.21984211 L0.0648050314,1.31421053 C0.0648050314,1.84510526 0.411974843,2.37484211 0.867924528,2.56589474 C3.89813836,3.83321053 6.23922013,7.45336842 6.23922013,11.0775789 C6.23922013,13.4153684 5.26483019,15.2280526 3.75984906,16.1248421 C3.39127044,16.3448421 3.27207547,16.8902105 3.49715723,17.4147368 L3.53650314,17.5050526 C3.80324528,18.1268421 4.42872956,18.447 4.86674214,18.1882105 C6.84445283,17.0216316 8.12666667,14.6479474 8.12666667,11.5835789 C8.12666667,6.84431579 5.06173585,2.10968421 1.0970566,0.462 C0.983647799,0.415105263 0.873132075,0.393105263 0.768402516,0.393105263 C0.370314465,0.393105263 0.0648050314,0.716736842 0.0648050314,1.21984211"
              id="path-10"></path>
        <linearGradient x1="-21.5473897%" y1="-23.4915002%" x2="110.67083%" y2="112.39655%" id="linearGradient-12">
            <stop stop-color="#4D87FF" offset="0%"></stop>
            <stop stop-color="#F9346B" offset="100%"></stop>
        </linearGradient>
        <polygon id="path-13" points="0.308402516 5.35178947 1.14855346 5.57757895 1.14855346 0.608473684 0.308402516 0.383842105"></polygon>
        <linearGradient x1="-167.292534%" y1="40.570525%" x2="6237.5043%" y2="318.288395%" id="linearGradient-15">
            <stop stop-color="#4D87FF" offset="0%"></stop>
            <stop stop-color="#F9346B" offset="100%"></stop>
        </linearGradient>
        <polygon id="path-16" points="0.552578616 5.14857895 1.39215094 5.37436842 1.39215094 0.405263158 0.552578616 0.180052632"></polygon>
        <linearGradient x1="-334.329304%" y1="33.3435332%" x2="6074.88159%" y2="311.030449%" id="linearGradient-18">
            <stop stop-color="#4D87FF" offset="0%"></stop>
            <stop stop-color="#F9346B" offset="100%"></stop>
        </linearGradient>
        <polygon id="path-19" points="0.217559748 5.52431579 1.05771069 5.74952632 1.05771069 0.780421053 0.217559748 0.555210526"></polygon>
        <linearGradient x1="-500.836687%" y1="26.1210633%" x2="5903.96015%" y2="303.807979%" id="linearGradient-21">
            <stop stop-color="#4D87FF" offset="0%"></stop>
            <stop stop-color="#F9346B" offset="100%"></stop>
        </linearGradient>
        <polygon id="path-22" points="0.461157233 5.32110526 1.30130818 5.54573684 1.30130818 0.577789474 0.461157233 0.352"></polygon>
        <linearGradient x1="-667.576426%" y1="18.888873%" x2="5737.22041%" y2="296.606743%" id="linearGradient-24">
            <stop stop-color="#4D87FF" offset="0%"></stop>
            <stop stop-color="#F9346B" offset="100%"></stop>
        </linearGradient>
        <polygon id="path-25" points="0.126716981 5.11731579 0.966289308 5.34252632 0.966289308 0.374 0.126716981 0.148789474"></polygon>
        <linearGradient x1="-834.955872%" y1="11.654791%" x2="5574.25502%" y2="289.372661%" id="linearGradient-27">
            <stop stop-color="#4D87FF" offset="0%"></stop>
            <stop stop-color="#F9346B" offset="100%"></stop>
        </linearGradient>
        <polygon id="path-28" points="0.369735849 5.49305263 1.21046541 5.71768421 1.21046541 0.749736842 0.369735849 0.523947368"></polygon>
        <linearGradient x1="-1000.29554%" y1="4.43423699%" x2="5399.65278%" y2="282.132993%" id="linearGradient-30">
            <stop stop-color="#4D87FF" offset="0%"></stop>
            <stop stop-color="#F9346B" offset="100%"></stop>
        </linearGradient>
        <polygon id="path-31" points="0.0347169811 5.28984211 0.875446541 5.51447368 0.875446541 0.546526316 0.0347169811 0.320736842"></polygon>
        <linearGradient x1="-1166.89952%" y1="-2.79984506%" x2="5233.0488%" y2="274.898911%" id="linearGradient-33">
            <stop stop-color="#4D87FF" offset="0%"></stop>
            <stop stop-color="#F9346B" offset="100%"></stop>
        </linearGradient>
        <polygon id="path-34" points="0.278893082 5.08605263 1.11962264 5.31126316 1.11962264 0.342736842 0.278893082 0.117526316"></polygon>
        <linearGradient x1="-1333.58283%" y1="-10.0339271%" x2="5066.36549%" y2="267.664829%" id="linearGradient-36">
            <stop stop-color="#4D87FF" offset="0%"></stop>
            <stop stop-color="#F9346B" offset="100%"></stop>
        </linearGradient>
        <polygon id="path-37" points="0.52191195 5.46121053 1.36322013 5.687 1.36322013 0.718473684 0.52191195 0.493263158"></polygon>
        <linearGradient x1="-1499.09887%" y1="-17.2683491%" x2="4896.44784%" y2="260.430407%" id="linearGradient-39">
            <stop stop-color="#4D87FF" offset="0%"></stop>
            <stop stop-color="#F9346B" offset="100%"></stop>
        </linearGradient>
        <polygon id="path-40" points="0.187471698 5.258 1.02820126 5.48321053 1.02820126 0.515263158 0.187471698 0.289473684"></polygon>
        <linearGradient x1="-1666.92521%" y1="-24.4957062%" x2="4733.46365%" y2="253.222164%" id="linearGradient-42">
            <stop stop-color="#4D87FF" offset="0%"></stop>
            <stop stop-color="#F9346B" offset="100%"></stop>
        </linearGradient>
        <polygon id="path-43" points="0.431069182 5.05478947 1.27237736 5.28 1.27237736 0.312052632 0.431069182 0.0862631579"></polygon>
        <linearGradient x1="-1832.29126%" y1="-31.7311481%" x2="4563.69568%" y2="245.986722%" id="linearGradient-45">
            <stop stop-color="#4D87FF" offset="0%"></stop>
            <stop stop-color="#F9346B" offset="100%"></stop>
        </linearGradient>
        <polygon id="path-46" points="0.0966289308 5.42994737 0.936779874 5.65573684 0.936779874 0.687210526 0.0966289308 0.462"></polygon>
        <linearGradient x1="-2001.62368%" y1="-38.9655702%" x2="4403.17315%" y2="238.7523%" id="linearGradient-48">
            <stop stop-color="#4D87FF" offset="0%"></stop>
            <stop stop-color="#F9346B" offset="100%"></stop>
        </linearGradient>
        <polygon id="path-49" points="0.340226415 5.22673684 1.18095597 5.45252632 1.18095597 0.483421053 0.340226415 0.258789474"></polygon>
        <linearGradient x1="-2166.86269%" y1="-46.1999922%" x2="4233.52617%" y2="231.517878%" id="linearGradient-51">
            <stop stop-color="#4D87FF" offset="0%"></stop>
            <stop stop-color="#F9346B" offset="100%"></stop>
        </linearGradient>
        <polygon id="path-52" points="0.00520754717 5.02352632 0.845937107 5.24873684 0.845937107 0.280210526 0.00520754717 0.055"></polygon>
        <linearGradient x1="-2333.48977%" y1="-53.4236072%" x2="4066.89908%" y2="224.294263%" id="linearGradient-54">
            <stop stop-color="#4D87FF" offset="0%"></stop>
            <stop stop-color="#F9346B" offset="100%"></stop>
        </linearGradient>
        <polygon id="path-55" points="0.249383648 5.39926316 1.08953459 5.62447368 1.08953459 0.655947368 0.249383648 0.430157895"></polygon>
        <linearGradient x1="-2501.90758%" y1="-60.6404637%" x2="3902.88926%" y2="217.046452%" id="linearGradient-57">
            <stop stop-color="#4D87FF" offset="0%"></stop>
            <stop stop-color="#F9346B" offset="100%"></stop>
        </linearGradient>
        <polygon id="path-58" points="0.492981132 5.19547368 1.33371069 5.42126316 1.33371069 0.452157895 0.492981132 0.226947368"></polygon>
        <linearGradient x1="-2666.80227%" y1="-67.8740794%" x2="3733.58659%" y2="209.812837%" id="linearGradient-60">
            <stop stop-color="#4D87FF" offset="0%"></stop>
            <stop stop-color="#F9346B" offset="100%"></stop>
        </linearGradient>
        <polygon id="path-61" points="0.158540881 4.99226316 0.998691824 5.21747368 0.998691824 0.248947368 0.158540881 0.0237368421"></polygon>
        <linearGradient x1="-2835.44752%" y1="-75.1160673%" x2="3569.34932%" y2="202.601802%" id="linearGradient-63">
            <stop stop-color="#4D87FF" offset="0%"></stop>
            <stop stop-color="#F9346B" offset="100%"></stop>
        </linearGradient>
        <polygon id="path-64" points="0.401559748 5.368 1.24286792 5.59321053 1.24286792 0.624684211 0.401559748 0.398894737"></polygon>
        <linearGradient x1="-2997.99103%" y1="-82.3311848%" x2="3397.99591%" y2="195.355731%" id="linearGradient-66">
            <stop stop-color="#4D87FF" offset="0%"></stop>
            <stop stop-color="#F9346B" offset="100%"></stop>
        </linearGradient>
        <polygon id="path-67" points="0.0665408805 5.16421053 0.907849057 5.38942105 0.907849057 0.420894737 0.0665408805 0.195684211"></polygon>
        <linearGradient x1="-3164.49302%" y1="-89.5741043%" x2="3231.49392%" y2="188.143765%" id="linearGradient-69">
            <stop stop-color="#4D87FF" offset="0%"></stop>
            <stop stop-color="#F9346B" offset="100%"></stop>
        </linearGradient>
        <polygon id="path-70" points="0.310716981 5.53994737 1.15144654 5.76515789 1.15144654 0.796631579 0.310716981 0.571421053"></polygon>
        <linearGradient x1="-3333.36474%" y1="-96.8088663%" x2="3067.02412%" y2="180.909003%" id="linearGradient-72">
            <stop stop-color="#4D87FF" offset="0%"></stop>
            <stop stop-color="#F9346B" offset="100%"></stop>
        </linearGradient>
        <polygon id="path-73" points="0.554314465 5.33615789 1.39562264 5.56136842 1.39562264 0.593421053 0.554314465 0.367631579"></polygon>
        <linearGradient x1="-3497.58467%" y1="-104.032481%" x2="2898.40227%" y2="173.685388%" id="linearGradient-75">
            <stop stop-color="#4D87FF" offset="0%"></stop>
            <stop stop-color="#F9346B" offset="100%"></stop>
        </linearGradient>
        <polygon id="path-76" points="0.219874214 5.13294737 1.06060377 5.35815789 1.06060377 0.390210526 0.219874214 0.164421053"></polygon>
        <linearGradient x1="-3666.67723%" y1="-111.266563%" x2="2733.71163%" y2="166.451306%" id="linearGradient-78">
            <stop stop-color="#4D87FF" offset="0%"></stop>
            <stop stop-color="#F9346B" offset="100%"></stop>
        </linearGradient>
        <polygon id="path-79" points="0.463471698 5.50810526 1.30420126 5.73389474 1.30420126 0.765368421 0.463471698 0.540157895"></polygon>
        <linearGradient x1="-3833.03967%" y1="-118.490439%" x2="2566.90865%" y2="159.208317%" id="linearGradient-81">
            <stop stop-color="#4D87FF" offset="0%"></stop>
            <stop stop-color="#F9346B" offset="100%"></stop>
        </linearGradient>
        <polygon id="path-82" points="0.12845283 5.30489474 0.969761006 5.53068421 0.969761006 0.562157895 0.12845283 0.336947368"></polygon>
        <linearGradient x1="-3996.90336%" y1="-125.724181%" x2="2398.64334%" y2="151.974575%" id="linearGradient-84">
            <stop stop-color="#4D87FF" offset="0%"></stop>
            <stop stop-color="#F9346B" offset="100%"></stop>
        </linearGradient>
        <path d="M0.429333333,0.958736842 C0.429333333,1.52321053 0.887018868,2.10389474 1.45059119,2.25442105 L35.539195,11.3919474 C36.1039245,11.5436316 36.5610314,11.2084211 36.5610314,10.6439474 C36.5610314,10.0800526 36.1039245,9.49994737 35.539195,9.34884211 L1.45059119,0.211315789 C1.35916981,0.186421053 1.27064151,0.174842105 1.18616352,0.174842105 C0.750465409,0.174842105 0.429333333,0.486894737 0.429333333,0.958736842"
              id="path-85"></path>
        <linearGradient x1="-3.93304396%" y1="-42.8492313%" x2="268.863438%" y2="426.794316%" id="linearGradient-87">
            <stop stop-color="#4D87FF" offset="0%"></stop>
            <stop stop-color="#F9346B" offset="100%"></stop>
        </linearGradient>
        <path d="M0.429333333,1.30436842 C0.429333333,1.86826316 0.887018868,2.44894737 1.45059119,2.59947368 L10.0962767,4.917 C10.6604277,5.06810526 11.1175346,4.73347368 11.1175346,4.16957895 C11.1175346,3.60510526 10.6604277,3.025 10.0962767,2.87389474 L1.45059119,0.556368421 C1.35916981,0.532052632 1.27064151,0.519894737 1.18616352,0.519894737 C0.750465409,0.519894737 0.429333333,0.831947368 0.429333333,1.30436842"
              id="path-88"></path>
        <linearGradient x1="-13.2956583%" y1="-31.818725%" x2="908.89931%" y2="1160.31109%" id="linearGradient-90">
            <stop stop-color="#4D87FF" offset="0%"></stop>
            <stop stop-color="#F9346B" offset="100%"></stop>
        </linearGradient>
        <path d="M0.429333333,1.07047368 C0.429333333,1.63494737 0.887018868,2.21447368 1.45059119,2.36615789 L21.7634969,7.81057895 C22.3276478,7.96226316 22.7853333,7.62705263 22.7853333,7.06257895 C22.7853333,6.49868421 22.3276478,5.91857895 21.7634969,5.76747368 L1.45059119,0.322473684 C1.35916981,0.298157895 1.27064151,0.286 1.18616352,0.286 C0.750465409,0.286 0.429333333,0.598052632 0.429333333,1.07047368"
              id="path-91"></path>
        <linearGradient x1="-6.35659316%" y1="-39.3454165%" x2="434.536712%" y2="659.654469%" id="linearGradient-93">
            <stop stop-color="#4D87FF" offset="0%"></stop>
            <stop stop-color="#F9346B" offset="100%"></stop>
        </linearGradient>
        <path d="M0.429333333,0.836578947 L0.429333333,0.837157895 C0.429333333,1.40047368 0.887018868,1.98057895 1.45059119,2.13226316 L43.9071447,13.5126316 C44.4712956,13.6637368 44.9278239,13.3285263 44.9278239,12.7646316 C44.9278239,12.2007368 44.4712956,11.6206316 43.9071447,11.4695263 L1.45059119,0.0885789474 C1.35916981,0.0642631579 1.27064151,0.0521052632 1.18616352,0.0521052632 C0.750465409,0.0521052632 0.429333333,0.364157895 0.429333333,0.836578947"
              id="path-94"></path>
        <linearGradient x1="-3.19348196%" y1="-44.0393201%" x2="218.311477%" y2="347.550166%" id="linearGradient-96">
            <stop stop-color="#4D87FF" offset="0%"></stop>
            <stop stop-color="#F9346B" offset="100%"></stop>
        </linearGradient>
        <polygon id="path-97" points="0.0595974843 4.12036842 3.32125786 4.99457895 3.32125786 1.22678947 0.0595974843 0.352578947"></polygon>
        <linearGradient x1="-1506.02061%" y1="-243.064712%" x2="559.219406%" y2="145.913446%" id="linearGradient-99">
            <stop stop-color="#4D87FF" offset="0%"></stop>
            <stop stop-color="#F9346B" offset="100%"></stop>
        </linearGradient>
        <polygon id="path-100" points="0.394616352 4.06594737 3.65627673 4.94015789 3.65627673 1.17236842 0.394616352 0.298157895"></polygon>
        <linearGradient x1="-1764.65515%" y1="-291.781434%" x2="300.584868%" y2="97.1967236%" id="linearGradient-102">
            <stop stop-color="#4D87FF" offset="0%"></stop>
            <stop stop-color="#F9346B" offset="100%"></stop>
        </linearGradient>
        <polygon id="path-103" points="0.0595974843 3.97736842 3.32125786 4.851 3.32125786 1.08378947 0.0595974843 0.209578947"></polygon>
        <linearGradient x1="-1506.02061%" y1="-243.104472%" x2="559.219406%" y2="145.922205%" id="linearGradient-105">
            <stop stop-color="#4D87FF" offset="0%"></stop>
            <stop stop-color="#F9346B" offset="100%"></stop>
        </linearGradient>
        <polygon id="path-106" points="0.394616352 3.92294737 3.65627673 4.79657895 3.65627673 1.02878947 0.394616352 0.155157895"></polygon>
        <linearGradient x1="-1764.65515%" y1="-291.827081%" x2="300.584868%" y2="97.1995959%" id="linearGradient-108">
            <stop stop-color="#4D87FF" offset="0%"></stop>
            <stop stop-color="#F9346B" offset="100%"></stop>
        </linearGradient>
        <polygon id="path-109" points="0.455371069 4.05205263 3.71703145 4.92568421 3.71703145 1.15905263 0.455371069 0.284263158"></polygon>
        <linearGradient x1="-471.500596%" y1="-48.2259536%" x2="1593.73942%" y2="340.800723%" id="linearGradient-111">
            <stop stop-color="#4D87FF" offset="0%"></stop>
            <stop stop-color="#F9346B" offset="100%"></stop>
        </linearGradient>
        <polygon id="path-112" points="0.0595974843 3.83321053 3.32125786 4.708 3.32125786 0.940210526 0.0595974843 0.066"></polygon>
        <linearGradient x1="-1506.02061%" y1="-243.07093%" x2="559.219406%" y2="145.907227%" id="linearGradient-114">
            <stop stop-color="#4D87FF" offset="0%"></stop>
            <stop stop-color="#F9346B" offset="100%"></stop>
        </linearGradient>
        <polygon id="path-115" points="0.394616352 3.77878947 3.65627673 4.65357895 3.65627673 0.885789474 0.394616352 0.0115789474"></polygon>
        <linearGradient x1="-1764.65515%" y1="-291.787654%" x2="300.584868%" y2="97.1905039%" id="linearGradient-117">
            <stop stop-color="#4D87FF" offset="0%"></stop>
            <stop stop-color="#F9346B" offset="100%"></stop>
        </linearGradient>
        <polygon id="path-118" points="0.0595974843 4.26915789 3.32125786 5.14336842 3.32125786 1.37557895 0.0595974843 0.501368421"></polygon>
        <linearGradient x1="-1506.02061%" y1="-243.0679%" x2="559.219406%" y2="145.910258%" id="linearGradient-120">
            <stop stop-color="#4D87FF" offset="0%"></stop>
            <stop stop-color="#F9346B" offset="100%"></stop>
        </linearGradient>
        <polygon id="path-121" points="0.394616352 4.21473684 3.65627673 5.08836842 3.65627673 1.32057895 0.394616352 0.446947368"></polygon>
        <linearGradient x1="-1764.65515%" y1="-291.820828%" x2="300.584868%" y2="97.2058488%" id="linearGradient-123">
            <stop stop-color="#4D87FF" offset="0%"></stop>
            <stop stop-color="#F9346B" offset="100%"></stop>
        </linearGradient>
        <path d="M0.0648050314,1.41031579 L0.0648050314,10.8170526 C0.0648050314,11.5494211 0.659044025,12.3026316 1.39215094,12.4994737 C2.12410063,12.6957368 2.71833962,12.2609474 2.71833962,11.5274211 L2.71833962,2.12126316 C2.71833962,1.38831579 2.12410063,0.635105263 1.39215094,0.438263158 C1.27295597,0.406421053 1.15781132,0.391368421 1.04787421,0.391368421 C0.481987421,0.391368421 0.0648050314,0.796052632 0.0648050314,1.41031579"
              id="path-124"></path>
        <linearGradient x1="50.0072939%" y1="312.092241%" x2="50.0072939%" y2="-42.3719648%" id="linearGradient-126">
            <stop stop-color="#4D87FF" offset="0%"></stop>
            <stop stop-color="#F9346B" offset="100%"></stop>
        </linearGradient>
        <path d="M0.341962264,1.04615789 L0.341962264,18.4730526 C0.341962264,19.206 0.935622642,19.9592105 1.66872956,20.1554737 C2.40125786,20.3523158 2.99491824,19.9169474 2.99491824,19.184 L2.99491824,1.75768421 C2.99491824,1.02415789 2.40125786,0.270947368 1.66872956,0.0746842105 C1.54953459,0.0422631579 1.43438994,0.0272105263 1.32445283,0.0272105263 C0.758566038,0.0272105263 0.341962264,0.432473684 0.341962264,1.04615789"
              id="path-127"></path>
        <linearGradient x1="50.0056379%" y1="113.795671%" x2="50.0056379%" y2="-99.0970607%" id="linearGradient-129">
            <stop stop-color="#4D87FF" offset="0%"></stop>
            <stop stop-color="#F9346B" offset="100%"></stop>
        </linearGradient>
        <path d="M0.317081761,1.25863158 L0.317081761,13.9873684 C0.317081761,14.7203158 0.911320755,15.4735263 1.64327044,15.6697895 L1.64384906,15.6697895 C2.37579874,15.8666316 2.97003774,15.4312632 2.97003774,14.6983158 L2.97003774,1.97015789 C2.97003774,1.23721053 2.37579874,0.484 1.64384906,0.287736842 L1.64327044,0.287736842 C1.52407547,0.255894737 1.40893082,0.240263158 1.29899371,0.240263158 C0.733685535,0.240263158 0.317081761,0.645526316 0.317081761,1.25863158"
              id="path-130"></path>
        <linearGradient x1="50.0036576%" y1="202.313502%" x2="50.0036576%" y2="-75.6099821%" id="linearGradient-132">
            <stop stop-color="#4D87FF" offset="0%"></stop>
            <stop stop-color="#F9346B" offset="100%"></stop>
        </linearGradient>
        <path d="M0.0156226415,1.14631579 L0.0156226415,6.36031579 C0.0156226415,7.09268421 0.609283019,7.84589474 1.34181132,8.04273684 C2.07433962,8.239 2.668,7.80421053 2.668,7.07126316 L2.668,1.85726316 C2.668,1.12431579 2.07433962,0.371105263 1.34181132,0.174263158 C1.22261635,0.142421053 1.1074717,0.127368421 0.997534591,0.127368421 C0.431647799,0.127368421 0.0156226415,0.532052632 0.0156226415,1.14631579"
              id="path-133"></path>
        <linearGradient x1="50.002668%" y1="299.999475%" x2="50.002668%" y2="-243.352455%" id="linearGradient-135">
            <stop stop-color="#4D87FF" offset="0%"></stop>
            <stop stop-color="#F9346B" offset="100%"></stop>
        </linearGradient>
        <path d="M0.0405031447,1.353 L0.0405031447,36.3231579 C0.0405031447,37.0561053 0.634163522,37.8093158 1.36727044,38.0061579 C2.09922013,38.2024211 2.6928805,37.7676316 2.6928805,37.0341053 L2.6928805,2.06394737 C2.6928805,1.331 2.09922013,0.577789474 1.36727044,0.381526316 C1.24807547,0.349684211 1.1323522,0.334052632 1.02299371,0.334052632 C0.456528302,0.334052632 0.0405031447,0.739315789 0.0405031447,1.353"
              id="path-136"></path>
        <linearGradient x1="50.0046488%" y1="98.1198027%" x2="50.0046488%" y2="-15.5055944%" id="linearGradient-138">
            <stop stop-color="#4D87FF" offset="0%"></stop>
            <stop stop-color="#F9346B" offset="100%"></stop>
        </linearGradient>
    </defs>
    <g id="Welcome" stroke="none" stroke-width="1" fill="none" fill-rule="evenodd">
        <g id="SEO" transform="translate(-1118.000000, -993.000000)">
            <g id="Group-20" transform="translate(206.000000, 915.000000)">
                <g id="Group-13" transform="translate(912.000000, 54.000000)">
                    <g id="Group-344-Copy" transform="translate(0.000000, 24.000000)">
                        <g id="Group-3" transform="translate(0.000000, 0.056158)">
                            <mask id="mask-2" fill="white">
                                <use xlink:href="#path-1"></use>
                            </mask>
                            <g id="Clip-2"></g>
                            <polygon id="Fill-1" fill="url(#linearGradient-3)" mask="url(#mask-2)" points="0 0.522789474 0 222.578632 275.479245 296.420474 275.479245 74.3652105"></polygon>
                        </g>
                        <polygon id="Fill-4" fill="#FFFFFF" points="264.897972 177.656484 20.3411421 112.102853 20.3411421 18.2549053 264.897972 83.8085368"></polygon>
                        <polygon id="Fill-5" fill="#FFFFFF" points="174.647361 256.738784 20.340795 215.377047 20.340795 121.5291 174.647361 162.890837"></polygon>
                        <g id="Group-37" transform="translate(32.981132, 57.950895)">
                            <g id="Group-8" transform="translate(0.000000, 8.684211)">
                                <mask id="mask-5" fill="white">
                                    <use xlink:href="#path-4"></use>
                                </mask>
                                <g id="Clip-7"></g>
                                <path d="M4.87484277,20.3691053 C12.2614591,22.4921053 20.1265912,4.47410526 28.6640755,6.61505263 C37.2015597,8.75542105 43.8978868,26.2118421 52.4544654,28.5050526 C61.011044,30.7988421 65.9153962,-2.45994737 76.2436981,0.308578947 C86.5714214,3.07710526 91.0163522,31.3065789 100.033509,33.6131053 C109.050088,35.9190526 115.029509,33.4955789 123.822742,35.5572105 C132.616553,37.6188421 137.508755,50.2248421 147.612553,52.8306842 L156.022164,55.0845263 L156.022164,72.8883158 L0.135974843,31.1033684 L0.135974843,19.1168421 L4.87484277,20.3691053 Z"
                                      id="Fill-6" fill="url(#linearGradient-6)" mask="url(#mask-5)"></path>
                            </g>
                            <path d="M4.87490063,41.6367368 C4.55492579,41.6367368 4.29628428,41.3773684 4.29628428,41.0577895 L4.29628428,21.9982632 C4.29628428,21.6781053 4.55492579,21.4193158 4.87490063,21.4193158 C5.19487547,21.4193158 5.45351698,21.6781053 5.45351698,21.9982632 L5.45351698,41.0577895 C5.45351698,41.3773684 5.19487547,41.6367368 4.87490063,41.6367368"
                                  id="Fill-9" fill="#C9D1D6"></path>
                            <polygon id="Fill-11" fill="#CBCBCB" points="8.80769811 47.9850684 0.941987421 45.8765421 0.941987421 49.6443316 8.80769811 51.7528579"></polygon>
                            <path d="M28.6643069,48.0136105 C28.3443321,48.0136105 28.0856906,47.7542421 28.0856906,47.4346632 L28.0856906,0.788873684 C28.0856906,0.469294737 28.3443321,0.209926316 28.6643069,0.209926316 C28.9842818,0.209926316 29.2429233,0.469294737 29.2429233,0.788873684 L29.2429233,47.4346632 C29.2429233,47.7542421 28.9842818,48.0136105 28.6643069,48.0136105"
                                  id="Fill-13" fill="#C9D1D6"></path>
                            <polygon id="Fill-15" fill="#CBCBCB" points="32.5976252 54.3617105 24.7313358 52.2531842 24.7313358 56.0209737 32.5976252 58.1295"></polygon>
                            <path d="M52.454234,54.3902526 C52.1342591,54.3902526 51.8756176,54.1308842 51.8756176,53.8113053 L51.8756176,34.7517789 C51.8756176,34.4316211 52.1342591,34.1728316 52.454234,34.1728316 C52.7742088,34.1728316 53.0328503,34.4316211 53.0328503,34.7517789 L53.0328503,53.8113053 C53.0328503,54.1308842 52.7742088,54.3902526 52.454234,54.3902526"
                                  id="Fill-17" fill="#C9D1D6"></path>
                            <polygon id="Fill-19" fill="#CBCBCB" points="56.3870314 60.7385842 48.5207421 58.6300579 48.5207421 62.3978474 56.3870314 64.5063737"></polygon>
                            <path d="M76.2436403,60.7671263 C75.9236654,60.7671263 75.6650239,60.5077579 75.6650239,60.1881789 L75.6650239,13.5429684 C75.6650239,13.2228105 75.9236654,12.9640211 76.2436403,12.9640211 C76.5636151,12.9640211 76.8222566,13.2228105 76.8222566,13.5429684 L76.8222566,60.1881789 C76.8222566,60.5077579 76.5636151,60.7671263 76.2436403,60.7671263"
                                  id="Fill-21" fill="#C9D1D6"></path>
                            <polygon id="Fill-23" fill="#CBCBCB" points="80.1769585 67.1155158 72.3106692 65.0069895 72.3106692 68.7747789 80.1769585 70.8833053"></polygon>
                            <path d="M100.033567,67.1440579 C99.7135925,67.1440579 99.4549509,66.8846895 99.4549509,66.5651105 L99.4549509,47.5055842 C99.4549509,47.1854263 99.7135925,46.9266368 100.033567,46.9266368 C100.353542,46.9266368 100.612184,47.1854263 100.612184,47.5055842 L100.612184,66.5651105 C100.612184,66.8846895 100.353542,67.1440579 100.033567,67.1440579"
                                  id="Fill-25" fill="#C9D1D6"></path>
                            <polygon id="Fill-27" fill="#CBCBCB" points="103.966365 73.4923895 96.1000755 71.3838632 96.1000755 75.1516526 103.966365 77.2596"></polygon>
                            <path d="M123.822974,73.5206421 C123.502999,73.5206421 123.244357,73.2612737 123.244357,72.9416947 L123.244357,26.2964842 C123.244357,25.9763263 123.502999,25.7175368 123.822974,25.7175368 C124.142948,25.7175368 124.40159,25.9763263 124.40159,26.2964842 L124.40159,72.9416947 C124.40159,73.2612737 124.142948,73.5206421 123.822974,73.5206421"
                                  id="Fill-29" fill="#C9D1D6"></path>
                            <polygon id="Fill-31" fill="#CBCBCB" points="127.755713 79.8690316 119.890003 77.7605053 119.890003 81.5282947 127.755713 83.6368211"></polygon>
                            <path d="M147.612322,79.8975737 C147.292347,79.8975737 147.033706,79.6382053 147.033706,79.3186263 L147.033706,60.2591 C147.033706,59.9389421 147.292347,59.6801526 147.612322,59.6801526 C147.932297,59.6801526 148.190938,59.9389421 148.190938,60.2591 L148.190938,79.3186263 C148.190938,79.6382053 147.932297,79.8975737 147.612322,79.8975737"
                                  id="Fill-33" fill="#C9D1D6"></path>
                            <polygon id="Fill-35" fill="#CBCBCB" points="151.545698 86.2459053 143.679409 84.1373789 143.679409 87.9051684 151.545698 90.0136947"></polygon>
                        </g>
                        <g id="Group-40" transform="translate(31.823899, 64.319316)">
                            <mask id="mask-8" fill="white">
                                <use xlink:href="#path-7"></use>
                            </mask>
                            <g id="Clip-39"></g>
                            <path d="M63.5586918,15.9916842 C60.4046541,22.7671053 57.1441509,29.7735263 53.6116981,28.8263684 C49.6759497,27.7721053 45.9380881,22.9471579 42.3234717,18.2814211 C38.478566,13.3192632 34.5046289,8.19036842 29.9416604,6.96705263 C29.8971069,6.95547368 29.8531321,6.94389474 29.8091572,6.93231579 C25.0413585,5.73736842 20.7057862,10.0939474 16.5119748,14.3075263 C12.9610063,17.8755789 9.29026415,21.5640526 6.09225157,20.7072105 C6.07084277,20.7014211 6.04943396,20.6950526 6.02918239,20.6892632 L1.28973585,19.4375789 C0.812955975,19.3113684 0.428176101,19.6564211 0.429333333,20.207 C0.431069182,20.7575789 0.817006289,21.3058421 1.29320755,21.4326316 C1.29378616,21.4332105 1.29436478,21.4332105 1.29610063,21.4332105 L6.01703145,22.6808421 C6.04885535,22.6895263 6.08010063,22.6982105 6.11192453,22.7068947 C10.0540377,23.7628947 13.8133082,19.987 17.790717,15.9905263 C21.7368805,12.0258947 25.8167044,7.92636842 29.8346164,8.93373684 C29.8716478,8.943 29.9069434,8.95226316 29.9433962,8.96210526 C33.8502138,10.0094211 37.4115975,14.6056842 41.1783899,19.4682632 C45.0342893,24.4448947 49.0215346,29.5911579 53.6116981,30.8208421 C58.2325283,32.0597895 61.5763522,24.8750526 65.1169057,17.2688421 C68.5949686,9.79405263 72.538239,1.32115789 77.4009308,2.62436842 C82.2445283,3.92294737 85.8770818,11.8493158 89.3898616,19.5151579 C92.9495094,27.2828947 96.3124277,34.6216316 101.132881,35.9138421 C101.154868,35.9196316 101.177434,35.9254211 101.2,35.9312105 C105.928453,37.1406316 109.865358,37.0763684 113.673233,37.0144211 C117.347447,36.9542105 120.817987,36.8974737 125.005434,37.8793684 C128.996151,38.8120526 132.212679,42.1612632 135.608579,45.7015263 C139.366113,49.6186842 143.249786,53.6678421 148.622818,55.1076842 C148.671421,55.121 148.720604,55.1337368 148.769786,55.1464737 L157.179396,57.4003158 C157.656176,57.5282632 158.042692,57.1855263 158.042692,56.6343684 C158.042692,56.0837895 157.656176,55.5337895 157.179396,55.4058421 L148.762264,53.1496842 C148.719447,53.1386842 148.677208,53.1276842 148.635547,53.1166842 C143.77517,51.8140526 140.113107,47.9953158 136.570239,44.3022105 C133.097384,40.6826316 129.50244,36.9345263 124.955673,35.8721579 C120.583648,34.8474211 116.86083,34.9076316 113.260679,34.9672632 C109.548277,35.0274737 105.710314,35.09 101.180906,33.9315263 C101.165862,33.9274737 101.151396,33.924 101.135195,33.9199474 C97.2873962,32.8882632 94.1692327,26.0833158 90.8682264,18.8806316 C87.1083774,10.6752105 83.2189182,2.189 77.4009308,0.629894737 C76.9160503,0.499631579 76.4438994,0.437684211 75.9838994,0.437684211 C70.7971824,0.437684211 67.1218113,8.33452632 63.5586918,15.9916842"
                                  id="Fill-38" fill="url(#linearGradient-9)" mask="url(#mask-8)"></path>
                        </g>
                        <g id="Group-57" transform="translate(183.421384, 93.266684)">
                            <polygon id="Fill-41" fill="#FFFFFF" points="81.4765887 93.8157579 0.235959748 72.0392316 0.235959748 165.887179 81.4765887 187.664284"></polygon>
                            <polygon id="Fill-43" fill="#CBCBCB" points="40.9728654 9.86248421 25.4109786 5.69116842 25.4109786 7.69490526 40.9728654 11.8662211"></polygon>
                            <polygon id="Fill-45" fill="#CBCBCB" points="40.9728654 15.4028947 25.4109786 11.2315789 25.4109786 13.2353158 40.9728654 17.4066316"></polygon>
                            <polygon id="Fill-47" fill="#CBCBCB" points="40.9728654 4.32201579 25.4109786 0.1507 25.4109786 2.15443684 40.9728654 6.32575263"></polygon>
                            <polygon id="Fill-49" fill="#CBCBCB" points="30.9216629 18.249 25.4114994 16.7721053 25.4114994 18.7758421 30.9216629 20.2527368"></polygon>
                            <path d="M48.3711698,25.5092895 C48.051195,25.5092895 47.7925535,25.2499211 47.7925535,24.9303421 L47.7925535,6.30502632 C47.7925535,5.98544737 48.051195,5.72607895 48.3711698,5.72607895 C48.6911447,5.72607895 48.9497862,5.98544737 48.9497862,6.30502632 L48.9497862,24.9303421 C48.9497862,25.2499211 48.6911447,25.5092895 48.3711698,25.5092895"
                                  id="Fill-51" fill="#C9D1D6"></path>
                            <path d="M61.9771019,26.3966421 C58.5673157,25.4824842 55.803844,21.5485368 55.803844,17.6099579 C55.803844,13.6713789 58.5673157,11.2189579 61.9771019,12.1331158 C65.3874667,13.0466947 68.1509384,16.9806421 68.1509384,20.9198 C68.1509384,24.8583789 65.3874667,27.3108 61.9771019,26.3966421 M61.9771019,9.95222105 C57.5252277,8.75901053 53.9158189,11.9605895 53.9158189,17.1039579 C53.9158189,22.2473263 57.5252277,27.3843263 61.9771019,28.5775368 C66.4295547,29.7707474 70.0389635,26.5685895 70.0389635,21.4258 C70.0389635,16.2824316 66.4295547,11.1454316 61.9771019,9.95222105"
                                  id="Fill-53" fill="#CBCBCB"></path>
                            <path d="M70.0393107,38.5163842 C69.9895497,38.5163842 69.9392101,38.5100158 69.8888704,38.4961211 L25.2613484,26.5339105 C24.9529459,26.4511211 24.7701031,26.1338579 24.8522667,25.8247 C24.9350088,25.5155421 25.2538264,25.3325947 25.5610717,25.4153842 L70.1885937,37.3781737 C70.4969962,37.4603842 70.679839,37.7782263 70.5976755,38.0868053 C70.5288201,38.3455947 70.2944805,38.5163842 70.0393107,38.5163842"
                                  id="Fill-55" fill="#C9D1D6"></path>
                        </g>
                        <g id="Group-60" transform="translate(245.333333, 103.108789)">
                            <mask id="mask-11" fill="white">
                                <use xlink:href="#path-10"></use>
                            </mask>
                            <g id="Clip-59"></g>
                            <path d="M0.0648050314,1.21984211 L0.0648050314,1.31421053 C0.0648050314,1.84510526 0.411974843,2.37484211 0.867924528,2.56589474 C3.89813836,3.83321053 6.23922013,7.45336842 6.23922013,11.0775789 C6.23922013,13.4153684 5.26483019,15.2280526 3.75984906,16.1248421 C3.39127044,16.3448421 3.27207547,16.8902105 3.49715723,17.4147368 L3.53650314,17.5050526 C3.80324528,18.1268421 4.42872956,18.447 4.86674214,18.1882105 C6.84445283,17.0216316 8.12666667,14.6479474 8.12666667,11.5835789 C8.12666667,6.84431579 5.06173585,2.10968421 1.0970566,0.462 C0.983647799,0.415105263 0.873132075,0.393105263 0.768402516,0.393105263 C0.370314465,0.393105263 0.0648050314,0.716736842 0.0648050314,1.21984211"
                                  id="Fill-58" fill="url(#linearGradient-12)" mask="url(#mask-11)"></path>
                        </g>
                        <g id="Group-63" transform="translate(208.880503, 139.582474)">
                            <mask id="mask-14" fill="white">
                                <use xlink:href="#path-13"></use>
                            </mask>
                            <g id="Clip-62"></g>
                            <polygon id="Fill-61" fill="url(#linearGradient-15)" mask="url(#mask-14)" points="0.308402516 5.35178947 1.14855346 5.57757895 1.14855346 0.608473684 0.308402516 0.383842105"></polygon>
                        </g>
                        <g id="Group-66" transform="translate(210.037736, 140.161421)">
                            <mask id="mask-17" fill="white">
                                <use xlink:href="#path-16"></use>
                            </mask>
                            <g id="Clip-65"></g>
                            <polygon id="Fill-64" fill="url(#linearGradient-18)" mask="url(#mask-17)" points="0.552578616 5.14857895 1.39215094 5.37436842 1.39215094 0.405263158 0.552578616 0.180052632"></polygon>
                        </g>
                        <g id="Group-69" transform="translate(211.773585, 140.161421)">
                            <mask id="mask-20" fill="white">
                                <use xlink:href="#path-19"></use>
                            </mask>
                            <g id="Clip-68"></g>
                            <polygon id="Fill-67" fill="url(#linearGradient-21)" mask="url(#mask-20)" points="0.217559748 5.52431579 1.05771069 5.74952632 1.05771069 0.780421053 0.217559748 0.555210526"></polygon>
                        </g>
                        <g id="Group-72" transform="translate(212.930818, 140.740368)">
                            <mask id="mask-23" fill="white">
                                <use xlink:href="#path-22"></use>
                            </mask>
                            <g id="Clip-71"></g>
                            <polygon id="Fill-70" fill="url(#linearGradient-24)" mask="url(#mask-23)" points="0.461157233 5.32110526 1.30130818 5.54573684 1.30130818 0.577789474 0.461157233 0.352"></polygon>
                        </g>
                        <g id="Group-75" transform="translate(214.666667, 141.319316)">
                            <mask id="mask-26" fill="white">
                                <use xlink:href="#path-25"></use>
                            </mask>
                            <g id="Clip-74"></g>
                            <polygon id="Fill-73" fill="url(#linearGradient-27)" mask="url(#mask-26)" points="0.126716981 5.11731579 0.966289308 5.34252632 0.966289308 0.374 0.126716981 0.148789474"></polygon>
                        </g>
                        <g id="Group-78" transform="translate(215.823899, 141.319316)">
                            <mask id="mask-29" fill="white">
                                <use xlink:href="#path-28"></use>
                            </mask>
                            <g id="Clip-77"></g>
                            <polygon id="Fill-76" fill="url(#linearGradient-30)" mask="url(#mask-29)" points="0.369735849 5.49305263 1.21046541 5.71768421 1.21046541 0.749736842 0.369735849 0.523947368"></polygon>
                        </g>
                        <g id="Group-81" transform="translate(217.559748, 141.898263)">
                            <mask id="mask-32" fill="white">
                                <use xlink:href="#path-31"></use>
                            </mask>
                            <g id="Clip-80"></g>
                            <polygon id="Fill-79" fill="url(#linearGradient-33)" mask="url(#mask-32)" points="0.0347169811 5.28984211 0.875446541 5.51447368 0.875446541 0.546526316 0.0347169811 0.320736842"></polygon>
                        </g>
                        <g id="Group-84" transform="translate(218.716981, 142.477211)">
                            <mask id="mask-35" fill="white">
                                <use xlink:href="#path-34"></use>
                            </mask>
                            <g id="Clip-83"></g>
                            <polygon id="Fill-82" fill="url(#linearGradient-36)" mask="url(#mask-35)" points="0.278893082 5.08605263 1.11962264 5.31126316 1.11962264 0.342736842 0.278893082 0.117526316"></polygon>
                        </g>
                        <g id="Group-87" transform="translate(219.874214, 142.477211)">
                            <mask id="mask-38" fill="white">
                                <use xlink:href="#path-37"></use>
                            </mask>
                            <g id="Clip-86"></g>
                            <polygon id="Fill-85" fill="url(#linearGradient-39)" mask="url(#mask-38)" points="0.52191195 5.46121053 1.36322013 5.687 1.36322013 0.718473684 0.52191195 0.493263158"></polygon>
                        </g>
                        <g id="Group-90" transform="translate(221.610063, 143.056158)">
                            <mask id="mask-41" fill="white">
                                <use xlink:href="#path-40"></use>
                            </mask>
                            <g id="Clip-89"></g>
                            <polygon id="Fill-88" fill="url(#linearGradient-42)" mask="url(#mask-41)" points="0.187471698 5.258 1.02820126 5.48321053 1.02820126 0.515263158 0.187471698 0.289473684"></polygon>
                        </g>
                        <g id="Group-93" transform="translate(222.767296, 143.635105)">
                            <mask id="mask-44" fill="white">
                                <use xlink:href="#path-43"></use>
                            </mask>
                            <g id="Clip-92"></g>
                            <polygon id="Fill-91" fill="url(#linearGradient-45)" mask="url(#mask-44)" points="0.431069182 5.05478947 1.27237736 5.28 1.27237736 0.312052632 0.431069182 0.0862631579"></polygon>
                        </g>
                        <g id="Group-96" transform="translate(224.503145, 143.635105)">
                            <mask id="mask-47" fill="white">
                                <use xlink:href="#path-46"></use>
                            </mask>
                            <g id="Clip-95"></g>
                            <polygon id="Fill-94" fill="url(#linearGradient-48)" mask="url(#mask-47)" points="0.0966289308 5.42994737 0.936779874 5.65573684 0.936779874 0.687210526 0.0966289308 0.462"></polygon>
                        </g>
                        <g id="Group-99" transform="translate(225.660377, 144.214053)">
                            <mask id="mask-50" fill="white">
                                <use xlink:href="#path-49"></use>
                            </mask>
                            <g id="Clip-98"></g>
                            <polygon id="Fill-97" fill="url(#linearGradient-51)" mask="url(#mask-50)" points="0.340226415 5.22673684 1.18095597 5.45252632 1.18095597 0.483421053 0.340226415 0.258789474"></polygon>
                        </g>
                        <g id="Group-102" transform="translate(227.396226, 144.793000)">
                            <mask id="mask-53" fill="white">
                                <use xlink:href="#path-52"></use>
                            </mask>
                            <g id="Clip-101"></g>
                            <polygon id="Fill-100" fill="url(#linearGradient-54)" mask="url(#mask-53)" points="0.00520754717 5.02352632 0.845937107 5.24873684 0.845937107 0.280210526 0.00520754717 0.055"></polygon>
                        </g>
                        <g id="Group-105" transform="translate(228.553459, 144.793000)">
                            <mask id="mask-56" fill="white">
                                <use xlink:href="#path-55"></use>
                            </mask>
                            <g id="Clip-104"></g>
                            <polygon id="Fill-103" fill="url(#linearGradient-57)" mask="url(#mask-56)" points="0.249383648 5.39926316 1.08953459 5.62447368 1.08953459 0.655947368 0.249383648 0.430157895"></polygon>
                        </g>
                        <g id="Group-108" transform="translate(229.710692, 145.371947)">
                            <mask id="mask-59" fill="white">
                                <use xlink:href="#path-58"></use>
                            </mask>
                            <g id="Clip-107"></g>
                            <polygon id="Fill-106" fill="url(#linearGradient-60)" mask="url(#mask-59)" points="0.492981132 5.19547368 1.33371069 5.42126316 1.33371069 0.452157895 0.492981132 0.226947368"></polygon>
                        </g>
                        <g id="Group-111" transform="translate(231.446541, 145.950895)">
                            <mask id="mask-62" fill="white">
                                <use xlink:href="#path-61"></use>
                            </mask>
                            <g id="Clip-110"></g>
                            <polygon id="Fill-109" fill="url(#linearGradient-63)" mask="url(#mask-62)" points="0.158540881 4.99226316 0.998691824 5.21747368 0.998691824 0.248947368 0.158540881 0.0237368421"></polygon>
                        </g>
                        <g id="Group-114" transform="translate(232.603774, 145.950895)">
                            <mask id="mask-65" fill="white">
                                <use xlink:href="#path-64"></use>
                            </mask>
                            <g id="Clip-113"></g>
                            <polygon id="Fill-112" fill="url(#linearGradient-66)" mask="url(#mask-65)" points="0.401559748 5.368 1.24286792 5.59321053 1.24286792 0.624684211 0.401559748 0.398894737"></polygon>
                        </g>
                        <g id="Group-117" transform="translate(234.339623, 146.529842)">
                            <mask id="mask-68" fill="white">
                                <use xlink:href="#path-67"></use>
                            </mask>
                            <g id="Clip-116"></g>
                            <polygon id="Fill-115" fill="url(#linearGradient-69)" mask="url(#mask-68)" points="0.0665408805 5.16421053 0.907849057 5.38942105 0.907849057 0.420894737 0.0665408805 0.195684211"></polygon>
                        </g>
                        <g id="Group-120" transform="translate(235.496855, 146.529842)">
                            <mask id="mask-71" fill="white">
                                <use xlink:href="#path-70"></use>
                            </mask>
                            <g id="Clip-119"></g>
                            <polygon id="Fill-118" fill="url(#linearGradient-72)" mask="url(#mask-71)" points="0.310716981 5.53994737 1.15144654 5.76515789 1.15144654 0.796631579 0.310716981 0.571421053"></polygon>
                        </g>
                        <g id="Group-123" transform="translate(236.654088, 147.108789)">
                            <mask id="mask-74" fill="white">
                                <use xlink:href="#path-73"></use>
                            </mask>
                            <g id="Clip-122"></g>
                            <polygon id="Fill-121" fill="url(#linearGradient-75)" mask="url(#mask-74)" points="0.554314465 5.33615789 1.39562264 5.56136842 1.39562264 0.593421053 0.554314465 0.367631579"></polygon>
                        </g>
                        <g id="Group-126" transform="translate(238.389937, 147.687737)">
                            <mask id="mask-77" fill="white">
                                <use xlink:href="#path-76"></use>
                            </mask>
                            <g id="Clip-125"></g>
                            <polygon id="Fill-124" fill="url(#linearGradient-78)" mask="url(#mask-77)" points="0.219874214 5.13294737 1.06060377 5.35815789 1.06060377 0.390210526 0.219874214 0.164421053"></polygon>
                        </g>
                        <g id="Group-129" transform="translate(239.547170, 147.687737)">
                            <mask id="mask-80" fill="white">
                                <use xlink:href="#path-79"></use>
                            </mask>
                            <g id="Clip-128"></g>
                            <polygon id="Fill-127" fill="url(#linearGradient-81)" mask="url(#mask-80)" points="0.463471698 5.50810526 1.30420126 5.73389474 1.30420126 0.765368421 0.463471698 0.540157895"></polygon>
                        </g>
                        <g id="Group-132" transform="translate(241.283019, 148.266684)">
                            <mask id="mask-83" fill="white">
                                <use xlink:href="#path-82"></use>
                            </mask>
                            <g id="Clip-131"></g>
                            <polygon id="Fill-130" fill="url(#linearGradient-84)" mask="url(#mask-83)" points="0.12845283 5.30489474 0.969761006 5.53068421 0.969761006 0.562157895 0.12845283 0.336947368"></polygon>
                        </g>
                        <g id="Group-171" transform="translate(0.000000, 12.793000)">
                            <polygon id="Fill-133" fill="#CBCBCB" points="243.653031 141.379642 242.812881 141.154432 242.812881 136.185905 243.653031 136.411116"></polygon>
                            <polygon id="Fill-135" fill="#CBCBCB" points="245.054382 141.755321 244.213653 141.529532 244.213653 136.561584 245.054382 136.786795"></polygon>
                            <polygon id="Fill-137" fill="#CBCBCB" points="246.455155 142.130768 245.615004 141.905558 245.615004 136.937032 246.455155 137.162242"></polygon>
                            <polygon id="Fill-139" fill="#CBCBCB" points="247.856506 142.506158 247.015776 142.280947 247.015776 137.312421 247.856506 137.537632"></polygon>
                            <polygon id="Fill-141" fill="#CBCBCB" points="249.257278 142.881837 248.416548 142.656626 248.416548 137.6881 249.257278 137.913311"></polygon>
                            <polygon id="Fill-143" fill="#CBCBCB" points="250.65805 143.257284 249.817899 143.032074 249.817899 138.063547 250.65805 138.288758"></polygon>
                            <polygon id="Fill-145" fill="#CBCBCB" points="252.059343 143.632963 251.218614 143.407753 251.218614 138.439226 252.059343 138.664437"></polygon>
                            <polygon id="Fill-147" fill="#CBCBCB" points="253.460116 144.008353 252.619965 143.783142 252.619965 138.814616 253.460116 139.039826"></polygon>
                            <polygon id="Fill-149" fill="#F9346C" points="242.936531 146.627453 241.831952 143.191979 240.727374 146.035189 237.899097 145.276768 237.899097 151.638821 245.765386 153.747347 245.765386 147.385295"></polygon>
                            <path d="M86.8892553,147.025768 C86.8394943,147.025768 86.7891547,147.0194 86.7388151,147.005505 L64.6970038,141.097347 C64.3886013,141.014558 64.2057585,140.697295 64.287922,140.388137 C64.3706642,140.078979 64.6883245,139.896032 64.996727,139.978821 L87.0385384,145.887558 C87.3469409,145.969768 87.5297836,146.287611 87.4476201,146.596189 C87.3787648,146.854979 87.1444252,147.025768 86.8892553,147.025768"
                                  id="Fill-151" fill="#C9D1D6"></path>
                            <path d="M86.8892553,166.475911 C86.8394943,166.475911 86.7891547,166.469542 86.7388151,166.455647 L38.5059346,153.527174 C38.1975321,153.444384 38.0141107,153.127121 38.0968528,152.817963 C38.1790164,152.509384 38.4972553,152.327016 38.8050792,152.408647 L87.0385384,165.3377 C87.3469409,165.419911 87.5297836,165.737753 87.4476201,166.046332 C87.3787648,166.305121 87.1444252,166.475911 86.8892553,166.475911"
                                  id="Fill-153" fill="#C9D1D6"></path>
                            <path d="M86.8892553,185.926342 C86.8394943,185.926342 86.7891547,185.919974 86.7388151,185.906079 L50.8194692,176.277605 C50.5110667,176.195395 50.3276453,175.878132 50.4103874,175.568974 C50.4931296,175.259816 50.8113686,175.076868 51.1191925,175.159658 L87.0385384,184.788132 C87.3469409,184.870342 87.5297836,185.188184 87.4476201,185.496763 C87.3787648,185.755553 87.1444252,185.926342 86.8892553,185.926342"
                                  id="Fill-155" fill="#C9D1D6"></path>
                            <path d="M86.8892553,205.376774 C86.8394943,205.376774 86.7891547,205.370405 86.7388151,205.356511 L64.6970038,199.448353 C64.3886013,199.365563 64.2057585,199.0483 64.287922,198.739142 C64.3706642,198.429984 64.6883245,198.247616 64.996727,198.329826 L87.0385384,204.238563 C87.3469409,204.320774 87.5297836,204.638616 87.4476201,204.947195 C87.3787648,205.205984 87.1444252,205.376774 86.8892553,205.376774"
                                  id="Fill-157" fill="#C9D1D6"></path>
                            <path d="M12.1833459,85.3921895 C12.1833459,84.1821895 11.3345157,82.9739263 10.2872201,82.6931368 C9.23992453,82.4129263 8.39051572,83.1655579 8.39051572,84.3755579 C8.39051572,85.5855579 9.23992453,86.7938211 10.2872201,87.0746105 C11.3345157,87.3554 12.1833459,86.6021895 12.1833459,85.3921895"
                                  id="Fill-159" fill="#CBCBCB"></path>
                            <path d="M12.1833459,61.9304053 C12.1833459,60.7204053 11.3345157,59.5121421 10.2872201,59.2313526 C9.23992453,58.9505632 8.39051572,59.7037737 8.39051572,60.9137737 C8.39051572,62.1231947 9.23992453,63.3314579 10.2872201,63.6122474 C11.3345157,63.8936158 12.1833459,63.1398263 12.1833459,61.9304053"
                                  id="Fill-161" fill="#CBCBCB"></path>
                            <path d="M12.1833459,38.4683316 C12.1833459,37.2583316 11.3345157,36.0500684 10.2872201,35.7692789 C9.23992453,35.4890684 8.39051572,36.2417 8.39051572,37.4517 C8.39051572,38.6611211 9.23992453,39.8699632 10.2872201,40.1507526 C11.3345157,40.4315421 12.1833459,39.6777526 12.1833459,38.4683316"
                                  id="Fill-163" fill="#CBCBCB"></path>
                            <polygon id="Fill-165" fill="#4D88FF" points="0.000173584906 23.4716842 1.71519245 23.9313684 1.71519245 0.469526316 0.000173584906 0.00984210526"></polygon>
                            <path d="M12.1833459,15.0062579 C12.1833459,13.7962579 11.3345157,12.5879947 10.2872201,12.3072053 C9.23992453,12.0269947 8.39051572,12.7796263 8.39051572,13.9896263 C8.39051572,15.1996263 9.23992453,16.4078895 10.2872201,16.6886789 C11.3345157,16.9694684 12.1833459,16.2162579 12.1833459,15.0062579"
                                  id="Fill-167" fill="#4D88FF"></path>
                            <path d="M12.1833459,15.0062579 C12.1833459,13.7962579 11.3345157,12.5879947 10.2872201,12.3072053 C9.23992453,12.0269947 8.39051572,12.7796263 8.39051572,13.9896263 C8.39051572,15.1996263 9.23992453,16.4078895 10.2872201,16.6886789 C11.3345157,16.9694684 12.1833459,16.2162579 12.1833459,15.0062579"
                                  id="Fill-169" fill="#4D88FF"></path>
                        </g>
                        <g id="Group-174" transform="translate(31.823899, 143.635105)">
                            <mask id="mask-86" fill="white">
                                <use xlink:href="#path-85"></use>
                            </mask>
                            <g id="Clip-173"></g>
                            <path d="M0.429333333,0.958736842 C0.429333333,1.52321053 0.887018868,2.10389474 1.45059119,2.25442105 L35.539195,11.3919474 C36.1039245,11.5436316 36.5610314,11.2084211 36.5610314,10.6439474 C36.5610314,10.0800526 36.1039245,9.49994737 35.539195,9.34884211 L1.45059119,0.211315789 C1.35916981,0.186421053 1.27064151,0.174842105 1.18616352,0.174842105 C0.750465409,0.174842105 0.429333333,0.486894737 0.429333333,0.958736842"
                                  id="Fill-172" fill="url(#linearGradient-87)" mask="url(#mask-86)"></path>
                        </g>
                        <g id="Group-177" transform="translate(31.823899, 162.740368)">
                            <mask id="mask-89" fill="white">
                                <use xlink:href="#path-88"></use>
                            </mask>
                            <g id="Clip-176"></g>
                            <path d="M0.429333333,1.30436842 C0.429333333,1.86826316 0.887018868,2.44894737 1.45059119,2.59947368 L10.0962767,4.917 C10.6604277,5.06810526 11.1175346,4.73347368 11.1175346,4.16957895 C11.1175346,3.60510526 10.6604277,3.025 10.0962767,2.87389474 L1.45059119,0.556368421 C1.35916981,0.532052632 1.27064151,0.519894737 1.18616352,0.519894737 C0.750465409,0.519894737 0.429333333,0.831947368 0.429333333,1.30436842"
                                  id="Fill-175" fill="url(#linearGradient-90)" mask="url(#mask-89)"></path>
                        </g>
                        <g id="Group-180" transform="translate(31.823899, 182.424579)">
                            <mask id="mask-92" fill="white">
                                <use xlink:href="#path-91"></use>
                            </mask>
                            <g id="Clip-179"></g>
                            <path d="M0.429333333,1.07047368 C0.429333333,1.63494737 0.887018868,2.21447368 1.45059119,2.36615789 L21.7634969,7.81057895 C22.3276478,7.96226316 22.7853333,7.62705263 22.7853333,7.06257895 C22.7853333,6.49868421 22.3276478,5.91857895 21.7634969,5.76747368 L1.45059119,0.322473684 C1.35916981,0.298157895 1.27064151,0.286 1.18616352,0.286 C0.750465409,0.286 0.429333333,0.598052632 0.429333333,1.07047368"
                                  id="Fill-178" fill="url(#linearGradient-93)" mask="url(#mask-92)"></path>
                        </g>
                        <g id="Group-183" transform="translate(31.823899, 202.108789)">
                            <mask id="mask-95" fill="white">
                                <use xlink:href="#path-94"></use>
                            </mask>
                            <g id="Clip-182"></g>
                            <path d="M0.429333333,0.836578947 L0.429333333,0.837157895 C0.429333333,1.40047368 0.887018868,1.98057895 1.45059119,2.13226316 L43.9071447,13.5126316 C44.4712956,13.6637368 44.9278239,13.3285263 44.9278239,12.7646316 C44.9278239,12.2007368 44.4712956,11.6206316 43.9071447,11.4695263 L1.45059119,0.0885789474 C1.35916981,0.0642631579 1.27064151,0.0521052632 1.18616352,0.0521052632 C0.750465409,0.0521052632 0.429333333,0.364157895 0.429333333,0.836578947"
                                  id="Fill-181" fill="url(#linearGradient-96)" mask="url(#mask-95)"></path>
                        </g>
                        <g id="Group-200" transform="translate(31.823899, 126.266684)">
                            <polygon id="Fill-184" fill="#CBCBCB" points="15.6753535 13.7372632 0.429391195 9.65047368 0.429391195 13.4182632 15.6753535 17.5050526"></polygon>
                            <polygon id="Fill-186" fill="#CBCBCB" points="192.412735 4.35964737 177.166194 0.272857895 177.166194 4.04064737 192.412735 8.12743684"></polygon>
                            <polygon id="Fill-188" fill="#CBCBCB" points="15.6753535 33.1854368 0.429391195 29.0986474 0.429391195 32.8664368 15.6753535 36.9532263"></polygon>
                            <polygon id="Fill-190" fill="#CBCBCB" points="15.6753535 52.6336105 0.429391195 48.5468211 0.429391195 52.3146105 15.6753535 56.4008211"></polygon>
                            <polygon id="Fill-192" fill="#CBCBCB" points="15.6753535 72.0814947 0.429391195 67.9947053 0.429391195 71.7624947 15.6753535 75.8492842"></polygon>
                            <path d="M67.038317,96.8739316 C66.7183421,96.8739316 66.4597006,96.6151421 66.4597006,96.2949842 L66.4597006,27.3834579 C66.4597006,27.0633 66.7183421,26.8045105 67.038317,26.8045105 C67.3582918,26.8045105 67.6169333,27.0633 67.6169333,27.3834579 L67.6169333,96.2949842 C67.6169333,96.6151421 67.3582918,96.8739316 67.038317,96.8739316"
                                  id="Fill-194" fill="#C9D1D6"></path>
                            <polygon id="Fill-196" fill="#CBCBCB" points="102.962234 66.1769842 106.223894 67.0511947 106.223894 63.2834053 102.962234 62.4097737"></polygon>
                            <polygon id="Fill-198" fill="#CBCBCB" points="111.39794 68.4381789 114.6596 69.3123895 114.6596 65.5446 111.39794 64.6709684"></polygon>
                        </g>
                        <g id="Group-203" transform="translate(151.597484, 192.845632)">
                            <mask id="mask-98" fill="white">
                                <use xlink:href="#path-97"></use>
                            </mask>
                            <g id="Clip-202"></g>
                            <polygon id="Fill-201" fill="url(#linearGradient-99)" mask="url(#mask-98)" points="0.0595974843 4.12036842 3.32125786 4.99457895 3.32125786 1.22678947 0.0595974843 0.352578947"></polygon>
                        </g>
                        <g id="Group-206" transform="translate(159.698113, 195.161421)">
                            <mask id="mask-101" fill="white">
                                <use xlink:href="#path-100"></use>
                            </mask>
                            <g id="Clip-205"></g>
                            <polygon id="Fill-204" fill="url(#linearGradient-102)" mask="url(#mask-101)" points="0.394616352 4.06594737 3.65627673 4.94015789 3.65627673 1.17236842 0.394616352 0.298157895"></polygon>
                        </g>
                        <g id="Group-217" transform="translate(109.358491, 191.108789)" fill="#CBCBCB">
                            <polygon id="Fill-207" points="0.120525786 4.24993684 3.38218616 5.12414737 3.38218616 1.35635789 0.120525786 0.482726316"></polygon>
                            <polygon id="Fill-209" points="8.55623145 6.51118947 11.8178918 7.3854 11.8178918 3.61761053 8.55623145 2.7434"></polygon>
                            <polygon id="Fill-211" points="16.9919371 8.77244211 20.2535975 9.64665263 20.2535975 5.87886316 16.9919371 5.00465263"></polygon>
                            <polygon id="Fill-213" points="25.4276428 11.0336368 28.6893031 11.9078474 28.6893031 8.14005789 25.4276428 7.26584737"></polygon>
                            <polygon id="Fill-215" points="33.8633484 13.2948895 37.1250088 14.1691 37.1250088 10.4013105 33.8633484 9.5271"></polygon>
                        </g>
                        <g id="Group-220" transform="translate(151.597484, 202.687737)">
                            <mask id="mask-104" fill="white">
                                <use xlink:href="#path-103"></use>
                            </mask>
                            <g id="Clip-219"></g>
                            <polygon id="Fill-218" fill="url(#linearGradient-105)" mask="url(#mask-104)" points="0.0595974843 3.97736842 3.32125786 4.851 3.32125786 1.08378947 0.0595974843 0.209578947"></polygon>
                        </g>
                        <g id="Group-223" transform="translate(159.698113, 205.003526)">
                            <mask id="mask-107" fill="white">
                                <use xlink:href="#path-106"></use>
                            </mask>
                            <g id="Clip-222"></g>
                            <polygon id="Fill-221" fill="url(#linearGradient-108)" mask="url(#mask-107)" points="0.394616352 3.92294737 3.65627673 4.79657895 3.65627673 1.02878947 0.394616352 0.155157895"></polygon>
                        </g>
                        <polygon id="Fill-224" fill="#CBCBCB" points="109.479016 205.057542 112.740677 205.931753 112.740677 202.163963 109.479016 201.289753"></polygon>
                        <g id="Group-228" transform="translate(117.459119, 203.266684)">
                            <mask id="mask-110" fill="white">
                                <use xlink:href="#path-109"></use>
                            </mask>
                            <g id="Clip-227"></g>
                            <polygon id="Fill-226" fill="url(#linearGradient-111)" mask="url(#mask-110)" points="0.455371069 4.05205263 3.71703145 4.92568421 3.71703145 1.15905263 0.455371069 0.284263158"></polygon>
                        </g>
                        <g id="Group-235" transform="translate(126.138365, 205.582474)" fill="#CBCBCB">
                            <polygon id="Fill-229" points="0.212062893 3.99751579 3.47372327 4.87172632 3.47372327 1.10393684 0.212062893 0.229726316"></polygon>
                            <polygon id="Fill-231" points="8.64776855 6.25876842 11.9094289 7.13297895 11.9094289 3.36518947 8.64776855 2.49097895"></polygon>
                            <polygon id="Fill-233" points="17.0834742 8.51996316 20.3451346 9.39417368 20.3451346 5.62638421 17.0834742 4.75217368"></polygon>
                        </g>
                        <g id="Group-238" transform="translate(151.597484, 212.529842)">
                            <mask id="mask-113" fill="white">
                                <use xlink:href="#path-112"></use>
                            </mask>
                            <g id="Clip-237"></g>
                            <polygon id="Fill-236" fill="url(#linearGradient-114)" mask="url(#mask-113)" points="0.0595974843 3.83321053 3.32125786 4.708 3.32125786 0.940210526 0.0595974843 0.066"></polygon>
                        </g>
                        <g id="Group-241" transform="translate(159.698113, 214.845632)">
                            <mask id="mask-116" fill="white">
                                <use xlink:href="#path-115"></use>
                            </mask>
                            <g id="Clip-240"></g>
                            <polygon id="Fill-239" fill="url(#linearGradient-117)" mask="url(#mask-116)" points="0.394616352 3.77878947 3.65627673 4.65357895 3.65627673 0.885789474 0.394616352 0.0115789474"></polygon>
                        </g>
                        <g id="Group-252" transform="translate(109.358491, 210.793000)" fill="#CBCBCB">
                            <polygon id="Fill-242" points="0.120525786 3.9633 3.38218616 4.83751053 3.38218616 1.06972105 0.120525786 0.195510526"></polygon>
                            <polygon id="Fill-244" points="8.55623145 6.22426316 11.8178918 7.09847368 11.8178918 3.33068421 8.55623145 2.45705263"></polygon>
                            <polygon id="Fill-246" points="16.9919371 8.48551579 20.2535975 9.35972632 20.2535975 5.59193684 16.9919371 4.71830526"></polygon>
                            <polygon id="Fill-248" points="25.4276428 10.7467105 28.6893031 11.6209211 28.6893031 7.85313158 25.4276428 6.97892105"></polygon>
                            <polygon id="Fill-250" points="33.8633484 13.0079632 37.1250088 13.8821737 37.1250088 10.1143842 33.8633484 9.24017368"></polygon>
                        </g>
                        <g id="Group-255" transform="translate(151.597484, 221.793000)">
                            <mask id="mask-119" fill="white">
                                <use xlink:href="#path-118"></use>
                            </mask>
                            <g id="Clip-254"></g>
                            <polygon id="Fill-253" fill="url(#linearGradient-120)" mask="url(#mask-119)" points="0.0595974843 4.26915789 3.32125786 5.14336842 3.32125786 1.37557895 0.0595974843 0.501368421"></polygon>
                        </g>
                        <g id="Group-258" transform="translate(159.698113, 224.108789)">
                            <mask id="mask-122" fill="white">
                                <use xlink:href="#path-121"></use>
                            </mask>
                            <g id="Clip-257"></g>
                            <polygon id="Fill-256" fill="url(#linearGradient-123)" mask="url(#mask-122)" points="0.394616352 4.21473684 3.65627673 5.08836842 3.65627673 1.32057895 0.394616352 0.446947368"></polygon>
                        </g>
                        <g id="Group-323" transform="translate(74.062893, 110.056158)">
                            <polygon id="Fill-259" fill="#CBCBCB" points="35.4161233 114.398958 38.6777836 115.273168 38.6777836 111.505379 35.4161233 110.631168"></polygon>
                            <polygon id="Fill-261" fill="#CBCBCB" points="43.8518289 116.659863 47.1134893 117.534074 47.1134893 113.766284 43.8518289 112.892074"></polygon>
                            <polygon id="Fill-263" fill="#CBCBCB" points="52.2875346 118.921405 55.549195 119.795616 55.549195 116.027826 52.2875346 115.153616"></polygon>
                            <polygon id="Fill-265" fill="#CBCBCB" points="60.7232403 121.182368 63.9849006 122.056579 63.9849006 118.288789 60.7232403 117.414579"></polygon>
                            <polygon id="Fill-267" fill="#CBCBCB" points="69.1589459 123.443274 72.4206063 124.318063 72.4206063 120.550274 69.1589459 119.675484"></polygon>
                            <polygon id="Fill-269" fill="#CBCBCB" points="50.9777208 50.3644842 35.415834 46.1931684 35.415834 48.1969053 50.9777208 52.3682211"></polygon>
                            <polygon id="Fill-271" fill="#CBCBCB" points="50.9777208 55.9048947 35.415834 51.7335789 35.415834 53.7373158 50.9777208 57.9086316"></polygon>
                            <polygon id="Fill-273" fill="#CBCBCB" points="40.9265761 58.751 35.4164126 57.2741053 35.4164126 59.2778421 40.9265761 60.7547368"></polygon>
                            <polygon id="Fill-275" fill="#4D88FF"
                                     points="2.55025157 39.9103737 1.74539623 39.6950053 1.74539623 40.6450579 1.17603774 40.4922158 1.17603774 39.5421632 0.367132075 39.3250579 0.367132075 38.7038474 1.17603774 38.9209526 1.17603774 37.9703211 1.74539623 38.1231632 1.74539623 39.0737947 2.55025157 39.2891632"></polygon>
                            <path d="M4.8364805,40.8101158 C4.8364805,40.4656421 4.58362516,40.1941158 4.28043019,40.1130632 C4.02294591,40.0441684 3.81464403,40.1501158 3.72437987,40.3816947 C3.78339874,40.8355895 3.95061887,41.1262211 4.2983673,41.2194316 C4.62875723,41.3080105 4.8364805,41.0972737 4.8364805,40.8101158 M5.52329811,40.9577474 C5.52329811,41.6941684 5.01295849,42.0635368 4.33482013,41.8817474 C3.42639245,41.6385895 3.01499623,40.7759579 3.01499623,39.7321158 C3.01499623,38.6147474 3.57972579,37.9669053 4.43897107,38.1979053 C4.82722264,38.3015368 5.13909686,38.5371684 5.39253082,38.8393789 L5.07602767,39.3395895 C4.88624151,39.1056947 4.70108428,38.9464842 4.44302138,38.8775895 C4.04088302,38.7699053 3.76488302,39.0819579 3.70644277,39.6719053 C3.90085786,39.5098 4.18090818,39.4600105 4.47484528,39.5387474 C5.0488327,39.6927474 5.52329811,40.2479579 5.52329811,40.9577474"
                                  id="Fill-277" fill="#4D88FF"></path>
                            <path d="M5.88863648,41.7500947 L6.2820956,41.3129895 C6.51238491,41.6302526 6.79706415,41.8739895 7.09563019,41.9538842 C7.44395723,42.0470947 7.66035975,41.8647263 7.66035975,41.5567263 C7.66035975,41.2435158 7.4393283,40.9754632 7.10025912,40.8845684 C6.86476226,40.8214632 6.66571824,40.8567789 6.49907673,40.9586737 L6.05122767,40.6292526 L6.09635975,38.7048316 L8.15334088,39.2559895 L8.15334088,39.9501474 L6.71142893,39.5639895 L6.69349182,40.3525158 C6.84682516,40.2679895 7.04586918,40.2280421 7.29930314,40.2957789 C7.85014591,40.4434105 8.32518994,40.9777789 8.32518994,41.7089895 C8.32518994,42.4714632 7.83220881,42.8246211 7.09100126,42.6260421 C6.57140377,42.4865158 6.17794465,42.1617263 5.88863648,41.7500947"
                                  id="Fill-279" fill="#4D88FF"></path>
                            <path d="M12.9472931,43.2664158 C12.9472931,42.9844684 12.802639,42.7575211 12.6180604,42.7077316 C12.4184377,42.6544684 12.2836201,42.8009421 12.2836201,43.0881 C12.2836201,43.3648368 12.4236453,43.5906263 12.6180604,43.6421526 C12.8124755,43.6948368 12.9472931,43.5483632 12.9472931,43.2664158 Z M11.8398214,42.9694158 C11.8398214,42.4582053 12.1569031,42.1357316 12.6180604,42.2590474 C13.0832679,42.3841 13.3910918,42.8785211 13.3910918,43.3851 C13.3910918,43.9021 13.0699597,44.2182053 12.6180604,44.0972053 C12.1522742,43.9721526 11.8398214,43.4812053 11.8398214,42.9694158 Z M11.0540604,40.9153105 C11.0540604,40.6391526 10.9134566,40.4133632 10.7184629,40.3612579 C10.5292553,40.3108895 10.3938591,40.4567842 10.3938591,40.7387316 C10.3938591,41.0206789 10.5385132,41.2476263 10.7236704,41.2974158 C10.9134566,41.3483632 11.0540604,41.2030474 11.0540604,40.9153105 Z M12.5133308,40.4249421 L12.9930038,40.5528895 L10.8324503,43.5611 L10.353356,43.4325737 L12.5133308,40.4249421 Z M9.94601006,40.6246789 C9.94601006,40.1071 10.2584629,39.7834684 10.7236704,39.9085211 C11.1940855,40.0347316 11.4967019,40.5285737 11.4967019,41.0345737 C11.4967019,41.5515737 11.1801987,41.8688368 10.7184629,41.7449421 C10.2584629,41.6216263 9.94601006,41.1358895 9.94601006,40.6246789 Z"
                                  id="Fill-281" fill="#4D88FF"></path>
                            <polygon id="Fill-283" fill="#4D88FF"
                                     points="2.55025157 59.5368632 1.74539623 59.3214947 1.74539623 60.2715474 1.17603774 60.1187053 1.17603774 59.1686526 0.367132075 58.9515474 0.367132075 58.3303368 1.17603774 58.5474421 1.17603774 57.5968105 1.74539623 57.7496526 1.74539623 58.7002842 2.55025157 58.9156526"></polygon>
                            <polygon id="Fill-285" fill="#4D88FF" points="3.6792478 58.5655632 3.15097107 58.8052474 2.88365031 58.1909842 3.81464403 57.7197211 4.3481283 57.8627211 4.3481283 61.4493 3.6792478 61.2698263"></polygon>
                            <path d="M6.69777358,59.7664158 C6.63875472,59.3119421 6.47153459,59.0218895 6.12378616,58.9286789 C5.79397484,58.8401 5.58567296,59.0508368 5.58567296,59.3379947 C5.58567296,59.6818895 5.83910692,59.9539947 6.14172327,60.0350474 C6.39920755,60.1039421 6.60750943,59.9974158 6.69777358,59.7664158 M7.40773585,60.4159947 C7.40773585,61.5333632 6.84242767,62.1806263 5.98376101,61.9502053 C5.59493082,61.8465737 5.28363522,61.6115211 5.02962264,61.3087316 L5.34612579,60.8085211 C5.53591195,61.0418368 5.7216478,61.2016263 5.97913208,61.2705211 C6.38127044,61.3782053 6.65727044,61.0655737 6.71571069,60.4762053 C6.5212956,60.6377316 6.24124528,60.6881 5.94730818,60.6093632 C5.37332075,60.4553632 4.89943396,59.9001526 4.89943396,59.1903632 C4.89943396,58.4539421 5.40919497,58.0845737 6.08733333,58.2663632 C6.99633962,58.5095211 7.40773585,59.3715737 7.40773585,60.4159947"
                                  id="Fill-287" fill="#4D88FF"></path>
                            <path d="M12.0301862,62.6470263 C12.0301862,62.3650789 11.8855321,62.1381316 11.7003748,62.0883421 C11.5013308,62.0350789 11.3659346,62.1815526 11.3659346,62.4687105 C11.3659346,62.7454474 11.5059597,62.9712368 11.7003748,63.0227632 C11.8947899,63.0754474 12.0301862,62.9289737 12.0301862,62.6470263 Z M10.9227145,62.3500263 C10.9227145,61.8388158 11.2392176,61.5163421 11.7003748,61.6396579 C12.1655824,61.7647105 12.4734063,62.2591316 12.4734063,62.7657105 C12.4734063,63.2827105 12.1522742,63.5988158 11.7003748,63.4778158 C11.2345887,63.3527632 10.9227145,62.8618158 10.9227145,62.3500263 Z M10.1363748,60.2959211 C10.1363748,60.0197632 9.99634969,59.7939737 9.80193459,59.7418684 C9.61156981,59.6915 9.47617358,59.8373947 9.47617358,60.1193421 C9.47617358,60.4012895 9.62082767,60.6282368 9.80598491,60.6780263 C9.99634969,60.7289737 10.1363748,60.5836579 10.1363748,60.2959211 Z M11.5962239,59.8055526 L12.0753182,59.9335 L9.9153434,62.9417105 L9.43624906,62.8131842 L11.5962239,59.8055526 Z M9.02890314,60.0052895 C9.02890314,59.4877105 9.34077736,59.1640789 9.80598491,59.2891316 C10.2764,59.4153421 10.5790164,59.9091842 10.5790164,60.4151842 C10.5790164,60.9321842 10.2625132,61.2494474 9.80193459,61.1255526 C9.34077736,61.0022368 9.02890314,60.5165 9.02890314,60.0052895 Z"
                                  id="Fill-289" fill="#4D88FF"></path>
                            <path d="M170.309474,1.21752632 L169.387738,2.42694737 L170.309474,2.67415789 L170.309474,1.21752632 Z M168.898808,2.17047368 L170.146883,0.541894737 L170.842958,0.728315789 L170.842958,2.81715789 L171.335361,2.94915789 L171.335361,3.50205263 L170.842958,3.37005263 L170.842958,4.11168421 L170.309474,3.96868421 L170.309474,3.22763158 L168.898808,2.849 L168.898808,2.17047368 Z"
                                  id="Fill-291" fill="#4D88FF"></path>
                            <path d="M172.215957,3.39396316 C172.238523,3.75985789 172.468813,4.09333158 172.807882,4.18422632 C173.115706,4.26643684 173.363353,4.09333158 173.363353,3.71701579 C173.363353,3.29901579 173.09719,3.01938421 172.799203,2.93948947 C172.590901,2.88391053 172.415001,2.93543684 172.31085,3.0437 L171.799932,2.69285789 L172.160989,1.08164737 L173.76607,1.51238421 L173.76607,2.06006842 L172.527831,1.72833158 L172.347303,2.53596316 C172.473442,2.41901579 172.699681,2.39585789 172.907404,2.45143684 C173.490649,2.60775263 173.910725,3.13806842 173.910725,3.84843684 C173.910725,4.48527895 173.48602,4.90385789 172.807882,4.72148947 C172.175454,4.55185789 171.741492,3.95033158 171.705039,3.40843684 L172.215957,3.39396316 Z"
                                  id="Fill-293" fill="#4D88FF"></path>
                            <polygon id="Fill-295" fill="#4D88FF"
                                     points="2.55025157 79.1623105 1.74539623 78.9469421 1.74539623 79.8969947 1.17603774 79.7441526 1.17603774 78.7941 0.367132075 78.5769947 0.367132075 77.9557842 1.17603774 78.1728895 1.17603774 77.2222579 1.74539623 77.3751 1.74539623 78.3257316 2.55025157 78.5411"></polygon>
                            <path d="M2.93792453,80.1590842 L3.33138365,79.7526632 C3.54836478,80.0820842 3.84230189,80.3130842 4.1541761,80.3964526 C4.4972956,80.4879263 4.69633962,80.3588211 4.69633962,80.1029263 C4.69633962,79.8267684 4.51118239,79.6357158 4.0905283,79.5280316 L3.73352201,79.4325053 L3.73352201,78.7742421 L4.0905283,78.8755579 C4.42959748,78.9664526 4.63327044,78.8749789 4.63327044,78.6190842 C4.63327044,78.3579789 4.42091824,78.1339263 4.11309434,78.0511368 C3.81915723,77.9729789 3.58886792,78.0777684 3.38114465,78.2728737 L2.9969434,77.7002947 C3.25442767,77.4090842 3.62474214,77.2313474 4.17674214,77.3789789 C4.87744654,77.5671368 5.31545912,78.0968737 5.31545912,78.6659789 C5.31545912,79.0787684 5.07186164,79.3109263 4.73279245,79.3346632 C5.07186164,79.5147158 5.38315723,79.8748211 5.38315723,80.3495579 C5.38315723,80.9707684 4.90869182,81.2926632 4.18542138,81.0992947 C3.62474214,80.9487684 3.20061635,80.5794 2.93792453,80.1590842"
                                  id="Fill-297" fill="#4D88FF"></path>
                            <path d="M7.47531824,79.3392368 C7.47531824,79.0937632 7.26759497,78.8552368 6.96902893,78.7747632 C6.67046289,78.6954474 6.46794717,78.8233947 6.46794717,79.0688684 C6.46794717,79.3456053 6.72543145,79.5713947 6.96902893,79.6576579 C7.21320503,79.7022368 7.47531824,79.6055526 7.47531824,79.3392368 M7.54301635,80.8867632 C7.54301635,80.6053947 7.23577107,80.3448684 6.96902893,80.2632368 C6.70228679,80.2018684 6.39967044,80.2985526 6.39967044,80.5805 C6.39967044,80.8520263 6.63921761,81.1038684 6.96902893,81.1924474 C7.29884025,81.2810263 7.54301635,81.1588684 7.54301635,80.8867632 M5.72153208,80.4826579 C5.72153208,80.0594474 5.97438742,79.8139737 6.33139371,79.7531842 C6.02414843,79.5192895 5.80253836,79.1991316 5.80253836,78.7915526 C5.80253836,78.1599211 6.36321761,77.9653947 6.96902893,78.1275 C7.58814843,78.2936579 8.13956981,78.8019737 8.13956981,79.4179737 C8.13956981,79.8197632 7.91853836,80.0218158 7.60666415,80.0947632 C7.97234969,80.3599211 8.21652579,80.7385526 8.21652579,81.1507632 C8.21652579,81.8032368 7.65179623,82.0232368 6.96902893,81.8397105 C6.2816327,81.6556053 5.72153208,81.1299211 5.72153208,80.4826579"
                                  id="Fill-299" fill="#4D88FF"></path>
                            <path d="M12.8071522,82.4807789 C12.8071522,82.1988316 12.6624981,81.9718842 12.4779195,81.9226737 C12.2782969,81.8688316 12.1434792,82.0158842 12.1434792,82.3030421 C12.1434792,82.5792 12.2835044,82.8049895 12.4779195,82.8570947 C12.6723346,82.9092 12.8071522,82.7627263 12.8071522,82.4807789 Z M11.6996805,82.1837789 C11.6996805,81.6725684 12.0161836,81.3495158 12.4779195,81.4734105 C12.943127,81.5984632 13.2503723,82.0934632 13.2503723,82.6000421 C13.2503723,83.1164632 12.9292403,83.4325684 12.4779195,83.3109895 C12.0121333,83.1865158 11.6996805,82.6955684 11.6996805,82.1837789 Z M10.9133409,80.1302526 C10.9133409,79.8529368 10.7733157,79.6277263 10.5789006,79.5756211 C10.3891145,79.5246737 10.2531396,79.6711474 10.2531396,79.9530947 C10.2531396,80.2356211 10.3977937,80.4619895 10.5835296,80.5117789 C10.7733157,80.5627263 10.9133409,80.4174105 10.9133409,80.1302526 Z M12.3731899,79.6393053 L12.8522843,79.7672526 L10.6923094,82.7754632 L10.2132151,82.6469368 L12.3731899,79.6393053 Z M9.80586918,79.8384632 C9.80586918,79.3214632 10.118322,78.9984105 10.5835296,79.1228842 C11.0539447,79.2485158 11.356561,79.7423579 11.356561,80.2489368 C11.356561,80.7659368 11.0394792,81.0826211 10.5789006,80.9598842 C10.118322,80.8359895 9.80586918,80.3502526 9.80586918,79.8384632 Z"
                                  id="Fill-301" fill="#4D88FF"></path>
                            <polygon id="Fill-303" fill="#4D88FF"
                                     points="2.55025157 98.7893789 1.74539623 98.5734316 1.74539623 99.5240632 1.17603774 99.3712211 1.17603774 98.4205895 0.367132075 98.2040632 0.367132075 97.5828526 1.17603774 97.7993789 1.17603774 96.8487474 1.74539623 97.0015895 1.74539623 97.9522211 2.55025157 98.1681684"></polygon>
                            <path d="M4.73701635,98.2319684 C4.73701635,97.9864947 4.52929308,97.7479684 4.23072704,97.6680737 C3.93216101,97.5881789 3.72964528,97.7161263 3.72964528,97.9616 C3.72964528,98.2389158 3.98712956,98.4641263 4.23072704,98.5503895 C4.47490314,98.5949684 4.73701635,98.4982842 4.73701635,98.2319684 M4.80471447,99.7794947 C4.80471447,99.4981263 4.49746918,99.2376 4.23072704,99.1559684 C3.96398491,99.0951789 3.66136855,99.1912842 3.66136855,99.4732316 C3.66136855,99.7447579 3.90091572,99.9971789 4.23072704,100.085758 C4.56053836,100.173758 4.80471447,100.0516 4.80471447,99.7794947 M2.98323019,99.3753895 C2.98323019,98.9521789 3.23608553,98.7067053 3.59309182,98.6459158 C3.28584654,98.4120211 3.06423648,98.0918632 3.06423648,97.6842842 C3.06423648,97.0526526 3.62491572,96.8581263 4.23072704,97.0208105 C4.84984654,97.1863895 5.40126792,97.6947053 5.40126792,98.3107053 C5.40126792,98.7130737 5.18023648,98.9145474 4.86836226,98.9874947 C5.2340478,99.2532316 5.47764528,99.6312842 5.47764528,100.044074 C5.47764528,100.696547 4.91349434,100.915968 4.23072704,100.733021 C3.54333082,100.548916 2.98323019,100.022653 2.98323019,99.3753895"
                                  id="Fill-305" fill="#4D88FF"></path>
                            <path d="M7.94544403,99.8698684 C7.94544403,99.1959737 7.65613585,98.6384474 7.23548176,98.5255526 C6.82003522,98.4143947 6.52609811,98.8161842 6.52609811,99.4895 C6.52609811,100.162816 6.82003522,100.727289 7.23548176,100.838447 C7.65613585,100.951342 7.94544403,100.543184 7.94544403,99.8698684 M5.84390943,99.3065526 C5.84390943,98.2204474 6.41731824,97.6067632 7.23548176,97.8261842 C8.05364528,98.0456053 8.63226164,98.9678684 8.63226164,100.053974 C8.63226164,101.145289 8.05364528,101.757816 7.23548176,101.538395 C6.41731824,101.318974 5.84390943,100.397868 5.84390943,99.3065526"
                                  id="Fill-307" fill="#4D88FF"></path>
                            <path d="M13.2591673,102.228905 C13.2591673,101.946958 13.1145132,101.720011 12.929356,101.670221 C12.7303119,101.616958 12.5949157,101.763432 12.5949157,102.050589 C12.5949157,102.327326 12.7355195,102.553116 12.929356,102.604642 C13.1237711,102.657326 13.2591673,102.510853 13.2591673,102.228905 Z M12.1516956,101.931905 C12.1516956,101.420116 12.4681987,101.097642 12.929356,101.221537 C13.3945635,101.346011 13.7023874,101.841011 13.7023874,102.347589 C13.7023874,102.864589 13.3812553,103.180116 12.929356,103.059116 C12.4641484,102.934063 12.1516956,102.443695 12.1516956,101.931905 Z M11.365356,99.8778 C11.365356,99.6010632 11.2253308,99.3758526 11.0309157,99.3237474 C10.8411296,99.2728 10.7051547,99.4192737 10.7051547,99.7012211 C10.7051547,99.9831684 10.8498088,100.209537 11.0355447,100.259326 C11.2253308,100.310274 11.365356,100.165537 11.365356,99.8778 Z M12.825205,99.3868526 L13.3042994,99.5153789 L11.1443245,102.523011 L10.6652302,102.395063 L12.825205,99.3868526 Z M10.2578843,99.5865895 C10.2578843,99.0695895 10.5703371,98.7459579 11.0355447,98.8710105 C11.5053811,98.9966421 11.8079975,99.4904842 11.8079975,99.9970632 C11.8079975,100.514063 11.4914943,100.830747 11.0309157,100.707432 C10.5703371,100.584116 10.2578843,100.098379 10.2578843,99.5865895 Z"
                                  id="Fill-309" fill="#4D88FF"></path>
                            <polygon id="Fill-311" fill="#CBCBCB" points="135.254003 73.3230474 119.123914 68.9994684 119.123914 72.7672579 135.254003 77.0908368"></polygon>
                            <polygon id="Fill-313" fill="#F2F2F2" points="120.892571 137.310916 119.123741 136.836758 119.123741 84.9063368 120.892571 85.3804947"></polygon>
                            <polygon id="Fill-315" fill="#F2F2F2" points="135.634848 141.262347 133.866018 140.788189 133.866018 88.8583474 135.634848 89.3325053"></polygon>
                            <polygon id="Fill-317" fill="#F2F2F2" points="150.377125 145.2143 148.607716 144.740142 148.607716 92.8097211 150.377125 93.2838789"></polygon>
                            <polygon id="Fill-319" fill="#F2F2F2" points="165.119401 149.165732 163.349992 148.691574 163.349992 96.7611526 165.119401 97.2353105"></polygon>
                            <polygon id="Fill-321" fill="#F2F2F2" points="179.861736 153.117163 178.092327 152.643584 178.092327 100.713163 179.861736 101.187321"></polygon>
                        </g>
                        <g id="Group-326" transform="translate(192.679245, 199.793000)">
                            <mask id="mask-125" fill="white">
                                <use xlink:href="#path-124"></use>
                            </mask>
                            <g id="Clip-325"></g>
                            <path d="M0.0648050314,1.41031579 L0.0648050314,10.8170526 C0.0648050314,11.5494211 0.659044025,12.3026316 1.39215094,12.4994737 C2.12410063,12.6957368 2.71833962,12.2609474 2.71833962,11.5274211 L2.71833962,2.12126316 C2.71833962,1.38831579 2.12410063,0.635105263 1.39215094,0.438263158 C1.27295597,0.406421053 1.15781132,0.391368421 1.04787421,0.391368421 C0.481987421,0.391368421 0.0648050314,0.796052632 0.0648050314,1.41031579"
                                  id="Fill-324" fill="url(#linearGradient-126)" mask="url(#mask-125)"></path>
                        </g>
                        <g id="Group-329" transform="translate(207.144654, 218.898263)">
                            <mask id="mask-128" fill="white">
                                <use xlink:href="#path-127"></use>
                            </mask>
                            <g id="Clip-328"></g>
                            <path d="M0.341962264,1.04615789 L0.341962264,18.4730526 C0.341962264,19.206 0.935622642,19.9592105 1.66872956,20.1554737 C2.40125786,20.3523158 2.99491824,19.9169474 2.99491824,19.184 L2.99491824,1.75768421 C2.99491824,1.02415789 2.40125786,0.270947368 1.66872956,0.0746842105 C1.54953459,0.0422631579 1.43438994,0.0272105263 1.32445283,0.0272105263 C0.758566038,0.0272105263 0.341962264,0.432473684 0.341962264,1.04615789"
                                  id="Fill-327" fill="url(#linearGradient-129)" mask="url(#mask-128)"></path>
                        </g>
                        <g id="Group-332" transform="translate(236.654088, 218.319316)">
                            <mask id="mask-131" fill="white">
                                <use xlink:href="#path-130"></use>
                            </mask>
                            <g id="Clip-331"></g>
                            <path d="M0.317081761,1.25863158 L0.317081761,13.9873684 C0.317081761,14.7203158 0.911320755,15.4735263 1.64327044,15.6697895 L1.64384906,15.6697895 C2.37579874,15.8666316 2.97003774,15.4312632 2.97003774,14.6983158 L2.97003774,1.97015789 C2.97003774,1.23721053 2.37579874,0.484 1.64384906,0.287736842 L1.64327044,0.287736842 C1.52407547,0.255894737 1.40893082,0.240263158 1.29899371,0.240263158 C0.733685535,0.240263158 0.317081761,0.645526316 0.317081761,1.25863158"
                                  id="Fill-330" fill="url(#linearGradient-132)" mask="url(#mask-131)"></path>
                        </g>
                        <g id="Group-335" transform="translate(251.698113, 229.898263)">
                            <mask id="mask-134" fill="white">
                                <use xlink:href="#path-133"></use>
                            </mask>
                            <g id="Clip-334"></g>
                            <path d="M0.0156226415,1.14631579 L0.0156226415,6.36031579 C0.0156226415,7.09268421 0.609283019,7.84589474 1.34181132,8.04273684 C2.07433962,8.239 2.668,7.80421053 2.668,7.07126316 L2.668,1.85726316 C2.668,1.12431579 2.07433962,0.371105263 1.34181132,0.174263158 C1.22261635,0.142421053 1.1074717,0.127368421 0.997534591,0.127368421 C0.431647799,0.127368421 0.0156226415,0.532052632 0.0156226415,1.14631579"
                                  id="Fill-333" fill="url(#linearGradient-135)" mask="url(#mask-134)"></path>
                        </g>
                        <g id="Group-338" transform="translate(222.188679, 208.477211)">
                            <mask id="mask-137" fill="white">
                                <use xlink:href="#path-136"></use>
                            </mask>
                            <g id="Clip-337"></g>
                            <path d="M0.0405031447,1.353 L0.0405031447,36.3231579 C0.0405031447,37.0561053 0.634163522,37.8093158 1.36727044,38.0061579 C2.09922013,38.2024211 2.6928805,37.7676316 2.6928805,37.0341053 L2.6928805,2.06394737 C2.6928805,1.331 2.09922013,0.577789474 1.36727044,0.381526316 C1.24807547,0.349684211 1.1323522,0.334052632 1.02299371,0.334052632 C0.456528302,0.334052632 0.0405031447,0.739315789 0.0405031447,1.353"
                                  id="Fill-336" fill="url(#linearGradient-138)" mask="url(#mask-137)"></path>
                        </g>
                        <g id="Group-343" transform="translate(104.729560, 52.740368)">
                            <polygon id="Fill-339" fill="#F9346C" points="3.39051824 7.13674211 4.49509686 10.5722158 5.59967547 7.72900526 8.42853082 8.48742632 8.42853082 2.12537368 0.562241509 0.0168473684 0.562241509 6.37832105"></polygon>
                            <polygon id="Fill-341" fill="#4D88FF" points="74.7597786 56.7096895 75.8637786 60.1451632 76.9683572 57.3019526 79.7972126 58.0603737 79.7972126 51.6983211 71.9309233 49.5897947 71.9309233 55.9512684"></polygon>
                        </g>
                    </g>
                </g>
            </g>
        </g>
    </g>
</svg>