<svg width="322px" height="366px" viewBox="0 0 322 366" version="1.1" xmlns="http://www.w3.org/2000/svg" xmlns:xlink="http://www.w3.org/1999/xlink">
    <defs>
        <path d="M247.371085,0.076522686 C249.438602,0.0856001713 250.857736,1.72350873 250.857736,4.56274047 L250.857736,185.54763 C250.857736,187.090134 249.769164,188.972472 248.412978,189.753365 L2.4359988,331.403786 C1.0885728,332.179858 0,331.550806 0,330.008603 L0,149.023713 C0,144.999644 2.84194826,140.110327 6.35776053,138.085789 L244.499976,0.947194192 C245.518801,0.360538976 246.482234,0.080262053 247.336475,0.0765226859 L247.371085,0.076522686 Z"
              id="path-1"></path>
        <linearGradient x1="0%" y1="50.0000242%" x2="99.9999255%" y2="50.0000242%" id="linearGradient-3">
            <stop stop-color="#4B9CF4" offset="0%"></stop>
            <stop stop-color="#ACD4F9" offset="100%"></stop>
        </linearGradient>
        <path d="M244.407474,0.718271827 L98.7533474,85.0001368 L6.4949614,138.384821 C2.98284211,140.41685 0.143333333,145.325293 0.143333333,149.364853 L0.143333333,331.046495 C0.143333333,332.594635 7.87941053,336.418866 9.22553684,335.640108 L248.316702,190.251305 C249.671881,189.467104 250.759404,187.577519 250.759404,186.029379 L257.939649,5.40594059 C257.939649,2.31661566 252.073846,0.0247992799 247.746989,0.0247992799 C246.416554,0.0247992799 245.231565,0.241641764 244.407474,0.718271827"
              id="path-4"></path>
        <linearGradient x1="8.46633307e-05%" y1="50%" x2="100.000086%" y2="50%" id="linearGradient-6">
            <stop stop-color="#4B9CF4" offset="0%"></stop>
            <stop stop-color="#ACD4F9" offset="100%"></stop>
        </linearGradient>
        <path d="M244.593912,0.91036149 L6.45169675,138.173515 C2.93588448,140.199589 0.0942382671,145.093348 0.0942382671,149.12077 L0.0942382671,225.852574 L0.0942382671,248.710819 L0.0942382671,330.270645 C0.0942382671,331.814249 1.18250903,332.443571 2.53023706,331.667095 L248.506915,189.88832 C249.863402,189.106416 250.951975,187.222369 250.951975,185.678463 L250.951975,4.52919164 C250.951975,1.67929882 249.524809,0.0385976385 247.447942,0.0385976385 C246.589226,0.0385976385 245.619659,0.319033606 244.593912,0.91036149"
              id="path-7"></path>
        <path d="M244.593912,1.10534799 L6.45169675,137.832689 C2.93588448,139.85085 0.0942382671,144.725795 0.0942382671,148.737487 L0.0942382671,163.700535 L155.012586,74.7551648 L250.951975,19.6727912 L250.951975,4.71004396 C250.951975,1.87158242 249.524809,0.237289377 247.447942,0.237289377 C246.589226,0.237289377 245.619659,0.516630037 244.593912,1.10534799"
              id="path-9"></path>
        <path d="M69.6560402,0.563644287 C71.2950201,-0.382926973 72.6238163,0.374753828 72.6238163,2.2563934 L72.6238163,46.012384 C72.6238163,47.8937208 71.2950201,50.1864393 69.6560402,51.1330106 L3.10940147,89.5652568 C1.47042158,90.511828 0.141625293,89.7541472 0.141625293,87.8728104 L0.141625293,44.1165171 C0.141625293,42.2351802 1.47042158,39.9424617 3.10940147,38.9958905 L69.6560402,0.563644287 Z"
              id="path-11"></path>
        <linearGradient x1="-4.36294709e-05%" y1="50.0000108%" x2="100.000038%" y2="50.0000108%" id="linearGradient-13">
            <stop stop-color="#6DACEF" offset="0%"></stop>
            <stop stop-color="#97C8FD" offset="100%"></stop>
        </linearGradient>
        <path d="M69.6560402,0.683517079 C71.2950201,-0.263054181 72.6238163,0.49462662 72.6238163,2.3762662 L72.6238163,46.1322568 C72.6238163,48.0135936 71.2950201,50.3063121 69.6560402,51.2528834 L3.10940147,89.6851296 C1.47042158,90.6317008 0.141625293,89.87402 0.141625293,87.9926832 L0.141625293,44.2363899 C0.141625293,42.355053 1.47042158,40.0626372 3.10940147,39.1157633 L69.6560402,0.683517079 Z"
              id="path-14"></path>
        <path d="M68.7788216,0.681946309 L3.081361,39.0261745 C1.46360166,39.9705705 0.151767635,42.2580201 0.151767635,44.1350336 L0.151767635,87.7901678 C0.151767635,89.6674832 1.46360166,90.4237248 3.081361,89.4793289 L68.7788216,51.1354027 C70.3971784,50.1907047 71.7087137,47.903557 71.7087137,46.0262416 L71.7087137,2.37110738 C71.7087137,1.04224832 71.051751,0.275134228 70.0939419,0.275436242 C69.69839,0.275436242 69.2514523,0.406208054 68.7788216,0.681946309"
              id="path-16"></path>
        <linearGradient x1="-0.000256641491%" y1="49.9998565%" x2="100.000074%" y2="49.9998565%" id="linearGradient-18">
            <stop stop-color="#6DACEF" offset="0%"></stop>
            <stop stop-color="#97C8FD" offset="100%"></stop>
        </linearGradient>
        <path d="M6.74404545,0.5567 C4.74677273,1.70651667 3.16225,4.23731667 2.76368182,6.92645 C2.48654545,8.79668333 2.72379545,10.2657 3.33893182,11.4573167 C2.90993182,11.9924833 2.48772727,12.4845833 2.09270455,13.0175333 C1.248,14.1562667 0.520295455,15.3618167 0.23725,16.76655 C0.100159091,17.44485 0.175795455,17.8809 0.558113636,18.11745 C3.77886364,20.1013667 8.91829545,17.0366667 12.3115909,11.1298833 C12.9807955,9.96455 13.1607273,9.3898 12.6227045,8.36918333 C12.5045227,8.1453 12.33375,7.94611667 12.1219091,7.88278333 C11.3859318,7.66206667 10.621,7.5069 9.84336364,7.32006667 C10.4564318,4.63758333 10.5421136,3.93553333 10.40325,2.5935 C10.2366136,0.9861 9.41702273,0.0880333333 8.28159091,0.0880333333 C7.81477273,0.0880333333 7.29447727,0.239716667 6.74404545,0.5567 M4.86938636,10.1757667 C4.31540909,9.58328333 4.08938636,8.65133333 4.08525,7.50468333 C4.08465909,5.72375 4.76981818,3.97891667 5.8825,2.9336 C7.51577273,1.39808333 8.88047727,1.84965 9.02702273,4.03908333 C9.10886364,5.26236667 8.86068182,6.6253 8.25175,8.05916667 C7.59436364,9.60703333 6.56234091,10.55165 5.70109091,10.5519667 C5.39381818,10.5519667 5.10840909,10.4316333 4.86938636,10.1757667 M8.46359091,10.09185 C8.76140909,9.6463 9.01875,9.41893333 9.30504545,9.46326667 C9.96538636,9.56618333 10.6239545,9.67701667 11.2565227,9.8458 C11.4934773,9.90913333 11.4866818,10.18495 11.2281591,10.6450667 C8.63909091,15.2642833 4.10859091,17.9353667 1.58777273,16.2215667 C1.82945455,15.74625 2.04277273,15.22375 2.33320455,14.7832667 C2.73177273,14.1800167 3.18913636,13.6407333 3.62197727,13.0739 C4.0105,12.5647 4.32870455,12.36425 4.74175,12.4662167 C4.86731818,12.4975667 4.99790909,12.5127667 5.13204545,12.5127667 C6.18563636,12.5127667 7.47027273,11.5779667 8.46359091,10.09185"
              id="path-19"></path>
        <linearGradient x1="-32.3496574%" y1="260.014%" x2="86.0016468%" y2="-17.2966183%" id="linearGradient-21">
            <stop stop-color="#2B8CF4" offset="0%"></stop>
            <stop stop-color="#DFEDF9" offset="100%"></stop>
        </linearGradient>
        <path d="M8.93105085,1.50798529 C8.52437288,1.78191176 8.11342373,2.02680882 7.7119322,2.33563235 C3.46240678,5.60236765 0.490271186,11.0166618 0.121118644,16.2027353 C-0.00244067797,17.9451176 0.258101695,19.4188235 0.873457627,20.5766029 C0.979322034,20.7751765 1.36494915,20.8026618 1.61542373,20.6491765 C1.8280678,20.5176176 2.11118644,20.0058971 2.21491525,19.6732941 C2.2960678,19.4123382 2.1859322,19.1313088 2.09928814,18.9228529 C1.60657627,17.7348088 1.42932203,16.3225588 1.6779661,14.6184706 C2.19111864,11.0963382 3.75742373,7.91391176 6.40586441,5.24722059 C9.07535593,2.55829412 11.5547797,1.68 13.7208814,2.54779412 C16.0218305,3.46932353 16.9233559,6.84692647 15.6651864,11.1031324 C15.4314915,11.8946471 15.588,12.3121765 16.0279322,12.2325 C16.4538305,12.1556029 16.8019322,11.6994706 17.0298305,10.9206176 C18.8667458,4.64810294 16.7711186,0.29925 12.8471186,0.298941176 C11.6841356,0.298632353 10.360678,0.680647059 8.93105085,1.50798529"
              id="path-22"></path>
        <linearGradient x1="-20.3234912%" y1="251.780448%" x2="68.2491434%" y2="5.36477321%" id="linearGradient-24">
            <stop stop-color="#2B8CF4" offset="0%"></stop>
            <stop stop-color="#DFEDF9" offset="100%"></stop>
        </linearGradient>
        <path d="M68.8382739,0.624563758 L3.14111203,38.9684899 C1.52305394,39.9128859 0.210921162,42.2000336 0.210921162,44.077651 L0.210921162,87.7327852 C0.210921162,89.6097987 1.52305394,90.3660403 3.14111203,89.4216443 L68.8382739,51.0777181 C70.4431867,50.1408725 71.7469544,47.8833221 71.768166,46.0150671 L71.768166,2.26721477 C71.7529295,0.96704698 71.1001494,0.217751678 70.1533942,0.217751678 C69.7578423,0.217751678 69.3112033,0.34852349 68.8382739,0.624563758"
              id="path-25"></path>
        <linearGradient x1="0.000201195735%" y1="50.0000033%" x2="100.000114%" y2="50.0000033%" id="linearGradient-27">
            <stop stop-color="#6DACEF" offset="0%"></stop>
            <stop stop-color="#97C8FD" offset="100%"></stop>
        </linearGradient>
        <path d="M6.80284091,0.451508475 C4.80556818,1.49772881 3.22134091,3.80050847 2.82277273,6.24735593 C2.54534091,7.94908475 2.78229545,9.2860339 3.39772727,10.3702881 C2.96872727,10.8569492 2.54652273,11.3047119 2.1515,11.7899322 C1.30709091,12.8260678 0.579090909,13.9227119 0.296045455,15.2005932 C0.158954545,15.8183559 0.234590909,16.2148305 0.616909091,16.4297797 C3.83765909,18.2352373 8.97709091,15.446661 12.3703864,10.0720678 C13.0395909,9.01201695 13.2192273,8.48905085 12.6815,7.56010169 C12.5636136,7.35638983 12.39225,7.17515254 12.1807045,7.11723729 C11.4447273,6.91698305 10.6800909,6.77550847 9.90215909,6.60579661 C10.5155227,4.16471186 10.6006136,3.52562712 10.46175,2.30479661 C10.2957045,0.841932203 9.47581818,0.0253559322 8.34038636,0.0253559322 C7.87327273,0.0250677966 7.35327273,0.163372881 6.80284091,0.451508475 M4.92818182,9.20391525 C4.3745,8.66538983 4.14818182,7.81683051 4.14434091,6.77377966 C4.14345455,5.15330508 4.82831818,3.56567797 5.94129545,2.61454237 C7.57456818,1.21737288 8.93927273,1.62767797 9.08552273,3.62013559 C9.16765909,4.73349153 8.91918182,5.97362712 8.31054545,7.27801695 C7.65315909,8.68642373 6.62143182,9.5459322 5.76018182,9.54622034 C5.45290909,9.54622034 5.16720455,9.43672881 4.92818182,9.20391525 M8.52209091,9.12784746 C8.81990909,8.72244068 9.07754545,8.51527119 9.36413636,8.55589831 C10.0238864,8.64954237 10.6824545,8.75067797 11.3153182,8.90367797 C11.5519773,8.96130508 11.5454773,9.21227119 11.2869545,9.6309322 C8.69788636,13.8342542 4.16738636,16.2643898 1.64656818,14.705 C1.88854545,14.2730847 2.10127273,13.7970847 2.392,13.3962881 C2.79056818,12.847678 3.24822727,12.3566949 3.68047727,11.8412203 C4.069,11.3776102 4.38779545,11.1955085 4.80025,11.288 C4.92611364,11.3165254 5.057,11.3303559 5.19113636,11.3303559 C6.24502273,11.3303559 7.52906818,10.4800678 8.52209091,9.12784746"
              id="path-28"></path>
        <linearGradient x1="-57.6442402%" y1="309.036813%" x2="82.4751193%" y2="-7.1753511%" id="linearGradient-30">
            <stop stop-color="#2B8CF4" offset="0%"></stop>
            <stop stop-color="#DFEDF9" offset="100%"></stop>
        </linearGradient>
        <path d="M8.99145763,1.40059701 C8.58508475,1.66567164 8.17413559,1.90208955 7.77264407,2.20089552 C3.52311864,5.35791045 0.550983051,10.5913433 0.181830508,15.6044776 C0.0582711864,17.2886567 0.318508475,18.7128358 0.934169492,19.8322388 C1.0400339,20.0241791 1.42535593,20.0507463 1.67613559,19.9023881 C1.88877966,19.7755224 2.17189831,19.280597 2.27562712,18.9591045 C2.35677966,18.7071642 2.24664407,18.4352239 2.16,18.2337313 C1.66759322,17.0853731 1.4900339,15.7202985 1.73837288,14.0731343 C2.25152542,10.6686567 3.81813559,7.59313433 6.46627119,5.01492537 C9.1360678,2.4161194 11.6154915,1.56716418 13.7815932,2.40537313 C16.0822373,3.29671642 16.9840678,6.56119403 15.7258983,10.6755224 C15.4918983,11.4402985 15.6484068,11.8441791 16.0886441,11.7671642 C16.5148475,11.6928358 16.8626441,11.2516418 17.0902373,10.498806 C18.9271525,4.4358209 16.8318305,0.232238806 12.9078305,0.231940299 C11.7445424,0.231940299 10.4210847,0.60119403 8.99145763,1.40059701"
              id="path-31"></path>
        <linearGradient x1="-39.2507635%" y1="295.247735%" x2="65.6137238%" y2="14.2702128%" id="linearGradient-33">
            <stop stop-color="#2B8CF4" offset="0%"></stop>
            <stop stop-color="#DFEDF9" offset="100%"></stop>
        </linearGradient>
    </defs>
    <g id="Welcome" stroke="none" stroke-width="1" fill="none" fill-rule="evenodd">
        <g id="Home" transform="translate(-173.000000, -237.000000)">
            <g id="Group-88" transform="translate(99.000000, 227.000000)">
                <g id="Group-118" transform="translate(74.000000, 10.000000)">
                    <g id="Group-3" opacity="0.104143415" transform="translate(0.000000, 0.842816)">
                        <mask id="mask-2" fill="white">
                            <use xlink:href="#path-1"></use>
                        </mask>
                        <g id="Clip-2"></g>
                        <path d="M244.499976,0.947194192 C248.007029,-1.07222142 250.857736,0.538671506 250.857736,4.56274047 L250.857736,185.54763 C250.857736,187.090134 249.769164,188.972472 248.412978,189.753365 L2.4359988,331.403786 C1.0885728,332.179858 0,331.550806 0,330.008603 L0,149.023713 C0,144.999644 2.84194826,140.110327 6.35776053,138.085789 L244.499976,0.947194192 Z"
                              id="Fill-1" fill="url(#linearGradient-3)"></path>
                    </g>
                    <g id="Group-6" transform="translate(45.000000, 29.842816)">
                        <mask id="mask-5" fill="white">
                            <use xlink:href="#path-4"></use>
                        </mask>
                        <g id="Clip-5"></g>
                        <path d="M244.407474,0.718271827 L98.7533474,85.0001368 L6.4949614,138.384821 C2.98284211,140.41685 0.143333333,145.325293 0.143333333,149.364853 L0.143333333,331.046495 C0.143333333,332.594635 7.87941053,336.418866 9.22553684,335.640108 L248.316702,190.251305 C249.671881,189.467104 250.759404,187.577519 250.759404,186.029379 L257.939649,5.40594059 C257.939649,2.31661566 252.073846,0.0247992799 247.746989,0.0247992799 C246.416554,0.0247992799 245.231565,0.241641764 244.407474,0.718271827"
                              id="Fill-4" fill="url(#linearGradient-6)" mask="url(#mask-5)"></path>
                    </g>
                    <g id="Group-9" transform="translate(52.000000, 33.842816)">
                        <mask id="mask-8" fill="white">
                            <use xlink:href="#path-7"></use>
                        </mask>
                        <g id="Clip-8"></g>
                        <path d="M244.593912,0.91036149 L6.45169675,138.173515 C2.93588448,140.199589 0.0942382671,145.093348 0.0942382671,149.12077 L0.0942382671,225.852574 L0.0942382671,248.710819 L0.0942382671,330.270645 C0.0942382671,331.814249 1.18250903,332.443571 2.53023706,331.667095 L248.506915,189.88832 C249.863402,189.106416 250.951975,187.222369 250.951975,185.678463 L250.951975,4.52919164 C250.951975,1.67929882 249.524809,0.0385976385 247.447942,0.0385976385 C246.589226,0.0385976385 245.619659,0.319033606 244.593912,0.91036149"
                              id="Fill-7" mask="url(#mask-8)"></path>
                    </g>
                    <g id="Group-12" transform="translate(52.000000, 33.842816)">
                        <mask id="mask-10" fill="white">
                            <use xlink:href="#path-9"></use>
                        </mask>
                        <g id="Clip-11"></g>
                        <path d="M244.593912,1.10534799 L6.45169675,137.832689 C2.93588448,139.85085 0.0942382671,144.725795 0.0942382671,148.737487 L0.0942382671,163.700535 L155.012586,74.7551648 L250.951975,19.6727912 L250.951975,4.71004396 C250.951975,1.87158242 249.524809,0.237289377 247.447942,0.237289377 C246.589226,0.237289377 245.619659,0.516630037 244.593912,1.10534799"
                              id="Fill-10" mask="url(#mask-10)"></path>
                    </g>
                    <g id="Group-81" transform="translate(61.000000, 78.842816)">
                        <path d="M6.02479445,100.581052 C6.02479445,102.267747 4.8333868,104.323141 3.36417569,105.171937 C1.89466197,106.020734 0.703254315,105.341152 0.703254315,103.654457 C0.703254315,101.967762 1.89466197,99.9123674 3.36417569,99.0635711 C4.8333868,98.2150776 6.02479445,98.8943568 6.02479445,100.581052"
                              id="Fill-13" fill="#FFFFFF"></path>
                        <path d="M12.9483648,96.5825676 C12.9483648,98.2692625 11.7569572,100.324657 10.287746,101.173453 C8.81823232,102.021947 7.62682467,101.342668 7.62682467,99.6559728 C7.62682467,97.9689751 8.81823232,95.9138833 10.287746,95.065087 C11.7569572,94.2165935 12.9483648,94.8958727 12.9483648,96.5825676"
                              id="Fill-15" fill="#FFFFFF"></path>
                        <path d="M19.8719352,92.5840835 C19.8719352,94.2707784 18.6805275,96.326173 17.2113164,97.1746665 C15.7415001,98.0234628 14.550395,97.3441836 14.550395,95.6574887 C14.550395,93.970491 15.7415001,91.9150965 17.2113164,91.0666029 C18.6805275,90.2181094 19.8719352,90.8973886 19.8719352,92.5840835"
                              id="Fill-17" fill="#FFFFFF"></path>
                        <g id="Group-21" transform="translate(162.203328, 0.000000)">
                            <mask id="mask-12" fill="white">
                                <use xlink:href="#path-11"></use>
                            </mask>
                            <g id="Clip-20"></g>
                            <path d="M69.6560402,0.563644287 C71.2950201,-0.382926973 72.6238163,0.374753828 72.6238163,2.2563934 L72.6238163,46.012384 C72.6238163,47.8937208 71.2950201,50.1864393 69.6560402,51.1330106 L3.10940147,89.5652568 C1.47042158,90.511828 0.141625293,89.7541472 0.141625293,87.8728104 L0.141625293,44.1165171 C0.141625293,42.2351802 1.47042158,39.9424617 3.10940147,38.9958905 L69.6560402,0.563644287 Z"
                                  id="Fill-19" fill="url(#linearGradient-13)" mask="url(#mask-12)"></path>
                        </g>
                        <g id="Group-24" transform="translate(162.203328, 63.266196)">
                            <mask id="mask-15" fill="white">
                                <use xlink:href="#path-14"></use>
                            </mask>
                            <g id="Clip-23"></g>
                            <path d="M69.6560402,0.683517079 C71.2950201,-0.263054181 72.6238163,0.49462662 72.6238163,2.3762662 L72.6238163,46.1322568 C72.6238163,48.0135936 71.2950201,50.3063121 69.6560402,51.2528834 L3.10940147,89.6851296 C1.47042158,90.6317008 0.141625293,89.87402 0.141625293,87.9926832 L0.141625293,44.2363899 C0.141625293,42.355053 1.47042158,40.0626372 3.10940147,39.1157633 L69.6560402,0.683517079 Z"
                                  id="Fill-22" fill="url(#linearGradient-13)" mask="url(#mask-15)"></path>
                        </g>
                        <path d="M130.93679,56.016283 C133.592567,54.4827589 135.745393,55.7102442 135.745393,58.7588272 L135.745393,154.589254 C135.745393,157.637534 133.592567,161.352077 130.93679,162.885601 L5.10423005,235.339017 C2.44845318,236.872541 0.295325051,235.645056 0.295325051,232.596775 L0.295325051,136.766046 C0.295325051,133.717766 2.44845318,130.003223 5.10423005,128.469699 L130.93679,56.016283 Z"
                              id="Fill-25" fill="#FFFFFF" opacity="0.282714844"></path>
                        <path d="M147.928618,66.8323808 C150.584092,65.2985539 152.73722,66.5266446 152.73722,69.574925 L152.73722,165.405351 C152.73722,168.453934 150.584092,172.168477 147.928618,173.702002 L22.0960575,246.155417 C19.4402806,247.688941 17.2871525,246.461153 17.2871525,243.412873 L17.2871525,147.582144 C17.2871525,144.534166 19.4402806,140.819623 22.0960575,139.285797 L147.928618,66.8323808 Z"
                              id="Fill-27" fill="#FFFFFF" opacity="0.592238653"></path>
                        <path d="M169.212509,76.8958227 C171.868285,75.3619959 174.021111,76.5897839 174.021111,79.6383669 L174.021111,175.468793 C174.021111,178.517376 171.868285,182.231617 169.212509,183.765443 L43.3799484,256.218859 C40.7241716,257.752383 38.5713461,256.524898 38.5713461,253.476315 L38.5713461,157.645586 C38.5713461,154.597608 40.7241716,150.882763 43.3799484,149.349239 L169.212509,76.8958227 Z"
                              id="Fill-29" fill="#FFFFFF"></path>
                        <path d="M112.276568,150.695658 L57.6058763,182.269425 C57.0112316,182.612697 56.5291609,182.248235 56.5291609,181.455138 C56.5291609,180.66204 57.0112316,179.740593 57.6058763,179.397019 L112.276568,147.823555 C112.871213,147.47998 113.353586,147.844744 113.353586,148.637842 C113.353586,149.43094 112.871213,150.352386 112.276568,150.695658"
                              id="Fill-31" fill="#6491FB"></path>
                        <path d="M144.424269,132.129603 L120.63122,145.870778 C120.036878,146.21405 119.554505,145.849589 119.554505,145.056491 C119.554505,144.263393 120.036878,143.341947 120.63122,142.998372 L144.424269,129.257499 C145.018914,128.913924 145.500985,129.278689 145.500985,130.071787 C145.500985,130.864884 145.018914,131.786331 144.424269,132.129603"
                              id="Fill-33" fill="#FF9999"></path>
                        <path d="M112.130434,159.084453 L83.3944199,175.680175 C82.7997753,176.02375 82.3174019,175.659288 82.3174019,174.86619 C82.3174019,174.073093 82.7997753,173.151646 83.3944199,172.808071 L112.130434,156.212349 C112.725079,155.868775 113.207149,156.233539 113.207149,157.026637 C113.207149,157.819735 112.725079,158.741181 112.130434,159.084453"
                              id="Fill-35" fill="#FF9999"></path>
                        <path d="M76.9126418,179.423596 L57.6059065,190.573885 C57.0112619,190.917157 56.5291912,190.552695 56.5291912,189.759598 C56.5291912,188.966197 57.0112619,188.044751 57.6059065,187.701479 L76.9126418,176.551493 C77.5072865,176.207918 77.9896598,176.57238 77.9896598,177.365478 C77.9896598,178.158575 77.5072865,179.080022 76.9126418,179.423596"
                              id="Fill-37" fill="#FF9999"></path>
                        <path d="M144.278135,140.518398 L120.485086,154.259573 C119.890441,154.602845 119.40837,154.238081 119.40837,153.445286 C119.40837,152.651885 119.890441,151.730742 120.485086,151.387167 L144.278135,137.646294 C144.87278,137.302719 145.35485,137.667484 145.35485,138.460581 C145.35485,139.253679 144.87278,140.175126 144.278135,140.518398"
                              id="Fill-39" fill="#A69CFB"></path>
                        <path d="M92.5313091,145.490334 L57.605846,165.660747 C57.0112014,166.004019 56.5291306,165.639557 56.5291306,164.84646 L56.5291306,164.846157 C56.5291306,164.053362 57.0112014,163.131613 57.605846,162.788341 L92.5313091,142.61823 C93.1259538,142.274655 93.6080245,142.63942 93.6080245,143.432517 C93.6080245,144.225615 93.1259538,145.147061 92.5313091,145.490334"
                              id="Fill-41" fill="#6491FB"></path>
                        <path d="M113.508164,133.375614 L98.7310169,141.909891 C98.1363722,142.253163 97.6543015,141.888701 97.6543015,141.095603 C97.6543015,140.302203 98.1363722,139.381059 98.7310169,139.037484 L113.508164,130.50351 C114.102808,130.160238 114.584879,130.5247 114.584879,131.317798 C114.584879,132.110895 114.102808,133.032342 113.508164,133.375614"
                              id="Fill-43" fill="#A69CFB"></path>
                        <path d="M155.854913,108.919445 L120.243717,129.485802 C119.649073,129.829074 119.167002,129.464613 119.167002,128.671212 C119.167002,127.878417 119.649073,126.956971 120.243717,126.613699 L155.854913,106.047342 C156.449558,105.703767 156.931629,106.068531 156.931629,106.861629 C156.931629,107.654727 156.449558,108.576173 155.854913,108.919445"
                              id="Fill-45" fill="#94F2B5"></path>
                        <path d="M120.929692,187.220444 L155.854853,167.05003 C156.449497,166.706455 156.931568,165.785009 156.931568,164.992214 C156.931568,164.198814 156.449497,163.834352 155.854853,164.177927 L120.929692,184.348037 C120.335048,184.691612 119.852674,185.612756 119.852674,186.406156 C119.852674,187.199254 120.335048,187.563716 120.929692,187.220444"
                              id="Fill-47" fill="#6491FB"></path>
                        <path d="M99.9527166,199.334709 L114.729561,190.801038 C115.324205,190.457463 115.806579,189.536017 115.806579,188.742919 C115.806579,187.949821 115.324205,187.585359 114.729561,187.928329 L99.9527166,196.462908 C99.358072,196.805878 98.8760012,197.727324 98.8760012,198.520725 C98.8760012,199.313822 99.358072,199.678284 99.9527166,199.334709"
                              id="Fill-49" fill="#94F2B5"></path>
                        <path d="M57.6058158,223.79118 L93.2170116,203.225126 C93.8116563,202.881551 94.293727,201.960105 94.293727,201.167007 C94.293727,200.37391 93.8116563,200.009448 93.2170116,200.35272 L57.6058158,220.919077 C57.0111711,221.262349 56.5291004,222.183795 56.5291004,222.976893 C56.5291004,223.770294 57.0111711,224.134755 57.6058158,223.79118"
                              id="Fill-51" fill="#FF9999"></path>
                        <path d="M79.9834595,161.041286 L57.6057552,173.964844 C57.0111106,174.308721 56.5290399,173.943957 56.5290399,173.150556 C56.5290399,172.357459 57.0111106,171.436012 57.6057552,171.093043 L79.9834595,158.169182 C80.5784067,157.825607 81.0604774,158.190371 81.0604774,158.983469 C81.0604774,159.776567 80.5784067,160.698013 79.9834595,161.041286"
                              id="Fill-53" fill="#A69CFB"></path>
                        <path d="M128.030869,133.292853 L84.8191159,158.248492 C84.2244712,158.592066 83.7424005,158.227605 83.7424005,157.434507 C83.7424005,156.641106 84.2244712,155.719963 84.8191159,155.376388 L128.030869,130.42075 C128.625514,130.077175 129.107585,130.441939 129.107585,131.235037 C129.107585,132.028135 128.625514,132.949581 128.030869,133.292853"
                              id="Fill-55" fill="#94F2B5"></path>
                        <path d="M159.865784,114.907545 L132.798709,130.539442 C132.204064,130.882714 131.721994,130.518252 131.721994,129.725154 C131.721994,128.932057 132.204064,128.01061 132.798709,127.667338 L159.865784,112.035139 C160.460429,111.691867 160.942499,112.056631 160.942499,112.849427 L160.942499,112.849729 C160.942499,113.642827 160.460429,114.564273 159.865784,114.907545"
                              id="Fill-57" fill="#6491FB"></path>
                        <path d="M137.487989,183.089524 L159.865693,170.165966 C160.460338,169.822694 160.942409,170.187156 160.942409,170.979951 C160.942409,171.773351 160.460338,172.694495 159.865693,173.03807 L137.487989,185.961628 C136.893344,186.305203 136.410971,185.940438 136.410971,185.147643 C136.410971,184.354243 136.893344,183.433099 137.487989,183.089524"
                              id="Fill-59" fill="#94F2B5"></path>
                        <path d="M89.4407003,210.837957 L132.652454,185.882318 C133.247098,185.538743 133.729169,185.903205 133.729169,186.696303 C133.729169,187.489401 133.247098,188.410847 132.652454,188.754422 L89.4407003,213.71006 C88.8460556,214.053635 88.3639849,213.689173 88.3639849,212.896076 C88.3639849,212.102978 88.8460556,211.181531 89.4407003,210.837957"
                              id="Fill-61" fill="#FFC99C"></path>
                        <path d="M57.6058158,229.223386 L84.6728908,213.591186 C85.2678381,213.248217 85.7496062,213.612679 85.7496062,214.405777 C85.7496062,215.198874 85.2678381,216.120321 84.6728908,216.463896 L57.6058158,232.095489 C57.0111711,232.438761 56.5291004,232.0743 56.5291004,231.281202 C56.5291004,230.488104 57.0111711,229.56696 57.6058158,229.223386"
                              id="Fill-63" fill="#A69CFB"></path>
                        <path d="M112.276568,183.913105 L57.6058763,215.486872 C57.0112316,215.830144 56.5291609,215.465682 56.5291609,214.672584 C56.5291609,213.879487 57.0112316,212.95804 57.6058763,212.614465 L112.276568,181.041001 C112.871213,180.697427 113.353586,181.062191 113.353586,181.854986 L113.353586,181.855289 C113.353586,182.648386 112.871213,183.569833 112.276568,183.913105"
                              id="Fill-65" fill="#FFC99C"></path>
                        <path d="M144.424269,165.34705 L120.63122,179.088225 C120.036878,179.431497 119.554505,179.066733 119.554505,178.273938 C119.554505,177.480537 120.036878,176.559394 120.63122,176.215819 L144.424269,162.474946 C145.018914,162.131371 145.500985,162.496136 145.500985,163.289233 C145.500985,164.082331 145.018914,165.003778 144.424269,165.34705"
                              id="Fill-67" fill="#FF9999"></path>
                        <path d="M79.9834595,194.258702 L57.6057552,207.18226 C57.0111106,207.525835 56.5290399,207.161071 56.5290399,206.368276 C56.5290399,205.574875 57.0111106,204.653731 57.6057552,204.310157 L79.9834595,191.386598 C80.5784067,191.043326 81.0604774,191.407788 81.0604774,192.200886 C81.0604774,192.993984 80.5784067,193.915127 79.9834595,194.258702"
                              id="Fill-69" fill="#94F2B5"></path>
                        <path d="M128.030869,166.51027 L84.8191159,191.465908 C84.2244712,191.809483 83.7424005,191.445021 83.7424005,190.651923 C83.7424005,189.858826 84.2244712,188.937379 84.8191159,188.593804 L128.030869,163.638166 C128.625514,163.294591 129.107585,163.659356 129.107585,164.452453 C129.107585,165.245551 128.625514,166.166695 128.030869,166.51027"
                              id="Fill-71" fill="#6491FB"></path>
                        <path d="M159.865784,148.124992 L132.798709,163.756889 C132.204064,164.100161 131.721994,163.735699 131.721994,162.942601 C131.721994,162.149503 132.204064,161.228057 132.798709,160.884482 L159.865784,145.252889 C160.460429,144.909314 160.942499,145.274078 160.942499,146.067176 C160.942499,146.860274 160.460429,147.781417 159.865784,148.124992"
                              id="Fill-73" fill="#94F2B5"></path>
                        <path d="M75.8008832,188.370072 L57.6059671,198.878012 C57.0113224,199.221587 56.5289491,198.857125 56.5289491,198.063725 C56.5289491,197.270627 57.0113224,196.349181 57.6059671,196.005908 L75.8008832,185.497969 C76.3955279,185.154394 76.8775986,185.518855 76.8775986,186.312256 C76.8775986,187.105051 76.3955279,188.026497 75.8008832,188.370072"
                              id="Fill-75" fill="#A69CFB"></path>
                        <path d="M115.655603,165.352952 L80.1790718,185.841513 C79.5844272,186.185088 79.1023565,185.820323 79.1023565,185.027226 C79.1023565,184.234128 79.5844272,183.312682 80.1790718,182.969409 L115.655603,162.480849 C116.250247,162.137274 116.732318,162.502038 116.732318,163.295136 C116.732318,164.088234 116.250247,165.00968 115.655603,165.352952"
                              id="Fill-77" fill="#FF9999"></path>
                        <path d="M155.454156,142.368344 L119.977625,162.856904 C119.382981,163.200176 118.90091,162.835715 118.90091,162.04292 C118.90091,161.249519 119.382981,160.328375 119.977625,159.984801 L155.454156,139.49624 C156.048801,139.152665 156.530871,139.51743 156.530871,140.310527 C156.530871,141.103625 156.048801,142.024769 155.454156,142.368344"
                              id="Fill-79" fill="#FFC99C"></path>
                    </g>
                    <g id="Group-84" transform="translate(246.000000, 86.842816)">
                        <mask id="mask-17" fill="white">
                            <use xlink:href="#path-16"></use>
                        </mask>
                        <g id="Clip-83"></g>
                        <path d="M68.7788216,0.681946309 L3.081361,39.0261745 C1.46360166,39.9705705 0.151767635,42.2580201 0.151767635,44.1350336 L0.151767635,87.7901678 C0.151767635,89.6674832 1.46360166,90.4237248 3.081361,89.4793289 L68.7788216,51.1354027 C70.3971784,50.1907047 71.7087137,47.903557 71.7087137,46.0262416 L71.7087137,2.37110738 C71.7087137,1.04224832 71.051751,0.275134228 70.0939419,0.275436242 C69.69839,0.275436242 69.2514523,0.406208054 68.7788216,0.681946309"
                              id="Fill-82" fill="url(#linearGradient-18)" mask="url(#mask-17)"></path>
                    </g>
                    <g id="Group-87" transform="translate(257.000000, 138.842816)">
                        <mask id="mask-20" fill="white">
                            <use xlink:href="#path-19"></use>
                        </mask>
                        <g id="Clip-86"></g>
                        <path d="M6.74404545,0.5567 C4.74677273,1.70651667 3.16225,4.23731667 2.76368182,6.92645 C2.48654545,8.79668333 2.72379545,10.2657 3.33893182,11.4573167 C2.90993182,11.9924833 2.48772727,12.4845833 2.09270455,13.0175333 C1.248,14.1562667 0.520295455,15.3618167 0.23725,16.76655 C0.100159091,17.44485 0.175795455,17.8809 0.558113636,18.11745 C3.77886364,20.1013667 8.91829545,17.0366667 12.3115909,11.1298833 C12.9807955,9.96455 13.1607273,9.3898 12.6227045,8.36918333 C12.5045227,8.1453 12.33375,7.94611667 12.1219091,7.88278333 C11.3859318,7.66206667 10.621,7.5069 9.84336364,7.32006667 C10.4564318,4.63758333 10.5421136,3.93553333 10.40325,2.5935 C10.2366136,0.9861 9.41702273,0.0880333333 8.28159091,0.0880333333 C7.81477273,0.0880333333 7.29447727,0.239716667 6.74404545,0.5567 M4.86938636,10.1757667 C4.31540909,9.58328333 4.08938636,8.65133333 4.08525,7.50468333 C4.08465909,5.72375 4.76981818,3.97891667 5.8825,2.9336 C7.51577273,1.39808333 8.88047727,1.84965 9.02702273,4.03908333 C9.10886364,5.26236667 8.86068182,6.6253 8.25175,8.05916667 C7.59436364,9.60703333 6.56234091,10.55165 5.70109091,10.5519667 C5.39381818,10.5519667 5.10840909,10.4316333 4.86938636,10.1757667 M8.46359091,10.09185 C8.76140909,9.6463 9.01875,9.41893333 9.30504545,9.46326667 C9.96538636,9.56618333 10.6239545,9.67701667 11.2565227,9.8458 C11.4934773,9.90913333 11.4866818,10.18495 11.2281591,10.6450667 C8.63909091,15.2642833 4.10859091,17.9353667 1.58777273,16.2215667 C1.82945455,15.74625 2.04277273,15.22375 2.33320455,14.7832667 C2.73177273,14.1800167 3.18913636,13.6407333 3.62197727,13.0739 C4.0105,12.5647 4.32870455,12.36425 4.74175,12.4662167 C4.86731818,12.4975667 4.99790909,12.5127667 5.13204545,12.5127667 C6.18563636,12.5127667 7.47027273,11.5779667 8.46359091,10.09185"
                              id="Fill-85" fill="url(#linearGradient-21)" mask="url(#mask-20)"></path>
                    </g>
                    <g id="Group-90" transform="translate(254.000000, 133.842816)">
                        <mask id="mask-23" fill="white">
                            <use xlink:href="#path-22"></use>
                        </mask>
                        <g id="Clip-89"></g>
                        <path d="M8.93105085,1.50798529 C8.52437288,1.78191176 8.11342373,2.02680882 7.7119322,2.33563235 C3.46240678,5.60236765 0.490271186,11.0166618 0.121118644,16.2027353 C-0.00244067797,17.9451176 0.258101695,19.4188235 0.873457627,20.5766029 C0.979322034,20.7751765 1.36494915,20.8026618 1.61542373,20.6491765 C1.8280678,20.5176176 2.11118644,20.0058971 2.21491525,19.6732941 C2.2960678,19.4123382 2.1859322,19.1313088 2.09928814,18.9228529 C1.60657627,17.7348088 1.42932203,16.3225588 1.6779661,14.6184706 C2.19111864,11.0963382 3.75742373,7.91391176 6.40586441,5.24722059 C9.07535593,2.55829412 11.5547797,1.68 13.7208814,2.54779412 C16.0218305,3.46932353 16.9233559,6.84692647 15.6651864,11.1031324 C15.4314915,11.8946471 15.588,12.3121765 16.0279322,12.2325 C16.4538305,12.1556029 16.8019322,11.6994706 17.0298305,10.9206176 C18.8667458,4.64810294 16.7711186,0.29925 12.8471186,0.298941176 C11.6841356,0.298632353 10.360678,0.680647059 8.93105085,1.50798529"
                              id="Fill-88" fill="url(#linearGradient-24)" mask="url(#mask-23)"></path>
                    </g>
                    <g id="Group-99" transform="translate(277.000000, 115.842816)">
                        <g id="Group-94">
                            <path d="M0.03669,17.6701388 L29.87709,0.291926609" id="Fill-91" fill="#6491FB"></path>
                            <path d="M0.03669,17.6701388 L29.87709,0.291926609" id="Stroke-93" stroke="#B9D8F9" stroke-width="1.4" stroke-linecap="round" stroke-linejoin="round"></path>
                        </g>
                        <g id="Group-98" transform="translate(0.300000, 21.182609)">
                            <path d="M0.25377,6.58591513 L11.23857,0.188767304" id="Fill-95" fill="#6491FB"></path>
                            <path d="M0.25377,6.58591513 L11.23857,0.188767304" id="Stroke-97" stroke="#B6D7F9" stroke-width="1.4" stroke-linecap="round" stroke-linejoin="round"></path>
                        </g>
                    </g>
                    <g id="Group-102" transform="translate(250.000000, 150.842816)">
                        <mask id="mask-26" fill="white">
                            <use xlink:href="#path-25"></use>
                        </mask>
                        <g id="Clip-101"></g>
                        <path d="M68.8382739,0.624563758 L3.14111203,38.9684899 C1.52305394,39.9128859 0.210921162,42.2000336 0.210921162,44.077651 L0.210921162,87.7327852 C0.210921162,89.6097987 1.52305394,90.3660403 3.14111203,89.4216443 L68.8382739,51.0777181 C70.4431867,50.1408725 71.7469544,47.8833221 71.768166,46.0150671 L71.768166,2.26721477 C71.7529295,0.96704698 71.1001494,0.217751678 70.1533942,0.217751678 C69.7578423,0.217751678 69.3112033,0.34852349 68.8382739,0.624563758"
                              id="Fill-100" fill="url(#linearGradient-27)" mask="url(#mask-26)"></path>
                    </g>
                    <g id="Group-105" transform="translate(259.000000, 202.842816)">
                        <mask id="mask-29" fill="white">
                            <use xlink:href="#path-28"></use>
                        </mask>
                        <g id="Clip-104"></g>
                        <path d="M6.80284091,0.451508475 C4.80556818,1.49772881 3.22134091,3.80050847 2.82277273,6.24735593 C2.54534091,7.94908475 2.78229545,9.2860339 3.39772727,10.3702881 C2.96872727,10.8569492 2.54652273,11.3047119 2.1515,11.7899322 C1.30709091,12.8260678 0.579090909,13.9227119 0.296045455,15.2005932 C0.158954545,15.8183559 0.234590909,16.2148305 0.616909091,16.4297797 C3.83765909,18.2352373 8.97709091,15.446661 12.3703864,10.0720678 C13.0395909,9.01201695 13.2192273,8.48905085 12.6815,7.56010169 C12.5636136,7.35638983 12.39225,7.17515254 12.1807045,7.11723729 C11.4447273,6.91698305 10.6800909,6.77550847 9.90215909,6.60579661 C10.5155227,4.16471186 10.6006136,3.52562712 10.46175,2.30479661 C10.2957045,0.841932203 9.47581818,0.0253559322 8.34038636,0.0253559322 C7.87327273,0.0250677966 7.35327273,0.163372881 6.80284091,0.451508475 M4.92818182,9.20391525 C4.3745,8.66538983 4.14818182,7.81683051 4.14434091,6.77377966 C4.14345455,5.15330508 4.82831818,3.56567797 5.94129545,2.61454237 C7.57456818,1.21737288 8.93927273,1.62767797 9.08552273,3.62013559 C9.16765909,4.73349153 8.91918182,5.97362712 8.31054545,7.27801695 C7.65315909,8.68642373 6.62143182,9.5459322 5.76018182,9.54622034 C5.45290909,9.54622034 5.16720455,9.43672881 4.92818182,9.20391525 M8.52209091,9.12784746 C8.81990909,8.72244068 9.07754545,8.51527119 9.36413636,8.55589831 C10.0238864,8.64954237 10.6824545,8.75067797 11.3153182,8.90367797 C11.5519773,8.96130508 11.5454773,9.21227119 11.2869545,9.6309322 C8.69788636,13.8342542 4.16738636,16.2643898 1.64656818,14.705 C1.88854545,14.2730847 2.10127273,13.7970847 2.392,13.3962881 C2.79056818,12.847678 3.24822727,12.3566949 3.68047727,11.8412203 C4.069,11.3776102 4.38779545,11.1955085 4.80025,11.288 C4.92611364,11.3165254 5.057,11.3303559 5.19113636,11.3303559 C6.24502273,11.3303559 7.52906818,10.4800678 8.52209091,9.12784746"
                              id="Fill-103" fill="url(#linearGradient-30)" mask="url(#mask-29)"></path>
                    </g>
                    <g id="Group-108" transform="translate(256.000000, 197.842816)">
                        <mask id="mask-32" fill="white">
                            <use xlink:href="#path-31"></use>
                        </mask>
                        <g id="Clip-107"></g>
                        <path d="M8.99145763,1.40059701 C8.58508475,1.66567164 8.17413559,1.90208955 7.77264407,2.20089552 C3.52311864,5.35791045 0.550983051,10.5913433 0.181830508,15.6044776 C0.0582711864,17.2886567 0.318508475,18.7128358 0.934169492,19.8322388 C1.0400339,20.0241791 1.42535593,20.0507463 1.67613559,19.9023881 C1.88877966,19.7755224 2.17189831,19.280597 2.27562712,18.9591045 C2.35677966,18.7071642 2.24664407,18.4352239 2.16,18.2337313 C1.66759322,17.0853731 1.4900339,15.7202985 1.73837288,14.0731343 C2.25152542,10.6686567 3.81813559,7.59313433 6.46627119,5.01492537 C9.1360678,2.4161194 11.6154915,1.56716418 13.7815932,2.40537313 C16.0822373,3.29671642 16.9840678,6.56119403 15.7258983,10.6755224 C15.4918983,11.4402985 15.6484068,11.8441791 16.0886441,11.7671642 C16.5148475,11.6928358 16.8626441,11.2516418 17.0902373,10.498806 C18.9271525,4.4358209 16.8318305,0.232238806 12.9078305,0.231940299 C11.7445424,0.231940299 10.4210847,0.60119403 8.99145763,1.40059701"
                              id="Fill-106" fill="url(#linearGradient-33)" mask="url(#mask-32)"></path>
                    </g>
                    <g id="Group-117" transform="translate(279.000000, 179.842816)">
                        <g id="Group-112">
                            <path d="M0.0963,17.6125221 L29.9367,0.234309913" id="Fill-109" fill="#6491FB"></path>
                            <path d="M0.0963,17.6125221 L29.9367,0.234309913" id="Stroke-111" stroke="#B9D8F9" stroke-width="1.4" stroke-linecap="round" stroke-linejoin="round"></path>
                        </g>
                        <g id="Group-116" transform="translate(0.600000, 21.182609)">
                            <path d="M0.01353,6.52829843 L10.99803,0.131150609" id="Fill-113" fill="#6491FB"></path>
                            <path d="M0.01353,6.52829843 L10.99803,0.131150609" id="Stroke-115" stroke="#B6D7F9" stroke-width="1.4" stroke-linecap="round" stroke-linejoin="round"></path>
                        </g>
                    </g>
                </g>
            </g>
        </g>
    </g>
</svg>