<svg width="21px" height="40px" viewBox="0 0 21 40" version="1.1" xmlns="http://www.w3.org/2000/svg">
    <g id="Welcome" stroke="none" stroke-width="1" fill="none" fill-rule="evenodd">
        <g id="Home" transform="translate(-784.000000, -669.000000)">
            <g id="Cactus" transform="translate(784.000000, 669.000000)">
                <ellipse id="Oval" fill="#000000" opacity="0.1" transform="translate(12.548001, 34.878360) rotate(-87.190000) translate(-12.548001, -34.878360) " cx="12.5480011" cy="34.8783601" rx="4.32799069" ry="7.71631868"></ellipse>
                <path d="M19,26.5554061 L16.303675,35.1768002 C16.1342062,35.8582162 15.5853296,36.5174122 14.6570451,37.0408187 C12.3805981,38.324646 8.6674602,38.3197082 6.37330754,37.0260053 C5.47790507,36.5322256 4.9315578,35.8977186 4.73173635,35.2483983 L2,26.4813392 C2,26.4813392 13.2279423,25 13.344294,25 C13.4606457,25 17.1029609,25.5727845 17.221842,25.5727845 C17.3407231,25.5727845 19,26.5554061 19,26.5554061 Z"
                      id="Path" fill="#AFADCA"></path>
                <path d="M19,27.0049023 C19,28.2857062 18.1842982,29.5639788 16.5280255,30.5486283 C13.2204541,32.4926152 7.83881148,32.4824902 4.50885795,30.5258472 C2.73321432,29.4829793 1.90010422,28.0983949 2.00952763,26.7289979 L2.00952763,25.0204158 L2.60389574,25.0204158 L2.60389574,25.1140714 C3.09893533,24.4275471 3.73663111,23.8605877 4.47155451,23.4535826 C7.77912598,21.5070646 13.1607686,21.5171895 16.4907221,23.4738325 C17.2613456,23.8997826 17.9257832,24.4998651 18.4329877,25.2279769 L18.4329877,25.0381344 L19,25.0381344 L19,27.0049023 Z"
                      id="Path" fill="#AFADCA"></path>
                <ellipse id="Oval" fill="#918FAE" transform="translate(10.440012, 25.258831) rotate(-89.690000) translate(-10.440012, -25.258831) " cx="10.4400121" cy="25.2588313" rx="4.97038745" ry="8.61063573"></ellipse>
                <path d="M18,25.5355273 C17.9900246,26.0931599 17.8125681,26.6336545 17.4923878,27.081606 L17.4517788,27.1421849 C17.0082979,27.7357552 16.4508395,28.2272566 15.8147295,28.5855428 C14.9803097,29.0709088 14.0814711,29.4259104 13.1472274,29.6390888 C12.1327093,29.8823006 11.0945627,30.0033791 10.0533311,29.9999283 C9.00010512,30.0029411 7.95004715,29.8800964 6.92390197,29.6338211 C5.97659288,29.4136896 5.06518828,29.051692 4.21832898,28.5592042 C3.56658781,28.1912926 2.99604249,27.686229 2.54320875,27.0763382 L2.51275202,27.0289287 C1.82908266,26.1134287 1.82908266,24.8338342 2.51275202,23.9183342 C2.96095564,23.2973748 3.53325353,22.7843383 4.19041031,22.4143974 C5.02534389,21.9301728 5.92401628,21.5752368 6.85791238,21.3608514 C8.90644882,20.8797162 11.0327014,20.8797162 13.0812379,21.3608514 C14.0286725,21.5818477 14.9400783,21.944733 15.7868108,22.4381021 C16.4553285,22.8129866 17.0372987,23.3342425 17.4923878,23.9657438 C17.8163238,24.420661 17.9939334,24.9699161 18,25.5355273 Z"
                      id="Path" fill="#918FAE"></path>
                <path d="M18,27.0273973 C17.5548659,27.6448647 16.9948094,28.1561653 16.3554648,28.5287671 C15.5150209,29.0336374 14.6098291,29.4028995 13.6690501,29.6246575 C12.8574406,29.827029 12.0297581,29.9462854 11.1971399,29.9808219 C10.985189,29.9808219 10.7706844,30 10.5561798,30 C10.4310521,30 10.3008172,30 10.1833504,30 C9.24865508,29.9778153 8.31853648,29.8529627 7.40755873,29.6273973 C6.45410193,29.3996224 5.53694841,29.0230098 4.68539326,28.509589 C4.02965514,28.1268902 3.45561084,27.601527 3,26.9671233 C3.44684419,26.3503566 4.00758147,25.8392281 4.64708887,25.4657534 C5.48732841,24.9624935 6.39145237,24.5933162 7.33094995,24.369863 C8.26677796,24.1380537 9.22299335,24.0140639 10.1833504,24 C10.2727273,24 10.3595506,24 10.438713,24 C10.6940756,24 10.9494382,24 11.1894791,24.0219178 C11.9961769,24.0659709 12.7976996,24.1860684 13.5847804,24.3808219 C14.5387791,24.6081978 15.4567076,24.9838523 16.3094995,25.4958904 C16.9658061,25.8752324 17.5414761,26.39676 18,27.0273973 Z"
                      id="Path" fill="#918FAE"></path>
                <path d="M19.9864687,20.9640025 C19.7336321,25.7956147 16.3607915,28.0086433 14.424063,28.4993148 C13.2252045,28.8079138 11.9938753,28.9759611 10.7554035,29 C10.3508649,29 9.94632635,29 9.53925939,28.9749657 C6.5052199,28.7897122 3.57231506,27.6857013 1.57490573,25.4927001 C0.472538052,24.2785385 0.133736976,22.6638287 0.0199604955,21.0791601 C-0.160396296,18.5757341 1.6704924,12.4473472 5.51262658,2.69399938 C6.17929325,0.897999793 7.67572407,0 10.001919,0 C12.328114,0 13.9049822,0.897999793 14.7325236,2.69399938 C18.3784278,12.0317784 20.1297428,18.1217795 19.9864687,20.9640025 Z"
                      id="Path" fill="#12DDD0"></path>
                <path d="M10.0009415,23.981106 L10.0009415,24.018894 C9.99843078,24.0064231 9.99843078,23.9935769 10.0009415,23.981106 Z" id="Path" fill="#474747"></path>
            </g>
        </g>
    </g>
</svg>