<svg width="197px" height="158px" viewBox="0 0 197 158" version="1.1" xmlns="http://www.w3.org/2000/svg" xmlns:xlink="http://www.w3.org/1999/xlink">
    <defs>
        <polygon id="path-1" points="0.244505418 0.0804135189 181.328892 0.0804135189 181.328892 148.095782 0.244505418 148.095782"></polygon>
        <path d="M0,21.8665 L0,52.1770254 L0.00722743056,57.7395678 C0.151147569,60.9334831 2.39793576,64.6980763 5.15472917,66.2862542 L175.721462,165.276932 C178.56687,166.916534 180.876505,165.607424 180.876505,162.348915 L180.876505,126.797246 C180.876505,123.538424 178.56687,119.568763 175.721462,117.929475 L5.15472917,18.9384831 C4.321375,18.4581102 3.53421354,18.2307797 2.83786632,18.2304661 C1.15356076,18.2304661 0,19.5612119 0,21.8665"
              id="path-3"></path>
        <linearGradient x1="99.9997976%" y1="50.0000499%" x2="0%" y2="50.0000499%" id="linearGradient-5">
            <stop stop-color="#E4EDF6" offset="0%"></stop>
            <stop stop-color="#EFF4F9" offset="100%"></stop>
        </linearGradient>
    </defs>
    <g id="Welcome" stroke="none" stroke-width="1" fill="none" fill-rule="evenodd">
        <g id="Home" transform="translate(-684.000000, -236.000000)">
            <g id="Group-88" transform="translate(99.000000, 227.000000)">
                <g id="Group-33" transform="translate(585.000000, 0.000000)">
                    <g id="Group-20">
                        <g id="Group-9">
                            <g id="Group-6" transform="translate(15.000000, 0.000000)">
                                <path d="M0.0833684196,13.492132 L0.0833684196,49.1068398 C0.0833684196,52.371126 2.39125795,56.345627 5.24403089,57.9903348 L176.007093,157.156852 C178.856091,158.799047 181.167755,157.487615 181.167755,154.223329 L181.167755,118.608307 C181.167755,115.344021 178.856091,111.367321 176.007093,109.724812 L5.24403089,10.5586091 C2.39125795,8.91390139 0.0833684196,10.2278457 0.0833684196,13.492132"
                                      id="Fill-1" fill="#3D6DD1" opacity="0.0700799851"></path>
                                <g id="Group-5" transform="translate(16.359086, 0.000000)">
                                    <mask id="mask-2" fill="white">
                                        <use xlink:href="#path-1"></use>
                                    </mask>
                                    <g id="Clip-4"></g>
                                </g>
                            </g>
                            <mask id="mask-4" fill="white">
                                <use xlink:href="#path-3"></use>
                            </mask>
                            <g id="Clip-8"></g>
                            <path d="M0,21.8665 L0,52.1770254 L0.00722743056,57.7395678 C0.151147569,60.9334831 2.39793576,64.6980763 5.15472917,66.2862542 L175.721462,165.276932 C178.56687,166.916534 180.876505,165.607424 180.876505,162.348915 L180.876505,126.797246 C180.876505,123.538424 178.56687,119.568763 175.721462,117.929475 L5.15472917,18.9384831 C4.321375,18.4581102 3.53421354,18.2307797 2.83786632,18.2304661 C1.15356076,18.2304661 0,19.5612119 0,21.8665"
                                  id="Fill-7" fill="url(#linearGradient-5)" mask="url(#mask-4)"></path>
                        </g>
                        <path d="M139.976278,97.4922168 L139.976278,144.881974 L175.753073,165.577352 C178.589419,167.218408 180.891385,165.908137 180.891385,162.646425 L180.891385,127.06323 C180.891385,123.801832 178.589419,119.82865 175.753073,118.187595 L139.976278,97.4922168 Z"
                              id="Fill-10" fill="#3C5A99"></path>
                        <path d="M18.3599184,46.0166106 L126.847396,109.499007 C128.628765,110.529649 130.07278,109.435926 130.07278,107.056097 C130.07278,104.676268 128.628765,101.911989 126.847396,100.881347 L18.3599184,37.3989501 C16.5785493,36.3683081 15.1345346,37.4620314 15.1345346,39.8418602 C15.1345346,42.221689 16.5785493,44.9859686 18.3599184,46.0166106"
                              id="Fill-12" fill="#CFD9E6"></path>
                        <path d="M60.2349353,87.0444137 L126.84724,126.3039 C128.628922,127.334228 130.072624,126.240505 130.072624,123.86099 L130.072624,123.860676 C130.072624,121.481161 128.628922,118.716568 126.84724,117.685926 L60.2349353,78.4267532 C58.4535662,77.3961113 57.0095515,78.4898345 57.0095515,80.8696633 C57.0095515,83.2494922 58.4535662,86.0137718 60.2349353,87.0444137"
                              id="Fill-14" fill="#CFD9E6"></path>
                        <g id="flaticon1543680484-svg" transform="translate(160.000000, 134.000000) scale(-1, 1) translate(-160.000000, -134.000000) translate(153.000000, 121.000000)" fill="#FFFFFF">
                            <path d="M12.8321559,0.00536590874 L9.7371153,0 C6.26003576,0 4.0512054,2.49112313 4.11034734,6.34679686 L4.15523365,9.27309519 L1.04339147,9.27309519 C0.774491358,9.27309519 0.560352668,9.50865859 0.564809611,9.79922254 L0.629844759,14.0390953 C0.634301701,14.3296593 0.855911152,14.5649544 1.12456297,14.5649544 L4.23640515,14.5649544 L4.40050953,25.2635032 C4.40496648,25.5540672 4.62632764,25.7893623 4.89522775,25.7893623 L8.95529663,25.7893623 C9.22419674,25.7893623 9.43833543,25.5537989 9.4338826,25.2635032 L9.26977822,14.5649544 L12.9082475,14.5649544 C13.1771476,14.5649544 13.3912904,14.3296593 13.3868335,14.0390953 L13.3232881,9.79922254 C13.3211481,9.65970892 13.2677022,9.52609779 13.1750646,9.42736507 C13.082427,9.32863235 12.9574292,9.27309519 12.8283174,9.27309519 L9.18860672,9.27309519 L9.15055603,6.79243558 C9.13226734,5.60013066 9.38592418,4.99485615 10.8232859,4.99485615 L12.9081805,4.99405127 C13.1768323,4.99405127 13.390971,4.75848787 13.3865182,4.46819221 L13.3261293,0.531224965 C13.3216806,0.241197598 13.1005677,0.00590249962 12.8321559,0.00536590874 Z"
                                  id="Path"></path>
                        </g>
                    </g>
                </g>
            </g>
        </g>
    </g>
</svg>