<svg width="196px" height="157px" viewBox="0 0 196 157" version="1.1" xmlns="http://www.w3.org/2000/svg" xmlns:xlink="http://www.w3.org/1999/xlink">
    <defs>
        <path d="M0.27887175,3.88280508 L0.27887175,39.4347881 C0.27887175,42.6929831 2.58011265,46.6607627 5.42466724,48.3022458 L175.695477,147.292924 C178.536267,148.932839 180.841586,147.623415 180.841586,144.364907 L180.841586,108.813237 C180.841586,105.554729 178.536267,101.584754 175.695477,99.9451525 L138.901972,78.5544492 L122.457322,68.9940254 L5.42466724,0.954474576 C4.59275737,0.474415254 3.80664645,0.246771186 3.11181976,0.246771186 C1.43043328,0.246457627 0.27887175,1.57720339 0.27887175,3.88280508"
              id="path-1"></path>
        <linearGradient x1="99.9999355%" y1="49.9999835%" x2="-3.58057421e-05%" y2="49.9999835%" id="linearGradient-3">
            <stop stop-color="#E4EDF6" offset="0%"></stop>
            <stop stop-color="#EFF4F9" offset="100%"></stop>
        </linearGradient>
    </defs>
    <g id="Welcome" stroke="none" stroke-width="1" fill="none" fill-rule="evenodd">
        <g id="Home" transform="translate(-712.000000, -430.000000)">
            <g id="Group-88" transform="translate(99.000000, 227.000000)">
                <g id="Group-33" transform="translate(585.000000, 0.000000)">
                    <g id="Group-92" transform="translate(28.000000, 202.000000)">
                        <path d="M15.0231443,4.63593723 L15.0231443,40.2194465 C15.0231443,43.4808445 17.3210384,47.4518288 20.161456,49.0950813 L190.18526,148.173541 C193.021606,149.814596 195.323259,148.504011 195.323259,145.242613 L195.323259,109.659418 C195.323259,106.397706 193.021606,102.424525 190.18526,100.783783 L20.161456,1.70500999 C17.3210384,0.0620713267 15.0231443,1.37453923 15.0231443,4.63593723"
                              id="Fill-16" fill="#3D6DD1" opacity="0.0794503348"></path>
                        <g id="Group-23" transform="translate(0.000000, 9.000000)">
                            <mask id="mask-2" fill="white">
                                <use xlink:href="#path-1"></use>
                            </mask>
                            <g id="Clip-22"></g>
                            <path d="M0.27887175,3.88280508 L0.27887175,39.4347881 C0.27887175,42.6929831 2.58011265,46.6607627 5.42466724,48.3022458 L175.695477,147.292924 C178.536267,148.932839 180.841586,147.623415 180.841586,144.364907 L180.841586,108.813237 C180.841586,105.554729 178.536267,101.584754 175.695477,99.9451525 L138.901972,78.5544492 L122.457322,68.9940254 L5.42466724,0.954474576 C4.59275737,0.474415254 3.80664645,0.246771186 3.11181976,0.246771186 C1.43043328,0.246457627 0.27887175,1.57720339 0.27887175,3.88280508"
                                  id="Fill-21" fill="url(#linearGradient-3)" mask="url(#mask-2)"></path>
                        </g>
                        <g id="Group-32" transform="translate(14.000000, 27.000000)">
                            <path d="M126,61 L126,108.645947 L161.98913,129.453204 C164.842309,131.103131 167.157938,129.785777 167.157938,126.506432 L167.157938,90.7308738 C167.157938,87.4518447 164.842309,83.4571845 161.98913,81.8072573 L126,61 Z"
                                  id="Fill-24" fill="#EC899E"></path>
                            <path d="M3.34475792,9.08166748 L112.476107,72.90725 C114.268048,73.9434636 115.720633,72.8435121 115.720633,70.4511335 C115.720633,68.0584393 114.268048,65.2789005 112.476107,64.2426869 L3.34475792,0.417419903 C1.55281642,-0.618793689 0.100231509,0.480842233 0.100231509,2.87353641 C0.100231509,5.26623058 1.55281642,8.04545388 3.34475792,9.08166748"
                                  id="Fill-26" fill="#CFD9E6"></path>
                            <path d="M45.4686489,50.3311092 L112.475981,89.8028325 C114.268238,90.8387306 115.720507,89.7390947 115.720507,87.346716 C115.720507,84.9540218 114.268238,82.174483 112.475981,81.138585 L45.4686489,41.6668617 C43.6767074,40.6306481 42.2238074,41.7305995 42.2238074,44.1229782 C42.2238074,46.5156723 43.6767074,49.2952112 45.4686489,50.3311092"
                                  id="Fill-28" fill="#CFD9E6"></path>
                        </g>
                        <g id="flaticon1543691371-svg" transform="translate(158.877873, 124.637445) rotate(28.000000) translate(-158.877873, -124.637445) translate(143.877873, 112.637445)" fill="#FFFFFF">
                            <path d="M14.2608849,0.258740622 L5.1590185,0.312882972 C0.970642957,0.337797476 -0.943343757,3.56894699 0.884818604,7.52849154 L4.85764517,16.1330795 C6.68580753,20.092624 11.5648471,23.2833653 15.7532227,23.2584508 L24.8550891,23.2043084 C29.0434647,23.1793939 30.9574514,19.9482444 29.129289,15.9886999 L25.1564625,7.38411194 C23.3283001,3.42456739 18.4492605,0.233826118 14.2608849,0.258740622 Z M26.8538224,16.0022355 C28.1317483,18.7700446 26.7896495,21.0357457 23.8618825,21.0531615 L14.760016,21.1073038 C11.832249,21.1247196 8.41103767,18.887353 7.13311179,16.1195439 L3.16028522,7.51495595 C1.88235933,4.74714683 3.2244581,2.48144574 6.15222514,2.46402995 L15.2540916,2.4098876 C18.1818586,2.39247182 21.60307,4.62983841 22.8809958,7.39764753 L26.8538224,16.0022355 Z"
                                  id="Shape" fill-rule="nonzero"></path>
                            <path d="M12.9780347,6.02360386 C9.5650529,6.04445286 8.01421693,8.74780238 9.51441447,12.0612354 C11.014612,15.3746684 14.9980906,18.0442103 18.4110725,18.0233613 C21.8240543,18.0025123 23.3748903,15.2991628 21.8746927,11.9857297 C20.3744952,8.67229672 16.3910166,6.00275486 12.9780347,6.02360386 Z M17.3923779,15.7734068 C15.26332,15.7864126 12.7678074,14.1140363 11.8319666,12.0470781 C10.8954468,9.9786199 11.8676714,8.28656423 13.9967293,8.27355838 C16.1257872,8.26055253 18.6206207,9.93142887 19.5571406,11.999887 C20.4929813,14.0668453 19.5214358,15.7604009 17.3923779,15.7734068 Z"
                                  id="Shape" fill-rule="nonzero"></path>
                            <path d="M19.5941412,6.97112965 C20.1088207,6.96781398 20.3399879,6.53795309 20.1104676,6.01100849 C19.8809472,5.48406389 19.277654,5.05957877 18.7629745,5.06289445 C18.248295,5.06621012 18.0171278,5.49607101 18.2466481,6.02301561 C18.4761685,6.54996021 19.0794617,6.97444533 19.5941412,6.97112965 Z"
                                  id="Oval"></path>
                        </g>
                    </g>
                </g>
            </g>
        </g>
    </g>
</svg>