<svg width="829px" height="261px" viewBox="0 0 829 261" version="1.1" xmlns="http://www.w3.org/2000/svg">
    <g id="Welcome" stroke="none" stroke-width="1" fill="none" fill-rule="evenodd">
        <g id="Home" transform="translate(-98.000000, -548.000000)" stroke="#E8F0F7" stroke-width="4">
            <g id="Group-88" transform="translate(99.000000, 227.000000)">
                <g id="Group-89" transform="translate(413.500000, 443.500000) rotate(-180.000000) translate(-413.500000, -443.500000) translate(0.000000, 307.000000)">
                    <path d="M827,138.711113 L643.354435,238.959621 C635.514803,242.988559 626.22065,243.014666 618.358537,239.029833 L475.644076,165.481304 C469.436721,162.335379 462.119236,162.261986 455.850112,165.282773 L422.652093,181.516327 C419.698374,182.939285 416.252828,182.914255 413.320065,181.448535 L359.807889,154.264294 C353.415558,151.017583 353.393783,142.834226 359.764338,139.558462 L411.585281,112.926234"
                          id="Path"></path>
                    <path d="M358,153 L212.604963,77.384164 C206.639584,74.3331224 199.592965,74.2038826 193.518926,77.034113 L51,144.313908" id="Path"></path>
                    <path d="M122,176 L62.4445462,144.456124 C58.8674924,142.594989 54.6439165,142.513859 51,144.236289" id="Path"></path>
                    <path d="M411.806986,180 L476.207662,212.805872 C482.541601,216.032719 482.611549,224.154303 476.330674,227.465875 L421.205612,257" id="Path"></path>
                    <path d="M236,89.8933171 L238.665431,91.2609684 C245.906278,94.9130105 254.444219,94.9130105 261.685066,91.2609684 L440,-1.25055521e-12" id="Path"></path>
                    <path d="M665,165 L724,195" id="Path"></path>
                    <path d="M671.999941,158.102097 C671.971517,164.729269 661.651051,170.055943 648.948534,169.999556 C636.246017,169.94317 625.971635,164.525075 626.000059,157.897903 C626.028483,151.270731 636.348949,145.944057 649.051466,146.000444 C661.753983,146.05683 672.028365,151.474925 671.999941,158.102097 Z"
                          id="Oval"></path>
                    <path d="M657,164.731402 C650.795233,166.833819 642.673706,166.322268 637.335927,163.202372 L637,163" id="Path"></path>
                    <path d="M654,150 C655.797943,150.360854 657.5403,150.941555 659.18447,151.727905 C664.875227,154.530685 665.525457,158.877855 661.117789,162" id="Path"></path>
                    <path d="M633.101897,159 C632.58413,156.630313 634.039032,154.169206 637.478318,152.357658 C640.385779,150.82518 644.178832,150.040898 648,150" id="Path"></path>
                    <path d="M581,123 L633,149" id="Path"></path>
                    <path d="M655,85 L498.710279,164.077774 C490.933063,167.950882 481.797622,167.975137 474,164.143381" id="Path"></path>
                    <path d="M242,93.4000628 L241.075904,92.8631568 C235.028155,89.3490831 227.320904,89.0491897 220.961092,92.0771459 L0,201" id="Path"></path>
                    <path d="M310,127.447422 L309.072833,126.894801 C303.004983,123.341889 295.272115,123.038681 288.888738,126.100103 L178,178" id="Path"></path>
                    <path d="M187.9999,191.170141 C187.951697,202.215428 170.451771,211.093227 148.912721,210.999261 C127.373671,210.905295 109.951897,201.875146 110.0001,190.829859 C110.048303,179.784572 127.548229,170.906773 149.087279,171.000739 C170.626329,171.094705 188.048103,180.124854 187.9999,191.170141 Z"
                          id="Oval"></path>
                    <path d="M157.388638,178 C161.494696,178.697894 165.35894,179.889128 168.641393,181.5737 C179.736131,187.294027 179.793592,196.539923 168.768286,202.224151 C165.097972,204.110872 160.675879,205.367082 156,206" id="Path"></path>
                    <path d="M143,206 C137.661005,205.439354 132.560638,204.084055 128.414783,201.921913 C117.245075,196.127763 117.187226,186.762545 128.289443,181.004959 C132.387091,178.886694 137.403095,177.550895 142.68424,177" id="Path"></path>
                </g>
            </g>
        </g>
    </g>
</svg>