<svg width="76px" height="191px" viewBox="0 0 76 191" version="1.1" xmlns="http://www.w3.org/2000/svg">
    <defs>
        <linearGradient x1="-0.0539488002%" y1="49.95545%" x2="100.101177%" y2="49.95545%" id="linearGradient-1">
            <stop stop-color="#3282ED" offset="0%"></stop>
            <stop stop-color="#60A2F0" offset="100%"></stop>
        </linearGradient>
    </defs>
    <g id="Welcome" stroke="none" stroke-width="1" fill="none" fill-rule="evenodd">
        <g id="Home" transform="translate(-608.000000, -397.000000)">
            <g id="Group-88" transform="translate(99.000000, 227.000000)">
                <g id="Group-83" transform="translate(509.000000, 170.000000)">
                    <g id="Group" transform="translate(18.684185, 130.000000)">
                        <polygon id="Path" fill="#FFFFFF" points="0.269194831 0.898635686 2.17335239 0.340452286 29.069083 16.5673583 29.0730417 59.816675 27.501419 60.600507 0.265236083 44.1558698"></polygon>
                        <polygon id="Path" fill="#CFD5EA" points="27.501419 60.600507 27.501419 17.2878504 28.9265681 16.5515234 29.069083 16.5673583 29.0730417 59.816675"></polygon>
                        <polygon id="Path" fill="#E6EBF4" points="0.269194831 0.898635686 1.81706511 0.134597416 29.069083 16.5673583 27.501419 17.3472316"></polygon>
                        <path d="M17.8658275,22.374841 L3.58662525,13.4161953 C3.32498841,13.2770128 3.16298424,13.0033701 3.16678579,12.7070406 C3.17058735,12.4107112 3.33955808,12.1413145 3.60467931,12.0088897 C3.86980055,11.8764648 4.18667857,11.9031861 4.42587972,12.0781387 L18.7011233,21.0367843 C19.0287478,21.2838034 19.1133742,21.7401864 18.8960942,22.0882463 C18.6788142,22.4363061 18.2316309,22.5607014 17.8658275,22.374841"
                              id="Path" fill="#9199B5"></path>
                        <path d="M22.295666,25.0311605 L20.8032182,24.1444011 C20.4928587,23.8998515 20.410312,23.4639143 20.6097784,23.1228269 C20.8092447,22.7817394 21.2296553,22.6399293 21.5949677,22.7905094 L23.0874155,23.6772689 C23.3731814,23.7950603 23.5642738,24.0683791 23.5767877,24.3772163 C23.5893016,24.6860534 23.4209488,24.9739368 23.1456497,25.1144622 C22.8703507,25.2549877 22.538445,25.2224597 22.295666,25.0311605"
                              id="Path" fill="#9199B5"></path>
                        <path d="M8.1312674,22.9528181 L3.23825547,20.0352212 C2.927896,19.7906716 2.84534927,19.3547344 3.04481563,19.0136469 C3.24428199,18.6725595 3.66469262,18.5307494 4.03000497,18.6813295 L8.9230169,21.5989264 C9.20878282,21.7167179 9.39987522,21.9900367 9.41238912,22.2988738 C9.42490302,22.607711 9.25655021,22.8955943 8.98125114,23.0361198 C8.70595208,23.1766453 8.37404636,23.1441172 8.1312674,22.9528181"
                              id="Path" fill="#9199B5"></path>
                        <path d="M22.2719135,31.82833 L11.7416451,25.0984592 C11.4100203,24.8497844 11.3263265,24.3874247 11.5497373,24.0382803 C11.7731481,23.6891359 12.2280327,23.5714023 12.5927758,23.7683201 L23.1230442,30.4981909 C23.4546691,30.7468657 23.5383629,31.2092254 23.3149521,31.5583698 C23.0915412,31.9075142 22.6366567,32.0252478 22.2719135,31.82833"
                              id="Path" fill="#9199B5"></path>
                        <path d="M22.6163246,38.2929647 L5.9658325,27.9210462 C5.69427313,27.7885176 5.52182766,27.5129751 5.521334,27.2108028 C5.52084034,26.9086306 5.69238459,26.632526 5.96350949,26.4991108 C6.23463438,26.3656957 6.55805706,26.3982369 6.79716948,26.5829896 L23.4476615,36.9549081 C23.7192209,37.0874366 23.8916664,37.3629792 23.89216,37.6651515 C23.8926537,37.9673237 23.7211094,38.2434283 23.4499845,38.3768434 C23.1788597,38.5102586 22.855437,38.4777174 22.6163246,38.2929647"
                              id="Path" fill="#9199B5"></path>
                    </g>
                    <polygon id="Path" fill="#FFFFFF" points="34.6841854 123.681245 34.6881441 62.7877908 37.372175 62 75.2336362 84.8419732 75.2375949 145.731469 73.0246551 146.832"></polygon>
                    <polygon id="Path" fill="#CFD5EA" points="72.6841854 147.009821 72.6841854 86.0371918 74.6952291 85 74.8931665 85.0197937 74.8971253 145.909289"></polygon>
                    <polygon id="Path" fill="#E6EBF4" points="34.6841854 63.0807381 36.8654553 62 75.2296774 85.1349205 73.0206963 86.2354523"></polygon>
                    <path d="M59.3050593,92.6609796 L39.2025395,80.0523687 C38.6832799,79.7244154 38.5281957,79.0376136 38.8561491,78.5183541 C39.1841024,77.9990945 39.8709042,77.8440103 40.3901637,78.1719637 L60.4926836,90.7845332 C61.011943,91.1124867 61.1670272,91.7992883 60.8390738,92.3185478 C60.5111205,92.8378072 59.8243189,92.9928915 59.3050593,92.6649383"
                          id="Path" fill="#9199B5"></path>
                    <path d="M65.3260839,96.316865 L63.223989,95.061942 C62.6981704,94.7471068 62.5271346,94.0656222 62.8419698,93.5398036 C63.1568051,93.013985 63.8382897,92.8429492 64.3641083,93.1577844 L66.4622444,94.4087487 C66.9891562,94.7224907 67.1619644,95.4039753 66.8482223,95.9308871 C66.5344803,96.4577988 65.8529957,96.630607 65.3260839,96.316865"
                          id="Path" fill="#9199B5"></path>
                    <path d="M45.1147056,93.1736176 L38.226485,89.0644376 C37.8856328,88.8614821 37.6789478,88.492101 37.6842864,88.0954366 C37.6896249,87.6987722 37.9061759,87.3350872 38.2523667,87.1413784 C38.5985574,86.9476695 39.0217933,86.9533657 39.3626455,87.1563213 L46.2508662,91.2655013 C46.5917183,91.4684568 46.7984032,91.8378379 46.7930646,92.2345023 C46.7877261,92.6311667 46.5711751,92.9948516 46.2249844,93.1885604 C45.8787936,93.3822693 45.4555578,93.3765731 45.1147056,93.1736176"
                          id="Path" fill="#9199B5"></path>
                    <path d="M65.0720528,106.538413 L50.2465433,97.0730479 C49.8901755,96.8712948 49.6740788,96.4894933 49.6845494,96.0801124 C49.69502,95.6707315 49.9303518,95.300476 50.2965673,95.1172041 C50.6627828,94.9339323 51.1002105,94.9675064 51.4341676,95.2045191 L66.259677,104.669884 C66.6160449,104.871638 66.8321416,105.253439 66.821671,105.66282 C66.8112004,106.072201 66.5758685,106.442456 66.209653,106.625728 C65.8434375,106.809 65.4060099,106.775426 65.0720528,106.538413"
                          id="Path" fill="#9199B5"></path>
                    <path d="M65.6439586,115.659843 L42.2042146,101.056023 C41.683862,100.72807 41.5278916,100.040382 41.8558449,99.5200293 C42.1837983,98.9996767 42.8714862,98.8437062 43.3918389,99.1716595 L66.8315829,113.775479 C67.1681922,113.987628 67.3660521,114.36324 67.3506306,114.760826 C67.3352091,115.158413 67.1088491,115.517571 66.7568183,115.703009 C66.4047876,115.888446 65.9805678,115.871992 65.6439586,115.659843"
                          id="Path" fill="#9199B5"></path>
                    <polygon id="Path" fill="#CFD5EA" points="39.3769836 51.7606238 35.8259871 53.5262251 0.684185395 33.6335189 0.69210289 1.2667992 0.703979133 1.2667992 4.99526144 0 39.3651074 19.3978628"></polygon>
                    <polygon id="Path" fill="#FFFFFF" points="35.8259871 21.9006238 35.8259871 54.2594259 0.684185395 34.3667197 0.69210289 2 0.703979133 2"></polygon>
                    <polygon id="Path" fill="#E6EBF4" points="0.684185395 1.73393141 4.18767695 2.84217094e-14 39.3611486 19.8729125 35.8180696 21.6385139"></polygon>
                    <path d="M19.0823154,25.0118762 C18.5183829,25.0206296 17.9651843,25.1674243 17.4711051,25.439421 C16.7669347,25.835259 16.1394421,26.3541471 15.6184113,26.9714563 C15.1471037,27.5124308 14.7245139,28.0939885 14.3555708,28.7093464 C13.7131803,29.7482518 12.9635084,30.7168544 12.1188785,31.5992321 C11.777485,31.9637221 11.4023717,32.2950943 10.998553,32.588919 C10.9199078,32.6464595 10.8379527,32.6993337 10.7531106,32.7472689 C10.6818532,32.5216203 10.6026782,32.2603429 10.511627,31.9871894 C10.308126,31.2944511 10.0195786,30.6295954 9.6525788,30.0078156 C9.45027288,29.6833919 9.1915101,29.3978144 8.88854053,29.1646024 C8.72032735,29.0407344 8.5349566,28.9420479 8.33827462,28.8716551 C8.12957209,28.7987083 7.91012324,28.7612415 7.68904003,28.7608101 C7.4278002,28.7613192 7.16885776,28.8096193 6.92500176,28.903325 C6.66865823,29.0034197 6.42645418,29.1364988 6.20450971,29.2991998 C5.80554798,29.5837124 5.45300817,29.92824 5.15940037,30.3205567 C4.96542174,30.5739165 4.81103059,30.8193588 4.68039192,31.0252137 C4.55659396,31.2438492 4.40924335,31.4482816 4.24097095,31.6348608 C4.21174482,31.6652252 4.17675216,31.6894509 4.13804351,31.7061183 C4.09239778,31.722711 4.04408841,31.7307626 3.9955286,31.7298708 C3.61934045,31.6890251 3.254836,31.5746971 2.92270802,31.3933772 C2.63984317,31.2625522 2.30867096,31.2925716 2.05394077,31.4721272 C1.79921057,31.6516829 1.65962197,31.9534961 1.68775662,32.2638767 C1.71589128,32.5742574 1.90747488,32.8460512 2.19033973,32.9768762 C2.75268306,33.2723882 3.3728727,33.4412851 4.00740484,33.4717197 C4.24994711,33.472843 4.49091184,33.4326822 4.7199794,33.3529573 C4.9089209,33.2851934 5.08645582,33.1890843 5.24649281,33.0679274 C5.48190599,32.8841763 5.68754313,32.6651861 5.85613993,32.4186928 C6.08574729,32.0901168 6.25201468,31.773417 6.46578705,31.4923459 C6.6700765,31.1970966 6.92308362,30.9387349 7.21399033,30.7283077 C7.3128977,30.6555814 7.42064718,30.5957205 7.53464888,30.550164 C7.5869651,30.5312555 7.64153164,30.5192775 7.69695753,30.5145353 C7.73277078,30.5168195 7.76776586,30.5262412 7.79988496,30.5422465 C7.9401499,30.6249886 8.05831478,30.740437 8.144296,30.8787401 C8.40006706,31.2801113 8.60360516,31.7124635 8.74998437,32.165333 C8.93208675,32.6720527 9.07856041,33.1946074 9.22503407,33.6261108 C9.26646176,33.7579744 9.32644431,33.8832712 9.40317771,33.9982331 C9.52818863,34.1897947 9.69982675,34.3464485 9.90197989,34.4534891 C10.0928119,34.547611 10.302805,34.5963836 10.5155858,34.596004 C10.789655,34.5903915 11.0594529,34.526989 11.3073353,34.4099428 C11.7380645,34.202472 12.1377828,33.9359931 12.4949595,33.6181933 C13.1429251,33.0539819 13.7415492,32.435492 14.2843134,31.7694583 C14.851779,31.0872821 15.3690891,30.3649002 15.8321837,29.6079821 C16.2503512,28.896512 16.7601062,28.2430142 17.348384,27.6642371 C17.6208751,27.3967978 17.9285269,27.1677237 18.2628546,26.9833325 C18.5041003,26.8433813 18.7759134,26.7645555 19.0546041,26.7537251 C19.2877904,26.7535708 19.5160327,26.8209436 19.7117562,26.9477038 C20.2770053,27.3514126 20.7250623,27.8978235 21.0102254,28.5312028 C21.6271379,29.8104541 22.0870534,31.1596282 22.3799521,32.5493315 C22.6598693,33.8726418 23.0573204,35.1683323 23.5675763,36.4209866 C23.7213715,36.7956773 23.9323757,37.1442349 24.1930584,37.4542197 C24.3209442,37.6022433 24.4736644,37.7268308 24.6443556,37.8223832 C24.8357311,37.9290762 25.0507439,37.9862315 25.2698377,37.9886506 C25.477733,37.9866484 25.6823383,37.9365133 25.8676086,37.8421769 C26.136664,37.6945794 26.3672076,37.4857341 26.5405957,37.2325298 C26.8291234,36.8066279 27.0719489,36.351496 27.2650465,35.8746794 C27.5936225,35.1225174 27.9142811,34.2713867 28.2507746,33.5627709 C28.3948813,33.2476424 28.5615833,32.9433451 28.7495768,32.6522589 C28.8536215,32.4817307 28.9877536,32.3315027 29.1454516,32.2088792 C29.4232268,32.0006831 29.7483193,31.8646611 30.0915922,31.8130045 C30.5704041,31.7922341 30.9417201,31.3872426 30.9209497,30.9084307 C30.9001794,30.4296188 30.4951879,30.0583027 30.016376,30.0790731 L29.9372011,30.0790731 C29.3023559,30.1558419 28.6974844,30.3928861 28.1795172,30.7678951 C27.8937865,30.9646891 27.6446038,31.2098527 27.4431901,31.4923459 C27.087201,31.9973358 26.7859598,32.5387738 26.5445544,33.1075149 C26.1486797,33.9744806 25.8161449,34.89291 25.5073626,35.5461034 C25.4281876,35.7163295 25.3450539,35.8707207 25.2737965,35.9934418 C25.063542,35.5678237 24.8887642,35.1255828 24.7512418,34.6712202 C24.545387,34.0299031 24.3197383,33.1985661 24.074296,32.1574155 C23.4765251,29.6238171 22.7797856,27.9136382 21.9642836,26.7576839 C21.6086708,26.232085 21.1492711,25.7848102 20.6143507,25.4433797 C20.1495687,25.1580285 19.6158061,25.0047428 19.0704391,25"
                          id="Shape" fill="#E6EBF4" fill-rule="nonzero"></path>
                    <path d="M2.17074657,29.1510611 C2.74912234,29.4507469 3.38481285,29.6235036 4.03531665,29.6577808 C4.28343397,29.659858 4.52998627,29.6183193 4.76372619,29.5350596 C4.95605133,29.4676435 5.1364437,29.370098 5.29815711,29.2460711 C5.53948953,29.060507 5.7493525,28.837277 5.91968047,28.5849602 C6.15720532,28.244508 6.3393077,27.9198907 6.55308007,27.6269433 C6.76851915,27.3186344 7.03652066,27.0506329 7.34482957,26.8351938 C7.4476005,26.757526 7.5609007,26.6948776 7.68132311,26.6491327 C7.73789751,26.6255106 7.79821236,26.6121073 7.85946675,26.6095452 C7.90063671,26.6097142 7.94123591,26.6191874 7.97822918,26.6372565 C8.12582869,26.7258954 8.25057289,26.8479277 8.34243395,26.9935437 C8.60848278,27.4094697 8.82002599,27.8578349 8.9718748,28.3276417 C9.15793593,28.8501963 9.31232709,29.3925447 9.45880075,29.8359245 C9.50404736,29.9681968 9.56519613,30.0944823 9.64090313,30.2120055 C9.76661868,30.406863 9.94136994,30.5652314 10.1476228,30.6712202 C10.3416095,30.7687948 10.5559645,30.8189918 10.7731049,30.8176938 C11.0549036,30.8094695 11.3321968,30.7448575 11.5886069,30.627674 C12.0331926,30.4134975 12.4461467,30.1390828 12.8158186,29.812172 C13.480615,29.2302917 14.0950846,28.5933092 14.6526775,27.9080144 C15.2336229,27.2056819 15.7628452,26.4621245 16.2361765,25.6831983 C16.6735351,24.9463097 17.2059359,24.2701606 17.8196755,23.6721546 C18.1016318,23.3954386 18.4199322,23.1583781 18.7658162,22.9674975 C19.0230577,22.820138 19.3126944,22.7385502 19.6090294,22.7299727 C19.8531407,22.7305617 20.092047,22.800586 20.2978514,22.9318688 C20.888744,23.3550566 21.3549944,23.929324 21.6477843,24.5945427 C22.2834376,25.91583 22.7579332,27.3087472 23.0610572,28.7433101 C23.3365274,30.1041788 23.7312873,31.4381494 24.240764,32.7297689 C24.3976256,33.1127629 24.6126041,33.46928 24.8781223,33.7867545 C25.0086036,33.9363339 25.1639631,34.0622287 25.337337,34.1588767 C25.5331658,34.2692065 25.7538879,34.3277933 25.9786541,34.3291029 C26.1895665,34.3272526 26.3970731,34.275715 26.5843425,34.1786705 C26.856629,34.0291018 27.089887,33.8175422 27.2652471,33.5611059 C27.5626881,33.1247102 27.8122115,32.6575174 28.0094916,32.1676267 C28.3499439,31.3758772 28.6785199,30.5128703 29.0268897,29.7923782 C29.1745425,29.4671129 29.3465787,29.1534778 29.5415269,28.8541551 C29.6454697,28.6767167 29.779415,28.5186613 29.9374016,28.3870229 C30.2250106,28.1682647 30.5622978,28.0241016 30.919171,27.9673956 C31.2282009,27.9405235 31.4994202,27.7508272 31.6306632,27.4697634 C31.7619062,27.1886995 31.7332339,26.8589686 31.555447,26.6047769 C31.37766,26.3505853 31.0777685,26.2105507 30.7687386,26.237423 C30.1195893,26.3161109 29.5011152,26.5585963 28.9714672,26.94208 C28.681107,27.1450367 28.426857,27.3952723 28.2193052,27.6823658 C27.8537065,28.2022849 27.5445012,28.7596507 27.296917,29.3450398 C26.9010423,30.235758 26.5487138,31.1779399 26.2280552,31.8548857 C26.1180495,32.1067777 25.9827586,32.3468527 25.824263,32.571419 L25.7688405,32.6347589 L25.9034379,32.8129026 L25.824263,32.6070477 L25.7727993,32.6347589 L25.9034379,32.8129026 L25.824263,32.6070477 L25.9826129,33.0029225 L25.9826129,32.571419 C25.9287101,32.5723692 25.875285,32.5817186 25.824263,32.5991302 L25.9826129,32.995005 L25.9826129,32.9672937 L26.1765915,32.6110065 C26.1167533,32.5796429 26.0501722,32.5633373 25.9826129,32.5635015 L25.9826129,32.9593762 L26.1765915,32.603089 L26.1013753,32.7416451 L26.200344,32.618924 L26.1765915,32.618924 L26.1013753,32.7574801 L26.200344,32.6347589 C26.1084629,32.5309611 26.0312111,32.4150835 25.9707366,32.2903479 C25.7494744,31.8330455 25.5641723,31.3592016 25.416512,30.8731163 C25.2106571,30.219923 24.9850085,29.3806685 24.7395662,28.3395179 C24.1220015,25.734662 23.409427,23.9848956 22.5701725,22.7972714 C22.2047707,22.2589617 21.7332836,21.8009456 21.1846109,21.4512972 C20.7084196,21.1578881 20.1604366,21.001713 19.6011119,21 C19.0236864,21.0092216 18.4571565,21.158666 17.9503142,21.4354622 C17.2276381,21.8458792 16.5841228,22.3821419 16.0501154,23.0189612 C15.5655901,23.5761277 15.1310877,24.1748932 14.7516462,24.8083151 C14.0916332,25.8831918 13.3178616,26.8839186 12.4436964,27.7932107 C12.0913989,28.1693028 11.7043616,28.5112741 11.2877421,28.8145676 C11.1634681,28.9070312 11.0309514,28.9878663 10.8918673,29.0560512 C10.8564407,29.0731721 10.8192798,29.0864438 10.7810224,29.0956387 L10.7810224,29.1946074 L10.7810224,29.0956387 L10.7810224,29.1946074 L10.7810224,29.404421 L10.8760324,29.0995974 C10.8446369,29.0937 10.8124178,29.0937 10.7810224,29.0995974 L10.7810224,29.404421 L10.8760324,29.0995974 L10.7493524,29.4954722 L11.0620935,29.2104423 C11.0125874,29.154015 10.9480583,29.1128262 10.8760324,29.0916799 L10.7493524,29.4875547 L11.0620935,29.2025249 L10.8324861,29.4162972 L11.1095985,29.2619061 L11.0620935,29.2025249 L10.8324861,29.4162972 L11.1095985,29.2619061 L10.9670835,29.3371223 L11.1135572,29.2737823 L10.9710423,29.3489985 L11.117516,29.2856585 L11.0739697,29.2856585 L11.1214747,29.2856585 L11.0779285,29.2856585 L11.1254334,29.2856585 C11.0304235,28.99667 10.9116611,28.5968365 10.7691462,28.1613743 C10.5586645,27.4560314 10.2621686,26.7792762 9.88634548,26.1463718 C9.67617212,25.8136617 9.40800683,25.5213616 9.09459597,25.2833648 C8.92277407,25.1596794 8.73501053,25.0598052 8.53641258,24.9864587 C8.32254827,24.9118629 8.09783905,24.8730738 7.87134299,24.8716551 C7.60064863,24.8711994 7.33220896,24.9208607 7.07959349,25.0181287 C6.81703031,25.1154125 6.56922749,25.2486398 6.34326645,25.4140035 C5.93555174,25.7055697 5.57505823,26.0580523 5.27440462,26.4591128 C5.09879413,26.6922567 4.93496101,26.9340427 4.78351993,27.1835636 C4.65261571,27.411141 4.49874083,27.6247088 4.32430522,27.820922 C4.29070859,27.8524871 4.25185692,27.8779417 4.20950154,27.8961382 C4.1601262,27.9142314 4.10764089,27.922306 4.05511039,27.9198907 C3.65833758,27.8826541 3.27320565,27.7654986 2.9229086,27.5754796 C2.48563742,27.3732417 1.96721287,27.5637738 1.76497495,28.001045 C1.56273703,28.4383162 1.75326913,28.9567407 2.19054031,29.1589786 L2.17074657,29.1510611 Z"
                          id="Path" fill="url(#linearGradient-1)"></path>
                </g>
            </g>
        </g>
    </g>
</svg>