<svg width="165px" height="225px" viewBox="0 0 165 225" version="1.1" xmlns="http://www.w3.org/2000/svg">
    <defs>
        <linearGradient x1="-17.0739448%" y1="13.8176611%" x2="82.1009203%" y2="82.9059669%" id="linearGradient-1">
            <stop stop-color="#F78E6B" offset="0%"></stop>
            <stop stop-color="#F9AA8F" offset="100%"></stop>
        </linearGradient>
        <linearGradient x1="156.274131%" y1="-17.2917607%" x2="-2.18790219%" y2="79.8409692%" id="linearGradient-2">
            <stop stop-color="#F78E6B" offset="0%"></stop>
            <stop stop-color="#F9AA8F" offset="100%"></stop>
        </linearGradient>
        <linearGradient x1="72.4599479%" y1="99.5486216%" x2="11.1954583%" y2="-73.4939206%" id="linearGradient-3">
            <stop stop-color="#FBD1C9" offset="0%"></stop>
            <stop stop-color="#FBB8AB" offset="100%"></stop>
        </linearGradient>
        <linearGradient x1="30.3821165%" y1="52.7869011%" x2="64.2936511%" y2="49.6151606%" id="linearGradient-4">
            <stop stop-color="#565CA8" offset="0%"></stop>
            <stop stop-color="#5C65AD" offset="100%"></stop>
        </linearGradient>
        <linearGradient x1="47.6631457%" y1="73.2970372%" x2="54.4204891%" y2="6.19144087%" id="linearGradient-5">
            <stop stop-color="#565CA8" offset="0%"></stop>
            <stop stop-color="#5C65AD" offset="100%"></stop>
        </linearGradient>
        <linearGradient x1="118.783452%" y1="57.3205038%" x2="-27.0500955%" y2="44.7175547%" id="linearGradient-6">
            <stop stop-color="#FBD1C9" offset="0%"></stop>
            <stop stop-color="#FBB8AB" offset="100%"></stop>
        </linearGradient>
        <linearGradient x1="55.8362352%" y1="85.9551094%" x2="38.7637727%" y2="-39.0567289%" id="linearGradient-7">
            <stop stop-color="#FBD1C9" offset="0%"></stop>
            <stop stop-color="#FBB8AB" offset="100%"></stop>
        </linearGradient>
        <linearGradient x1="0.0558293945%" y1="49.9807051%" x2="100.0461%" y2="49.9807051%" id="linearGradient-8">
            <stop stop-color="#F59180" offset="0%"></stop>
            <stop stop-color="#F59180" offset="10%"></stop>
            <stop stop-color="#DC7F6C" offset="97%"></stop>
            <stop stop-color="#DC7D6B" offset="100%"></stop>
        </linearGradient>
    </defs>
    <g id="Welcome" stroke="none" stroke-width="1" fill="none" fill-rule="evenodd">
        <g id="Home" transform="translate(-456.000000, -433.000000)">
            <g id="Group-88" transform="translate(99.000000, 227.000000)">
                <g id="Group-82" transform="translate(288.000000, 206.000000)">
                    <g id="pink-woman-manto-edit" transform="translate(69.000000, 0.000000)">
                        <path d="M104.794388,215.17878 L106.23513,222.563492 C106.395594,223.394082 107.196254,224.000257 108.132291,223.99982 L113.840271,223.99982 C114.236417,224.007164 114.594671,223.788775 114.734339,223.454805 C114.874006,223.120834 114.764743,222.743837 114.46166,222.513963 L113.125399,221.454051 C112.715101,221.130035 112.509238,220.644245 112.575497,220.156403 L113.389351,214"
                              id="Path" fill="#131735"></path>
                        <path d="M55.0030265,217.355027 L53.8117777,223.903115 C53.7558162,224.176576 53.8364682,224.458706 54.0313983,224.671373 C54.2263284,224.884041 54.514846,225.004673 54.8170509,224.999861 L63.7891147,224.999861 C64.0021123,224.998878 64.1861803,224.862664 64.2330222,224.671362 C64.2798641,224.48006 64.17708,224.28431 63.985143,224.199282 L60.9693233,222.889665 C60.6422932,222.745538 60.3946325,222.483231 60.285133,222.165013 C60.1756336,221.846795 60.2140603,221.501044 60.3912911,221.209838 L64.794388,214"
                              id="Path" fill="#131735"></path>
                        <path d="M23.8455556,70.3354385 C23.8455556,70.3354385 19.9400883,71.9470062 13.5820074,71.0928753 C11.4323838,70.7966277 9.33855052,70.1350332 7.37659913,69.1321345 L5.40662827,68.1275906 C5.04898346,67.9238206 4.61516726,67.9667756 4.29700896,68.2374614 C3.97885066,68.5081471 3.83503276,68.9566371 3.92915012,69.3846135 C4.18187035,70.4422869 4.66316381,71.4185536 5.33275436,72.2317165 C6.0369764,73.1092733 5.99604163,74.4323186 5.23918074,75.256092 L1.37311292,79.4945153 C0.90329545,80.0057226 0.701016563,80.7405861 0.834976087,81.4495248 C0.968935612,82.1584634 1.42112898,82.7461935 2.03797809,83.0131049 C5.96154959,84.7854611 10.4539074,84.1404463 13.8233288,81.3209587 C15.1166709,80.3135397 16.8008892,80.123709 18.2557632,80.8213727 C21.3486175,82.2932713 26.923635,83.7114509 31.794388,78.3986492 L23.8455556,70.3354385 Z"
                              id="Path" fill="#F9AA8F"></path>
                        <path d="M32.794388,77.5050287 L24.0650957,70 C22.4417824,70.4770993 20.7594258,70.761772 19.0584312,70.8471812 C19.0584312,70.8471812 22.0958796,77.7342659 15.8213636,79.3638439 L15.794388,79.3638439 C16.5348687,79.3387346 17.2720968,79.4664167 17.9524331,79.7376003 C21.351354,81.1180073 27.4586216,82.4336298 32.794388,77.5050287 Z"
                              id="Path" fill="url(#linearGradient-1)"></path>
                        <path d="M139.096344,44.0943252 C139.096344,44.0943252 143.369186,44.2423762 149.291638,41.4836937 C151.291701,40.5404916 153.128371,39.2965882 154.734845,37.7972253 L156.369321,36.2871057 C156.663077,36.0114509 157.092799,35.9258434 157.473355,36.0671641 C157.853912,36.2084849 158.117317,36.5514869 158.150092,36.9483999 C158.223066,37.9492957 158.050091,38.9527405 157.645624,39.8748735 C157.228257,40.8664293 157.669808,42.0046268 158.65456,42.4756349 L163.674014,44.9431506 C164.282872,45.2389464 164.69856,45.8147691 164.779876,46.4750238 C164.861192,47.1352784 164.597206,47.7912097 164.077588,48.2200114 C160.796139,51.0135017 156.240706,51.8825882 152.126747,50.4999958 C150.566396,50.0350862 148.871074,50.4103065 147.667252,51.4870021 C145.104555,53.7571165 140.100235,56.7674856 133.794388,53.6880261 L139.096344,44.0943252 Z"
                              id="Path" fill="#F9AA8F"></path>
                        <path d="M133.794388,51.7499913 L139.57045,42.6293347 C141.297537,42.6061909 143.014201,42.3947193 144.679201,42 C144.679201,42 149.432419,45.409679 150.767039,48.7113379 C150.767039,48.7113379 150.767039,48.7113379 150.794388,48.7113379 C150.066021,48.8939063 149.394877,49.2149473 148.830746,49.6506435 C146.05211,51.8345288 140.642522,54.675928 133.794388,51.7499913 Z"
                              id="Path" fill="url(#linearGradient-2)"></path>
                        <path d="M89.0429503,32 C89.0429503,32 97.1619609,39.0199354 139.513963,40.6624689 C140.348888,40.6913539 141.137952,41.0551408 141.706397,41.6732588 L146.711952,47.2073331 C151.362113,52.3320376 139.939436,61.3583909 133.116864,62.2630478 C119.902198,64.0420379 98.5034497,63.6225601 85.3288284,49.1227799 C73.2854625,35.8410014 89.0429503,32 89.0429503,32 Z"
                              id="_Path_" fill="#FBD1C9"></path>
                        <path d="M132.709397,65.2779759 C139.206522,64.452091 149.750192,56.8716479 147.479802,51.7983551 C146.254512,53.4648728 141.111384,58.7102249 125.079651,58.5037537 C107.390173,58.2776185 107.704218,50.3923845 106.80327,45.9630853 C105.902321,41.5337862 99.3228241,40 99.3228241,40 L84.794388,43.2838755 L97.9327895,61.9400246 C109.825308,66.6446187 123.288051,66.4922233 132.709397,65.2779759 Z"
                              id="Path" fill="url(#linearGradient-3)"></path>
                        <path d="M62.1995532,90.2027586 C84,91.458858 94,167 105.083539,216 L111.819786,216 C112.88108,216.000056 113.898314,215.588606 114.644859,214.857315 C115.391404,214.126025 115.805241,213.135647 115.794172,212.106826 C115.628356,194.635266 110.799311,122.935429 92,80 C92.0103635,79.9748827 57.5152706,75.569448 62.1995532,90.2027586 Z"
                              id="_Path_2" fill="url(#linearGradient-4)"></path>
                        <path d="M101,77.7678571 C80,71.1283807 81,184 68.2133069,214.091462 C66.9827678,216.987341 64.3727481,217.993124 61.6254691,218 L54.794388,218 C54.794388,218 66.8551988,133.78464 61.2403339,95.1133421 C61.2352664,95.1082923 78.6976351,61.482282 101,77.7678571 Z"
                              id="_Path_3" fill="#5C65AD"></path>
                        <path d="M61.497036,149.150418 C60.5235155,174.291086 57.1707445,201.562674 55.794388,212 C57.1329787,203.162953 60.7794842,183.967967 67.3843171,182.480501 C72.0001469,181.435933 72.2192157,168.835115 76,159.304474 C77.5525973,155.389433 83.6194495,153.337047 84.2992353,149.179666 C84.4698812,148.112813 84.6349321,147.052925 84.794388,146 L61.497036,149.150418 Z"
                              id="Path" fill="url(#linearGradient-5)"></path>
                        <path d="M101.775759,69.0324348 C95.874595,87.054927 115.116038,152.730065 114,153.209814 C99.693079,159.269492 46.9325351,171.942918 53,156.172606 C60.3373994,137.109869 53.2209214,47.520578 83.6943104,17.0000001 C83.6892709,16.9949503 105.283197,58.3472027 101.775759,69.0324348 Z"
                              id="_Path_4" fill="#FBD1C9"></path>
                        <path d="M64.1517509,128.946746 C67.025401,115.435812 76.4581213,107.349185 79,96 C78.8573324,91.2232775 82.23584,53 82.23584,53 L61.7834141,70.3347836 C57.6286163,97.3566521 56,147.973879 53,157 C50.3829035,164.874076 67.7042562,165.32509 82.23584,160.874129 C82.0622981,160.914917 61.2883092,142.3914 64.1517509,128.946746 Z"
                              id="Path" fill="url(#linearGradient-6)"></path>
                        <path d="M91.794388,31.182883 C91.794388,31.182883 82.1917983,67.5137077 45.9280173,89.9458204 C36.6278323,95.6841489 24.794388,88.7143536 24.794388,77.5289562 L24.794388,70.9883858 C24.794388,70.9883858 54.2466263,57.5904361 77.1252796,25 L91.794388,31.182883 Z"
                              id="_Path_5" fill="#FBD1C9"></path>
                        <path d="M71.8426669,46.1003883 C77.5035361,38.0456483 80.794388,39.7997916 80.794388,39.7997916 L75.7625043,36 L67.1177282,38.6491145 C46.3662398,61.5706033 24.7945545,71.2414054 24.7945545,71.2414054 L24.7945545,77.7874799 C24.7708652,82.7494365 27.2763631,87.3701904 31.4165134,90 C29.9069483,88.2458566 30.1132556,85.1364713 35.3766059,79.6132209 C47.699689,66.6847239 66.1817978,54.1551283 71.8426669,46.1003883 Z"
                              id="Path" fill="url(#linearGradient-7)"></path>
                        <path d="M95.9706865,1.73439094 C92.2133712,-1.85119734 81.5211254,8.85811119 81.5211254,8.85811119 L82.7986126,15.5019954 L78.794388,19.3934132 L78.794388,34.1997837 L94.3872465,40 C92.599838,38.2441163 92.6052055,35.6498377 93.2761547,33.1451989 C93.5105736,32.2941425 94.2475898,31.668191 95.1387096,31.5633217 C97.8600794,31.2364004 100.860564,30.4823723 101.22556,28.077919 C102.079008,22.4938925 106.281833,11.505119 95.9706865,1.73439094 Z"
                              id="Path" fill="#F9AA8F"></path>
                        <path d="M98.794388,13.5096965 L94.7773257,6.79022946 L91.6012624,6 L84.5208964,8.80355292 L82.6932505,15.1455218 L83.1020042,17.4759437 L81.5421625,19.1319023 L79.794388,25.1718727 L86.9546254,38.2182087 L88.3641209,38.8725389 L91.1314305,40 C91.3099666,39.8137676 91.6905304,39.4161362 92.1650606,38.8926721 C91.8152766,37.3878868 91.8558914,35.80932 92.2825186,34.3274611 C92.4877082,33.515079 93.1328273,32.9175723 93.9128351,32.8174685 C94.4155552,32.7520355 94.9323702,32.6664693 95.4350903,32.5507032 C95.0551799,32.430316 94.6535488,32.4113082 94.265209,32.4953368 C89.2427065,33.2503331 89.9615492,23.2340489 90.5065542,20.5110289 C91.2911734,16.5447816 95.5149617,14.8435233 95.5760398,19.323168 C95.637118,23.8028127 95.2377609,24.7390081 96.0881565,24.9755736 C96.9385522,25.2121392 98.0238638,23.6065137 98.0238638,23.6065137 C98.0238638,23.6065137 96.3935472,23.6065137 96.684843,23.1333827 C96.9761387,22.6602517 96.5485918,16.7259808 96.4029439,15.3820873 C96.257296,14.0381939 98.794388,13.5096965 98.794388,13.5096965 Z"
                              id="Path"></path>
                        <path d="M86,15.6072098 C89.6683654,13.5960987 95.581266,10.0666667 96.3313646,8.61111111 C96.4494105,8.39676227 96.6724781,8.26395891 96.9144705,8.26395891 C97.1564628,8.26395891 97.3795305,8.39676227 97.4975763,8.61111111 C98.2750508,9.92777778 99.6876452,11.85 101.149516,11.9 C103.421713,11.9833333 98.9594473,2.72222222 98.9594473,2.72222222 L93.2105165,1 L78.794388,3.77777778 C79.8859626,13.7048065 82.2878332,17.6479506 86,15.6072098 Z"
                              id="Path" fill="#131735"></path>
                        <path d="M84.3633557,6.17120551 C84.5811768,6.55342967 84.633039,7.42473636 84.633039,8.86321438 C84.633039,10.3016924 84.9960742,10.5606184 84.633039,11.5387835 C83.6497322,14.1691433 83.4941457,4.62175919 84.3633557,6.17120551 Z"
                              id="_Path_6" fill="url(#linearGradient-8)"></path>
                        <path d="M90.440331,6.35490399 C90.440331,6.35490399 95.4883753,-0.0630930939 99.6795154,8.63944755 C103.019244,15.5791918 100.68473,30.4819128 97.0703522,31.2468043 C93.4559744,32.0116958 93.2801992,30.2894235 92.675972,34.2861084 C92.0717447,38.2827932 89,37.6711791 89,37.6711791 C89,37.6711791 100.818732,38.4251578 101,33 C101.197747,27.1189466 103.403753,29.0635709 104.227699,23.3192862 C104.837419,19.0743915 105.150519,4.07036044 97.773453,1.53760705 C90.3963872,-0.995146341 81.794388,6.24346284 81.794388,6.24346284"
                              id="Path" fill="#485499"></path>
                        <path d="M84.2520529,18.8064812 C84.2520529,10.6378172 89.0563504,3.6866227 95.7671152,1.09002823 C87.8362113,-2.27443076 65.660184,0.978889945 72.2946901,27.6823888 C72.6948728,29.2876393 72.2790024,30.98588 71.1813132,32.228955 C67.9682804,35.8712597 63.794388,40.493602 63.794388,40.493602 C70.0069294,37.3413161 77.4141902,38.3971298 82.3303338,39.7358409 C83.1312165,39.9474092 83.9147121,40.2193062 84.6740176,40.5491711 C85.6104269,40.9687473 86.5817073,41.3067977 87.5769318,41.5595191 L87.7447009,41.6352952 L87.6989457,41.5898296 C91.3441111,42.4688324 95.3858218,42.0697449 99.4326163,39.0639595 C99.7270812,38.8405278 101,35.8074047 99.4326163,35 C97.8652326,34.1925953 84.2520529,28.2481837 84.2520529,18.8064812 Z"
                              id="Path" fill="#5C65AD"></path>
                    </g>
                </g>
            </g>
        </g>
    </g>
</svg>