<svg width="213px" height="339px" viewBox="0 0 213 339" version="1.1" xmlns="http://www.w3.org/2000/svg" xmlns:xlink="http://www.w3.org/1999/xlink">
    <defs>
        <linearGradient x1="50%" y1="100%" x2="50%" y2="3.061617e-15%" id="linearGradient-1">
            <stop stop-color="#F5F8FB" offset="0%"></stop>
            <stop stop-color="#CCD8E3" offset="100%"></stop>
        </linearGradient>
        <rect id="path-2" x="0" y="0" width="212" height="271"></rect>
        <linearGradient x1="50%" y1="0%" x2="50%" y2="116.492398%" id="linearGradient-4">
            <stop stop-color="#DDE6EE" offset="0%"></stop>
            <stop stop-color="#F5F8FB" offset="100%"></stop>
        </linearGradient>
    </defs>
    <g id="Welcome" stroke="none" stroke-width="1" fill="none" fill-rule="evenodd">
        <g id="Home" transform="translate(-439.000000, -559.000000)">
            <g id="Group-88" transform="translate(99.000000, 227.000000)">
                <g id="Group-82" transform="translate(288.000000, 206.000000)">
                    <g id="Group-91" transform="translate(52.000000, 126.000000)">
                        <g id="Rectangle" transform="translate(0.205612, 68.000000)">
                            <mask id="mask-3" fill="white">
                                <use xlink:href="#path-2"></use>
                            </mask>
                            <use id="Mask" fill="url(#linearGradient-1)" xlink:href="#path-2"></use>
                            <rect fill-opacity="0.265709918" fill="#F5F8FB" mask="url(#mask-3)" x="101.945355" y="5.73160173" width="119.054645" height="296.943723"></rect>
                        </g>
                        <path d="M6.88877531,57.3711081 L94.8395549,3.69504416 C103.328193,-1.48554311 116.626604,-1.18161654 124.542387,4.37388314 L207.354082,62.4932547 C215.269866,68.0487544 214.805475,76.7520725 206.316837,81.9326598 L118.366057,135.608724 C113.793548,138.399311 107.77065,142.355746 102,142 C97.0577221,141.695321 92.3150741,137.492846 88.6632246,134.929885 L5.85152954,76.8105132 C-2.06425367,71.2550135 -1.59986292,62.5516954 6.88877531,57.3711081 Z"
                              id="Rectangle" fill="url(#linearGradient-4)"></path>
                        <path d="M152.915267,177.208984 L156.586767,167.149844 L161.714399,168.130986 L158.042899,178.190126 L152.915267,177.208984 Z M143.570115,175.42077 L145.490311,170.156094 L154.839733,171.94512 L152.918205,177.2072 L143.570115,175.42077 Z M145.490311,170.156094 L150.516913,156.380512 C151.023965,154.989396 152.04933,153.756551 153.367431,152.953199 C154.685532,152.149846 156.188393,151.841795 157.545391,152.096815 L157.564604,152.100465 L150.619275,171.13983 L145.490311,170.156094 Z M157.659841,163.790656 L161.331527,153.731879 L166.459061,154.71283 L162.787375,164.771608 L157.659841,163.790656 Z M164.537436,159.974721 L166.459061,154.71283 L175.811501,156.511483 L173.885878,161.76559 L164.537436,159.974721 Z M161.811329,179.820723 L168.762341,160.792423 L173.885878,161.76559 L168.859021,175.540676 C167.803397,178.436572 164.658037,180.354361 161.832677,179.824778 L161.811329,179.820723 Z"
                              id="Combined-Shape" fill="#35546F" fill-rule="nonzero" opacity="0.136137463"></path>
                    </g>
                </g>
            </g>
        </g>
    </g>
</svg>