<svg width="20px" height="49px" viewBox="0 0 20 49" version="1.1" xmlns="http://www.w3.org/2000/svg">
    <g id="Welcome" stroke="none" stroke-width="1" fill="none" fill-rule="evenodd">
        <g id="Home" transform="translate(-324.000000, -681.000000)">
            <g id="Group-88" transform="translate(99.000000, 227.000000)">
                <g id="trees" transform="translate(225.000000, 454.000000)">
                    <ellipse id="Oval" fill="#000000" opacity="0.1" transform="translate(11.919216, 43.701072) rotate(-87.190000) translate(-11.919216, -43.701072) " cx="11.9192164" cy="43.7010722" rx="4.32799069" ry="7.71631868"></ellipse>
                    <path d="M2.77788347,34.7437793 C-0.925961155,37.0773043 -0.925961155,40.8944753 2.77788347,43.2425697 C6.48172809,45.590664 12.5369023,45.5809511 16.2296243,43.2425697 C19.9223462,40.9041882 19.9245708,37.0967301 16.2296243,34.7583486 C12.5346778,32.4199671 6.48395262,32.4126825 2.77788347,34.7437793 Z"
                          id="Path" fill="#9D9AB8"></path>
                    <path d="M1.00802408,36.8325601 C0.575569064,43.1951886 17.7662405,44.2880245 18,36.6713609 L9.11714012,10 C9.11714012,10 1.18100609,36.0621226 1.00802408,36.8325601 Z" id="Path" fill="#00B0B0"></path>
                    <path d="M1.00802408,26.8317908 C0.575569064,33.1942369 17.7662405,34.289412 18,26.6705962 L9.11714012,0 C9.11714012,0 1.18100609,26.0637459 1.00802408,26.8317908 Z" id="Path" fill="#12DDD0"></path>
                </g>
            </g>
        </g>
    </g>
</svg>