<svg width="196px" height="157px" viewBox="0 0 196 157" version="1.1" xmlns="http://www.w3.org/2000/svg" xmlns:xlink="http://www.w3.org/1999/xlink">
    <defs>
        <path d="M0.27887175,3.88280508 L0.27887175,39.4347881 C0.27887175,42.6929831 2.58011265,46.6607627 5.42466724,48.3022458 L175.695477,147.292924 C178.536267,148.932839 180.841586,147.623415 180.841586,144.364907 L180.841586,108.813237 C180.841586,105.554729 178.536267,101.584754 175.695477,99.9451525 L138.901972,78.5544492 L122.457322,68.9940254 L5.42466724,0.954474576 C4.59275737,0.474415254 3.80664645,0.246771186 3.11181976,0.246771186 C1.43043328,0.246457627 0.27887175,1.57720339 0.27887175,3.88280508"
              id="path-1"></path>
        <linearGradient x1="99.9999355%" y1="49.9999835%" x2="-3.58057421e-05%" y2="49.9999835%" id="linearGradient-3">
            <stop stop-color="#E4EDF6" offset="0%"></stop>
            <stop stop-color="#EFF4F9" offset="100%"></stop>
        </linearGradient>
    </defs>
    <g id="Welcome" stroke="none" stroke-width="1" fill="none" fill-rule="evenodd">
        <g id="Home" transform="translate(-700.000000, -336.000000)">
            <g id="Group-88" transform="translate(99.000000, 227.000000)">
                <g id="Group-33" transform="translate(585.000000, 0.000000)">
                    <g id="Group-92" transform="translate(16.000000, 108.000000)">
                        <path d="M15.0231443,4.63593723 L15.0231443,40.2194465 C15.0231443,43.4808445 17.3210384,47.4518288 20.161456,49.0950813 L190.18526,148.173541 C193.021606,149.814596 195.323259,148.504011 195.323259,145.242613 L195.323259,109.659418 C195.323259,106.397706 193.021606,102.424525 190.18526,100.783783 L20.161456,1.70500999 C17.3210384,0.0620713267 15.0231443,1.37453923 15.0231443,4.63593723"
                              id="Fill-16" fill="#3D6DD1" opacity="0.0794503348"></path>
                        <g id="Group-23" transform="translate(0.000000, 9.000000)">
                            <mask id="mask-2" fill="white">
                                <use xlink:href="#path-1"></use>
                            </mask>
                            <g id="Clip-22"></g>
                            <path d="M0.27887175,3.88280508 L0.27887175,39.4347881 C0.27887175,42.6929831 2.58011265,46.6607627 5.42466724,48.3022458 L175.695477,147.292924 C178.536267,148.932839 180.841586,147.623415 180.841586,144.364907 L180.841586,108.813237 C180.841586,105.554729 178.536267,101.584754 175.695477,99.9451525 L138.901972,78.5544492 L122.457322,68.9940254 L5.42466724,0.954474576 C4.59275737,0.474415254 3.80664645,0.246771186 3.11181976,0.246771186 C1.43043328,0.246457627 0.27887175,1.57720339 0.27887175,3.88280508"
                                  id="Fill-21" fill="url(#linearGradient-3)" mask="url(#mask-2)"></path>
                        </g>
                        <g id="Group-32" transform="translate(14.000000, 27.000000)">
                            <path d="M126,61 L126,108.645947 L161.98913,129.453204 C164.842309,131.103131 167.157938,129.785777 167.157938,126.506432 L167.157938,90.7308738 C167.157938,87.4518447 164.842309,83.4571845 161.98913,81.8072573 L126,61 Z"
                                  id="Fill-24" fill="#55ADEE"></path>
                            <path d="M3.34475792,9.08166748 L112.476107,72.90725 C114.268048,73.9434636 115.720633,72.8435121 115.720633,70.4511335 C115.720633,68.0584393 114.268048,65.2789005 112.476107,64.2426869 L3.34475792,0.417419903 C1.55281642,-0.618793689 0.100231509,0.480842233 0.100231509,2.87353641 C0.100231509,5.26623058 1.55281642,8.04545388 3.34475792,9.08166748"
                                  id="Fill-26" fill="#CFD9E6"></path>
                            <path d="M45.4686489,50.3311092 L112.475981,89.8028325 C114.268238,90.8387306 115.720507,89.7390947 115.720507,87.346716 C115.720507,84.9540218 114.268238,82.174483 112.475981,81.138585 L45.4686489,41.6668617 C43.6767074,40.6306481 42.2238074,41.7305995 42.2238074,44.1229782 C42.2238074,46.5156723 43.6767074,49.2952112 45.4686489,50.3311092"
                                  id="Fill-28" fill="#CFD9E6"></path>
                            <path d="M147.165315,106.452109 C149.105666,107.43058 150.544702,106.300337 151.044757,104.844148 C150.766844,104.70058 150.489876,104.580993 150.21858,104.41092 C149.944448,104.238638 149.676617,104.016187 149.405006,103.789633 C151.375606,104.084342 152.549332,102.950313 152.904759,100.3074 C152.331602,100.316867 151.762857,100.26007 151.117859,99.8956286 C152.035098,99.5498034 152.673165,98.8180801 153.011576,97.6117937 C153.350302,96.402983 153.320368,95.051551 152.934063,93.5464539 C150.528002,95.692085 147.706332,96.0120364 144.429351,94.439415 C144.484808,94.1147306 144.545306,93.8301189 144.583117,93.5309927 C144.786983,91.9214539 144.497727,90.2876189 143.713142,88.6641966 C142.850414,86.8789053 141.724582,85.8048277 140.405912,85.3883228 C139.644014,85.1478859 138.950806,85.2498034 138.348346,85.6808228 C138.258859,85.7445607 138.184812,85.7332015 138.072953,85.631284 C137.330276,84.9560413 136.640219,84.1659442 136.004359,83.2505801 C135.979782,83.2152403 135.954259,83.1814782 135.928106,83.1486626 C135.920229,83.1391966 135.908885,83.1369879 135.877376,83.1183714 C136.062651,84.4852646 136.528991,85.7123762 137.218102,86.8552403 C136.49307,86.3579587 135.835783,85.6615752 135.162112,84.8616966 C135.544951,86.0559927 135.987974,87.1303859 136.539074,88.1391481 C136.553568,88.1653374 136.566487,88.194051 136.583187,88.2167694 C136.821398,88.5493422 136.839674,88.8632985 136.799657,89.238784 C136.584763,91.2455801 136.714266,93.3643908 137.100257,95.5611383 C137.401487,97.2744879 137.860265,98.9550218 138.482576,100.598323 C138.989563,101.935871 139.591078,103.20274 140.290902,104.397352 C141.06698,105.722279 141.930968,106.898274 142.880032,107.925337 C143.7081,108.820823 144.576185,109.579682 145.477985,110.200337 C146.566006,110.949415 147.664425,111.522109 148.771036,111.83575 C149.705921,112.100167 150.622215,112.215337 151.504795,112.112789 C151.874085,112.069876 152.239595,112.008663 152.602898,111.925046 C151.579787,111.434075 150.592597,110.775556 149.65141,109.832109 C148.711798,108.890871 147.875223,107.777983 147.165315,106.452109"
                                  id="Fill-30" fill="#FFFFFF"></path>
                        </g>
                    </g>
                </g>
            </g>
        </g>
    </g>
</svg>