<svg width="47px" height="19px" viewBox="0 0 47 19" version="1.1" xmlns="http://www.w3.org/2000/svg" xmlns:xlink="http://www.w3.org/1999/xlink">
    <defs>
        <path d="M4.60643003,0.000991508484 L43.9118054,0.86239383 C45.783164,0.903405845 47.1591514,2.15467357 46.9851595,3.65717851 L46.9851595,14.2300199 C46.8111675,15.7325248 45.7682601,17.0137535 43.9118054,16.9998885 L3.1192169,16.3993822 C1.26276218,16.3855172 -0.129473447,15.1046539 0.00957160203,13.5384939 L0.966272266,2.76251627 C1.10531731,1.19635624 2.73507146,-0.0400205058 4.60643003,0.000991508484 Z"
              id="path-1"></path>
        <filter x="-2.1%" y="-5.9%" width="104.3%" height="123.5%" filterUnits="objectBoundingBox" id="filter-3">
            <feOffset dx="0" dy="2" in="SourceAlpha" result="shadowOffsetOuter1"></feOffset>
            <feColorMatrix values="0 0 0 0 0.0217633929   0 0 0 0 0.0199416189   0 0 0 0 0.0199416189  0 0 0 0.270691803 0" type="matrix" in="shadowOffsetOuter1"></feColorMatrix>
        </filter>
    </defs>
    <g id="Welcome" stroke="none" stroke-width="1" fill="none" fill-rule="evenodd">
        <g id="Home" transform="translate(-200.000000, -583.000000)">
            <g id="emonshi-slider" transform="translate(139.000000, 231.000000)">
                <g id="table" transform="translate(0.000000, 233.000000)">
                    <g id="Rectangle" transform="translate(61.000000, 119.000000)">
                        <mask id="mask-2" fill="white">
                            <use xlink:href="#path-1"></use>
                        </mask>
                        <g id="Mask">
                            <use fill="black" fill-opacity="1" filter="url(#filter-3)" xlink:href="#path-1"></use>
                            <use fill="#FFFFFF" fill-rule="evenodd" xlink:href="#path-1"></use>
                        </g>
                        <path d="M3.84798206,4.02697065 L3.84798206,4.02697065 C4.35042982,4.03061085 4.75675273,4.43720898 4.76005271,4.93965909 L4.80066842,11.1237393 C4.8039101,11.6173126 4.4064178,12.0200607 3.91284451,12.0233024 C3.90872978,12.0233294 3.90461492,12.023328 3.90050021,12.0232982 L3.90050021,12.0232982 C3.39805245,12.019658 2.99172954,11.6130599 2.98842956,11.1106098 L2.94781385,4.92652955 C2.94457217,4.43295626 3.34206447,4.03020815 3.83563776,4.02696647 C3.83975249,4.02693945 3.84386735,4.02694084 3.84798206,4.02697065 Z"
                              fill="#BEC7D3" mask="url(#mask-2)" transform="translate(3.874241, 8.025134) rotate(4.000000) translate(-3.874241, -8.025134) "></path>
                        <path d="M22.4645598,7.68515748 C22.4645598,7.61126873 22.4645598,7.53737998 22.4645598,7.46349123 C22.4723411,7.41133447 22.4801224,7.3591777 22.4840131,7.30702094 C22.495685,6.95930918 22.5462633,6.61594382 22.6318575,6.28561765 C22.8341709,5.50761259 23.1843287,4.84261386 23.7679252,4.34277821 C24.2348023,3.94290969 24.7678203,3.73428263 25.3553074,3.67777947 C25.849419,3.6299691 26.3279681,3.67777947 26.7870639,3.89509932 C27.3862229,4.17326872 27.8336468,4.6426796 28.179914,5.24248238 C28.7090414,6.16391854 28.9385893,7.15489705 28.724604,8.24584269 C28.6545724,8.60224724 28.5650876,8.95430539 28.3083052,9.21074281 C28.2110391,9.30636355 28.1098824,9.40633068 28.0048351,9.49325862 C27.5418486,9.86270236 27.0205025,10.088715 26.4758125,10.2495317 C26.2929523,10.3016885 26.1139827,10.3581916 25.9389038,10.4320804 C25.7560436,10.5103155 25.6432149,10.6667858 25.6509962,10.8927984 C25.6548869,11.0101512 25.686012,11.1361967 25.7288091,11.249203 C25.8260751,11.5056404 25.9933728,11.7055747 26.1879049,11.8663914 C26.3668745,12.0141689 26.5652973,12.135868 26.7481575,12.2749527 C26.8220797,12.3271094 26.9193457,12.3836126 26.8998925,12.5009653 C26.8804393,12.6226644 26.7676107,12.6487428 26.6781259,12.6530892 C26.4680312,12.661782 26.2540458,12.6704748 26.0478418,12.6357036 C25.2580413,12.4966189 24.553835,12.1445608 23.9585666,11.544758 C23.0637188,10.6450538 22.6668733,9.46718023 22.5034663,8.16760754 C22.4840131,8.00244446 22.4762318,7.84597416 22.4645598,7.68515748 Z M25.4906717,4.67328945 C24.2392883,4.65999219 23.2245447,5.81685425 23.2285556,7.17760771 C23.2325664,8.5427936 24.2513209,9.6863584 25.5027043,9.67306113 C26.7420551,9.66419629 27.7447662,8.55609086 27.7567987,7.18647256 C27.7648204,5.81685425 26.7420551,4.65999219 25.4906717,4.67328945 Z"
                              id="Shape" fill="#8397A6" fill-rule="nonzero" mask="url(#mask-2)" transform="translate(25.634371, 8.160864) rotate(-81.000000) translate(-25.634371, -8.160864) "></path>
                        <ellipse id="Oval" fill="#CBD4E1" mask="url(#mask-2)" transform="translate(41.875638, 9.237684) rotate(10.000000) translate(-41.875638, -9.237684) " cx="41.8756382" cy="9.2376839" rx="1.81730249" ry="1.99457702"></ellipse>
                    </g>
                </g>
            </g>
        </g>
    </g>
</svg>