<svg width="360px" height="476px" viewBox="0 0 360 476" version="1.1" xmlns="http://www.w3.org/2000/svg" xmlns:xlink="http://www.w3.org/1999/xlink">
    <defs>
        <linearGradient x1="64.1253284%" y1="13.8866194%" x2="58.285757%" y2="98.5742251%" id="linearGradient-1">
            <stop stop-color="#7CD8DB" offset="0%"></stop>
            <stop stop-color="#4486FF" offset="100%"></stop>
        </linearGradient>
        <linearGradient x1="0%" y1="50%" x2="100%" y2="100%" id="linearGradient-2">
            <stop stop-color="#73C9E1" offset="0%"></stop>
            <stop stop-color="#4C93F9" offset="100%"></stop>
        </linearGradient>
        <linearGradient x1="102.05467%" y1="23.555097%" x2="-0.577997619%" y2="103.336562%" id="linearGradient-3">
            <stop stop-color="#486DED" offset="0%"></stop>
            <stop stop-color="#10C1FF" offset="100%"></stop>
        </linearGradient>
        <path d="M69.2658533,0.697063556 C47.4311072,6.55747159 19.601237,0.225997777 1.44331607,14.1402698 C-0.75005101,15.8210297 1.60544493,20.7114211 4.44703721,24.8572314 C13.1021138,37.4847663 38.8166975,66.7055279 46.3747993,87.7488746 C50.2305071,98.4839768 54.5443032,109.311954 55.7756428,120.651827 C57.9780095,140.934255 55.5420454,161.476751 56.5929097,181.851318 C57.0074466,189.888522 58.0658456,197.959813 60.163714,205.729461 C62.1053427,212.920461 64.8802746,219.972266 68.6244732,226.411317 C75.1546278,237.64149 79.3491388,252.345826 90.8180452,258.446965 C99.4813624,263.055609 111.47753,255.369647 121,253 C122.318929,252.671787 134,248 142,243 C145.021576,241.111515 138.734958,237.734958 135,234 C131,230 128.30836,225.922212 125.511707,221.383382 C120.512489,213.269897 114.884064,205.761686 112.042724,196.164861 C104,169 110.773661,170.641965 105,136 C103,124 87,83 74,70 C60.3034585,56.3034585 53.0889924,49.3407107 38,29 C33.3773045,22.768377 65.5004952,24.9996698 73,20 C76,18 70.6572792,15.4321276 71.472019,13.2350595 L69.2658533,0.697063556 Z"
              id="path-4"></path>
        <linearGradient x1="98.1688042%" y1="1.83119581%" x2="1.14026373%" y2="98.8597363%" id="linearGradient-6">
            <stop stop-color="#CFDAE2" offset="0%"></stop>
            <stop stop-color="#E8F0F5" offset="100%"></stop>
        </linearGradient>
        <linearGradient x1="-1.51375933%" y1="0%" x2="100%" y2="100%" id="linearGradient-7">
            <stop stop-color="#71C8E1" offset="0%"></stop>
            <stop stop-color="#4991FB" offset="100%"></stop>
        </linearGradient>
        <linearGradient x1="-28.5012937%" y1="19.8028766%" x2="94.0192405%" y2="95.6035502%" id="linearGradient-8">
            <stop stop-color="#A8FFDA" offset="0%"></stop>
            <stop stop-color="#5FA5FF" offset="100%"></stop>
        </linearGradient>
    </defs>
    <g id="Welcome" stroke="none" stroke-width="1" fill="none" fill-rule="evenodd">
        <g id="Home" transform="translate(-305.000000, -354.000000)">
            <g id="emonshi-slider" transform="translate(139.000000, 231.000000)">
                <g id="doctor" transform="translate(166.000000, 122.000000)">
                    <ellipse id="Oval" fill-opacity="0.0732280344" fill="#132733" cx="131.5" cy="387.5" rx="131.5" ry="44.5"></ellipse>
                    <path d="M122.350399,285.968308 C124.167627,286.384933 125.188269,287.98314 124.639155,289.538003 L107.769013,346.970727 C107.400484,348.525591 105.904159,349.448316 104.418793,349.031692 C102.928923,348.615067 101.99036,347.01686 102.330487,345.461997 L118.105419,288.029273 C118.623635,286.474409 120.528222,285.551684 122.350399,285.968308 Z"
                          id="Rectangle" fill="#063F6B"></path>
                    <path d="M233.65254,286.369957 C235.247514,285.58897 237.237687,286.14071 238.09187,287.602499 L280.048518,368.056309 C280.72216,369.524195 280.073881,371.343936 278.606393,372.120618 C277.142133,372.89719 275.407367,372.336825 274.72584,370.869205 L232.336084,290.430022 C231.474015,288.968499 232.060795,287.150834 233.65254,286.369957 Z"
                          id="Rectangle" fill="#063F6B"></path>
                    <path d="M56.4592812,258.313293 C58.7339669,258.827807 59.9196154,260.609163 59.1181793,262.292063 L17.6675792,380.115569 C17.2849187,381.798469 15.661256,382.745632 14.030349,382.231118 C12.3935449,381.716604 11.3425378,379.935248 11.693537,378.252349 L50.9274637,260.428842 C51.6972386,258.745942 54.1786983,257.798779 56.4592812,258.313293 Z"
                          id="Rectangle" fill="#063F6B"></path>
                    <path d="M67,82 C59.9035069,86.4696642 52.2078424,93.0300343 47,99 C6,146 13.5906341,232.402354 64.5343103,272 C94.9334437,295.628725 145.720182,289.655226 180,281 C232.056754,267.856319 244.589419,236.528985 219.924702,190.08311 C204.541072,161.114354 167.443008,102.408328 135.050606,88.9773319 C114.060106,80.2739538 124.718003,89.0801535 100,88 L67,82 Z"
                          id="Path-6" fill="url(#linearGradient-1)"></path>
                    <ellipse id="Oval" fill="#063F6B" cx="75" cy="137.5" rx="32" ry="50.5"></ellipse>
                    <path d="M293,475.502014 C294,475.502014 297.772233,475.61725 300,475.502014 L300.509793,471.191272 C311,473.018371 322.571358,474.980778 333,475.776458 C341.468476,476.422582 350,476.422582 359,475.502014 C359.764069,475.423861 357.794894,472.458751 355,471.191272 C345.403832,466.839427 320.616641,459.097771 309,456 C301.743695,454.064985 296.067605,451.924234 289,451 C291,467.334676 292.333333,475.502014 293,475.502014 Z"
                          id="Path-10" fill="url(#linearGradient-2)"></path>
                    <path d="M162.906543,341.755964 C159.753076,347.359347 161.494439,357.958117 170.829942,357.911228 C178.419474,357.873108 178.516338,349.99274 177.229204,345.296634 C175.835791,340.212769 165.315664,342.035572 163.830988,341.974382 L162.906543,341.755964 Z"
                          id="Path-9" fill="#FDB793"></path>
                    <path d="M127,270 C157.252496,293.33199 186,317.947928 193.789323,328.226416 C226.118375,370.886576 256,412.504148 288,456 C292.391548,461.969191 306.823126,461.14362 311.441662,457.495852 C312.498526,456.661129 311.812016,454.659536 311.193461,453.463244 C307.580475,446.475699 302.704512,438.949774 299,432 C270.33441,378.222501 248.080804,337.525967 230.842509,307.733598 C223.97528,295.865195 214.363678,284.54506 209,276 C202.966354,266.38759 201.36845,259.97303 197,254.195996 C192.102661,247.719536 167.672588,228.435398 159,229 C153.941955,229.329288 124.718224,247.122589 118,257 C115.053775,261.331662 118.053775,265.664995 127,270 Z"
                          id="right-leg" fill="#063F6B"></path>
                    <path d="M163,341 C161,344 166.384571,344.25837 169.692286,347.629185 C173,351 172,357 175,357 C178,357 204.862767,330 214,323 C252.306887,293.653237 266.564807,278.717327 263.682122,266.669813 C262.169975,260.35014 243.5787,243.813663 243.221578,243.504355 C235.480436,236.799659 206.224786,218.224786 196,208 C194.890999,206.890999 188,198 188,202 C188,206.890999 176,219 169,222 C164.584254,223.892462 153,223.892462 147,223 C144.805086,222.67352 143.578604,226.872893 145,228 C150.265348,232.175197 155.404932,230.428654 160.373488,233.604608 C167.510102,238.166409 173.233632,242.905145 180,248 C184.1156,251.098913 193.627772,258.451431 200,265 C205.610803,270.766073 212,275 211,276 C207.526741,279.473259 195.514936,299.067243 189,307 C182.286319,315.174754 171.501744,328.753814 165.233563,337.274966 L163,341 Z"
                          id="left-leg" fill="#063F6B"></path>
                    <path d="M176,218 C164,228 137.435869,222.802435 134.656168,217.180133 C124.530024,196.69871 112.483072,139.812042 109.245646,120.584355 C108.145367,114.049589 97.7099286,95.9632699 106.39787,87.2536186 C107.027322,86.6225935 108.364045,86.7886894 109.070599,87.3319978 C111.68973,89.345992 113.026591,91.5595634 116,93 C119.511539,94.7011276 121.198378,96.2238297 125,95.3449602 C125.890176,95.1391668 131.303004,94.7187847 132,91 C132.304793,89.3737942 131.304793,86.0404608 129,81 C130.591844,81.8202083 133.444743,82.5115441 134.656168,84 C137.335893,87.2925275 138.523823,92.2531337 141,95.3449602 C146.888489,102.697498 150.668926,115.634839 155,124 C163.492433,140.402529 189.508723,183.151743 184,210 L176,218 Z"
                          id="white-shirt" fill="url(#linearGradient-3)"></path>
                    <path d="M136,85 C142,98 149.512937,118 158,145 C160.503261,152.963655 165.210105,167.871722 168,182 C170.489261,194.605843 172.194559,206 174,219 C174.261866,220.885552 189,207 189,194 C189,191.570382 187.088103,194.427177 186.451727,192.081821 C181.835476,175.068677 178.208793,157.725596 172.194559,141.154964 C167.731379,128.857852 161.152745,117.426532 155.139254,105.808578 C153.580674,102.797429 151.706002,99.9203416 149.512937,97.3344844 C146.075061,93.2808615 130,72 136,85 Z"
                          id="shirt-shadow" fill-opacity="0.116904438" fill="#010101"></path>
                    <path d="M187.150782,224 C192.120175,221.475228 193.913566,220.43413 195,216 C197.911308,204.117895 190.629572,184.764249 187.150782,174.750834 C180.253899,154.898711 174.842472,140.870943 168,121 C166.192526,115.750989 162,105 161.263589,99.5728951 C160.527177,94.1457902 161.263589,88 162.610448,83 C163.338134,80.2985831 163.953894,76.5077377 165,73 C167.726474,63.8577609 169.822448,55.2131064 173,45 C174.292023,40.8472547 177,33 177.057006,26 C177.078293,23.3860548 177.078293,22 177,20 C176.645951,10.9557791 149.348588,8.44810168 143,9 C131.907894,9.96426395 127.905316,9.07585817 130.148313,20.1008933 C132.05506,29.4731582 151.66286,25.5929316 152,31 C152.355828,36.7067961 147.510609,58.4310056 144.111598,64.2848578 C142.364784,67.293259 138.38227,71.7700417 136,74 C133.228352,76.5944409 131,80 131,82 C131,84 140.56915,96.0025195 142.768187,99.4440126 C145.274281,103.36605 147.387806,107.538042 149.348778,111.759118 C155.675553,125.37777 161.972751,140.486333 168,155 C173.34738,167.876536 177.953395,180.959886 181,194 C182.870397,202.005693 185,212 186,218 L187.150782,224 Z"
                          id="left-arm" fill="#FFFFFF"></path>
                    <g id="Path-12" transform="translate(27.000000, 8.000000)">
                        <mask id="mask-5" fill="white">
                            <use xlink:href="#path-4"></use>
                        </mask>
                        <use id="Mask" fill="#FFFFFF" xlink:href="#path-4"></use>
                        <path d="M126,272 C128,229.67356 125,200 98.3104943,179.337136 C91.1217721,173.771668 66.5971422,161.597142 55,150 C44,139 32.9091735,150.142788 26.5379772,166.517685 C24.1361483,172.690733 21.9894166,179.030287 20.8307575,185.552006 C19.7656188,191.547328 19.739312,197.709977 19.914936,203.796649 C20.9650315,240.19025 37.273519,261.009593 71.2296603,271.32644 C83.7849287,275.14109 102.041709,275.36561 126,272 Z"
                              fill="#E5EBF0" mask="url(#mask-5)"></path>
                    </g>
                    <path d="M80,26 C77.0581459,28.9418541 69.859295,32.7545897 65,35 C62.5436099,36.1350625 70.8769433,34.4683959 90,30 C93.6131414,20.139904 93.279808,14.139904 89,12 C87,11 85.4604543,12.38841 85,14 C83,21 83,23 80,26 Z"
                          id="right-arm-shadow" fill="#EEF2F7"></path>
                    <path d="M152,30 C153.133885,30.2155427 156,31 161,30 C166,29 168.032445,26.7728865 168,27 C167,34 166,35 164,41 C162.529347,45.4119576 160.946754,48.6529184 159,53 C156.219031,59.2098762 154.224306,62.3568422 149,70 C144.500979,76.5820655 141.316832,81.7212004 135,84 C134.798799,84.0725834 134,86 133,85 C131.906773,83.9067725 129,82 130,81 C131.572655,79.4273448 133,77 135,75 C138.022119,71.9778811 142,68 144,64 C146.401348,59.1973039 146.462464,58 148,53 C149.537536,48 150.031997,44.7563269 151,40 L152,30 Z"
                          id="left-elbow" fill="url(#linearGradient-6)"></path>
                    <path d="M123.846118,95.8897082 C121,95.8897082 118.791174,94.82968 117,94 C112.249635,91.7996097 110.472819,89.4451876 109,87 C105.930824,81.904527 106.813502,73.3510005 104.139608,54.3073331 C103.914157,52.7016554 101.851354,49.6146001 102,48 C102.263581,45.1369662 102.946395,39.4658525 102,39 C100.263801,38.1453751 98.3203567,35.9467211 99,33 C99.3077688,31.6656104 101.712285,28.2193646 102.837418,29 C104.304004,30.01754 105.050429,32 106,35 C106.51668,36.6323576 106.686836,38.4718554 107,38 C110,33.4797973 106.283789,20.6295194 107,19 C107.554225,17.7390311 110.308603,19.8817639 116,20 C122.165098,20.128077 135,17 136,21 C137,25 137,37.0015228 137,41 C137,51 138.11649,59.7611892 134.336333,60.1201651 C129.422309,60.5868167 120,57.7829524 121,60.1201651 C122,62.4573778 127.761917,77.5238331 130,82 C131.034912,84.0698245 131.88722,86.5373966 132,89 C132.105171,91.296454 132.344353,92.7297825 131,94 C129.666667,95.2598054 127.282039,95.8897082 123.846118,95.8897082 Z"
                          id="face" fill="#FDB793"></path>
                    <path d="M104.471935,40 C104.481541,40.9011605 104.953476,44 104.471935,46 C103.876122,48.4746072 101.564268,49.4782352 101,49 C95.4737049,44.3162893 92.0303919,37.2689565 89.5264659,30.3988521 C86.634809,22.4649178 84.1030322,0.298663184 100,1 C105.744989,1.25345541 110.836228,3.7724915 116.582303,4 C118.252375,4.06612437 121.429966,3.47873212 125,3 C132.007179,2.06035575 140.757438,1.42728648 144.206897,6.19150787 C144.996003,7.28138287 145.308728,11.5464549 145,13 C143.937355,18.0031161 139.086153,20.7144661 138,21 C137.202717,21.2095942 135.202717,22 133,20 C131.5206,18.6567499 121.677812,21.5739289 116.582303,21 C112.996621,20.5961293 110.594093,19.1195803 108.641596,19.2641776 C107.509747,19.3479997 108,21.8676116 108,23 C108,28 109.041446,38 107,38 C105.428469,38 105.428469,36.1017754 105,34 C104.554651,31.8154247 104.742968,29.9044008 103.183015,29.9044008 C100.987614,29.9044008 100.079161,30.7411989 100,33 C99.9706912,33.8363074 100,35 100,36 C100,36.6853873 101,38 101.901019,38.6320147 C103.608559,38.9432312 104.465531,39.3992264 104.471935,40 Z"
                          id="hair" fill="#053D69"></path>
                    <path d="M150.007805,358.188686 C150.007805,360.188686 149.582671,360.763553 155.007805,366.188686 C158.007805,369.188686 160.007805,367.188686 160.572694,368.188686 C162.463177,371.535329 161.918182,373.032017 165.776785,378.188686 C165.922662,378.383637 166.068397,378.577508 166.213994,378.770319 C174.283676,389.456762 181.93253,396.884646 190.007805,404.188686 C190.77629,404.883776 193.300392,408.183483 193.007805,407.188686 C190.134828,397.420565 186.007805,389.188686 181.007805,381.187044 C177.209263,375.10813 172.007805,370.188686 165.776785,364.188686 C161.802572,360.361819 162.294884,364.667283 160.572694,363.188686 C158.850504,361.710089 158.782744,360.065697 158.007805,359.188686 C153.141233,353.681112 153.059354,355.188686 152.007805,355.188686 C150.674471,355.855353 150.007805,356.855353 150.007805,358.188686 Z"
                          id="shoe-bottom" fill="#063F6B"></path>
                    <path d="M195,408 C195,392 188.385865,382.991064 175,361 C169.287542,351.615248 162,343 161,344 C160,345 155.645868,349.296235 153,354 C151.994201,355.788086 151,354 157.692184,358.668908 C159.018292,359.594088 158.627117,362.358317 160,363.426115 C161.886571,364.893448 161.483071,362.517773 163,363.426115 C170.212504,367.744985 174.841407,372.23141 182.785146,384.493748 C187,391 187,393 191,402 C195,411 195,408.713987 195,408 Z"
                          id="shoe-body" fill="url(#linearGradient-7)"></path>
                    <path d="M64,84 C6.65541348,119.543623 9.89157303,212.175309 48,256 C59.1747157,268.850923 74.1931977,280.837758 95,286 C112,290.217761 146.987206,289.038381 148,286 C150,280 150,235 127,215 C116.172513,205.584794 99.2239103,197.673022 88,189 C66,172 41,139 56,106 C65.5569387,84.9747348 70.3897872,88.7795745 70,88 C69.395,86.7899999 68.395,84.7899999 67,82 L64,84 Z"
                          id="Path-8" fill="url(#linearGradient-8)"></path>
                    <path d="M120.995258,279.313789 C123.186589,279.13849 125.166714,280.348447 125.415912,282.016304 L143.986024,442.072166 C144.123845,443.740023 142.893718,445.234196 141.24054,445.409495 C139.58851,445.584794 138.123372,444.374836 137.965982,442.70698 L117.517913,282.651117 C117.249146,280.98326 118.805075,279.489087 120.995258,279.313789 Z"
                          id="Rectangle" fill="#063F6B"></path>
                    <path d="M112,58 C111,58 127,75 126,73 C125,71 121,58 120,58 C119,58 113,58 112,58 Z" id="Path-11" fill="#DF9B78"></path>
                </g>
            </g>
        </g>
    </g>
</svg>