<svg width="114px" height="235px" viewBox="0 0 114 235" version="1.1" xmlns="http://www.w3.org/2000/svg">
    <defs>
        <linearGradient x1="73.5496431%" y1="35.85515%" x2="-51.6028553%" y2="79.9845655%" id="linearGradient-1">
            <stop stop-color="#40D3BA" offset="0%"></stop>
            <stop stop-color="#34C5AC" offset="35%"></stop>
            <stop stop-color="#15A189" offset="100%"></stop>
        </linearGradient>
        <linearGradient x1="106.335593%" y1="65.7131927%" x2="-141.639652%" y2="-23.2607402%" id="linearGradient-2">
            <stop stop-color="#40D3BA" offset="0%"></stop>
            <stop stop-color="#34C5AC" offset="35%"></stop>
            <stop stop-color="#15A189" offset="100%"></stop>
        </linearGradient>
        <linearGradient x1="63.4562021%" y1="76.8333663%" x2="-10.7336373%" y2="-69.2627001%" id="linearGradient-3">
            <stop stop-color="#40D3BA" offset="0%"></stop>
            <stop stop-color="#34C5AC" offset="35%"></stop>
            <stop stop-color="#15A189" offset="100%"></stop>
        </linearGradient>
        <linearGradient x1="-44.3835257%" y1="40.942285%" x2="398.188975%" y2="81.9081272%" id="linearGradient-4">
            <stop stop-color="#40D3BA" offset="0%"></stop>
            <stop stop-color="#34C5AC" offset="35%"></stop>
            <stop stop-color="#15A189" offset="100%"></stop>
        </linearGradient>
        <linearGradient x1="89.556962%" y1="126.233889%" x2="-48.1408228%" y2="-149.465577%" id="linearGradient-5">
            <stop stop-color="#F78E6B" offset="0%"></stop>
            <stop stop-color="#F9AA8F" offset="100%"></stop>
        </linearGradient>
    </defs>
    <g id="Welcome" stroke="none" stroke-width="1" fill="none" fill-rule="evenodd">
        <g id="Why-Us" transform="translate(-307.000000, -853.000000)">
            <g id="Group-29" transform="translate(307.000000, 751.000000)">
                <g id="Group-28">
                    <g id="doctor" transform="translate(0.000000, 102.000000)">
                        <path d="M93.5915588,53.3711612 C95.2959589,48.263195 96.1497153,42.8934584 96.1165051,37.4904064 C95.9433659,28.995818 93,26.2222778 93,26.2222778 C93,26.2222778 106.759755,23.3890915 108.832615,37.9526631 C110.905476,52.5162348 113.911364,50.9952611 113.911364,50.9952611 C113.911364,50.9952611 115.469617,69.9527568 105.518924,78 C105.518924,78 99.0742992,69.9626978 97.1938155,62.2236258"
                              id="Path" fill="#F2F5F8"></path>
                        <path d="M93.3715968,59.8159458 C92.8761344,57.981125 92.8761344,56.0205634 93.3715968,54.1857425 C94.1989293,51.1287583 98.9038143,49.0032794 98.658342,50.4803071 C98.4128698,51.9573348 97.0218603,53.2593837 97.0218603,53.2593837 C97.0218603,53.2593837 100.863047,57.0883336 97.8401012,64"
                              id="Path" fill="#F9AA8F"></path>
                        <path d="M44,37 C44,37 54.7031434,41.4772498 67.9059697,58.6450156 C79.1569889,73.2756731 89.865024,63.0078468 92.7951807,59.63996 C93.3716891,58.9761229 94.2983934,58.7564903 95.1040855,59.0927406 C96.8134747,59.7254779 97.9641826,61.3622135 98,63.2118104 C98,63.2118104 85.4135338,97.0399203 61.6543165,80.3945004"
                              id="Path" fill="#40D3BA"></path>
                        <path d="M82,66.9055154 C77.6698248,67.7295211 72.4667099,66.3377554 67.1452304,59.3990249 C56.1669046,45.0844389 46.9245944,39.5123518 44,38 L44.3304348,40.6981161 L60.8472421,81.3607854 C62.5266475,82.5525457 64.3233168,83.5628804 66.2081765,84.3754402 L66.4449059,84.4709043 C66.7210902,84.586466 66.9972745,84.6970034 67.2734588,84.7974919 C70.0944841,85.6616929 73.5418559,83.8930954 71.2189487,76.9041206 C68.950292,70.1362205 79.7461389,67.3979091 82,66.9055154 Z"
                              id="Path" fill="url(#linearGradient-1)"></path>
                        <path d="M22.741187,220.83002 L22.0023745,233.349901 C21.978283,233.778699 22.1383365,234.198194 22.4450666,234.510183 C22.7517967,234.822171 23.1782744,234.999263 23.6246621,235 L30.3411394,235 C30.6216717,234.9969 30.8701499,234.82513 30.9626755,234.570341 C31.055201,234.315552 30.9719609,234.032302 30.7544611,233.861829 L27.6183828,231.461233 C27.1318198,231.08422 26.928123,230.46304 27.1017307,229.885686 L30.2016433,220"
                              id="Path" fill="#6161AD"></path>
                        <path d="M46,219 L46.7088382,233.486282 C46.750814,234.332447 47.4760137,234.998272 48.3575432,235 L55.3304104,235 C55.615511,234.996853 55.8680354,234.822472 55.9620677,234.56381 C56.0560999,234.305148 55.9715043,234.017593 55.7504627,233.844529 L52.4688045,231.321665 C52.0235594,230.976014 51.8084679,230.425466 51.9069847,229.883633 L53.71846,219.191738"
                              id="Path" fill="#6161AD"></path>
                        <path d="M42.0673511,147.865543 L45.542275,220.277089 C45.542275,220.277089 50.5064521,221.903638 53.3459614,220.277089 C53.3459614,220.277089 68.9781549,147.659714 65.4933026,112.980086 C62.0084503,78.3004573 32,124.089816 32,124.089816"
                              id="Path" fill="#40D3BA"></path>
                        <path d="M42.0673511,147.865543 L45.542275,220.277089 C45.542275,220.277089 50.5064521,221.903638 53.3459614,220.277089 C53.3459614,220.277089 68.9781549,147.659714 65.4933026,112.980086 C62.0084503,78.3004573 32,124.089816 32,124.089816"
                              id="Path" fill="url(#linearGradient-2)"></path>
                        <path d="M23.138965,115.169054 L21,221.035976 C21,221.035976 25.3621023,223.20503 29.2835381,221.035976 C29.2835381,221.035976 53.8271714,151.299876 51.89121,113" id="Path" fill="#40D3BA"></path>
                        <path d="M51.8916039,113 L22.9953914,115.134809 L22,163 C22.2189861,152.489029 25.1105981,144.715754 38.3841425,144.715754 C47.2132643,144.715754 50.0451528,137.906108 50.955936,133.349872 C51.8219265,126.021348 52.2051522,119.102985 51.8916039,113 Z"
                              id="Path" fill="url(#linearGradient-3)"></path>
                        <path d="M25.0025281,37 C25.0025281,37 16.4440488,38.7403706 16.0271601,50.6700903 C15.6053668,62.6593098 20.2598063,98.9790091 18.6658202,115.083635 C18.5500369,116.1872 19.2152033,117.221747 20.2598063,117.562795 C27.4302916,119.917998 53.9444116,127.479437 65.3279248,115.053885 C65.7662121,114.579522 66.0068559,113.952674 65.9998513,113.303598 C65.8870461,105.181868 64.3322966,48.0669719 43.1494471,38.7998704"
                              id="Path" fill="#40D3BA"></path>
                        <path d="M25.2321475,108.21013 L34.1254555,99.3300353 C34.1254555,99.3300353 42.1250131,88.3341971 31.4343827,84.3590106 C20.7437524,80.3838241 28.4879527,56 28.4879527,56 L16,62.0306243 C17.0066969,78.2831567 19.501341,103.074048 18.2687511,115.673027 C18.1528228,116.791548 18.8188225,117.840117 19.8647341,118.185787 C21.2691991,118.653161 23.4151823,119.321555 26.037505,120 C15.7986606,116.743463 25.2321475,108.21013 25.2321475,108.21013 Z"
                              id="Path" fill="url(#linearGradient-4)"></path>
                        <g id="_Group_" transform="translate(23.000000, 5.000000)">
                            <path d="M0.398135593,30.5977011 C1.54338983,31.2602299 34.3527119,58.1154023 21.3469492,33.1921839 C21.0677907,32.6357259 20.6163902,32.1908395 20.0640678,31.9278161 C17.2033898,30.6229885 7.88898305,26.9209195 0.398135593,30.5977011 Z"
                                  id="_Path_" fill="#DFECF4"></path>
                            <path d="M27.5794915,9.89241379 C26.4883051,4.2583908 22.8510169,0.136551724 17.1886441,0.136551724 C10.3367797,0.136551724 4.78254237,6.17011494 4.78254237,13.6147126 C4.78254237,15.5618391 5.72627119,17.1549425 6.40949153,18.8137931 C7.39254237,21.1908046 6.90101695,24.1645977 5.9179661,26.5365517 C5.02830508,28.6556322 3.83881356,29.4193103 3.83881356,29.4193103 C16.0728814,40.5457471 23.2638983,40.6873563 20.6244068,35.3921839 C19.6855932,33.5057471 18.9925424,32.6206897 18.5845763,28.954023 C18.4797763,27.9241785 19.1171008,26.9683907 20.0886441,26.6983908 C23.1213559,25.8183908 25.3381356,23.5425287 26.6259322,20.497931 C26.8498983,19.9749958 27.2446235,19.5491686 27.7416949,19.2942529 C28.080467,19.1293238 28.3962179,18.9184026 28.6805085,18.6671264 C29.6291525,17.7517241 27.5794915,9.89241379 27.5794915,9.89241379 Z"
                                  id="Path" fill="#F9AA8F"></path>
                            <path d="M27.6089831,17.6 C27.8891525,15.6377011 26.350678,11.1163218 26.7488136,11.1871264 C27.1288384,11.1221924 27.4870488,10.9605062 27.7908475,10.7167816 C27.6679661,10.2110345 27.5844068,9.89241379 27.5844068,9.89241379 C27.3077311,8.40041399 26.8104314,6.96086365 26.1098305,5.62390805 L6.52745763,6.73655172 C6.00514171,7.69449164 5.59591461,8.71320358 5.30847458,9.77103448 L6.82728814,16.9981609 L6.11457627,18.1057471 C6.21779661,18.3434483 6.32101695,18.576092 6.41932203,18.8137931 C7.40237288,21.1908046 6.91084746,24.1645977 5.92779661,26.5365517 C5.03813559,28.6556322 3.84864407,29.4193103 3.84864407,29.4193103 C8.67050847,33.8142529 12.6961017,36.4997701 15.6452542,37.7995402 C15.3650847,37.6478161 13.4825424,36.5705747 15.5518644,35.9990805 C17.7833898,35.382069 14.4262712,34.0873563 12.9467797,31.6648276 C11.7622034,29.7278161 17.4835593,27.5581609 19.8281356,26.7691954 C16.8789831,27.4721839 15.0701695,25.1811494 14.9128814,19.6583908 C14.7162712,13.5489655 22.0744068,11.2326437 24.9252542,12.2542529 C27.7761017,13.2758621 26.3998305,21.023908 26.3998305,21.0441379 C26.4850282,20.8654406 26.5669492,20.6833716 26.6455932,20.497931 C26.8695593,19.9749958 27.2642845,19.5491686 27.7613559,19.2942529 C28.100128,19.1293238 28.4158789,18.9184026 28.7001695,18.6671264 C28.7001695,18.6671264 27.3288136,19.5622989 27.6089831,17.6 Z"
                                  id="Path" fill="url(#linearGradient-5)"></path>
                        </g>
                        <path d="M35.9221597,22.2455036 C36.3093165,22.2468955 36.644438,21.9763425 36.7251926,21.5971925 C36.9460267,20.5317511 37.5834341,18.4863047 39.2346706,18.0792256 C41.4932007,17.5364536 59.867598,17.2650676 56.6153146,6.5955766 C53.8247752,-2.56118864 45.1720953,-0.269484501 42.7529586,2.19309232 C42.0962719,2.87748158 41.1912857,3.26714601 40.2434807,3.27361072 C36.4943207,3.27361072 28.3636122,4.19330778 26.5015796,12.4957096 C24.2631253,22.4817099 30.2758344,24.185411 29.7086924,29 C29.7086924,29 31.2143791,26.0348565 29.9997918,21.2001648 C28.835394,16.5715256 34.983615,15.7121365 35.1191268,21.4212942 C35.121624,21.8676801 35.4765674,22.2319835 35.9221597,22.2455036 Z"
                              id="Path" fill="#68370C"></path>
                        <path d="M20.9753471,38 C20.9753471,38 -1.39925786,51.7617386 0.0692484698,78.8296616 C1.5377548,105.897585 27.5735674,104.996489 27.5735674,104.996489 C27.5735674,104.996489 31.7376881,103.244357 33,100.155601 C33,100.155601 8.75455817,89.8781 20.9652889,71.5007474 C33.1760196,53.1233948 30.8374736,42.3552974 20.9753471,38 Z"
                              id="Path" fill="#40D3BA"></path>
                        <path d="M32.3041032,97.3525101 C30.1398122,101.32768 25.8509419,104.120237 23.3391729,105.481733 C23.1064065,105.607309 22.9737239,105.862321 23.0043651,106.125224 C23.0350063,106.388127 23.2227704,106.605716 23.4781641,106.674284 C23.8852096,106.778632 24.2078677,106.887949 24.4163544,106.962483 C24.5935825,107.026273 24.789949,107.008073 24.9524632,106.912794 C26.2282036,106.182356 31.7034628,102.838245 33.9422134,98.1326372 C34.0127933,97.9778088 34.0189664,97.8012398 33.9593721,97.6418511 C33.8997778,97.4824625 33.7793086,97.3533395 33.6245193,97.2829446 L33.1529421,97.0593413 C32.8371868,96.9144443 32.4634169,97.0435356 32.3041032,97.3525101 Z"
                              id="Path" fill="#5AEDD1"></path>
                        <circle id="Oval" fill="#5AEDD1" cx="46.5" cy="63.5" r="1"></circle>
                        <circle id="Oval" fill="#5AEDD1" cx="48.5" cy="76.5" r="1"></circle>
                        <circle id="Oval" fill="#5AEDD1" cx="49.5" cy="91.5" r="1"></circle>
                        <circle id="Oval" fill="#5AEDD1" cx="50.5" cy="109.5" r="1"></circle>
                        <path d="M45.3451576,83.6038416 C44.9963422,83.2688802 44.8520882,82.7712027 44.967093,82.2995156 C45.8326618,78.6373695 45.6933749,74.3080106 44.5243596,69.9786516 C41.8729333,60.1610902 34.6598599,53.559194 28.4466677,55.2698677 C22.2334755,56.9805414 19.3333226,66.351622 21.9797743,76.1691834 C23.1487897,80.4935257 25.2082465,84.3011543 27.7950038,87.0151557 C28.1322305,87.3651905 28.2575363,87.8706559 28.123323,88.3395482 C27.9331565,88.9791699 28.0611293,89.6720377 28.4668969,90.1997192 C28.8726645,90.7274006 29.5062298,91.0248771 30.1678563,90.9983666 C31.0931135,90.9705383 31.8862747,90.3235836 32.1066857,89.4169292 C32.3270967,88.5102748 31.9205942,87.5667197 31.1130176,87.1104718 C28.0039342,84.7576684 25.3773806,80.4885091 24.0641038,75.6173532 C21.7260731,66.9536186 23.944715,58.7664647 29.0386372,57.3768559 C34.1325594,55.987247 40.1368211,61.8918305 42.4698773,70.5655983 C43.7881286,75.4367542 43.6687398,80.4584093 42.1714053,84.0754056 C41.7929794,84.725893 41.7929794,85.5319063 42.1714053,86.1823937 C42.5500403,86.8256038 43.2457693,87.2100519 43.98711,87.1857214 C44.6207987,87.1712628 45.212585,86.8633374 45.5914951,86.3509085 C45.9704051,85.8384796 46.0942236,85.178638 45.927178,84.5620195 C45.8263497,84.1937999 45.6246274,83.8617053 45.3451576,83.6038416 Z"
                              id="Path" fill="#DFECF4"></path>
                        <path d="M27.3782839,57 C27.3782839,57 17.1249034,33.6049117 28,33" id="Path" stroke="#DFECF4" stroke-linecap="round"></path>
                        <path d="M43,35 C43,35 53.8153051,35.4252798 53.9460768,53.8073733 C54.0768486,72.1894668 58,73 58,73" id="Path" stroke="#DFECF4" stroke-linecap="round"></path>
                        <ellipse id="Oval" fill="#DFECF4" transform="translate(56.461998, 72.277266) rotate(-27.630000) translate(-56.461998, -72.277266) " cx="56.4619979" cy="72.2772661" rx="1.89395952" ry="1.90532466"></ellipse>
                        <ellipse id="Oval" fill="#DFECF4" transform="translate(56.461998, 72.277266) rotate(-27.630000) translate(-56.461998, -72.277266) " cx="56.4619979" cy="72.2772661" rx="1.89395952" ry="1.90532466"></ellipse>
                        <ellipse id="Oval" fill="#DFECF4" transform="translate(57.826482, 74.906572) rotate(-27.630000) translate(-57.826482, -74.906572) " cx="57.8264815" cy="74.9065718" rx="3.72826677" ry="3.7506391"></ellipse>
                    </g>
                </g>
            </g>
        </g>
    </g>
</svg>