<svg width="109px" height="288px" viewBox="0 0 109 288" version="1.1" xmlns="http://www.w3.org/2000/svg">
    <defs>
        <linearGradient x1="-61.8913963%" y1="47.1994187%" x2="239.45925%" y2="55.6642738%" id="linearGradient-1">
            <stop stop-color="#F9AA8F" offset="0%"></stop>
            <stop stop-color="#F78E6B" offset="100%"></stop>
        </linearGradient>
        <linearGradient x1="148.068566%" y1="35.4699874%" x2="43.9159826%" y2="50.114771%" id="linearGradient-2">
            <stop stop-color="#B3E0E2" offset="0%"></stop>
            <stop stop-color="#B3E0E2" offset="100%"></stop>
        </linearGradient>
        <linearGradient x1="-85.9073359%" y1="69.5225525%" x2="335.931467%" y2="6.54194881%" id="linearGradient-3">
            <stop stop-color="#B0DFE2" offset="0%"></stop>
            <stop stop-color="#B3E0E2" offset="20%"></stop>
            <stop stop-color="#75C4D9" offset="100%"></stop>
        </linearGradient>
        <linearGradient x1="0.0596065965%" y1="49.999998%" x2="100%" y2="49.999998%" id="linearGradient-4">
            <stop stop-color="#B3E0E2" offset="0%"></stop>
            <stop stop-color="#B3E0E2" offset="100%"></stop>
        </linearGradient>
        <linearGradient x1="-73.8193112%" y1="46.5865805%" x2="277.515378%" y2="57.4695964%" id="linearGradient-5">
            <stop stop-color="#B0DFE2" offset="0%"></stop>
            <stop stop-color="#B3E0E2" offset="20%"></stop>
            <stop stop-color="#75C4D9" offset="100%"></stop>
        </linearGradient>
        <linearGradient x1="64.2646256%" y1="27.0858164%" x2="10.9788304%" y2="86.6507747%" id="linearGradient-6">
            <stop stop-color="#B0DFE2" offset="0%"></stop>
            <stop stop-color="#B3E0E2" offset="20%"></stop>
            <stop stop-color="#75C4D9" offset="100%"></stop>
        </linearGradient>
        <linearGradient x1="96.4656965%" y1="134.095963%" x2="-27.8586279%" y2="-60.4145245%" id="linearGradient-7">
            <stop stop-color="#8E241C" offset="0%"></stop>
            <stop stop-color="#721A14" offset="100%"></stop>
        </linearGradient>
    </defs>
    <g id="Welcome" stroke="none" stroke-width="1" fill="none" fill-rule="evenodd">
        <g id="Design" transform="translate(-298.000000, -1904.000000)">
            <g id="taiin-vaght" transform="translate(25.000000, 1577.000000)">
                <g id="doctor" transform="translate(276.000000, 327.000000)">
                    <path d="M64,69 C64,69 76.2739726,71.1912391 80.6575342,97.6043849 C85.0410959,124.017531 96,112.501075 96,112.501075" id="Path" stroke="#FFFFFF" stroke-width="5"></path>
                    <path d="M45.7878582,65.090489 C42.3415604,69.0310358 36.8990464,71.5128225 31.4753646,61.1120524 C27.7968026,54.058221 26.5099337,40.6136311 26.0642376,32 L20.4961754,32.7767424 C18.0149281,33.1221005 16.0513394,35.0615257 15.6625701,37.5508664 C5.86353385,99.0019253 42.580102,114 42.580102,114 L50,90.0914902 C50,90.0914902 49.2278786,61.1499422 45.7878582,65.090489 Z"
                          id="Path" fill="#B3E0E2"></path>
                    <path d="M17,98 C17,98 32.5660377,70.3654741 50,71.0111406" id="Path" stroke="#FFFFFF" stroke-width="5"></path>
                    <path d="M46.059206,73 C46.059206,73 24.7863334,94.9418998 18.0472896,131.426909 C13.9001858,153.86503 13.7105316,166.747705 14.1783452,173.344907 C14.4240848,176.788288 16.8511112,179.678017 20.1840596,180.495587 C28.4972327,182.550454 44.3017443,185.884045 48,182.652243"
                          id="Path" fill="#83CCCC"></path>
                    <polygon id="_Path_" fill="#F9AA8F" points="46 272 46 280 42.5398773 280 41 272"></polygon>
                    <polygon id="_Path_2" fill="#F9AA8F" points="64 272 64 280 60.4994026 280 59 272"></polygon>
                    <path d="M64,280 L64,284.452472 C64,286.411417 62.3500786,287.999455 60.3147974,287.999455 L51.9916324,287.999455 C51.5711223,288.013315 51.1903621,287.761667 51.0527754,287.378955 C50.9151887,286.996243 51.052931,286.571911 51.3924125,286.332662 L60.2069378,280.126884 L64,280 Z"
                          id="_Path_3" fill="#B3E0E2"></path>
                    <path d="M46,280 L46,285.369863 C46,286.822448 44.7190632,288 43.1389475,288 L32.7299867,288 C32.4140058,287.998359 32.1346212,287.811019 32.0364074,287.534924 C31.9381935,287.258829 32.0431902,286.955936 32.2970643,286.782985 L42.1413437,280.126893 L46,280 Z"
                          id="_Path_4" fill="#B3E0E2"></path>
                    <path d="M51.1855476,61.8943241 C51.1855476,61.8943241 54.0398946,67.6075429 48,74 L64,66.5728155 L60.0978547,57 L51.1855476,61.8943241 Z" id="_Path_5" fill="#F59180"></path>
                    <path d="M45.1048179,55.301122 C46.4578279,60.8433625 62.725413,67 62.725413,67 L71.6615719,50.9243355 C73.123158,48.3091319 73.4019945,45.1891211 72.4275624,42.3533692 C71.4531303,39.5176174 69.3187386,37.2376685 66.5641855,36.0901329 C61.5800743,34.0379204 54.7961452,34.25961 46.8857566,42.2974423 C45.7278318,43.4818983 45.8474001,44.4636666 46.2564496,45.1604054 C46.9711543,46.4308038 47.0752922,47.9587746 46.5396378,49.3155023 C45.7026595,51.5450665 44.664303,53.5276051 45.1048179,55.301122 Z"
                          id="_Path_6" fill="#F9AA8F"></path>
                    <path d="M68.169334,57.6709144 L69,49.3820613 L59.4879371,48.6238561 C56.5462552,55.4027244 49.0515241,51.6823787 49.6323657,47.6086322 C50.2132074,43.5348858 55.7030979,41.2281429 54.0667483,41.0096771 C52.4303987,40.7912112 49.0702609,44.3316438 48.0085073,45.571759 C46.9467538,46.8118743 46.016158,45.186231 46.0099124,45.1798055 C46.06011,45.3858408 46.1401141,45.582947 46.2472455,45.764523 C46.9565601,47.0532691 47.0599127,48.6033076 46.5282979,49.9796298 C45.7038775,52.2349689 44.6546152,54.2461402 45.1105446,56.0581221 C45.7725792,58.8274986 50.0258391,61.7510864 54.166678,64 L56.3026764,63.9100435 C56.3026764,63.9100435 55.6781155,61.0764123 60.2186734,60.3696108 C62.9954522,59.9310337 65.6821963,59.0212422 68.169334,57.6773399 L68.169334,57.6709144 Z"
                          id="Path" fill="url(#linearGradient-1)"></path>
                    <rect id="_Path_7" fill="#FAF7F7" x="10" y="0" width="22" height="29" rx="2.63"></rect>
                    <path d="M23.0692239,164.613362 C23.0692239,164.613362 20.6104822,99.9634031 45,74 L37.8336676,175 L23.0692239,164.613362 Z" id="_Path_8" fill="#CFEBF2"></path>
                    <path d="M48,163 L45.3684211,274 L37.793578,274 C35.209811,274.00042 32.9892186,272.065766 32.5002414,269.38827 C29.9954128,255.61041 23,212.627052 23,163.01274 L48,163 Z" id="_Path_9" fill="url(#linearGradient-2)"></path>
                    <path d="M25.395029,215.385172 C25.0692568,210.722484 24.9787645,200.626363 31.7415541,212.200275 C40.2598938,226.806209 44.8327703,278.369677 31.9044402,266.01228 C32.1216216,267.286239 32.3267375,268.407322 32.507722,269.38827 C32.9964632,272.065766 35.2159839,274.00042 37.7985039,274 L45.3696911,274 L48,163 L23,163 C23,181.841846 23.9773166,199.709113 25.395029,215.385172 Z"
                          id="Path" fill="url(#linearGradient-3)"></path>
                    <path d="M64,163 L64,274 L56.8428373,273.999996 C54.5004679,274.00298 52.4061775,272.491215 51.6012319,270.216339 C47.0679515,257.413057 33,213.665326 33,163 L64,163 Z" id="_Path_10" fill="url(#linearGradient-4)"></path>
                    <path d="M65,62 L50.5343489,62.0000001 C49.0174958,61.9996546 47.5670173,62.6379212 46.5221358,63.7655291 C45.4772543,64.8931369 44.9296044,66.4111964 45.0072647,67.96468 L45.4050701,76 L52.6981692,70.0415012 L65,62 Z"
                          id="_Path_11" fill="#CFEBF2"></path>
                    <path d="M66.7223788,62 L85.4487071,152.823803 C86.9565678,160.069252 85.3370264,167.632561 81.0104592,173.550559 C76.6838921,179.468556 70.0769517,183.157656 62.9045686,183.660296 C46.5820467,184.750283 29.0914347,183.375125 29.0914347,177.221768 C29.0852868,166.112773 25.3228072,62 66.7223788,62 Z"
                          id="_Path_12" fill="#B3E0E2"></path>
                    <path d="M46.0699925,183.821415 C51.61188,184.104065 57.1652971,184.051159 62.7010572,183.662975 C69.9372748,183.156515 76.6017376,179.466561 80.9660264,173.550098 C85.3303152,167.633635 86.964464,160.073548 85.4446587,152.830533 L66.5423367,62 C54.7888902,62 46.6409096,70.2388846 41,82.3310321 C41,82.3310321 46.2189274,74.1301731 46.1134318,87.5785678 C46.0079363,101.026962 42.0983949,150.137052 42.0983949,150.137052 C42.0983949,150.137052 74.8951027,130.268665 73.6105392,155.619079 C72.4128543,178.859071 63.8490971,182.915137 46.0699925,183.821415 Z"
                          id="Path" fill="url(#linearGradient-5)"></path>
                    <path d="M48.5526228,161 C48.5526228,161 41.3193003,158.17789 36.4246149,152.058105 C35.6154085,151.070552 34.9008679,149.999381 34.2916368,148.860548 C32.7892029,146.182153 31.9972009,143.11989 32,140 C32,140 59.1293738,149.730334 48.5526228,161 Z"
                          id="_Path_13" fill="url(#linearGradient-6)"></path>
                    <path d="M42,149.595793 C42,149.595793 41.0967742,150.088655 37.416129,152 L37.0491935,151.555222 C36.2717732,150.606639 35.5853001,149.577739 35,148.483847 L38.2741935,144 L42,149.595793 Z" id="_Path_14" fill="#F9AA8F"></path>
                    <path d="M67.5589587,75.3931821 C70.545328,88.1946408 76.7986231,128.827814 42.0844181,149 L38.1129834,144.121759 C34.6797341,139.8931 34.0282038,134.029991 36.4483475,129.141729 C40.1891023,121.544983 45.0583182,107.76411 46.1680755,86.1918623 C46.5608548,78.5700031 51.7792078,71.9150025 59.1484948,70.2073043 L59.4165823,70.1445213 C63.0948642,69.3820478 66.706525,71.7101621 67.5589587,75.3931821 Z"
                          id="_Path_15" fill="#B3E0E2"></path>
                    <path d="M58.0277229,47.7940457 C58.0277229,47.7940457 60.6216618,42.9678627 64.001265,44.2018994 C67.3808682,45.4359361 71.2405994,48.9425551 71.6209607,45.631427 C72.3135276,47.8172069 72.0493397,50.1865437 70.8914153,52.174265 C68.9901729,55.4387814 65.3140101,57.3101249 61.4946221,56.9576843 C61.0752804,56.9172418 60.6588229,56.8519586 60.247536,56.7621934 C59.9254163,56.6931107 59.6874267,56.4255768 59.6615875,56.1035045 C59.6357482,55.7814321 59.8281511,55.4807538 60.1352983,55.3632112 C62.3239343,54.5140474 65.1922322,52.7851742 63.4338409,49.9200099 C61.2888529,46.4317181 59.1376295,49.0219733 58.3519653,50.2132463 C58.1604214,50.5100267 57.7772167,50.6265427 57.4478279,50.4881555 C57.2580554,50.4090844 57.1108623,50.2556164 57.0421038,50.065135 C56.9733453,49.8746536 56.9893332,49.6646445 57.0861729,49.4862643 L58.0277229,47.7940457 Z"
                          id="Path" fill="#8E241C"></path>
                    <path d="M71.5135135,52.1085737 C71.6979692,51.7830506 71.8604879,51.4457373 72,51.0988537 C71.039501,52.9014827 69.5613306,52.7528123 65.7130977,49.6121493 C61.8648649,46.4714863 60,48.8873809 60,48.8873809 C61.035343,47.9024393 62.5571726,47.3139521 64.0790021,49.8227658 C65.8440748,52.7280339 62.975052,54.4811061 60.7796258,55.3421557 C60.472401,55.4613435 60.2799494,55.7662305 60.3057952,56.0928109 C60.331641,56.4193913 60.5696907,56.6906698 60.8918919,56.7607194 C61.3032655,56.8518308 61.7198337,56.9180286 62.1392931,56.9589467 C65.9513321,57.3078097 69.6167913,55.4112419 71.5135135,52.1085737 Z"
                          id="Path" fill="url(#linearGradient-7)"></path>
                    <path d="M26.2996187,22.427675 C26.0395338,22.9001733 25.89035,23.4259711 25.8634249,23.9650377 C25.8197027,24.4196837 25.5295526,24.8130653 25.1089276,24.9879752 C24.165806,25.4018805 23.6176166,26.4898603 23.3405746,27.3531486 C23.0864551,28.0746629 22.3997389,28.5513843 21.6370612,28.5357352 L20.0042819,28.5357352 C19.9217588,29.1684191 21.0593992,33 21.0593992,33 L26.7063398,32.2076669 C29.2090704,29.6129759 29.7193566,25.6789411 27.9618705,22.5281949 C27.806086,22.2226219 27.5008848,22.0224153 27.1593606,22.0017626 C26.8178363,21.9811099 26.4908693,22.143088 26.2996187,22.427675 Z"
                          id="Path" fill="#F9AA8F"></path>
                    <path d="M11.6672841,116.018502 L12.4881558,116.546719 C13.1411663,116.969162 13.9282974,117.103334 14.6761519,116.919679 C15.4240063,116.736024 16.0712303,116.249609 16.4752469,115.567585 L20.838828,108.204758 C23.082039,104.438758 21.976973,99.4879827 18.370041,97.1444131 L15.3951526,95.2119125 C11.7868285,92.8706784 7.04333273,94.0240332 4.79788412,97.78858 L0.434302998,105.151407 C0.0295469582,105.832953 -0.0990078715,106.65448 0.0769578768,107.435014 C0.252923625,108.215548 0.718973786,108.891054 1.37244208,109.312725 L2.19331378,109.840942"
                          id="Path" stroke="#FFFFFF" stroke-width="5"></path>
                    <path d="M2.06235341,108.703499 L2.41719225,108.707993 C2.81317116,108.713008 3.13293787,109.032825 3.13789042,109.428805 L3.17017089,112.009777 C3.17521295,112.412914 2.85249378,112.743808 2.44935744,112.74885 C2.44323294,112.748926 2.43710772,112.748926 2.43098323,112.748848 L2.07614439,112.744354 C1.68016548,112.739339 1.36039878,112.419522 1.35544622,112.023542 L1.32316576,109.44257 C1.31812369,109.039433 1.64084287,108.708539 2.04397921,108.703497 C2.0501037,108.703421 2.05622893,108.703421 2.06235341,108.703499 Z"
                          id="Rectangle" stroke="#FFFFFF" stroke-width="5" transform="translate(2.246668, 110.726173) rotate(31.750000) translate(-2.246668, -110.726173) "></path>
                    <path d="M12.0928358,115.085669 L12.4476746,115.090163 C12.8436535,115.095178 13.1634202,115.414995 13.1683728,115.810975 L13.2006533,118.391947 C13.2056953,118.795083 12.8829761,119.125977 12.4798398,119.13102 C12.4737153,119.131096 12.4675901,119.131096 12.4614656,119.131018 L12.1066268,119.126524 C11.7106479,119.121509 11.3908811,118.801692 11.3859286,118.405712 L11.3536481,115.82474 C11.3486061,115.421603 11.6713252,115.090709 12.0744616,115.085667 C12.0805861,115.085591 12.0867113,115.085591 12.0928358,115.085669 Z"
                          id="Rectangle" stroke="#FFFFFF" stroke-width="5" transform="translate(12.277151, 117.108343) rotate(31.750000) translate(-12.277151, -117.108343) "></path>
                    <circle id="Oval" stroke="#FFFFFF" stroke-width="5" fill="#FFFFFF" cx="98" cy="112" r="5"></circle>
                </g>
            </g>
        </g>
    </g>
</svg>