<svg width="87px" height="217px" viewBox="0 0 87 217" version="1.1" xmlns="http://www.w3.org/2000/svg">
    <defs>
        <linearGradient x1="-212.738302%" y1="46.2549372%" x2="643.298671%" y2="60.5170557%" id="linearGradient-1">
            <stop stop-color="#F78E6B" offset="0%"></stop>
            <stop stop-color="#F9AA8F" offset="100%"></stop>
        </linearGradient>
        <linearGradient x1="36.0063517%" y1="40.3346324%" x2="204.605002%" y2="160.771101%" id="linearGradient-2">
            <stop stop-color="#635FA9" offset="0%"></stop>
            <stop stop-color="#312C8F" offset="100%"></stop>
        </linearGradient>
        <linearGradient x1="36.5714286%" y1="84.7619048%" x2="124%" y2="-19.047619%" id="linearGradient-3">
            <stop stop-color="#635FA9" offset="0%"></stop>
            <stop stop-color="#312C8F" offset="100%"></stop>
        </linearGradient>
        <linearGradient x1="-29.4734634%" y1="79.6482073%" x2="140.759387%" y2="-6.02281634%" id="linearGradient-4">
            <stop stop-color="#635FA9" offset="0%"></stop>
            <stop stop-color="#312C8F" offset="100%"></stop>
        </linearGradient>
        <linearGradient x1="40.6628276%" y1="51.2846302%" x2="167.046656%" y2="-62.3799945%" id="linearGradient-5">
            <stop stop-color="#635FA9" offset="0%"></stop>
            <stop stop-color="#312C8F" offset="100%"></stop>
        </linearGradient>
        <linearGradient x1="73.3514448%" y1="44.873679%" x2="-121.560879%" y2="74.5264756%" id="linearGradient-6">
            <stop stop-color="#635FA9" offset="0%"></stop>
            <stop stop-color="#312C8F" offset="100%"></stop>
        </linearGradient>
        <linearGradient x1="47.6226972%" y1="109.887803%" x2="53.7843864%" y2="-144.341743%" id="linearGradient-7">
            <stop stop-color="#635FA9" offset="0%"></stop>
            <stop stop-color="#312C8F" offset="100%"></stop>
        </linearGradient>
        <linearGradient x1="96.0473277%" y1="128.095685%" x2="-75.981201%" y2="-152.470294%" id="linearGradient-8">
            <stop stop-color="#F78E6B" offset="0%"></stop>
            <stop stop-color="#F9AA8F" offset="100%"></stop>
        </linearGradient>
        <linearGradient x1="0.00864304235%" y1="49.9461872%" x2="100%" y2="49.9461872%" id="linearGradient-9">
            <stop stop-color="#D6EFFA" offset="0%"></stop>
            <stop stop-color="#C4DDE8" offset="100%"></stop>
        </linearGradient>
        <linearGradient x1="-0.00516271954%" y1="50.1051948%" x2="99.9381539%" y2="50.1051948%" id="linearGradient-10">
            <stop stop-color="#8DA4D4" offset="0%"></stop>
            <stop stop-color="#6A84BA" offset="100%"></stop>
        </linearGradient>
        <linearGradient x1="219.753086%" y1="26.381113%" x2="-226.781893%" y2="86.2723915%" id="linearGradient-11">
            <stop stop-color="#F78E6B" offset="0%"></stop>
            <stop stop-color="#F9AA8F" offset="100%"></stop>
        </linearGradient>
        <linearGradient x1="80.0784961%" y1="107.25374%" x2="-1.76218913%" y2="-84.6740051%" id="linearGradient-12">
            <stop stop-color="#721A14" offset="0%"></stop>
            <stop stop-color="#8E241C" offset="100%"></stop>
        </linearGradient>
    </defs>
    <g id="Welcome" stroke="none" stroke-width="1" fill="none" fill-rule="evenodd">
        <g id="Software" transform="translate(-308.000000, -2883.000000)">
            <g id="Group-36" transform="translate(116.000000, 1336.000000)">
                <g id="Group-46" transform="translate(0.000000, 1317.000000)">
                    <g id="bimar" transform="translate(235.500000, 338.500000) scale(-1, 1) translate(-235.500000, -338.500000) translate(192.000000, 230.000000)">
                        <path d="M5.35693528,54.8944208 C5.35693528,54.8944208 9.03292969,70.2273483 2.71940928,89.8714786 C-3.59411113,109.515609 2.78833418,121.436487 4.83310607,122.842005 C5.9313094,123.594454 6.70326823,121.526402 7.18114751,119.448885 C7.2387168,119.181761 7.43502088,118.96934 7.69122909,118.896925 C7.94743729,118.824509 8.22152115,118.903979 8.40341565,119.103421 C8.75723011,119.515139 9.32241425,119.515139 10.1954629,118.578126 C12.810014,115.786019 10.0943731,113.58546 11.2201464,104.991449 C12.3459197,96.3974376 18.4848303,90.4251677 19.7346684,84.0790393 C20.9845065,77.732911 22,54 22,54"
                              id="Path" fill="#F9AA8F"></path>
                        <path d="M21.0751011,84.438061 C21.8558637,80.698456 22.548238,70.9347217 23,63.5266068 L22.8625072,63.3085817 L9.152513,56 L6,56.5924596 C6.8654372,61.7494716 7.07814714,66.9889104 6.63344887,72.1954758 C6.63344887,72.1954758 10.6747545,74.0913465 13.2380127,73.863842 C15.8012709,73.6363375 9.51588677,88.8649192 9.51588677,88.8649192 C9.51588677,88.8649192 12.530907,94.2728905 9.93327556,99.7235189 C7.33564414,105.174147 11.8974581,113.49702 9.93327556,115.217522 C7.96909301,116.938025 6.3486424,121.379102 6.98700173,122 C7.2770296,121.304996 7.50857019,120.588567 7.67937608,119.857666 C7.74089772,119.59013 7.9506788,119.377382 8.22447666,119.304855 C8.49827452,119.232328 8.79117525,119.311921 8.98555748,119.51167 C9.36366262,119.924022 9.96764876,119.924022 10.9006355,118.985566 C13.6946852,116.189156 10.7926054,113.985206 11.9956672,105.377953 C13.1987291,96.7707002 19.7443674,90.7939677 21.0751011,84.438061 Z"
                              id="Path" fill="url(#linearGradient-1)"></path>
                        <path d="M29,32 C29,32 2.40023532,33.0652082 0.0175279876,60.7511949 C-0.124976609,62.1253671 0.611429219,63.4420362 1.8628183,64.0505123 C9.00820106,67.3389269 16.9301784,68.6110092 24.7577347,67.7268946" id="Path"
                              fill="#6161AD"></path>
                        <path d="M22.3406114,33.1243657 C22.0262009,33.209256 21.7070266,33.3035786 21.3878523,33.4026173 C7.1488686,38.6752499 5.8721715,53.521625 6.51052005,60.3175673 C6.98689956,65.2129095 5.0813815,65.3921225 4,65.1091547 C10.5162965,67.5992462 17.5422174,68.5002417 24.4843192,67.7360387 L28,38.1847724 C27.1568083,34.5722174 25.4370782,32.4499592 22.3406114,33.1243657 Z"
                              id="Path" fill="url(#linearGradient-2)"></path>
                        <path d="M50.5222775,106.534118 L33.9604181,85 L21.4770121,105.776471 L21,198.807059 C21,200.018187 21.9952156,201 23.2228763,201 L30.4877702,201 L41.654623,152.807059 L51.3522785,199.150588 C51.5919177,200.229727 52.5602867,200.999079 53.6800974,201 L61.1834974,201 L68,97.1976471 L50.5222775,106.534118 Z"
                              id="Path" fill="#6161AD"></path>
                        <path d="M27,98 L26,97.952381 L26.3428571,97 C26.5768597,97.3049655 26.7965461,97.639271 27,98 Z" id="Path" fill="url(#linearGradient-3)"></path>
                        <path d="M43,162.950983 L40.9647577,152.872058 L30.1608978,200.999748 L23.1552339,200.999748 C22.5890144,201.008542 22.0428149,200.786431 21.6380808,200.382801 C21.2333468,199.979171 21.0036274,199.427479 21,198.850393 L21.4845815,105.840209 L25.998112,98 C26.2657856,98 26.5334592,98.075251 26.8057478,98.075251 C30.0824418,101.626156 33.1883784,113.370008 34.9605622,121.120857 C35.8835746,125.287879 36.4743025,128.321433 36.4743025,128.321433 L43,162.950983 Z"
                              id="Path" fill="url(#linearGradient-4)"></path>
                        <path d="M68,103.306803 L61.5095781,201 L57.6548361,201 C57.4813439,200.999613 57.3340515,200.875664 57.3079093,200.708055 C57.4765542,199.888726 59.322012,120.329066 44.4186156,121.332038 C41.4481232,121.536094 38.4639791,121.438254 35.5141615,121.040093 C33.6638853,113.280013 30.4210836,101.555134 27,98 C32.4014573,98.1695163 38.5015866,98.4708787 43.3826537,98.6969004 L44.7125397,98.7675322 L50.7596662,106.551157 L53.2315196,105.242114 L60.5748031,101.333821 L68,103.306803 Z"
                              id="Path" fill="url(#linearGradient-5)"></path>
                        <path d="M23.6384502,201.004834 L23.6384502,206.689426 C23.63931,208.677163 22.4306099,210.454496 20.6108302,211.14139 C18.9979858,211.750453 16.946561,212.253172 15.0083182,211.94864 C12.339108,211.532931 11.9524027,213.843505 12.0042778,215.477341 C12.024706,216.322626 12.6978892,216.997642 13.5228037,217 L24.9211802,217 C26.6791999,216.998981 28.1907779,215.723026 28.5288584,213.954683 L31,201"
                              id="Path" fill="#8DA4D4"></path>
                        <path d="M53.6403236,201 L54.3102369,208.29426 C54.3987495,209.208435 54.1283494,210.121061 53.559554,210.827888 C52.9907586,211.534714 52.1710611,211.976721 51.2839155,212.054985 C50.5173182,212.109838 49.7471573,212.074159 48.9884085,211.94864 C46.3368637,211.532931 45.9527177,213.843505 46.0042495,215.477341 C46.0245424,216.322626 46.6932704,216.997642 47.5127255,217 L56.8821416,217 C58.8430351,216.999005 60.4535965,215.401173 60.5315292,213.379456 L61,201"
                              id="Path" fill="#8DA4D4"></path>
                        <path d="M28.516018,32.0000009 C28.516018,32.0000009 13.9352693,31.9436149 16.2488375,59.427091 C18.5480357,86.7461079 18.3037459,99.9780226 18.0642461,104.695651 C17.9917741,106.084228 18.6969436,107.401072 19.9036047,108.130498 C22.7249125,109.840874 28.496858,112.725957 36.8841415,113.966449 C37.7779987,114.092085 38.685952,113.861824 39.4057411,113.326961 C40.1255302,112.792097 40.5973655,111.99706 40.7161386,111.118956 L42.703987,96.7311287 L46.7994339,111.499562 C47.2607579,113.162544 48.9403858,114.204567 50.6697509,113.900666 C56.2405165,112.932706 67.6311277,110.301359 69.9925959,104.667458 C71.9085944,100.151879 78.0062597,33.8090518 52.0205298,32.0892788"
                              id="Path" fill="#6161AD"></path>
                        <path d="M31,36.6855062 C31,36.6855062 31.9385033,44.3447039 38.1560879,47.5136969 C44.3736725,50.68269 41.4126945,72.5688473 42.5576686,83.9762649 C43.7026426,95.3836824 69,78.9116204 69,78.9116204 L60.708323,42.0038616 L54.8192146,34 L31,36.6855062 Z"
                              id="Path" fill="url(#linearGradient-6)"></path>
                        <g id="Group" opacity="0.49" transform="translate(18.000000, 80.000000)" fill="url(#linearGradient-7)">
                            <path d="M53.7678947,0.247333333 L5.99210526,2.89333333 L0.189473684,3.66333333 C0.402631579,8.18533333 0.511578947,11.9606667 0.558947368,15.0826667 C0.558947368,15.0826667 24.0631579,14.7186667 24.3142105,15.694 C24.5652632,16.6693333 25.4984211,20.202 25.5031579,20.216 L28.8568421,32.3493333 C29.3130469,34.000931 30.9740361,35.0358211 32.6842105,34.734 C36.1192724,34.1562222 39.4967592,33.2849331 42.7784211,32.13 C40.1494737,32.942 35.4173684,33.4086667 34.7257895,26.6186667 C33.7357895,17.1453333 52.5315789,20.1413333 53.4742105,11.998 C53.6684211,8.47933333 53.7963158,4.47066667 53.7678947,0.247333333 Z"
                                  id="Path"></path>
                        </g>
                        <path d="M53.5175367,33 C53.5175367,33 67.0664384,33.0957016 81.0886433,52.3412859 C95.1108482,71.5868702 76.7858869,92.2249123 55.3390369,91.9378076 C33.8921868,91.6507029 23.3504337,91.9378076 23.3504337,91.9378076 C23.3504337,91.9378076 9.2708587,93.1580026 12.4740218,84.7889009 C15.6771848,76.4197992 67.1190276,82.3628662 65.1158555,70.8499682 C63.1126834,59.3370702 46.9104152,62.9593743 53.5175367,33 Z"
                              id="Path" fill="#F9AA8F"></path>
                        <path d="M84.1861162,60 L63.4920527,66.6791745 C63.6375022,66.9387117 63.775215,67.2091932 63.9051912,67.4906191 C66.1565642,69.1979362 71.8615898,73.8930582 71.3324011,77.3780488 C70.6871622,81.7073171 63,82.706379 63,82.706379 L63,90 C77.3345151,86.6275797 88.1086114,73.7711069 84.1861162,60 Z"
                              id="Path" fill="url(#linearGradient-8)"></path>
                        <path d="M64,88.1120679 C64,83.539375 62.1946658,79.2826813 59.06605,75.6301035 C58.5722317,75.0521051 57.7593716,74.8466829 57.0433196,75.1189285 C44.8171427,79.8867973 12.1793472,77.6608624 9.49970193,84.5384898 C6.54594835,92.1131741 17.5339117,92.0945859 20.312803,91.9737627 C20.9744438,91.9458804 21.6313586,91.9179981 22.2929994,91.9087041 C25.8753118,91.8436454 36.5891668,91.699587 54.6141526,91.9365863 C57.2664428,91.9688784 59.9139784,91.7069894 62.5065822,91.1558827 C63.2734433,90.9957809 63.8468279,90.366199 63.9243839,89.5991224 C63.97637,89.0972415 64,88.6046547 64,88.1120679 Z"
                              id="Path" fill="#D6EFFA"></path>
                        <path d="M83.2672402,52.5946303 C69.3618508,33.9813517 51.7575141,33 51.7575141,33 C46.0504316,58.2883217 55.7358953,59.3159635 59.6148169,66.5603756 C59.9958462,67.2539334 60.707266,67.714586 61.5092842,67.7870652 C62.8526513,67.9286377 64.202818,67.9997179 65.5539717,68 C72.6582238,68 79.0188975,68 85.7016306,62.9080809 C86.7892357,62.0742825 87.2501949,60.6787368 86.866728,59.3807697 C86.103224,56.9219684 84.883055,54.6215753 83.2672402,52.5946303 Z"
                              id="Path" fill="#6161AD"></path>
                        <path d="M25.2886609,78 C25.2886609,78 13.3520854,30.2057436 34.9609887,27.6094656 C52.2240748,25.5343383 56.8342947,27.9790088 54.3921761,47.2947486 C51.9500576,66.6104885 50.950135,74.7736034 50.950135,74.7736034" id="Path"
                              stroke="#D6EFFA" stroke-width="3"></path>
                        <path d="M32.4087685,58.3197937 L31.2533849,58.3197937 C30.9293494,58.3197937 30.6666667,58.057111 30.6666667,57.7330754 L30.6666667,56.5867182 C30.6666667,56.4311109 30.6048519,56.2818768 30.4948209,56.1718458 C30.3847899,56.0618148 30.2355558,56 30.0799484,56 L28.9065119,56 C28.7509046,56 28.6016705,56.0618148 28.4916395,56.1718458 C28.3816085,56.2818768 28.3197937,56.4311109 28.3197937,56.5867182 L28.3197937,57.7330754 C28.3197937,58.057111 28.057111,58.3197937 27.7330754,58.3197937 L26.5867182,58.3197937 C26.4311109,58.3197937 26.2818768,58.3816085 26.1718458,58.4916395 C26.0618148,58.6016705 26,58.7509046 26,58.9065119 L26,60.0934881 C26,60.4175236 26.2626827,60.6802063 26.5867182,60.6802063 L27.7330754,60.6802063 C28.057111,60.6802063 28.3197937,60.942889 28.3197937,61.2669246 L28.3197937,62.4132818 C28.3197937,62.7373173 28.5824764,63 28.9065119,63 L30.0934881,63 C30.2490954,63 30.3983295,62.9381852 30.5083605,62.8281542 C30.6183915,62.7181232 30.6802063,62.5688891 30.6802063,62.4132818 L30.6802063,61.2669246 C30.6802063,60.942889 30.942889,60.6802063 31.2669246,60.6802063 L32.4132818,60.6802063 C32.7373173,60.6802063 33,60.4175236 33,60.0934881 L33,58.9065119 C33.0000046,58.7501194 32.9375707,58.6001973 32.8265616,58.4900356 C32.7155525,58.3798739 32.5651564,58.3185907 32.4087685,58.3197937 Z"
                              id="Path" fill="#8989E5"></path>
                        <path d="M63.9334486,89.5783251 C63.9762316,89.0907701 64,88.5985716 64,88.1017298 C64,83.5326423 62.1840968,79.2793047 59.0371651,75.6296067 C58.5404557,75.052064 57.7228369,74.8468038 57.0025929,75.1188348 C56.1581741,75.4399021 55.2964836,75.7158178 54.4213483,75.9453567 C56.9191608,77.4570105 58.6236642,79.9519049 59.0942092,82.7850578 C59.8405359,87.5166637 53.3898012,87.8927776 45.5509939,87.2752079 C37.7121867,86.6576381 26.5363008,87.3959358 16.6058773,89.5968987 C11.6763181,90.6788066 9.72255834,89.7315567 9,88.4964172 C10.6305099,92.0996814 17.8560933,92.0671777 20.0522904,91.9743101 C20.7178047,91.9464498 21.3785653,91.9185895 22.0440795,91.9093027 C25.6473639,91.8442954 36.4239412,91.7003505 54.5544512,91.937163 C57.2222687,91.9694296 59.8853039,91.7077471 62.4930856,91.1570749 C63.2777994,90.9998676 63.8635807,90.3578058 63.9334486,89.5783251 Z"
                              id="Path" fill="url(#linearGradient-9)"></path>
                        <path d="M51.7525724,73.7246253 C51.1181484,73.0502903 50.1179948,72.8204522 49.2351695,73.1461189 C43.1575089,75.3761676 33.0636448,76.3092424 22.8776215,77.1303482 C22.5284972,77.1625078 22.2246054,77.3734131 22.0828173,77.6819539 C21.9410291,77.9904947 21.983426,78.3486204 22.1937028,78.6186024 C27.3643222,84.5249657 27.3788737,88.3412415 26.6658521,91.3037538 C26.5808658,91.6887421 26.6842955,92.0899486 26.9464366,92.3921486 C27.2085777,92.6943487 27.6004233,92.8641027 28.009437,92.8526579 C33.2188604,92.8713194 39.2819695,92.9195283 46.1987644,92.9972845 C49.535373,93.0327946 52.866136,92.7199383 56.1325624,92.0642098 C57.0823316,91.8943981 57.8061411,91.1490249 57.9175417,90.2260525 C57.9708971,89.6475461 58,89.0690398 58,88.4812027 C57.9805981,83.0833652 55.700869,78.0260999 51.7525724,73.7246253 Z"
                              id="Path" fill="#8DA4D4"></path>
                        <path d="M48.7648294,86.7977436 C41.7097342,86.0738652 29.6590193,87.5314708 28.2118203,87.7087472 C28.4367946,89.2017751 28.3752633,90.7276708 28.0309204,92.1948241 C27.9444501,92.6042192 28.0416078,93.0330434 28.2939852,93.3559115 C28.5463626,93.6787796 28.9254526,93.8592222 29.3204118,93.8444792 C34.3021161,93.8641765 40.1001891,93.9150614 46.7146308,93.9971338 C49.9053864,94.034615 53.0905522,93.7043924 56.2141935,93.0122651 C57.1224455,92.8330274 57.8146153,92.0462793 57.9211462,91.0720738 C57.9721692,90.4614552 58,89.8508366 58,89.2303693 C57.9994713,88.1487251 57.9203831,87.0687343 57.7634386,86 C57.7634386,86 56.2234704,87.5659412 48.7648294,86.7977436 Z"
                              id="Path" fill="url(#linearGradient-10)"></path>
                        <path d="M45.741477,18.4407923 C47.0950536,16.5332119 47.8402281,14.4048033 47.5996971,12.2482038 C46.9834314,6.9348963 42.7937261,2.73383064 37.4643799,2.08540489 C32.2057114,1.46990482 28.0648047,4.23260743 25.5227218,8.71495146 C25.5227218,8.71495146 22.1741526,13.8832727 23.1928723,16.1902233 C23.3818096,16.6340309 23.643164,17.0436325 23.9663446,17.4024296 C25.285917,18.8224694 26.200951,20.5677653 26.6169022,22.4579874 C27.1592761,24.962274 27.9327484,25.6388542 29.8381315,25.8220947 L30.102244,25.8220947 C30.984191,25.9113657 33.6630464,26.3859115 33.271594,28.8573088 C32.7999645,31.8032519 28.8571422,31.7233778 28.8571422,31.7233778 C28.8571422,31.7233778 31.1162473,43.0654936 41.0204661,42.999715 C50.1040496,42.9574287 52,31.784458 52,31.784458 C52,31.784458 41.6807473,29.4493165 45.741477,18.4407923 Z"
                              id="Path" fill="#F9AA8F"></path>
                        <g id="Group" opacity="0.49" transform="translate(23.000000, 4.000000)" fill="url(#linearGradient-11)">
                            <path d="M22.6057377,14.7 C23.9701639,12.7666667 24.7213115,10.6095238 24.4788525,8.42380952 C24.3124116,6.9516293 23.8636457,5.52550881 23.1572131,4.22380952 L6.35147541,0.123809524 C4.83046927,1.24560228 3.54868909,2.66062802 2.58147541,4.28571429 C2.92852459,4.76190476 3.53229508,5.6047619 4.22639344,6.41904762 C5.14868852,7.5047619 2.57196721,8.94761905 2.28196721,11.3142857 C1.99196721,13.6809524 0.294754098,13.2190476 0.0190163934,12.7 C0.192595404,13.0452224 0.411655439,13.3655432 0.670327869,13.652381 C1.6675523,14.7436013 2.43550835,16.0245502 2.92852459,17.4190476 C2.92852459,17.4190476 2.45311475,8.37142857 7.20721311,7.81904762 C11.9613115,7.26666667 14.0008197,12.2571429 12.0516393,17.0714286 C10.3544262,21.2714286 8.90918033,22.4809524 6.50360656,22.1809524 L6.57967213,22.1809524 L6.84590164,22.1809524 C7.33294759,22.2315816 7.81194264,22.3419314 8.27213115,22.5095238 C9.17720185,22.6592923 10.0897628,22.7594414 11.0057377,22.8095238 C13.6585246,22.9333333 19.2065574,26.6666667 16.8437705,31.647619 C14.4809836,36.6285714 18.3365574,36.0047619 18.7454098,37.5380952 C19.1019672,38.852381 17.3619672,39.5857143 15.854918,39.4428571 C16.5086474,39.5501997 17.1701736,39.6027627 17.832623,39.6 C26.9890164,39.5571429 28.9001639,28.2333333 28.9001639,28.2333333 C28.9001639,28.2333333 18.512459,25.8571429 22.6057377,14.7 Z"
                                  id="Path"></path>
                        </g>
                        <path d="M25.0588128,4.58776719 C25.0588128,4.58776719 27.1266697,9.48016664 33.4867527,9.53221344 C38.3054286,9.57006566 39.728266,12.6739477 39.7994078,14.4624651 C39.7994078,14.9850952 40.2240918,15.4087706 40.7479661,15.4087706 C41.1540218,15.4077909 41.5144166,15.1490751 41.6443536,14.7652829 C41.9146927,13.8994133 42.7589095,12.1108959 44.8979084,12.6881423 C48.4550018,13.6344478 46.2164043,19 46.2164043,19 C46.2164043,19 55.5739314,8.07017144 48.1135208,3.45693211 C40.6531102,-1.15630722 23.8826006,-1.51117178 25.0588128,4.58776719 Z"
                              id="Path" fill="#8E241C"></path>
                        <path d="M34,9.47558566 C38.0859677,9.95540502 39.3431885,12.7335591 39.4021208,14.3985323 C39.4021208,14.9285261 39.8418684,15.358171 40.3843245,15.358171 C40.8047832,15.3571775 41.1779612,15.0948165 41.3125071,14.7056167 C41.5924352,13.8275473 42.4665965,12.0138301 44.6814661,12.5992097 C48.3598192,13.5588484 46.0467293,19 46.0467293,19 C46.0467293,19 55.7361696,7.91617273 48.0111369,3.23793395 C47.2142578,2.76164617 46.3800553,2.34770977 45.5163393,2 C50.8005956,4.24075642 45.3837418,8.56392887 40.2959262,4.66779565 C35.2081106,0.771662433 36.0626279,4.06802145 37.0448317,6.76940446 C37.8453278,8.88540785 35.1639115,9.36522721 34,9.47558566 Z"
                              id="Path" fill="url(#linearGradient-12)"></path>
                    </g>
                </g>
            </g>
        </g>
    </g>
</svg>