<svg width="88px" height="319px" viewBox="0 0 88 319" version="1.1" xmlns="http://www.w3.org/2000/svg">
    <defs>
        <linearGradient x1="-13.3610464%" y1="61.3007792%" x2="188.349407%" y2="27.1966683%" id="linearGradient-1">
            <stop stop-color="#FFFFFF" stop-opacity="0" offset="0%"></stop>
            <stop stop-color="#000000" offset="100%"></stop>
        </linearGradient>
        <linearGradient x1="41.2561289%" y1="177.353649%" x2="57.6465095%" y2="-61.4894354%" id="linearGradient-2">
            <stop stop-color="#FFFFFF" stop-opacity="0" offset="0%"></stop>
            <stop stop-color="#000000" offset="100%"></stop>
        </linearGradient>
        <linearGradient x1="4601.3245%" y1="1127.05061%" x2="-5968.87417%" y2="-1374.52007%" id="linearGradient-3">
            <stop stop-color="#FFFFFF" stop-opacity="0" offset="0%"></stop>
            <stop stop-color="#000000" offset="100%"></stop>
        </linearGradient>
        <linearGradient x1="-89.322084%" y1="59.4805195%" x2="168.330353%" y2="39.2207792%" id="linearGradient-4">
            <stop stop-color="#FFFFFF" stop-opacity="0" offset="27%"></stop>
            <stop stop-color="#000000" offset="100%"></stop>
        </linearGradient>
        <linearGradient x1="112.395154%" y1="142.521819%" x2="-17.5209692%" y2="-51.7543632%" id="linearGradient-5">
            <stop stop-color="#FFFFFF" stop-opacity="0" offset="0%"></stop>
            <stop stop-color="#000000" offset="100%"></stop>
        </linearGradient>
        <linearGradient x1="-111.483093%" y1="100.848279%" x2="191.931704%" y2="5.40475036%" id="linearGradient-6">
            <stop stop-color="#FFFFFF" stop-opacity="0" offset="0%"></stop>
            <stop stop-color="#000000" offset="100%"></stop>
        </linearGradient>
        <linearGradient x1="51.882764%" y1="52.6306004%" x2="40.003882%" y2="24.5557674%" id="linearGradient-7">
            <stop stop-color="#FFFFFF" stop-opacity="0" offset="0%"></stop>
            <stop stop-color="#000000" offset="100%"></stop>
        </linearGradient>
        <linearGradient x1="46.1467277%" y1="281.097486%" x2="52.9229673%" y2="-149.275364%" id="linearGradient-8">
            <stop stop-color="#FFFFFF" stop-opacity="0" offset="0%"></stop>
            <stop stop-color="#000000" offset="100%"></stop>
        </linearGradient>
        <linearGradient x1="1.9790419%" y1="108.202001%" x2="127.442893%" y2="-77.7516301%" id="linearGradient-9">
            <stop stop-color="#FFFFFF" stop-opacity="0" offset="22%"></stop>
            <stop stop-color="#000000" offset="100%"></stop>
        </linearGradient>
        <linearGradient x1="67.4157769%" y1="50.4446322%" x2="-89.3219438%" y2="69.0361905%" id="linearGradient-10">
            <stop stop-color="#FFFFFF" stop-opacity="0" offset="5%"></stop>
            <stop stop-color="#000000" offset="100%"></stop>
        </linearGradient>
        <linearGradient x1="25.2185787%" y1="223.156829%" x2="68.2091251%" y2="-74.9960784%" id="linearGradient-11">
            <stop stop-color="#FFFFFF" stop-opacity="0" offset="5%"></stop>
            <stop stop-color="#000000" offset="100%"></stop>
        </linearGradient>
        <linearGradient x1="103.957884%" y1="42.0909503%" x2="-82.2694493%" y2="63.6803142%" id="linearGradient-12">
            <stop stop-color="#FFFFFF" stop-opacity="0" offset="5%"></stop>
            <stop stop-color="#000000" offset="100%"></stop>
        </linearGradient>
        <linearGradient x1="97.8358939%" y1="-97.8645804%" x2="-7.04144826%" y2="201.535772%" id="linearGradient-13">
            <stop stop-color="#FFFFFF" stop-opacity="0" offset="0%"></stop>
            <stop stop-color="#000000" offset="100%"></stop>
        </linearGradient>
        <linearGradient x1="50%" y1="171.971831%" x2="50%" y2="-5%" id="linearGradient-14">
            <stop stop-color="#FFD600" offset="0%"></stop>
            <stop stop-color="#FF9C38" offset="48%"></stop>
            <stop stop-color="#FF5147" offset="100%"></stop>
        </linearGradient>
        <linearGradient x1="112.086006%" y1="-8.90968986%" x2="-69.4752541%" y2="157.315012%" id="linearGradient-15">
            <stop stop-color="#ABCF9C" offset="0%"></stop>
            <stop stop-color="#84BC93" offset="25%"></stop>
            <stop stop-color="#228B7D" offset="82%"></stop>
            <stop stop-color="#007A75" offset="100%"></stop>
        </linearGradient>
        <linearGradient x1="-473.668008%" y1="2088.64855%" x2="-327.087575%" y2="2217.42886%" id="linearGradient-16">
            <stop stop-color="#ABCF9C" offset="0%"></stop>
            <stop stop-color="#84BC93" offset="25%"></stop>
            <stop stop-color="#228B7D" offset="82%"></stop>
            <stop stop-color="#007A75" offset="100%"></stop>
        </linearGradient>
        <linearGradient x1="108.598311%" y1="-27.5409453%" x2="73.9868243%" y2="109.771503%" id="linearGradient-17">
            <stop stop-color="#ABCF9C" offset="0%"></stop>
            <stop stop-color="#84BC93" offset="25%"></stop>
            <stop stop-color="#228B7D" offset="82%"></stop>
            <stop stop-color="#007A75" offset="100%"></stop>
        </linearGradient>
        <linearGradient x1="128.291656%" y1="-21.2984965%" x2="-7.2206791%" y2="182.86046%" id="linearGradient-18">
            <stop stop-color="#ABCF9C" offset="0%"></stop>
            <stop stop-color="#84BC93" offset="25%"></stop>
            <stop stop-color="#228B7D" offset="82%"></stop>
            <stop stop-color="#007A75" offset="100%"></stop>
        </linearGradient>
        <linearGradient x1="137.807738%" y1="-16.2356754%" x2="2.92580808%" y2="115.998016%" id="linearGradient-19">
            <stop stop-color="#ABCF9C" offset="0%"></stop>
            <stop stop-color="#84BC93" offset="25%"></stop>
            <stop stop-color="#228B7D" offset="82%"></stop>
            <stop stop-color="#007A75" offset="100%"></stop>
        </linearGradient>
        <linearGradient x1="136.119965%" y1="-10.4286161%" x2="-21.1605867%" y2="88.562273%" id="linearGradient-20">
            <stop stop-color="#ABCF9C" offset="0%"></stop>
            <stop stop-color="#84BC93" offset="25%"></stop>
            <stop stop-color="#228B7D" offset="82%"></stop>
            <stop stop-color="#007A75" offset="100%"></stop>
        </linearGradient>
        <linearGradient x1="77.6786118%" y1="-6.7640612%" x2="-7.57118895%" y2="172.364237%" id="linearGradient-21">
            <stop stop-color="#ABCF9C" offset="0%"></stop>
            <stop stop-color="#84BC93" offset="25%"></stop>
            <stop stop-color="#228B7D" offset="82%"></stop>
            <stop stop-color="#007A75" offset="100%"></stop>
        </linearGradient>
        <linearGradient x1="42.3926494%" y1="-6.34699951%" x2="60.0268355%" y2="130.80325%" id="linearGradient-22">
            <stop stop-color="#ABCF9C" offset="0%"></stop>
            <stop stop-color="#84BC93" offset="25%"></stop>
            <stop stop-color="#228B7D" offset="82%"></stop>
            <stop stop-color="#007A75" offset="100%"></stop>
        </linearGradient>
        <linearGradient x1="69.459441%" y1="-49.943719%" x2="172.847307%" y2="77.0395439%" id="linearGradient-23">
            <stop stop-color="#ABCF9C" offset="0%"></stop>
            <stop stop-color="#84BC93" offset="25%"></stop>
            <stop stop-color="#228B7D" offset="82%"></stop>
            <stop stop-color="#007A75" offset="100%"></stop>
        </linearGradient>
        <linearGradient x1="2.46781116%" y1="231.152993%" x2="75.751073%" y2="-48.1152993%" id="linearGradient-24">
            <stop stop-color="#FFD600" offset="0%"></stop>
            <stop stop-color="#FF9C38" offset="48%"></stop>
            <stop stop-color="#FF5147" offset="100%"></stop>
        </linearGradient>
        <linearGradient x1="2.46781116%" y1="231.208426%" x2="75.804721%" y2="-48.1152993%" id="linearGradient-25">
            <stop stop-color="#FFD600" offset="0%"></stop>
            <stop stop-color="#FF9C38" offset="48%"></stop>
            <stop stop-color="#FF5147" offset="100%"></stop>
        </linearGradient>
        <linearGradient x1="-60.5493437%" y1="70.0861829%" x2="137.019932%" y2="24.0200167%" id="linearGradient-26">
            <stop stop-color="#FFFFFF" stop-opacity="0" offset="0%"></stop>
            <stop stop-color="#000000" offset="100%"></stop>
        </linearGradient>
        <linearGradient x1="-17.0095492%" y1="79.6891492%" x2="258.835343%" y2="-34.3755525%" id="linearGradient-27">
            <stop stop-color="#FFFFFF" stop-opacity="0" offset="0%"></stop>
            <stop stop-color="#737373" stop-opacity="0.547317972" offset="54.7317972%"></stop>
            <stop stop-color="#000000" offset="100%"></stop>
        </linearGradient>
    </defs>
    <g id="Welcome" stroke="none" stroke-width="1" fill="none" fill-rule="evenodd">
        <g id="Software" transform="translate(-215.000000, -324.000000)">
            <g id="Group-14" transform="translate(215.000000, 277.000000)">
                <g id="tolid" transform="translate(0.000000, 47.000000)">
                    <g id="Group-9">
                        <path d="M51,51 C51,51 68.519988,54.3879903 67.9881313,66.99182 C67.4562745,79.5956497 62.3567065,85 62.3567065,85" id="Path" fill="#DB5753"></path>
                        <path d="M68.131869,136.594202 C68.131869,136.594202 100.301089,157.318825 70.0021725,294 L61.3239644,294 L53.9923748,205.53416 L41,163.732706 L41,135" id="Path" fill="#1B1C37"></path>
                        <path d="M35.7782219,130 C35.7782219,130 11.7074413,142.136247 27.5027392,204.73859 L6,295 L17.2244298,295 C17.2244298,295 69.9122844,216.548494 67.9463197,143.164533 L35.7782219,130 Z" id="Path" fill="#2E3151"></path>
                        <path d="M72.6085157,134.511379 C75.3969372,130.179932 65.550324,119.796834 70.7412692,101.097357 C79.6978283,68.7661962 65.5689965,63.9706652 60.0419468,57.591062 C60.0419468,57.591062 49.9712641,48.2598868 44.9919401,48.1361312 L28.1680492,48 C28.1680492,48 14.8545817,53.7793883 8.82959965,67.7452122 C4.42912208,77.9426768 18.8940583,92.6572222 20.4376487,111.282446 C21.6824797,126.133123 21.2779096,140.06182 24.1410209,144.220009 C27.0041322,148.378199 52.1497183,149.906581 64.3241655,148.477203 C83.5630285,146.218663 70.492303,137.834218 72.6085157,134.511379 Z"
                              id="Path" fill="#7B97FA"></path>
                        <path d="M65.2988582,142.762241 C65.2988582,142.762241 56.2449839,155.18434 43.4415253,152.66199 C30.6380667,150.13964 11,145.512171 11,145.512171 L31.3757898,59 C31.3757898,59 38.9725086,70.9542942 38.368917,80.9235813 C37.7653254,90.8928684 42.2160514,89.4957775 44.9718435,79.9942946 C47.7276355,70.4928117 66,109.807331 66,109.807331"
                              id="Path" fill="url(#linearGradient-1)" opacity="0.49" style="mix-blend-mode: color-burn;"></path>
                        <path d="M75.6544778,125.781317 C73.562476,123.30019 70.6481844,118.54883 70.7267856,111 L45,114.659663 L46.0097234,132.685054 C46.1095707,134.404545 46.9408326,135.992182 48.2831127,137.027027 L51.8927228,139.812093 C52.7185876,140.453402 53.7123279,140.827065 54.7465519,140.885181 C58.6342894,141.108482 68.5078126,141.325581 73.393181,138.230374 C74.3517992,137.616409 75.060745,136.666505 75.3884429,135.556959 L76.7790799,130.929657 C77.3044578,129.129753 76.8783508,127.179069 75.6544778,125.781317 Z"
                              id="Path" fill="#DDDBDB"></path>
                        <path d="M53.162036,140.885506 C56.5914079,141.077581 64.5092225,141.251067 69.9117441,139.429459 C57.8900304,142.298182 53.8491711,137.626438 58.0161102,134.416937 C62.1830493,131.207437 66.5706281,125.909902 53.2313799,124.540597 C39.8921317,123.171293 70,114.366852 70,114.366852 L62.6747607,112 L43,114.689041 L44.0527668,132.694464 C44.1568704,134.41205 45.023568,135.997928 46.4230679,137.031627 L50.1865515,139.813607 C51.0476219,140.454205 52.0837242,140.827454 53.162036,140.885506 Z"
                              id="Path" fill="url(#linearGradient-2)" opacity="0.49" style="mix-blend-mode: color-burn;"></path>
                        <g id="Group" opacity="0.49" style="mix-blend-mode: color-burn;" transform="translate(33.000000, 69.000000)" fill="url(#linearGradient-3)">
                            <path d="M0.0875354948,4.49726403 L1.03166833,0.387324175 C1.03166833,0.387324175 0.625253534,2.0011749 0.0875354948,4.49726403 Z" id="Path"></path>
                        </g>
                        <path d="M42.8406861,108 C42.8406861,108 38.7612736,108.530533 35.3015187,113.460315 C32.3387808,117.680733 31.0930108,121.94884 32.719612,123.045672 C34.3462132,124.142504 41.653009,126.079842 42.3501238,124.23788 C43.0472386,122.395918 42.3501238,121.448112 42.3501238,121.448112 C42.3501238,121.448112 45.9583384,119.957852 46.0293408,116.595824 C46.1003433,113.233795 52,108.470922 52,108.470922 L42.8406861,108 Z"
                              id="Path" fill="#F2BD91"></path>
                        <path d="M48.1466667,45 C48.1466667,45 53.3866667,51.5089121 53.5933333,56.1370621 C53.8,60.765212 54,65 54,65 L48,51.3675476" id="Path" fill="#7B97FA"></path>
                        <path d="M48.4027192,50.1509682 C50.4877953,54.9726889 52.1109659,59.9839484 53.2501282,65.116508 C53.2993512,65.3623671 53.4053969,65.5930843 53.559669,65.7899573 L54.6987791,67.2428618 C55.0144982,67.6416152 55.0881519,68.1824623 54.8906944,68.6521168 L52.2162619,75 L52.7300996,71.102724 C52.8409868,70.2355219 52.5432838,69.3659323 51.9252935,68.7518871 C47.3750437,64.1562192 27.8925456,51.1486708 27.1001211,49.8765999 C26.2086436,48.4299311 31.5636995,37 31.5636995,37"
                              id="Path" fill="#F2BD91"></path>
                        <path d="M31.8697342,36 C30.2511205,39.2216141 28.3547008,44.1336745 28,47.697453 L51,65 C51,65 46.7215121,51.0710574 51,47.2568929" id="Path" fill="#F2BD91"></path>
                        <path d="M21,52.3069169 L26.6774482,45.0396157 C27.1930012,43.9914473 28.3132152,43.6102951 29.0069841,44.4869451 C32.8258954,49.33393 41.8639855,60.368285 46.8285703,63.805007 C53.2316116,68.2517821 31.2983309,58.8563814 31.2983309,58.8563814 L21,52.3069169 Z"
                              id="Path" fill="#7B97FA"></path>
                        <path d="M51,46.9724675 C51,46.9724675 42.4161272,47.5958442 42.8759775,50.3262338 C43.3358278,53.0566234 47.1066005,52.4831169 44.3168419,53.7485714 C41.5270832,55.014026 42.4774406,58 42.4774406,58 C42.4774406,58 28.1852923,40.8633766 34.7029043,34"
                              id="Path" fill="url(#linearGradient-4)" opacity="0.49" style="mix-blend-mode: color-burn;"></path>
                        <path d="M57.4797084,9.77139607 C56.6436846,8.9875321 53.0659943,6.16935448 45.7446384,7.23939101 C37.279897,8.48361954 27.4750585,15.2397805 30.5917062,30.8797331 C33.7083539,46.5196857 57.3997944,46.0344365 57.3997944,40.4354082 C57.3413116,37.4068254 57.7034374,34.3849392 58.4755604,31.4582993 C61.6721221,31.3463188 61.5491774,30.4566954 61.930306,24.8078978 C62.6556796,13.5973988 57.4797084,9.77139607 57.4797084,9.77139607 Z"
                              id="Path" fill="#F2BD91"></path>
                        <path d="M39.6710158,29.9133123 C40.4852963,30.1907021 41.3788911,29.8863795 41.8760485,29.1623666 L42,29 C42,29 41.1258155,35.9682345 35,34.8857903" id="Path" fill="url(#linearGradient-5)" opacity="0.49"
                              style="mix-blend-mode: color-burn;"></path>
                        <path d="M61,20 C61,20 55.8717777,25.0896752 51.3582189,27.0588948 C46.8446602,29.0281144 47.9956478,31.6396025 50.0927352,31.9365002 C52.1898226,32.233398 51.8704386,34.9115366 51.6655507,35.8688803 C51.4606629,36.8262239 50.3518581,45 50.3518581,45 L43,36.9474067 C43,36.9474067 45.1573485,32.85143 45.5369936,29.3371304 C45.6827218,27.5580972 46.0222171,25.8005217 46.5493806,24.0959767 L49.0863743,22.0055744"
                              id="Path" fill="url(#linearGradient-6)" opacity="0.49" style="mix-blend-mode: color-burn;"></path>
                        <path d="M62,20.0441366 C61.7743931,18.1204376 61.2421035,16.2428712 60.4223602,14.4792643 C54.9813665,13.1531413 44.5279503,14.3581572 37.173913,20.8979418 C34.5521057,23.1441679 32.1504428,25.623428 30,28.3036424 C30.0993789,29.2603886 30.2484472,30.253467 30.4596273,31.2889329 C30.7979808,32.9568305 31.439549,34.5522987 32.3540373,36 C32.4037267,35.8728375 32.4409938,35.7880625 32.4409938,35.7880625 C32.4409938,35.7880625 39.7826087,17.6038281 62,20.0441366 Z"
                              id="Path" fill="url(#linearGradient-7)" opacity="0.49" style="mix-blend-mode: color-burn;"></path>
                        <path d="M57.5491498,30.7359521 C57.5491498,30.7359521 50.027729,29.9703627 49.2195899,35.7184575 C48.6150763,40.0403333 41.5836297,37.2372882 43.0917318,33.2488142 C44.5998339,29.2603403 43.9507773,24 43.9507773,24 L41.7745287,24 C41.7745287,24 43.180818,31.1063986 39.6682763,34.3107608 C36.1557346,37.515123 37.4920277,45.8810398 50.4858866,45.9983478 C64.0715324,46.12183 57.3455242,39.2932662 57.2628013,35.7246316 C57.2159713,34.0569175 57.311749,32.3883073 57.5491498,30.7359521 Z"
                              id="Path" fill="#1B1C37"></path>
                        <path d="M61,30.4620339 C60.8502094,30.5525827 60.144054,30.9094513 59.1008697,30.2596309 C57.9185942,29.5299145 57.4317749,30.5206243 58.9564288,31 C59.9621654,30.9627152 60.588076,30.8348817 61,30.4620339 Z" id="Path"
                              fill="url(#linearGradient-8)" opacity="0.49" style="mix-blend-mode: color-burn;"></path>
                        <path d="M60.4321868,14.6030997 C57.4637139,9.04937458 43.1221283,4.9932151 35.3630711,8.0489765 C27.6040138,11.1047379 27.6945161,23.7521948 28.1892615,26.5108683 C28.7624423,29.6939531 30.6569555,36.9695755 32.0929241,36.9998906 C33.5288927,37.0302057 38.796122,30.7489184 38.796122,30.7489184 C36.3827294,29.6211969 36.6663031,23.0852628 39.3994702,22.9943175 C42.1326373,22.9033722 42.3498427,25.2679495 42.3498427,25.2679495 L44.5399964,26.6927589 C44.5399964,25.3831469 44.3529585,25.6559827 45.487253,24.9162944 C47.2007618,23.806762 44.4736282,23.0973888 49.2340451,22.81849 C53.994462,22.5395911 63.4006597,20.1568248 60.4321868,14.6030997 Z"
                              id="Path" fill="#1B1C37"></path>
                        <path d="M61.9519272,13.6589149 C61.9519272,13.6589149 63.9073619,1.0190503 42.8754355,0.0702802133 C21.8435091,-0.878489874 16.6122497,7.94132679 21.9378227,16.7049663 C27.2633957,25.4686058 24.4151258,27.7156928 26.0058814,30.4059554 C27.1125578,32.1686989 28.5237247,33.7238663 30.1745412,35 C30.1745412,35 31.8596104,22.7096822 40.1969301,19.0893753 C48.5342498,15.4690684 61.9519272,13.6589149 61.9519272,13.6589149 Z"
                              id="Path" fill="#F2CF54"></path>
                        <path d="M43.5581527,0.0710647252 C22.8272406,-0.883755196 17.6398644,7.94676891 22.9264019,16.7086458 C28.2129394,25.4705228 25.3682493,27.7171579 26.9362375,30.4068793 C28.0270749,32.1692684 29.4180448,33.724123 31.0452345,35 C31.0452345,35 32.7061864,22.7121541 40.9241803,19.0925753 C42.5801172,18.3736679 44.2747058,17.7486257 46,17.2203794 C45.0765603,16.5339075 43.4465962,16.4402977 40.7010673,17.4887275 C30.4068835,21.4203389 43.7626729,12.8893661 45.659133,9.5568574 C47.5555931,6.22434866 35.9475219,8.98271732 35.0674652,4.41455927 C34.1874086,-0.153598786 43.5581527,0.0710647252 43.5581527,0.0710647252 Z"
                              id="Path" fill="url(#linearGradient-9)" opacity="0.49" style="mix-blend-mode: color-burn;"></path>
                        <path d="M30.8926471,33.8396624 C30.8926471,33.8396624 38.6771211,15.4612572 60.8300759,17.9727856 C60.8300759,17.9727856 61.9067837,16.5456392 61.9996033,12.2641999 C62.092423,7.98276061 45.8737374,6.65532747 35.5212533,16.1966426 C25.1687691,25.7379578 25.3915362,31.7332192 26.5363118,32.8861541 C28.584532,34.9489727 29.9396987,37.7409448 31.67852,36.8185969 C31.67852,36.8185969 31.1216022,36.0146585 30.7317597,35.50986 C30.3419172,35.0050615 30.8926471,33.8396624 30.8926471,33.8396624 Z"
                              id="Path" fill="#F2B94B"></path>
                        <path d="M23.9823587,311.328267 C13.4717975,310.337386 12.2044371,310.112462 15.0255327,303.662614 C17.8466282,297.212766 20.0279505,295 20.0279505,295 L6.70238683,295 L0,319 L31.647452,319 C31.647452,319 34.4990129,312.319149 23.9823587,311.328267 Z"
                              id="Path" fill="#70462A"></path>
                        <path d="M78.9847296,309.957447 C67.5171146,309.215805 66.5270145,299.93921 72.0916277,294 L61,294 L61,318 L87.7139032,318 C87.7139032,318 90.4523446,310.699088 78.9847296,309.957447 Z" id="Path" fill="#70462A"></path>
                        <circle id="Oval" fill="#EF513D" cx="49" cy="71" r="1"></circle>
                        <path d="M81.6290998,94.4083176 C81.2110586,64.5255198 58.7943533,54 58.7943533,54 L61.581295,59.9345339 C77.5638,77.0631778 70.4752743,97.8022087 70.4752743,97.8022087 C70.4752743,97.8022087 70.0935845,100.196398 68.5486494,100.985972 C67.0037143,101.775545 42,108.798925 42,108.798925 C46.0107727,109.836832 44.9929331,118 44.9929331,118 C87.0757534,115.663118 81.9865554,117.859914 81.6290998,94.4083176 Z"
                              id="Path" fill="#6180ED"></path>
                        <path d="M23.2417079,52 C23.2417079,52 6.6565259,59.0330007 3.09776215,96.6368673 C0.472944984,124.365544 0.00291958448,136.295177 32.21492,160.419125 C33.2421629,161.193625 34.6365648,161.193625 35.6638077,160.419125 C38.1054981,158.528534 42.0976619,156.480393 38.6670869,153.134046 C33.8386442,148.420171 17.302296,132.532899 24.2855305,110.116785 C30.4691114,90.3033855 43.5748846,61.4088441 23.2417079,52 Z"
                              id="Path" fill="#6180ED"></path>
                        <path d="M3.10617756,96.6443089 C0.461238636,124.369779 -0.0123899613,136.298033 32.4465465,160.419192 C33.4816642,161.193603 34.8867556,161.193603 35.9218732,160.419192 C37.4903835,159.209354 39.5632775,157.268571 40,155.138751 C39.5878816,155.768875 37.7056693,158.339782 35.2206569,157.029124 C32.3973384,155.567235 11.3854515,136.001875 14.7500598,126.405081 C18.1146682,116.808287 8.22997784,120.406297 8.22997784,94.7098272 C8.22997784,61.8803495 23.404546,52 23.404546,52 C23.404546,52 6.69837367,59.0384888 3.10617756,96.6443089 Z"
                              id="Path" fill="url(#linearGradient-10)" opacity="0.49" style="mix-blend-mode: color-burn;"></path>
                        <path d="M41.7112374,124.198394 C42.3609533,122.243368 41.7112374,121.198551 41.7112374,121.198551 C41.7112374,121.198551 41.7901748,119.044817 40.7639881,120.807545 C39.7378013,122.570274 38.4019368,122.307467 34.3761272,122.04466 C31.9472828,121.884412 32.0565808,119.705039 32.5544939,118 C31.8136963,120.339621 31.7772637,122.204908 32.6759361,122.89077 C34.1878918,124.063785 41.0615215,126.15342 41.7112374,124.198394 Z"
                              id="Path" fill="url(#linearGradient-11)" opacity="0.49" style="mix-blend-mode: color-burn;"></path>
                        <path d="M62,60 C77.9243989,76.2501889 70.8616442,95.9329204 70.8616442,95.9329204 C70.8616442,95.9329204 70.4813421,98.2051669 68.9420238,98.9545249 C68.6341601,99.0995619 67.3966689,99.480284 65.6219254,100 C72.3828529,98.0843028 75.0751508,99.0149569 75.0751508,99.0149569 C75.0751508,99.0149569 76.7593462,96.2592537 75.5822204,83.9069346 C74.2481445,69.9289923 62,60 62,60 Z"
                              id="Path" fill="url(#linearGradient-12)" opacity="0.49" style="mix-blend-mode: color-burn;"></path>
                        <path d="M48,62.6365852 L67.1092835,62.003306 C68.3415788,61.9594197 69.5503212,62.3536096 70.5270013,63.1178774 L75.1546411,66.7592331 C77.7350212,68.7620021 79.1694625,71.9336535 78.9839818,75.2261765 L78.4725715,83.5854625 L60.3861087,89 L48,88.0184172"
                              id="Path" fill="#C6C2C2"></path>
                        <path d="M48,62.6365852 L67.1092835,62.003306 C68.3415788,61.9594197 69.5503212,62.3536096 70.5270013,63.1178774 L75.1546411,66.7592331 C77.7350212,68.7620021 79.1694625,71.9336535 78.9839818,75.2261765 L78.4725715,83.5854625 L60.3861087,89 L48,88.0184172"
                              id="Path" fill="url(#linearGradient-13)" opacity="0.49" style="mix-blend-mode: color-burn;"></path>
                        <circle id="Oval" fill="url(#linearGradient-14)" cx="76.5" cy="79.5" r="4.5"></circle>
                        <circle id="Oval" fill="url(#linearGradient-14)" cx="73.5" cy="73.5" r="4.5"></circle>
                        <path d="M69.8751857,30.2986913 L67.8909915,32.2301147 C67.1684867,32.9272139 66.8242375,33.9090962 66.9598971,34.8858219 L67.16538,36.3467704 C67.296131,37.3911688 66.7048527,38.3956072 65.7077357,38.8229542 L63.864811,39.6277139 C61.3430503,40.7217324 59.5053188,42.8995834 58.9075362,45.5024601 C58.6296966,46.7854542 59.0738283,48.1146411 60.0762202,49.0000698 C60.8044493,49.6400901 61.2289217,50.5397674 61.2507608,51.4895309 C61.2725999,52.4392944 60.8898989,53.3562214 60.1918043,54.0267229 L58.978171,55.2091007 C57.7160436,56.4342479 56.7070952,57.8795999 56.0050903,59.4681369 C55.0017729,61.740948 54.7419047,64.2548331 55.2602149,66.6738319 L56.3068933,71.551914 L60.1596976,75 L67.9808903,68.4876365 C72.3498728,64.9023484 74.3500133,59.3097844 73.20144,53.8905328 C72.6831507,51.3841242 73.9622154,48.8521414 76.3286328,47.7000732 L77.2533058,47.2357888 C79.0318853,46.3524684 80.4352575,44.8988524 81.2216942,43.1253236 L81.7289801,41.9677077 C82.4030317,40.4156918 81.7829386,38.6222992 80.2777572,37.7705761 L78.3513551,36.6315315 C77.9146814,36.3822404 77.600508,35.9739583 77.4796975,35.4987743 C77.3588871,35.0235903 77.4416147,34.5215262 77.709221,34.105824 L79.2567641,31.6915448 C80.8901899,29.1558711 80.6922062,25.9037274 78.7623208,23.5696618 L78.7173715,23.5139476 C77.9655349,22.6165495 76.8542641,22.0685491 75.6594573,22.006 C74.4646505,21.943451 73.2983598,22.3722192 72.4501432,23.1858533 C71.4213781,24.1809918 70.7970798,25.4989149 70.6906959,26.900129 L70.5301624,28.9925044 C70.4815255,29.4895716 70.2490482,29.9531894 69.8751857,30.2986913 Z"
                              id="Path" fill="url(#linearGradient-15)"></path>
                        <path d="M71.60714,53.5380802 C71.1135527,50.9893873 72.331187,48.4146324 74.5861874,47.2387202 L75.4688681,46.7662682 C77.1666767,45.8674087 78.5063173,44.3882212 79.2570395,42.5834931 L79.741288,41.4055127 C80.3847288,39.8261943 79.7927961,38.001253 78.3559696,37.1345466 L76.5170515,35.9754643 C76.1002085,35.7217878 75.8003027,35.3063233 75.6849787,34.82278 C75.5696546,34.3392368 75.6486253,33.8283406 75.9040788,33.4053254 L77.381343,30.948575 C78.9405899,28.3682946 78.7515972,25.0589403 76.909354,22.6838146 L76.8664459,22.6271204 C76.4860703,22.132518 75.8647498,21.9038046 75.2653022,22.0377256 C74.6658546,22.1716466 74.1930063,22.6448053 74.0467714,23.2570564 L72.6491936,30.2997409 C72.5068847,31.0180929 72.2804811,31.7160998 71.9749236,32.3785297 L70.3444162,35.9187701 C69.8751739,36.9132902 69.8751739,38.07393 70.3444162,39.0684501 C71.2179251,40.9187865 70.7057553,43.1452194 69.1184707,44.3977088 C66.1795793,46.7228229 64.3858731,50.2597409 64.2146889,54.0672265 C64.1700468,55.285966 63.8533611,56.4778446 63.2891001,57.5507726 L59.5131882,64.7383424 L57,72.9653067 L59.1392748,75 L66.6052826,68.3730732 C70.7749943,64.7317473 72.6906822,59.0500147 71.60714,53.5380802 Z"
                              id="Path" fill="url(#linearGradient-16)"></path>
                        <path d="M73.6040541,31.9492993 C73.4348463,32.950218 73.1825941,33.9347731 72.85,34.8924155 C72.451555,35.826631 72.0049904,36.7388592 71.5121622,37.6253092 C71.0244483,38.4926584 70.5878677,39.3887149 70.2047297,40.3087387 C69.9115316,41.2493544 69.7198631,42.2196149 69.6331081,43.2023908 L69.2135135,46.1887881 L68.8547297,48.7671063 L70.0709459,47.7098104 C70.6790541,47.19662 71.2871622,46.6525144 71.8952703,46.157873 C72.5338095,45.6696715 73.2065426,45.229508 73.9081081,44.8408904 L76,43.6723001 L73.9871622,44.9336356 C73.3155926,45.3552697 72.6753598,45.8264443 72.0716216,46.3433636 C71.4635135,46.856554 70.9162162,47.4253916 70.3445946,47.9756801 L68.7756757,49.5152514 C68.6809641,50.4172988 68.5079933,51.3090648 68.2587838,52.1801319 C67.9461723,53.1751455 67.5044403,54.1233229 66.9452703,54.9995878 L65.2851351,57.5408079 L64.8290541,58.2394889 C65.2547297,57.8746908 65.6743243,57.4913438 66.1243243,57.1450948 C66.5950288,56.7852382 67.0909412,56.4607982 67.6081081,56.1743611 L69.1466216,55.3087387 L67.6567568,56.2547403 C67.153585,56.566429 66.6738861,56.9157005 66.2216216,57.2996702 C65.7777027,57.6768343 65.3702703,58.0972795 64.9445946,58.5053586 L64.1114865,59.3153339 L63.6006757,60.0943941 C63.0408449,60.920875 62.5252322,61.7774347 62.0560811,62.6603462 C61.5861721,63.5423211 61.1797035,64.4577412 60.8398649,65.3994229 C60.5175676,66.3392415 60.2317568,67.3161583 59.9155405,68.268343 C59.277027,70.1788953 58.6628378,72.0956307 58,74 C58.4986486,72.0461665 59.0459459,70.1108821 59.5628378,68.1632317 C59.8364865,67.1924979 60.097973,66.2279472 60.3898649,65.2510305 C60.694981,64.2768054 61.0689275,63.3262681 61.5087838,62.4068425 C61.6182432,62.1657049 61.752027,61.9369332 61.8797297,61.7019786 L62.0804054,60.3169827 C62.1594595,59.7419621 62.2628378,59.1669415 62.3114865,58.5919209 C62.3548993,58.0156833 62.3548993,57.4369136 62.3114865,56.860676 L62.202027,55.1170651 L62.4087838,56.84831 C62.4789649,57.4286729 62.5053933,58.013643 62.4878378,58.5981039 C62.4878378,59.2164056 62.3966216,59.7666941 62.347973,60.3417148 L62.2993243,60.8920033 C62.5304054,60.5024732 62.7675676,60.1129431 63.0108108,59.7419621 L64.6405405,57.1883759 L66.2641892,54.6347898 C66.4898556,54.2580685 66.6929283,53.8678274 66.8722973,53.4661995 L65.9054054,51.4752679 C65.5527027,50.7642209 65.2304054,50.0408079 64.8412162,49.360676 C64.477242,48.6796007 64.0646497,48.0265727 63.6067568,47.4068425 L62.1472973,45.5519373 L63.7101351,47.3511954 C64.2345672,47.9508804 64.7142763,48.5895027 65.1452703,49.2617477 C65.577027,49.9356966 65.9418919,50.6405606 66.3310811,51.3330585 L67.2067568,52.9097279 C67.3283784,52.6129431 67.4378378,52.2914262 67.5290541,52.0070074 C67.8008871,51.0588159 67.9921303,50.0886396 68.1006757,49.1071723 L68.5506757,46.1207749 L69.0006757,43.1343776 C69.0797297,42.6335532 69.1405405,42.1512778 69.2317568,41.6319044 C69.3324936,41.1206022 69.479051,40.6197491 69.6695946,40.1356142 C70.0918398,39.2044396 70.5690615,38.3000696 71.0986486,37.4274526 C71.5851351,36.5370981 72.1324324,35.6900247 72.5155405,34.7749382 C72.8941026,33.8502149 73.1951727,32.8946339 73.4155405,31.9183842 L74.2060811,29 L73.6040541,31.9492993 Z"
                              id="Path" fill="url(#linearGradient-17)"></path>
                        <path d="M74.8828164,62.9928934 L74.3648592,64.4295948 C74.1731052,64.9627913 73.7482647,65.3772591 73.213166,65.553169 L72.4027153,65.8294577 C71.8345874,66.015614 71.4537646,66.5537992 71.4642987,67.1556437 L71.4642987,68.2300998 C71.5010891,69.734047 70.8215825,71.1649679 69.6362144,72.0797229 C69.0359368,72.544786 68.2444395,72.6761644 67.5278239,72.4296886 C66.4635667,72.0550695 65.2962085,72.5983473 64.8892888,73.6576386 L64.5724209,74.5356228 C64.2408624,75.4557931 63.7383171,76.3038775 63.0916726,77.0345009 C62.1433996,78.1022467 60.9067055,78.8682305 59.5330018,79.238671 L56.7421265,80 L54,79.0606183 L55.4563738,73.6944771 C56.3125967,70.6417069 58.7104117,68.2748049 61.7571711,67.4749106 C63.1548148,67.1085371 64.1466649,65.8593377 64.1946168,64.4050358 L64.1946168,63.8524583 C64.222874,62.7686299 64.6333275,61.7303739 65.3524035,60.9237977 L65.8277054,60.3896395 C66.4762124,59.6702405 67.5359643,59.5063613 68.3687426,59.9966955 L69.4412188,60.6106705 C69.9455769,60.9076105 70.5922465,60.756835 70.9158734,60.2668445 L71.7872603,58.9160996 C72.7357732,57.4807309 74.4439157,56.7555588 76.1259137,57.0741747 L76.168569,57.0741747 C76.8027276,57.174931 77.3600224,57.5535297 77.6904988,58.1080988 C78.0209753,58.6626679 78.0906864,59.3362417 77.8808746,59.9475775 C77.6079667,60.698484 77.0816462,61.3287649 76.3940327,61.7281049 L75.3459311,62.3420799 C75.1237177,62.5007799 74.9606717,62.7299078 74.8828164,62.9928934 Z"
                              id="Path" fill="url(#linearGradient-18)"></path>
                        <path d="M61.8055185,66.6714711 C63.2052149,66.2963983 64.1985066,65.0248276 64.2485603,63.5439904 L64.2485603,62.9810439 C64.2768823,61.8768775 64.6882781,60.8191388 65.4090051,59.9974273 L65.8853983,59.4532457 C66.5353941,58.7203473 67.597579,58.5533929 68.4322693,59.0529282 L69.5072077,59.6784243 C70.0127238,59.9809363 70.6608781,59.8273315 70.985248,59.3281465 L71.8586354,57.952055 C72.809326,56.4897517 74.5213901,55.7509719 76.2072498,56.0755665 L76.2622182,56.0755665 C76.6077999,56.1290286 76.8882786,56.3897049 76.9736731,56.736791 C77.0590676,57.0838772 76.9326891,57.4495421 76.6531049,57.6643267 L73.4099669,60.1663113 C73.080129,60.4212692 72.7808225,60.7152001 72.5182567,61.0420059 L71.1257229,62.7746302 C70.7266226,63.2677833 70.1385582,63.5597845 69.5133153,63.5752652 C68.3613605,63.5944085 67.3684619,64.410466 67.1008115,65.558088 C66.6239989,67.6764168 65.2738406,69.4789899 63.3996032,70.4995075 C62.7920639,70.8309058 62.2642129,71.2967075 61.8543793,71.8630891 L59.1548182,75.6160659 L55.5940848,79 L54,78.4433084 L55.4597175,72.9764722 C56.3326833,69.8704933 58.7476677,67.4710358 61.8055185,66.6714711 Z"
                              id="Path" fill="url(#linearGradient-19)"></path>
                        <path d="M74.606427,60.0896638 C74.1105588,60.4357886 73.6444781,60.8210519 73.212854,61.241594 C72.81503,61.6871644 72.4412067,62.1527189 72.0929049,62.6363636 C71.7535272,63.1115889 71.3859423,63.566917 70.9920458,64 C70.5576426,64.3961966 70.0820412,64.7468002 69.5730194,65.0460772 L68.0649061,66.0361146 L66.76042,66.8953923 L67.0022272,66.0049813 C67.1167674,65.5628892 67.2567611,65.1270237 67.3458479,64.6724782 C67.4385537,64.2228822 67.4959912,63.7670079 67.5176583,63.3088418 L67.5876551,61.9452055 L67.4412981,63.3026152 C67.3954071,63.7521489 67.3145706,64.1976065 67.1994909,64.6351183 C67.0849507,65.0709838 66.925867,65.5006227 66.77951,65.9364882 L66.3786192,67.1382316 C65.9146641,67.4209045 65.4761322,67.7416964 65.0677696,68.0971357 C64.6141741,68.511506 64.2183603,68.9825597 63.8905504,69.498132 L62.9615017,70.9987547 L62.7069679,71.4159402 C62.7896914,71.1046077 62.8851416,70.7932752 62.9487751,70.4757161 C63.0172337,70.1452128 63.0597799,69.8100734 63.076042,69.4732254 L63.1269488,68.4707347 L63.0187719,69.4732254 C62.9850392,69.8051194 62.9254751,70.134011 62.8405982,70.4570361 C62.7578746,70.7808219 62.636971,71.0797011 62.5351575,71.4159402 L62.325167,72.0386052 L62.0388164,72.4993773 C61.7410307,72.9996674 61.416033,73.4839664 61.0652243,73.9501868 C60.7092492,74.4144831 60.3201112,74.8535229 59.9007318,75.26401 C59.4743875,75.6749689 59.0289532,76.0734745 58.5962456,76.50934 C57.7308304,77.3312578 56.8590519,78.1407223 56,79 C56.9226853,78.2403487 57.832644,77.4557908 58.7426026,76.6836862 C59.1944003,76.2914072 59.6461979,75.9053549 60.0979955,75.5068493 C60.5535033,75.1011994 60.9788092,74.6642214 61.370665,74.1992528 C61.4724785,74.0809465 61.5615654,73.9501868 61.6506522,73.8318804 L62.3506204,73.3648817 C62.6433344,73.1718555 62.9233217,72.9726027 63.222399,72.7982565 C63.5224082,72.622738 63.8350323,72.4687433 64.157811,72.3374844 L65.1314031,71.9389788 L64.1323576,72.2876712 C63.7979466,72.4035187 63.4725623,72.5429463 63.1587655,72.7048568 C62.8405982,72.8667497 62.5224308,73.0535492 62.2488069,73.2278954 L61.8797327,73.3150685 C62.0324531,73.0971357 62.1724467,72.879203 62.3124403,72.6550436 L63.2605791,71.1606476 L64.2087178,69.6724782 C64.3506211,69.4559708 64.5057444,69.248038 64.6732421,69.0498132 L66.0159084,69.0498132 C66.4995227,69.0498132 66.9767738,69.01868 67.4540248,69.0498132 C67.9321972,69.0661842 68.4085516,69.1161257 68.8794146,69.1992528 L70.298441,69.4483188 L68.8985046,69.1307597 C68.4273506,69.0226093 67.9488697,68.9476969 67.4667515,68.9066002 C66.9831371,68.8630137 66.4995227,68.8630137 66.0222717,68.8505604 L64.927776,68.8194271 C65.055043,68.6824408 65.1886732,68.5454545 65.3286669,68.4209215 C65.7714537,68.0346155 66.2460741,67.6847351 66.7476933,67.3748443 L68.2430799,66.3412204 L69.7384664,65.3325031 C69.986637,65.1643836 70.2348075,65.0024907 70.4893414,64.8219178 C70.7390429,64.6350019 70.9711684,64.4266175 71.1829462,64.1992528 C71.5724292,63.7434353 71.9336655,63.2652028 72.2647152,62.7671233 C72.6146993,62.2876712 72.90105,61.7895392 73.3210309,61.3599004 C73.7236132,60.9248706 74.1620374,60.5229377 74.6318804,60.1581569 L76,59 L74.606427,60.0896638 Z"
                              id="Path" fill="url(#linearGradient-20)"></path>
                        <path d="M50.6446509,48.6498109 L49.8052403,50.3228755 C49.4954858,50.9321562 49.4954858,51.6482659 49.8052403,52.2575466 L50.2715795,53.1944628 C50.6055989,53.8470091 50.4557518,54.6372557 49.904726,55.1291339 L48.9036512,56.0356307 C47.5180935,57.2700717 46.8239439,59.0812496 47.0382944,60.9027278 C47.1568923,61.8106746 47.7507926,62.5923961 48.6051941,62.9651602 C49.2205566,63.2302413 49.7000162,63.727802 49.9342994,64.3444435 C50.1685826,64.961085 50.1377271,65.644266 49.8487653,66.238283 L49.3389011,67.2603734 C48.8046089,68.3262675 48.4858022,69.4831197 48.4000049,70.6673413 C48.2815762,72.3692832 48.6935054,74.0663476 49.5813975,75.5344384 L51.3845758,78.5277031 L54.6800395,80 L58.2366532,74.1290641 C60.2343172,70.8470904 60.2343172,66.7581791 58.2366532,63.4762054 C57.3161684,61.9577803 57.558892,60.0228348 58.8273496,58.767289 L59.3185602,58.2744954 C60.2661217,57.3291555 60.8391528,56.0848701 60.9352028,54.7641016 L60.9973814,53.9001919 C61.052034,52.7422947 60.2457741,51.7144297 59.0884995,51.4666433 L57.5589069,51.1198627 C57.2181697,51.0484149 56.9204817,50.8472657 56.7315116,50.5607877 C56.5425415,50.2743098 56.4778163,49.926042 56.5516142,49.592811 L56.993082,47.6946431 C57.4538645,45.6714831 56.5748419,43.5820204 54.7919609,42.4625137 L54.748436,42.4625137 C54.0680045,42.0239503 53.2289744,41.8894456 52.4410845,42.0926227 C51.6531946,42.2957999 50.9909072,42.8174569 50.6197795,43.5271912 C50.1856715,44.3901138 50.0841209,45.3772575 50.3337581,46.3075204 L50.7130473,47.7128947 C50.7997341,48.02373 50.7756102,48.3541868 50.6446509,48.6498109 Z"
                              id="Path" fill="url(#linearGradient-21)"></path>
                        <path d="M58.3750824,63.3010943 C57.4962635,61.7755784 57.7248665,59.8301966 58.9315336,58.5657661 L59.3991895,58.0708479 C60.301313,57.1214324 60.8468658,55.8717825 60.93831,54.5453197 L60.9975069,53.6776854 C61.0495389,52.5147961 60.2819411,51.4824997 59.1801608,51.233645 L57.723916,50.8853693 C57.399518,50.8136135 57.1161049,50.611597 56.9361964,50.323884 C56.7562879,50.036171 56.6946664,49.6864017 56.7649255,49.351734 L57.1852238,47.4453825 C57.6239107,45.4135 56.7870394,43.3150289 55.0896521,42.1906957 L55.0482142,42.1906957 C54.7018856,41.9490967 54.2514204,41.936074 53.892533,42.1572854 C53.5336456,42.3784968 53.3311172,42.7940126 53.3729407,43.2233028 L53.9945086,48.1113835 C54.0531725,48.6064939 54.0531725,49.1071377 53.9945086,49.6022481 L53.7044436,52.2479218 C53.6262943,52.9974126 53.8809107,53.7431531 54.3970478,54.2764753 C55.3593482,55.2673231 55.5127935,56.8204771 54.7640689,57.9914166 C53.3773711,60.1539758 52.9975442,62.8422775 53.7281224,65.3235377 C53.9600601,66.1153063 54.0127177,66.9514809 53.8820344,67.767578 L53,73.2666688 L53.1598317,79.1384758 L54.9830976,80 L58.3691627,74.1037526 C60.3130741,70.7829771 60.3153531,66.6241374 58.3750824,63.3010943 Z"
                              id="Path" fill="url(#linearGradient-22)"></path>
                        <path d="M52.6993865,47.1636932 C52.8145089,47.8767523 52.8699233,48.5985001 52.8650307,49.321133 C52.8105101,50.040608 52.7183545,50.756604 52.5889571,51.4660658 C52.4577521,52.1603056 52.3676099,52.8619574 52.3190184,53.5672246 C52.3365919,54.269516 52.4291624,54.9677668 52.595092,55.649623 L53,57.7632886 L53.3496933,59.5892956 L53.9263804,58.6075041 C54.2147239,58.1259886 54.4846626,57.6257127 54.803681,57.1567041 C55.1222877,56.6845026 55.4750044,56.2371824 55.8588957,55.8184661 L57,54.5677763 L55.9263804,55.8810006 C55.570052,56.3142946 55.2460386,56.7741653 54.9570552,57.2567592 C54.6687117,57.7320213 54.4294479,58.2448041 54.1656442,58.74508 L53.4478528,60.1333456 C53.589232,60.7642629 53.6754591,61.4067139 53.7055215,62.0531543 C53.7230291,62.7924489 53.6425477,63.5307691 53.4662577,64.2481148 L52.9263804,66.3305132 L52.7791411,66.9058304 C52.9815951,66.5618907 53.1779141,66.2116976 53.392638,65.8740114 C53.6307798,65.5162992 53.8953515,65.17763 54.1840491,64.8609527 L55.0245399,63.9354423 L54.2331288,64.9047269 C53.9714843,65.2238721 53.7336031,65.5625013 53.5214724,65.9177855 C53.3067485,66.2679787 53.1288344,66.6431856 52.9079755,67.012139 L52.5276074,67.7437925 L52.3619632,68.3691374 C52.173603,69.0522288 52.0220473,69.7453128 51.9079755,70.4452823 C51.8004185,71.1446485 51.7430068,71.8510747 51.7361963,72.5589479 C51.7361963,73.2655876 51.7361963,73.9909877 51.7668712,74.7038808 C51.7668712,76.1359205 51.7668712,77.5679603 51.7668712,79 C51.6564417,77.5679603 51.5828221,76.142174 51.4907975,74.7101343 C51.4539877,73.9909877 51.4110429,73.284348 51.3865031,72.5589479 C51.369513,71.8340104 51.4043701,71.1087744 51.4907975,70.3890013 C51.4907975,70.2013978 51.5460123,70.0200478 51.5766871,69.8324444 L51.398773,68.8506529 C51.3190184,68.4441788 51.2576687,68.0314512 51.1595092,67.6374839 C51.0602241,67.2361433 50.931014,66.8431177 50.7730061,66.4618356 L50.3006135,65.311201 L50.8343558,66.4368218 C51.0142425,66.8123121 51.1660048,67.2011353 51.2883436,67.5999632 C51.4110429,68.0001839 51.4969325,68.4066581 51.595092,68.8068788 L51.6871166,69.1883392 C51.7546012,68.8756667 51.8220859,68.5629943 51.9018405,68.2565753 L52.4171779,66.1679235 L52.9325153,64.0855251 C53.0044326,63.7785763 53.0577036,63.4673972 53.0920245,63.1537613 L51.9815951,62.0218871 C51.5828221,61.6216664 51.196319,61.2026853 50.7546012,60.8274784 C50.3343677,60.4484955 49.8873538,60.1015352 49.4171779,59.7894059 L48,58.8451352 L49.4662577,59.7143645 C49.9572292,60.0042571 50.4267802,60.3303033 50.8711656,60.6899025 C51.3190184,61.0526025 51.7239264,61.4465698 52.1411043,61.8280302 L53.0920245,62.6972595 C53.0920245,62.4721354 53.0920245,62.2407578 53.0920245,62.0156336 C53.0589718,61.312631 52.9666062,60.6138338 52.8159509,59.9269818 L52.4355828,57.8133162 L52.0552147,55.6996505 C51.993865,55.343204 51.9263804,54.9992643 51.8711656,54.6365643 C51.8215751,54.2699224 51.8051461,53.8994108 51.8220859,53.5297039 C51.8936001,52.8082558 52.0083337,52.091941 52.1656442,51.384771 C52.3167959,50.6887203 52.4335078,49.9853611 52.5153374,49.2773588 C52.5583718,48.5664184 52.5419526,47.8530341 52.4662577,47.1449329 L52.3312883,45 L52.6993865,47.1636932 Z"
                              id="Path" fill="url(#linearGradient-23)"></path>
                        <circle id="Oval" fill="url(#linearGradient-24)" cx="67" cy="74" r="6"></circle>
                        <circle id="Oval" fill="url(#linearGradient-24)" cx="69" cy="79" r="6"></circle>
                        <circle id="Oval" fill="url(#linearGradient-24)" cx="67" cy="84" r="6"></circle>
                        <circle id="Oval" fill="url(#linearGradient-25)" cx="62" cy="79" r="6"></circle>
                        <path d="M43.0552898,109 C43.0552898,109 40.6808878,101.102628 43.0552898,94.1001252 C45.4296917,87.097622 49.9385949,64 49.9385949,64 L53.2664484,67.942428 C54.9002675,69.8648153 55.8551562,72.2878695 55.9791719,74.8260325 L56.2129213,79.7259074 C56.4303356,83.0844977 59.2704305,85.6356677 62.5733659,85.4392991 L80,84.6946183 C80,84.6946183 72.710709,94.3942428 71.9664017,98.1927409 C71.2220943,101.991239 71.2036404,101.352941 71.2036404,101.352941 C71.2036404,101.352941 50.5783302,106.916145 43.0552898,109 Z"
                              id="Path" fill="#DDDBDB"></path>
                        <path d="M55.0495868,79.7193495 L54.818668,74.8215179 C54.6966167,72.2843092 53.7532331,69.8621159 52.1387944,67.940784 L48.8512397,64 C48.8512397,64 44.3969373,87.1255213 42.0452115,94.1063386 C39.6934857,101.087156 42.0452115,109 42.0452115,109 C44.5184735,108.305671 48.4258629,107.229775 52.5398639,106.097581 C55.5334914,105.110371 58.2972313,103.498416 60.6584832,101.362385 C64.7421001,97.734362 52.9652406,99.9674729 55.3169665,95.000834 C57.6686923,90.0341952 66,85.2427023 66,85.2427023 L61.3208556,85.4491243 C58.0558618,85.6379964 55.2548735,83.07886 55.0495868,79.7193495 Z"
                              id="Path" fill="url(#linearGradient-26)" opacity="0.49" style="mix-blend-mode: color-burn;"></path>
                        <circle id="Oval" fill="#A0643C" cx="10" cy="299" r="1"></circle>
                        <circle id="Oval" fill="#A0643C" cx="8" cy="304" r="1"></circle>
                        <circle id="Oval" fill="#A0643C" cx="7" cy="307" r="1"></circle>
                        <circle id="Oval" fill="#A0643C" cx="67" cy="299" r="1"></circle>
                        <circle id="Oval" fill="#A0643C" cx="67" cy="304" r="1"></circle>
                        <circle id="Oval" fill="#A0643C" cx="67" cy="309" r="1"></circle>
                        <path d="M45.2295242,14.2317475 C42.8774612,11.8427929 50.7136089,9.10085296 51,9 C45.568011,9.77938162 40.4800219,12.2026652 36.375774,15.9651578 C26.1814698,25.5840092 26.4008332,31.6793102 27.5281173,32.8454226 C29.5755089,34.9255149 30.9099696,37.7493979 32.6222227,36.816508 C32.6222227,36.816508 32.0738142,36.003381 31.6899283,35.4928128 C31.3060424,34.9822447 31.8239837,33.8350423 31.8239837,33.8350423 C34.4496558,28.2953225 38.6913042,23.7488215 43.9499044,20.8376166 C44.0865544,20.7402433 44.2338098,20.6598482 44.3886312,20.5980908 L44.4556589,20.5980908 C44.7968908,20.4215981 45.1442162,20.257712 45.497635,20.093826 C47.6181477,18.6818845 47.3134764,16.3496597 45.2295242,14.2317475 Z"
                              id="Path" fill="url(#linearGradient-27)" opacity="0.49" style="mix-blend-mode: color-burn;"></path>
                    </g>
                </g>
            </g>
        </g>
    </g>
</svg>