<svg width="362px" height="237px" viewBox="0 0 362 237" version="1.1" xmlns="http://www.w3.org/2000/svg">
    <defs>
        <linearGradient x1="183.124609%" y1="71.9132642%" x2="-114.746399%" y2="22.8738419%" id="linearGradient-1">
            <stop stop-color="#F78E6B" offset="0%"></stop>
            <stop stop-color="#F9AA8F" offset="100%"></stop>
        </linearGradient>
        <linearGradient x1="49.0112895%" y1="37.2885471%" x2="63.9918446%" y2="177.619747%" id="linearGradient-2">
            <stop stop-color="#635FA9" offset="0%"></stop>
            <stop stop-color="#4F4AA9" offset="100%"></stop>
        </linearGradient>
        <linearGradient x1="46.4319887%" y1="139.912866%" x2="55.8053392%" y2="-83.5931214%" id="linearGradient-3">
            <stop stop-color="#FFFFFF" offset="0%"></stop>
            <stop stop-color="#CDDFEC" offset="84%"></stop>
        </linearGradient>
        <linearGradient x1="51.1995097%" y1="-32.8155282%" x2="48.0684282%" y2="155.589976%" id="linearGradient-4">
            <stop stop-color="#FFFFFF" offset="0%"></stop>
            <stop stop-color="#CDDFEC" offset="84%"></stop>
        </linearGradient>
        <linearGradient x1="50%" y1="154.545455%" x2="50%" y2="-95.5%" id="linearGradient-5">
            <stop stop-color="#FFFFFF" offset="0%"></stop>
            <stop stop-color="#CDDFEC" offset="84%"></stop>
        </linearGradient>
        <linearGradient x1="49.9993461%" y1="154.59069%" x2="49.9993461%" y2="-95.5297491%" id="linearGradient-6">
            <stop stop-color="#FFFFFF" offset="0%"></stop>
            <stop stop-color="#CDDFEC" offset="84%"></stop>
        </linearGradient>
        <linearGradient x1="49.9605367%" y1="102.951081%" x2="49.9605367%" y2="-83.6582772%" id="linearGradient-7">
            <stop stop-color="#FFFFFF" offset="0%"></stop>
            <stop stop-color="#CDDFEC" offset="84%"></stop>
        </linearGradient>
        <linearGradient x1="24.9468719%" y1="106.956248%" x2="110.721875%" y2="-133.836953%" id="linearGradient-8">
            <stop stop-color="#635FA9" offset="0%"></stop>
            <stop stop-color="#4F4AA9" offset="100%"></stop>
        </linearGradient>
    </defs>
    <g id="Welcome" stroke="none" stroke-width="1" fill="none" fill-rule="evenodd">
        <g id="Software" transform="translate(-1039.000000, -947.000000)">
            <g id="Group-37" transform="translate(261.000000, 891.000000)">
                <g id="man-resting" transform="translate(778.000000, 56.000000)">
                    <path d="M74.6954585,17.9846337 C74.7809207,17.2880613 75.1144119,16.6458115 75.6346259,16.1759499 C76.7033756,15.3086406 77.2009461,13.9168905 76.9249603,12.5667664 C76.4370569,10.7076852 75.2978012,9.08666639 73.7154577,8.00004443 C72.51606,7.05129921 71.3911916,6.01158667 70.3507883,4.8900904 C64.5063455,-1.20360946 54.9297692,-1.66084863 48.5336913,3.8484205 C42.1376135,9.35768963 41.1499408,18.914457 46.2836022,25.6203892 C47.1492696,26.7661617 48.8397709,29.0822591 49.9912719,29.9579567 C54.4666088,34.5083104 61.6696146,41.5629956 62.0534483,44.3128497 C62.5924487,48.17574 75.6591259,34.4919423 75.6591259,34.4919423 C75.6591259,34.4919423 68.1947866,32.4377358 70.8489554,26.5042709 C72.9533877,24.1152859 74.290936,21.1464409 74.6872918,17.9846337 L74.6954585,17.9846337 Z"
                          id="Path" fill="#F9AA8F"></path>
                    <path d="M70.7238572,34.3535403 C70.3201501,32.6618929 68.6674991,31.5940741 66.9793363,31.9341125 C63.9267376,32.4525613 65.8071384,30.1318856 68.1515341,28.8974837 C69.2435835,28.2557051 70.2116191,27.4192698 71.0087664,26.4286798 C71.5129691,25.851294 71.9754436,25.2379973 72.3926111,24.5935356 C68.7132123,29.4653086 62.9499061,25.7785615 62.4940513,20.3801104 C62.0381966,14.9816592 66.3606763,8.03609102 71.1959925,10.9410502 C74.9405135,13.1958911 75.0463369,16.306584 74.9079524,17.5985913 C75.025168,16.9834318 75.3364934,16.4232659 75.7952411,16.0020982 C76.3584815,15.5161366 76.7758303,14.8804117 77,14.166954 C76.503444,14.9898886 75.111459,14.7676962 74.7044458,12.3071217 C74.2974327,9.84654719 67.3293676,6.90867059 67.9398873,5.88000231 C68.550407,4.85133403 68.2980589,2.85983225 68.2899186,2.75285075 C67.3148771,2.04951813 66.2633573,1.46140184 65.1559173,1 L62.3149656,6.68647824 L51,26.1406527 L52.391985,32.0986994 C56.6900438,36.5013996 61.9160927,41.9739149 62.2417032,44.3110492 C62.5103319,46.2284869 65.8315592,43.8337471 69.1202254,40.9287879 L70.7238572,34.3535403 Z"
                          id="Path" fill="url(#linearGradient-1)"></path>
                    <path d="M65.9109192,2 C65.9109192,2 67.0021585,2.91513761 61.5459622,12.0183486 C59.9510741,14.6754587 58.2638503,19.0183486 59.8671326,20.9770642 C60.0700861,21.2094532 60.0700861,21.5474276 59.8671326,21.7798165 C59.7595907,21.9113471 59.6015715,21.9963549 59.4281876,22.0159507 C59.2548036,22.0355466 59.0804167,21.9881074 58.9437763,21.8841743 C57.987607,21.1671903 56.8008497,20.789828 55.5861171,20.8165138 C53.2105732,20.8807339 52.7153185,25.2477064 56.5682324,27.3027523 C60.4211464,29.3577982 56.6353856,37 56.6353856,37 L46,30.0401376 L47.7459828,17.4610092"
                          id="Path" fill="#1E194D"></path>
                    <path d="M65.1977501,46.0498174 C64.0396868,43.2564854 63.7122224,40.182971 64.2553618,37.2047522 C64.9865251,33.4714455 67.2856276,29.5986526 73.7604852,30.0335213 C85.9465408,30.8540283 104.144384,32.355556 121.854785,52.0477234 C139.565186,71.7398907 157.844269,68.4578629 159.875278,71.3296373 C161.906288,74.2014117 166.634477,103.739663 157.974254,110.303718 C149.31403,116.867774 71.2907779,103.739663 71.6969797,81.9962279 C71.8618276,69.7015674 69.654326,57.4921575 65.1977501,46.0498174 Z"
                          id="Path" fill="#6161AD"></path>
                    <path d="M151.06813,69.0386363 C149.84171,73.3934984 153.504727,82.6609075 140.623254,78.8391264 C127.741782,75.0173453 117.881688,59.4267748 104.748434,46.714842 C91.6151801,34.0029092 72.1224096,38.1035327 71.0909171,34.462179 C70.0594247,30.8208254 73.7468071,30.0335057 73.7468071,30.0335057 C67.2492169,29.5988396 64.9750603,33.4698282 64.2440814,37.2013955 C63.7122573,40.1848424 64.0537916,43.260146 65.226842,46.050541 C68.4435785,54.2911786 70.5048128,62.9450637 71.3508207,71.7614503 C103.773796,83.0217624 154.138242,100.465815 161.951594,103 C164.656216,91.8627066 161.456153,73.5575234 159.880487,71.3267842 C159.060166,70.2032134 155.795127,70.0145847 151.06813,69.0386363 Z"
                          id="Path" fill="url(#linearGradient-2)"></path>
                    <path d="M158.612557,108.320845 C158.612557,108.320845 158.522612,70.1736006 155.73434,69.6826451 C152.946067,69.1916896 151,68.8152903 151,68.8152903 C151,68.8152903 153.976338,47.6305595 175.235895,57.7278781 C196.495451,67.8251967 233.560671,69.6171844 257.273253,70.7627472 C280.985836,71.9083101 323.782959,85.270483 334.68257,83.363939 C345.582181,81.4573951 362.753362,91.2765056 353.219268,109"
                          id="Path" fill="url(#linearGradient-3)"></path>
                    <path d="M355.200343,92.0145192 C361.395353,109.364389 306.181813,105.405803 269.865105,96.0973286 C233.548397,86.7888545 189.247921,96.9254846 178.375884,81.67085 C167.503846,66.4162154 156,69.1988197 156,69.1988197 C158.798011,69.6957134 158.88827,108.304349 158.88827,108.304349 L354.174679,109 C357.916301,102.10146 357.604499,96.3043676 355.200343,92.0145192 Z"
                          id="Path" fill="url(#linearGradient-4)"></path>
                    <path d="M180,100 C180,100 190.775902,100.323406 195.26865,103.191503 C199.761398,106.059601 203.116318,106.595773 201.652201,108.723442 C200.188084,110.851111 181.355354,109.676637 181.355354,109.676637" id="Path"
                          fill="#F9AA8F"></path>
                    <path d="M67.3490059,51.4576623 C66.1277545,44.7790497 68.0047114,36.8400127 74.6765145,38.14136 C84.0776917,39.9747046 103.527555,48.6257996 117.772757,70.6095661 C140.312632,105.394007 168.860409,95.8180549 179.450053,99.9758186 C188.056187,103.356048 181.810592,111.638837 181.810592,111.638837 C181.810592,111.638837 112.453346,115.207311 110.609174,113.570396 C108.765003,111.933482 67.3735948,51.5722464 67.3735948,51.5722464 L67.3490059,51.4576623 Z"
                          id="Path" fill="#6161AD"></path>
                    <rect id="Rectangle" fill="url(#linearGradient-5)" x="0" y="108" width="362" height="36" rx="12.93"></rect>
                    <path d="M351.410133,108.012382 L136.009126,108.012382 C131.198265,108.002887 126.586888,106.089272 123.183347,102.689981 L28.5788975,8.09863588 C24.4438393,3.96712137 17.7423571,3.96712137 13.6072989,8.09863588 L3.09933347,18.6042363 C-1.03311116,22.7383637 -1.03311116,29.4383376 3.09933347,33.572465 L107.933284,138.38282 C111.532851,141.980496 116.414574,144.00108 121.504366,144 L351.410133,144 C357.2428,144.000043 361.977445,139.284768 362,133.453458 L362,118.591677 C361.995479,112.747569 357.255558,108.01238 351.410133,108.012382 Z"
                          id="Path" fill="url(#linearGradient-6)"></path>
                    <rect id="Rectangle" fill="url(#linearGradient-7)" x="20" y="144" width="10" height="93"></rect>
                    <rect id="Rectangle" fill="url(#linearGradient-7)" x="332" y="144" width="10" height="93"></rect>
                    <path d="M48.0884461,29 C48.0884461,29 55.9438124,13.3117258 66,2.25694608 C66,2.25694608 61.3016173,-1.17922061 49.2177065,0.428150919 C37.1337958,2.03552245 33.6306157,11.5321359 37.5047208,18.4700763" id="Path"
                          fill="#6161AD"></path>
                    <path d="M57,12.7699087 C55.0104098,15.6506138 51.7353642,14.5785332 51.9400546,9.49638023 C52.1447449,4.41422726 43.6705644,16.7799811 39.5767575,11.3868429 C35.4829505,5.99370475 41.7137247,2 41.7137247,2 C35.8432055,5.6663519 34.6068758,12.2952471 37.4971035,17.4919736 L48.0099999,28 C50.7122102,22.755307 53.7138286,17.6702212 57,12.7699087 Z"
                          id="Path" fill="url(#linearGradient-8)"></path>
                    <path d="M75.6894658,17 C73.6880965,17.7984252 72.274861,19.6451852 72.0045111,21.8153523 C71.3470632,25.6891092 62.8732907,27.2171369 60.4788818,20.9398337 L60,22.6413133 C60,22.6413133 62.5161585,26.432474 65.3569826,30.5953172 C68.1978067,34.7581604 80.1698512,43.1581832 88.3514247,36.5504956 C96.5329982,29.942808 88.9601727,22.2365924 84.9667857,22.1622559 C80.9733986,22.0879194 75.6894658,17 75.6894658,17 Z"
                          id="Path" fill="#1E194D"></path>
                </g>
            </g>
        </g>
    </g>
</svg>