<svg width="194px" height="336px" viewBox="0 0 194 336" version="1.1" xmlns="http://www.w3.org/2000/svg">
    <defs>
        <linearGradient x1="96.2993134%" y1="-10.631206%" x2="16.3773408%" y2="93.8126071%" id="linearGradient-1">
            <stop stop-color="#F9AA8F" offset="0%"></stop>
            <stop stop-color="#F78E6B" offset="100%"></stop>
        </linearGradient>
        <linearGradient x1="56.011104%" y1="119.428843%" x2="41.0207132%" y2="-44.6167234%" id="linearGradient-2">
            <stop stop-color="#635FA9" offset="0%"></stop>
            <stop stop-color="#4F4AA9" offset="100%"></stop>
        </linearGradient>
        <linearGradient x1="112.484949%" y1="75.9772435%" x2="-16.9060421%" y2="8.59484921%" id="linearGradient-3">
            <stop stop-color="#635FA9" offset="0%"></stop>
            <stop stop-color="#4F4AA9" offset="100%"></stop>
        </linearGradient>
        <linearGradient x1="-324%" y1="-494.5%" x2="-2214%" y2="-3241.5%" id="linearGradient-4">
            <stop stop-color="#FFFFFF" stop-opacity="0" offset="0%"></stop>
            <stop stop-color="#000000" offset="100%"></stop>
        </linearGradient>
        <linearGradient x1="84.8001582%" y1="21.8116393%" x2="-83.1220672%" y2="132.951856%" id="linearGradient-5">
            <stop stop-color="#91D4D9" offset="0%"></stop>
            <stop stop-color="#53C6CF" offset="100%"></stop>
        </linearGradient>
        <linearGradient x1="88.6079545%" y1="118.883959%" x2="-14.5738636%" y2="-48.905035%" id="linearGradient-6">
            <stop stop-color="#F9AA8F" offset="0%"></stop>
            <stop stop-color="#F78E6B" offset="100%"></stop>
        </linearGradient>
        <linearGradient x1="75.7787717%" y1="67.9579265%" x2="-54.9087638%" y2="5.95398876%" id="linearGradient-7">
            <stop stop-color="#91D4D9" offset="0%"></stop>
            <stop stop-color="#53C6CF" offset="100%"></stop>
        </linearGradient>
        <linearGradient x1="129.115903%" y1="63.5008197%" x2="7.94339623%" y2="63.4213115%" id="linearGradient-8">
            <stop stop-color="#FFFFFF" stop-opacity="0" offset="0%"></stop>
            <stop stop-color="#000000" offset="100%"></stop>
        </linearGradient>
        <linearGradient x1="9.53009794%" y1="97.5162455%" x2="145.482557%" y2="-94.9458484%" id="linearGradient-9">
            <stop stop-color="#91D4D9" offset="0%"></stop>
            <stop stop-color="#53C6CF" offset="100%"></stop>
        </linearGradient>
        <linearGradient x1="33.1823998%" y1="83.67737%" x2="102.944611%" y2="-8.16131498%" id="linearGradient-10">
            <stop stop-color="#ACB6DC" offset="0%"></stop>
            <stop stop-color="#91A1DC" offset="100%"></stop>
        </linearGradient>
        <linearGradient x1="-57.5574647%" y1="90.8655672%" x2="270.007599%" y2="-32.5183248%" id="linearGradient-11">
            <stop stop-color="#ACB6DC" offset="0%"></stop>
            <stop stop-color="#91A1DC" offset="100%"></stop>
        </linearGradient>
    </defs>
    <g id="Welcome" stroke="none" stroke-width="1" fill="none" fill-rule="evenodd">
        <g id="Software" transform="translate(-237.000000, -1336.000000)">
            <g id="Group-36" transform="translate(116.000000, 1336.000000)">
                <g id="khanum-doctor" transform="translate(121.000000, 0.000000)">
                    <path d="M85,320.311721 L85,333.209476 C85,334.75064 86.183243,336 87.6428472,336 L98.795237,336 C99.3181,335.996848 99.7800638,335.639886 99.9410572,335.114619 C100.10205,334.589352 99.9257502,334.01429 99.5037751,333.688279 L96.6696227,331.44389 C95.4460416,330.495974 94.8522471,328.886254 95.1462658,327.314214 L96.8892695,318"
                          id="Path" fill="#91D4D9"></path>
                    <path d="M5.54657856,320.938486 L0.222769768,332.451104 C-0.130286756,333.229495 -0.0603208926,334.131247 0.408707608,334.847554 C0.877736109,335.563861 1.6821733,335.99751 2.54654036,336 L16.575496,336 C16.9171606,335.996169 17.2192258,335.780155 17.3292157,335.460996 C17.4392055,335.141838 17.333201,334.788941 17.0647108,334.580442 L14.4675555,332.614353 C13.4464044,331.851903 13.1409983,330.4689 13.7481218,329.356467 L20,318"
                          id="Path" fill="#91D4D9"></path>
                    <path d="M156.649741,79.4324915 C156.649741,79.4324915 162.85185,79.6364852 171.438294,75.3963289 C174.349801,73.9516307 177.022176,72.0463198 179.357692,69.7500727 L181.720738,67.4405718 C182.145326,67.0204888 182.766986,66.8877053 183.319534,67.099077 C183.872082,67.3104487 184.25754,67.8284954 184.310863,68.4313987 C184.425061,69.9568856 184.181733,71.488267 183.60124,72.8974052 C182.993645,74.4075623 183.633569,76.1425272 185.063064,76.8607128 L192.36509,80.5835992 C193.250089,81.0315152 193.856154,81.9065668 193.977658,82.9118654 C194.099163,83.9171639 193.719796,84.9177567 192.968269,85.5741611 C188.206483,89.8507483 181.582159,91.1898332 175.596687,89.0857682 C173.332283,88.385207 170.875875,88.9610133 169.132018,90.6011505 C165.420687,94.0690447 158.189624,98.6880466 149,94.0326172 L156.649741,79.4324915 Z"
                          id="Path" fill="#F9AA8F"></path>
                    <path d="M148,93.9926581 L156.082397,79.0557682 C158.524729,79.0088979 160.951159,78.654133 163.303371,78 C163.303371,78 162.614232,89.4350108 171.955056,88.9368666 L172,88.9368666 C170.971548,89.2370492 170.024314,89.7630511 169.228464,90.475909 C165.333333,94.0298331 157.707865,98.7436151 148,93.9926581 Z"
                          id="Path" fill="url(#linearGradient-1)"></path>
                    <path d="M24.3785964,318.867482 C77.8877084,258.996774 98,158.064873 98,158.064873 C72.0801861,151.648611 48.2507949,162.234363 48.2507949,162.234363 C44.8904226,233.34613 6,321.798367 6,321.798367 L6.2069019,322 L17.4081427,322 C20.0661844,321.998784 22.5991628,320.860464 24.3785964,318.867482 Z"
                          id="Path" fill="#635FA9"></path>
                    <path d="M39.9503523,217 C31.2588085,254.916067 18.1249199,290.182976 11,308 C16.0718556,297.014635 24.327034,282.393877 32.73959,281.278063 C46.2526158,279.492762 63.4997865,257.34926 67.1409353,249.408987 C71.1898356,240.619255 74.8023703,231.923107 78,223.579701 L39.9503523,217 Z"
                          id="Path" fill="url(#linearGradient-2)"></path>
                    <path d="M84.8175188,320 L94.5753252,320 C97.8074417,319.996728 100.665756,317.919303 101.642321,314.863702 C107.805146,295.667145 118.134388,248.149211 114.083705,170 L72,214.605452 C84.6583848,246.284075 84.9549527,304.296987 84.8175188,320 Z"
                          id="Path" fill="#635FA9"></path>
                    <path d="M115.295843,175.469199 L111.183748,175 L80.1080515,207.64183 L73,217.430048 C80.9304706,238.298587 83.8456529,269.402887 84.8663338,293 C84.653386,285.882608 84.7047872,262.761914 94.1772938,261.072796 C105.375412,259.073286 113.599604,254.929895 115.193041,236.133052 C116.154978,218.563345 116.338553,198.351685 115.295843,175.469199 Z"
                          id="Path" fill="url(#linearGradient-3)"></path>
                    <polygon id="Path" stroke="#000000" fill="url(#linearGradient-4)" points="84.5 294.505 84.5 294.505 84.5 294.495"></polygon>
                    <path d="M163.421084,78.6056634 C154.527666,80.5358505 136.704795,80.110074 110.089405,59.9637464 C100.446461,51.6823923 88,49 88,49 L92.5908486,59.7863395 L95.9060611,102.775579 L97.5060114,100.710563 C103.38691,98.4539474 124.618684,108.864184 149.756643,114.654745 C153.417647,115.49575 157.269064,114.784438 160.371692,112.694268 C163.474319,110.604099 165.542995,107.327178 166.073254,103.662614 L168.956047,83.6156343 C169.163588,82.1520453 168.627931,80.6814251 167.523014,79.6813099 C166.418097,78.6811948 164.884827,78.2791264 163.421084,78.6056634 Z"
                          id="Path" fill="#91D4D9"></path>
                    <path d="M164.134342,103.559692 L166.962586,83.3315998 C167.012471,82.9417953 167.012471,82.5471008 166.962586,82.1572964 C166.722185,85.0930549 164.608073,101.640708 147.716391,105.73645 C129.163115,110.233172 114.788569,84.5631863 111.910832,69.2184777 C110.934711,64.2042516 108.452923,59.617792 104.804871,56.0863286 C101.026815,53.5754525 96.965257,51.5321092 92.7070608,50 L92,59.5805973 L95.3231857,102.671804 L96.8928607,100.588132 C102.662477,98.3111286 123.492488,108.815416 148.154768,114.658291 C151.743491,115.497707 155.515345,114.774636 158.552809,112.664967 C161.590274,110.555298 163.614956,107.252391 164.134342,103.559692 Z"
                          id="Path" fill="url(#linearGradient-5)"></path>
                    <path d="M92.2270453,45.7617386 C92.2270453,45.7617386 94.2396821,29.1719727 91.7696278,16.4928042 C90.23552,8.65736299 86.4002505,3.59281872 81.0379105,1 L75,48.4685274 L91.5866608,50 L92.2270453,45.7617386 Z" id="_Path_"
                          fill="#7FA1D3"></path>
                    <path d="M93.955349,25.765819 C93.1897567,22.8606022 91.971113,20.0925669 90.343741,17.5623891 C89.6453154,16.4398349 89.0252672,15.2709101 88.487974,14.0638675 C86.5791449,9.80576543 84.2199826,5.76170729 81.4503348,2 L78.0671289,7.21584861 L69.2236856,9.2596097 L54.7701162,21.9266706 L53,30.4423418 L65.5335644,50 L87.4673022,47.3388527 L87.3174133,47.3033708 C85.7944477,46.8756968 84.6328424,45.6478395 84.2966623,44.1103315 C83.9604822,42.5728235 84.5045316,40.9763106 85.7114612,39.9586044 C86.950533,38.9167356 88.0535369,37.7247342 88.9947412,36.410408 C90.3523365,34.5176641 91.2290399,32.3263746 91.5499895,30.0236546 C91.6603037,29.0869105 92.1832538,28.2472179 92.9775025,27.7315198 C93.732433,27.3911516 94.1414536,26.5689242 93.955349,25.765819 Z"
                          id="Path" fill="#F9AA8F"></path>
                    <path d="M90.9985795,29.9982388 C91.4881147,29.743461 91.8503237,29.2998364 92,28.7717239 C91.2045455,28.9972898 89.8693182,29.2792473 89.8693182,28.5955005 C89.9048295,27.6156983 87.5965909,23.9713982 88.1931818,24.0348386 C88.7897727,24.098279 89.8551136,22.5757087 89.8693182,22.5545619 C89.4076705,21.659347 88.9105114,20.771181 88.3778409,19.9182597 C87.8451705,19.0653384 87.4261364,18.2688086 87.0071023,17.4158873 L83.0014205,17 L67,23.5907556 L67.859375,41.6360329 C67.859375,41.6360329 75.7357955,46.062765 78.1008523,45.9993246 C79.8338068,45.949982 82.0852273,43.8846436 83.1576705,42.841401 C83.3418489,42.6013849 83.5513749,42.381617 83.7826705,42.18585 C83.7826705,42.18585 79.0809659,45.0054245 75.671875,37.2515944 C72.2627841,29.4977643 80.4659091,24.4859705 84.8622159,24.6128514 C89.2585227,24.7397322 89.5994318,32.2961921 89.5994318,32.2961921 C89.6981635,31.3617734 90.2109896,30.5195104 90.9985795,29.9982388 Z"
                          id="Path" fill="url(#linearGradient-6)"></path>
                    <path d="M93,18.6607507 C93,18.6607507 93,22.2225538 83.7019858,23.2918172 C74.4039716,24.3610806 68.5181394,32.1060154 72.1122075,39.5836344 C75.7062756,47.0612533 84.0875842,47.7042563 84.0875842,47.7042563 L72.1049321,53 L62.7705406,45.4573583 C62.7705406,45.4573583 55.8006677,29.2305638 56.0043801,29.0716193 C56.2080924,28.9126747 75.2333719,7.64300298 75.2333719,7.64300298 L87.5070417,7"
                          id="Path" fill="#1C1651"></path>
                    <path d="M107.738954,133.216786 C107.386753,131.655451 107.039312,130.072497 106.69663,128.467924 L106.760883,128.691315 C106.760883,128.691315 106.403922,119.784496 108.645633,111.82889 C110.309067,105.862186 110.708863,86.9460048 103.612493,82.2836164 C99.901667,79.8380821 97.4106387,75.9011426 96.7731351,71.4743699 C94.9169419,58.7338712 93.8317828,50 93.8317828,50 C93.8317828,50 48.333631,71.3230404 36.3611847,185.562364 C35.290304,195.766293 34.5073712,206.729271 34.0123864,218.451299 C33.7378657,225.036244 38.0524784,230.922055 44.3713724,232.582587 C62.6263189,237.324243 99.1933255,239.976112 113.15761,191.442594 C116.705795,179.076816 115.249397,166.415586 107.738954,133.216786 Z"
                          id="Path" fill="#91D4D9"></path>
                    <path d="M71.9438156,218.411055 C47.81821,212.032809 54.4663778,186.440724 68.3579646,173.986245 C77.8102679,165.501092 106.583136,129.568626 107.085156,128.935835 L107.034954,128.698538 L107.099499,128.921453 C107.099499,128.921453 106.740914,120.033615 109,112.094963 C109,112.094963 105.363947,118.20715 97.9412355,117.603122 C90.5185239,116.999094 86.3804518,97.4688605 86.3804518,97.4688605 L63.9043376,85 C52.7093108,105.450657 41.4855971,137.147737 36.3721736,185.671308 C35.2964183,195.853491 34.5099216,206.793107 34.0126836,218.490154 C33.7341468,225.061917 38.0695461,230.936739 44.4188232,232.591328 C60.33283,236.697279 90.1025652,239.221252 106.855661,208.142582 C106.862833,208.149772 96.0694212,224.789301 71.9438156,218.411055 Z"
                          id="Path" fill="url(#linearGradient-7)"></path>
                    <path d="M69.1132961,134.562138 L100.94481,134.552191 C102.185827,134.553705 103.374999,135.048884 104.250234,135.928591 C105.12547,136.808299 105.614924,138.000324 105.610722,139.241944 L105.595112,189.221671 C105.594305,191.80462 103.50078,193.899169 100.919093,193.899975 L69.0947599,193.90992 C64.3358897,193.911407 60.4792687,190.0529 60.4807558,185.291702 L60.4938821,143.264766 C60.4953692,138.503568 64.3544012,134.64265 69.1132714,134.641163 L69.1132961,134.562138 Z"
                          id="Path" fill="#1C1651" transform="translate(83.045752, 164.231056) rotate(-115.980000) translate(-83.045752, -164.231056) "></path>
                    <path d="M101.314585,167.392829 C101.850151,168.493485 102.808411,169.338804 103.977725,169.74209 C105.147039,170.145376 106.4312,170.073447 107.546589,169.542192 L108.353768,169.155306 C109.470913,168.627647 110.328897,167.683531 110.738225,166.531478 C111.147554,165.379425 111.074548,164.114219 110.535332,163.015295 L95.1916598,132 L86,136.413357 L101.314585,167.392829 Z"
                          id="Path" fill="#B6B3E8"></path>
                    <path d="M63.8930926,149 C63.8930926,149 68.2533375,153.546453 77.4316529,156.733951 C80.5502141,157.792314 83.8188008,158.366086 87.1186636,158.434424 L90.461518,158.519803 C91.0661291,158.531582 91.6100619,158.882362 91.8598336,159.421572 C92.1096054,159.960782 92.0207922,160.592519 91.6315171,161.04561 C90.6293705,162.172915 89.3659822,163.048777 87.9471101,163.599878 C86.4440713,164.209013 85.681267,165.855164 86.2030122,167.363686 L88.8482274,175.118982 C89.1728553,176.057523 88.9924874,177.093042 88.3684949,177.873197 C87.7445024,178.653352 86.7609335,179.073061 85.7524536,178.989515 C79.2973143,178.561436 73.565782,174.794183 70.7168758,169.106849 C69.5783624,167.012344 67.3966112,165.660395 64.9758867,165.549374 C59.8380648,165.300351 51.3573886,163.350854 48,153.610488 L63.8930926,149 Z"
                          id="Path" fill="#F9AA8F"></path>
                    <path d="M49,153.795082 L63.7439353,149 C65.3221701,150.674029 67.0883408,152.121692 69,153.308197 C69,153.308197 61.2169811,160.832787 67.4636119,167 C66.6174404,166.492502 65.6777745,166.200028 64.7142857,166.144262 C59.9770889,165.922951 52.106469,163.894262 49,153.795082 Z"
                          id="Path" stroke="#000000" fill="url(#linearGradient-8)" opacity="0.49" style="mix-blend-mode: color-burn;"></path>
                    <path d="M68.934457,151.446268 C64.4039801,147.530696 60.4662424,142.98296 57.2436196,137.944393 C55.4500367,134.998958 54.2111993,131.752341 53.5879708,128.364046 L53.4793872,127.816185 C51.5827931,117.911446 52.0316054,99.1039763 74.4722221,80.2388367 L90.158937,62.1306096 C91.9481155,60.0702335 92.4796564,57.2079228 91.5487386,54.6466242 C90.6178208,52.0853256 88.3697608,50.2248586 85.6708136,49.7821251 C69.0213239,47.1077014 39.8195667,49.1765952 25.2186881,90.7563142 C10.9001269,131.550286 24.7553979,156.355386 32.4141632,166.058281 C32.7754395,166.721677 33.2679402,167.305307 33.8619449,167.773949 C34.7577296,168.842291 35.7251302,169.849005 36.7575083,170.787181 L36.8226585,170.664633 C39.6701915,174.075991 41.4675115,178.233874 41.9984782,182.638266 C42.2339931,184.276103 43.2554004,185.697248 44.7362508,186.447492 C46.2171011,187.197737 47.9720026,187.183157 49.4400762,186.408411 C62.0212993,179.906173 84.6066941,165.380664 68.934457,151.446268 Z"
                          id="Path" fill="#91D4D9"></path>
                    <path d="M61.1144492,75.6895307 C78.4177396,75.1659206 86,61.2831769 86,61.2831769 L47.6380544,58 C39.1330472,64.1276534 31.2288984,74.1823827 25.5565093,90.2232491 C23.6067545,95.6921786 22.08346,101.300843 21,107 C24.8197425,95.3602888 33.6037196,88.0438989 38.3962804,93.2446209 C45.1416309,100.561011 56.8726753,101.42426 56.8726753,101.42426 C59.0671632,96.7967392 61.8979771,92.491613 65.2846924,88.6311913 C58.6466381,84.0885199 48.7181688,76.0857762 61.1144492,75.6895307 Z"
                          id="Path" fill="url(#linearGradient-9)"></path>
                    <path d="M65.6463368,77.1187293 C63.6187369,76.8522329 61.8484736,75.6046244 60.9054452,73.7775444 C60.1711887,72.2974276 59.597285,70.7420168 59.1936522,69.1381922 C57.7213694,62.4912915 58.7287208,54.0993134 58.7287208,54 L47.457656,60.1928968 C45.914929,57.710063 47.457656,56.8162429 47.457656,56.8162429 C47.457656,56.8162429 42.9914965,60.3134916 41.3431033,62.2784772 C39.69471,64.2434628 37.0248766,67.5562724 38.3633155,71.3018045 C39.9482543,75.3599843 42.1073846,79.1661516 44.7737336,82.602245 C48.4720518,87.7239764 54.5866045,91.5971971 63.9134106,92.6612687 C69.7391423,93.3280869 71.8665558,109.41685 72.2258209,120.795322 C72.3495611,124.710923 75.4668171,127.859343 79.3547695,127.99554 C81.3878645,128.066409 83.3600466,127.29012 84.8064995,125.849634 C86.2529524,124.409149 87.0457209,122.431894 86.9979603,120.383881 C86.6739172,106.359417 83.7223071,79.1759344 65.6463368,77.1187293 Z"
                          id="Path" fill="#A4B9DF"></path>
                    <path d="M84,94 C80.9692439,85.1672401 75.7041861,77.8125 66.618966,76.7870795 C64.5902566,76.5214075 62.8190247,75.2776586 61.8754803,73.4562309 C61.140822,71.980693 60.5666043,70.430094 60.1627507,68.8312309 C59.4627022,65.1390586 59.2259201,61.3734979 59.4579236,57.6223242 L59.2958134,57.5445336 L53.7699697,57 L48.4203327,59.9136086 C47.7155057,58.732607 47.6591196,57.9193425 47.828278,57.3818807 L47.2714647,57.4808869 C45.5176928,58.8600701 43.8685506,60.3681772 42.3376757,61.992737 C40.7729597,63.9021407 38.0170861,67.2542049 39.3562574,70.9881498 C40.9420635,75.0337754 43.1023752,78.8281679 45.7701832,82.2536315 C48.2163357,85.5849371 51.5134493,88.1918775 55.3135409,89.7993119 L63.4824859,92.0835245 C63.5811616,91.9562309 76.4653993,77.5013379 84,94 Z"
                          id="Path" fill="url(#linearGradient-10)"></path>
                    <path d="M84.426656,45.8709127 C72.7362797,48.8121734 61.252031,39.759388 62.1648815,28.051596 C62.4133932,24.9648882 63.3584613,21.9693185 64.9328799,19.2779083 C65.0506671,19.1133122 71.1093445,9.25901534 81.3126578,9.43792414 C90.2350357,9.59536389 93.4373743,17.1095336 93.4373743,17.1095336 C93.4373743,17.1095336 94.173544,3.82018774 80.9740197,0.614142 C80.1950176,0.414633362 79.4030668,0.266399386 78.603553,0.17044817 L78.4857658,0.17044817 L78.3311701,0.17044817 C66.3389642,-1.21072779 40.926383,5.2299891 47.1028476,40.6968701 C49.1788464,52.6622908 41,60.734656 41,60.734656 C41,60.734656 86.6425271,78.274875 93.5846082,49.3274307 C95.4029476,41.7273848 91.0521841,44.2034826 84.426656,45.8709127 Z"
                          id="Path" fill="#A4B9DF"></path>
                    <path d="M77.6040436,56.6816934 C69.3221331,55.5769317 58.3053643,49.8278104 58.895925,43.4826992 C59.4864856,37.137588 72.9006496,45.5686636 72.9006496,45.5686636 L72.9006496,45.4087638 C66.5747721,42.3891423 62.717059,35.6370992 63.2126423,28.4521265 C63.4499731,25.3171896 64.3525212,22.2748147 65.8561044,19.5413518 C65.8561044,19.5413518 66.0599884,19.1924797 66.3974517,18.6982442 C62.2775879,24.120298 56.6391395,31.2212987 52.7020683,26.01729 C49.0040336,21.1258125 50.4874658,16.0817035 52.1115076,13 C48.4767473,19.3305749 46.7191262,28.430322 48.8282715,41.3022486 C50.810868,53.4546265 43,61.6531207 43,61.6531207 C43,61.6531207 56.9906637,67.3731694 70.3274924,66.9806883 C80.1912618,65.5125182 84.5571926,57.6047508 77.6040436,56.6816934 Z"
                          id="Path" fill="url(#linearGradient-11)"></path>
                </g>
            </g>
        </g>
    </g>
</svg>