<svg width="140px" height="277px" viewBox="0 0 140 277" version="1.1" xmlns="http://www.w3.org/2000/svg">
    <defs>
        <linearGradient x1="129.676512%" y1="112.945839%" x2="-2.27324079%" y2="-27.0169421%" id="linearGradient-1">
            <stop stop-color="#FFFFFF" stop-opacity="0" offset="0%"></stop>
            <stop stop-color="#000000" offset="100%"></stop>
        </linearGradient>
        <linearGradient x1="-242.813456%" y1="4.69907407%" x2="281.697099%" y2="85.5650473%" id="linearGradient-2">
            <stop stop-color="#F1E39A" offset="0%"></stop>
            <stop stop-color="#FFB971" offset="48%"></stop>
            <stop stop-color="#FF6363" offset="100%"></stop>
        </linearGradient>
        <linearGradient x1="186.567164%" y1="-225.239658%" x2="-22.9621125%" y2="189.416984%" id="linearGradient-3">
            <stop stop-color="#FFFFFF" stop-opacity="0" offset="0%"></stop>
            <stop stop-color="#000000" offset="100%"></stop>
        </linearGradient>
        <linearGradient x1="29.4182145%" y1="118.129232%" x2="106.678172%" y2="-142.432733%" id="linearGradient-4">
            <stop stop-color="#FFFFFF" offset="10%"></stop>
            <stop stop-color="#D1D3D4" offset="79%"></stop>
        </linearGradient>
        <linearGradient x1="85.114684%" y1="5.25382399%" x2="10.6626018%" y2="114.985591%" id="linearGradient-5">
            <stop stop-color="#FFFFFF" stop-opacity="0" offset="0%"></stop>
            <stop stop-color="#000000" offset="100%"></stop>
        </linearGradient>
        <linearGradient x1="105.182105%" y1="92.2284123%" x2="17.3523175%" y2="7.45821727%" id="linearGradient-6">
            <stop stop-color="#FFFFFF" stop-opacity="0" offset="0%"></stop>
            <stop stop-color="#000000" offset="100%"></stop>
        </linearGradient>
        <linearGradient x1="72.8201852%" y1="84.5455405%" x2="-38.358352%" y2="-126.91762%" id="linearGradient-7">
            <stop stop-color="#FFFFFF" stop-opacity="0" offset="0%"></stop>
            <stop stop-color="#000000" offset="100%"></stop>
        </linearGradient>
        <linearGradient x1="50.0079859%" y1="239.54388%" x2="50.0079859%" y2="-360.512381%" id="linearGradient-8">
            <stop stop-color="#FFFFFF" stop-opacity="0" offset="0%"></stop>
            <stop stop-color="#000000" offset="100%"></stop>
        </linearGradient>
        <linearGradient x1="44.2400952%" y1="79.5474369%" x2="119.46762%" y2="-38.1742391%" id="linearGradient-9">
            <stop stop-color="#FFFFFF" stop-opacity="0" offset="0%"></stop>
            <stop stop-color="#000000" offset="100%"></stop>
        </linearGradient>
        <linearGradient x1="20.5318491%" y1="61.9459834%" x2="117.408782%" y2="-47.5761773%" id="linearGradient-10">
            <stop stop-color="#FFFFFF" stop-opacity="0" offset="0%"></stop>
            <stop stop-color="#000000" offset="100%"></stop>
        </linearGradient>
        <linearGradient x1="51.4668601%" y1="108.100246%" x2="48.6563005%" y2="-44.7751175%" id="linearGradient-11">
            <stop stop-color="#FFFFFF" stop-opacity="0" offset="0%"></stop>
            <stop stop-color="#000000" offset="100%"></stop>
        </linearGradient>
        <linearGradient x1="49.9741338%" y1="279.652605%" x2="49.9741338%" y2="-128.039702%" id="linearGradient-12">
            <stop stop-color="#FFFFFF" stop-opacity="0" offset="0%"></stop>
            <stop stop-color="#000000" offset="100%"></stop>
        </linearGradient>
        <linearGradient x1="50.2813299%" y1="105.512841%" x2="50.2813299%" y2="47.7016195%" id="linearGradient-13">
            <stop stop-color="#FFFFFF" stop-opacity="0" offset="0%"></stop>
            <stop stop-color="#000000" offset="100%"></stop>
        </linearGradient>
        <linearGradient x1="-1.11704711%" y1="256.538699%" x2="78.241865%" y2="-58.3072854%" id="linearGradient-14">
            <stop stop-color="#FFFFFF" offset="10%"></stop>
            <stop stop-color="#D1D3D4" offset="79%"></stop>
        </linearGradient>
    </defs>
    <g id="Welcome" stroke="none" stroke-width="1" fill="none" fill-rule="evenodd">
        <g id="SEO" transform="translate(-1174.000000, -1079.000000)">
            <g id="Group-20" transform="translate(206.000000, 915.000000)">
                <g id="ostad-ramin" transform="translate(224.000000, 164.000000)">
                    <g id="Group-28" transform="translate(744.000000, 0.000000)">
                        <path d="M95.0000107,28.2366284 L95.0000107,129.612419 C95.0000107,131.483328 96.5670134,133 98.5000091,133 L136.499991,133 C138.432987,133 139.999989,131.483328 139.999989,129.612419 L139.999989,3.39597859 C140.003203,2.1402199 139.288438,0.98577103 138.142802,0.396351514 C136.997166,-0.193068001 135.608649,-0.120738719 134.534992,0.584286105 L96.53501,25.4249359 C95.5723855,26.05704 94.9971343,27.1107405 95.0000107,28.2366284 Z"
                              id="Path" fill="#728AFF"></path>
                        <path d="M114.217367,133 L136.437447,133 C138.404985,133 139.999989,131.483383 139.999989,129.612542 L139.999989,3.39585503 C140.00326,2.14014202 139.275723,0.985735163 138.109615,0.396337093 C136.943507,-0.193060977 135.530178,-0.120734326 134.437335,0.584264845 L95.7583124,25.4240108 C95.4727443,25.6103805 95.2172855,25.8353521 95,26.091824 L105.438247,35.6831695 C111.052636,40.8410346 114.222997,47.946014 114.222456,55.36914 L114.222456,133 L114.217367,133 Z"
                              id="Path" fill="url(#linearGradient-1)" opacity="0.211309524" style="mix-blend-mode: multiply;"></path>
                        <ellipse id="Oval" fill="#728AFF" cx="115" cy="68" rx="6" ry="21"></ellipse>
                        <path d="M115.622106,69.00625 L120,73.2694444 C119.360856,82.5055556 117.116645,89 114.588903,89 C111.522936,89 109,79.5208333 109,68 C109,56.4791667 111.522936,47 114.588903,47 C117.0782,47 119.279161,53.2416667 119.961555,62.2298611 L115.57405,66.9451389 C115.024937,67.5278309 115.046447,68.4503921 115.622106,69.00625 Z"
                              id="Path" fill="url(#linearGradient-2)"></path>
                        <path d="M87,95.7201065 L104.519685,61.4314248 C104.654864,61.1666268 104.923524,61.0003379 105.216705,61 C105.486215,61.0011188 105.736395,61.1426204 105.879665,61.3749702 C106.022935,61.60732 106.039343,61.898158 105.923143,62.1456724 L89.3547963,97"
                              id="Path" fill="#E4E4EA"></path>
                        <path d="M88.6027555,92.0107905 L87,94.8644787 L89.2962113,96 L91,92.7422873 C90.3420228,92.2059955 89.4761078,91.9417695 88.6027555,92.0107905 Z" id="Path" fill="url(#linearGradient-3)" opacity="0.49"
                              style="mix-blend-mode: color-burn;"></path>
                        <path d="M62.5937808,84.9897134 C62.5937808,84.9897134 65.1233856,84.6902037 65.9309339,81.9230913 C66.7384822,79.1559789 60.1978761,80.1886169 60.1978761,80.1886169 L60,86" id="Path" fill="#F9AA8F"></path>
                        <path d="M56.984173,77.5165264 L56,76.738799 L59.8778555,67.1033619 C59.8778555,67.1033619 65.6866157,65.9623845 64.9324397,71.2621078 C64.9324397,71.2621078 63.6915259,78.3315102 60.6213341,81 C60.6159853,81 60.1827352,78.9369267 56.984173,77.5165264 Z"
                              id="Path" fill="url(#linearGradient-4)"></path>
                        <path d="M58.2794952,83.0349765 L58.2794952,79.6250731 C58.2784878,79.1787096 58.4622496,78.7550645 58.7808119,78.4693355 L61.4426706,76.081448 C61.5232642,76.007212 61.6331541,75.9816269 61.7350417,76.0133767 C61.8369293,76.0451265 61.9171306,76.1299469 61.9484238,76.2390486 C62.0770803,76.7166261 62.0460253,77.6287991 60.8792439,78.8084155 C60.8792439,78.8084155 62.5384691,81.0291509 60.6840409,83.6510514 C58.8296126,86.272952 58,85.9911812 58,85.9911812"
                              id="Path" fill="#F9AA8F"></path>
                        <path d="M79,103.05254 L82.7882355,97.8693542 C83.3934761,97.0416116 84.3193197,96.4770904 85.361765,96.3001777 L86.7926474,96.0549939 C88.1508527,95.8207778 89.5301357,96.3464028 90.3441182,97.4084086 C91.235492,98.5673823 91.2166167,100.147866 90.2977947,101.287217 C89.6558347,102.084824 88.6608743,102.552437 87.6058828,102.552365 L86.8286769,102.552365 C86.8286769,102.552365 87.188971,105.700526 81.3316178,107"
                              id="Path" fill="#F9AA8F"></path>
                        <path d="M27.6193213,81 C27.6193213,81 34.6376699,86.7936283 36.6969161,100.453521 C38.7561623,114.113414 57.0904167,81.6193525 57.0904167,81.6193525 C57.0904167,81.6193525 61,81.9558511 61,83.5700691 C61,83.5700691 54.4293136,111.367781 45.3218747,113.689133 C36.2144357,116.010486 16,104.569533 16,104.569533"
                              id="Path" fill="#20436D"></path>
                        <path d="M50.3334573,102.111284 C47.8074046,100.635558 51.6773174,92 51.6773174,92 C46.0139071,100.02106 38.0366324,109.461982 36.7079286,101.194192 C36.6068865,100.551762 36.4856359,99.9326092 36.3593333,99.3320771 L34.7578158,100.1002 L34,111.505653 L47.4133403,113 C49.1815773,111.919973 50.8336158,110.020616 52.3391433,107.702283 C53.8345665,105.169807 52.6321654,103.452006 50.3334573,102.111284 Z"
                              id="Path" fill="url(#linearGradient-5)" opacity="0.49" style="mix-blend-mode: color-burn;"></path>
                        <polyline id="Path" fill="#F9AA8F" points="34 254.967685 34.2945571 263 38 263 38 254"></polyline>
                        <path d="M39.2082545,151 L22.4185792,151 L22,166.518161 L33.162111,256 L38.5385279,256 C45.9148229,202.07164 39.2082545,151 39.2082545,151 Z" id="Path" fill="#1B1C37"></path>
                        <path d="M41.9967062,177.877994 C41.4934653,167.251811 40.6436527,159.258496 40.0976838,154.854596 C39.9367971,153.520366 39.5667221,152.219638 39.0009983,151 L22.4320276,151 L22,166.356825 L29.4299253,219 C29.4299253,219 29.3729546,196.061838 35.8771064,194.087187 C40.1356642,192.794429 42.0916573,188.480501 41.9967062,177.877994 Z"
                              id="Path" fill="url(#linearGradient-6)" opacity="0.49" style="mix-blend-mode: color-burn;"></path>
                        <polyline id="Path" fill="#F9AA8F" points="7 255.860804 7 263 11.497307 263 13 254"></polyline>
                        <polygon id="Path" fill="#252749" points="1 155 6.48410797 256 12.9239738 256 33 155"></polygon>
                        <path d="M3.98435005,205 C3.98435005,205 3.5193229,184.149721 12.8709677,178.886314 C20.3011817,174.701126 27.2101565,174.549797 30.8639412,164.76544 L33,155 L1,155 L3.98435005,205 Z" id="Path" fill="url(#linearGradient-7)"
                              opacity="0.49" style="mix-blend-mode: color-burn;"></path>
                        <path d="M1.26577224,160.316885 C2.95240377,160.78007 13.0721929,163.281269 31.850024,161.15525 L33,156 L1,156 L1.26577224,160.316885 Z" id="Path" fill="url(#linearGradient-8)" opacity="0.49"
                              style="mix-blend-mode: color-burn;"></path>
                        <ellipse id="Oval" fill="#D4D4DD" cx="36" cy="59" rx="1" ry="2"></ellipse>
                        <path d="M12.7708792,79 C12.7708792,79 -2.62296617,102.517447 0.391178045,155.178157 C0.391178045,155.178157 13.7251058,159.636713 40.8372573,154.604094 C40.8372573,154.604094 45.860831,152.604441 43.2455434,147.131707 C40.6302557,141.658974 40.8776478,98.1784872 29.4723685,84.2335408"
                              id="Path" fill="#254A7F"></path>
                        <path d="M11.7717366,123.035218 C13.450883,105.423618 26.0974272,112.332035 26.0974272,112.332035 L9.63876683,85 C5.31735998,95.2604597 -1.73707197,118.301492 0.390855323,156.151837 C0.390855323,156.151837 10.7632403,159.674157 31.7954316,156.993496 C31.990621,155.092553 32.046227,153.180671 31.9618335,151.272159 C31.5584349,143.089089 10.0925902,140.646818 11.7717366,123.035218 Z"
                              id="Path" fill="url(#linearGradient-9)" opacity="0.49" style="mix-blend-mode: color-burn;"></path>
                        <path d="M28,70.1217184 L13.8206555,67 C13.8206555,67 15.1762523,74.522673 12,77.8735084 L25.283859,83 C25.283859,83 21.67718,72.8854415 28,70.1217184 Z" id="Path" fill="#F9AA8F"></path>
                        <path d="M13.8206555,67 C13.8206555,67 15.1762523,74.6398892 12,78.0429363 L19.5497835,81 C20.9202226,80.3649584 21.8206555,79.6475069 21.3259122,78.9445983 C19.9257885,76.9570637 20.8311688,76.2056787 21.9393939,74.0969529 C23.047619,71.9882271 28,70.1800554 28,70.1800554 L13.8206555,67 Z"
                              id="Path" fill="url(#linearGradient-10)" opacity="0.49" style="mix-blend-mode: color-burn;"></path>
                        <path d="M32.0307893,44 C32.0307893,44 41.4663953,47.3817261 34.3335576,56.0185087 C27.2007198,64.6552912 20,51.780403 20,51.780403" id="Path" fill="#603C24"></path>
                        <path d="M37.9696048,60.9871959 C37.5837031,57.0204142 35.3850789,53.8346815 33.5469682,51.8134216 C32.8613246,50.9736172 32.0626578,50.2195166 31.1706262,49.5696812 L30.9319765,49.3850696 C26.6885029,46.4727909 20.989325,46.2051978 16.453446,48.7052604 C11.917567,51.2053229 9.42224083,55.9895207 10.114171,60.859321 C10.8061012,65.7291213 14.5514662,69.7426886 19.6291189,71.0556261 L19.9896323,71.1313642 C20.2130491,71.1834341 20.4415435,71.2165695 20.6649603,71.2733731 C30.0992412,73.7253933 33.8668604,69.5171965 35.3241471,65.4178732 C37.0150058,64.7409642 38.2082545,63.4155479 37.9696048,60.9871959 Z"
                              id="Path" fill="#F9AA8F"></path>
                        <path d="M11.6497327,50 C8.42459371,53.1034286 7.22807251,57.519219 8.49833761,61.6303 C9.76860271,65.741381 13.3190493,68.9438253 17.8494966,70.0648915 L18.216316,70.1400761 C18.4436406,70.1917655 18.6761318,70.2246588 18.9034565,70.2810472 C20.6547575,70.7523243 22.4709148,70.9944045 24.297251,71 C20.3345686,70.0226001 19.6990928,61.6019244 27.2266394,58.8435892 C34.7541861,56.085254 32.7650952,51.7950324 32.7547622,51.7950324 L11.6497327,50 Z"
                              id="Path" fill="url(#linearGradient-11)" opacity="0.49" style="mix-blend-mode: color-burn;"></path>
                        <path d="M37,63 C36.1321019,63.8489584 34.91687,64.2620248 33.7003141,64.1215881 C31.6436951,63.8684864 34.7715751,65 34.7715751,65 C35.739077,64.6244381 36.5322041,63.9126106 37,63 Z" id="Path" fill="url(#linearGradient-12)"
                              opacity="0.49" style="mix-blend-mode: color-burn;"></path>
                        <path d="M33.5306752,52.8479524 C32.1246163,54.9124702 29.620259,56.0887884 27.0096633,55.9109278 C23.5284462,55.7045405 22.1941468,59.1943623 21.7778053,60.7281953 C21.6618272,61.1394376 21.2645043,61.4262721 20.8096858,61.4270978 C20.2556158,61.4270978 19.8064532,61.0070853 19.8064532,60.4889737 C19.8064532,58.9926656 19.3951279,56.2205087 16.2951391,56.2205087 C12.0414329,56.2205087 12.4928876,62.8295935 15.8988622,63.6082365 C19.3048369,64.3868796 15.0461145,69.799856 13.892397,68.8992568 C12.7386795,67.9986576 6.62899301,60.3060395 6.06216659,56.1126245 C5.49534017,51.9192095 8.70568449,42.425393 19.7813724,42.0407621 C30.8570603,41.6561312 40.7689984,43.8982479 33.5306752,52.8479524 Z"
                              id="Path" fill="#70462A"></path>
                        <path d="M11,80.5566502 L13.9049296,75 L23.2746479,80.4679803 C24.2525512,81.0390582 24.9215776,81.9732429 25.1126761,83.0344828 L26,88 L23.4806338,84.0591133 L21.1408451,87.0985222 L11,80.5566502 Z" id="Path"
                              fill="#3C6799"></path>
                        <path d="M26.011236,88 L25,81.2481203 L25.341573,76 L27.2247191,79.1077694 C27.6055678,79.7268405 27.908043,80.4015344 28.1235955,81.112782 L29,84.0902256 L26.752809,83.4185464 L26.011236,88 Z" id="Path" fill="#3C6799"></path>
                        <path d="M6.17034961,263 L1.93107968,271.176322 C1.31828463,272.358142 0.999430336,273.662411 1.00000076,274.984887 L1,277 L13,277 L12.9999955,273.105793 C13.0007693,272.364228 12.9010892,271.62577 12.7035067,270.90932 L10.5188523,263.020151 L6.17034961,263 Z"
                              id="Path" fill="#1B1C37"></path>
                        <path d="M33,263 L33,276 L50,276 L50,275.526929 C49.9999981,273.905291 49.15413,272.382592 47.7268337,271.434862 L45.7512828,270.124454 C45.1474014,269.722291 44.4667553,269.428597 43.7449442,269.258734 L40.9586478,268.605895 C39.6523955,268.301333 38.712701,267.249081 38.6392997,266.008734 L38.4597042,263.009461 L33,263 Z"
                              id="Path" fill="#1B1C37"></path>
                        <path d="M22.7568809,83.4372593 C22.3436366,83.7138651 22.0754741,84.1260629 22.0136533,84.5796888 C21.9518324,85.0333147 22.1016345,85.4896163 22.4288382,85.8443545 L24.9530992,88.5841378 C25.1947643,88.8470829 25.5584728,88.9999106 25.9427875,88.9999977 C26.5312819,89.0010329 27.0439071,88.6470495 27.1826778,88.1438155 L27.9444041,85.3893548 C28.110662,84.7947289 27.8978845,84.1675082 27.3883995,83.7503774 L27.2716385,83.652528 C26.7052335,83.1903583 25.9458337,82.9563923 25.1755011,83.0067219 L23.7799294,83.0947864 C23.4083505,83.11909 23.052859,83.2380934 22.7568809,83.4372593 Z"
                              id="Path" fill="#4778A8"></path>
                        <path d="M26,89.2347259 C26,89.2347259 29.6397937,111.079876 27.0883945,125.939327 C26.8315033,127.461802 27.274876,129.01506 28.3084088,130.213378 L32.0545107,134.615651 C32.2891776,134.890376 32.6576295,135.033018 33.0305336,134.993507 C33.4034377,134.953995 33.7286916,134.737851 33.8921256,134.420944 L36.3929018,129.543777 C36.8889141,128.573823 37.0870022,127.493398 36.9649417,126.423719 C36.261282,120.197852 33.3808333,98.0155264 27.0327092,88"
                              id="Path" fill="#4778A8"></path>
                        <path d="M28.173913,116.730411 C30.6653534,118.370984 33.2827652,119.798935 36,121 C35.2726343,115.003599 33.8179028,105.045968 31.3964194,96.6159005 C29.8127877,94.836905 28.3488491,93.2951088 27,92 C27.6813299,97.5694422 28.5928389,107.522329 28.173913,116.730411 Z"
                              id="Path" fill="url(#linearGradient-13)" opacity="0.49" style="mix-blend-mode: color-burn;"></path>
                        <path d="M10.4579604,82.2202706 C10.4579604,82.2202706 16.9970285,78.6292852 36.0253105,100.445589 C57.5869737,125.169784 80.0675588,102.547051 80.0675588,102.547051 C80.0675588,102.547051 84.1290918,104.055549 82.6923245,106.887542 C82.6923245,106.887542 60.1355857,137.204566 22.9319435,111.958563 C-0.218794477,96.2521528 10.4579604,82.2202706 10.4579604,82.2202706 Z"
                              id="Path" fill="#254A7F"></path>
                        <path d="M61,83.4101538 C61,83.4101538 64.3997086,74.1548033 64.9922292,72.9367365 C65.5847499,71.7186697 69.6886838,71.1854598 71,74.54615 L66.7357941,85 C66.7357941,85 64.4531326,81.2283957 61,83.4101538 Z" id="Path"
                              fill="url(#linearGradient-14)"></path>
                    </g>
                </g>
            </g>
        </g>
    </g>
</svg>