<svg id="1c285f87-2444-4ad5-b31a-c93fb0a79562" xmlns="http://www.w3.org/2000/svg" viewBox="0 0 223 194.01">
    <path d="M43.75,140.88l45.87-46,24,24.06-45.87,46ZM0,97,24,73l43.76,43.87-24,24.06ZM24,73,86.82,10a33.87,33.87,0,0,1,47.9-.09h0l.09.09L48,97Z" transform="translate(-0.01 0.02)" style="fill:#36546e"/>
    <path d="M109.39,75l45.87-46,24,24.06-45.87,46Zm45.87,2.12,24-24.06L223,97l-24,24ZM88.21,184,175,97l24,24L136.2,184a33.87,33.87,0,0,1-47.89.1Z" transform="translate(-0.01 0.02)" style="fill:#36546e"/>
</svg>