<svg width="24px" height="24px" viewBox="0 0 24 24" version="1.1" xmlns="http://www.w3.org/2000/svg">
    <g id="Welcome" stroke="none" stroke-width="1" fill="none" fill-rule="evenodd">
        <g id="Design" transform="translate(-459.000000, -3749.000000)">
            <g id="Group-49" transform="translate(-19.000000, 3458.000000)">
                <g id="Group-46" transform="translate(231.000000, 95.000000)">
                    <g id="Group-45">
                        <g id="Group-44-Copy-2" transform="translate(23.000000, 184.000000)">
                            <g id="Group-43" transform="translate(199.000000, 0.000000)">
                                <g id="add-user" transform="translate(37.000000, 24.000000) scale(-1, 1) translate(-37.000000, -24.000000) translate(25.000000, 12.000000)">
                                    <path d="M16.8782132,12.0426094 C16.4264219,11.823375 15.965447,11.6345156 15.4963904,11.4763125 C17.0155092,10.3123125 18,8.45882812 18,6.375 C18,2.85984375 15.1985636,0 11.7550959,0 C8.31162823,0 5.51019181,2.85984375 5.51019181,6.375 C5.51019181,8.461125 6.49688666,10.3164375 8.01885244,11.4802031 C6.62440209,11.9488594 5.31595692,12.6780937 4.17075172,13.6396875 C2.07081088,15.4029844 0.610743116,17.8624687 0.0595844112,20.5651406 C-0.113160657,21.4119844 0.0937936285,22.2817969 0.627273745,22.9514531 C1.15813651,23.6178281 1.94531586,24 2.78690852,24 L14.0969349,24 C14.6041497,24 15.0153032,23.5802812 15.0153032,23.0625 C15.0153032,22.5447187 14.6041497,22.125 14.0969349,22.125 L2.78690852,22.125 C2.39485711,22.125 2.15833137,21.9015937 2.05225984,21.7684687 C1.86909129,21.5385469 1.79819326,21.23925 1.85774944,20.9472656 C2.81078609,16.2740625 6.84866761,12.8603437 11.5116365,12.7452187 C11.592407,12.7484062 11.6735448,12.75 11.7550959,12.75 C11.8374276,12.75 11.919392,12.7483594 12.0009431,12.745125 C13.4299241,12.7793437 14.8042622,13.11225 16.0897022,13.7360625 C16.5478302,13.95825 17.0956369,13.7594531 17.313382,13.2917812 C17.5311271,12.8241562 17.3363412,12.2648906 16.8782132,12.0426094 Z M11.9790859,10.8692344 C11.9045603,10.867875 11.829897,10.8671719 11.7550959,10.8671719 C11.6809836,10.8671719 11.6068713,10.8679219 11.5328508,10.8693281 C9.20501687,10.7507813 7.34692831,8.78025 7.34692831,6.375 C7.34692831,3.89367188 9.32440474,1.875 11.7550959,1.875 C14.1857871,1.875 16.1632635,3.89367188 16.1632635,6.375 C16.1632635,8.77964063 14.3060933,10.7497969 11.9790859,10.8692344 Z"
                                          id="Shape" fill="#1FC14E" fill-rule="nonzero"></path>
                                    <path d="M23.0526316,18.5526316 L20.4473684,18.5526316 L20.4473684,15.9473684 C20.4473684,15.4241368 20.0232316,15 19.5,15 C18.9767684,15 18.5526316,15.4241368 18.5526316,15.9473684 L18.5526316,18.5526316 L15.9473684,18.5526316 C15.4241368,18.5526316 15,18.9767684 15,19.5 C15,20.0232316 15.4241368,20.4473684 15.9473684,20.4473684 L18.5526316,20.4473684 L18.5526316,23.0526316 C18.5526316,23.5758632 18.9767684,24 19.5,24 C20.0232316,24 20.4473684,23.5758632 20.4473684,23.0526316 L20.4473684,20.4473684 L23.0526316,20.4473684 C23.5758632,20.4473684 24,20.0232316 24,19.5 C24,18.9767684 23.5758632,18.5526316 23.0526316,18.5526316 Z"
                                          id="Path" fill="#72D98F"></path>
                                </g>
                            </g>
                        </g>
                    </g>
                </g>
            </g>
        </g>
    </g>
</svg>