<svg width="43px" height="43px" viewBox="0 0 43 43" version="1.1" xmlns="http://www.w3.org/2000/svg">
    <defs>
        <linearGradient x1="160.367261%" y1="119.795789%" x2="-28.5982809%" y2="-6.8814747%" id="linearGradient-1">
            <stop stop-color="#FFFBE1" offset="0%"></stop>
            <stop stop-color="#F1C995" offset="100%"></stop>
        </linearGradient>
    </defs>
    <g id="Welcome" stroke="none" stroke-width="1" fill="none" fill-rule="evenodd">
        <g id="Design" transform="translate(-947.000000, -3566.000000)" fill="url(#linearGradient-1)" fill-rule="nonzero">
            <g id="Group-49" transform="translate(-19.000000, 3458.000000)">
                <g id="Group-48" transform="translate(623.000000, 108.000000)">
                    <g id="Group-47-Copy">
                        <g id="server" transform="translate(342.631436, 0.000000)">
                            <g id="spam">
                                <path d="M41.2185637,16.4831933 L39.7851604,16.4831933 L39.7851604,8.35413573 C39.7845305,7.3034912 38.9331389,6.45167969 37.8822844,6.45 L36.9185637,6.45 L36.9185637,1.68199708 C36.9175139,0.753549791 36.1648039,0.0012597925 35.2365666,0 L8.50056077,0 C7.57232348,0.0012597925 6.81961348,0.753549791 6.81856369,1.68199708 L6.81856369,6.45 L5.85484296,6.45 C4.80398848,6.45167969 3.95259692,7.3034912 3.95217697,8.35413573 L3.95217697,16.4831933 L2.51856369,16.4831933 C1.33123457,16.4831933 0.368563686,17.4456543 0.368563686,18.6336133 L0.368563686,40.85 C0.368563686,42.0373291 1.33123457,43 2.51856369,43 L41.2185637,43 C42.4058928,43 43.3685637,42.0373291 43.3685637,40.85 L43.3685637,18.6336133 C43.3685637,17.4456543 42.4058928,16.4831933 41.2185637,16.4831933 Z M1.80175702,39.9060156 L1.80175702,18.7230567 L14.4466545,29.2580567 L1.80175702,39.9060156 Z M3.07307051,17.9165967 L40.6640569,17.9165967 L23.1915275,32.4736084 C22.4291594,33.1230176 21.307968,33.1230176 20.5455998,32.4736084 L3.07307051,17.9165967 Z M7.53516035,7.88361328 L37.0369817,7.88361328 L23.8033537,16.4831933 L19.9337736,16.4831933 L6.70014572,7.88361328 L7.53516035,7.88361328 Z M19.1816936,6.45 L9.77544358,1.43319333 L33.9618938,1.43319333 L24.5556438,6.45 L19.1816936,6.45 Z M41.9353704,18.7230567 L41.9353704,39.9060156 L29.2904729,29.2580567 L41.9353704,18.7230567 Z M26.4364738,16.4831933 L38.351757,8.73836427 L38.351757,16.4831933 L26.4364738,16.4831933 Z M27.601757,6.45 L35.4851604,2.24616208 L35.4851604,6.45 L27.601757,6.45 Z M8.25217697,2.24616208 L16.1353704,6.45 L8.25217697,6.45 L8.25217697,2.24616208 Z M5.38537035,8.73836427 L17.3006535,16.4831933 L5.38537035,16.4831933 L5.38537035,8.73836427 Z M2.51856369,41.5668067 C2.3894377,41.5630273 2.26346113,41.5239746 2.15533129,41.4536377 C2.19312421,41.436001 2.22965744,41.4150049 2.26409103,41.3912793 L15.5655363,30.1894433 L19.6289104,33.5750635 C20.9201701,34.6729492 22.8171672,34.6729492 24.108427,33.5750635 L28.171591,30.1894433 L41.4732463,41.3912793 C41.5074699,41.4150049 41.5440032,41.436001 41.5817961,41.4536377 C41.4736662,41.5239746 41.3476897,41.5630273 41.2185637,41.5668067 L2.51856369,41.5668067 Z"
                                      id="Combined-Shape"></path>
                            </g>
                        </g>
                    </g>
                </g>
            </g>
        </g>
    </g>
</svg>