<svg width="114px" height="39px" viewBox="0 0 114 39" version="1.1" xmlns="http://www.w3.org/2000/svg">
    <g id="Welcome" stroke="none" stroke-width="1" fill="none" fill-rule="evenodd">
        <g id="Home" transform="translate(-531.000000, -316.000000)">
            <g id="Google_2015_logo" transform="translate(531.000000, 316.000000)">
                <path d="M49,19.5 C49,24.9695672 44.9591011,29 40,29 C35.0408989,29 31,24.9695672 31,19.5 C31,13.9918846 35.0408989,10 40,10 C44.9591011,10 49,13.9918846 49,19.5 Z M45.0602247,19.5 C45.0602247,16.0820559 42.7182022,13.7434626 40,13.7434626 C37.2817978,13.7434626 34.9397753,16.0820559 34.9397753,19.5 C34.9397753,22.883679 37.2817978,25.2565374 40,25.2565374 C42.7182022,25.2565374 45.0602247,22.8793959 45.0602247,19.5 Z"
                      id="Shape" fill="#EA4335" fill-rule="nonzero"></path>
                <path d="M68,19.5 C68,24.9695672 63.9591011,29 59,29 C54.0408989,29 50,24.9695672 50,19.5 C50,13.9961677 54.0408989,10 59,10 C63.9591011,10 68,13.9918846 68,19.5 Z M64.0602247,19.5 C64.0602247,16.0820559 61.7182022,13.7434626 59,13.7434626 C56.2817978,13.7434626 53.9397753,16.0820559 53.9397753,19.5 C53.9397753,22.883679 56.2817978,25.2565374 59,25.2565374 C61.7182022,25.2565374 64.0602247,22.8793959 64.0602247,19.5 Z"
                      id="Shape" fill="#FBBC05" fill-rule="nonzero"></path>
                <path d="M87,12.5632882 L87,29.3021952 C87,36.1877627 82.9106303,39 78.0761994,39 C73.5253998,39 70.7864534,35.9775806 69.7535278,33.5058384 L73.3433678,32.0219524 C73.9825964,33.5394675 75.5489182,35.3302195 78.0719661,35.3302195 C81.1665099,35.3302195 83.0841957,33.4343765 83.0841957,29.8654834 L83.0841957,28.5245213 L82.9402634,28.5245213 C82.0174036,29.6553013 80.2394167,30.6431574 77.9957667,30.6431574 C73.3010348,30.6431574 69,26.5824381 69,21.3573097 C69,16.0943484 73.3010348,12 77.9957667,12 C80.2351834,12 82.0131703,12.9878561 82.9402634,14.085007 L83.0841957,14.085007 L83.0841957,12.5674918 L87,12.5674918 L87,12.5632882 Z M83.3762935,21.3573097 C83.3762935,18.0742644 81.1707432,15.6739841 78.364064,15.6739841 C75.519285,15.6739841 73.135936,18.0742644 73.135936,21.3573097 C73.135936,24.6067258 75.519285,26.9733769 78.364064,26.9733769 C81.1707432,26.9733769 83.3762935,24.6067258 83.3762935,21.3573097 Z"
                      id="Shape" fill="#4285F4" fill-rule="nonzero"></path>
                <polygon id="Path" fill="#34A853" points="94 2 94 29 91 29 91 2"></polygon>
                <path d="M110.68394,22.6309739 L113.825471,24.7896754 C112.811538,26.3358882 110.368125,29 106.146175,29 C100.910291,29 97,24.8282236 97,19.5 C97,13.850541 100.943535,10 105.693229,10 C110.476167,10 112.815693,13.9233544 113.580298,16.0435077 L114,17.1228584 L101.679052,22.3825518 C102.622342,24.2885482 104.08922,25.2608206 106.146175,25.2608206 C108.207284,25.2608206 109.636764,24.2157349 110.68394,22.6309739 Z M101.014177,19.2130298 L109.250306,15.6880072 C108.79736,14.501578 107.434368,13.6749324 105.830359,13.6749324 C103.773405,13.6749324 100.910291,15.5466637 101.014177,19.2130298 Z"
                      id="Shape" fill="#EA4335" fill-rule="nonzero"></path>
                <path d="M15.0941737,17.8310105 L15.0941737,13.7325784 L28.7969006,13.7325784 C28.9308598,14.4468641 29,15.2918118 29,16.206446 C29,19.2813589 28.1659961,23.0836237 25.4781702,25.7926829 C22.8638057,28.5365854 19.5234689,30 15.098495,30 C6.8967367,30 0,23.2665505 0,15 C0,6.73344948 6.8967367,0 15.098495,0 C19.6358218,0 22.868127,1.79442509 25.2966771,4.13327526 L22.4273581,7.02526132 C20.6858888,5.37891986 18.3264789,4.09843206 15.0941737,4.09843206 C9.1049024,4.09843206 4.42065266,8.96341463 4.42065266,15 C4.42065266,21.0365854 9.1049024,25.9015679 15.0941737,25.9015679 C18.9789897,25.9015679 21.1914767,24.3292683 22.6088511,22.9006969 C23.7583073,21.7421603 24.5145284,20.087108 24.8126956,17.8266551 L15.0941737,17.8310105 Z"
                      id="Path" fill="#4285F4"></path>
            </g>
        </g>
    </g>
</svg>