<svg width="51px" height="59px" viewBox="0 0 51 59" version="1.1" xmlns="http://www.w3.org/2000/svg">
    <g id="Welcome" stroke="none" stroke-width="1" fill="none" fill-rule="evenodd">
        <g id="Design" transform="translate(-643.000000, -1255.000000)" fill="#FFFFFF">
            <g id="Group-29" transform="translate(239.000000, 1009.000000)">
                <g id="Group-24" transform="translate(0.000000, 214.000000)">
                    <g id="Group-23-Copy-2" transform="translate(306.000000, 0.000000)">
                        <g id="Group-21">
                            <g id="doctor-stethoscope" transform="translate(98.000000, 32.000000)">
                                <ellipse id="Oval" cx="25" cy="2.5" rx="3" ry="2.5"></ellipse>
                                <ellipse id="Oval" cx="40" cy="2.5" rx="3" ry="2.5"></ellipse>
                                <path d="M49.8084156,6.11607607 C48.2199464,3.5388449 45.3750889,2.00029046 42.1981505,2.00029046 L42.1981505,4.90486746 C44.2541996,4.90486746 46.0950627,5.90055646 47.1232422,7.56836457 C48.1514217,9.23646314 48.1514217,11.2278411 47.1235523,12.8959397 L37.1636055,29.0558443 C36.135736,30.7236524 34.2945629,31.7193414 32.2385139,31.7196319 C30.1824648,31.7196319 28.3412917,30.7239429 27.3131122,29.0558443 L17.3534755,12.8956492 C16.325606,11.2278411 16.325606,9.23617268 17.3534755,7.56836457 C18.381345,5.90055646 20.2228282,4.904577 22.2788772,4.904577 L22.2788772,2 C19.1019388,2 16.2567713,3.53855444 14.6683021,6.11607607 C13.0798329,8.6935977 13.0798329,11.7707066 14.6683021,14.3479378 L24.6279388,30.5078424 C25.9525416,32.6569389 28.1521513,34.0801816 30.6881828,34.4949552 L30.6881828,42.2885162 C30.6881828,49.901703 25.8905284,56.095423 19.9933792,56.095423 C14.09623,56.095423 9.29888559,49.901703 9.29888559,42.2885162 L9.29888559,33.0089736 C12.8305397,32.3345308 15.496489,29.4020699 15.496489,25.8968264 C15.496489,21.8946097 12.0206468,18.6385789 7.74824448,18.6385789 C3.47584219,18.6385789 0,21.8946097 0,25.8968264 C0,29.4017794 2.66594926,32.3342404 6.19791344,33.0089736 L6.19791344,42.2885162 C6.19791344,51.5032868 12.3865249,59 19.9933792,59 C27.5999234,59 33.7885348,51.5032868 33.7885348,42.2885162 L33.7885348,34.4949552 C36.3242563,34.0801816 38.524176,32.6569389 39.8484688,30.5078424 L49.8084156,14.3479378 C51.3971948,11.7707066 51.3971948,8.69330724 49.8084156,6.11607607 Z"
                                      id="Path"></path>
                            </g>
                        </g>
                    </g>
                </g>
            </g>
        </g>
    </g>
</svg>