<svg width="50px" height="50px" viewBox="0 0 50 50" version="1.1" xmlns="http://www.w3.org/2000/svg">
    <g id="Welcome" stroke="none" stroke-width="1" fill="none" fill-rule="evenodd">
        <g id="SEO" transform="translate(-1128.000000, -2163.000000)" fill="#6467E8">
            <g id="Group-36" transform="translate(318.000000, 2139.000000)">
                <g id="Group-34" transform="translate(0.000000, 24.000000)">
                    <g id="Group-30" transform="translate(712.000000, 0.000000)">
                        <g id="analysis" transform="translate(98.000000, 0.000000)">
                            <path d="M32.5634003,11.7889419 C33.9069414,11.7889419 35,10.7148037 35,9.39451882 C35,8.07423396 33.9069414,7 32.5634003,7 C31.2198593,7 30.1268006,8.07423396 30.1268006,9.39451882 C30.1268006,9.93374289 30.3092532,10.4317829 30.6165572,10.8325135 L26.6131264,16.3302046 C26.3742422,16.2531042 26.1193739,16.2107708 25.8544668,16.2107708 C25.2142258,16.2107708 24.6311963,16.4550977 24.1959221,16.8533382 L21.5274556,15.3653479 C21.56303,15.2029103 21.5821329,15.0345344 21.5821329,14.8618486 C21.5821329,13.5415638 20.4890743,12.4674256 19.1455332,12.4674256 C17.8019922,12.4674256 16.7089335,13.5415638 16.7089335,14.8618486 C16.7089335,15.0345344 16.7280365,15.2029103 16.7636108,15.3653479 L14.0951443,16.8533382 C13.6598702,16.4550977 13.0768406,16.2108666 12.4365997,16.2108666 C11.0930586,16.2108666 10,17.2851005 10,18.6053854 C10,19.9256703 11.0930586,20.9999042 12.4365997,20.9999042 C13.7801407,20.9999042 14.8731994,19.9256703 14.8731994,18.6053854 C14.8731994,18.4326996 14.8540964,18.2643238 14.8185221,18.1018861 L17.4869886,16.6138959 C17.9222627,17.0121363 18.5052923,17.2564632 19.1455332,17.2564632 C19.7857742,17.2564632 20.3687063,17.0121363 20.8040779,16.6139916 L23.4725444,18.1019819 C23.43697,18.2644196 23.4178671,18.4327954 23.4178671,18.6054812 C23.4178671,19.925766 24.5109257,21 25.8544668,21 C27.1981053,21 28.2911639,19.925766 28.2911639,18.6054812 C28.2911639,18.0661613 28.1086139,17.5680256 27.8013099,17.1672949 L31.8047406,11.6696038 C32.0435274,11.7466085 32.2984932,11.7889419 32.5634003,11.7889419 Z M32.5634003,8.43665383 C33.1008167,8.43665383 33.5380402,8.8663091 33.5380402,9.39451882 C33.5380402,9.92263277 33.1008167,10.352288 32.5634003,10.352288 C32.0259839,10.352288 31.5887605,9.92263277 31.5887605,9.39451882 C31.588663,8.8663091 32.0258864,8.43665383 32.5634003,8.43665383 Z M12.4363073,19.5630588 C11.8988909,19.5630588 11.4616674,19.1334036 11.4616674,18.6051938 C11.4616674,18.0769841 11.8988909,17.6473289 12.4363073,17.6473289 C12.9737237,17.6473289 13.4109472,18.0769841 13.4109472,18.6051938 C13.4109472,19.1334036 12.9737237,19.5630588 12.4363073,19.5630588 Z M19.1453383,15.8196179 C18.6079219,15.8196179 18.1706984,15.3899626 18.1706984,14.8617529 C18.1706984,14.3336389 18.6079219,13.9039836 19.1453383,13.9039836 C19.6827547,13.9039836 20.1199782,14.3336389 20.1199782,14.8617529 C20.1200756,15.3899626 19.6827547,15.8196179 19.1453383,15.8196179 Z M25.8543693,19.5630588 C25.3169529,19.5630588 24.8797294,19.1334036 24.8797294,18.6051938 C24.8797294,18.0769841 25.3169529,17.6473289 25.8543693,17.6473289 C26.3918832,17.6473289 26.8291066,18.0769841 26.8291066,18.6051938 C26.8291066,19.1334036 26.3917857,19.5630588 25.8543693,19.5630588 Z"
                                  id="Shape" fill-rule="nonzero"></path>
                            <path d="M41.2610768,37.2992799 L36.0899938,37.2992799 L7.92401524,37.2992799 L2.0901674,37.2992799 C1.75252876,37.2992799 1.47784638,37.0236715 1.47784638,36.6848947 L1.47784638,6.09721336 C1.47784638,5.75843654 1.75252876,5.4828282 2.0901674,5.4828282 L5.57354983,5.4828282 C5.98163248,5.4828282 6.31247302,5.15097125 6.31247302,4.7414141 C6.31247302,4.33185695 5.98163248,4 5.57354983,4 L2.0901674,4 C0.937644266,4 0,4.94080507 0,6.09721336 L0,36.6848947 C0,37.841303 0.937644266,38.7821081 2.0901674,38.7821081 L7.18509205,38.7821081 L7.18509205,40.4138122 C7.18509205,41.3433478 7.9387937,42.0995902 8.86520634,42.0995902 L16.2617289,42.0995902 L12.7799229,48.9204022 C12.5939113,49.2848814 12.7374594,49.7316081 13.1007141,49.9183456 C13.2084983,49.9738034 13.3235733,50 13.4369734,50 C13.7054488,50 13.964466,49.8527057 14.0952061,49.5963742 L17.9221386,42.0995902 L26.0918704,42.0995902 L29.9188029,49.5963742 C30.0496416,49.8527057 30.3085602,50 30.5770357,50 C30.6904358,50 30.8055107,49.9736057 30.913295,49.9183456 C31.2765496,49.7316081 31.4201963,49.2848814 31.2340862,48.9204022 L27.7522801,42.0995902 L35.1488027,42.0995902 C36.0752153,42.0995902 36.828917,41.3434467 36.828917,40.4138122 L36.828917,38.7821081 L41.2610768,38.7821081 C41.6691595,38.7821081 42,38.4502511 42,38.040694 C42,37.6311368 41.6691595,37.2992799 41.2610768,37.2992799 Z M35.3510706,40.4138122 C35.3510706,40.5257163 35.2603308,40.616762 35.1488027,40.616762 L8.86520634,40.616762 C8.7536782,40.616762 8.66293843,40.5257163 8.66293843,40.4138122 L8.66293843,38.7821081 L35.3510706,38.7821081 L35.3510706,40.4138122 Z"
                                  id="Shape" fill-rule="nonzero"></path>
                            <path d="M8.73436217,5.08902264 L18.7874865,5.08902264 L25.4702801,5.08902264 L41.9227342,5.08902264 C42.2582888,5.08902264 42.5312757,5.38121332 42.5312757,5.7403731 L42.5312757,13.2139777 C42.5312757,13.6481764 42.8600741,14 43.2656378,14 C43.6712016,14 44,13.6481764 44,13.2139777 L44,5.7403731 C44,4.51438795 43.0681434,3.51697808 41.9227342,3.51697808 L26.2047402,3.51697808 L26.2047402,1.97197269 C26.2047402,0.884641873 25.37824,0 24.3622745,0 L19.89559,0 C18.8797224,0 18.0531243,0.884641873 18.0531243,1.97197269 L18.0531243,3.51697808 L8.73436217,3.51697808 C8.32879842,3.51697808 8,3.86880165 8,4.30300036 C8,4.73719907 8.32879842,5.08902264 8.73436217,5.08902264 Z M19.5218486,1.97197269 C19.5218486,1.75146724 19.689479,1.57204456 19.89559,1.57204456 L24.3622745,1.57204456 C24.5682875,1.57204456 24.7360158,1.75146724 24.7360158,1.97197269 L24.7360158,3.51697808 L19.5219465,3.51697808 L19.5219465,1.97197269 L19.5218486,1.97197269 Z"
                                  id="Shape" fill-rule="nonzero"></path>
                            <path d="M9.82550025,26 C9.36960398,26 9,26.3304459 9,26.7382616 L9,33.2617384 C9,33.6695541 9.36960398,34 9.82550025,34 L13.1744997,34 C13.630396,34 14,33.6695541 14,33.2617384 L14,26.7382616 C14,26.3304459 13.630396,26 13.1744997,26 L9.82550025,26 Z M12.3489995,32.5235752 L10.6510005,32.5235752 L10.6510005,27.4766217 L12.3489995,27.4766217 L12.3489995,32.5235752 Z"
                                  id="Shape" fill-rule="nonzero"></path>
                            <path d="M15.8255003,21 C15.369604,21 15,21.3648883 15,21.8152106 L15,33.1847894 C15,33.6351117 15.369604,34 15.8255003,34 L19.1744997,34 C19.630396,34 20,33.6351117 20,33.1847894 L20,21.8152106 C20,21.3648883 19.630396,21 19.1744997,21 L15.8255003,21 Z M18.3491096,32.3695788 L16.6511106,32.3695788 L16.6511106,22.6304212 L18.3491096,22.6304212 L18.3491096,32.3695788 Z"
                                  id="Shape" fill-rule="nonzero"></path>
                            <path d="M24.8255003,26 C24.369604,26 24,26.3304459 24,26.7382616 L24,33.2617384 C24,33.6695541 24.369604,34 24.8255003,34 L28.1744997,34 C28.630396,34 29,33.6695541 29,33.2617384 L29,26.7382616 C29,26.3304459 28.630396,26 28.1744997,26 L24.8255003,26 Z M27.3489995,32.5235752 L25.6510005,32.5235752 L25.6510005,27.4766217 L27.3489995,27.4766217 L27.3489995,32.5235752 Z"
                                  id="Shape" fill-rule="nonzero"></path>
                            <path d="M30.8255003,31 C30.369604,31 30,31.3627522 30,31.8104384 L30,34.1895616 C30,34.6372478 30.369604,35 30.8255003,35 L34.1744997,35 C34.630396,35 35,34.6372478 35,34.1895616 C35,33.7418754 34.630396,33.3791231 34.1744997,33.3791231 L31.6510005,33.3791231 L31.6510005,31.8104384 C31.6510005,31.3627522 31.2813965,31 30.8255003,31 Z"
                                  id="Path"></path>
                            <path d="M49.6289273,38.6075296 L45.4547722,30.9517553 C46.5123051,29.7581793 47.28239,28.2997752 47.6937228,26.6742355 C48.3511762,24.0761867 48.0137669,21.3624681 46.7436798,19.0330483 C44.121821,14.2241258 38.2941856,12.5709527 33.7530323,15.3471288 C29.2117821,18.1233049 27.6503665,24.2941717 30.2722253,29.1028888 C31.5423124,31.4323085 33.5930588,33.0985278 36.0466009,33.7948061 C36.8659681,34.0272756 37.6972679,34.1422262 38.523329,34.1422262 C39.2452957,34.1422262 39.9630909,34.0542926 40.6650731,33.8802744 L44.8383551,41.5362541 C45.3499018,42.4748636 46.2814154,43.0001027 47.2381523,43 C47.7070135,43 48.1819865,42.8737495 48.6165053,42.6083049 C49.4698269,42.0867639 50,41.1142548 50,40.0703509 C50,39.5588771 49.8717495,39.0531559 49.6289273,38.6075296 Z M36.4232033,32.3064059 C34.3450994,31.7167574 32.6080913,30.3054019 31.5323201,28.3324421 C29.3117049,24.259553 30.6342758,19.0330483 34.4805288,16.6815424 C35.7458623,15.908014 37.1285809,15.540665 38.4943223,15.540665 C41.2800351,15.540665 43.9932795,17.0705666 45.4833909,19.803495 C46.5590651,21.7764548 46.8448638,24.0748512 46.2880123,26.2754523 C45.7311607,28.4760534 44.3983066,30.3151609 42.5350852,31.454292 C40.671961,32.593423 38.5014042,32.895849 36.4232033,32.3064059 Z M47.8892029,41.2736859 C47.2631815,41.6564438 46.4599183,41.428597 46.0987409,40.7660129 L42.0835893,33.400132 C42.4859969,33.2262165 42.8800616,33.0228186 43.2628727,32.7888083 C43.6459749,32.5545925 44.0088015,32.2938733 44.3523226,32.0115817 L48.3686385,39.3777708 C48.4838893,39.5894895 48.5448131,39.829047 48.5448131,40.0704537 C48.5448131,40.5653886 48.2935508,41.0265266 47.8892029,41.2736859 Z"
                                  id="Shape" fill-rule="nonzero"></path>
                            <path d="M44.6832907,26.0762642 C45.2036296,24.4003329 45.0797113,22.606096 44.3343343,21.0241018 C44.1607897,20.6558215 43.72172,20.4980151 43.3535027,20.6714449 C42.9851873,20.8449729 42.8273658,21.2840009 43.0009104,21.652183 C43.5888591,22.9000915 43.6864411,24.3159271 43.2755747,25.6391032 C42.8624482,26.9695504 41.9699612,28.0860846 40.7625193,28.7831447 C39.4848144,29.5208846 37.9961241,29.7166195 36.5711127,29.3348774 C35.146003,28.9530371 33.9547756,28.0391161 33.2171619,26.761533 C31.6942737,24.1241226 32.6013046,20.7396377 35.2389663,19.2168946 C37.1675125,18.1037013 39.5608753,18.2524677 41.3367101,19.5958853 C41.6613938,19.8415366 42.123557,19.777569 42.3691334,19.4529163 C42.6147098,19.1283618 42.5507362,18.6661444 42.2260525,18.4205914 C39.9765568,16.7186211 36.9445382,16.5302557 34.501844,17.9403923 C32.8831426,18.8748497 31.7252287,20.3837381 31.2414461,22.1889802 C30.7576635,23.9942222 31.0059915,25.8798414 31.940538,27.4983885 C32.8750845,29.1170339 34.3841166,30.2747392 36.1895308,30.7585739 C36.7924164,30.9201142 37.4042446,31 38.0120438,31 C39.2244975,31 40.4213263,30.682029 41.4994451,30.0595487 C43.0292122,29.1765797 44.1599053,27.7620215 44.6832907,26.0762642 Z"
                                  id="Path"></path>
                        </g>
                    </g>
                </g>
            </g>
        </g>
    </g>
</svg>