<svg width="50px" height="50px" viewBox="0 0 50 50" version="1.1" xmlns="http://www.w3.org/2000/svg">
    <g id="Welcome" stroke="none" stroke-width="1" fill="none" fill-rule="evenodd">
        <g id="Design" transform="translate(-338.000000, -1259.000000)" fill="#FFFFFF" fill-rule="nonzero">
            <g id="Group-29" transform="translate(239.000000, 1009.000000)">
                <g id="Group-24" transform="translate(0.000000, 214.000000)">
                    <g id="Group-23-Copy-3">
                        <g id="Group-21">
                            <g id="store" transform="translate(99.000000, 36.000000)">
                                <path d="M0,20.3125 C0,23.2208008 1.99589844,25.6439453 4.6875,26.3427734 L4.6875,46.875 L1.5625,46.875 C0.701855469,46.875 0,47.5738281 0,48.4375 C0,49.3011719 0.701953125,50 1.5625,50 L48.4375,50 C49.3041992,50 50,49.3011719 50,48.4375 C50,47.5738281 49.3041992,46.875 48.4375,46.875 L45.3125,46.875 L45.3125,26.3427734 C48.0041016,25.6439453 50,23.2208008 50,20.3125 L50,18.75 L0,18.75 L0,20.3125 Z M31.25,26.5625 C34.7045898,26.5625 37.5,23.7640625 37.5,20.3125 C37.5,23.2208008 39.4958984,25.6439453 42.1875,26.3427734 L42.1875,46.875 L18.75,46.875 L18.75,26.5625 C22.2045898,26.5625 25,23.7640625 25,20.3125 C25,23.7640625 27.8015625,26.5625 31.25,26.5625 Z M17.1875,26.3427734 L17.1875,46.875 L7.8125,46.875 L7.8125,26.3427734 C10.5041992,25.6439453 12.5,23.2208008 12.5,20.3125 C12.5,23.2208008 14.4958984,25.6439453 17.1875,26.3427734 Z M43.75,4.6875 L6.25,4.6875 L0,17.1875 L50,17.1875 L43.75,4.6875 Z M13.2019531,8.16044922 L10.0769531,14.4104492 C9.93652344,14.6851563 9.66191406,14.8438477 9.375,14.8438477 C9.25898438,14.8438477 9.14003906,14.8194336 9.02705078,14.7614258 C8.64248047,14.5691406 8.48378906,14.0992188 8.67910156,13.7146484 L11.8041016,7.46464844 C11.9994141,7.08007813 12.4663086,6.92451172 12.8508789,7.11367188 C13.2385742,7.30595703 13.3911133,7.77587891 13.2019531,8.16044922 Z M19.4519531,8.16044922 L16.3269531,14.4104492 C16.1865234,14.6851563 15.9119141,14.8438477 15.625,14.8438477 C15.5089844,14.8438477 15.3900391,14.8194336 15.2770508,14.7614258 C14.8924805,14.5691406 14.7337891,14.0992188 14.9291016,13.7146484 L18.0541016,7.46464844 C18.2494141,7.08007813 18.7194336,6.92451172 19.1008789,7.11367188 C19.4885742,7.30595703 19.6411133,7.77587891 19.4519531,8.16044922 Z M25.78125,14.0625 C25.78125,14.4958984 25.4333984,14.84375 25,14.84375 C24.5697266,14.84375 24.21875,14.4958008 24.21875,14.0625 L24.21875,7.8125 C24.21875,7.37910156 24.5697266,7.03125 25,7.03125 C25.4333984,7.03125 25.78125,7.37919922 25.78125,7.8125 L25.78125,14.0625 Z M34.753418,14.7460938 C34.6313477,14.8132812 34.5032227,14.84375 34.375,14.84375 C34.1003906,14.84375 33.8318359,14.6972656 33.6914063,14.4378906 L30.2734375,8.18789063 C30.065918,7.80947266 30.20625,7.33339844 30.5847656,7.12890625 C30.9571289,6.92138672 31.4392578,7.05566406 31.6467773,7.43710938 L35.0647461,13.6871094 C35.2661133,14.0655273 35.1318359,14.5416016 34.753418,14.7460938 Z M40.9728516,14.7613281 C40.8630859,14.8193359 40.7470703,14.84375 40.625,14.84375 C40.3380859,14.84375 40.0634766,14.6850586 39.9291992,14.4103516 L36.8041992,8.16035156 C36.6088867,7.77578125 36.7675781,7.30585938 37.1520508,7.11357422 C37.5304688,6.92128906 38.006543,7.07695313 38.2018555,7.46455078 L41.3268555,13.7145508 C41.5161133,14.0991211 41.3634766,14.5691406 40.9728516,14.7613281 Z M13.28125,37.7380859 L13.28125,34.1370117 C12.8234375,33.8624023 12.5,33.3862305 12.5,32.8125977 C12.5,31.9489258 13.2019531,31.2500977 14.0625,31.2500977 C14.9291992,31.2500977 15.625,31.9489258 15.625,32.8125977 C15.625,33.3863281 15.3045898,33.8624023 14.84375,34.1370117 L14.84375,37.7380859 C15.3045898,38.012793 15.625,38.4888672 15.625,39.0625977 C15.625,39.9262695 14.9291992,40.6250977 14.0625,40.6250977 C13.2018555,40.6250977 12.5,39.9262695 12.5,39.0625977 C12.5,38.4887695 12.8235352,38.0126953 13.28125,37.7380859 Z M6.25,1.5625 C6.25,0.698828125 6.95195312,0 7.8125,0 L42.1875,0 C43.0541992,0 43.75,0.698828125 43.75,1.5625 C43.75,2.42617187 43.0541992,3.125 42.1875,3.125 L7.8125,3.125 C6.95195312,3.125 6.25,2.42617187 6.25,1.5625 Z M27.3865234,34.9273438 L26.2818359,33.8225586 L30.7007813,29.4036133 L31.8054688,30.5083984 L27.3865234,34.9273438 Z M27.3865234,39.3462891 L26.2818359,38.2415039 L35.1197266,29.4036133 L36.2244141,30.5083984 L27.3865234,39.3462891 Z M35.1196289,33.8226563 L36.2243164,34.9274414 L31.8053711,39.3463867 L30.7006836,38.2416016 L35.1196289,33.8226563 Z"
                                      id="Shape"></path>
                            </g>
                        </g>
                    </g>
                </g>
            </g>
        </g>
    </g>
</svg>