<svg width="38px" height="50px" viewBox="0 0 38 50" version="1.1" xmlns="http://www.w3.org/2000/svg">
    <g id="Welcome" stroke="none" stroke-width="1" fill="none" fill-rule="evenodd">
        <g id="SEO" transform="translate(-777.000000, -2477.000000)" fill="#6268E9">
            <g id="Group-36" transform="translate(318.000000, 2139.000000)">
                <g id="Group-34-Copy" transform="translate(0.000000, 338.000000)">
                    <g id="Group-30-Copy-3" transform="translate(356.000000, 0.000000)">
                        <g id="result" transform="translate(103.000000, 0.000000)">
                            <path d="M37.1743261,3.33333335 C37.1742228,3.33333335 37.1740163,3.33333335 37.173913,3.33333335 L26.4347826,3.33333335 L26.4347826,0.833333354 C26.4348859,0.373229188 26.0652119,0.000104188484 25.6091087,2.18173098e-08 C25.6090054,2.18173098e-08 25.6087989,2.18173098e-08 25.6086956,2.18173098e-08 L12.3913044,2.18173098e-08 C11.9352011,-0.000104144849 11.5653207,0.372812521 11.5652174,0.832916688 C11.5652174,0.833020854 11.5652174,0.833229188 11.5652174,0.833333354 L11.5652174,3.33333335 L0.826086977,3.33333335 C0.369983717,3.33322919 0.000103282497,3.70614585 2.16275976e-08,4.16625002 C2.16275976e-08,4.16635418 2.16275976e-08,4.16656252 2.16275976e-08,4.16666668 L2.16275976e-08,49.1666666 C-0.000103239242,49.6267708 0.369570673,49.9998958 0.825673934,50 C0.825777195,50 0.825983716,50 0.826086977,50 L37.173913,50 C37.6300163,50.0001041 37.9998967,49.6271875 38,49.1670833 C38,49.1669791 38,49.1667708 38,49.1666666 L38,4.16666668 C38.0001032,3.70656252 37.6304293,3.33343752 37.1743261,3.33333335 Z M13.2173913,1.66666669 L24.7826087,1.66666669 L24.7826087,6.66666668 L13.2173913,6.66666668 L13.2173913,1.66666669 Z M36.3478261,48.3333333 L1.65217393,48.3333333 L1.65217393,5.00000002 L11.5652174,5.00000002 L11.5652174,7.50000002 C11.5651141,7.96010418 11.9347881,8.33322918 12.3908913,8.33333335 C12.3909946,8.33333335 12.3912011,8.33333335 12.3913044,8.33333335 L25.6086956,8.33333335 C26.0647989,8.33343751 26.4346793,7.96052085 26.4347826,7.50041668 C26.4347826,7.50031252 26.4347826,7.50010418 26.4347826,7.50000002 L26.4347826,5.00000002 L36.3478261,5.00000002 L36.3478261,48.3333333 Z"
                                  id="Shape" fill-rule="nonzero"></path>
                            <rect id="Rectangle" x="3" y="38" width="18" height="2"></rect>
                            <rect id="Rectangle" x="23" y="38" width="12" height="2"></rect>
                            <rect id="Rectangle" x="4" y="42" width="31" height="2"></rect>
                            <rect id="Rectangle" x="3" y="45" width="13" height="2"></rect>
                            <rect id="Rectangle" x="18" y="45" width="17" height="2"></rect>
                            <path d="M9.12543748,24 C9.12532811,24 9.12510936,24 9.12499998,24 L3.87500002,24 C3.39189065,23.9998917 3.0001094,24.387725 3.00000002,24.8662334 C3.00000002,24.8663417 3.00000002,24.8665584 3.00000002,24.8666667 L3.00000002,36.1333333 C2.99989065,36.6118416 3.39145315,36.9998916 3.87456252,37 C3.87467189,37 3.87489064,37 3.87500002,37 L9.12499998,37 C9.60810935,37.0001083 9.9998906,36.612275 9.99999998,36.1337666 C9.99999998,36.1336583 9.99999998,36.1334416 9.99999998,36.1333333 L9.99999998,24.8666667 C10.0001094,24.3881584 9.60854685,24.0001084 9.12543748,24 Z M8.24999999,35.2666667 L4.75000001,35.2666667 L4.75000001,25.7333333 L8.24999999,25.7333333 L8.24999999,35.2666667 Z"
                                  id="Shape" fill-rule="nonzero"></path>
                            <path d="M17.1254375,21 C17.1253281,21 17.1251094,21 17.125,21 L11.875,21 C11.3918906,20.9998948 11.0001094,21.3767369 11,21.8416842 C11,21.8417895 11,21.842 11,21.8421053 L11,36.1578947 C10.9998906,36.6228421 11.3914531,36.9998947 11.8745625,37 C11.8746719,37 11.8748906,37 11.875,37 L17.125,37 C17.6081094,37.0001052 17.9998906,36.6232631 18,36.1583158 C18,36.1582105 18,36.158 18,36.1578947 L18,21.8421053 C18.0001094,21.3771579 17.6085469,21.0001053 17.1254375,21 Z M16.25,35.3157895 L12.75,35.3157895 L12.75,22.6842105 L16.25,22.6842105 L16.25,35.3157895 Z"
                                  id="Shape" fill-rule="nonzero"></path>
                            <path d="M26.1254375,18 C26.1253281,18 26.1251094,18 26.125,18 L20.875,18 C20.3918906,17.9998968 20.0001094,18.3695707 20,18.8256739 C20,18.8257772 20,18.8259837 20,18.826087 L20,36.173913 C19.9998906,36.6300163 20.3914531,36.9998967 20.8745625,37 C20.8746719,37 20.8748906,37 20.875,37 L26.125,37 C26.6081094,37.0001032 26.9998906,36.6304293 27,36.1743261 C27,36.1742228 27,36.1740163 27,36.173913 L27,18.826087 C27.0001094,18.3699837 26.6085469,18.0001033 26.1254375,18 Z M25.25,35.3478261 L21.75,35.3478261 L21.75,19.6521739 L25.25,19.6521739 L25.25,35.3478261 Z"
                                  id="Shape" fill-rule="nonzero"></path>
                            <path d="M34.1254375,14 C34.1253281,14 34.1251094,14 34.125,14 L28.875,14 C28.3918906,13.9998935 28.0001094,14.3810972 28,14.8514259 C28,14.8515324 28,14.8517454 28,14.8518519 L28,36.1481481 C27.9998906,36.6184768 28.3914531,36.9998935 28.8745625,37 C28.8746719,37 28.8748906,37 28.875,37 L34.125,37 C34.6081094,37.0001065 34.9998906,36.6189028 35,36.1485741 C35,36.1484676 35,36.1482546 35,36.1481481 L35,14.8518519 C35.0001094,14.3815232 34.6085469,14.0001065 34.1254375,14 Z M33.25,35.2962963 L29.75,35.2962963 L29.75,15.7037037 L33.25,15.7037037 L33.25,35.2962963 Z"
                                  id="Shape" fill-rule="nonzero"></path>
                            <path d="M33.6792814,9 L25.5107093,10.6185322 C25.4061516,10.6392696 25.3066993,10.6801376 25.2179681,10.7387082 L18.0719992,15.4583481 L10.9675878,15.4583481 C10.8145292,15.4583481 10.6645338,15.5010369 10.5348577,15.58166 L4,19.6279905 L4.86556232,21 L11.2017195,17.0768803 L18.3193027,17.0768803 C18.4805299,17.0767791 18.6381833,17.0295382 18.7724542,16.9409236 L25.9897961,12.1738405 L34,10.5868697 L33.6792814,9 Z"
                                  id="Path"></path>
                        </g>
                    </g>
                </g>
            </g>
        </g>
    </g>
</svg>