<svg width="39px" height="51px" viewBox="0 0 39 51" version="1.1" xmlns="http://www.w3.org/2000/svg">
    <g id="Welcome" stroke="none" stroke-width="1" fill="none" fill-rule="evenodd">
        <g id="Design" transform="translate(-1261.000000, -1259.000000)" fill="#FFFFFF">
            <g id="Group-29" transform="translate(239.000000, 1009.000000)">
                <g id="Group-24" transform="translate(0.000000, 214.000000)">
                    <g id="Group-23" transform="translate(918.000000, 0.000000)">
                        <g id="Group-21">
                            <g id="man-user" transform="translate(103.000000, 36.000000)">
                                <path d="M20.500149,25 C26.2988122,25 31,19.4036151 31,12.500073 C31,5.59638494 29.456531,0 20.500149,0 C11.543767,0 10,5.59638494 10,12.500073 C10,19.4036151 14.7011878,25 20.500149,25 Z" id="Path"></path>
                                <path d="M1.00101676,44.1079084 C0.999255681,43.6879598 0.997494605,43.9895884 1.00101676,44.1079084 Z" id="Path"></path>
                                <path d="M39.9985204,44 C40.0040972,43.6986138 40.0004283,41.9090139 39.9985204,44 Z" id="Path"></path>
                                <path d="M39.9781686,43.2113201 C39.7869605,30.7830605 38.2112888,27.2416812 26.1537517,25 C26.1537517,25 24.4564687,27.2279461 20.5004396,27.2279461 C16.5444105,27.2279461 14.8468344,25 14.8468344,25 C2.9208719,27.2172298 1.24937635,30.7060838 1.02959696,42.80757 C1.01157505,43.795739 1.00322343,43.8476605 1,43.7329502 C1.0007326,43.9478811 1.00161172,44.3454429 1.00161172,45.0386857 C1.00161172,45.0386857 3.87222364,51 20.5004396,51 C37.1283624,51 39.9992674,45.0386857 39.9992674,45.0386857 C39.9992674,44.5932776 39.9995604,44.2835597 40,44.072855 C39.9967766,44.1437943 39.9903297,44.0062928 39.9781686,43.2113201 Z"
                                      id="Path"></path>
                            </g>
                        </g>
                    </g>
                </g>
            </g>
        </g>
    </g>
</svg>