<svg width="50px" height="40px" viewBox="0 0 50 40" version="1.1" xmlns="http://www.w3.org/2000/svg">
    <g id="Welcome" stroke="none" stroke-width="1" fill="none" fill-rule="evenodd">
        <g id="SEO" transform="translate(-414.000000, -2482.000000)" fill="#6367E8" fill-rule="nonzero">
            <g id="Group-36" transform="translate(318.000000, 2139.000000)">
                <g id="Group-34-Copy" transform="translate(0.000000, 338.000000)">
                    <g id="Group-30-Copy-4" transform="translate(0.000000, 5.000000)">
                        <g id="video-player" transform="translate(96.000000, 0.000000)">
                            <path d="M31.6082308,19.2613965 L22.3005385,13.1363145 C22.0399231,12.9656873 21.7099231,12.9543121 21.4383077,13.1074392 C21.1683846,13.2614412 21,13.5554452 21,13.8748244 L21,26.1249883 C21,26.4443676 21.1683846,26.7383715 21.4391538,26.8923736 C21.5660769,26.9641245 21.7056923,27 21.8461538,27 C22.0043846,27 22.1626154,26.9536244 22.3005385,26.8634982 L31.6082308,20.7384162 C31.8519231,20.5774141 32,20.2991604 32,19.9999064 C32,19.7006524 31.8519231,19.4223986 31.6082308,19.2613965 Z M22.6923077,24.531592 L22.6923077,15.4682207 L29.5774615,19.9999064 L22.6923077,24.531592 Z"
                                  id="Shape"></path>
                            <path d="M49.137931,0 L40.5172414,0 L9.48275862,0 L0.862068966,0 C0.386206897,0 0,0.388695652 0,0.869565217 L0,10.4347826 L0,20 L0,29.5652174 L0,39.1304348 C0,39.6113043 0.386206897,40 0.862068966,40 L9.48275862,40 L40.5172414,40 L49.137931,40 C49.6137931,40 50,39.6113043 50,39.1304348 L50,29.5652174 L50,20 L50,10.4347826 L50,0.869565217 C50,0.388695652 49.6137931,0 49.137931,0 Z M8.62068966,19.1304348 L1.72413793,19.1304348 L1.72413793,11.3043478 L8.62068966,11.3043478 L8.62068966,19.1304348 Z M1.72413793,20.8695652 L8.62068966,20.8695652 L8.62068966,28.6956522 L1.72413793,28.6956522 L1.72413793,20.8695652 Z M10.3448276,29.5652174 L10.3448276,20 L10.3448276,10.4347826 L10.3448276,1.73913043 L39.6551724,1.73913043 L39.6551724,10.4347826 L39.6551724,20 L39.6551724,29.5652174 L39.6551724,38.2608696 L10.3448276,38.2608696 L10.3448276,29.5652174 Z M48.2758621,19.1304348 L41.3793103,19.1304348 L41.3793103,11.3043478 L48.2758621,11.3043478 L48.2758621,19.1304348 Z M41.3793103,20.8695652 L48.2758621,20.8695652 L48.2758621,28.6956522 L41.3793103,28.6956522 L41.3793103,20.8695652 Z M48.2758621,1.73913043 L48.2758621,9.56521739 L41.3793103,9.56521739 L41.3793103,1.73913043 L48.2758621,1.73913043 Z M1.72413793,1.73913043 L8.62068966,1.73913043 L8.62068966,9.56521739 L1.72413793,9.56521739 L1.72413793,1.73913043 Z M1.72413793,38.2608696 L1.72413793,30.4347826 L8.62068966,30.4347826 L8.62068966,38.2608696 L1.72413793,38.2608696 Z M48.2758621,38.2608696 L41.3793103,38.2608696 L41.3793103,30.4347826 L48.2758621,30.4347826 L48.2758621,38.2608696 Z"
                                  id="Shape"></path>
                        </g>
                    </g>
                </g>
            </g>
        </g>
    </g>
</svg>