<svg width="50px" height="50px" viewBox="0 0 50 50" version="1.1" xmlns="http://www.w3.org/2000/svg">
    <g id="Welcome" stroke="none" stroke-width="1" fill="none" fill-rule="evenodd">
        <g id="SEO" transform="translate(-771.000000, -2163.000000)" fill="#6467E8">
            <g id="Group-36" transform="translate(318.000000, 2139.000000)">
                <g id="Group-34" transform="translate(0.000000, 24.000000)">
                    <g id="Group-30-Copy-3" transform="translate(356.000000, 0.000000)">
                        <g id="content" transform="translate(97.000000, 0.000000)">
                            <path d="M49.0165784,11 L43.1681703,11 C42.6251249,11 42.1847487,11.4403607 42.1847487,11.9836066 L42.1847487,13.9275082 L31.9834216,13.9275082 C31.4403762,13.9275082 31,14.3678689 31,14.9111148 C31,15.4543607 31.4403762,15.8947213 31.9834216,15.8947213 L42.1847487,15.8947213 L42.1847487,17.838623 C42.1847487,18.3818689 42.6251249,18.8222295 43.1681703,18.8222295 L45.1088544,18.8222295 L45.1088544,22.0163934 C45.1088544,22.5596393 45.5492306,23 46.092276,23 C46.6353214,23 47.0756976,22.5596393 47.0756976,22.0163934 L47.0756976,18.8221311 L49.0165784,18.8221311 C49.5596238,18.8221311 50,18.3817705 50,17.8385246 L50,11.9836066 C50,11.4403607 49.5596238,11 49.0165784,11 Z M48.0331568,16.854918 L44.1515918,16.854918 L44.1515918,12.9672131 L48.0331568,12.9672131 L48.0331568,16.854918 Z"
                                  id="Shape" fill-rule="nonzero"></path>
                            <path d="M28.707,13.293 C28.521,13.107 28.263,13 28,13 C27.736,13 27.479,13.107 27.293,13.293 C27.106,13.479 27,13.737 27,14 C27,14.264 27.106,14.521 27.293,14.707 C27.479,14.894 27.7361,15 28,15 C28.263,15 28.521,14.894 28.707,14.707 C28.8929,14.521 29,14.264 29,14 C29,13.737 28.893,13.479 28.707,13.293 Z"
                                  id="Path"></path>
                            <path d="M23.0164942,13.9275082 L7.8159205,13.9275082 L7.8159205,11.9836066 C7.8159205,11.4403607 7.37550661,11 6.83241471,11 L0.983505788,11 C0.440413892,11 0,11.4403607 0,11.9836066 L0,17.8385246 C0,18.3817705 0.440413892,18.8221311 0.983505788,18.8221311 L2.92445446,18.8221311 L2.92445446,22.0163934 C2.92445446,22.5596393 3.36486835,23 3.90796025,23 C4.45105215,23 4.89146604,22.5596393 4.89146604,22.0163934 L4.89146604,18.8221311 L6.83241471,18.8221311 C7.37550661,18.8221311 7.8159205,18.3817705 7.8159205,17.8385246 L7.8159205,15.894623 L23.0164942,15.894623 L23.0164942,15.8947213 C23.5595861,15.8947213 24,15.4543607 24,14.9111148 C24,14.3678689 23.5595861,13.9275082 23.0164942,13.9275082 Z M5.84890892,16.854918 L1.96701158,16.854918 L1.96701158,12.9672131 L5.84890892,12.9672131 L5.84890892,16.854918 Z"
                                  id="Shape" fill-rule="nonzero"></path>
                            <path d="M49.0190736,41.9232422 L47.0832153,41.9232422 L47.0832153,38.015625 C47.0832153,37.4547969 46.6439564,37 46.1022888,37 C45.5606213,37 45.1213624,37.4547969 45.1213624,38.015625 L45.1213624,41.9232422 L43.1855041,41.9232422 C42.6438365,41.9232422 42.2045777,42.3780391 42.2045777,42.9388672 L42.2045777,44.9460469 L14.9809264,44.9460469 C14.4392589,44.9460469 14,45.4008437 14,45.9616719 C14,46.5225 14.4392589,46.9772969 14.9809264,46.9772969 L42.2045777,46.9772969 L42.2045777,48.984375 C42.2045777,49.5452031 42.6438365,50 43.1855041,50 L49.0190736,50 C49.5607411,50 50,49.5452031 50,48.984375 L50,42.9388672 C50,42.3779375 49.5607411,41.9232422 49.0190736,41.9232422 Z M48.0381471,47.96875 L44.1664305,47.96875 L44.1664305,43.9544922 L48.0381471,43.9544922 L48.0381471,47.96875 Z"
                                  id="Shape" fill-rule="nonzero"></path>
                            <path d="M6.99333082,41.9232422 L5.00666918,41.9232422 L5.00666918,38.015625 C5.00666918,37.4547969 4.55588272,37 4,37 C3.44411728,37 2.99333082,37.4547969 2.99333082,38.015625 L2.99333082,41.9232422 L1.00666918,41.9232422 C0.45078646,41.9232422 0,42.3780391 0,42.9388672 L0,48.984375 C0,49.5452031 0.45078646,50 1.00666918,50 L6.99333082,50 C7.54921354,50 8,49.5452031 8,48.984375 L8,42.9388672 C8,42.3779375 7.54921354,41.9232422 6.99333082,41.9232422 Z M5.98666163,47.96875 L2.01333837,47.96875 L2.01333837,43.9544922 L5.98666163,43.9544922 L5.98666163,47.96875 Z"
                                  id="Shape" fill-rule="nonzero"></path>
                            <path d="M11.7069,45.293 C11.521,45.106 11.263,45 11,45 C10.737,45 10.479,45.106 10.293,45.293 C10.107,45.479 10,45.736 10,46 C10,46.263 10.1069,46.521 10.293,46.7069 C10.479,46.8929 10.737,47 11,47 C11.263,47 11.521,46.893 11.7069,46.7069 C11.8929,46.5199 12,46.263 12,46 C12,45.7369 11.893,45.479 11.7069,45.293 Z"
                                  id="Path"></path>
                            <path d="M6.98210541,32.9987325 L5.84460821,32.9987325 C5.3985668,32.9987325 5.03578917,32.6421067 5.03578917,32.203629 L5.03578917,28.796371 C5.03568738,28.3578933 5.3985668,28.0012675 5.84460821,28.0012675 L6.98210541,28.0012675 C7.5441868,28.0012675 8,27.5531837 8,27.0006337 C8,26.4480838 7.5441868,26 6.98210541,26 L5.84460821,26 C4.27613444,26 3,27.2544945 3,28.796371 L3,32.203629 C3,33.7455055 4.27613444,35 5.84460821,35 L6.98210541,35 C7.5441868,35 8,34.5519162 8,33.9993663 C8,33.4468163 7.5441868,32.9987325 6.98210541,32.9987325 Z"
                                  id="Path"></path>
                            <path d="M11,26 C9.3458,26 8,27.3165435 8,28.9347826 L8,32.0652174 C8,33.6834565 9.3458,35 11,35 C12.6542,35 14,33.6834565 14,32.0652174 L14,28.9347826 C14,27.3165435 12.6542,26 11,26 Z M12,32.0652174 C12,32.6046304 11.5514,33.0434783 11,33.0434783 C10.4486,33.0434783 10,32.6046304 10,32.0652174 L10,28.9347826 C10,28.3953696 10.4486,27.9565217 11,27.9565217 C11.5514,27.9565217 12,28.3953696 12,28.9347826 L12,32.0652174 Z"
                                  id="Shape" fill-rule="nonzero"></path>
                            <path d="M21,26.0001812 C20.4478,26.0001812 20,26.4380372 20,26.9783139 L20,30.2464843 L17.8741,26.5031873 C17.6528,26.1135581 17.1904,25.9196728 16.7491,26.0312889 C16.308,26.1431985 16,26.5325342 16,26.9783139 L16,34.0215738 C16,34.5617527 16.4478,34.9998044 17,34.9998044 C17.5522,34.9998044 18,34.5617527 18,34.0215738 L18,30.7534034 L20.1259,34.4967004 C20.3053,34.812571 20.6433,35 20.9999,35 C21.0831,35 21.1674,34.9898264 21.2509,34.9686966 C21.692,34.856787 22,34.4674513 22,34.0216716 L22,26.9784117 C22,26.4382328 21.5522,26.0001812 21,26.0001812 Z"
                                  id="Path"></path>
                            <path d="M41,26.0000833 C40.4478,26.0000833 40,26.4381397 40,26.9783245 L40,30.2465305 L37.8741,26.5031928 C37.6529,26.1135593 37.1905,25.9196719 36.7491,26.0312892 C36.308,26.1432 36,26.53254 36,26.9783245 L36,34.021661 C36,34.5618458 36.4478,34.9999022 37,34.9999022 C37.5522,34.9999022 38,34.561748 38,34.0215632 L38,30.7533572 L40.1259,34.4966949 C40.3053,34.812569 40.6433,35 40.9999,35 C41.0831,35 41.1674,34.9898263 41.2509,34.9686963 C41.692,34.8567855 42,34.4674455 42,34.021661 L42,26.9783245 C42,26.4381397 41.5522,26.0000833 41,26.0000833 Z"
                                  id="Path"></path>
                            <path d="M27.0909091,26 L23.9090909,26 C23.4070909,26 23,26.4380652 23,26.9782609 C23,27.5184565 23.4070909,27.9565217 23.9090909,27.9565217 L24.5909091,27.9565217 L24.5909091,34.0217391 C24.5909091,34.5619348 24.9979091,35 25.5,35 C26.002,35 26.4090909,34.5619348 26.4090909,34.0217391 L26.4090909,27.9565217 L27.0909091,27.9565217 C27.5929091,27.9565217 28,27.5184565 28,26.9782609 C28,26.4380652 27.5929091,26 27.0909091,26 Z"
                                  id="Path"></path>
                            <path d="M48.0909091,26 L44.9090909,26 C44.4070909,26 44,26.4380652 44,26.9782609 C44,27.5184565 44.4070909,27.9565217 44.9090909,27.9565217 L45.5909091,27.9565217 L45.5909091,34.0217391 C45.5909091,34.5619348 45.9979091,35 46.5,35 C47.002,35 47.4090909,34.5619348 47.4090909,34.0217391 L47.4090909,27.9565217 L48.0909091,27.9565217 C48.5929091,27.9565217 49,27.5184565 49,26.9782609 C49,26.4380652 48.5929091,26 48.0909091,26 Z"
                                  id="Path"></path>
                            <path d="M34.0252841,33.0434783 L31.9494317,33.0434783 L31.9494317,31.4782609 L33.0967698,31.4782609 C33.6350079,31.4782609 34.0714857,31.0401957 34.0714857,30.5 C34.0714857,29.9598043 33.6350079,29.5217391 33.0967698,29.5217391 L31.9494317,29.5217391 L31.9494317,27.9565217 L34.0252841,27.9565217 C34.5635222,27.9565217 35,27.5184565 35,26.9782609 C35,26.4380652 34.5635222,26 34.0252841,26 L30.9747159,26 C30.4364778,26 30,26.4380652 30,26.9782609 L30,34.0217391 C30,34.5619348 30.4364778,35 30.9747159,35 L34.0252841,35 C34.5635222,35 35,34.5619348 35,34.0217391 C35,33.4815435 34.5635222,33.0434783 34.0252841,33.0434783 Z"
                                  id="Path"></path>
                            <path d="M41.6951386,0 L12.8680569,0 C12.7321361,0 12.5977599,0.0282857143 12.4737129,0.0831428571 L5.57100248,3.1307619 C5.22357426,3.28409524 5,3.62457143 5,4 C5,4.37542857 5.22357426,4.71590476 5.57100248,4.8692381 L12.4737129,7.91685714 C12.5977599,7.97161905 12.7321361,8 12.8680569,8 L41.6951386,8 C42.9660173,8 44,6.97990476 44,5.72609524 L44,2.27390476 C44,1.02009524 42.9660173,0 41.6951386,0 Z M11.9027104,5.578 L8.32851485,4 L11.9027104,2.422 L11.9027104,5.578 Z M37.5887475,6.0952381 L13.8334035,6.0952381 L13.8334035,1.9047619 L37.5887475,1.9047619 L37.5887475,6.0952381 Z M42.0693069,5.72609524 C42.0693069,5.92961905 41.9014332,6.0952381 41.6951386,6.0952381 L39.5194406,6.0952381 L39.5194406,1.9047619 L41.6951386,1.9047619 C41.9014332,1.9047619 42.0693069,2.07038095 42.0693069,2.27390476 L42.0693069,5.72609524 Z"
                                  id="Shape" fill-rule="nonzero"></path>
                        </g>
                    </g>
                </g>
            </g>
        </g>
    </g>
</svg>