<svg width="51px" height="55px" viewBox="0 0 51 55" version="1.1" xmlns="http://www.w3.org/2000/svg">
    <g id="Welcome" stroke="none" stroke-width="1" fill="none" fill-rule="evenodd">
        <g id="Design" transform="translate(-949.000000, -1257.000000)" fill="#FFFFFF">
            <g id="Group-29" transform="translate(239.000000, 1009.000000)">
                <g id="Group-24" transform="translate(0.000000, 214.000000)">
                    <g id="Group-23-Copy" transform="translate(612.000000, 0.000000)">
                        <g id="Group-21">
                            <g id="apartments" transform="translate(98.000000, 34.000000)">
                                <polygon id="Path" points="9.75133288 11.2799579 23.3221912 15 24 12.9852197 9.46141181 9 3 12.3658114 4.16585866 14.1894804"></polygon>
                                <polygon id="Path" points="9.75133288 15.2799579 23.3221912 19 24 16.9852197 9.46141181 13 3 16.3658114 4.16585866 18.1894804"></polygon>
                                <polygon id="Path" points="9.75133288 19.2799579 23.3221912 23 24 20.9852197 9.46141181 17 3 20.3658114 4.16585866 22.1894804"></polygon>
                                <polygon id="Path" points="9.75133288 24.2799579 23.3221912 28 24 25.9852197 9.46141181 22 3 25.3658114 4.16585866 27.1894804"></polygon>
                                <polygon id="Path" points="9.75133288 27.2799579 23.3221912 31 24 28.9852197 9.46141181 25 3 28.3656875 4.16572145 30.1893566"></polygon>
                                <polygon id="Path" points="9.75133288 32.2799579 23.3221912 36 24 33.9852197 9.46141181 30 3 33.3656875 4.16572145 35.1893566"></polygon>
                                <polygon id="Path" points="9.75133288 36.2799579 23.3221912 40 24 37.9852197 9.46141181 34 3 37.3656875 4.16572145 39.1893566"></polygon>
                                <polygon id="Path" points="9.75133288 40.2799579 23.3221912 44 24 41.9852197 9.46141181 38 3 41.3656875 4.16572145 43.1893566"></polygon>
                                <polygon id="Path" points="31.751377 11.2799579 45.3223239 15 46 12.9852197 31.4613168 9 25 12.3658114 26.1657291 14.1894804"></polygon>
                                <polygon id="Path" points="31.751377 5.27995789 45.3223239 9 46 6.98521974 31.4613168 3 25 6.36581137 26.1657291 8.18948042"></polygon>
                                <polygon id="Path" points="31.751377 2.27995789 45.3223239 6 46 3.98521974 31.4613168 0 25 3.36581137 26.1657291 5.18948042"></polygon>
                                <polygon id="Path" points="31.751377 15.2799579 45.3223239 19 46 16.9852197 31.4613168 13 25 16.3658114 26.1657291 18.1894804"></polygon>
                                <polygon id="Path" points="31.751377 19.2799579 45.3223239 23 46 20.9852197 31.4613168 17 25 20.3658114 26.1657291 22.1894804"></polygon>
                                <polygon id="Path" points="31.751377 24.2799579 45.3223239 28 46 25.9852197 31.4613168 22 25 25.3658114 26.1657291 27.1894804"></polygon>
                                <polygon id="Path" points="31.751377 27.2799579 45.3223239 31 46 28.9852197 31.4613168 25 25 28.3656875 26.1657291 30.1893566"></polygon>
                                <polygon id="Path" points="31.751377 32.2799579 45.3223239 36 46 33.9852197 31.4613168 30 25 33.3656875 26.1657291 35.1893566"></polygon>
                                <polygon id="Path" points="31.751377 36.2799579 45.3223239 40 46 37.9852197 31.4613168 34 25 37.3656875 26.1657291 39.1893566"></polygon>
                                <polygon id="Path" points="31.751377 40.2799579 45.3223239 44 46 41.9852197 31.4613168 38 25 41.3656875 26.1657291 43.1893566"></polygon>
                                <path d="M45.0298636,52.7126764 L45.0298636,48.7298719 L45.6784091,46.5265345 L31.2293182,42 L24.8076818,45.8228508 L25.4562273,46.9821985 L25.4562273,52.7126764 L22.9982727,52.7126764 L22.9982727,48.7298719 L23.6468182,46.5265345 L9.19772727,42 L2.77609091,45.8228508 L3.4245,46.9821985 L3.4245,52.7126764 L0,52.7126764 L0,55 L51,55 L51,52.7126764 L45.0298636,52.7126764 Z M12.5295,52.7126764 L12.5295,47.850197 L19.6096364,49.6032162 L19.6096364,52.7126764 L12.5295,52.7126764 Z M34.5613636,52.7126764 L34.5613636,47.850197 L41.6413636,49.6032162 L41.6413636,52.7126764 L34.5613636,52.7126764 Z"
                                      id="Shape" fill-rule="nonzero"></path>
                            </g>
                        </g>
                    </g>
                </g>
            </g>
        </g>
    </g>
</svg>