<svg width="50px" height="50px" viewBox="0 0 50 50" version="1.1" xmlns="http://www.w3.org/2000/svg">
    <g id="Welcome" stroke="none" stroke-width="1" fill="none" fill-rule="evenodd">
        <g id="SEO" transform="translate(-1127.000000, -2477.000000)" fill="#6367E9" fill-rule="nonzero">
            <g id="Group-36" transform="translate(318.000000, 2139.000000)">
                <g id="Group-34-Copy" transform="translate(0.000000, 338.000000)">
                    <g id="Group-30" transform="translate(712.000000, 0.000000)">
                        <g id="team" transform="translate(97.000000, 0.000000)">
                            <path d="M44.4227539,42.0313477 L43.6012695,41.7019531 C47.7324219,37.1064453 50,31.2037109 50,25 C50,19.924707 48.465625,15.0413086 45.6700195,10.9361328 C45.6361328,10.8694336 45.5941406,10.809375 45.5453125,10.7569336 C44.3206055,8.99179687 42.8626953,7.37285156 41.1896484,5.94970703 C40.8575195,5.6671875 40.359375,5.70742187 40.0768555,6.03955078 C39.7943359,6.37167969 39.8345703,6.87001953 40.1666016,7.15244141 C41.5087891,8.29414062 42.703418,9.5703125 43.7397461,10.9514648 C42.0686523,11.6045898 40.062793,12.1577148 37.8235352,12.5947266 C37.2053711,10.7529297 36.4456055,9.03574219 35.5524414,7.48642578 C34.3486328,5.39804687 32.9639648,3.71640625 31.4548828,2.47958984 C33.8036133,3.15107422 36.0410156,4.19150391 38.0942383,5.57851562 C38.4555664,5.82236328 38.9461914,5.72753906 39.190332,5.36621094 C39.434375,5.00498047 39.3393555,4.51425781 38.9780273,4.27011719 C34.8433594,1.4765625 30.0097656,0 25,0 C18.322168,0 12.0442383,2.60039062 7.32246094,7.32246094 C2.60039062,12.0442383 0,18.3223633 0,25 C0,31.2117187 2.27070312,37.1152344 6.40859375,41.7124023 L5.59746094,42.0300781 C5.29873047,42.1379883 2.75859375,43.1511719 2.75859375,46.380957 L2.75859375,49.2097656 C2.75859375,49.6458984 3.11191406,50 3.54804687,50 L8.08945312,50 L8.79638672,50 L9.63847656,50 L13.6777344,50 L15.1685547,50 C15.2066406,50 15.2438477,49.9963867 15.2804687,49.9911133 C15.3171875,49.9963867 15.3542969,50 15.3923828,50 L18.6046875,50 C19.0408203,50 19.3941406,49.6466797 19.3941406,49.2105469 C19.3941406,48.7744141 19.0407227,48.4210937 18.6046875,48.4210937 L16.1818359,48.4210937 L16.1818359,45.671582 C16.1818359,42.7708008 18.4603516,41.9364258 18.5523437,41.9040039 C18.5645508,41.8999023 18.5766602,41.8955078 18.5887695,41.8907227 L22.4333008,40.3850586 C22.4416016,40.394043 22.4494141,40.403418 22.4582031,40.4120117 L24.5013672,42.4020508 C24.6489258,42.5456055 24.8466797,42.6259766 25.0522461,42.6259766 C25.0563477,42.6259766 25.0605469,42.6259766 25.0646484,42.6258789 C25.274707,42.6226562 25.475,42.5356445 25.6206055,42.3842773 L27.5824219,40.3487305 L31.4217773,41.8883789 C31.4357422,41.894043 31.4449219,41.8975586 31.4591797,41.9022461 C31.5561523,41.9363281 33.8349609,42.7709961 33.8349609,45.671582 L33.8349609,48.4210937 L28.0605469,48.4210937 L21.955957,48.4210937 L21.0720703,48.4210937 C20.6359375,48.4210937 20.2826172,48.7745117 20.2826172,49.2105469 C20.2826172,49.6466797 20.6360352,50 21.0720703,50 L21.955957,50 L28.0605469,50 L34.6245117,50 L34.6246094,50 L34.624707,50 L35.6319336,50 L36.3387695,50 L37.1810547,50 L41.2201172,50 L46.4686523,50 C46.9047852,50 47.2581055,49.6410156 47.2581055,49.2049805 L47.2581055,46.380957 C47.2583008,43.1635742 44.7373047,42.1457031 44.4227539,42.0313477 Z M42.0339844,41.0734375 L41.2557617,40.7613281 L41.2557617,40.3121094 C42.1158203,39.8077148 42.7768555,38.9998047 43.090918,38.0361328 C44.2394531,37.9454102 45.1466797,36.9837891 45.1466797,35.8124023 C45.1466797,35.1157227 44.8255859,34.4930664 44.3241211,34.0831055 L44.3241211,32.6799805 C44.3241211,29.974707 42.294043,27.7361328 39.6776367,27.4039062 C39.7074219,26.8686523 39.7280273,26.3293945 39.7379883,25.7894531 L48.4064453,25.7894531 C48.2166992,31.5040039 45.9719727,36.9017578 42.0339844,41.0734375 Z M39.1837891,39.2961914 L38.4637695,39.2961914 C37.06875,39.2961914 35.9338867,38.1613281 35.9338867,36.7665039 L35.9338867,34.6776367 C36.9623047,34.5660156 38.7838867,34.206543 40.1873047,33.0344727 C40.5016602,33.5736328 40.9880859,34.1567383 41.7136719,34.4972656 L41.7136719,36.7664062 C41.7135742,38.1613281 40.5787109,39.2961914 39.1837891,39.2961914 Z M39.6769531,40.8444336 L39.6769531,41.2821289 L38.7972656,42.1948242 L37.9707031,41.3898437 L37.9707031,40.8443359 C38.1325195,40.8637695 38.296875,40.875 38.4638672,40.875 L39.1838867,40.875 C39.3508789,40.8750977 39.5150391,40.8638672 39.6769531,40.8444336 Z M35.1469727,33.15 C35.1460937,33.15 35.1452148,33.15 35.1443359,33.15 C35.1171875,33.15 35.0902344,33.1514648 35.0637695,33.1541016 C35.0552734,33.1549805 35.0469727,33.1567383 35.0384766,33.1579102 C35.0207031,33.1602539 35.0029297,33.1624023 34.9855469,33.1660156 C34.9736328,33.1683594 34.962207,33.1719727 34.9504883,33.175 C34.9369141,33.178418 34.9232422,33.1813477 34.9100586,33.1854492 C34.9014648,33.1880859 34.8933594,33.1916992 34.8848633,33.1946289 L34.8848633,32.6800781 C34.8848633,30.6169922 36.5632812,28.9386719 38.6263672,28.9386719 L39.0039062,28.9386719 C41.0668945,28.9386719 42.7450195,30.6169922 42.7450195,32.6800781 L42.7450195,33.1881836 C42.7301758,33.1833984 42.7151367,33.1796875 42.6999023,33.1758789 C42.6926758,33.1738281 42.6854492,33.1714844 42.678125,33.1696289 C41.5775391,32.9193359 41.2175781,31.4504883 41.2149414,31.4393555 C41.1464844,31.1368164 40.9071289,30.9024414 40.603125,30.840332 C40.2991211,30.7780273 39.9871094,30.899707 39.8052734,31.1510742 C38.3756836,33.1273437 35.1887695,33.15 35.1469727,33.15 Z M43.2924805,36.3444336 L43.2924805,35.2805664 C43.4586914,35.3992187 43.5676758,35.5932617 43.5676758,35.8125977 C43.5676758,36.0319336 43.4586914,36.2257812 43.2924805,36.3444336 Z M44.6663086,12.2800781 C46.953125,15.8128906 48.2625977,19.9255859 48.40625,24.2104492 L39.7375977,24.2104492 C39.6735352,20.6568359 39.1769531,17.2293945 38.2915039,14.1080078 C40.71875,13.6258789 42.8829102,13.0097656 44.6663086,12.2800781 Z M38.1584961,24.2106445 L30.0783203,24.2106445 C30.0774414,24.2105469 30.0766602,24.2106445 30.0758789,24.2106445 C28.9988281,23.0200195 27.4847656,22.2333984 25.7894531,22.1025391 L25.7894531,15.3134766 C29.6635742,15.2749023 33.4021484,14.9527344 36.7330078,14.3928711 C37.6045898,17.4116211 38.09375,20.7450195 38.1584961,24.2106445 Z M31.1943359,32.4545898 C31.1943359,32.9189453 30.8806641,33.3104492 30.4541992,33.4308594 L30.4541992,31.4780273 C30.8806641,31.5986328 31.1943359,31.9902344 31.1943359,32.4545898 Z M25.7893555,1.62275391 C28.9311523,1.95830078 31.8870117,4.28935547 34.1844727,8.27490234 C34.9907227,9.6734375 35.6830078,11.2185547 36.2537109,12.8759766 C33.0707031,13.397168 29.4985352,13.697168 25.7893555,13.734375 L25.7893555,1.62275391 Z M25.2887695,23.6601562 C27.9779297,23.6601562 30.165625,25.8480469 30.165625,28.5373047 L30.165625,29.5020508 C30.1603516,29.4978516 30.1547852,29.4941406 30.1494141,29.4899414 C30.1379883,29.480957 30.1263672,29.472168 30.1143555,29.4638672 C30.1050781,29.4574219 30.0955078,29.4514648 30.0859375,29.4454102 C30.0741211,29.4378906 30.0624023,29.4304687 30.0500977,29.4236328 C30.0388672,29.4172852 30.0272461,29.4117187 30.0157227,29.405957 C30.0046875,29.4004883 29.99375,29.3949219 29.9824219,29.3898437 C29.9685547,29.3836914 29.9541992,29.3786133 29.9400391,29.3732422 C29.9301758,29.3695312 29.9204102,29.3657227 29.9104492,29.3624023 C29.8945312,29.3571289 29.878125,29.3529297 29.8618164,29.3487305 C29.8545898,29.3466797 29.8474609,29.3442383 29.8400391,29.3424805 C28.340332,29.0014648 27.8652344,27.0460937 27.8612305,27.0291016 C27.7927734,26.7265625 27.553418,26.4921875 27.2494141,26.4300781 C26.9455078,26.3675781 26.6333984,26.4894531 26.4515625,26.7408203 C24.602832,29.2966797 20.5189453,29.3228516 20.4650391,29.3228516 C20.4649414,29.3228516 20.4648437,29.3228516 20.4648437,29.3228516 C20.4637695,29.3228516 20.4629883,29.3228516 20.4620117,29.3228516 C20.4348633,29.3228516 20.4079102,29.3242187 20.3814453,29.3268555 C20.3731445,29.327832 20.3651367,29.3294922 20.3568359,29.3306641 C20.3389648,29.3331055 20.3208008,29.3352539 20.3032227,29.3387695 C20.2919922,29.3411133 20.2810547,29.3446289 20.2698242,29.3473633 C20.2557617,29.3508789 20.2414062,29.3540039 20.2277344,29.3582031 C20.2149414,29.362207 20.2026367,29.3673828 20.1901367,29.3719727 C20.1787109,29.3761719 20.1667969,29.3798828 20.1554687,29.3845703 C20.1410156,29.3907227 20.1272461,29.3979492 20.1134766,29.4046875 C20.1044922,29.409082 20.0954102,29.4128906 20.0866211,29.4176758 C20.0723633,29.425293 20.059082,29.434082 20.0454102,29.4424805 C20.0375977,29.4474609 20.0293945,29.4518555 20.021582,29.4570312 C20.0088867,29.465625 19.996875,29.4751953 19.9845703,29.4845703 C19.9766602,29.4905273 19.968457,29.4959961 19.9607422,29.5023437 C19.9535156,29.5083008 19.9467773,29.5150391 19.9396484,29.5212891 L19.9396484,28.537207 C19.9396484,25.8479492 22.1273437,23.6601562 24.8165039,23.6601562 L25.2887695,23.6601562 Z M11.8415039,24.2105469 C11.90625,20.7443359 12.3956055,17.4102539 13.2673828,14.3912109 C16.6029297,14.9518555 20.3455078,15.274707 24.2105469,15.3135742 L24.2105469,22.1106445 C22.5555664,22.265625 21.0802734,23.0470703 20.0250977,24.2158203 C19.9963867,24.2126953 19.9671875,24.2106445 19.9375977,24.2106445 L11.8415039,24.2106445 L11.8415039,24.2105469 Z M19.6725586,31.4699219 L19.6725586,33.4392578 C19.2298828,33.3297852 18.9004883,32.9305664 18.9004883,32.4545898 C18.9003906,31.9787109 19.2298828,31.5794922 19.6725586,31.4699219 Z M24.2105469,1.62275391 L24.2105469,13.734375 C20.5101563,13.696875 16.9351563,13.3957031 13.7470703,12.8735352 C14.3176758,11.2170898 15.009668,9.67294922 15.8155273,8.27490234 C18.1129883,4.28935547 21.0688477,1.95830078 24.2105469,1.62275391 Z M18.5364258,2.48652344 C17.0307617,3.72285156 15.6490234,5.40185547 14.4474609,7.48632812 C13.5545898,9.03525391 12.7951172,10.7516602 12.1770508,12.5929687 C9.940625,12.156543 7.93798828,11.6046875 6.27001953,10.9541016 C9.29365234,6.93212891 13.5807617,3.91152344 18.5364258,2.48652344 Z M5.34082031,12.2837891 C7.11972656,13.0107422 9.28427734,13.6245117 11.7091797,14.1061523 C10.8231445,17.2279297 10.3265625,20.6561523 10.2623047,24.2105469 L1.59375,24.2105469 C1.73974609,19.8251953 3.09667969,15.7415039 5.34082031,12.2837891 Z M10.4280273,40.8445312 C10.5898437,40.8639648 10.7541992,40.8750977 10.9211914,40.8750977 L11.6413086,40.8750977 C11.8081055,40.8750977 11.9724609,40.8639648 12.1341797,40.8444336 L12.1341797,41.2820312 L11.2546875,42.1947266 L10.4280273,41.3897461 L10.4280273,40.8445312 Z M11.6413086,39.2961914 L10.9211914,39.2961914 C9.52617187,39.2961914 8.39130859,38.1613281 8.39130859,36.7664062 L8.39130859,34.6785156 C9.41953125,34.5672852 11.2404297,34.2072266 12.6447266,33.0344727 C12.9591797,33.5737305 13.4455078,34.1569336 14.1709961,34.4974609 L14.1709961,36.7665039 C14.1708984,38.1613281 13.0361328,39.2961914 11.6413086,39.2961914 Z M13.6726562,31.4392578 C13.6041992,31.1367187 13.3648437,30.9023437 13.0608398,30.8402344 C12.7568359,30.7779297 12.4447266,30.8996094 12.2630859,31.1509766 C10.8324219,33.128418 7.64296875,33.1500977 7.60449219,33.1500977 C7.60351562,33.1500977 7.60273437,33.1500977 7.60185547,33.1500977 C7.57470703,33.1500977 7.54775391,33.1514648 7.52128906,33.1541016 C7.51298828,33.1550781 7.50498047,33.1567383 7.49667969,33.1579102 C7.47880859,33.1602539 7.46064453,33.1625 7.44306641,33.1660156 C7.43183594,33.1683594 7.42089844,33.171875 7.40966797,33.1746094 C7.39560547,33.178125 7.38134766,33.18125 7.36757812,33.1854492 C7.35908203,33.1880859 7.35107422,33.1916992 7.34267578,33.1946289 L7.34267578,32.6800781 C7.34267578,30.6169922 9.02099609,28.9385742 11.084082,28.9385742 L11.4617187,28.9385742 C13.524707,28.9385742 15.202832,30.6169922 15.202832,32.6800781 L15.202832,33.1882812 L15.2026367,33.1882812 C15.1875,33.1833008 15.1717773,33.1795898 15.1563477,33.1755859 C15.1494141,33.1738281 15.1426758,33.1713867 15.1356445,33.1697266 C14.0352539,32.9194336 13.675293,31.450293 13.6726562,31.4392578 Z M1.59365234,25.7894531 L10.2621094,25.7894531 C10.2719727,26.3332031 10.2929687,26.8762695 10.3229492,27.4149414 C7.74863281,27.7851562 5.76347656,30.0046875 5.76347656,32.6799805 L5.76347656,34.0769531 C5.25712891,34.4867187 4.93242187,35.1121094 4.93242187,35.8124023 C4.93242187,36.9924805 5.85361328,37.9591797 7.01445312,38.0375 C7.32851562,39.0005859 7.98925781,39.8078125 8.84902344,40.3121094 L8.84902344,40.7567383 L7.98662109,41.0944336 C4.03535156,36.9195312 1.78349609,31.5163086 1.59365234,25.7894531 Z M6.81220703,35.2629883 L6.81220703,36.3618164 C6.63154297,36.2454102 6.51132812,36.0428711 6.51132812,35.8125977 C6.51132812,35.5821289 6.63154297,35.3795898 6.81220703,35.2629883 Z M14.6027344,45.6716797 L14.6027344,48.4210937 L13.6775391,48.4210937 L9.63837891,48.4210937 L8.79628906,48.4210937 L8.08945312,48.4210937 L4.33759766,48.4210937 L4.33759766,46.380957 C4.33759766,44.1798828 6.05830078,43.5419922 6.12519531,43.5182617 C6.13740234,43.5141602 6.14960937,43.5097656 6.16162109,43.5049805 L9.13925781,42.3388672 L10.7214844,43.8798828 C10.8689453,44.0235352 11.0666016,44.1038086 11.2722656,44.1038086 C11.2763672,44.1038086 11.2805664,44.1038086 11.2847656,44.1037109 C11.4948242,44.1004883 11.6950195,44.0134766 11.840625,43.8621094 L13.3351563,42.3111328 L15.1825195,43.0518555 C14.8322266,43.76875 14.6027344,44.6370117 14.6027344,45.6716797 Z M22.2197266,38.7730469 L18.0294922,40.4139648 C17.4958984,40.5975586 16.7574219,41.0210937 16.1023437,41.7195312 L13.7129883,40.7613281 L13.7129883,40.3123047 C14.5732422,39.8078125 15.2341797,38.9999023 15.5482422,38.0361328 C16.696875,37.9454102 17.6041992,36.9837891 17.6041992,35.8124023 C17.6041992,35.1157227 17.2830078,34.4930664 16.781543,34.0831055 L16.781543,32.6799805 C16.781543,29.8949219 14.6301758,27.6043945 11.9023437,27.3792969 C11.8722656,26.8526367 11.8514648,26.3213867 11.8414062,25.7893555 L18.9761719,25.7893555 C18.5820312,26.6236328 18.3605469,27.5547852 18.3605469,28.5371094 L18.3605469,30.3792969 C17.7299805,30.8530273 17.3212891,31.6068359 17.3212891,32.4545898 C17.3212891,33.871582 18.4635742,35.0262695 19.8756836,35.0479492 C20.2461914,36.2993164 21.0996094,37.3448242 22.2195313,37.9677734 L22.2195313,38.7730469 L22.2197266,38.7730469 Z M15.7499023,36.3445312 L15.7499023,35.2802734 C15.9162109,35.3990234 16.025293,35.5930664 16.025293,35.8125 C16.025293,36.0319336 15.9162109,36.2258789 15.7499023,36.3445312 Z M26.3282227,39.3240234 C26.3282227,39.3250977 26.3282227,39.3261719 26.3282227,39.3269531 L26.3282227,39.3748047 L25.034668,40.7170898 L23.7986328,39.5131836 L23.7986328,38.5198242 C24.0637695,38.5640625 24.3356445,38.5881836 24.6132812,38.5881836 L25.5138672,38.5881836 C25.7913086,38.5881836 26.0630859,38.5640625 26.3282227,38.5200195 L26.3282227,39.3240234 Z M25.5138672,37.009375 L24.6132812,37.009375 C22.7595703,37.009375 21.2514648,35.5013672 21.2514648,33.6476562 L21.2514648,30.8603516 C22.5114258,30.7443359 25.002832,30.3063477 26.8226562,28.6726562 C27.2067383,29.3995117 27.8505859,30.2433594 28.8753906,30.6810547 L28.8753906,33.6475586 C28.875293,35.5013672 27.3673828,37.009375 25.5138672,37.009375 Z M33.9193359,41.7249023 C33.2643555,41.024707 32.525,40.599707 31.9902344,40.4151367 L27.9070312,38.7775391 L27.9070312,37.9677734 C29.0272461,37.3447266 29.8804687,36.2989258 30.2508789,35.047168 C31.6480469,35.0084961 32.7730469,33.8607422 32.7730469,32.4546875 C32.7730469,31.6118164 32.36875,30.8618164 31.7443359,30.3875977 L31.7443359,28.537207 C31.7443359,27.5549805 31.5229492,26.6237305 31.1287109,25.7894531 L38.1583008,25.7894531 C38.1480469,26.3236328 38.1271484,26.8570312 38.0966797,27.3862305 C35.4105469,27.6527344 33.3056641,29.9250977 33.3056641,32.6799805 L33.3056641,34.0771484 C32.7994141,34.4868164 32.4748047,35.112207 32.4748047,35.8125 C32.4748047,36.9926758 33.3959961,37.959375 34.5568359,38.0375977 C34.8708984,39.0006836 35.5317383,39.8079102 36.3915039,40.312207 L36.3915039,40.7568359 L33.9193359,41.7249023 Z M34.3549805,35.2629883 L34.3549805,36.3618164 C34.1742187,36.2454102 34.0541016,36.0428711 34.0541016,35.8125977 C34.0541016,35.5821289 34.1743164,35.3794922 34.3549805,35.2629883 Z M45.6794922,48.4210937 L41.2203125,48.4210937 L37.18125,48.4210937 L36.3389648,48.4210937 L35.6321289,48.4210937 L35.4141602,48.4210937 L35.4141602,45.671582 C35.4141602,44.6411133 35.1867187,43.7757812 34.8386719,43.0606445 L36.6820312,42.3387695 L38.2640625,43.8797852 C38.4115234,44.0234375 38.6091797,44.1038086 38.8149414,44.1038086 C38.819043,44.1038086 38.8232422,44.1038086 38.8273437,44.1037109 C39.0374023,44.1004883 39.2375977,44.0134766 39.3833008,43.8621094 L40.8779297,42.3111328 L43.8492187,43.5025391 C43.8630859,43.5082031 43.8708008,43.5111328 43.8851562,43.5160156 C43.9583984,43.5419922 45.6794922,44.1799805 45.6794922,46.3810547 L45.6794922,48.4210937 Z"
                                  id="Shape"></path>
                        </g>
                    </g>
                </g>
            </g>
        </g>
    </g>
</svg>