<svg width="32px" height="32px" viewBox="0 0 32 32" version="1.1" xmlns="http://www.w3.org/2000/svg">
    <g id="Welcome" stroke="none" stroke-width="1" fill="none" fill-rule="evenodd">
        <g id="Design" transform="translate(-455.000000, -3573.000000)">
            <g id="Group-49" transform="translate(-19.000000, 3458.000000)">
                <g id="Group-46" transform="translate(233.000000, 95.000000)">
                    <g id="Group-45">
                        <g id="Group-44" transform="translate(49.000000, 0.000000)">
                            <g id="Group-43" transform="translate(171.000000, 0.000000)">
                                <g id="internet" transform="translate(21.000000, 20.000000)">
                                    <path d="M16,0 C7.16343335,0 0,7.16339742 0,16 C0,24.8366026 7.16343335,32 16,32 C19.5482111,32 22.8259701,30.8442796 25.4792887,28.8897564 C25.3381748,28.8802576 25.200444,28.8183859 25.0984959,28.7045314 L22.4779022,25.7759344 L21.066568,27.9419668 L19.9012886,22.0545851 L25.8943679,23.9188706 L23.3146965,25.0271624 L25.9352903,27.9558895 C26.0568863,28.091604 26.098134,28.2698025 26.0661898,28.4358999 C29.6857711,25.5025536 32,21.0218926 32,15.9999349 C32,7.16339742 24.8365667,0 16,0 Z"
                                          id="Path" fill="#F95070"></path>
                                    <g id="Group" transform="translate(4.000000, 13.000000)" fill="#FFFFFF">
                                        <polygon id="Path"
                                                 points="2.0242126 3.84698901 2.17217848 4.67314286 2.18858268 4.67868132 2.36948819 3.84698901 3.56437008 0.0356043956 4.38654856 0.0356043956 5.58149606 3.84698901 5.77335958 4.75028571 5.78976378 4.75028571 5.97611549 3.84698901 6.93536745 0.0356043956 7.94396325 0.0356043956 6.22283465 5.99505495 5.40059055 5.99505495 4.22762467 2.32134066 3.97001312 1.25828571 3.95360892 1.25828571 3.70695538 2.32134066 2.55590551 5.99505495 1.72821522 5.99505495 0.00708661417 0.0356043956 1.02112861 0.0356043956"></polygon>
                                        <polygon id="Path"
                                                 points="10.5202756 3.84698901 10.6682415 4.67314286 10.6846457 4.67868132 10.8655512 3.84698901 12.0604331 0.0356043956 12.8826772 0.0356043956 14.0776247 3.84698901 14.269357 4.75028571 14.2858924 4.75028571 14.4722441 3.84698901 15.4314961 0.0356043956 16.4399606 0.0356043956 14.7188976 5.99505495 13.8966535 5.99505495 12.723622 2.32134066 12.4660105 1.25828571 12.4496063 1.25828571 12.2028871 2.32134066 11.0518373 5.99505495 10.224147 5.99505495 8.50301837 0.0356043956 9.51706037 0.0356043956"></polygon>
                                        <polygon id="Path"
                                                 points="19.0163386 3.84698901 19.1643045 4.67314286 19.1807743 4.67868132 19.3616798 3.84698901 20.5566273 0.0356043956 21.3788058 0.0356043956 22.5737533 3.84698901 22.7655512 4.75028571 22.782021 4.75028571 22.9683727 3.84698901 23.9276247 0.0356043956 24.9361549 0.0356043956 23.2150919 5.99505495 22.3929134 5.99505495 21.2198819 2.32134066 20.9622703 1.25828571 20.9458005 1.25828571 20.699147 2.32134066 19.5480315 5.99505495 18.7204068 5.99505495 16.9992782 0.0356043956 18.0133202 0.0356043956"></polygon>
                                    </g>
                                </g>
                            </g>
                        </g>
                    </g>
                </g>
            </g>
        </g>
    </g>
</svg>