<svg width="32px" height="29px" viewBox="0 0 32 29" version="1.1" xmlns="http://www.w3.org/2000/svg">
    <g id="Welcome" stroke="none" stroke-width="1" fill="none" fill-rule="evenodd">
        <g id="Design" transform="translate(-455.000000, -3654.000000)" fill="#FF9A08" fill-rule="nonzero">
            <g id="Group-49" transform="translate(-19.000000, 3458.000000)">
                <g id="Group-46" transform="translate(231.000000, 95.000000)">
                    <g id="Group-45">
                        <g id="Group-44-Copy" transform="translate(0.000000, 91.000000)">
                            <g id="Group-43" transform="translate(235.000000, 0.000000)">
                                <g id="layers" transform="translate(8.000000, 10.000000)">
                                    <path d="M30.3022534,19.4978558 C30.4475945,19.5704639 30.4693645,19.6984016 30.4693645,19.7683275 C30.4694269,19.8383782 30.4476569,19.9668148 30.3020039,20.0396725 L16.8777232,26.7518129 C16.3085224,27.0361326 15.6289747,27.0361949 15.0600858,26.7518752 L1.63586745,20.0397349 C1.48996491,19.9666901 1.46819493,19.8383158 1.46825731,19.7682651 C1.46825731,19.6984639 1.48996491,19.5704639 1.63561793,19.497731 L4.99854971,17.8162651 L14.4036803,22.518768 C14.8937232,22.7636023 15.4311111,22.8859259 15.9686862,22.8859259 C16.5063236,22.8859259 17.043961,22.7634776 17.5340663,22.5187057 L26.9389474,17.8162651 L30.3022534,19.4978558 Z M31.9376218,14.2222846 C31.9376218,13.5472904 31.5626043,12.9403509 30.9586589,12.6380039 L28.5806784,11.4490136 L30.9586589,10.2600858 C30.9587212,10.2600234 30.9589084,10.259961 30.9589084,10.259961 C31.562729,9.95773879 31.9377466,9.35073684 31.9377466,8.67574269 C31.9377466,8.00087329 31.5626667,7.39387135 30.9587836,7.09152437 L17.5338791,0.379259259 C16.5537934,-0.110346979 15.3837037,-0.110346979 14.4034308,0.379321637 L0.978775828,7.09183626 C0.375079922,7.39393372 -1.4378149e-15,8.00087329 -1.4378149e-15,8.67580507 C-1.4378149e-15,9.35079922 0.375017544,9.95773879 0.978962963,10.2600858 L3.35688109,11.4490136 L0.978651072,12.6381287 C0.375017544,12.9403509 -1.4378149e-15,13.5472904 -1.4378149e-15,14.2222846 C-1.4378149e-15,14.8972788 0.375017544,15.5042183 0.978962963,15.8065029 L3.35688109,16.9954932 L0.979150097,18.1843587 C0.375516569,18.4859571 0.000249512671,19.0927096 -1.4378149e-15,19.7677661 C-0.000249512671,20.4431969 0.374768031,21.0505107 0.978962963,21.3529201 L14.4036803,28.0653099 C14.8937232,28.3101442 15.4311111,28.4324678 15.9687485,28.4324678 C16.506386,28.4324678 17.0440234,28.3100195 17.5341287,28.0652476 L30.958846,21.3528577 C31.5627914,21.0506355 31.9378713,20.4432593 31.9376218,19.7678285 C31.9373723,19.0927719 31.5621053,18.4860195 30.9586589,18.1846082 L28.5806784,16.9956179 L30.9589084,15.8065029 C31.5626043,15.5042183 31.9376218,14.8972788 31.9376218,14.2222846 Z M1.63586745,8.94696296 C1.48996491,8.87391813 1.46825731,8.74573099 1.46825731,8.67586745 C1.46825731,8.6060039 1.49008967,8.47781676 1.63561793,8.40495906 L15.0598986,1.69281871 C15.3445302,1.55059649 15.6567329,1.47961014 15.9689357,1.47961014 C16.2810136,1.47961014 16.593154,1.55065887 16.8775984,1.69275634 L30.3018168,8.40483431 C30.4475945,8.47781676 30.4694269,8.6060039 30.4694269,8.67586745 C30.4694269,8.74573099 30.4477193,8.87391813 30.3018168,8.94696296 L16.8777856,15.6589162 C16.3085848,15.9432359 15.629037,15.9432359 15.0601481,15.6589786 L1.63586745,8.94696296 Z M30.3019415,14.4932554 L16.8777232,21.2053957 C16.3085224,21.4897154 15.6289747,21.4897778 15.0600858,21.2054581 L1.63586745,14.4933801 C1.48996491,14.4203977 1.46825731,14.2922105 1.46825731,14.222347 C1.46825731,14.1523587 1.48996491,14.0242963 1.63561793,13.9513762 L4.99854971,12.2699103 L14.4036803,16.9724133 C14.8936608,17.2172476 15.4311735,17.3395712 15.9686862,17.3395712 C16.5061988,17.3395712 17.0438986,17.2171852 17.5340039,16.9722885 L26.9390097,12.269848 L30.301692,13.9511891 C30.4475945,14.0242339 30.4693021,14.1523587 30.4693021,14.2222846 C30.4693645,14.2921481 30.4475945,14.4203353 30.3019415,14.4932554 Z"
                                          id="Shape"></path>
                                </g>
                            </g>
                        </g>
                    </g>
                </g>
            </g>
        </g>
    </g>
</svg>