<svg width="13px" height="18px" viewBox="0 0 13 18" version="1.1" xmlns="http://www.w3.org/2000/svg">
    <g id="Welcome" stroke="none" stroke-width="1" fill="none" fill-rule="evenodd" opacity="0.61609468">
        <g id="Home" transform="translate(-1457.000000, -5444.000000)" fill="#FFFFFF" fill-rule="nonzero">
            <g id="Group-63" transform="translate(25.000000, 5318.000000)">
                <g id="Group-67" transform="translate(1113.000000, 122.000000)">
                    <g id="Group-71">
                        <g id="placeholder" transform="translate(319.000000, 4.000000)">
                            <path d="M6.5,0 C2.9159,0 0,2.83879687 0,6.328125 C0,7.50705469 0.335436111,8.65757812 0.970269444,9.65573437 L6.13000556,17.750707 C6.22884167,17.9057812 6.40296944,18 6.59024167,18 C6.59168611,18 6.59309444,18 6.59453889,18 C6.78343611,17.9985586 6.957925,17.9014219 7.05495556,17.7436406 L12.083175,9.57023437 C12.6829806,8.59317187 13,7.47207422 13,6.328125 C13,2.83879687 10.0841,0 6.5,0 Z M11.1534944,9.02875781 L6.58204444,16.4596641 L1.89103056,9.10005469 C1.36261667,8.26924219 1.07611111,7.31074219 1.07611111,6.328125 C1.07611111,3.42035156 3.51325,1.04765625 6.5,1.04765625 C9.48675,1.04765625 11.9202778,3.42035156 11.9202778,6.328125 C11.9202778,7.28159766 11.6526583,8.21559375 11.1534944,9.02875781 Z"
                                  id="Shape"></path>
                            <path d="M6.5,3.375 C4.70795,3.375 3.25,4.889025 3.25,6.75 C3.25,8.5990875 4.684225,10.125 6.5,10.125 C8.33816389,10.125 9.75,8.5787625 9.75,6.75 C9.75,4.889025 8.29205,3.375 6.5,3.375 Z M6.5,9.0075 C5.29905278,9.0075 4.32611111,7.9937625 4.32611111,6.75 C4.32611111,5.50935 5.3053,4.4925 6.5,4.4925 C7.6947,4.4925 8.67027778,5.50935 8.67027778,6.75 C8.67027778,7.9756125 7.71997778,9.0075 6.5,9.0075 Z"
                                  id="Shape"></path>
                        </g>
                    </g>
                </g>
            </g>
        </g>
    </g>
</svg>