<svg width="18px" height="14px" viewBox="0 0 18 14" version="1.1" xmlns="http://www.w3.org/2000/svg">
    <g id="Welcome" stroke="none" stroke-width="1" fill="none" fill-rule="evenodd" opacity="0.596470424">
        <g id="Home" transform="translate(-1452.000000, -5513.000000)" fill="#FFFFFF">
            <g id="Group-63" transform="translate(25.000000, 5318.000000)">
                <g id="Group-67" transform="translate(1113.000000, 122.000000)">
                    <g id="Group-70" transform="translate(81.000000, 69.000000)">
                        <g id="envelope" transform="translate(233.000000, 4.000000)">
                            <path d="M15.2214504,0.0269056983 L2.12016903,0.0269056983 C0.950668008,0.0269056983 0,0.977573707 0,2.14707473 L0,11.1012911 C0,12.2707922 0.950668008,13.2214602 2.12016903,13.2214602 L15.217863,13.2214602 C16.387364,13.2214602 17.338032,12.2707922 17.338032,11.1012911 L17.338032,2.15066215 C17.3416194,0.981161133 16.3909514,0.0269056983 15.2214504,0.0269056983 Z M16.3730143,11.1012911 C16.3730143,11.7362656 15.8564249,12.252855 15.2214504,12.252855 L2.12016903,12.252855 C1.48519455,12.252855 0.96860514,11.7362656 0.96860514,11.1012911 L0.96860514,2.15066215 C0.96860514,1.51568767 1.48519455,0.999098265 2.12016903,0.999098265 L15.217863,0.999098265 C15.8528375,0.999098265 16.3694269,1.51568767 16.3694269,2.15066215 L16.3694269,11.1012911 L16.3730143,11.1012911 Z"
                                  id="Shape" fill-rule="nonzero"></path>
                            <path d="M10.9344758,6.51297271 L15.1748139,2.71030068 C15.3721223,2.53092936 15.3900595,2.22599811 15.2106881,2.02510223 C15.0313168,1.82779377 14.7263856,1.80985664 14.5254897,1.98922796 L8.67798457,7.23763286 L7.53718296,6.21880374 C7.53359554,6.21521632 7.53000811,6.21162889 7.53000811,6.20804147 C7.50489613,6.18292948 7.47978414,6.16140492 7.45108473,6.13988036 L2.80895491,1.98564054 C2.60805903,1.80626922 2.30312778,1.82420635 2.12375646,2.02510223 C1.94438513,2.22599811 1.96232227,2.53092936 2.16321815,2.71030068 L6.45378018,6.54525955 L2.18115528,10.54524 C1.98743425,10.7281988 1.97667197,11.03313 2.15963072,11.2304385 C2.25649123,11.3308864 2.38563859,11.3846978 2.51478594,11.3846978 C2.63317101,11.3846978 2.75155608,11.3416487 2.84482917,11.2555505 L7.18202775,7.19817116 L8.35870362,8.24928711 C8.45197671,8.33179792 8.56677435,8.37125961 8.681572,8.37125961 C8.79636965,8.37125961 8.91475472,8.3282105 9.00444038,8.24569969 L10.2134031,7.1622969 L14.5254897,11.2591379 C14.6187628,11.3488236 14.7407353,11.3918727 14.8591203,11.3918727 C14.9882677,11.3918727 15.1138276,11.3416487 15.2106881,11.2412008 C15.3936469,11.0474797 15.386472,10.7389611 15.192751,10.5560023 L10.9344758,6.51297271 Z"
                                  id="Path"></path>
                        </g>
                    </g>
                </g>
            </g>
        </g>
    </g>
</svg>