<svg width="49px" height="42px" viewBox="0 0 49 42" version="1.1" xmlns="http://www.w3.org/2000/svg">
    <defs>
        <linearGradient x1="160.367261%" y1="119.795789%" x2="-28.5982809%" y2="-6.8814747%" id="linearGradient-1">
            <stop stop-color="#FFFBE1" offset="0%"></stop>
            <stop stop-color="#F1C995" offset="100%"></stop>
        </linearGradient>
    </defs>
    <g id="Welcome" stroke="none" stroke-width="1" fill="none" fill-rule="evenodd">
        <g id="Design" transform="translate(-1380.000000, -3833.000000)" fill="url(#linearGradient-1)" fill-rule="nonzero">
            <g id="Group-49" transform="translate(-19.000000, 3458.000000)">
                <g id="Group-48" transform="translate(623.000000, 108.000000)">
                    <g id="Group-47-Copy-2" transform="translate(437.000000, 267.000000)">
                        <g id="maintenance" transform="translate(339.000000, 0.000000)">
                            <path d="M37.0000001,3.91961916 C37.0002683,3.4117018 37.4477656,3 38,3 C38.5524,3 39,3.41194872 39,3.92007606 L39,4.07992394 C39,4.58805128 38.5524,5 38,5 C37.4476,5 37,4.58805128 37,4.07992394 L37,3.92007606 L37,4.07992394 C37,4.58805128 36.5524,5 36,5 C35.4476,5 35,4.58805128 35,4.07992394 L35,3.92007606 C35,3.41194872 35.4476,3 36,3 C36.5522344,3 36.9998649,3.4117018 37,3.91961916 Z M46.383668,0 C47.8262969,0 49,1.16521247 49,2.5974053 L49,11.6593456 C49,12.0528803 48.6787246,12.3719266 48.2822266,12.3719266 C47.8857285,12.3719266 47.5644531,12.0528803 47.5644531,11.6593456 L47.5644531,8.5425162 L1.43554687,8.5425162 L1.43554687,40.425861 C1.43554687,40.5079504 1.50282617,40.574743 1.58551367,40.574743 L9.15237695,40.574743 L9.15237695,24.3145943 L7.76726562,21.0434674 C7.70812109,20.9037066 7.69539258,20.748934 7.73089844,20.6014772 L9.1721875,14.6224474 C9.24951562,14.301881 9.53815625,14.0757553 9.87024609,14.0757553 L12.7525371,14.0757553 C13.084627,14.0757553 13.3732676,14.301786 13.4505957,14.6224474 L14.8917891,20.6015722 C14.9272949,20.749029 14.9145664,20.9038016 14.8554219,21.0435625 L13.4594004,24.3405323 L13.4594004,40.574838 L16.8778203,40.574838 C17.2743184,40.574838 17.5955937,40.8938842 17.5955937,41.287419 C17.5955937,41.6809537 17.2743184,42 16.8778203,42 L1.58551367,42 C0.711265625,42 0,41.2938797 0,40.425956 L0,2.5974053 C0,1.16521247 1.17370312,0 2.61633203,0 L12.7945508,0 C13.1910488,0 13.5123242,0.319046273 13.5123242,0.712581014 C13.5123242,1.10611575 13.1910488,1.42516203 12.7945508,1.42516203 L2.61633203,1.42516203 C1.96526367,1.42516203 1.43554687,1.95104682 1.43554687,2.5974053 L1.43554687,7.11735418 L47.5645488,7.11735418 L47.5645488,2.5974053 C47.5645488,1.95104682 47.034832,1.42516203 46.3837637,1.42516203 L15.7247891,1.42516203 C15.328291,1.42516203 15.0070156,1.10611575 15.0070156,0.712581014 C15.0070156,0.319046273 15.328291,0 15.7247891,0 L46.383668,0 Z M10.4365215,15.5009173 L9.18185352,20.7064641 L10.5319375,23.8949316 C10.5689746,23.9823416 10.5880195,24.0762122 10.5879238,24.171033 L10.5879238,40.574838 L12.0237578,40.574838 L12.0237578,24.171033 C12.0237578,24.030322 12.0649102,23.8991121 12.1358262,23.7886145 L13.4409297,20.7064641 L12.1862617,15.5009173 L10.4365215,15.5009173 Z M48.2799593,14 C48.6776568,14 48.999904,14.3174106 49,14.7089278 L49,40.4340258 C49,41.2974998 48.2866788,42 47.4096901,42 L19.7199447,42 C19.3222473,42 19,41.6825894 19,41.2910722 C19,40.8995551 19.3222473,40.5821445 19.7199447,40.5821445 L25.5804866,40.5821445 L25.5804866,36.7942962 C21.8808348,35.1186745 19.5169203,31.5081527 19.5169203,27.4660356 C19.5169203,25.6667769 19.9964995,23.8962535 20.9037258,22.3458757 C21.7834982,20.8425708 23.0455133,19.5730229 24.5535575,18.6744806 C24.9843724,18.4177543 25.523947,18.4092471 25.9617693,18.652173 C26.4036234,18.8973675 26.6674111,19.3421961 26.6674111,19.8421319 L26.6674111,25.3828277 L33.2232277,25.3828277 L33.2232277,19.8421319 C33.2232277,19.3422906 33.4870154,18.897462 33.9288695,18.652173 C34.3667878,18.4091526 34.9063624,18.4177543 35.3370813,18.6744806 C36.8450295,19.5730229 38.1071406,20.8425708 38.986913,22.3458757 C39.8941393,23.8964425 40.3737185,25.6668715 40.3737185,27.4660356 C40.3737185,31.5081527 38.0097081,35.1186745 34.3101522,36.7942962 L34.3101522,40.5820499 L47.4095941,40.5820499 C47.4925318,40.5820499 47.5600146,40.5155998 47.5600146,40.4339313 L47.5600146,14.7089278 C47.5600146,14.3174106 47.8822618,14 48.2799593,14 Z M32.8702628,36.3285779 C32.8702628,36.039808 33.0480411,35.7799623 33.3197962,35.6715436 C36.7302223,34.3102133 38.9338291,31.0892236 38.9338291,27.4659411 C38.9338291,24.3682103 37.3391036,21.5574535 34.6631171,19.9305116 L34.6631171,26.0917555 C34.6631171,26.4832727 34.3408698,26.8006833 33.9431724,26.8006833 L25.9474664,26.8006833 C25.549769,26.8006833 25.2275217,26.4832727 25.2275217,26.0917555 L25.2275217,19.9305116 C22.5514392,21.5574535 20.9567137,24.3682103 20.9567137,27.4659411 C20.9567137,31.0892236 23.1604165,34.3102133 26.5707466,35.6715436 C26.8425017,35.7799623 27.020184,36.039808 27.020184,36.3285779 L27.020184,40.5821445 L29.2253267,40.5821445 L29.2253267,33.5723613 C29.2253267,33.1808441 29.5475739,32.8634335 29.9452714,32.8634335 C30.3429689,32.8634335 30.6652161,33.1808441 30.6652161,33.5723613 L30.6652161,40.5821445 L32.8702628,40.5821445 L32.8702628,36.3285779 Z M33.2832721,3 C33.6791926,3 34,3.44773333 34,4 C34,4.55226667 33.6791926,5 33.2832721,5 L7.7167279,5 C7.32080741,5 7,4.55226667 7,4 C7,3.4476 7.32090297,3 7.7167279,3 L33.2832721,3 Z M41,3 C41.5524,3 42,3.41194872 42,3.92007606 L42,4.07992394 C42,4.58805128 41.5524,5 41,5 C40.4476,5 40,4.58805128 40,4.07992394 L40,3.92007606 C40,3.41194872 40.4476,3 41,3 Z M20.4432347,15.9432347 C20.7507918,15.9432347 21,16.1925171 21,16.5 C21,16.8074829 20.7507918,17.0567653 20.4432347,17.0567653 L20.0567653,17.0567653 L20.0567653,17.4432347 C20.0567653,17.7507176 19.8075572,18 19.5,18 C19.1924428,18 18.9432347,17.7507176 18.9432347,17.4432347 L18.9432347,17.0567653 L18.5567653,17.0567653 C18.2492082,17.0567653 18,16.8074829 18,16.5 C18,16.1925171 18.2492082,15.9432347 18.5567653,15.9432347 L18.9432347,15.9432347 L18.9432347,15.5567653 C18.9432347,15.2492824 19.1924428,15 19.5,15 C19.8075572,15 20.0567653,15.2492824 20.0567653,15.5567653 L20.0567653,15.9432347 L20.4432347,15.9432347 Z M39.4432209,15.9432347 C39.7507857,15.9432347 40,16.1925171 40,16.5 C40,16.8074829 39.7507857,17.0567653 39.4432209,17.0567653 L39.0568162,17.0567653 L39.0568162,17.4432347 C39.0568162,17.7507176 38.8076019,18 38.5000371,18 C38.1924723,18 37.943258,17.7507176 37.943258,17.4432347 L37.943258,17.0567653 L37.5567791,17.0567653 C37.2492143,17.0567653 37,16.8074829 37,16.5 C37,16.1925171 37.2492143,15.9432347 37.5567791,15.9432347 L37.943258,15.9432347 L37.943258,15.5567653 C37.943258,15.2492824 38.1924723,15 38.5000371,15 C38.8076019,15 39.0568162,15.2492824 39.0568162,15.5567653 L39.0568162,15.9432347 L39.4432209,15.9432347 Z"
                                  id="Combined-Shape"></path>
                        </g>
                    </g>
                </g>
            </g>
        </g>
    </g>
</svg>