<svg width="16px" height="16px" viewBox="0 0 16 16" version="1.1" xmlns="http://www.w3.org/2000/svg">
    <g id="Welcome" stroke="none" stroke-width="1" fill="none" fill-rule="evenodd" opacity="0.604817708">
        <g id="Home" transform="translate(-1452.000000, -5553.000000)" fill="#FFFFFF">
            <g id="Group-63" transform="translate(25.000000, 5318.000000)">
                <g id="Group-67" transform="translate(1113.000000, 122.000000)">
                    <g id="Group-69" transform="translate(164.000000, 110.000000)">
                        <g id="phone-call" transform="translate(150.000000, 3.000000)">
                            <path d="M12.7955617,9.86075269 C12.4637971,9.51684588 12.0636274,9.33297491 11.639516,9.33297491 C11.2188248,9.33297491 10.8152348,9.51344086 10.4697892,9.85734767 L9.38898907,10.9299283 C9.30006247,10.8822581 9.21113588,10.8379928 9.12562954,10.7937276 C9.0025004,10.7324373 8.88621178,10.674552 8.78702442,10.6132616 C7.77462935,9.97311828 6.85458112,9.13888889 5.97215568,8.05949821 C5.54462397,7.52150538 5.25732267,7.06863799 5.0486872,6.60896057 C5.32914799,6.35358423 5.58908727,6.08799283 5.84218604,5.83261649 C5.93795314,5.73727599 6.03372024,5.63853047 6.12948735,5.54318996 C6.84774061,4.8281362 6.84774061,3.90197133 6.12948735,3.18691756 L5.1957581,2.25734767 C5.08973024,2.15179211 4.98028212,2.04283154 4.87767451,1.93387097 C4.6724593,1.72275986 4.45698332,1.50483871 4.23466683,1.30053763 C3.90290223,0.973655914 3.5061528,0.8 3.08888186,0.8 C2.67161092,0.8 2.26802099,0.973655914 1.92599562,1.30053763 C1.92257537,1.30394265 1.92257537,1.30394265 1.91915512,1.30734767 L0.756268878,2.47526882 C0.318476412,2.91111111 0.068797896,3.44229391 0.0140738378,4.05860215 C-0.0680122496,5.05286738 0.226129563,5.97903226 0.451866304,6.58512545 C1.00594739,8.07311828 1.83364877,9.45215054 3.06836034,10.9299283 C4.56643143,12.7107527 6.3689051,14.1170251 8.42789779,15.1078853 C9.21455613,15.4790323 10.264574,15.9182796 11.437721,15.99319 C11.5095463,15.996595 11.5847919,16 11.653197,16 C12.4432756,16 13.1068048,15.7173835 13.6266833,15.1555556 C13.6301036,15.1487455 13.6369441,15.1453405 13.6403643,15.1385305 C13.8182175,14.9240143 14.0234327,14.7299283 14.2389087,14.5222222 C14.3859796,14.3826165 14.5364708,14.2362007 14.6835417,14.0829749 C15.0221468,13.7322581 15.2,13.3236559 15.2,12.9048387 C15.2,12.4826165 15.0187266,12.0774194 14.6732809,11.7369176 L12.7955617,9.86075269 Z M14.0200125,13.4462366 C14.0165922,13.4462366 14.0165922,13.4496416 14.0200125,13.4462366 C13.8866226,13.5892473 13.7498125,13.718638 13.6027416,13.8616487 C13.3804251,14.0727599 13.1546883,14.294086 12.9426326,14.5426523 C12.597187,14.9103943 12.1901768,15.0840502 11.6566172,15.0840502 C11.6053134,15.0840502 11.5505894,15.0840502 11.4992856,15.0806452 C10.4834702,15.0159498 9.53948023,14.6209677 8.83148772,14.283871 C6.89562416,13.3508961 5.1957581,12.0263441 3.78319335,10.3476703 C2.61688686,8.94820789 1.83706903,7.65430108 1.32061073,6.26505376 C1.00252714,5.4172043 0.886238516,4.75663082 0.937542321,4.13351254 C0.971744857,3.73512545 1.12565627,3.40483871 1.40953732,3.12222222 L2.57584381,1.96111111 C2.74343624,1.80448029 2.92128943,1.71935484 3.09572237,1.71935484 C3.31119835,1.71935484 3.48563128,1.84874552 3.5950794,1.95770609 C3.59849965,1.96111111 3.60191991,1.96451613 3.60534016,1.96792115 C3.81397563,2.16200717 4.01235034,2.36290323 4.22098582,2.57741935 C4.32701368,2.68637993 4.43646179,2.7953405 4.54590991,2.90770609 L5.47963915,3.83727599 C5.84218604,4.19820789 5.84218604,4.53189964 5.47963915,4.89283154 C5.3804518,4.99157706 5.2846847,5.09032258 5.18549734,5.18566308 C4.89819604,5.47849462 4.62457574,5.75089606 4.32701368,6.01648746 C4.32017317,6.02329749 4.31333266,6.02670251 4.30991241,6.03351254 C4.0157706,6.32634409 4.07049466,6.61236559 4.13205922,6.80645161 C4.13547947,6.81666667 4.13889973,6.82688172 4.14231998,6.83709677 C4.38515799,7.42275986 4.72718335,7.97437276 5.24706191,8.63154122 L5.25048216,8.63494624 C6.19447217,9.79265233 7.18976597,10.6949821 8.28766739,11.3862007 C8.42789779,11.4747312 8.57154845,11.5462366 8.70835859,11.6143369 C8.83148772,11.6756272 8.94777635,11.7335125 9.0469637,11.7948029 C9.06064472,11.8016129 9.07432573,11.811828 9.08800675,11.818638 C9.20429537,11.8765233 9.31374349,11.9037634 9.42661186,11.9037634 C9.71049291,11.9037634 9.8883461,11.7267025 9.94649041,11.6688172 L11.1162172,10.5043011 C11.2325058,10.3885305 11.4171995,10.2489247 11.6326755,10.2489247 C11.8447312,10.2489247 12.0191641,10.3817204 12.125192,10.497491 C12.1286122,10.5008961 12.1286122,10.5008961 12.1320325,10.5043011 L14.0165922,12.3804659 C14.3688784,12.7277778 14.3688784,13.0853047 14.0200125,13.4462366 Z"
                                  id="Shape" fill-rule="nonzero"></path>
                            <path d="M9.17353896,4.10031431 C10.0542553,4.24823342 10.8542952,4.66509638 11.4929826,5.303838 C12.13167,5.94257962 12.5451361,6.74268755 12.6964041,7.62347862 C12.7333808,7.84535729 12.924987,8 13.1434853,8 C13.1703774,8 13.193908,7.9966382 13.2208001,7.9932764 C13.469552,7.95293483 13.6342661,7.71760897 13.593928,7.46883591 C13.4124063,6.40314595 12.9081794,5.43158632 12.138393,4.66173458 C11.3686067,3.89188283 10.3971295,3.38761313 9.33153005,3.20607604 C9.08277812,3.16573446 8.85083375,3.33046257 8.80713409,3.57587382 C8.76343442,3.82128508 8.92478703,4.05997274 9.17353896,4.10031431 Z"
                                  id="Path"></path>
                            <path d="M15.9934047,6.6999239 C15.7082073,5.02659233 14.9199088,3.50392472 13.7086207,2.29220186 C12.4973327,1.080479 10.9752116,0.291897459 9.30248051,0.00659763254 C9.06855452,-0.0350753758 8.84744639,0.125205426 8.80578834,0.359215396 C8.76733475,0.596430982 8.92435357,0.817618488 9.16148402,0.859291496 C10.654765,1.11253516 12.0166629,1.8209763 13.0997723,2.90126891 C14.1828817,3.98476712 14.8878641,5.34715394 15.1410169,6.840971 C15.176266,7.05254166 15.3589205,7.2 15.5672108,7.2 C15.5928465,7.2 15.6152778,7.19679438 15.6409135,7.19358877 C15.8748395,7.15832699 16.0350628,6.93393387 15.9934047,6.6999239 Z"
                                  id="Path"></path>
                        </g>
                    </g>
                </g>
            </g>
        </g>
    </g>
</svg>