<svg width="36px" height="43px" viewBox="0 0 36 43" version="1.1" xmlns="http://www.w3.org/2000/svg">
    <defs>
        <linearGradient x1="160.367261%" y1="119.795789%" x2="-28.5982809%" y2="-6.8814747%" id="linearGradient-1">
            <stop stop-color="#FFFBE1" offset="0%"></stop>
            <stop stop-color="#F1C995" offset="100%"></stop>
        </linearGradient>
    </defs>
    <g id="Welcome" stroke="none" stroke-width="1" fill="none" fill-rule="evenodd">
        <g id="Design" transform="translate(-950.000000, -3833.000000)" fill="url(#linearGradient-1)" fill-rule="nonzero">
            <g id="Group-49" transform="translate(-19.000000, 3458.000000)">
                <g id="Group-48" transform="translate(623.000000, 108.000000)">
                    <g id="Group-47-Copy-3" transform="translate(0.000000, 267.000000)">
                        <g id="server" transform="translate(345.631436, 0.000000)">
                            <g id="shield">
                                <path d="M36.3266128,11.6669986 C36.4207937,16.7178617 36.5378747,23.0038834 34.4665406,28.7157942 C33.3308869,31.8481429 31.6124085,34.5710686 29.3591634,36.8094447 C26.7940247,39.3575127 23.4347994,41.3816636 19.3750231,42.8257983 C19.2421378,42.8730395 19.1037693,42.9114229 18.9637881,42.9399644 C18.7667178,42.9799882 18.5677124,43 18.3690294,43 C18.1703465,43 17.9716636,42.9799882 17.7742708,42.9399644 C17.6342897,42.9114229 17.4968888,42.8733676 17.3646485,42.8264545 C13.3000342,41.3849442 9.93726097,39.3617776 7.36986454,36.8133816 C5.11565179,34.5756615 3.39717338,31.8533919 2.26248733,28.7216993 C0.198894025,23.0268478 0.316297663,16.7526364 0.410801054,11.711287 L0.412736236,11.6335361 C0.431120838,11.2175517 0.443699811,10.7805714 0.450795671,10.2976621 C0.485307094,7.92642033 2.33860612,5.96525773 4.66958277,5.83304818 C9.53021893,5.55681881 13.2903581,3.9447156 16.5031515,0.759548662 L16.5305672,0.732975468 C17.5788133,-0.244325156 19.1595682,-0.244325156 20.2074917,0.732975468 L20.2349074,0.759548662 C23.4477009,3.9447156 27.20784,5.55681881 32.0684762,5.83272014 C34.3997754,5.96525773 36.2527518,7.92642033 36.2872633,10.2973341 C36.2946816,10.783524 36.3069381,11.2205043 36.3253227,11.6335361 L36.3266128,11.6669986 Z M32.1391119,27.8428176 C34.0465971,22.582322 33.9414499,16.8182491 33.846624,11.731299 C33.8272718,11.2975992 33.8143703,10.8402789 33.8069519,10.3350614 C33.7917926,9.28197804 32.9673875,8.41096994 31.9304303,8.35224658 C29.1795102,8.19608843 26.7630611,7.65544005 24.5427148,6.69946344 C22.3255938,5.74479916 20.3561814,4.3990833 18.5225572,2.58554917 C18.4296664,2.50517367 18.308715,2.50550171 18.2155017,2.58554917 C16.3822001,4.3990833 14.4127877,5.74479916 12.1953442,6.69946344 C9.9749978,7.65544005 7.5585488,8.19608843 4.80795122,8.35224658 C3.77099398,8.41096994 2.94658879,9.28197804 2.931107,10.3347334 C2.92401123,10.8373263 2.91110974,11.2946467 2.8917575,11.731299 L2.89111239,11.7595124 C2.79596396,16.8405574 2.68823648,22.6000374 4.59023857,27.8493788 C6.76510719,33.8519538 11.2109605,37.9717732 18.1816353,40.4440585 C18.2061482,40.4525882 18.2325962,40.4598055 18.2596894,40.4653826 C18.3325828,40.4801455 18.4057987,40.4801455 18.4777245,40.4657107 C18.5051402,40.4601336 18.5315882,40.4525882 18.5564236,40.4440585 C25.5196801,37.9671803 29.9626305,33.8450645 32.1391119,27.8428176 Z M17.8685637,11 C23.658109,11 28.3685637,15.7103826 28.3685637,21.4998392 C28.3685637,27.2896175 23.658109,32 17.8685637,32 C12.0786968,32 7.36856369,27.2896175 7.36856369,21.4998392 C7.36856369,15.7103826 12.0786968,11 17.8685637,11 Z M17.8685637,29.5274831 C22.2948609,29.5274831 25.896009,25.9263902 25.896009,21.4998392 C25.896009,17.0732884 22.2948609,13.4721955 17.8685637,13.4721955 C13.441945,13.4721955 9.84079691,17.0732884 9.84079691,21.4998392 C9.84079691,25.9263902 13.441945,29.5274831 17.8685637,29.5274831 Z M21.1411311,18.3524962 C21.6507626,17.8825013 22.4769629,17.8825013 22.9865945,18.3524962 C23.4958868,18.8218658 23.4958868,19.5833015 22.9865945,20.0529839 L16.9158038,25.6478947 C16.660988,25.8827358 16.3271149,26 15.9932418,26 C15.6593686,26 15.3254955,25.8827358 15.0706797,25.6478947 L12.7505329,23.5096205 C12.2412406,23.0402509 12.2412406,22.2788152 12.7505329,21.8091329 C13.2601644,21.3394506 14.0863647,21.3394506 14.5959962,21.8091329 L15.9932418,23.0968505 L21.1411311,18.3524962 Z"
                                      id="Combined-Shape"></path>
                            </g>
                        </g>
                    </g>
                </g>
            </g>
        </g>
    </g>
</svg>