<svg width="40px" height="27px" viewBox="0 0 40 27" version="1.1" xmlns="http://www.w3.org/2000/svg">
    <g id="Welcome" stroke="none" stroke-width="1" fill="none" fill-rule="evenodd">
        <g id="SEO" transform="translate(-924.000000, -1235.000000)">
            <g id="Group-20" transform="translate(206.000000, 915.000000)">
                <g id="Group-14">
                    <g id="Group-19" transform="translate(0.000000, 158.000000)">
                        <g id="Group-18" transform="translate(427.000000, 2.000000)">
                            <g id="Group-9-Copy-2" transform="translate(138.000000, 158.000000)">
                                <g id="trophy" transform="translate(153.000000, 0.000000)">
                                    <rect id="Rectangle" fill="#EAE9FF" transform="translate(19.635701, 15.530546) rotate(-22.000000) translate(-19.635701, -15.530546) " x="7.13570055" y="4.03054603" width="25" height="23" rx="8"></rect>
                                    <g id="hand-shake" transform="translate(0.000000, 3.000000)" fill="#6F87FF">
                                        <path d="M32.9651626,15.8084684 L31.8381699,16.5133827 C32.2167329,17.568696 31.9221699,18.6863975 31.0484521,19.4273305 C30.4842783,19.9075405 29.8019961,20.1402195 29.1396067,20.1055652 C28.8999577,20.7013412 28.4173831,21.2112549 27.750001,21.5445707 C27.072346,21.8821565 26.3272773,21.9805174 25.674772,21.8460199 C25.6676424,21.8506866 25.6604387,21.8552507 25.6531644,21.8597119 C25.2989185,22.5618597 24.6803359,23.1408441 23.9289558,23.4290545 C23.2882534,23.6765854 22.6225095,23.674961 22.0367267,23.448857 C21.5990863,23.8135009 20.9682913,24 20.147852,24 C19.125989,24 17.806281,23.4389557 17.1938184,23.0395801 C16.451624,22.5561212 12.7270781,19.7788244 9.62825653,17.2061273 C9.11229334,16.777048 8.34513548,15.9816229 7.60286306,15.2126526 C7.36495367,14.9667585 7.13666344,14.7294934 6.93327828,14.5218542 C6.76055387,15.0491101 6.64731522,15.3827458 6.62517567,15.4479823 C6.51353208,15.7776179 6.1935236,16 5.83351405,16 L0.833381472,16 C0.373369275,16 0,15.6415635 0,15.1999494 L0,0.799488157 C0,0.578681085 0.095002519,0.367474321 0.26172569,0.217094504 C0.428370733,0.0650646352 0.646735898,-0.0100877718 0.883382798,0.00108758613 C2.60006894,0.0986657114 8.31186101,0.51950419 9.74025826,1.8187708 C9.92526317,1.98512613 10.018625,2.22513382 9.99690569,2.46836661 C9.98142103,2.6386551 9.96175844,2.81614979 9.93827755,3 L16.1815561,3 C18.5572052,0.949271808 20.559379,0.349783365 23.8158402,1.79322831 C25.3165501,2.45939086 26.8186523,3.0590328 28.0090005,3.51436171 C27.9913474,3.40133784 27.999534,3.28499221 28.0346934,3.1728284 C28.1034128,2.95360305 28.2701761,2.77277777 28.4935744,2.67520262 C28.6499452,2.60800251 32.393177,1 39.1406454,1 C39.6149943,1 40,1.35677556 40,1.79995125 L40,16.1999737 C40,16.6415744 39.6149943,17 39.1406454,17 L33.9846788,17 C33.5979813,17 33.2593793,16.7599996 33.15626,16.4128241 C33.107471,16.2482369 33.0430386,16.0447208 32.9651626,15.8084684 Z M32.4476916,14.3092785 C31.5512113,11.7914327 30.1000757,8.0069515 29.0582506,5.66958099 C27.8625523,5.23562339 25.4971984,4.34894512 23.1351962,3.30154245 C20.9438378,2.3304733 19.6108804,2.45351205 17.9584966,3.68489404 C17.9854213,3.78397539 18,3.8899203 18,4 C18,4.55198275 17.6334311,5 17.1817973,5 L16.4490275,5 C16.3320162,5.11293542 16.2125989,5.22996716 16.0905122,5.35109841 C14.9538954,6.47821495 14.0768204,8.16475135 14.2515645,8.88916604 C14.2765279,8.99475344 14.3231003,9.10536882 14.5827202,9.19115375 C15.3965284,9.46173598 16.6147445,9.61025453 17.7913809,7.86601248 C17.929538,7.66141271 18.1524927,7.52937044 18.4004889,7.50461735 C18.9613863,7.44853613 19.1011816,7.38580251 19.517213,7.20100521 C19.7900947,7.08056595 20.1363065,6.92547237 20.6971258,6.72412144 C20.9983254,6.61683226 21.3394665,6.68946711 21.5674919,6.91719555 C22.4777995,7.81983249 23.9057086,8.96504973 25.4168551,10.1763268 C27.5927299,11.9217412 29.829839,13.7161493 31.0324513,15.1944868 L32.4476916,14.3092785 Z M30.8675824,5.563352 C32.2130498,8.65589227 33.9578833,13.3694416 34.6274828,15.4000225 L38.2813713,15.4000225 L38.2813713,2.60965252 C34.1926898,2.69920266 31.3757597,3.41125377 30.0644524,3.82562942 C30.1485334,3.99240497 30.2367892,4.17401046 30.328567,4.36854076 C30.3767935,4.38544706 30.403344,4.39464453 30.4061895,4.39562909 C30.8405534,4.54577206 31.0685789,5.01608079 30.9187982,5.44678458 C30.9044829,5.48750385 30.8873116,5.52640893 30.8675824,5.563352 Z M7.49802608,12.756328 C7.80189903,13.0342099 8.2846574,13.5308047 8.80610109,14.0706842 C9.48510678,14.773672 10.2539809,15.5690971 10.6983302,15.9403935 C13.8619787,18.5675474 17.5249741,21.27716 18.1091187,21.6583576 C18.5361592,21.9387778 19.3539236,22.2584218 19.922736,22.3334619 C18.617247,21.3166062 16.8231922,19.7310507 16.230605,19.2024415 C15.9083135,18.9139007 15.9255088,18.4626122 16.2717452,18.1926826 C16.6162942,17.9227531 17.1597141,17.9384856 17.483693,18.2269594 C17.9461501,18.639325 20.2118763,20.6488437 21.4892246,21.5902992 C21.5292875,21.5736128 21.5709678,21.5599086 21.6139863,21.549444 C21.8818753,21.4850859 22.1681748,21.5560964 22.3745133,21.7408937 C22.705669,22.0412569 23.075128,21.983474 23.3297551,21.8877878 C23.5886129,21.788199 23.8178175,21.6123366 23.9900489,21.3950931 C22.5433809,20.2828761 20.2523951,18.2216118 20.2257986,18.1982342 C19.9052506,17.9081862 19.9291972,17.4552665 20.2772277,17.1881223 C20.6269457,16.9223844 21.1669515,16.9395288 21.4892674,17.2309832 C21.9306701,17.6312525 23.5171827,19.0383481 24.707353,19.9951057 C24.7503689,19.9691934 24.7961272,19.9470054 24.8442561,19.9290447 C25.1404629,19.8201311 25.4749731,19.8828647 25.7079912,20.0973658 C25.916046,20.2888154 26.4718726,20.3349954 27.0044521,20.067662 C27.1195071,20.0106193 27.3172307,19.8944496 27.462925,19.7145276 C26.3611295,18.7735279 22.6761016,14.9323037 22.2436295,14.4813673 C21.9094136,14.1331208 21.9199116,13.5785182 22.2698747,13.2442967 C22.6181154,12.9083528 23.1727088,12.9205734 23.5069248,13.2705423 C25.0689871,14.898901 27.5004509,17.3909396 28.4223204,18.2265756 C28.6027395,18.2168272 28.7857933,18.265357 28.9416154,18.3712244 C29.1862572,18.5412472 29.6372374,18.4521361 29.9667549,18.1715753 C30.1914259,17.9818273 30.5226596,17.5675998 30.2147511,16.9322963 C29.590665,15.6451355 26.8163682,13.4206062 24.3699506,11.4585369 C23.0169319,10.3743515 21.7321727,9.34299849 20.7802073,8.45683783 C20.5372038,8.55422577 20.3541125,8.63506008 20.1977009,8.70436874 C19.7650532,8.89744285 19.4771155,9.01625769 18.9478905,9.097092 C17.6664077,10.7835511 15.9456462,11.3743764 14.060048,10.7571735 C13.3078683,10.5113444 12.8018904,9.98325267 12.6305008,9.27036364 C12.3123238,7.93603777 13.2287351,6.21534669 14.1901233,5 L9.81820274,5 C9.7429342,5 9.67002835,4.98755632 9.60078823,4.96426156 C9.07269407,7.52977156 8.17138583,10.6011278 7.49802608,12.756328 Z M5.22513854,14.3999738 C5.84515498,12.5214636 7.84356735,6.29566419 8.28521968,2.79155196 C7.23519184,2.30193628 4.34511521,1.86032213 1.66668482,1.65714063 L1.66668482,14.3999738 L5.22513854,14.3999738 Z"
                                              id="Combined-Shape"></path>
                                    </g>
                                </g>
                            </g>
                        </g>
                    </g>
                </g>
            </g>
        </g>
    </g>
</svg>