<svg width="32px" height="35px" viewBox="0 0 32 35" version="1.1" xmlns="http://www.w3.org/2000/svg">
    <g id="Welcome" stroke="none" stroke-width="1" fill="none" fill-rule="evenodd">
        <g id="SEO" transform="translate(-501.000000, -1073.000000)">
            <g id="Group-20" transform="translate(206.000000, 915.000000)">
                <g id="Group-14">
                    <g id="Group-19" transform="translate(0.000000, 158.000000)">
                        <g id="Group-18-Copy">
                            <g id="Group-9" transform="translate(62.000000, 0.000000)">
                                <rect id="Rectangle" fill="#EAE9FF" transform="translate(247.635701, 21.530546) rotate(-22.000000) translate(-247.635701, -21.530546) " x="235.135701" y="10.030546" width="25" height="23" rx="8"></rect>
                                <g id="growth" transform="translate(233.000000, 0.000000)" fill="#6F87FF" fill-rule="nonzero">
                                    <path d="M31.8159218,9.41699219 L25.1213408,0.3793945 C24.9443389,0.140869125 24.665042,0 24.3679228,0 C24.0708036,0 23.7912626,0.140869125 23.6147489,0.3793945 L16.920168,9.41699219 C16.7094746,9.701416 16.6770039,10.0805664 16.8364277,10.3967285 C16.9956075,10.7128906 17.3195821,10.9125976 17.6735861,10.9125976 L20.0832543,10.9125976 L20.0832543,15.4438476 C19.6113304,15.2006836 19.0769066,15.0625 18.5102561,15.0625 L16.8366719,15.0625 C14.9355486,15.0625 13.3889176,16.6091309 13.3889176,18.5102539 L13.3889176,20.4645996 C12.9169937,20.2214356 12.3823257,20.0832519 11.8159194,20.0832519 L10.1423352,20.0832519 C8.24121191,20.0832519 6.69458085,21.6301269 6.69458085,23.53125 L6.69458085,25.4853516 C6.22241286,25.2424316 5.68798892,25.1040039 5.12158261,25.1040039 L3.44775428,25.1040039 C1.54663106,25.1040039 0,26.6508789 0,28.5520019 L0,31.0625 C0,31.5803222 0.4196778,32 0.937500111,32 L27.7150912,32 C28.2329135,32 28.6525913,31.5803222 28.6525913,31.0625 L28.6525913,10.9125976 L31.0625037,10.9125976 C31.4165076,10.9125976 31.7404823,10.7128906 31.899662,10.3967285 C32.0590858,10.0805664 32.0266151,9.701416 31.8159218,9.41699219 Z M1.87500022,28.5520019 C1.87500022,27.6848144 2.58056668,26.9790039 3.44775428,26.9790039 L5.12133848,26.9790039 C5.98877021,26.9790039 6.69433673,27.6848144 6.69433673,28.5520019 L6.69433673,30.125 L1.87500022,30.125 L1.87500022,28.5520019 Z M8.56933695,28.5520019 L8.56933695,23.53125 C8.56933695,22.6638184 9.27490347,21.9582519 10.1423352,21.9582519 L11.8159194,21.9582519 C12.683107,21.9582519 13.3886735,22.6638184 13.3886735,23.53125 L13.3886735,30.125 L8.56933695,30.125 L8.56933695,28.5520019 Z M15.2639178,23.53125 L15.2639178,18.5102539 C15.2639178,17.6430664 15.9694843,16.9375 16.8366719,16.9375 L18.5102561,16.9375 C19.3774437,16.9375 20.0832543,17.6430664 20.0832543,18.5102539 L20.0832543,30.125 L15.2639178,30.125 L15.2639178,23.53125 Z M27.7150912,9.03759762 C27.1972688,9.03759762 26.777591,9.45727537 26.777591,9.97509762 L26.777591,30.125 L21.9582545,30.125 L21.9582545,9.97509762 C21.9582545,9.45727537 21.5383326,9.03759762 21.0207544,9.03759762 L19.5346703,9.03759762 L24.3679228,2.51245119 L29.2014195,9.03759762 L27.7150912,9.03759762 Z"
                                          id="Shape"></path>
                                </g>
                            </g>
                        </g>
                    </g>
                </g>
            </g>
        </g>
    </g>
</svg>