<svg width="36px" height="35px" viewBox="0 0 36 35" version="1.1" xmlns="http://www.w3.org/2000/svg">
    <g id="Welcome" stroke="none" stroke-width="1" fill="none" fill-rule="evenodd">
        <g id="SEO" transform="translate(-495.000000, -1154.000000)">
            <g id="Group-20" transform="translate(206.000000, 915.000000)">
                <g id="Group-14">
                    <g id="Group-19" transform="translate(0.000000, 158.000000)">
                        <g id="Group-18-Copy">
                            <g id="Group-9-Copy" transform="translate(134.000000, 81.000000)">
                                <rect id="Rectangle" fill="#EAE9FF" transform="translate(176.635701, 16.530546) rotate(-22.000000) translate(-176.635701, -16.530546) " x="164.135701" y="5.03054603" width="25" height="23" rx="8"></rect>
                                <g id="customer" transform="translate(155.000000, 0.000000)" fill="#6F87FF" fill-rule="nonzero">
                                    <path d="M33.905149,16.2048616 C35.1875023,17.3271399 35.3385764,19.3044048 34.3836645,20.6528198 L29.4613805,27.6096561 C28.1134023,29.5151165 25.9663715,30.6526108 23.7195361,30.6526108 L11.602908,30.6526108 C11.64324,31.8827769 11.0212382,33.0913509 9.90363107,33.6832479 L7.63628783,34.8852284 C7.12974498,35.1532449 6.51389551,34.9359479 6.26028229,34.3990454 L0.108281737,21.3576764 C-0.144579533,20.8207739 0.0604301856,20.1680135 0.566973039,19.8992 L2.83431627,18.697944 C3.7277731,18.2248032 4.76539982,18.2371208 5.65400313,18.7356214 L7.63081908,16.8910244 C10.3254083,14.3776541 14.3849972,14.3696839 17.0877896,16.8671138 C17.7966761,17.4459686 17.9333265,17.6111693 18.3414319,17.6111693 L23.7196045,17.6111693 C25.098276,17.6111693 26.2678363,18.5776663 26.6574847,19.9049965 L29.6712437,16.4758488 C30.8852376,15.0949008 32.7349052,15.1825731 33.905149,16.2048616 Z M8.98624846,31.739313 C9.49279132,31.4704995 9.69786939,30.8184637 9.44493976,30.2816336 L5.12695247,21.1280619 C4.87333924,20.5904348 4.25817337,20.3737899 3.75163052,20.6418789 L2.40091793,21.3576764 L7.63621947,32.4551106 L8.98624846,31.739313 Z M32.7431083,19.3486032 C33.0555789,18.9080678 33.0117606,18.2639297 32.6057743,17.8872285 C32.2174932,17.5271198 31.5845539,17.4879933 31.1716633,17.9575113 L26.6574847,23.0936612 C26.0778657,23.7536672 25.2575533,24.1318901 24.4065477,24.1318901 L18.4828674,24.1318901 C17.9169203,24.1318901 17.4575454,23.6449825 17.4575454,23.0451154 C17.4575454,22.4452482 17.9168519,21.9583406 18.4828674,21.9583406 L23.7195361,21.9583406 C24.2847997,21.9583406 24.7448581,21.4707085 24.7448581,20.8715659 C24.7448581,20.2724233 24.284868,19.7847912 23.7195361,19.7847912 L18.3413635,19.7847912 C17.6044496,19.7847912 16.8969986,19.5840868 15.7595672,18.5226718 C13.828552,16.7222008 10.9165801,16.7222008 8.98556487,18.5226718 L7.04497937,20.3332143 L10.8872539,28.4789889 L23.7196045,28.4789889 C25.3245455,28.4789889 26.8577776,27.6668242 27.8208926,26.3054395 L32.7431083,19.3486032 Z M22.9104421,6.75964092 C24.7622673,7.79775175 25.9999337,9.7775524 26,12.0188785 L26,13.0094393 C26,13.5561992 25.5544481,14 25.0055307,14 L14.9944693,14 C14.4455519,14 14,13.5561992 14,13.0094393 L14,12.0188785 C14,9.73264398 15.3074165,7.78322256 17.1259579,6.76756594 C16.39272,6.02327501 15.9889386,5.05450806 15.9889386,4.02828475 C15.9889386,1.84441499 17.8406312,0 20.033118,0 C22.2421805,0 24.0109951,1.84771708 24.0109951,4.02828475 C24.0109951,5.08693458 23.5913011,6.04843693 22.9104421,6.75964092 Z M20.033118,1.98118753 C18.9385322,1.98118753 17.9778771,2.93806696 17.9778771,4.0283508 C17.9778771,5.10212419 18.9193045,6.00947228 20.033118,6.00947228 C21.129693,6.00947228 22.0220566,5.12061589 22.0220566,4.0283508 C22.0220566,2.91891484 21.1111283,1.98118753 20.033118,1.98118753 Z M15.9889386,12.0188785 L24.0109951,12.0188785 C24.0109951,9.79736493 22.2262679,7.99059376 20.033118,7.99059376 C17.8406312,7.99059376 15.9889386,9.83500875 15.9889386,12.0188785 Z"
                                          id="Combined-Shape"></path>
                                </g>
                            </g>
                        </g>
                    </g>
                </g>
            </g>
        </g>
    </g>
</svg>