<svg width="38px" height="37px" viewBox="0 0 38 37" version="1.1" xmlns="http://www.w3.org/2000/svg">
    <g id="Welcome" stroke="none" stroke-width="1" fill="none" fill-rule="evenodd">
        <g id="SEO" transform="translate(-926.000000, -1312.000000)">
            <g id="Group-20" transform="translate(206.000000, 915.000000)">
                <g id="Group-14">
                    <g id="Group-19" transform="translate(0.000000, 158.000000)">
                        <g id="Group-18" transform="translate(427.000000, 2.000000)">
                            <g id="Group-9-Copy-3" transform="translate(0.000000, 237.000000)">
                                <g id="trophy" transform="translate(293.000000, 0.000000)">
                                    <rect id="Rectangle" fill="#EAE9FF" transform="translate(16.635701, 19.530546) rotate(-22.000000) translate(-16.635701, -19.530546) " x="4.13570055" y="8.03054603" width="25" height="23" rx="8"></rect>
                                    <g id="promotion" fill="#6F87FF">
                                        <path d="M10.3906619,23.7909286 C10.1067892,23.9557397 9.74336718,23.8578321 9.57963018,23.5725014 C9.41566122,23.2874038 9.51306852,22.9221152 9.79694121,22.7573041 C10.0808139,22.5927261 10.4440039,22.6906337 10.6079729,22.9757313 C10.7717099,23.261062 10.6745346,23.6263505 10.3906619,23.7909286 Z M7.28953767,28.6913385 C4.8859917,29.6731647 2.05525407,28.739764 0.712567138,26.3669166 C-0.757090553,23.7719175 0.121618774,20.4517471 2.65836551,18.9581244 L9.10806857,15.1591473 L19.0289998,2.26526425 C19.4508516,1.59184777 20.1628376,1.19354839 20.9472087,1.19354839 C20.9569986,1.19354839 20.9664917,1.19354839 20.9762815,1.19385103 C21.7879455,1.20414148 22.5150612,1.63845723 22.9208932,2.35575934 L25.7228547,7.30726228 L28.6446672,7.12839073 C28.9309448,7.11113918 29.2041695,7.26004746 29.34805,7.51428111 L30.8669534,10.198262 C31.0108339,10.4524957 31.0013408,10.7675638 30.8429239,11.0127177 L29.2299789,13.5051154 L31.7539693,17.9650999 C32.6065725,19.470829 31.5952558,21.3542766 29.9072556,21.4477982 C16.2528478,24.1805073 15.4785631,24.3354687 15.3607888,24.3587735 L16.3483726,26.1039059 C16.5581119,26.4743606 16.4335143,26.9480221 16.0704015,27.1623048 L14.0973103,28.3245157 L16.3756654,32.3510924 C17.2161055,33.8344247 16.7168254,35.7281627 15.2640773,36.584688 C13.7959029,37.4505957 11.9393995,36.9100465 11.114089,35.450019 L7.28953767,28.6913385 Z M15.060568,33.1262024 C14.9899627,33.0018095 15.6577462,34.1818774 11.2630128,26.4150394 L8.63222453,27.9646541 L12.4294831,34.6755143 C12.844215,35.4088574 13.77395,35.6733815 14.5040323,35.2426975 C15.2317413,34.8138296 15.4800464,33.8665066 15.060568,33.1262024 Z M13.3378586,26.9822226 L14.6532526,26.2074153 L13.8938009,24.8654248 L12.5784069,25.6402321 L13.3378586,26.9822226 Z M28.2673146,8.70373135 L26.571898,8.80754344 L28.3809357,12.0045316 L29.3169006,10.5584263 L28.2673146,8.70373135 Z M20.2993015,3.11482838 C20.260439,3.1799001 20.2352227,3.20471811 20.0391299,3.46197831 L29.383056,19.9735457 C29.6482707,19.9230017 29.6960331,19.9039342 29.7995677,19.9015129 C30.3765731,19.8869853 30.7263362,19.2480719 30.4385752,18.7399072 L21.6052025,3.13026393 C21.4102963,2.78583791 21.0872326,2.74467627 20.9575919,2.743163 C20.8264678,2.73953109 20.5031075,2.77463954 20.2993015,3.11482838 Z M19.0284066,4.7755189 L10.5293705,15.8213655 L14.5580245,22.9402103 L27.8074903,20.2889166 L19.0284066,4.7755189 Z M2.02796127,25.5921093 C3.07487731,27.4419618 5.40158818,28.0781512 7.21507578,27.0103699 L13.1343492,23.5234344 L9.33709065,16.813482 L3.41781722,20.3001149 C2.24630364,20.9901777 1.51829801,22.2770842 1.51829801,23.6590257 C1.51829801,24.3351661 1.69451451,25.0034374 2.02796127,25.5921093 Z M8.21394803,24.2363447 C8.41687943,24.5859265 8.29632613,25.0325351 7.94499939,25.2342938 L6.672301,25.9648486 C5.61487638,26.5715514 4.26582761,26.2042765 3.66105197,25.1626652 C3.45812057,24.8133687 3.57867387,24.3664747 3.93000061,24.164716 C4.28132736,23.9629573 4.73081889,24.082814 4.93375029,24.4321105 C5.1363946,24.7808362 5.58674732,24.9009782 5.93749996,24.6995049 L7.21019835,23.9689501 C7.5615251,23.7671915 8.01101663,23.8870482 8.21394803,24.2363447 Z M36.8346244,3.66944252 C37.2128865,3.48081108 37.6903848,3.60254416 37.9008026,3.94142274 C38.1115267,4.28002709 37.9755362,4.70746376 37.5969679,4.8960952 L33.2281182,7.07248531 C32.8489373,7.26139091 32.3717452,7.13883529 32.1616337,6.80050509 C31.9509096,6.46190067 32.0872065,6.03446401 32.4654684,5.84583257 L36.8346244,3.66944252 Z M36.2117454,11.5829485 C36.6439171,11.6950662 36.9004993,12.1263353 36.7847051,12.545932 C36.6695436,12.9624569 36.2275642,13.2152593 35.7928615,13.1019129 L32.6632547,12.2879077 C32.2310829,12.1754828 31.9745007,11.7445209 32.0902949,11.3249242 C32.2060891,10.9053276 32.6502831,10.6565184 33.0824549,10.7689433 L36.2117454,11.5829485 Z M28.1498838,0.603524365 C28.261701,0.169147565 28.6906391,-0.0884258593 29.1076623,0.0279591915 C29.5249911,0.144344242 29.7724553,0.590804692 29.6606382,1.02518157 L28.8504217,4.17075677 C28.7382989,4.60545162 28.3093608,4.86238902 27.8923376,4.74632202 C27.4750089,4.629619 27.2275446,4.18347644 27.3393619,3.74909964 L28.1498838,0.603524365 Z"
                                              id="Combined-Shape"></path>
                                    </g>
                                </g>
                            </g>
                        </g>
                    </g>
                </g>
            </g>
        </g>
    </g>
</svg>