<svg width="32px" height="33px" viewBox="0 0 32 33" version="1.1" xmlns="http://www.w3.org/2000/svg">
    <g id="Welcome" stroke="none" stroke-width="1" fill="none" fill-rule="evenodd">
        <g id="SEO" transform="translate(-927.000000, -1154.000000)">
            <g id="Group-20" transform="translate(206.000000, 915.000000)">
                <g id="Group-14">
                    <g id="Group-19" transform="translate(0.000000, 158.000000)">
                        <g id="Group-18" transform="translate(427.000000, 2.000000)">
                            <g id="Group-9-Copy" transform="translate(158.000000, 79.000000)">
                                <g id="keyword-research" transform="translate(136.000000, 0.000000)">
                                    <g id="trophy" transform="translate(0.000000, 4.000000)" fill="#EAE9FF">
                                        <rect id="Rectangle" transform="translate(16.635701, 15.530546) rotate(-22.000000) translate(-16.635701, -15.530546) " x="4.13570055" y="4.03054603" width="25" height="23" rx="8"></rect>
                                    </g>
                                    <path d="M22.4274405,3.84345328 C17.3040322,-1.28115109 8.96747496,-1.28115109 3.84336954,3.84345328 C-1.28112318,8.96658586 -1.28112318,17.303712 3.84336954,22.4272319 C8.79109686,27.3757642 16.7350056,27.544245 21.8895531,22.9355404 L22.9306254,23.9771002 C22.6710545,24.64227 22.8069981,25.4239434 23.3427166,25.9593637 L28.840725,31.4577243 C29.5637435,32.1807586 30.735802,32.1807586 31.4577361,31.4577243 C32.1807546,30.7361618 32.1807546,29.5640778 31.4577361,28.8410435 L25.9597277,23.3436899 C25.4240092,22.8078823 24.6409586,22.6719357 23.9771975,22.9315898 L22.9356604,21.8893328 C27.5461236,16.734673 27.3761748,8.79051376 22.4274405,3.84345328 Z M5.41342128,20.8578431 C1.15548186,16.5998109 1.15548186,9.6711841 5.41342128,5.41322937 C9.67136071,1.15480987 16.6001464,1.15519718 20.8580859,5.41322937 C25.1160253,9.67126156 25.1160253,16.5998884 20.8580859,20.8578431 C16.6001464,25.1157979 9.67136071,25.1158753 5.41342128,20.8578431 Z"
                                          id="Shape" fill="#6F87FF" fill-rule="nonzero"></path>
                                    <path d="M11.1417548,17.4482856 L9.9988447,16.3123411 L13.1555646,13.1734842 C14.643073,14.0436203 16.5904345,13.8495956 17.8664743,12.5816742 C19.3778419,11.0785433 19.3778419,8.63063362 17.8664743,7.12757999 C16.3539409,5.62414 13.8921688,5.62414 12.3804126,7.12757999 C11.1050722,8.39550139 10.9103128,10.3317299 11.7847874,11.810289 L6.1896107,17.3725611 C5.93679643,17.6235336 5.93679643,18.0303595 6.1896107,18.2813321 L6.64658821,18.7349835 C6.89901389,18.9867288 7.3078067,18.9867288 7.56023237,18.7349835 L8.62697955,17.6751499 L9.77020051,18.8114807 C10.0227039,19.063226 10.4321962,19.0624533 10.6842333,18.8114807 L11.1415994,18.3574429 C11.3941805,18.106084 11.3941805,17.6996445 11.1417548,17.4482856 Z M13.2944453,8.036351 C14.3028268,7.03416071 15.9433606,7.03416071 16.9509649,8.036351 C17.9593464,9.03923673 17.9593464,10.6696311 16.9509649,11.6722078 C15.942972,12.6743981 14.3028268,12.6750935 13.2944453,11.6722078 C12.2857529,10.6700175 12.2857529,9.03923673 13.2944453,8.036351 Z"
                                          id="Shape" fill="#6F87FF" fill-rule="nonzero"></path>
                                </g>
                            </g>
                        </g>
                    </g>
                </g>
            </g>
        </g>
    </g>
</svg>