<svg width="32px" height="36px" viewBox="0 0 32 36" version="1.1" xmlns="http://www.w3.org/2000/svg">
    <g id="Welcome" stroke="none" stroke-width="1" fill="none" fill-rule="evenodd">
        <g id="SEO" transform="translate(-501.000000, -1236.000000)">
            <g id="Group-20" transform="translate(206.000000, 915.000000)">
                <g id="Group-14">
                    <g id="Group-19" transform="translate(0.000000, 158.000000)">
                        <g id="Group-18-Copy">
                            <g id="Group-9-Copy-2" transform="translate(60.000000, 163.000000)">
                                <g id="trophy" transform="translate(234.000000, 0.000000)">
                                    <rect id="Rectangle" fill="#EAE9FF" transform="translate(16.635701, 19.530546) rotate(-22.000000) translate(-16.635701, -19.530546) " x="4.13570055" y="8.03054603" width="25" height="23" rx="8"></rect>
                                    <g id="stars" transform="translate(1.000000, 0.000000)" fill="#6F87FF">
                                        <path d="M10.6421377,5.32541716 L7.70818888,3.57060001 L6.10292669,0.361239618 C5.86261237,-0.120413206 5.13745454,-0.120413206 4.89714022,0.361239618 L3.29181112,3.57060001 L0.357862278,5.32541716 C0.137016628,5.45718941 0,5.71012482 0,5.98508325 C0,6.26004167 0.136949726,6.51297709 0.357862278,6.6448225 L3.29181112,8.40000549 L4.89707331,11.609 C5.01723047,11.8502289 5.24891435,12 5.5,12 C5.75108565,12 5.98270262,11.8502289 6.10292669,11.609 L7.70818888,8.40000549 L10.6421377,6.6448225 C10.8629834,6.51305025 11,6.26011484 11,5.98508325 C10.9999331,5.71019799 10.8629834,5.45718941 10.6421377,5.32541716 Z M6.87163814,7.18632524 C6.75616417,7.25532093 6.66149692,7.35921688 6.59840772,7.48513584 L5.5000669,9.68121809 L4.40165919,7.48513584 C4.33856999,7.35921688 4.24390274,7.25532093 4.12842876,7.18632524 L2.1202788,5.98515642 L4.12836186,4.78428025 C4.24383583,4.71528456 4.33850308,4.61138862 4.40159228,4.48546966 L5.4999331,2.2893874 L6.59827391,4.48546966 C6.66136311,4.61138862 6.75603036,4.71528456 6.87150434,4.78428025 L8.87958739,5.98515642 L6.87163814,7.18632524 Z"
                                              id="Shape" fill-rule="nonzero"></path>
                                        <path d="M19.6420708,24.3254172 L16.708122,22.5706 L15.1028598,19.3612396 C14.8624786,18.8795868 14.1373876,18.8795868 13.8970733,19.3612396 L12.2918111,22.5706 L9.35786228,24.3254172 C9.13701663,24.4571162 9,24.7100517 9,24.9850832 C9,25.2600417 9.13694973,25.5129771 9.35786228,25.6448225 L12.2918111,27.4000055 L13.8970733,30.609 C14.0172305,30.8502289 14.2488474,31 14.5,31 C14.7510856,31 14.9827026,30.8502289 15.1029267,30.609 L16.7081889,27.4000055 L19.6421377,25.6448225 C19.8629834,25.5130503 20,25.2600417 20,24.9850832 C19.9999331,24.7100517 19.8629165,24.4571162 19.6420708,24.3254172 Z M15.8715712,26.1863252 C15.7560973,26.2552478 15.66143,26.3592169 15.5983408,26.4851358 L14.5,28.6812181 L13.4016592,26.4851358 C13.33857,26.3592169 13.2439027,26.2552478 13.1284288,26.1863252 L11.1203457,24.9851564 L13.1284288,23.7842803 C13.2439027,23.7152846 13.33857,23.6112423 13.4016592,23.4854697 L14.5,21.2893874 L15.5983408,23.4854697 C15.66143,23.6113155 15.7560973,23.7152846 15.8715712,23.7842803 L17.8796543,24.9851564 L15.8715712,26.1863252 Z"
                                              id="Shape" fill-rule="nonzero"></path>
                                        <path d="M31.6478728,30.815436 L29.6736571,29.5963121 L28.5930545,27.3673306 C28.3565699,26.8775565 27.6432327,26.8775565 27.4068138,27.3673306 L26.3262771,29.5963121 L24.3520613,30.815436 C24.1347298,30.9497469 24,31.2065571 24,31.4853562 C24,31.7645267 24.1347298,32.0213369 24.3520613,32.1552021 L26.3262771,33.3740289 L27.4068138,35.6030103 C27.5250232,35.8479345 27.7529515,36 27.9999671,36 C28.2469826,36 28.4748451,35.8479345 28.5931204,35.6030103 L29.6737229,33.3740289 L31.6479387,32.1552021 C31.8652702,32.0214112 32,31.764601 32,31.4853562 C31.9999342,31.2065571 31.8652044,30.9497469 31.6478728,30.815436 Z M28.8506668,32.1417561 C28.7370647,32.2118087 28.643932,32.3172963 28.5818655,32.4451442 L27.9999671,33.6457707 L27.4180687,32.4451442 C27.3560022,32.3172963 27.2628695,32.2118087 27.1492674,32.1417561 L26.0858433,31.4853562 L27.1492674,30.8285848 C27.2628695,30.7585322 27.3560022,30.6530446 27.4180687,30.5251224 L27.9999671,29.3244216 L28.5818655,30.5251224 C28.643932,30.6529703 28.7370647,30.7584579 28.8506668,30.8285848 L29.914025,31.4853562 L28.8506668,32.1417561 Z"
                                              id="Shape" fill-rule="nonzero"></path>
                                        <path d="M21,12.5661736 C21,12.2210126 20.7204618,11.9411736 20.3749924,11.9411736 L20.0087827,11.9411736 L20.2675806,11.649292 C20.5117204,11.4051552 20.5117204,10.9931515 20.2675806,10.7490147 C20.0234408,10.5048779 19.5932463,10.4965453 19.3491065,10.7406822 L19.0557009,10.9912052 L19.0557009,10.625 C19.0557009,10.2798389 18.7761626,10 18.4306932,10 C18.0852239,10 17.8056856,10.2798389 17.8056856,10.625 L17.8056856,10.9912052 L17.5815563,10.7324105 C17.3374165,10.4882736 16.9591641,10.4882736 16.7150243,10.7324105 C16.4708845,10.9765473 16.479582,11.4050944 16.7237218,11.6492312 L16.9910348,11.9411128 L16.6250076,11.9411128 C16.2795382,11.9411128 16,12.2209517 16,12.5661128 C16,12.9112738 16.2795382,13.1911128 16.6250076,13.1911128 L16.9915214,13.1911128 L16.7324194,13.4171249 C16.4882796,13.6612617 16.4882796,14.0402394 16.7324194,14.2843762 C16.8544893,14.4065054 17.0143905,14.4592375 17.1742917,14.4592375 C17.334193,14.4592375 17.4594864,14.3940979 17.5815563,14.2720295 L17.8056856,14.009038 L17.8056856,14.375 C17.8056856,14.7201611 18.0852239,15 18.4306932,15 C18.7761626,15 19.0557009,14.7201611 19.0557009,14.375 L19.0557009,14.009038 L19.3491065,14.2678936 C19.4711764,14.389962 19.6483511,14.4510267 19.8082523,14.4510267 C19.9681536,14.4510267 20.1367523,14.3900229 20.2588831,14.2678936 C20.5030229,14.0237568 20.5072804,13.6612617 20.2631406,13.4171249 L20.0084786,13.1911128 L20.3749924,13.1911128 C20.7204618,13.1911736 21,12.9113347 21,12.5661736 Z"
                                              id="Path"></path>
                                        <path d="M4.33333333,27.4038536 L3.5927728,27.4038536 L3.5927728,26.6666667 C3.5927728,26.2984949 3.29460231,26 2.92610614,26 C2.55760996,26 2.25943947,26.2984949 2.25943947,26.6666667 L2.25943947,27.4038536 L1.66666667,27.4038536 C1.29817049,27.4038536 1,27.7023485 1,28.0705203 C1,28.4386921 1.29817049,28.737187 1.66666667,28.737187 L2.25943947,28.737187 L2.25943947,29.3333333 C2.25943947,29.7015051 2.55760996,30 2.92610614,30 C3.29460231,30 3.5927728,29.7015051 3.5927728,29.3333333 L3.5927728,28.737187 L4.33333333,28.737187 C4.70182951,28.737187 5,28.4386921 5,28.0705203 C5,27.7023485 4.70182951,27.4038536 4.33333333,27.4038536 Z"
                                              id="Path"></path>
                                        <path d="M27.1312184,3.00001946 L27.7656286,2.36561536 C28.0781238,2.05312327 28.0781238,1.54686116 27.7656286,1.23436907 C27.4531335,0.921876977 26.9468665,0.921876977 26.6343714,1.23436907 L26.0000389,1.86877317 L25.3656286,1.23436907 C25.0531335,0.921876977 24.5468665,0.921876977 24.2343714,1.23436907 C23.9218762,1.54686116 23.9218762,2.05312327 24.2343714,2.36561536 L24.8687816,3.00001946 L24.2343714,3.63434571 C23.9218762,3.94683781 23.9218762,4.45309991 24.2343714,4.765592 C24.3906189,4.92183805 24.59529,5 24.8000389,5 C25.00471,5 25.2093811,4.92183805 25.3656286,4.765592 L26.0000389,4.1311879 L26.6343714,4.765592 C26.7906189,4.92183805 26.99529,5 27.2000389,5 C27.40471,5 27.6093811,4.92183805 27.7656286,4.765592 C28.0781238,4.45309991 28.0781238,3.94683781 27.7656286,3.63434571 L27.1312184,3.00001946 Z"
                                              id="Path"></path>
                                    </g>
                                </g>
                            </g>
                        </g>
                    </g>
                </g>
            </g>
        </g>
    </g>
</svg>