<svg width="49px" height="42px" viewBox="0 0 49 42" version="1.1" xmlns="http://www.w3.org/2000/svg">
    <defs>
        <linearGradient x1="160.367261%" y1="119.795789%" x2="-28.5982809%" y2="-6.8814747%" id="linearGradient-1">
            <stop stop-color="#FFFBE1" offset="0%"></stop>
            <stop stop-color="#F1C995" offset="100%"></stop>
        </linearGradient>
    </defs>
    <g id="Welcome" stroke="none" stroke-width="1" fill="none" fill-rule="evenodd">
        <g id="Design" transform="translate(-1380.000000, -3566.000000)" fill="url(#linearGradient-1)">
            <g id="Group-49" transform="translate(-19.000000, 3458.000000)">
                <g id="Group-48" transform="translate(623.000000, 108.000000)">
                    <g id="Group-47" transform="translate(434.000000, 0.000000)">
                        <g id="server" transform="translate(342.631436, 0.000000)">
                            <path d="M13.6693767,37 L15.7723577,37 L15.7723577,39 L13.6693767,39 L13.6693767,37 Z M16.8238482,37 L18.9268293,37 L18.9268293,39 L16.8238482,39 L16.8238482,37 Z M13.6693767,28 L15.7723577,28 L15.7723577,30 L13.6693767,30 L13.6693767,28 Z M16.8238482,28 L18.9268293,28 L18.9268293,30 L16.8238482,30 L16.8238482,28 Z M37.8887082,9.33464503 C43.6766115,9.33464503 48.3685637,13.8613244 48.3685637,19.4453501 C48.3685637,25.0293759 43.6766115,29.5560552 37.8887082,29.5560552 L37.8887082,31.8892949 C37.8887082,32.3188054 37.5277578,32.6670414 37.0825655,32.6670414 L35.47028,32.6670414 L35.47028,34.2225345 L37.0825655,34.2225345 C37.5277578,34.2225345 37.8887082,34.5707705 37.8887082,35.0002811 L37.8887082,41.2222535 C37.8887082,41.651764 37.5277578,42 37.0825655,42 L11.2859982,42 C10.8408059,42 10.4798555,41.651764 10.4798555,41.2222535 L10.4798555,35.0002811 C10.4798555,34.5707705 10.8408059,34.2225345 11.2859982,34.2225345 L12.8982836,34.2225345 L12.8982836,32.6670414 L11.2859982,32.6670414 C10.8408059,32.6670414 10.4798555,32.3188054 10.4798555,31.8892949 L10.4798555,29.5560552 L8.86757001,29.5560552 C3.97015217,29.5560552 0,25.7257507 0,21.0008432 C0,16.2759357 3.97015217,12.4456312 8.86757001,12.4456312 C9.14327082,12.4456312 9.41977778,12.4580752 9.69467245,12.4829631 C10.0163234,6.9255751 13.9124112,2.1581832 19.4387211,0.560011269 C26.6857427,-1.53582124 34.3217282,2.43311661 36.4940813,9.42486363 C36.9564042,9.36497714 37.4222539,9.33483947 37.8887082,9.33464503 Z M36.2764228,35.7780276 L12.0921409,35.7780276 L12.0921409,40.4445069 L36.2764228,40.4445069 L36.2764228,35.7780276 Z M14.5105691,34.2225345 L33.8579946,34.2225345 L33.8579946,32.6670414 L14.5105691,32.6670414 L14.5105691,34.2225345 Z M36.2764228,31.1115483 L36.2764228,26.4450691 L12.0921409,26.4450691 L12.0921409,31.1115483 L36.2764228,31.1115483 Z M39.701824,27.8193472 C44.4954509,26.8520249 47.5686686,22.3187348 46.5660285,17.6938649 C45.5633885,13.0689951 40.8645841,10.1040308 36.0708564,11.0713531 C35.6442053,11.1569052 35.2244065,10.8999572 35.1228325,10.4911541 C33.8166798,5.24739249 28.9536238,1.55202699 23.3636285,1.55562407 C16.6888675,1.55990167 11.2815644,6.78373357 11.2859982,13.2233778 C11.2868043,13.2389327 11.2940596,13.3540392 11.2940596,13.3695941 C11.2976873,13.6048624 11.1906718,13.8290479 11.0030421,13.9793474 C10.814707,14.1283831 10.567322,14.1885612 10.3283006,14.1434519 C9.84753726,14.0491502 9.35820863,14.0015132 8.86757001,14.0011243 C4.86053681,14.0011243 1.61228546,17.1349568 1.61228546,21.0008432 C1.61228546,24.8666324 4.86053681,28.0005622 8.86757001,28.0005622 L10.4798555,28.0005622 L10.4798555,25.6673225 C10.4798555,25.237812 10.8408059,24.889576 11.2859982,24.889576 L16.1228546,24.889576 L16.1228546,20.2230967 L12.7499534,20.2230967 C12.5064983,20.8874867 11.9647704,21.4102296 11.2760222,21.645109 C10.0168272,22.0747168 8.6350986,21.4379368 8.18980551,20.2230967 C7.74451242,19.0082566 8.40454178,17.675199 9.66373672,17.2455912 C10.9229317,16.8159835 12.3047611,17.4526663 12.7499534,18.6676036 L16.9289973,18.6676036 C17.3741896,18.6676036 17.73514,19.0158396 17.73514,19.4453501 L17.73514,24.889576 L21.7658537,24.889576 L21.7658537,9.33464503 C21.7658537,8.9051345 22.1268041,8.55689848 22.5719964,8.55689848 L26.7510403,8.55689848 C26.9944954,7.89250849 27.5362233,7.3697656 28.2249715,7.13488614 C29.4841664,6.70527839 30.8659958,7.34196116 31.3111882,8.55689848 C31.7564813,9.77173859 31.0965527,11.1048934 29.837257,11.5344039 C28.578062,11.9640117 27.1962326,11.3273289 26.7510403,10.1123916 L23.3781391,10.1123916 L23.3781391,24.889576 L27.4088528,24.889576 L27.4088528,17.1121105 C27.4088528,16.6826 27.7698032,16.334364 28.2149955,16.334364 L36.424753,16.334364 C36.6682081,15.669974 37.209936,15.1472311 37.8986842,14.9123516 C39.1578792,14.4827439 40.5397086,15.1194266 40.9849009,16.334364 C41.430194,17.5492041 40.7702654,18.8823589 39.5109697,19.3118694 C38.2517748,19.7414771 36.8699453,19.1047944 36.424753,17.889857 L29.0211382,17.889857 L29.0211382,24.889576 L37.0825655,24.889576 C37.5277578,24.889576 37.8887082,25.237812 37.8887082,25.6673225 L37.8887082,28.0005622 C38.4979506,28.0003677 39.1054799,27.9397035 39.701824,27.8193472 Z M37.8887082,17.1121105 C37.8887082,17.541621 38.2496586,17.889857 38.6948509,17.889857 C39.1400433,17.889857 39.5009937,17.541621 39.5009937,17.1121105 C39.5009937,16.6826 39.1400433,16.334364 38.6948509,16.334364 C38.2496586,16.334364 37.8887082,16.6826 37.8887082,17.1121105 Z M28.2149955,9.33464503 C28.2149955,9.76415556 28.5759459,10.1123916 29.0211382,10.1123916 C29.4663305,10.1123916 29.8272809,9.76415556 29.8272809,9.33464503 C29.8272809,8.9051345 29.4663305,8.55689848 29.0211382,8.55689848 C28.5759459,8.55689848 28.2149955,8.9051345 28.2149955,9.33464503 Z M11.2859982,19.4453501 C11.2859982,19.0157424 10.9250478,18.6676036 10.4798555,18.6676036 C10.0346631,18.6676036 9.67371274,19.0158396 9.67371274,19.4453501 C9.67371274,19.8748607 10.0346631,20.2230967 10.4798555,20.2230967 C10.9250478,20.2230967 11.2859982,19.8748607 11.2859982,19.4453501 Z"
                                  id="Combined-Shape"></path>
                        </g>
                    </g>
                </g>
            </g>
        </g>
    </g>
</svg>