<svg width="57px" height="57px" viewBox="0 0 57 57" version="1.1" xmlns="http://www.w3.org/2000/svg">
    <g id="Welcome" stroke="none" stroke-width="1" fill="none" fill-rule="evenodd">
        <g id="Home" transform="translate(-846.000000, -2038.000000)">
            <g id="purple-banner" transform="translate(195.000000, 2005.000000)">
                <g id="Group-31" transform="translate(56.000000, 35.000000)">
                    <g id="Group-30-Copy" transform="translate(477.000000, 0.000000)">
                        <g id="Group-29" transform="translate(120.000000, 0.000000)">
                            <circle id="Oval" stroke="#FFFFFF" stroke-width="3" opacity="0.543015253" cx="26.5" cy="26.5" r="26.5"></circle>
                            <path d="M32.0984075,25.8226156 C32.0984075,25.8226156 31.9518889,24.0975434 31.7673134,21.5234827 C31.5751266,18.9607117 31.5028187,15.2396134 31.5028187,15.2396134 L29.8264168,15.1063945 L28.9777502,14 L28.5229715,14 L28.4792062,14.2235368 L26.7247878,14.435784 L24.9684666,14.2235368 L24.9247013,14 L24.4680198,14 L23.6136447,15.1063945 L21.9353399,15.2396134 C21.9353399,15.2396134 21.863032,18.9607117 21.6708452,21.5234827 C21.4862697,24.1020592 21.3435567,25.8226156 21.3435567,25.8226156 L10,39 L22.5975282,39 C22.6964759,38.0087608 23.134129,34.0799314 23.8781394,31.3545882 C24.6050242,28.6879516 26.2376608,27.9676662 26.7209821,27.8073519 C27.2043035,27.9676662 28.83694,28.6902095 29.5638249,31.3545882 C30.3116409,34.0799314 30.7454884,38.001987 30.8501446,39 L43,39 L32.0984075,25.8226156 Z"
                                  id="Path" fill="#FFFFFF"></path>
                        </g>
                    </g>
                </g>
            </g>
        </g>
    </g>
</svg>