<svg width="180" height="180" viewBox="0 0 180 180" fill="none" xmlns="http://www.w3.org/2000/svg">
    <path d="M122.782 1.53673C107.214 -3.38312 97.86 7.12087 81.6331 8.894C55.7279 11.7247 35.0849 -10.1437 14.2384 5.99683C-17.9696 30.9341 4.45167 86.04 81.633 82.2483C154.366 78.6752 156.073 12.058 122.782 1.53673Z"
          transform="translate(18.228 66.1089)" fill="url(#paint0_linear)"/>
    <ellipse cx="18.2441" cy="18.076" rx="18.2441" ry="18.076" transform="translate(8 62.3867)" fill="url(#paint1_linear)"/>
    <path d="M0 3.48411C0 1.55989 1.55989 0 3.48411 0H75.887C77.8112 0 79.3711 1.55989 79.3711 3.48411V75.975C79.3711 77.8992 77.8112 79.4591 75.887 79.4591H3.4841C1.55989 79.4591 0 77.8992 0 75.975V3.48411Z" transform="translate(26.8074 30)"
          fill="url(#paint2_linear)"/>
    <path d="M0 68.2471C5.6095 60.1026 14.9292 52.8414 29.8135 50.3933C63.4003 44.8693 70.323 21.3762 70.8962 0H75.7869C77.7663 0 79.3711 1.60829 79.3711 3.59213V75.8668C79.3711 77.8506 77.7663 79.4589 75.7869 79.4589H3.58413C1.60471 79.4589 0 77.8506 0 75.8668V68.2471Z"
          transform="translate(26.8074 30)" fill="url(#paint3_linear)"/>
    <path d="M3.65195 8.53113L1.93777 2.48178H1.88617C1.96644 3.51203 2.00657 4.31248 2.00657 4.88314V8.53113H0V0.132132H3.01558L4.76417 6.09531H4.81003L6.52421 0.132132H9.54553V8.53113H7.46443V4.84867C7.46443 4.65718 7.46634 4.44462 7.47017 4.21099C7.47781 3.97737 7.50456 3.40479 7.55043 2.49327H7.49883L5.80758 8.53113H3.65195Z"
          transform="translate(39.3254 86.6562)" fill="white"/>
    <path d="M11.4689 8.53113V0.132132H13.7449V8.53113H11.4689Z" transform="translate(39.3254 86.6562)" fill="white"/>
    <path d="M15.6797 8.53113V0.132132H17.9442V6.69852H21.1719V8.53113H15.6797Z" transform="translate(39.3254 86.6562)" fill="white"/>
    <path d="M22.6309 8.53113V0.132132H24.8954V6.69852H28.1231V8.53113H22.6309Z" transform="translate(39.3254 86.6562)" fill="white"/>
    <path d="M29.5821 8.53113V0.132132H31.8581V8.53113H29.5821Z" transform="translate(39.3254 86.6562)" fill="white"/>
    <path d="M41.6357 4.32014C41.6357 5.73338 41.2898 6.80767 40.598 7.54302C39.9062 8.27836 38.8934 8.64603 37.5595 8.64603C36.2447 8.64603 35.2357 8.27645 34.5325 7.53727C33.833 6.7981 33.4833 5.72189 33.4833 4.30865C33.4833 2.91074 33.8311 1.8441 34.5267 1.10876C35.2262 0.369587 36.2409 0 37.571 0C38.9049 0 39.9158 0.365757 40.6038 1.09727C41.2917 1.82878 41.6357 2.90308 41.6357 4.32014ZM35.8683 4.32014C35.8683 5.94403 36.432 6.75597 37.5595 6.75597C38.1328 6.75597 38.5571 6.55873 38.8323 6.16425C39.1113 5.76977 39.2508 5.15507 39.2508 4.32014C39.2508 3.48139 39.1093 2.86286 38.8265 2.46455C38.5475 2.06241 38.129 1.86134 37.571 1.86134C36.4358 1.86134 35.8683 2.68094 35.8683 4.32014Z"
          transform="translate(39.3254 86.6562)" fill="white"/>
    <path d="M51.2471 8.53113H48.2773L45.2159 2.61392H45.1643C45.2369 3.54459 45.2732 4.25504 45.2732 4.74526V8.53113H43.2667V0.132132H46.2249L49.2749 5.96892H49.3093C49.2558 5.12251 49.229 4.4427 49.229 3.92949V0.132132H51.2471V8.53113Z"
          transform="translate(39.3254 86.6562)" fill="white"/>
    <path d="M9.97542 10.72C12.7183 10.72 14.8984 11.4917 16.5157 13.0352C18.146 14.5787 18.9611 16.6928 18.9611 19.3777C18.9611 22.5554 17.9842 25.0003 16.0305 26.7124C14.0769 28.4245 11.2822 29.2806 7.64653 29.2806C4.48959 29.2806 1.94074 28.7682 0 27.7436V22.5489C1.02212 23.0937 2.21245 23.5412 3.57097 23.8914C4.92949 24.2286 6.21685 24.3972 7.43305 24.3972C11.0946 24.3972 12.9254 22.8927 12.9254 19.8835C12.9254 17.0171 11.0299 15.5839 7.23897 15.5839C6.55324 15.5839 5.79635 15.6552 4.9683 15.7979C4.14025 15.9276 3.46746 16.0703 2.94993 16.2259L0.562816 14.9418L1.63022 0.447477H17.0203V5.54482H6.88964L6.36564 11.1286L7.0449 10.9924C7.83413 10.8108 8.81098 10.72 9.97542 10.72Z"
          transform="translate(45.4661 43.9331)" fill="white"/>
    <path d="M42.0365 14.6695C42.0365 19.6371 41.2214 23.3142 39.5912 25.7007C37.9739 28.0873 35.4768 29.2806 32.0999 29.2806C28.8265 29.2806 26.3553 28.0484 24.6863 25.584C23.0302 23.1196 22.2021 19.4815 22.2021 14.6695C22.2021 9.64994 23.0107 5.95339 24.628 3.57982C26.2453 1.19327 28.7359 0 32.0999 0C35.3733 0 37.8445 1.24515 39.5135 3.73546C41.1955 6.22577 42.0365 9.87043 42.0365 14.6695ZM28.1602 14.6695C28.1602 18.1585 28.4578 20.6618 29.0529 22.1793C29.661 23.6839 30.6767 24.4361 32.0999 24.4361C33.4972 24.4361 34.5064 23.6709 35.1275 22.1404C35.7485 20.6099 36.059 18.1196 36.059 14.6695C36.059 11.1804 35.742 8.67716 35.108 7.15963C34.487 5.62913 33.4843 4.86388 32.0999 4.86388C30.6896 4.86388 29.6804 5.62913 29.0723 7.15963C28.4642 8.67716 28.1602 11.1804 28.1602 14.6695Z"
          transform="translate(45.4661 43.9331)" fill="white"/>
    <path d="M22.7941 13.4286C22.7581 15.8448 22.256 18.2523 21.296 20.6124C19.7177 24.3122 17.0645 26.7479 14.091 26.7294H8.76355C8.4785 26.5065 6.88711 26.1682 6.48076 26.0606L2.28562 21.007L0.352849 18.5035C-0.0553574 16.7819 -0.0207823 15.164 0.0295375 13.4286C0.0554077 11.5524 0.566306 9.85105 1.14181 8.00054C1.14181 7.77856 1.28421 7.54131 1.36427 7.33166L6.2583 1.31165C6.75271 1.08777 7.40614 0.49144 8.03795 0.419798C8.14631 0.403565 8.81559 0.00884007 8.92778 0.00457019H10.3255H14.6971C14.7806 -0.0015234 14.8652 -0.0015234 14.9487 0.00457019C15.8196 0.0628014 16.6271 0.280478 17.236 0.621202C19.6377 1.85446 21.5133 4.83279 22.3367 8.63741C22.6827 10.2274 22.8355 11.8279 22.7941 13.4286Z"
          transform="matrix(-0.965786 -0.259339 0.2583 -0.966065 112.855 98.6714)" fill="url(#paint4_linear)"/>
    <path d="M0.0414371 14.772C0.0195186 14.4438 0.00559961 14.1155 0 13.7872H6.82577V14.772H0.0414371Z" transform="matrix(0.965786 0.259339 -0.2583 0.966065 97.6489 67.291)" fill="url(#paint5_linear)"/>
    <path d="M0.271981 16.7417C0.217105 16.4137 0.170388 16.0854 0.131991 15.7568H6.82577V16.7417H0.271981Z" transform="matrix(0.965786 0.259339 -0.2583 0.966065 97.6489 67.291)" fill="url(#paint6_linear)"/>
    <path d="M0.702991 18.7113C0.614357 18.3894 0.533723 18.0602 0.461088 17.7249L7.48108 17.7265V18.7113H0.702991Z" transform="matrix(0.965786 0.259339 -0.2583 0.966065 97.6489 67.291)" fill="url(#paint7_linear)"/>
    <path d="M1.37798 20.6809C1.24519 20.3625 1.12088 20.0339 1.00569 19.6961H7.48108V20.6809H1.37798Z" transform="matrix(0.965786 0.259339 -0.2583 0.966065 97.6489 67.291)" fill="url(#paint8_linear)"/>
    <path d="M2.39007 22.6505C2.19393 22.3382 2.00786 22.0093 1.83267 21.6657H7.48108V22.6505H2.39007Z" transform="matrix(0.965786 0.259339 -0.2583 0.966065 97.6489 67.291)" fill="url(#paint9_linear)"/>
    <path d="M3.9898 24.6201C3.67334 24.3245 3.37129 23.9953 3.08507 23.6353H11.7406V24.6201H3.9898Z" transform="matrix(0.965786 0.259339 -0.2583 0.966065 97.6489 67.291)" fill="url(#paint10_linear)"/>
    <path d="M13.3789 26.3579H8.10072C8.0172 26.364 7.93257 26.364 7.84905 26.3579C6.97807 26.2996 6.17077 26.0819 5.56169 25.7411C5.47738 25.6978 5.39387 25.6523 5.31083 25.6049H13.3789V26.3579Z"
          transform="matrix(0.965786 0.259339 -0.2583 0.966065 97.6489 67.291)" fill="url(#paint11_linear)"/>
    <path d="M4.96334 0.984803C5.5145 0.561645 6.09686 0.22921 6.70257 0H12.3959V0.984803H4.96334Z" transform="matrix(0.965786 0.259339 -0.2583 0.966065 97.6489 67.291)" fill="url(#paint12_linear)"/>
    <path d="M3.07211 2.95441C3.33081 2.60178 3.60231 2.27255 3.88533 1.96961H10.43V2.95441H3.07211Z" transform="matrix(0.965786 0.259339 -0.2583 0.966065 97.6489 67.291)" fill="url(#paint13_linear)"/>
    <path d="M1.88243 4.92402C2.05202 4.5826 2.23136 4.2537 2.41967 3.93921H9.11937V4.92402H1.88243Z" transform="matrix(0.965786 0.259339 -0.2583 0.966065 97.6489 67.291)" fill="url(#paint14_linear)"/>
    <path d="M1.07369 6.89362C1.18632 6.56439 1.30775 6.23612 1.43798 5.90882H6.82577V6.89362H1.07369Z" transform="matrix(0.965786 0.259339 -0.2583 0.966065 97.6489 67.291)" fill="url(#paint15_linear)"/>
    <path d="M0.507325 8.86323C0.584119 8.53432 0.669553 8.20605 0.763787 7.87842H6.82577V8.86323H0.507325Z" transform="matrix(0.965786 0.259339 -0.2583 0.966065 97.6489 67.291)" fill="url(#paint16_linear)"/>
    <path d="M0.152629 10.8328C0.194386 10.5042 0.244783 10.176 0.303819 9.84803H6.82577V10.8328H0.152629Z" transform="matrix(0.965786 0.259339 -0.2583 0.966065 97.6489 67.291)" fill="url(#paint17_linear)"/>
    <path d="M0.00607958 12.8024C0.0132791 12.4739 0.028958 12.1456 0.0534363 11.8176H6.82577V12.8024H0.00607958Z" transform="matrix(0.965786 0.259339 -0.2583 0.966065 97.6489 67.291)" fill="url(#paint18_linear)"/>
    <path d="M18.6858 13.0528V13.4355C18.6858 14.2317 18.5963 15.0095 18.4813 15.7625C17.5609 22.0213 13.6236 26.7556 9.02155 26.7556C8.51563 26.7495 8.01843 26.6905 7.56422 26.5828C5.00754 25.9655 2.88549 23.9471 1.53045 21.0584C1.15973 20.2745 0.852929 19.4166 0.610044 18.5216C0.153762 16.7983 -0.0470238 15.0615 0.00922236 13.3244C0.0381393 11.4462 0.375841 9.57216 1.01912 7.71982C1.01912 7.49762 1.17253 7.28159 1.26201 7.07173C2.54035 3.88676 4.66239 1.46717 7.16794 0.485757C7.72058 0.261656 8.37923 0.106886 9.08545 0.0351726C9.20658 0.0189237 9.33078 0.0085827 9.45618 0.00430859H9.99307C10.0736 -0.0014357 10.1554 -0.0014357 10.236 0.00430859C15.0425 0.399344 18.7369 6.05945 18.6858 13.0528Z"
          transform="matrix(-0.965786 -0.259339 0.2583 -0.966065 113.034 98.7461)" fill="url(#paint19_linear)"/>
    <path d="M6.55314 10.3319C6.55314 11.3302 6.30294 12.1339 5.80254 12.743C5.30213 13.3458 4.60156 13.7068 3.70083 13.8261V15.7568H2.80663V13.8638C1.74489 13.8324 0.813704 13.5624 0.0130541 13.0538V10.5674C0.391622 10.8373 0.846339 11.0759 1.3772 11.2831C1.91242 11.4903 2.3889 11.6128 2.80663 11.6505V8.73078L2.36931 8.48591C1.50775 7.99615 0.89638 7.46559 0.535217 6.89421C0.178406 6.31655 0 5.6039 0 4.75625C0 3.84581 0.245852 3.09863 0.737555 2.51469C1.23361 1.92448 1.9233 1.56658 2.80663 1.441V0H3.70083V1.40333C4.69729 1.46612 5.59802 1.75495 6.40302 2.26981L5.78948 4.4737C5.11067 4.07185 4.41445 3.82698 3.70083 3.73907V6.51748C4.54934 6.98839 5.15201 7.39652 5.50882 7.74186C5.86998 8.0872 6.13324 8.46707 6.29859 8.88148C6.46829 9.29588 6.55314 9.77935 6.55314 10.3319ZM4.58851 10.4732C4.58851 10.2095 4.51453 9.98656 4.36659 9.80447C4.21864 9.62238 3.99672 9.43402 3.70083 9.23937V11.5845C4.29261 11.4401 4.58851 11.0697 4.58851 10.4732ZM1.96464 4.75625C1.96464 5.03252 2.02991 5.2617 2.16045 5.44379C2.29534 5.6196 2.51073 5.80168 2.80663 5.99005V3.77675C2.2453 3.89604 1.96464 4.22255 1.96464 4.75625Z"
          transform="matrix(0.965786 0.259339 -0.2583 0.966065 106.364 75.0698)" fill="#FF5335"/>
    <path d="M22.8031 13.4234C22.7671 15.8385 22.2648 18.2451 21.3043 20.6043C19.7255 24.3026 17.0712 26.7374 14.0965 26.7189H8.767C8.48184 26.4961 6.88982 26.1579 6.48331 26.0503L2.28652 20.9988L0.352988 18.4962C-0.0553792 16.7754 -0.0207905 15.1581 0.0295492 13.4234C0.0554296 11.5478 0.566529 9.84718 1.14226 7.9974C1.14226 7.7755 1.28472 7.53835 1.3648 7.32878L6.26077 1.31114C6.75537 1.08734 7.40905 0.491247 8.04112 0.419633C8.14952 0.403407 8.81906 0.0088366 8.93129 0.0045684H10.3296H14.7029C14.7864 -0.0015228 14.8711 -0.0015228 14.9546 0.0045684C15.8259 0.0627768 16.6336 0.280368 17.2428 0.620958C19.6454 1.85374 21.5217 4.8309 22.3455 8.63402C22.6917 10.2234 22.8445 11.8233 22.8031 13.4234Z"
          transform="matrix(-0.865559 0.500806 -0.499194 -0.86649 140.947 68.8428)" fill="url(#paint20_linear)"/>
    <path d="M0.0414534 14.7662C0.0195263 14.4381 0.00560182 14.11 0 13.7818H6.82845V14.7662H0.0414534Z" transform="matrix(0.865559 -0.500806 0.499194 0.86649 108.049 57.4307)" fill="url(#paint21_linear)"/>
    <path d="M0.272088 16.7351C0.21719 16.4073 0.170455 16.0791 0.132043 15.7507H6.82845V16.7351H0.272088Z" transform="matrix(0.865559 -0.500806 0.499194 0.86649 108.049 57.4307)" fill="url(#paint22_linear)"/>
    <path d="M0.703268 18.7039C0.614599 18.3822 0.533933 18.0531 0.46127 17.7179L7.48403 17.7195V18.7039H0.703268Z" transform="matrix(0.865559 -0.500806 0.499194 0.86649 108.049 57.4307)" fill="url(#paint23_linear)"/>
    <path d="M1.37853 20.6727C1.24568 20.3545 1.12132 20.0261 1.00609 19.6883H7.48403V20.6727H1.37853Z" transform="matrix(0.865559 -0.500806 0.499194 0.86649 108.049 57.4307)" fill="url(#paint24_linear)"/>
    <path d="M2.39102 22.6416C2.19479 22.3295 2.00865 22.0007 1.83339 21.6572H7.48403V22.6416H2.39102Z" transform="matrix(0.865559 -0.500806 0.499194 0.86649 108.049 57.4307)" fill="url(#paint25_linear)"/>
    <path d="M3.99137 24.6104C3.67479 24.315 3.37261 23.9859 3.08628 23.626H11.7452V24.6104H3.99137Z" transform="matrix(0.865559 -0.500806 0.499194 0.86649 108.049 57.4307)" fill="url(#paint26_linear)"/>
    <path d="M13.3842 26.3476H8.10391C8.02036 26.3536 7.93569 26.3536 7.85215 26.3476C6.98082 26.2892 6.1732 26.0717 5.56388 25.731C5.47954 25.6878 5.39599 25.6423 5.31292 25.5948H13.3842V26.3476Z"
          transform="matrix(0.865559 -0.500806 0.499194 0.86649 108.049 57.4307)" fill="url(#paint27_linear)"/>
    <path d="M4.96529 0.984416C5.51667 0.561425 6.09926 0.22912 6.70521 0H12.4008V0.984416H4.96529Z" transform="matrix(0.865559 -0.500806 0.499194 0.86649 108.049 57.4307)" fill="url(#paint28_linear)"/>
    <path d="M3.07332 2.95325C3.33212 2.60076 3.60373 2.27166 3.88686 1.96883H10.4341V2.95325H3.07332Z" transform="matrix(0.865559 -0.500806 0.499194 0.86649 108.049 57.4307)" fill="url(#paint29_linear)"/>
    <path d="M1.88317 4.92208C2.05283 4.5808 2.23224 4.25202 2.42063 3.93767H9.12296V4.92208H1.88317Z" transform="matrix(0.865559 -0.500806 0.499194 0.86649 108.049 57.4307)" fill="url(#paint30_linear)"/>
    <path d="M1.07411 6.89091C1.18678 6.56181 1.30826 6.23368 1.43855 5.9065H6.82845V6.89091H1.07411Z" transform="matrix(0.865559 -0.500806 0.499194 0.86649 108.049 57.4307)" fill="url(#paint31_linear)"/>
    <path d="M0.507525 8.85975C0.58435 8.53097 0.669817 8.20283 0.764088 7.87533H6.82845V8.85975H0.507525Z" transform="matrix(0.865559 -0.500806 0.499194 0.86649 108.049 57.4307)" fill="url(#paint32_linear)"/>
    <path d="M0.15269 10.8286C0.194463 10.5001 0.244879 10.172 0.303939 9.84416H6.82845V10.8286H0.15269Z" transform="matrix(0.865559 -0.500806 0.499194 0.86649 108.049 57.4307)" fill="url(#paint33_linear)"/>
    <path d="M0.00608197 12.7974C0.0132843 12.469 0.0289694 12.1408 0.0534573 11.813H6.82845V12.7974H0.00608197Z" transform="matrix(0.865559 -0.500806 0.499194 0.86649 108.049 57.4307)" fill="url(#paint34_linear)"/>
    <path d="M18.6932 13.0477V13.4302C18.6932 14.2261 18.6036 15.0036 18.4886 15.7563C17.5678 22.0127 13.6289 26.7451 9.02511 26.7451C8.51898 26.739 8.02159 26.68 7.5672 26.5723C5.00951 25.9553 2.88663 23.9377 1.53105 21.0502C1.16019 20.2666 0.853265 19.4089 0.610285 18.5143C0.153823 16.7917 -0.0470423 15.0556 0.009226 13.3192C0.0381544 11.4418 0.375989 9.5684 1.01952 7.71679C1.01952 7.49467 1.17299 7.27873 1.26251 7.06895C2.54135 3.88523 4.66423 1.4666 7.17077 0.485566C7.72362 0.261554 8.38253 0.106844 9.08903 0.0351588C9.2102 0.0189163 9.33446 0.00857933 9.45991 0.0043069H9.997C10.0776 -0.00143513 10.1594 -0.00143513 10.24 0.0043069C15.0484 0.399187 18.7443 6.05707 18.6932 13.0477Z"
          transform="matrix(-0.865559 0.500806 -0.499194 -0.86649 141.128 68.769)" fill="url(#paint35_linear)"/>
    <path d="M6.55573 10.3278C6.55573 11.3258 6.30542 12.1292 5.80482 12.738C5.30422 13.3405 4.60337 13.7014 3.70229 13.8207V15.7507H2.80773V13.8583C1.74558 13.8269 0.814024 13.5571 0.0130592 13.0487V10.5632C0.391776 10.8331 0.846673 11.0716 1.37775 11.2787C1.91318 11.4858 2.38984 11.6082 2.80773 11.6459V8.72735L2.37025 8.48257C1.50834 7.99301 0.896733 7.46266 0.535428 6.8915C0.178476 6.31407 0 5.6017 0 4.75438C0 3.8443 0.245949 3.09741 0.737846 2.5137C1.2341 1.92372 1.92406 1.56597 2.80773 1.44044V0H3.70229V1.40278C4.69914 1.46554 5.60023 1.75426 6.40555 2.26892L5.79176 4.47194C5.11268 4.07025 4.41619 3.82547 3.70229 3.7376V6.51492C4.55114 6.98565 5.15404 7.39362 5.51099 7.73882C5.87229 8.08402 6.13566 8.46374 6.30107 8.87799C6.47084 9.29223 6.55573 9.77551 6.55573 10.3278ZM4.59031 10.4691C4.59031 10.2054 4.51631 9.98264 4.36831 9.80062C4.2203 9.6186 3.9983 9.43031 3.70229 9.23574V11.58C4.29431 11.4356 4.59031 11.0653 4.59031 10.4691ZM1.96541 4.75438C1.96541 5.03055 2.03071 5.25963 2.1613 5.44165C2.29625 5.61739 2.51172 5.79941 2.80773 5.9877V3.77526C2.24619 3.89451 1.96541 4.22089 1.96541 4.75438Z"
          transform="matrix(0.865559 -0.500806 0.499194 0.86649 119.703 56.7539)" fill="#FF5335"/>
    <path d="M51.0819 0C53.47 1.89583 52.2823 3.13182 50.7845 4.69035C49.7458 5.77148 48.5583 7.00747 48.3109 8.72599C48.1084 10.1338 50.274 11.8658 52.5835 13.7132C56.6988 17.0044 61.2709 20.6611 53.7165 23.5002C48.9978 25.2735 51.2078 28.0959 54.0798 31.7641C55.9432 34.1441 58.0853 36.88 58.7945 39.9159C59.5988 43.3597 56.0976 43.823 52.221 44.3357C47.6284 44.9432 42.5085 45.6207 43.3968 51.4069C44.6485 59.5606 40.1597 58.9033 35.7917 58.2637C32.7466 57.818 29.7602 57.3807 28.8182 59.9431C27.6587 62.2625 27.7758 65.1606 27.8787 67.7079C28.0855 72.8285 28.2351 76.532 17.8432 71.27C13.1852 68.9115 9.91036 72.2748 6.62146 75.6528C4.53839 77.7927 2.44956 79.9379 0 80.6388C2.9696 80.6744 6.03039 80.6176 9.18268 80.4628C81.364 76.9167 83.5928 11.2784 51.0819 0Z"
          transform="translate(90.6753 67.895)" fill="url(#paint36_linear)"/>
    <path d="M42.0404 0.150157C46.2666 -0.741777 46.9339 2.60298 47.1564 3.27193L46.9339 3.49501L20.6865 26.4623L0 24.4555L11.5667 16.2051C20.3158 11.1507 38.6593 0.863705 42.0404 0.150157Z"
          transform="matrix(0.98974 -0.14288 0.142164 0.989843 78.5342 102.282)" fill="#0A1A78"/>
    <path d="M42.1331 0.150162C46.3592 -0.741801 47.0265 2.60306 47.2489 3.27203L47.0265 3.49512L20.7799 26.4632L0.0940275 24.4562C0.0940275 24.4562 -1.82352 20.4034 11.6603 16.2056C25.1442 12.0077 38.7522 0.863732 42.1331 0.150162Z"
          transform="matrix(0.995922 -0.090221 0.0897631 0.995963 89.1187 96.2388)" fill="#481C76"/>
    <path d="M48.0992 0.150164C52.3253 -0.741812 52.9925 2.6031 53.215 3.27208L52.9925 3.49517L26.7464 26.4636L0 23.9669C0 23.9669 6.29535 19.3832 16.8287 16.4339C27.3621 13.4845 44.7183 0.863746 48.0992 0.150164Z"
          transform="matrix(0.998867 -0.0475903 0.0473867 0.998877 89.9502 94.4194)" fill="#672587"/>
    <path d="M0.208161 39.1455C-0.644297 32.1683 1.28759 27.453 2.99285 25.5204C3.58595 25.2231 8.26116 25.2482 12.4935 23.5505C21.4624 19.9529 28.8445 11.1569 32.8481 6.47401C36.6611 2.0141 44.6366 3.12908 50.4196 4.24401C56.2027 5.35894 62.4305 6.92 72.8845 6.02802C81.8486 5.26316 80.8918 12.2719 78.4451 14.9478C76.9346 16.5998 70.6602 18.9624 70.6602 18.9624C73.3436 19.1206 77.9592 19.7837 83.116 17.4767C92.4924 13.2819 103.658 4.44615 108.25 1.56875C112.33 -0.988033 115.753 0.0462648 117.931 1.39453C119.563 2.40492 119.46 4.58282 118.084 5.92051C111.069 12.737 90.6187 32.3198 83.116 36.356C77.726 39.2556 69.7705 36.802 41.3002 37.6933C31.874 37.9884 15.6075 50.2619 12.4935 53.7555C9.89862 52.6405 1.19093 47.1892 0.208161 39.1455Z"
          transform="translate(29.8948 94.8677)" fill="url(#paint37_linear)"/>
    <path d="M34.5057 5.6894C33.4496 6.13282 32.6882 6.41945 32.6882 6.41945C32.7275 6.4217 32.7673 6.42362 32.8075 6.42523C23.2449 7.27807 1.81588 11.8488 0.108409 12.2942C0.650693 11.8652 7.67735 6.37104 13.3432 5.26202C17.3054 4.48644 21.0342 4.26489 24.5705 4.05488C30.8534 3.68168 36.5289 3.34439 41.8276 0C41.5663 0.807321 41.1673 1.55405 40.6978 2.14174C40.625 2.2328 40.5494 2.31904 40.4735 2.40209C40.446 2.43222 40.4177 2.46268 40.3884 2.49346C39.8116 3.07058 38.6934 3.72496 37.4841 4.33222L34.5057 5.6894Z"
          transform="translate(67.8682 107.411)" fill="url(#paint38_linear)"/>
    <path d="M0.108409 12.2942C-0.0214828 12.3282 -0.0371594 12.3381 0.0749766 12.3208C0.0749766 12.3208 0.0863342 12.3118 0.108409 12.2942Z" transform="translate(67.8682 107.411)" fill="url(#paint39_linear)"/>
    <path d="M1.03162 41.0551C5.77844 38.3731 10.7367 36.2766 14.5662 36.1566C26.641 35.7786 35.0258 36.0021 41.0896 36.164C49.3231 36.3836 53.2779 36.4891 56.3819 34.8193C63.9967 30.7228 84.9492 10.6109 91.6553 4.08662C92.856 2.91828 92.944 1.02727 91.5561 0.0904148C91.5115 0.0602766 91.466 0.0301383 91.4201 0C91.6463 1.23182 91.4185 2.73361 89.968 4.26906L89.8218 4.42392C85.5369 8.96069 67.4723 28.0876 51.4452 28.0876C37.2883 28.0876 21.8732 29.272 16.2271 31.2066C12.5512 32.466 4.16711 38.5917 0 41.6489C0.342327 41.4482 0.686413 41.25 1.03162 41.0551Z"
          transform="translate(56.6272 96.4043)" fill="url(#paint40_linear)"/>
    <path d="M2.99284 22.2735C1.28761 24.2062 -0.644298 28.9216 0.208159 35.8986C0.25055 36.2455 0.307178 36.5876 0.377243 36.9246C6.49434 36.6466 16.0659 31.6188 21.339 23.4226C29.3654 10.9466 35.0026 7.47307 41.9784 7.00689C42.5733 6.96713 43.233 6.91006 43.9433 6.84883C46.6792 6.61221 50.1671 6.31083 53.6086 6.67858C58.6445 7.21658 64.5872 6.38136 69.1245 5.74365C69.7109 5.66125 70.2737 5.58206 70.8081 5.5096C76.2836 4.768 79.0475 6.44645 80.1258 7.15822C80.1229 7.05434 80.1172 6.95078 80.1082 6.84754C79.9534 5.72281 79.5421 4.85649 78.9125 4.21493C77.926 3.25468 76.2693 2.64229 73.696 2.73174C73.4349 2.74072 73.1646 2.75707 72.8845 2.78112C72.2952 2.83146 71.7191 2.87378 71.156 2.90905C62.7089 3.43711 57.1312 2.3284 52.1366 1.33512C51.5577 1.22002 50.9864 1.10652 50.4197 0.997191C49.6968 0.857721 48.9397 0.718572 48.1606 0.590003C42.7079 -0.309336 36.1845 -0.675163 32.8482 3.2271C32.8386 3.23832 32.8289 3.24987 32.8193 3.26109L32.58 3.54099C28.52 8.29354 21.2657 16.7848 12.4935 20.3036C9.54152 21.4877 6.3742 21.8336 4.52676 22.0356C3.72533 22.1232 3.17233 22.1838 2.99284 22.2735Z"
          transform="translate(29.8948 98.1147)" fill="url(#paint41_linear)"/>
    <defs>
        <linearGradient id="paint0_linear" x2="1" gradientUnits="userSpaceOnUse" gradientTransform="translate(142.841 -0.00776378) scale(139.733 81.1684) rotate(90)">
            <stop stop-color="#62F7FF"/>
            <stop offset="1" stop-color="#AB4FFF"/>
        </linearGradient>
        <linearGradient id="paint1_linear" x2="1" gradientUnits="userSpaceOnUse" gradientTransform="translate(36.4881 3.21087) scale(37.0593 36.7179) rotate(100.072)">
            <stop stop-color="#FDD985"/>
            <stop offset="1" stop-color="#FF7B4A"/>
        </linearGradient>
        <linearGradient id="paint2_linear" x2="1" gradientUnits="userSpaceOnUse" gradientTransform="matrix(-77.6312 -100.117 113.885 -88.7546 28.0454 128.725)">
            <stop stop-color="#FF3F2F"/>
            <stop offset="1" stop-color="#FF883E"/>
        </linearGradient>
        <linearGradient id="paint3_linear" x2="1" gradientUnits="userSpaceOnUse" gradientTransform="matrix(-90.0212 128.057 -105.563 -74.5401 135.059 24.0229)">
            <stop stop-color="#FF3C2F"/>
            <stop offset="1" stop-color="#FFB258"/>
        </linearGradient>
        <linearGradient id="paint4_linear" x2="1" gradientUnits="userSpaceOnUse" gradientTransform="translate(21.1625) scale(21.1625 26.7295) rotate(90)">
            <stop stop-color="#FF2B1A"/>
            <stop offset="1" stop-color="#FF875A"/>
        </linearGradient>
        <linearGradient id="paint5_linear" x2="1" gradientUnits="userSpaceOnUse" gradientTransform="translate(13.3789) scale(15.0722 26.5897) rotate(90)">
            <stop stop-color="#FF5335"/>
            <stop offset="1" stop-color="#FF875A"/>
        </linearGradient>
        <linearGradient id="paint6_linear" x2="1" gradientUnits="userSpaceOnUse" gradientTransform="translate(13.3789) scale(15.0722 26.5897) rotate(90)">
            <stop stop-color="#FF5335"/>
            <stop offset="1" stop-color="#FF875A"/>
        </linearGradient>
        <linearGradient id="paint7_linear" x2="1" gradientUnits="userSpaceOnUse" gradientTransform="translate(13.3789) scale(15.0722 26.5897) rotate(90)">
            <stop stop-color="#FF5335"/>
            <stop offset="1" stop-color="#FF875A"/>
        </linearGradient>
        <linearGradient id="paint8_linear" x2="1" gradientUnits="userSpaceOnUse" gradientTransform="translate(13.3789) scale(15.0722 26.5897) rotate(90)">
            <stop stop-color="#FF5335"/>
            <stop offset="1" stop-color="#FF875A"/>
        </linearGradient>
        <linearGradient id="paint9_linear" x2="1" gradientUnits="userSpaceOnUse" gradientTransform="translate(13.3789) scale(15.0722 26.5897) rotate(90)">
            <stop stop-color="#FF5335"/>
            <stop offset="1" stop-color="#FF875A"/>
        </linearGradient>
        <linearGradient id="paint10_linear" x2="1" gradientUnits="userSpaceOnUse" gradientTransform="translate(13.3789) scale(15.0722 26.5897) rotate(90)">
            <stop stop-color="#FF5335"/>
            <stop offset="1" stop-color="#FF875A"/>
        </linearGradient>
        <linearGradient id="paint11_linear" x2="1" gradientUnits="userSpaceOnUse" gradientTransform="translate(13.3789) scale(15.0722 26.5897) rotate(90)">
            <stop stop-color="#FF5335"/>
            <stop offset="1" stop-color="#FF875A"/>
        </linearGradient>
        <linearGradient id="paint12_linear" x2="1" gradientUnits="userSpaceOnUse" gradientTransform="translate(13.3789) scale(15.0722 26.5897) rotate(90)">
            <stop stop-color="#FF5335"/>
            <stop offset="1" stop-color="#FF875A"/>
        </linearGradient>
        <linearGradient id="paint13_linear" x2="1" gradientUnits="userSpaceOnUse" gradientTransform="translate(13.3789) scale(15.0722 26.5897) rotate(90)">
            <stop stop-color="#FF5335"/>
            <stop offset="1" stop-color="#FF875A"/>
        </linearGradient>
        <linearGradient id="paint14_linear" x2="1" gradientUnits="userSpaceOnUse" gradientTransform="translate(13.3789) scale(15.0722 26.5897) rotate(90)">
            <stop stop-color="#FF5335"/>
            <stop offset="1" stop-color="#FF875A"/>
        </linearGradient>
        <linearGradient id="paint15_linear" x2="1" gradientUnits="userSpaceOnUse" gradientTransform="translate(13.3789) scale(15.0722 26.5897) rotate(90)">
            <stop stop-color="#FF5335"/>
            <stop offset="1" stop-color="#FF875A"/>
        </linearGradient>
        <linearGradient id="paint16_linear" x2="1" gradientUnits="userSpaceOnUse" gradientTransform="translate(13.3789) scale(15.0722 26.5897) rotate(90)">
            <stop stop-color="#FF5335"/>
            <stop offset="1" stop-color="#FF875A"/>
        </linearGradient>
        <linearGradient id="paint17_linear" x2="1" gradientUnits="userSpaceOnUse" gradientTransform="translate(13.3789) scale(15.0722 26.5897) rotate(90)">
            <stop stop-color="#FF5335"/>
            <stop offset="1" stop-color="#FF875A"/>
        </linearGradient>
        <linearGradient id="paint18_linear" x2="1" gradientUnits="userSpaceOnUse" gradientTransform="translate(13.3789) scale(15.0722 26.5897) rotate(90)">
            <stop stop-color="#FF5335"/>
            <stop offset="1" stop-color="#FF875A"/>
        </linearGradient>
        <linearGradient id="paint19_linear" x2="1" gradientUnits="userSpaceOnUse" gradientTransform="matrix(0.212101 -22.8383 15.9504 0.1491 -1.52443 22.8907)">
            <stop stop-color="#FFC062"/>
            <stop offset="1" stop-color="#FF783B"/>
        </linearGradient>
        <linearGradient id="paint20_linear" x2="1" gradientUnits="userSpaceOnUse" gradientTransform="translate(21.1708) scale(21.1708 26.719) rotate(90)">
            <stop stop-color="#FF2B1A"/>
            <stop offset="1" stop-color="#FF875A"/>
        </linearGradient>
        <linearGradient id="paint21_linear" x2="1" gradientUnits="userSpaceOnUse" gradientTransform="translate(13.3842) scale(15.0782 26.5792) rotate(90)">
            <stop stop-color="#FF5335"/>
            <stop offset="1" stop-color="#FF875A"/>
        </linearGradient>
        <linearGradient id="paint22_linear" x2="1" gradientUnits="userSpaceOnUse" gradientTransform="translate(13.3842) scale(15.0782 26.5792) rotate(90)">
            <stop stop-color="#FF5335"/>
            <stop offset="1" stop-color="#FF875A"/>
        </linearGradient>
        <linearGradient id="paint23_linear" x2="1" gradientUnits="userSpaceOnUse" gradientTransform="translate(13.3842) scale(15.0782 26.5792) rotate(90)">
            <stop stop-color="#FF5335"/>
            <stop offset="1" stop-color="#FF875A"/>
        </linearGradient>
        <linearGradient id="paint24_linear" x2="1" gradientUnits="userSpaceOnUse" gradientTransform="translate(13.3842) scale(15.0782 26.5792) rotate(90)">
            <stop stop-color="#FF5335"/>
            <stop offset="1" stop-color="#FF875A"/>
        </linearGradient>
        <linearGradient id="paint25_linear" x2="1" gradientUnits="userSpaceOnUse" gradientTransform="translate(13.3842) scale(15.0782 26.5792) rotate(90)">
            <stop stop-color="#FF5335"/>
            <stop offset="1" stop-color="#FF875A"/>
        </linearGradient>
        <linearGradient id="paint26_linear" x2="1" gradientUnits="userSpaceOnUse" gradientTransform="translate(13.3842) scale(15.0782 26.5792) rotate(90)">
            <stop stop-color="#FF5335"/>
            <stop offset="1" stop-color="#FF875A"/>
        </linearGradient>
        <linearGradient id="paint27_linear" x2="1" gradientUnits="userSpaceOnUse" gradientTransform="translate(13.3842) scale(15.0782 26.5792) rotate(90)">
            <stop stop-color="#FF5335"/>
            <stop offset="1" stop-color="#FF875A"/>
        </linearGradient>
        <linearGradient id="paint28_linear" x2="1" gradientUnits="userSpaceOnUse" gradientTransform="translate(13.3842) scale(15.0782 26.5792) rotate(90)">
            <stop stop-color="#FF5335"/>
            <stop offset="1" stop-color="#FF875A"/>
        </linearGradient>
        <linearGradient id="paint29_linear" x2="1" gradientUnits="userSpaceOnUse" gradientTransform="translate(13.3842) scale(15.0782 26.5792) rotate(90)">
            <stop stop-color="#FF5335"/>
            <stop offset="1" stop-color="#FF875A"/>
        </linearGradient>
        <linearGradient id="paint30_linear" x2="1" gradientUnits="userSpaceOnUse" gradientTransform="translate(13.3842) scale(15.0782 26.5792) rotate(90)">
            <stop stop-color="#FF5335"/>
            <stop offset="1" stop-color="#FF875A"/>
        </linearGradient>
        <linearGradient id="paint31_linear" x2="1" gradientUnits="userSpaceOnUse" gradientTransform="translate(13.3842) scale(15.0782 26.5792) rotate(90)">
            <stop stop-color="#FF5335"/>
            <stop offset="1" stop-color="#FF875A"/>
        </linearGradient>
        <linearGradient id="paint32_linear" x2="1" gradientUnits="userSpaceOnUse" gradientTransform="translate(13.3842) scale(15.0782 26.5792) rotate(90)">
            <stop stop-color="#FF5335"/>
            <stop offset="1" stop-color="#FF875A"/>
        </linearGradient>
        <linearGradient id="paint33_linear" x2="1" gradientUnits="userSpaceOnUse" gradientTransform="translate(13.3842) scale(15.0782 26.5792) rotate(90)">
            <stop stop-color="#FF5335"/>
            <stop offset="1" stop-color="#FF875A"/>
        </linearGradient>
        <linearGradient id="paint34_linear" x2="1" gradientUnits="userSpaceOnUse" gradientTransform="translate(13.3842) scale(15.0782 26.5792) rotate(90)">
            <stop stop-color="#FF5335"/>
            <stop offset="1" stop-color="#FF875A"/>
        </linearGradient>
        <linearGradient id="paint35_linear" x2="1" gradientUnits="userSpaceOnUse" gradientTransform="matrix(0.212185 -22.8293 15.9567 0.149041 -1.52503 22.8817)">
            <stop stop-color="#FFC062"/>
            <stop offset="1" stop-color="#FF783B"/>
        </linearGradient>
        <linearGradient id="paint36_linear" x2="1" gradientUnits="userSpaceOnUse" gradientTransform="translate(71.8988 10.2034) scale(50.7795 70.5877) rotate(90)">
            <stop stop-color="#0B1C7D"/>
            <stop offset="1" stop-color="#103ECF"/>
        </linearGradient>
        <linearGradient id="paint37_linear" x2="1" gradientUnits="userSpaceOnUse" gradientTransform="matrix(-131.008 48.836 -115.56 -311.597 169.589 158.705)">
            <stop offset="0.164814" stop-color="#7A2B91"/>
            <stop offset="1" stop-color="#491D77"/>
        </linearGradient>
        <linearGradient id="paint38_linear" x2="1" gradientUnits="userSpaceOnUse" gradientTransform="matrix(-27.3047 9.73341 -47.1111 -125.469 62.1792 62.71)">
            <stop stop-color="#0A1A78"/>
            <stop offset="1" stop-color="#53207D"/>
        </linearGradient>
        <linearGradient id="paint39_linear" x2="1" gradientUnits="userSpaceOnUse" gradientTransform="matrix(-27.3047 9.73341 -47.1111 -125.469 62.1792 62.71)">
            <stop stop-color="#0A1A78"/>
            <stop offset="1" stop-color="#53207D"/>
        </linearGradient>
        <linearGradient id="paint40_linear" x2="1" gradientUnits="userSpaceOnUse" gradientTransform="matrix(-76.7063 36.7465 -79.4517 -168.347 131.303 87.6377)">
            <stop stop-color="#0A1A78"/>
            <stop offset="1" stop-color="#53207D"/>
        </linearGradient>
        <linearGradient id="paint41_linear" x2="1" gradientUnits="userSpaceOnUse" gradientTransform="matrix(65.8069 -24.144 64.961 177.928 -27.8496 -59.1391)">
            <stop stop-color="#C94CA8"/>
            <stop offset="1" stop-color="#6A2689"/>
        </linearGradient>
    </defs>
</svg>
