<svg width="180" height="180" viewBox="0 0 180 180" fill="none" xmlns="http://www.w3.org/2000/svg">
    <path d="M126.317 2.70129C107.938 -7.36632 80.1198 13.3888 54.7249 21.1237C34.8771 27.1691 22.6687 13.6267 5.99947 35.904C-14.0318 62.6746 16.6856 106.165 89.3459 89.2425C166.866 71.1882 144.696 12.769 126.317 2.70129Z"
          transform="translate(18.5225 47.2944)" fill="url(#paint0_linear)"/>
    <ellipse cx="18.8063" cy="18.8505" rx="18.8063" ry="18.8505" transform="translate(15.5481 94.123)" fill="url(#paint1_linear)"/>
    <path d="M0 3.76375C0 1.68509 1.68509 0 3.76375 0H63.8766C65.9553 0 67.6404 1.68509 67.6404 3.76375V63.8067C67.6404 65.8854 65.9553 67.5704 63.8766 67.5704H3.76375C1.68509 67.5704 0 65.8854 0 63.8067V3.76375Z" transform="translate(32 46.2598)"
          fill="url(#paint2_linear)"/>
    <path d="M10.7271 11.0452C13.6767 11.0452 16.0211 11.875 17.7603 13.5346C19.5133 15.1941 20.3899 17.4673 20.3899 20.3541C20.3899 23.7709 19.3394 26.3997 17.2385 28.2406C15.1376 30.0815 12.1324 31.0019 8.22273 31.0019C4.8279 31.0019 2.08699 30.451 0 29.3493V23.7639C1.09915 24.3497 2.37917 24.8308 3.84006 25.2073C5.30095 25.5699 6.68532 25.7512 7.99316 25.7512C11.9306 25.7512 13.8993 24.1335 13.8993 20.898C13.8993 17.816 11.861 16.2749 7.78446 16.2749C7.04706 16.2749 6.23314 16.3517 5.34269 16.5051C4.45224 16.6445 3.72875 16.7979 3.17222 16.9653L0.605226 15.5846L1.75307 0H18.3029V5.48077H7.40881L6.84532 11.4845L7.57577 11.3381C8.42447 11.1428 9.47492 11.0452 10.7271 11.0452Z"
          transform="translate(56.5315 57.9697)" fill="#C61C64"/>
    <g style="mix-blend-mode:multiply" opacity="0.6" transform="translate(32.1316 58.6133)">
        <path d="M0 41.0631V37.4265C2.50376 35.8095 3.00464 34.9644 4.22552 32.9047L4.27603 32.8193C6.23049 29.5212 7.55344 25.3312 8.92897 20.9733L8.98866 20.7842C10.3508 16.4695 11.7856 11.9581 14.0035 8.56297C16.2912 5.06071 19.5219 2.58768 24.3837 2.65127C27.2957 2.68934 29.4733 4.3662 31.1971 6.41333C32.667 8.15881 33.9808 10.3888 35.2438 12.5325C35.4431 12.871 35.6407 13.2061 35.8373 13.5371C37.3322 16.0524 38.8119 18.3823 40.5733 20.0931C42.2924 21.7624 44.2041 22.7682 46.6054 22.7682C49.0246 22.7682 50.5786 21.8925 51.9201 20.4027C53.2115 18.9685 54.2592 17.0289 55.5577 14.624L55.6101 14.527L56.0421 13.7287C57.9367 10.2394 60.2616 6.22548 64.2208 2.65211C65.0155 1.99609 66.6588 0.676101 67.6403 0V4.32897C66.7991 4.82266 65.5427 5.71548 64.2208 7.20658C61.8869 9.83944 60.2785 12.6426 58.851 15.2713C58.7036 15.5424 58.5573 15.8139 58.411 16.0858L58.4089 16.09L58.3622 16.1762C57.106 18.5091 55.8609 20.8215 54.2922 22.5636C52.4132 24.6496 50.0268 25.9868 46.6054 25.9868C43.1658 25.9868 40.4967 24.4928 38.3505 22.4084C36.2464 20.3654 34.5755 17.6878 33.0902 15.1888C32.9022 14.8725 32.7175 14.5596 32.5353 14.2504L32.4742 14.1471C31.194 11.9774 30.0361 10.0152 28.7547 8.4931C27.2934 6.75724 25.9106 5.89036 24.3422 5.86986C20.8509 5.82426 18.5368 7.48522 16.6784 10.3306C14.7498 13.2823 13.4367 17.3309 12.039 21.7582L11.92 22.1356C10.5913 26.3466 9.1721 30.8446 7.02501 34.4673C6.25512 35.766 5.37858 36.9747 4.3641 38.034C4.3641 38.034 3.1862 39.618 0 41.0631Z"
              fill="#EDF0F6"/>
    </g>
    <path d="M0 31.7046C1.60017 34.4405 9.66882 43.6813 20.1622 42.0044C37.0616 39.3038 31.2988 5.5757 48.0052 5.79384C56.9662 5.91085 58.5658 25.9109 70.2477 25.9109C81.9289 25.9109 78.4086 8.20779 97.4506 0" transform="translate(7 45.2822)"
          stroke="url(#paint3_linear)" stroke-width="2.82294"/>
    <ellipse cx="2.03939" cy="2.05451" rx="2.03939" ry="2.05451" transform="translate(51.1663 48.9883)" fill="#BA0360"/>
    <path d="M10.3921 5.79373C10.3921 8.37603 8.31245 10.4583 5.76063 10.4583C3.20881 10.4583 1.12912 8.37603 1.12912 5.79373C1.12912 3.21143 3.20881 1.12912 5.76063 1.12912C8.31245 1.12912 10.3921 3.21143 10.3921 5.79373Z"
          transform="translate(47.4832 45.2822)" stroke="#BA0360" stroke-width="2.25825"/>
    <path fill-rule="evenodd" clip-rule="evenodd"
          d="M69.8572 0C69.8538 1.22168 69.6819 2.42725 69.2693 3.54395C68.2305 6.35547 65.2217 7.29443 62.3794 8.18066C59.375 9.11816 56.5566 9.99707 56.4468 12.9692C56.3665 15.1465 56.9827 17.415 57.543 19.4775C58.4707 22.8936 59.2451 25.7437 56.4468 26.6787C54.6323 27.2852 52.7827 26.9106 51.2656 26.6035C49.0305 26.1514 47.5166 25.8452 47.8984 29.0352C48.1443 31.0884 49.4265 33.1099 50.5896 34.9429C52.4597 37.8911 54.021 40.3525 50.4631 41.6733C47.8027 42.6611 44.5515 42.3281 41.5269 42.0181C37.9915 41.6562 34.7651 41.3257 33.1528 43.1729C31.71 44.8257 32.0564 47.4248 32.3943 49.9619C32.7573 52.6855 33.1106 55.3369 31.2295 56.668C29.4731 57.9106 27.9502 57.5874 26.4429 57.2671C24.832 56.9248 23.2393 56.5864 21.3989 58.1675C19.812 59.5308 19.7883 61.1958 19.7651 62.8101C19.7446 64.2393 19.7246 65.6294 18.6206 66.7358C15.98 69.3828 7.87695 71.6147 0 73.4082C6.11182 72.8232 12.6055 71.7632 19.4744 70.1636C76.593 56.8604 79.5886 21.6426 69.8572 0Z"
          transform="translate(88.3953 66.3726)" fill="url(#paint4_linear)"/>
    <path d="M13.2435 28.186C13.1741 28.3748 13.0648 28.5428 12.9246 28.6761C12.7845 28.8093 12.6175 28.9041 12.4374 28.9525C12.2376 29.0136 12.0264 29.0136 11.8267 28.9525C11.2287 28.7538 10.6932 28.3755 10.2807 27.8602C8.83598 26.1393 9.26173 21.3905 9.68398 18.5198C9.91452 16.9882 9.65952 15.4161 8.96161 14.0661L6.99689 10.2756C6.60634 9.6868 6.15424 9.15038 5.64986 8.67732C4.20363 7.34716 2.43284 6.51404 0.55835 6.28186C0.254745 6.24353 0.055839 6.2397 3.40793e-06 6.23587C0.295904 5.94525 0.573401 5.6328 0.830559 5.30068C1.2912 4.74493 1.87747 4.00905 2.48468 3.25783C3.45134 2.04668 4.42148 0.808709 4.84374 0.275958C4.97984 0.0958196 5.0601 7.01795e-07 5.0601 7.01795e-07L13.0865 0.743553L17.7069 15.6299L13.2435 28.186Z"
          transform="translate(110.766 79.8145) scale(-1 1)" fill="url(#paint5_linear)"/>
    <path d="M11.8022 22.7971C12.7654 17.255 15.8364 17.209 11.4882 9.24073C10.7623 7.91077 9.39433 6.41984 8.36487 5.40799C7.67592 4.74369 6.89027 4.21119 6.04071 3.83274C4.56107 3.14668 4.10392 1.81288 4.84374 -1.87145e-06C4.42148 0.532749 3.44785 1.77072 2.48468 2.98187C2.10336 2.99607 1.72443 3.05388 1.35402 3.15435L0.830559 5.02472C0.573401 5.35684 0.295904 5.66929 3.40793e-06 5.95991C0.055839 5.95991 0.254745 5.95991 0.55835 6.0059L0.785191 6.03656H0.886385L1.04692 6.06339L1.17254 6.08639L1.35052 6.12472L1.47964 6.15538L1.74835 6.22054L1.83908 6.24736L2.14967 6.33935L2.2753 6.38151L2.52656 6.46583L2.66615 6.51949L2.93137 6.62297L3.06398 6.68046C3.18612 6.73412 3.30826 6.78778 3.43389 6.84911L3.46879 6.86826C3.60489 6.93342 3.73749 7.00624 3.87359 7.07907L4.02016 7.16339L4.28538 7.3282L4.45987 7.43934L4.70763 7.60799L4.88561 7.7383L5.14734 7.94527L5.42302 8.17907C6.01851 8.69968 6.54784 9.30552 6.99689 9.98045L8.96161 13.771C9.65673 15.1193 9.91043 16.6883 9.68049 18.217C9.25823 21.0877 8.83248 25.8365 10.2772 27.5574C10.6897 28.0727 11.2252 28.451 11.8232 28.6497C12.0229 28.7108 12.2341 28.7108 12.4339 28.6497C12.0884 28.4772 10.9752 27.5114 11.8022 22.7971Z"
          transform="translate(110.766 80.1172) scale(-1 1)" fill="url(#paint6_linear)"/>
    <path d="M6.29441 40.0033L6.44098 40.1413C6.53838 40.2332 6.64223 40.3165 6.75156 40.3904C6.80414 40.4311 6.85891 40.4682 6.91558 40.5016C7.5808 40.9262 8.35346 41.1024 9.11759 41.0037L9.50495 40.95L19.4367 39.6469L19.8415 39.5932L20.0404 39.5664L21.7853 39.3403C21.8683 39.3288 21.9465 39.2915 22.0107 39.2326C22.0748 39.1737 22.1223 39.0958 22.1473 39.0082C22.1723 38.9205 22.1738 38.8268 22.1517 38.7383C22.1296 38.6497 22.0848 38.57 22.0226 38.5086C18.754 35.243 16.4078 31.0154 15.263 26.3281C14.3138 22.5452 13.9683 17.8961 14.914 12.3693C15.3433 9.92041 15.9621 7.51623 16.7636 5.18289C16.7919 5.09925 16.8043 5.01015 16.8002 4.92104C16.796 4.83193 16.7753 4.7447 16.7394 4.66467C16.7034 4.58465 16.653 4.51354 16.5911 4.45568C16.5293 4.39782 16.4574 4.35444 16.3797 4.3282L15.7795 4.13656L14.8372 3.83377L12.897 3.21671L11.9478 2.92158L11.8256 2.88325L11.1277 2.66479C9.88533 2.28152 8.5732 1.85991 7.34831 1.47664L4.61236 0.621936L4.28433 0.518456L4.04354 0.441797L3.40492 0.242499L3.10131 0.150517L2.71396 0.0278662C2.63353 0.0021217 2.54926 -0.00590015 2.466 0.00427414C2.38274 0.0144484 2.30214 0.0426137 2.22884 0.0871445C2.15553 0.131675 2.09097 0.19169 2.03887 0.26374C1.98677 0.335789 1.94816 0.418454 1.92527 0.506958V0.545288C0.958622 5.07175 -3.69667 29.8772 6.29441 40.0033Z"
          transform="translate(96.4443 102.508)" fill="#4FBA1F"/>
    <path d="M22.1936 38.5023C22.1787 38.477 22.1598 38.4549 22.1377 38.4372L22.1203 38.4142C22.026 38.326 21.9283 38.2264 21.8236 38.1229L21.7713 38.0692L21.5829 37.8738L21.3839 37.6591C21.3647 37.6407 21.3471 37.6201 21.3316 37.5978C21.206 37.4675 21.0803 37.3218 20.9477 37.1685L20.8675 37.0727C20.7418 36.9271 20.6092 36.7699 20.4731 36.6013C20.1521 36.218 19.8171 35.7658 19.4751 35.279C19.3564 35.1104 19.2343 34.9341 19.1261 34.7501L18.9691 34.5125C18.7981 34.248 18.6201 33.9682 18.4491 33.6769C18.3898 33.5811 18.3304 33.4815 18.2746 33.3818C18.0547 32.9985 17.8384 32.6152 17.6255 32.1936C17.5452 32.0403 17.4685 31.887 17.3917 31.7299C17.3149 31.5727 17.2382 31.4118 17.1649 31.2508C17.0916 31.0898 17.0148 30.925 16.9415 30.7602V30.741C16.7287 30.2581 16.5228 29.7522 16.3308 29.2271C16.3294 29.2131 16.3294 29.199 16.3308 29.1849C16.261 29.0061 16.1947 28.8221 16.1319 28.633C16.0133 28.2919 15.9016 27.9431 15.7829 27.5829C15.7096 27.3452 15.6433 27.1038 15.577 26.8585C15.5107 26.6132 15.4689 26.4752 15.42 26.2644C15.3502 25.9846 15.2839 25.7048 15.2211 25.4135C15.0908 24.8386 14.9745 24.2446 14.8721 23.6313C14.5994 21.8589 14.4744 20.0628 14.4987 18.2655C14.4987 18.1812 14.4987 18.0968 14.4987 18.0125C14.4987 17.7097 14.4987 17.3993 14.5266 17.0888C14.5266 16.924 14.5441 16.7554 14.5546 16.5867C14.565 16.4181 14.572 16.2763 14.586 16.123C14.586 15.9007 14.6174 15.6745 14.6383 15.4484C14.6592 15.2223 14.6802 15.023 14.7046 14.8045C14.7046 14.6589 14.736 14.5094 14.757 14.3599C14.7779 14.2104 14.7919 14.0341 14.8163 13.8693C14.8826 13.3557 14.9594 12.8345 15.0501 12.3056C15.1339 11.8188 15.2281 11.3282 15.3328 10.8261C15.3816 10.5885 15.434 10.3509 15.4898 10.1094C15.4878 10.0852 15.4878 10.0608 15.4898 10.0366C15.5387 9.82962 15.5875 9.61882 15.6399 9.41185C15.6573 9.33136 15.6748 9.25087 15.6992 9.17039C15.748 8.95575 15.8039 8.74112 15.8632 8.52649C15.9225 8.31186 16.0028 8.0014 16.0761 7.73695C16.2261 7.21186 16.3867 6.67527 16.5542 6.13485C16.6554 5.80907 16.767 5.48329 16.8752 5.14985V5.12685C16.9095 5.02796 16.9203 4.92112 16.9066 4.81639C16.9086 4.78704 16.9086 4.75759 16.9066 4.72824L16.8857 4.65158C16.8575 4.57663 16.8173 4.50783 16.767 4.44845L16.7112 4.39096C16.6717 4.35582 16.6283 4.3262 16.5821 4.3028L16.5053 4.27215L16.3936 4.23382H16.3553L16.2506 4.19932L16.1877 4.18016L16.0307 4.1265L15.7376 4.03452L15.4305 3.93486L15.263 3.88121L15.1443 3.84671L14.9873 3.79689H14.9663L13.5111 3.33312L12.5549 3.03034L12.206 2.91919L11.9373 2.83103L11.6267 2.73521L11.2323 2.60874H11.2079L10.9741 2.53592L10.8415 2.49375L10.5798 2.40943L9.73874 2.14881C9.70035 2.14881 9.66546 2.12198 9.62707 2.11431C9.54681 2.09132 9.46654 2.06831 9.38628 2.03765C9.12455 1.961 8.86282 1.87669 8.60458 1.7962L8.50338 1.76171L8.0218 1.61606L7.29593 1.38609L7.06212 1.31327L5.53712 0.834179L5.07298 0.688533L4.76588 0.592714L4.18659 0.412575H4.15868H4.10633L4.03305 0.38958L3.82366 0.32443L2.87446 0.0293013C2.78295 -0.00161171 2.68606 -0.00817564 2.59179 0.0101423H2.56387L2.49058 0.0331378L2.4173 0.0637945L2.351 0.105961L2.28819 0.155788L2.23584 0.213277C2.21839 0.236273 2.19745 0.259267 2.18349 0.282263L2.16256 0.31292L2.12417 0.385743C2.10928 0.421881 2.09646 0.459006 2.08578 0.496896V0.535226C2.03344 0.780521 1.97062 1.08714 1.90083 1.44358C1.85662 1.65822 1.81126 1.89202 1.76473 2.14498C1.72634 2.34428 1.68795 2.52825 1.65305 2.74289C1.39481 4.09201 1.16914 5.40791 0.976047 6.6906C-0.252335 14.8083 -0.20348 21.1592 0.473526 26.0804C0.774056 28.3556 1.28024 30.5922 1.98458 32.7571C3.56891 37.5212 5.66972 39.9396 6.61544 40.848C6.67303 40.9036 6.73491 40.9536 6.80039 40.9975C7.06388 41.1738 7.37313 41.2492 7.6798 41.2121L9.23273 41.0089H9.28507L10.0633 40.9055L19.6042 39.6522H19.6461H19.7752L20.009 39.6253L20.2079 39.5947L21.9528 39.3685C22.0521 39.3434 22.1408 39.2819 22.2042 39.1941C22.2676 39.1064 22.302 38.9976 22.3017 38.8856C22.3105 38.8169 22.3053 38.7469 22.2866 38.6807C22.2679 38.6144 22.2362 38.5535 22.1936 38.5023ZM4.33665 2.85786L5.51268 3.24114L7.60652 3.89271L9.60264 4.52127L11.1207 5.00036L11.7698 5.19966L14.2126 5.96621C13.6102 7.87595 13.1378 9.8322 12.7992 11.8188C12.7085 12.3401 12.6317 12.8536 12.5654 13.3519C12.2433 15.7313 12.1474 18.141 12.2793 20.5421C12.5468 25.5514 13.9103 30.4159 16.254 34.7233C16.7525 35.6384 17.2965 36.5225 17.8838 37.3717L7.68679 38.5867C7.47042 38.2954 7.26452 38.0002 7.06561 37.7013C6.49314 36.8467 5.9743 35.9503 5.51268 35.0184C4.68199 33.3448 4.02081 31.5763 3.54099 29.7445C3.37349 29.1121 3.22692 28.4721 3.10129 27.8282C3.03498 27.5062 2.97566 27.1804 2.92331 26.8585C1.38086 17.7749 3.47469 8.30035 4.33665 2.85786Z"
          transform="translate(96.311 102.598)" fill="#64E129"/>
    <path d="M2.14266 7.05991C3.32604 7.05991 4.2854 5.47951 4.2854 3.52997C4.2854 1.58043 3.32604 3.36862e-05 2.14266 3.36862e-05C0.959287 3.36862e-05 1.02238e-05 1.58043 1.02238e-05 3.52997C1.02238e-05 5.47951 0.959287 7.05991 2.14266 7.05991Z"
          transform="translate(102.055 120.342)" fill="#339706"/>
    <path opacity="0.1"
          d="M16.903 5.17529V5.19829C16.7948 5.53174 16.6831 5.86135 16.5819 6.1833L1.1469 29.7163C-0.399047 23.2352 -0.552595 13.9216 1.74713 2.14743C1.87276 1.46904 1.98443 0.928626 2.06819 0.537687C2.09224 0.414474 2.14796 0.301413 2.22872 0.211902C2.29967 0.130847 2.38691 0.0691558 2.48346 0.0317624C2.60971 -0.010585 2.74458 -0.010585 2.87082 0.0317624C5.188 0.75615 13.1515 3.2436 16.055 4.17879L16.2085 4.2286L16.5261 4.33592C16.624 4.36568 16.7128 4.42368 16.7834 4.50388C16.854 4.58409 16.9037 4.68357 16.9274 4.79202C16.9571 4.91933 16.9486 5.05377 16.903 5.17529Z"
          transform="translate(96.2959 102.504)" fill="url(#paint7_linear)"/>
    <path d="M67.3901 47.135C67.1632 47.8058 66.8457 48.7026 66.4862 49.7221C65.2928 53.0911 63.5828 57.7939 62.7767 60.013C62.6849 60.2597 62.5217 60.4662 62.3122 60.6006C62.1027 60.735 61.8588 60.7899 61.6181 60.7566C61.4146 60.7222 61.2238 60.6267 61.0667 60.4806C60.7424 60.1785 60.4715 59.8134 60.2676 59.4036C59.6952 58.2768 59.5696 56.828 59.6987 55.3064C59.8732 53.1371 60.5467 50.8183 61.0946 49.0552C61.4977 47.7385 61.4202 46.3014 60.8783 45.0462L58.6588 39.895C57.8841 38.0576 56.5938 36.5411 54.9771 35.5678C54.2303 35.1347 53.4626 34.8703 52.8624 35.0657C52.3445 35.2994 51.897 35.6886 51.5712 36.1887C51.449 36.3535 51.3339 36.526 51.2222 36.6985C50.4013 38.0474 50.0076 39.6556 50.102 41.2748C50.1501 42.2548 50.3705 43.2153 50.7511 44.1033L51.2013 45.1688C51.5947 46.1022 52.1186 46.9622 52.7542 47.7176C53.9965 49.1894 56.1567 52.3169 56.0869 56.1496V56.2263C56.0869 56.3413 56.0869 56.4447 56.0869 56.5482C55.9752 58.4301 55.3889 59.4534 54.691 59.9977C54.3844 60.2341 54.038 60.4009 53.672 60.4883C53.5638 60.5151 53.4556 60.5343 53.3544 60.5496C52.9789 60.603 52.5974 60.5367 52.2553 60.3586C51.9132 60.1806 51.6248 59.8983 51.4246 59.5454L47.5126 52.6465C46.012 50.0057 44.2846 47.2577 41.7092 45.9507C36.6666 43.3828 32.8628 38.5612 30.7131 35.0849C30.0151 33.9351 28.0644 32.333 25.4785 30.5469C25.0458 30.2429 24.5944 29.9375 24.1245 29.6309L24.0721 29.6041C23.1229 28.9678 22.1074 28.3163 21.0501 27.6647L20.9977 27.634C11.6313 21.8811 -0.331477 14.5989 0.00702628 14.0776C0.868236 12.7701 1.81036 11.5292 2.82672 10.3637C6.15175 6.58069 10.1696 3.61533 14.615 1.66341C15.3967 1.31463 16.2168 0.981183 17.0578 0.670731C17.6964 0.433101 18.3595 0.206969 19.04 1.40359e-06L20.3242 1.21498L20.5859 1.45644L23.7651 4.44981C23.8663 4.53796 23.9675 4.63378 24.0721 4.73343C25.3599 5.93691 26.7278 7.22088 28.1098 8.50101C28.3994 8.76931 28.6856 9.0376 28.9717 9.29822C30.0186 10.2871 31.0656 11.2491 32.1125 12.1843L32.8104 12.832L32.9989 13.0045L33.5119 13.4491L34.3599 14.2156C34.5239 14.3574 34.6809 14.4993 34.8345 14.6372C35.2218 14.9937 35.6057 15.3348 35.9616 15.6529C37.6158 17.1208 38.9035 18.2132 39.5351 18.6578C43.3738 21.3407 59.9151 26.8982 59.9151 26.8982C59.9151 26.8982 63.4258 28.0211 63.8375 32.011C64.1412 34.9814 66.2803 40.9911 67.3517 43.8619C67.742 44.9081 67.7557 46.0781 67.3901 47.135Z"
          transform="translate(158.432 45.2554) scale(-1 1)" fill="url(#paint8_linear)"/>
    <path d="M51.6409 49.8716C51.4141 50.5423 51.0965 51.4392 50.7371 52.4587C50.7371 52.3935 50.9115 50.8451 50.915 50.78C51.613 43.2256 47.53 39.5462 45.3524 34.5751C43.1748 29.6041 34.5587 30.9379 20.4568 25.3957C19.1422 24.8812 17.8716 24.2399 16.6599 23.4794C16.2167 23.2072 15.791 22.9159 15.3722 22.6132C14.3862 21.912 13.441 21.144 12.5421 20.3135C6.78751 14.9898 3.11981 7.66548 1.31563 3.44946C0.429238 1.35679 1.06498e-06 -1.28663e-06 1.06498e-06 -1.28663e-06L0.15355 0.0268278L3.2943 2.77107L4.57851 3.98605L4.84024 4.22751L8.01938 7.22088C8.12058 7.30903 8.22179 7.40485 8.32648 7.5045C9.61418 8.70798 10.9822 9.99195 12.3641 11.2721C12.6537 11.5404 12.9399 11.8087 13.226 12.0693C14.273 13.0581 15.3199 14.0202 16.3668 14.9553L17.0647 15.6031L17.2532 15.7756L17.7627 16.1857L18.6107 16.9522C18.7747 17.094 18.9317 17.2358 19.0853 17.3738C19.4726 17.7303 19.8565 18.0714 20.2125 18.3895C21.8666 19.8574 23.1543 20.9498 23.7859 21.3943C27.6246 24.0773 44.1659 29.6347 44.1659 29.6347C44.1659 29.6347 47.6766 30.7577 48.0884 34.7476C48.392 37.718 50.5312 43.7277 51.6025 46.5984C51.9928 47.6447 52.0065 48.8147 51.6409 49.8716Z"
          transform="translate(142.682 42.5181) scale(-1 1)" fill="url(#paint9_linear)"/>
    <path d="M6.01318 1.93789L0.079824 0C-0.0581959 1.38421 -0.365055 4.4909 2.70163 5.25999C4.35744 5.67525 5.55323 3.13754 6.01318 1.93789Z" transform="translate(102.286 100.566)" fill="#337BC6"/>
    <path d="M54.6804 49.6608C54.3746 49.8963 54.0295 50.063 53.6649 50.1514C53.5567 50.1782 53.452 50.1974 53.3473 50.2127C52.9718 50.2661 52.5903 50.1998 52.2482 50.0217C51.906 49.8437 51.6177 49.5614 51.4175 49.2085L47.5055 42.3096C46.0049 39.6727 44.2775 36.9246 41.7056 35.6176C36.6594 33.0497 32.8591 28.2281 30.7095 24.7557C30.0115 23.6058 28.0573 21.9999 25.4749 20.2139C25.0398 19.9098 24.5885 19.6032 24.1209 19.294C24.1209 19.294 -0.331605 4.23518 0.00340868 3.71392C0.866183 2.40555 1.81068 1.16458 2.83008 -1.16966e-06C5.17518 0.766546 21.0674 6.30485 27.5059 14.5644C27.9936 15.1856 28.4359 15.8482 28.8285 16.5459C32.4334 23.0348 38.3659 27.5344 42.1174 29.9069C46.0009 32.3197 48.9308 36.23 50.3392 40.88C50.5512 41.5989 50.7191 42.3326 50.8417 43.0761C51.8153 49.1127 52.44 49.5036 54.6804 49.6608Z"
          transform="translate(158.432 55.6187) scale(-1 1)" fill="url(#paint10_linear)"/>
    <path d="M40.2853 21.9041L36.5723 27.109L32.9569 32.195L32.9395 32.2218L29.5754 36.9361L29.523 36.9093L26.4172 35.0887L1.06498e-06 19.547C0.574971 17.4855 1.34457 15.4957 2.29624 13.6101C6.39666 5.48465 12.8561 1.5331 16.1644 0L21.3536 4.52263L24.4944 7.26687L25.7786 8.48185L26.0403 8.72332L29.2194 11.7167C29.3206 11.8048 29.4218 11.9007 29.5265 12.0003C30.8142 13.2038 32.1822 14.4878 33.5641 15.7679C33.8538 16.0362 34.1399 16.3045 34.4261 16.5651C35.473 17.5539 36.5199 18.516 37.5668 19.4512L38.2648 20.0989L38.4532 20.2714L38.9627 20.6968L39.3292 21.0341C39.4897 21.1797 39.6502 21.3215 39.8107 21.471C39.9713 21.6205 40.1318 21.7661 40.2853 21.9041Z"
          transform="translate(163.864 38) scale(-1 1)" fill="url(#paint11_linear)"/>
    <path opacity="0.4"
          d="M19.0853 17.4083L15.3722 22.6132C14.3862 21.912 13.441 21.144 12.5421 20.3135C6.78751 14.9898 3.11981 7.66548 1.31563 3.44947C0.429238 1.35679 1.06498e-06 1.28662e-06 1.06498e-06 1.28662e-06L0.15355 0.0268303L3.2943 2.77107L4.57851 3.98605L4.84024 4.22751C5.78247 5.12054 6.86428 6.14388 8.01938 7.22088C8.12058 7.30903 8.22179 7.40485 8.32648 7.5045C9.61418 8.70798 10.9822 9.99195 12.3641 11.2721C12.6537 11.5404 12.9399 11.8087 13.226 12.0693C14.273 13.0581 15.3199 14.0202 16.3668 14.9553L17.0647 15.6031L17.2532 15.7756L17.7627 16.201L18.1291 16.5383C18.2896 16.6839 18.4502 16.8257 18.6107 16.9752C18.7712 17.1247 18.9317 17.2703 19.0853 17.4083Z"
          transform="translate(142.682 42.5024) scale(-1 1)" fill="url(#paint12_linear)"/>
    <path d="M32.9569 18.5811L32.936 18.6118L29.5789 23.3184H29.5579L29.5091 23.2877L26.4032 21.4672L0 5.93308C0.57475 3.87338 1.34314 1.88497 2.29274 0C4.0376 0.766548 6.42109 1.82822 9.08375 3.10835C13.0934 5.02472 17.7627 7.44318 21.9957 10.0073C24.93 11.715 27.7313 13.6853 30.371 15.8982C30.72 16.2125 31.069 16.5268 31.39 16.8411L31.411 16.8641C31.8652 17.3016 32.2975 17.7661 32.7057 18.2553L32.9569 18.5811Z"
          transform="translate(163.859 51.6147) scale(-1 1)" fill="url(#paint13_linear)"/>
    <path d="M11.4567 2.41434L7.52382 8.01015L4.57024 12.2273L0 9.49341L0.0837329 9.3746C1.10971 7.95265 2.52654 5.99029 4.00618 3.90145C5.10544 2.36835 7.48928 1.51776 8.56761 0L11.4567 2.41434Z" transform="translate(138.707 62.8052) scale(-1 1)"
          fill="url(#paint14_linear)"/>
    <path d="M8.7592 25.8746C8.55427 25.8419 8.36193 25.7462 8.20434 25.5986C7.88181 25.2946 7.6112 24.9299 7.40519 24.5216C6.82938 23.3948 6.70724 21.9461 6.83636 20.4245C7.01434 18.2551 7.68436 15.9401 8.23225 14.1733C8.63737 12.8581 8.55976 11.4213 8.01589 10.168L5.79294 5.01301C5.02186 3.17418 3.73216 1.65693 2.11477 0.685848C1.36448 0.252749 0.60023 -0.0117149 -2.12996e-06 0.183755C0.747914 -0.0457334 1.53694 -0.0605192 2.29155 0.140805C3.04617 0.342129 3.7411 0.752823 4.30981 1.33358C5.96742 2.89733 7.72275 4.69106 8.51492 6.15516C9.20751 7.44203 9.64012 8.87739 9.78342 10.364C9.92672 11.8505 9.77736 13.3535 9.34547 14.7712C8.32298 18.1248 7.11205 23.4868 8.7592 25.8746Z"
          transform="translate(105.571 80.1367) scale(-1 1)" fill="#014AC9"/>
    <path d="M8.08509 3.7202L4.80457 8.42449L0 5.62133C1.04692 4.18405 2.67078 2.29581 4.31095 0C5.87211 1.1915 7.95946 3.37909 8.08509 3.7202Z" transform="translate(138.938 66.6064) scale(-1 1)" fill="url(#paint15_linear)"/>
    <path d="M0 0.123535H2.73926C3.80632 0.123535 4.59766 0.282878 5.11328 0.601562C5.63249 0.916667 5.89209 1.40902 5.89209 2.07861C5.89209 2.51904 5.7793 2.89502 5.55371 3.20654C5.32812 3.51807 5.03092 3.71859 4.66211 3.80811V3.86182C5.14909 3.99072 5.50179 4.20557 5.72021 4.50635C5.93864 4.80713 6.04785 5.19743 6.04785 5.67725C6.04785 6.38981 5.7793 6.95199 5.24219 7.36377C4.70866 7.77197 3.97998 7.97607 3.05615 7.97607H0V0.123535ZM2.12158 3.13672H2.76074C3.0651 3.13672 3.29964 3.07406 3.46436 2.94873C3.63265 2.8234 3.7168 2.63721 3.7168 2.39014C3.7168 1.94971 3.38379 1.72949 2.71777 1.72949H2.12158V3.13672ZM2.12158 4.68896V6.33789H2.86816C3.5306 6.33789 3.86182 6.05859 3.86182 5.5C3.86182 5.23861 3.7723 5.03809 3.59326 4.89844C3.41781 4.75879 3.16178 4.68896 2.8252 4.68896H2.12158Z"
          transform="translate(42 96)" fill="#C61C64"/>
    <path d="M7.96211 7.97607V0.123535H10.0944V7.97607H7.96211Z" transform="translate(42 96)" fill="#C61C64"/>
    <path d="M12.3471 7.97607V0.123535H14.4687V6.2627H17.4926V7.97607H12.3471Z" transform="translate(42 96)" fill="#C61C64"/>
    <path d="M19.2994 7.97607V0.123535H21.421V6.2627H24.4449V7.97607H19.2994Z" transform="translate(42 96)" fill="#C61C64"/>
    <path d="M26.2518 7.97607V0.123535H28.3841V7.97607H26.2518Z" transform="translate(42 96)" fill="#C61C64"/>
    <path d="M37.9844 4.03906C37.9844 5.36035 37.6603 6.36475 37.0122 7.05225C36.3641 7.73975 35.4152 8.0835 34.1655 8.0835C32.9338 8.0835 31.9884 7.73796 31.3296 7.04688C30.6743 6.35579 30.3467 5.34961 30.3467 4.02832C30.3467 2.72135 30.6725 1.72412 31.3242 1.03662C31.9795 0.34554 32.9302 0 34.1763 0C35.4259 0 36.373 0.34196 37.0176 1.02588C37.6621 1.7098 37.9844 2.71419 37.9844 4.03906ZM32.5811 4.03906C32.5811 5.55729 33.1092 6.31641 34.1655 6.31641C34.7026 6.31641 35.1001 6.132 35.3579 5.76318C35.6193 5.39437 35.75 4.81966 35.75 4.03906C35.75 3.25488 35.6175 2.6766 35.3525 2.3042C35.0911 1.92822 34.6991 1.74023 34.1763 1.74023C33.1128 1.74023 32.5811 2.50651 32.5811 4.03906Z"
          transform="translate(42 96)" fill="#C61C64"/>
    <path d="M47.4289 7.97607H44.6467L41.7785 2.44385H41.7302C41.7982 3.31396 41.8322 3.97819 41.8322 4.43652V7.97607H39.9523V0.123535H42.7238L45.5813 5.58057H45.6135C45.5633 4.78923 45.5383 4.15365 45.5383 3.67383V0.123535H47.4289V7.97607Z"
          transform="translate(42 96)" fill="#C61C64"/>
    <defs>
        <linearGradient id="paint0_linear" x2="1" gradientUnits="userSpaceOnUse" gradientTransform="matrix(-37.6125 92.9672 -143.894 -58.4907 169.841 29.3763)">
            <stop offset="0.0160731" stop-color="#A653FA"/>
            <stop offset="1" stop-color="#7DF3FF"/>
        </linearGradient>
        <linearGradient id="paint1_linear" x2="1" gradientUnits="userSpaceOnUse" gradientTransform="translate(44.395 -13.4316) scale(51.0455 51.1655) rotate(90.074)">
            <stop stop-color="#7122BF"/>
            <stop offset="1" stop-color="#FFBF94"/>
        </linearGradient>
        <linearGradient id="paint2_linear" x2="1" gradientUnits="userSpaceOnUse" gradientTransform="translate(67.6404) scale(67.6404 67.5704) rotate(90)">
            <stop stop-color="#F3F6F8"/>
            <stop offset="1" stop-color="white"/>
        </linearGradient>
        <linearGradient id="paint3_linear" x2="1" gradientUnits="userSpaceOnUse" gradientTransform="matrix(104.592 -24.2707 47.5091 207.765 -21.1943 -73.3043)">
            <stop stop-color="#FFB155"/>
            <stop offset="1" stop-color="#E424A4"/>
        </linearGradient>
        <linearGradient id="paint4_linear" x2="1" gradientUnits="userSpaceOnUse" gradientTransform="translate(74.1422) scale(74.1422 73.4082) rotate(90)">
            <stop stop-color="#09286C"/>
            <stop offset="1" stop-color="#0D4FCC"/>
        </linearGradient>
        <linearGradient id="paint5_linear" x2="1" gradientUnits="userSpaceOnUse" gradientTransform="matrix(8.72881 12.7352 -7.77632 5.36254 7.68893 0.183387)">
            <stop stop-color="#014AC9"/>
            <stop offset="1" stop-color="#014AC9"/>
        </linearGradient>
        <linearGradient id="paint6_linear" x2="1" gradientUnits="userSpaceOnUse" gradientTransform="matrix(5.6049 20.9674 -10.0508 13.9407 12.4791 1.40073)">
            <stop stop-color="#012D71"/>
            <stop offset="1" stop-color="#012D71" stop-opacity="0"/>
        </linearGradient>
        <linearGradient id="paint7_linear" x2="1" gradientUnits="userSpaceOnUse" gradientTransform="translate(3426.41 12778.3) scale(1187.83 2083.11) rotate(-90)">
            <stop stop-color="#8CFF55" stop-opacity="0"/>
            <stop offset="0.4" stop-color="#537E44" stop-opacity="0.54"/>
            <stop offset="0.75" stop-color="#302E39" stop-opacity="0.88"/>
            <stop offset="1" stop-color="#231235"/>
        </linearGradient>
        <linearGradient id="paint8_linear" x2="1" gradientUnits="userSpaceOnUse" gradientTransform="translate(67.6547) scale(67.6547 60.7661) rotate(90)">
            <stop stop-color="#0195FA"/>
            <stop offset="1" stop-color="#3778C1"/>
        </linearGradient>
        <linearGradient id="paint9_linear" x2="1" gradientUnits="userSpaceOnUse" gradientTransform="matrix(31.0799 25.6031 -25.3331 30.9402 31.059 5.0577)">
            <stop stop-color="#0195FA"/>
            <stop offset="1" stop-color="#0195FA" stop-opacity="0"/>
        </linearGradient>
        <linearGradient id="paint10_linear" x2="1" gradientUnits="userSpaceOnUse" gradientTransform="matrix(22.2806 36.7027 -39.954 24.4027 49.6069 2.45193)">
            <stop stop-color="#012D71"/>
            <stop offset="1" stop-color="#012D71" stop-opacity="0"/>
        </linearGradient>
        <linearGradient id="paint11_linear" x2="1" gradientUnits="userSpaceOnUse" gradientTransform="translate(6039.56 7434.14) scale(4419.3 4051.89) rotate(-90)">
            <stop stop-color="#1315B8"/>
            <stop offset="1" stop-color="#93E4FF"/>
        </linearGradient>
        <linearGradient id="paint12_linear" x2="1" gradientUnits="userSpaceOnUse" gradientTransform="matrix(14.2329 22.6821 -19.1435 12.0859 9.49738 -6.01664)">
            <stop stop-color="#0195FA" stop-opacity="0"/>
            <stop offset="1" stop-color="#1E85DC"/>
        </linearGradient>
        <linearGradient id="paint13_linear" x2="1" gradientUnits="userSpaceOnUse" gradientTransform="matrix(23.8203 14.8768 -21.026 33.8721 12.6566 -13.039)">
            <stop stop-color="#0D37B7"/>
            <stop offset="1" stop-color="#0171C7"/>
        </linearGradient>
        <linearGradient id="paint14_linear" x2="1" gradientUnits="userSpaceOnUse" gradientTransform="translate(5153.83 3941.55) scale(1606.31 1941.71) rotate(180)">
            <stop stop-color="#1315B8"/>
            <stop offset="1" stop-color="#93E4FF"/>
        </linearGradient>
        <linearGradient id="paint15_linear" x2="1" gradientUnits="userSpaceOnUse" gradientTransform="translate(2850.75 6833.27) scale(81.0034 87.6814) rotate(180)">
            <stop stop-color="#1315B8"/>
            <stop offset="1" stop-color="#0071C7"/>
        </linearGradient>
    </defs>
</svg>
