<svg width="168px" height="104px" viewBox="0 0 168 104" version="1.1" xmlns="http://www.w3.org/2000/svg" xmlns:xlink="http://www.w3.org/1999/xlink">
    <defs>
        <linearGradient x1="99.4502502%" y1="-0.00941732959%" x2="99.4502502%" y2="98.4544626%" id="linearGradient-1">
            <stop stop-color="#62F7FF" offset="0%"></stop>
            <stop stop-color="#AB4FFF" offset="100%"></stop>
        </linearGradient>
        <path d="M153.912476,67.3908188 C156.256476,30.2161311 116.906476,14.3477163 83.0601754,16.9166215 C-1.37672557,23.3253834 -1.06372556,105.560306 34.0496748,119.200102 C58.2063751,128.584099 69.6133752,96.3349093 89.0577755,95.5337096 C108.502176,94.7325098 150.982476,113.859104 153.912476,67.3908188 Z"
              id="path-2"></path>
        <linearGradient x1="132.798341%" y1="80.2581576%" x2="87.1215313%" y2="176.873585%" id="linearGradient-4">
            <stop stop-color="#0E4EC3" offset="0%"></stop>
            <stop stop-color="#09296F" offset="100%"></stop>
        </linearGradient>
        <linearGradient x1="118.032309%" y1="-35.6266627%" x2="117.857029%" y2="100.087334%" id="linearGradient-5">
            <stop stop-color="#7122BF" offset="0%"></stop>
            <stop stop-color="#FFBF94" offset="100%"></stop>
        </linearGradient>
        <linearGradient x1="-8.45666177%" y1="29.8085899%" x2="-11.779821%" y2="-87.3744235%" id="linearGradient-6">
            <stop stop-color="#FFFFFF" offset="0%"></stop>
            <stop stop-color="#CAD2E3" offset="100%"></stop>
        </linearGradient>
        <linearGradient x1="5.51996332%" y1="-862.578954%" x2="97.8655068%" y2="-862.578954%" id="linearGradient-7">
            <stop stop-color="#B9005F" offset="0%"></stop>
            <stop stop-color="#FF9F7C" offset="98.4867%"></stop>
        </linearGradient>
        <linearGradient x1="-21.748601%" y1="-173.681083%" x2="85.5787783%" y2="-231.186024%" id="linearGradient-8">
            <stop stop-color="#FF9F2E" offset="0%"></stop>
            <stop stop-color="#C83697" offset="100%"></stop>
        </linearGradient>
        <linearGradient x1="154.895988%" y1="142.328145%" x2="36.2798058%" y2="225.883339%" id="linearGradient-9">
            <stop stop-color="#93E5FF" offset="0%"></stop>
            <stop stop-color="#0692F5" offset="100%"></stop>
        </linearGradient>
        <linearGradient x1="78.2933671%" y1="101.892905%" x2="28.7256952%" y2="60.5095924%" id="linearGradient-10">
            <stop stop-color="#B273EB" offset="0%"></stop>
            <stop stop-color="#7942BB" offset="100%"></stop>
        </linearGradient>
    </defs>
    <g id="Welcome" stroke="none" stroke-width="1" fill="none" fill-rule="evenodd">
        <g id="Home" transform="translate(-520.000000, -1284.000000)">
            <g id="data-analytics" transform="translate(510.000000, 1278.000000)">
                <path d="M154.141067,67.4924491 C161.895067,31.0612611 117.135066,14.4493066 83.288766,17.0182157 C-1.14813499,23.4269736 -0.835134982,105.661836 34.2782654,119.302332 C58.4349657,128.685329 69.4786658,96.5341395 88.923066,95.7329398 C108.367466,94.93174 146.919067,101.424038 154.141067,67.4924491 Z"
                      id="Path" fill="url(#linearGradient-1)" transform="translate(83.531608, 68.888600) scale(-1, 1) rotate(14.986289) translate(-83.531608, -68.888600) "></path>
                <g id="Clipped" transform="translate(1.000000, 0.000000)">
                    <mask id="mask-3" fill="white">
                        <use xlink:href="#path-2"></use>
                    </mask>
                    <g id="Path" transform="translate(82.909925, 68.779869) scale(-1, 1) rotate(14.986289) translate(-82.909925, -68.779869) "></g>
                    <path d="M113.992075,52.7195156 C107.220575,49.2552167 111.170675,41.9876691 113.992075,38.2221204 C104.963375,43.9332085 86.7179249,54.526915 85.9655348,55.7319146 C85.0250548,57.2381141 82.7678838,73.0535089 82.2035923,74.7480083 C81.6393008,76.4425078 105.339575,113.909695 106.279975,114.286295 C107.032375,114.587495 132.425575,115.541495 145.028076,115.980795 C156.940876,105.437198 187.198676,93.6226021 180.202176,84.726705 C173.242576,75.877608 162.521076,92.0695026 155.937676,87.7391041 C150.351376,84.0646053 151.987676,71.5472094 141.830375,81.902506 C131.673175,92.2578026 130.544575,79.2290069 127.911175,77.3839075 C124.149275,74.7480083 111.922975,80.1325066 111.922975,73.8066086 C111.922975,72.676909 112.487275,69.66451 118.506375,65.5224114 C124.525475,61.3803127 122.456475,57.0499142 113.992075,52.7195156 Z"
                          id="Path" fill="url(#linearGradient-4)" mask="url(#mask-3)" transform="translate(131.716508, 77.101458) scale(-1, 1) rotate(14.986289) translate(-131.716508, -77.101458) "></path>
                </g>
                <ellipse id="Oval" fill="url(#linearGradient-5)" cx="36.6714" cy="26.3234" rx="20.242" ry="20.298"></ellipse>
                <rect id="Rectangle" fill="url(#linearGradient-6)" x="38.3613" y="11.2976" width="90.5563" height="79.0554" rx="3.76375"></rect>
                <path d="M57.0063,19.528149 C57.0063,19.112417 57.343317,18.7754 57.759049,18.7754 L111.6527,18.7754 C112.0684,18.7754 112.4054,19.112417 112.4054,19.528149 L112.4054,30.3083 C112.4054,30.724 112.0684,31.061 111.6527,31.061 L57.759049,31.061 C57.343317,31.061 57.0063,30.724 57.0063,30.3083 L57.0063,19.528149 Z"
                      id="Path" fill="url(#linearGradient-7)"></path>
                <path d="M21.8843,69.8559 C23.76513,73.0569 33.2489,83.8683 45.5828,81.9064 C65.4462,78.7468 58.6727,39.2859 78.3092,39.54113 C88.8419,39.67803 90.722,63.0774 104.4528,63.0774 C118.1829,63.0774 114.045,42.36537 136.4273,32.7625"
                      id="Path" stroke="url(#linearGradient-8)" stroke-width="3.76375"></path>
                <g id="Group" opacity="0.6" style="mix-blend-mode: darken;" transform="translate(52.287100, 48.952100)" fill="#E3E7F0">
                    <path d="M6.27434,41.398 L0,41.398 C2.55657,40.1825 4.52006,38.0687 6.17074,35.2969 C8.46815,31.4384 10.023,26.5358 11.6398,21.4376 L11.7098,21.2162 C13.3111,16.168 14.9974,10.8899 17.6043,6.91781 C20.2933,2.82026 24.0906,-0.0728887 29.8051,0.00139826 C33.2279,0.0458969 35.7874,2.00751 37.8135,4.40271 C39.5415,6.4456 41.0859,9.05484 42.5709,11.5637 C42.8043,11.9583 43.0365,12.3503 43.2676,12.7376 C45.0246,15.6804 46.7638,18.4062 48.8342,20.4075 C50.8548,22.3607 53.1017,23.5375 55.9243,23.5375 C58.7677,23.5375 60.5944,22.5129 62.171,20.7701 C63.6895,19.0917 64.9208,16.8219 66.4468,14.0093 L66.5083,13.8956 C66.6738,13.5908 66.8428,13.2793 67.0162,12.9615 C69.2429,8.87942 71.9756,4.18316 76.6292,0.00213377 L76.6292,5.33093 C73.886,8.41127 71.9954,11.6909 70.3176,14.7665 C70.1436,15.085 69.9708,15.4045 69.798,15.7241 L69.7432,15.8252 C68.2667,18.5547 66.8031,21.26 64.9592,23.2981 C62.7507,25.7389 59.9458,27.3033 55.9243,27.3033 C51.8814,27.3033 48.7442,25.5554 46.2214,23.1168 C43.7484,20.7263 41.7846,17.5938 40.0388,14.6698 C39.8178,14.2998 39.6005,13.9335 39.3863,13.572 L39.3145,13.451 C37.8102,10.9131 36.4492,8.61684 34.9429,6.83616 C33.2251,4.80541 31.5998,3.79077 29.7563,3.76686 C25.6526,3.71354 22.9327,5.65713 20.7483,8.9857 C18.4816,12.4393 16.9381,17.176 15.2952,22.3559 L15.1554,22.7972 C13.5942,27.7226 11.9258,32.9863 9.40177,37.225 C8.49699,38.7446 7.46675,40.1586 6.27434,41.398 Z"
                          id="Path"></path>
                </g>
                <path d="M45.959,57.0525 C58.7487,57.0525 61.9867,77.388 81.1306,77.388 C100.2744,77.388 94.6725,37.47013 117.6187,33.7043" id="Path" stroke="url(#linearGradient-9)" stroke-width="3.76375"></path>
                <g id="Group" opacity="0.6" style="mix-blend-mode: darken;" transform="translate(38.361300, 43.143100)" fill="#E3E7F0">
                    <path d="M0,34.3014 L0,28.0084 C0.617148,27.3718 1.27783,26.7856 1.9881,26.259 C4.53787,24.3679 7.61682,23.3235 11.3574,23.3235 C15.1137,23.3235 18.1151,24.8365 20.7251,26.9084 C22.7672,28.5299 24.6846,30.5955 26.5605,32.6167 L26.6167,32.6774 C27.0553,33.1496 27.4917,33.62 27.927,34.0808 C32.6546,39.0867 37.7759,43.659 46.5289,43.659 C50.4867,43.659 53.2103,41.6698 55.5135,38.203 C57.7619,34.8192 59.4339,30.2859 61.2714,25.3035 L61.5831,24.4592 C63.5019,19.2653 65.6258,13.6923 68.789,9.18951 C72,4.61829 76.3546,1.04369 82.7127,0 L83.3214,3.71655 C78.2064,4.55577 74.6565,7.38309 71.8659,11.3556 C69.0276,15.3965 67.0531,20.5091 65.1111,25.7654 L64.7434,26.7632 C62.966,31.5885 61.1492,36.5208 58.6458,40.2889 C56.3303,43.7738 53.2995,46.4529 49.0438,47.2093 L43.09,47.2093 C34.7491,46.1355 29.5041,41.2322 25.1936,36.6676 C24.681,36.1248 24.1865,35.593 23.7049,35.0745 C21.85,33.0783 20.1837,31.2851 18.3877,29.8593 C16.1954,28.1183 13.9958,27.0894 11.3574,27.0894 C8.37154,27.0894 6.08882,27.9043 4.2271,29.2849 C2.6102,30.4841 1.23154,32.1695 0,34.3014 Z"
                          id="Path"></path>
                </g>
                <ellipse id="Oval" fill="#BA0360" cx="78.07118" cy="39.50061" rx="2.39708" ry="2.40371"></ellipse>
                <path d="M83.764,39.541 C83.764,42.66224 81.23683,45.1904 78.12209,45.1904 C75.00735,45.1904 72.48022,42.66224 72.48022,39.541 C72.48022,36.41976 75.00735,33.89162 78.12209,33.89162 C81.23683,33.89162 83.764,36.41976 83.764,39.541 Z"
                      id="Path" stroke="#BA0360" stroke-width="2.25825"></path>
                <ellipse id="Oval" fill="#FF9F2E" cx="88.60168" cy="74.33348" rx="2.39708" ry="2.47048"></ellipse>
                <path d="M94.2942,74.37499 C94.2942,77.6296 91.73809,80.2127 88.65229,80.2127 C85.5665,80.2127 83.01042,77.6296 83.01042,74.37499 C83.01042,71.12038 85.5665,68.53732 88.65229,68.53732 C91.73809,68.53732 94.2942,71.12038 94.2942,74.37499 Z"
                      id="Path" stroke="#FF9F2E" stroke-width="2.25825"></path>
                <path d="M130.9749,38.906 C133.284,32.1577 130.591,24.49709 124.1976,20.7958 C116.9366,16.59197 107.65184,19.086652 103.45964,26.36806 C99.26708,33.6493 101.75514,42.9598 109.01618,47.1638 C115.2457,50.7704 122.9648,49.4465 127.6798,44.3997 L146.7474,55.4391 C147.1074,55.6472 147.567,55.524 147.7745,55.1636 L150.2192,50.9175 C150.4268,50.5571 150.3034,50.0961 149.9437,49.888 L130.9749,38.906 Z M121.2684,25.88427 C125.7269,28.46556 127.2547,34.1825 124.6803,38.6535 C122.1063,43.1245 116.4051,44.6562 111.9462,42.075 C107.48764,39.4937 105.96019,33.7767 108.53421,29.3057 C111.1086,24.8347 116.8095,23.3028 121.2684,25.88427 Z"
                      id="Shape" fill="url(#linearGradient-10)"></path>
                <g id="Group" opacity="0.6" style="mix-blend-mode: darken;" transform="translate(121.214831, 44.727124) rotate(-60.034273) translate(-121.214831, -44.727124) translate(105.714827, 18.227121)" fill="#E3E7F0">
                    <path d="M18.1481045,30.1013036 C25.1456063,28.7355034 30.4262076,22.5797027 30.4261076,15.1920018 C30.4261076,6.80161081 23.6151059,-0.000198593024 15.2131038,4.34885052e-09 C6.81111169,-0.000134794016 0.000104575026,6.80170081 0,15.1918018 C9.46495235e-05,22.3900027 5.01308125,28.4187034 11.7427029,29.9868036 L11.7427029,52.0217062 C11.7426029,52.4376062 12.079603,52.7744062 12.4954031,52.7745062 L17.3953043,52.7745062 C17.8111044,52.7745062 18.1481045,52.4374062 18.1481045,52.0217062 L18.1481045,30.1013036 Z M24.5555061,15.1934018 C24.5555061,20.3455024 20.3732051,24.5219029 15.2142038,24.5219029 C10.0551025,24.5218029 5.87299146,20.3453024 5.87291146,15.1933018 C5.87297146,10.0415012 10.0553025,5.86503069 15.2142038,5.86485069 C20.3733051,5.86489069 24.5554061,10.0414012 24.5555061,15.1934018 Z"
                          id="Shape"></path>
                </g>
            </g>
        </g>
    </g>
</svg>