<svg width="180" height="180" viewBox="0 0 180 180" fill="none" xmlns="http://www.w3.org/2000/svg">
    <path d="M5.11055 70.1465C22.7039 88.9764 45.9346 70.9278 65.0766 79.5601C90.3512 90.9578 99.7673 109.841 125.537 98.1458C157.75 83.527 146.847 1.51321 69.0416 0.0265523C-8.76409 -1.46011 -4.43028 59.935 5.11055 70.1465Z"
          transform="translate(18.4929 39.2837)" fill="url(#paint0_linear)"/>
    <ellipse cx="21.8054" cy="21.8043" rx="21.8054" ry="21.8043" transform="translate(7 34)" fill="url(#paint1_linear)"/>
    <path fill-rule="evenodd" clip-rule="evenodd"
          d="M52.4587 0C53.5515 4.58301 53.989 9.24658 52.4558 11.0156C50.814 12.9097 48.1802 11.8945 45.7104 10.9424C43.3345 10.0264 41.1104 9.16846 40.0664 11.0156C38.4839 13.8154 40.3704 18.5293 42.1409 22.9531C43.9739 27.5337 45.6826 31.8032 43.2876 33.3154C41.8411 34.229 39.2712 32.9902 36.6211 31.7129C30.6465 28.8325 24.2622 25.7554 29.4116 46.6953C31.8469 56.5986 26.8345 54.7866 21.9771 53.0308C19.5632 52.1582 17.1877 51.2993 15.7832 51.8984C13.6025 52.8291 12.4304 54.0142 11.3875 55.0693C9.43945 57.0396 7.94165 58.5542 1.16357 57.1021C0.642334 56.9902 0.258057 56.9482 0 56.9692C2.02466 58.2612 3.95508 59.5513 5.82446 60.7998C18.7922 69.4624 28.8079 76.1528 46.7585 68.0063C66.3047 59.1357 69.9761 25.4512 52.4587 0Z"
          transform="translate(97.2712 69.4233)" fill="url(#paint2_linear)"/>
    <path d="M1.29844 0C0.504684 0.66523 0 1.66485 0 2.78171V30.7115C0 32.7146 1.62309 34.3387 3.62537 34.3387H50.3926C51.2784 34.3387 52.0899 34.021 52.7195 33.4932L1.29844 0Z" transform="translate(95.2056 43.4756)" fill="url(#paint3_linear)"/>
    <path d="M51.4211 0C52.2148 0.66523 52.7195 1.66485 52.7195 2.78171V30.7115C52.7195 32.7146 51.0964 34.3387 49.0942 34.3387H2.32693C1.44112 34.3387 0.62966 34.021 0 33.4932L51.4211 0Z" transform="translate(96.5024 43.4756)"
          fill="url(#paint4_linear)"/>
    <path opacity="0.7" d="M1.29844 0C0.504684 0.66523 0 1.66485 0 2.78171V30.7115C0 32.7146 1.62309 34.3387 3.62537 34.3387H50.3926C51.2784 34.3387 52.0899 34.021 52.7195 33.4932L1.29844 0Z" transform="translate(95.2056 43.4756)"
          fill="url(#paint5_linear)"/>
    <path d="M53.7857 2.71299L28.401 19.3256C27.4849 19.9251 26.3008 19.9251 25.3847 19.3256L0 2.71299C0.405021 1.15229 1.8226 0 3.50924 0H50.2765C51.9631 0 53.3807 1.15229 53.7857 2.71299Z" transform="translate(95.3215 42.6304)"
          fill="url(#paint6_linear)"/>
    <path d="M0 0L84.0745 0.0843448V6.02214C84.0745 7.96523 82.4983 9.53987 80.5552 9.53792L3.51225 9.46063C1.57192 9.45868 0 7.88519 0 5.94485V0Z" transform="translate(112.882 111.179) scale(-1 1)" fill="url(#paint7_linear)"/>
    <path d="M0 0H87.5469L87.5556 5.5077C87.5586 7.45158 85.9837 9.02904 84.0398 9.02904H3.51578C1.57407 9.02904 0 7.45497 0 5.51326V0Z" transform="translate(154.188 111.693) scale(-1 1)" fill="url(#paint8_linear)"/>
    <path d="M0 3.08053C0 1.38159 1.37722 0.00430306 3.07616 0.00421908L84.5914 0.000189649C86.2905 0.000105661 87.6679 1.37744 87.6679 3.0765V61.835L0 61.8393V3.08053Z" transform="translate(116.474 49.8569) scale(-1 1)" fill="url(#paint9_linear)"/>
    <path d="M0 0.623914C0 0.279336 0.279336 0 0.623914 0H78.1682C78.5128 0 78.7922 0.279336 78.7922 0.623914V52.4814C78.7922 52.826 78.5128 53.1053 78.1682 53.1053H0.623914C0.279335 53.1053 0 52.826 0 52.4814V0.623914Z"
          transform="translate(112.615 53.7095) scale(-1 1)" fill="url(#paint10_linear)"/>
    <path opacity="0.3" d="M0 15.3348C7.40132 13.0883 18.7846 12.0061 35.7408 13.9399C55.0729 16.145 69.1744 9.18394 78.7921 0V34.7309H0V15.3348Z" transform="translate(33.8228 72.0845)" fill="url(#paint11_linear)"/>
    <path opacity="0.6" d="M0 0H24.3297L23.2633 2.48309C22.9681 3.17063 22.2917 3.61626 21.5435 3.61626H2.7862C2.03794 3.61626 1.36159 3.17063 1.06633 2.48309L0 0Z" transform="translate(102.391 111.693)" fill="#FC60BF"/>
    <path fill-rule="evenodd" clip-rule="evenodd"
          d="M43.4744 19.3832C43.4054 18.7702 42.6906 18.3096 42.0725 18.3096C40.0742 18.3096 38.3009 17.1363 37.5573 15.3218C36.7975 13.4633 37.2874 11.2959 38.7767 9.92986C39.2455 9.50134 39.3025 8.78401 38.9093 8.28572C37.8865 6.98703 36.724 5.81392 35.4548 4.79722C34.9577 4.3984 34.2285 4.45389 33.7975 4.93108C32.4978 6.37045 30.163 6.90541 28.3589 6.15271C26.4815 5.36301 25.2976 3.46072 25.4135 1.41873C25.4516 0.777335 24.9828 0.219662 24.3433 0.145187C22.7145 -0.0431919 21.0713 -0.0490331 19.4376 0.132207C18.8054 0.201977 18.3366 0.746507 18.3579 1.37979C18.429 3.40166 17.2308 5.27068 15.372 6.03199C13.5895 6.76003 11.2712 6.22961 9.97399 4.80306C9.54528 4.33317 8.8279 4.27541 8.32843 4.66466C7.02153 5.68995 5.83292 6.86404 4.80073 8.15202C4.39814 8.65274 4.45737 9.37851 4.93087 9.8093C6.44856 11.1836 6.93861 13.3698 6.15015 15.2497C5.39739 17.042 3.53618 18.1971 1.40544 18.1971C0.714013 18.1749 0.22153 18.6389 0.145913 19.2675C-0.0458878 20.9056 -0.0481596 22.5748 0.136501 24.2262C0.204978 24.8418 0.941513 25.2984 1.56641 25.2984C3.46527 25.2499 5.28835 26.4254 6.05311 28.2863C6.81545 30.1448 6.3254 32.3109 4.83383 33.6781C4.36731 34.1066 4.30809 34.8228 4.70126 35.3211C5.71446 36.6115 6.87711 37.7858 8.15091 38.8109C8.65054 39.2134 9.3775 39.1567 9.81059 38.6795C11.1152 37.2365 13.4498 36.7025 15.2467 37.4567C17.1289 38.244 18.3128 40.1461 18.1969 42.1892C18.1591 42.8309 18.6302 43.3896 19.2671 43.4629C20.1003 43.5601 20.9386 43.6086 21.7791 43.6086C22.577 43.6086 23.3751 43.5648 24.1729 43.4761C24.8053 43.4063 25.2737 42.8618 25.2525 42.2274C25.1793 40.2066 26.3796 38.3376 28.236 37.5776C30.0305 36.8447 32.3391 37.3811 33.6364 38.8062C34.0675 39.2751 34.7799 39.3317 35.2821 38.9438C36.5866 37.9209 37.7728 36.7478 38.8098 35.4563C39.2122 34.9567 39.1554 34.2298 38.6795 33.7991C37.1618 32.4248 36.6693 30.2383 37.4578 28.3597C38.199 26.5912 39.9911 25.4039 41.9187 25.4039L42.1884 25.4108C42.8136 25.4616 43.3889 24.9801 43.4646 24.3419C43.6568 22.7023 43.659 21.0346 43.4744 19.3832ZM21.84 29.1234C17.8291 29.1234 14.5665 25.8611 14.5665 21.8505C14.5665 17.84 17.8291 14.5775 21.84 14.5775C25.8508 14.5775 29.1133 17.84 29.1133 21.8505C29.1133 25.8611 25.8508 29.1234 21.84 29.1234Z"
          transform="translate(51.6028 58.2817)" fill="url(#paint12_linear)"/>
    <path opacity="0.8" fill-rule="evenodd" clip-rule="evenodd"
          d="M11.993 23.9847C18.6166 23.9847 23.986 18.6156 23.986 11.9924C23.986 5.3691 18.6166 0 11.993 0C5.36937 0 0 5.3691 0 11.9924C0 18.6156 5.36937 23.9847 11.993 23.9847ZM4.75396 12.0387C4.75396 16.0493 8.01652 19.3114 12.0276 19.3114C16.0384 19.3114 19.3009 16.0493 19.3009 12.0387C19.3009 8.0281 16.0384 4.76543 12.0276 4.76543C8.01652 4.76543 4.75396 8.0281 4.75396 12.0387Z"
          transform="translate(61.415 68.0938)" fill="url(#paint13_linear)"/>
    <path d="M20.0709 20.3177L19.95 19.3506C19.736 17.6382 18.2803 16.3532 16.5546 16.3532C14.6648 16.3532 13.1328 17.8852 13.1328 19.7751V3.46904C13.1328 1.55314 11.5797 0 9.66376 0C7.74786 0 6.19472 1.55314 6.19472 3.46904V21.061C5.91301 18.3848 3.65632 16.3532 0.965381 16.3532H0.424362C0.192192 16.3532 0.0060665 16.5453 0.0133949 16.7774L0.623061 36.0825C0.70022 38.5257 1.72517 40.8431 3.48092 42.5439L6.12359 45.1038C7.76198 46.6909 8.73925 48.8391 8.85914 51.117L9.16819 56.9886H28.0001V53.3293C28.0001 49.863 30.1037 46.299 31.4692 43.1131C34.8193 35.2966 34.5347 26.0822 34.1856 21.9797C34.0711 20.6349 33.1892 19.503 31.9453 18.9793C30.3442 18.3052 28.49 18.7762 27.4047 20.1327L27.2568 20.3177L27.1043 19.6063C26.7596 17.9979 25.3382 16.8488 23.6933 16.8488C22.1358 16.8488 20.767 17.8813 20.3391 19.3788L20.0709 20.3177Z"
          transform="translate(63.4973 79.5898)" fill="url(#paint14_linear)"/>
    <path d="M8.59203 23.2073H24.7634C23.8412 22.9977 22.7501 22.9353 21.6164 22.8709C17.9134 22.6604 13.7576 22.4238 13.5599 16.9306C13.3975 12.4169 9.53116 9.9909 5.6251 7.53976C2.65647 5.67708 1.21475 2.92686 0 0L0.0738043 2.33355C0.175436 5.55029 1.52497 8.60152 3.83661 10.8407L4.80551 11.7791C6.96253 13.8687 8.24938 16.6968 8.40715 19.6963L8.59203 23.2073Z"
          transform="translate(64.0088 112.133)" fill="url(#paint15_linear)"/>
    <path d="M1.75993 0.00241969L0 0.743329C1.65201 2.14723 4.60877 6.68996 3.22125 13.6277C3.10268 14.221 2.98629 14.7979 2.87304 15.3597C1.32993 23.0127 0.349421 27.8763 1.73452 32.9542C2.34891 35.2065 3.47412 37.8202 4.6124 40.1398H6.19472V36.4802C6.19472 33.7571 7.49295 30.974 8.71181 28.3607C9.04429 27.6479 9.37097 26.9471 9.66376 26.2643C13.014 18.4477 12.7294 9.23305 12.3802 5.13071C12.2658 3.78585 11.3838 2.6544 10.14 2.13078C8.53879 1.45617 6.68449 1.92753 5.5992 3.284L5.45135 3.46887L5.29891 2.75748C4.95432 1.14887 3.53293 0 1.88794 0C1.84511 0 1.80252 0.000967876 1.75993 0.00241969Z"
          transform="translate(85.3042 96.439)" fill="url(#paint16_linear)"/>
    <path d="M22.5488 11.8933L23.7877 11.1499L23.5401 2.97901L23.5399 2.96761V0.376375C23.5399 0.168509 23.3714 0 23.1636 0H1.93157C1.54008 0 1.21394 0.300091 1.18142 0.690234L0.992015 2.96299L0.990011 2.98361L0 11.8933L1.23894 12.6366C3.22125 13.7103 8.27615 15.7586 12.6372 15.3621C16.9983 14.9657 21.062 12.8844 22.5488 11.8933Z"
          transform="translate(69.4446 135.587)" fill="url(#paint17_linear)"/>
    <path d="M8.66801 0H2.15097C1.63555 0 1.20603 0.394894 1.1632 0.908836L0.992365 2.95977L0.989703 2.98687L0 11.8933L1.23894 12.6366C3.1051 13.6475 7.69404 15.5213 11.8639 15.4071C14.282 12.3685 15.9674 6.8966 15.1575 4.40722C14.4393 2.19901 11.7949 1.14355 10.0202 0.434576C9.58343 0.260359 9.1314 0.117597 8.66801 0Z"
          transform="translate(69.4446 135.587)" fill="url(#paint18_linear)"/>
    <defs>
        <linearGradient id="paint0_linear" x2="1" gradientUnits="userSpaceOnUse" gradientTransform="translate(141.724 -0.00959049) scale(138.641 100.266) rotate(90)">
            <stop stop-color="#62F7FF"/>
            <stop offset="1" stop-color="#AB4FFF"/>
        </linearGradient>
        <linearGradient id="paint1_linear" x2="1" gradientUnits="userSpaceOnUse" gradientTransform="translate(43.6108 3.87314) scale(44.2935 44.2913) rotate(100.072)">
            <stop stop-color="#FDD985"/>
            <stop offset="1" stop-color="#FF7B4A"/>
        </linearGradient>
        <linearGradient id="paint2_linear" x2="1" gradientUnits="userSpaceOnUse" gradientTransform="translate(63.7284) scale(63.7284 71.6907) rotate(90)">
            <stop stop-color="#0B1C7D"/>
            <stop offset="1" stop-color="#103FD0"/>
        </linearGradient>
        <linearGradient id="paint3_linear" x2="1" gradientUnits="userSpaceOnUse" gradientTransform="matrix(15.6366 34.9116 -54.3861 21.367 38.5654 -11.2564)">
            <stop stop-color="#7942BB"/>
            <stop offset="1" stop-color="#BA6EFF"/>
        </linearGradient>
        <linearGradient id="paint4_linear" x2="1" gradientUnits="userSpaceOnUse" gradientTransform="matrix(-44.5822 19.1784 32.4529 66.6723 49.5898 -27.9488)">
            <stop stop-color="#8A73F4"/>
            <stop offset="1" stop-color="#4572DC"/>
        </linearGradient>
        <linearGradient id="paint5_linear" x2="1" gradientUnits="userSpaceOnUse" gradientTransform="matrix(48.8966 41.2336 -66.4127 71.6786 33.2064 -39.5617)">
            <stop stop-color="#168AE4"/>
            <stop offset="1" stop-color="#BA6EFF"/>
        </linearGradient>
        <linearGradient id="paint6_linear" x2="1" gradientUnits="userSpaceOnUse" gradientTransform="matrix(0.247762 18.5832 -28.3964 0.378559 41.091 -0.18928)">
            <stop stop-color="#93E5FF"/>
            <stop offset="1" stop-color="#B273EC"/>
        </linearGradient>
        <linearGradient id="paint7_linear" x2="1" gradientUnits="userSpaceOnUse" gradientTransform="translate(22.2274 0.32058) scale(67.1593 7.25478) rotate(16.0323)">
            <stop stop-color="#772D83"/>
            <stop offset="1" stop-color="#D83699"/>
        </linearGradient>
        <linearGradient id="paint8_linear" x2="1" gradientUnits="userSpaceOnUse" gradientTransform="translate(26.2628 -0.0335197) scale(67.1594 7.25478) rotate(16.0323)">
            <stop stop-color="#772D83"/>
            <stop offset="1" stop-color="#FC60BF"/>
        </linearGradient>
        <linearGradient id="paint9_linear" x2="1" gradientUnits="userSpaceOnUse" gradientTransform="translate(26.3382 2.10051) scale(67.1594 47.4351) rotate(16.0323)">
            <stop stop-color="#772D83"/>
            <stop offset="1" stop-color="#FC60BF"/>
        </linearGradient>
        <linearGradient id="paint10_linear" x2="1" gradientUnits="userSpaceOnUse" gradientTransform="matrix(-54.8712 50.886 -75.4994 -81.0843 136.19 16.2877)">
            <stop stop-color="#EAEDF4"/>
            <stop offset="1" stop-color="white"/>
        </linearGradient>
        <linearGradient id="paint11_linear" x2="1" gradientUnits="userSpaceOnUse" gradientTransform="translate(78.7921) scale(78.7921 34.7309) rotate(90)">
            <stop stop-color="#C4C4C4"/>
            <stop offset="1" stop-color="#C4C4C4" stop-opacity="0"/>
        </linearGradient>
        <linearGradient id="paint12_linear" x2="1" gradientUnits="userSpaceOnUse" gradientTransform="translate(44.4781) scale(45.3454 45.3431) rotate(90)">
            <stop stop-color="#FF4A24"/>
            <stop offset="1" stop-color="#FFB732"/>
        </linearGradient>
        <linearGradient id="paint13_linear" x2="1" gradientUnits="userSpaceOnUse" gradientTransform="translate(23.986 2.13022) scale(24.3614 24.3602) rotate(100.072)">
            <stop stop-color="#FFD061"/>
            <stop offset="1" stop-color="#FF703B"/>
        </linearGradient>
        <linearGradient id="paint14_linear" x2="1" gradientUnits="userSpaceOnUse" gradientTransform="translate(34.3861) scale(34.3861 56.9886) rotate(90)">
            <stop stop-color="#FD60BF"/>
            <stop offset="1" stop-color="#6B21C0"/>
        </linearGradient>
        <linearGradient id="paint15_linear" x2="1" gradientUnits="userSpaceOnUse" gradientTransform="matrix(-11.3913 -20.5257 23.3977 -17.5494 3.64161 32.4373)">
            <stop stop-color="#6F23C2"/>
            <stop offset="1" stop-color="#8520BA"/>
        </linearGradient>
        <linearGradient id="paint16_linear" x2="1" gradientUnits="userSpaceOnUse" gradientTransform="matrix(-3.19725 -32.9797 12.7413 -27.1911 -1.16709 52.0009)">
            <stop stop-color="#7225C3" stop-opacity="0.46"/>
            <stop offset="1" stop-color="#8E30C0"/>
        </linearGradient>
        <linearGradient id="paint17_linear" x2="1" gradientUnits="userSpaceOnUse" gradientTransform="matrix(8.17703 8.67217 -15.4731 14.5882 19.6304 -2.58634)">
            <stop stop-color="#4C14A5"/>
            <stop offset="1" stop-color="#4C14A5"/>
        </linearGradient>
        <linearGradient id="paint18_linear" x2="1" gradientUnits="userSpaceOnUse" gradientTransform="matrix(-0.495578 12.3888 -15.1231 -0.528071 13.5085 -0.479294)">
            <stop stop-color="#B25BC9"/>
            <stop offset="1" stop-color="#4C14A5"/>
        </linearGradient>
    </defs>
</svg>
