<svg width="180" height="180" viewBox="0 0 180 180" fill="none" xmlns="http://www.w3.org/2000/svg">
    <path d="M3.02327 65.3314C-17.9846 18.0831 76.3762 -15.4001 104.628 7.24924C133.729 30.5792 125.727 66.5467 97.8383 81.1278C62.0631 99.8325 13.9369 89.8768 3.02327 65.3314Z" transform="translate(26.8279 55.1333)" fill="url(#paint0_linear)"/>
    <ellipse cx="18.4295" cy="18.4696" rx="18.4295" ry="18.4696" transform="translate(17 105.153)" fill="url(#paint1_linear)"/>
    <path d="M98.3853 15.1575C96.5774 28.9406 87.5915 41.6375 73.6013 48.9521C49.645 61.4772 20.1504 61.151 0 52.1983C3.53538 51.8766 7.48494 51.2264 10.5665 49.7995C13.6092 48.3906 16.2376 46.2326 18.6777 44.229C22.7557 40.881 26.3079 37.9647 30.3903 39.6964C43.935 45.4426 45.6695 38.2453 47.1765 31.9927C48.0075 28.5449 48.7692 25.3841 51.4036 24.839C53.5912 24.3863 55.8445 25.5293 58.4002 26.8257C61.9916 28.6472 66.1805 30.7721 71.624 29.1973C75.3602 28.1165 75.1188 23.3158 74.9056 19.0748C74.6888 14.7643 74.5013 11.032 78.5475 12.3706C85.6991 14.736 89.4431 14.4683 94.2232 10.576C96.6073 8.63494 97.0397 4.10858 97.3711 0.640633C97.3918 0.422553 97.4122 0.208886 97.4328 0C98.4037 3.71545 98.8144 7.46363 98.7055 11.164C98.6068 12.4431 98.4999 13.778 98.3853 15.1575Z"
          transform="translate(51.0652 87.3088)" fill="url(#paint2_linear)"/>
    <path d="M0 0.75275C0 0.337018 0.337018 0 0.75275 0H7.65253C8.06826 0 8.40528 0.337018 8.40528 0.75275V6.36823H0V0.75275Z" transform="translate(138.866 42.9397) scale(0.998912 1.00109) rotate(45)" fill="#96308B"/>
    <path d="M0 0.75275C0 0.337018 0.337018 0 0.75275 0H7.65253C8.06826 0 8.40528 0.337018 8.40528 0.75275V6.36823H0V0.75275Z" transform="translate(95.6858 42.9397) scale(-0.998912 1.00109) rotate(45)" fill="#99308C"/>
    <path d="M22.9164 0.753167C22.9164 0.337233 23.2532 0 23.6687 0H39.4677C39.8832 0 40.22 0.337233 40.22 0.753167V6.02533C40.22 6.44127 39.8832 6.7785 39.4677 6.7785H36.4584V9.35243C51.5249 11.7259 63.0483 24.7947 63.0483 40.5607C63.0483 58.0089 48.9347 72.1534 31.5241 72.1534C14.114 72.1534 0 58.0089 0 40.5607C0 24.764 11.5686 11.6752 26.6781 9.33882V6.7785H23.6687C23.2532 6.7785 22.9164 6.44127 22.9164 6.02533V0.753167Z"
          transform="translate(85.8662 33)" fill="url(#paint3_linear)"/>
    <path d="M3.93366 0C6.01727 4.24373 8.7004 12.0387 3.35141 16.5697C-2.43435 21.4706 -0.380127 55.8912 6.8372 72.0631C23.1259 70.8335 35.96 57.1993 35.96 40.5607C35.96 24.7947 24.4366 11.7259 9.37007 9.35243V6.7785H12.3794C12.7949 6.7785 13.1317 6.44126 13.1317 6.02533V0.753166C13.1317 0.337233 12.7949 0 12.3794 0H3.93366Z"
          transform="translate(112.955 33)" fill="url(#paint4_linear)"/>
    <ellipse cx="27.4601" cy="27.3023" rx="27.4601" ry="27.3023" transform="translate(89.9766 46.1807)" fill="url(#paint5_linear)"/>
    <path fill-rule="evenodd" clip-rule="evenodd"
          d="M20.8545 0.75275C20.8545 0.337017 21.1915 0 21.6072 0H23.9816C24.3973 0 24.7344 0.337017 24.7344 0.752749V4.59373C24.7344 5.00946 24.3973 5.34648 23.9816 5.34648H21.6072C21.1915 5.34648 20.8545 5.00946 20.8545 4.59373V0.75275ZM37.0079 5.85014C37.302 5.5554 37.7795 5.5554 38.0736 5.85014L39.7537 7.53391C40.0469 7.82774 40.0469 8.30346 39.7537 8.5973L37.0448 11.3121C36.7507 11.6069 36.2732 11.6069 35.9791 11.3121L34.299 9.62835C34.0058 9.33452 34.0058 8.85879 34.299 8.56496L37.0079 5.85014ZM44.8361 20.8999C45.2518 20.8999 45.5888 21.2369 45.5888 21.6526V24.0355C45.5888 24.4512 45.2518 24.7882 44.8361 24.7882H41.0067C40.591 24.7882 40.254 24.4512 40.254 24.0355V21.6526C40.254 21.2369 40.591 20.8999 41.0067 20.8999H44.8361ZM39.7537 37.0908C40.0469 37.3846 40.0469 37.8603 39.7537 38.1542L38.0736 39.8379C37.7795 40.1327 37.302 40.1327 37.0079 39.8379L34.299 37.1231C34.0058 36.8293 34.0058 36.3536 34.299 36.0597L35.9791 34.376C36.2732 34.0812 36.7507 34.0812 37.0448 34.376L39.7537 37.0908ZM24.7344 44.9353C24.7344 45.3511 24.3973 45.6881 23.9816 45.6881H21.6072C21.1915 45.6881 20.8545 45.3511 20.8545 44.9353V41.0943C20.8545 40.6786 21.1915 40.3416 21.6072 40.3416H23.9816C24.3973 40.3416 24.7344 40.6786 24.7344 41.0943V44.9353ZM8.58093 39.8379C8.28683 40.1327 7.80933 40.1327 7.51523 39.8379L5.83512 38.1542C5.54192 37.8603 5.54192 37.3846 5.83512 37.0908L8.54404 34.376C8.83814 34.0812 9.31565 34.0812 9.60975 34.376L11.2899 36.0597C11.5831 36.3536 11.5831 36.8293 11.2899 37.1231L8.58093 39.8379ZM0.752749 24.7882C0.337017 24.7882 0 24.4512 0 24.0355L0 21.6526C0 21.2369 0.337017 20.8999 0.752749 20.8999H4.58211C4.99785 20.8999 5.33486 21.2369 5.33486 21.6526V24.0355C5.33486 24.4512 4.99785 24.7882 4.58211 24.7882H0.752749ZM5.83512 8.5973C5.54192 8.30346 5.54192 7.82774 5.83512 7.53391L7.51523 5.85014C7.80933 5.5554 8.28683 5.5554 8.58093 5.85014L11.2899 8.56496C11.5831 8.85879 11.5831 9.33452 11.2899 9.62835L9.60975 11.3121C9.31565 11.6069 8.83814 11.6069 8.54404 11.3121L5.83512 8.5973Z"
          transform="translate(94.5999 50.7168)" fill="url(#paint6_linear)"/>
    <g opacity="0.45" transform="translate(85.866 66.27)">
        <path fill-rule="evenodd" clip-rule="evenodd" d="M0.843506 0H18.8196C21.5505 0 23.7644 1.88843 23.7644 4.21777V37.9192C10.1062 34.4546 0 22.0554 0 7.29077C0 4.78149 0.291748 2.34033 0.843506 0Z" fill="#E3E7F0"
              style="mix-blend-mode:multiply"/>
    </g>
    <rect width="75.1731" height="51.0346" rx="3.76375" transform="translate(29.6106 71.1301)" fill="url(#paint7_linear)"/>
    <ellipse cx="12.1247" cy="12.1511" rx="12.1247" ry="12.1511" transform="translate(37.3708 75.5046)" fill="white"/>
    <path d="M5.34046 15.2585C5.34046 16.7332 4.14496 17.9287 2.67023 17.9287C1.1955 17.9287 0 16.7332 0 15.2585C0 13.7837 1.1955 0 2.67023 0C4.14496 0 5.34046 13.7837 5.34046 15.2585Z"
          transform="translate(125.72 61.4988) scale(0.998912 1.00109) rotate(45)" fill="#CF3699"/>
    <path d="M7.76016 19.9278C4.97488 19.9278 2.26447 18.9518 0.128542 17.1792C0.0335157 17.101 -0.0132774 16.9793 0.00328023 16.8577C0.0198378 16.7361 0.0997456 16.6322 0.212049 16.5824C0.509366 16.4508 0.8362 16.3185 1.20263 16.1869C3.09667 15.5055 4.0311 14.9065 4.4328 14.0793C0.892352 13.2079 0.474812 11.0497 0.458254 10.9544C0.434498 10.8143 0.496408 10.6734 0.616631 10.5959C0.687901 10.5497 2.38326 9.40159 2.38326 6.46239C2.38326 3.26641 3.02252 0 7.76016 0C12.4978 0 13.1371 3.26712 13.1371 6.46239C13.1371 9.40159 14.8324 10.5497 14.9051 10.5973C15.0232 10.6749 15.0858 10.8164 15.0621 10.9544C15.0455 11.049 14.6272 13.2079 11.0875 14.0793C11.4899 14.9065 12.4236 15.5048 14.317 16.1869C14.6834 16.3185 15.011 16.4508 15.3075 16.5831C15.4206 16.6336 15.4998 16.7375 15.5163 16.8584C15.5329 16.9793 15.4861 17.101 15.3911 17.1799C13.2566 18.9518 10.5462 19.9278 7.76016 19.9278Z"
          transform="translate(41.7356 79.8794)" fill="url(#paint8_linear)"/>
    <rect width="59.6535" height="9.72087" transform="translate(37.3708 106.612)" fill="#7D93F3"/>
    <path d="M0 29.6751C3.11421 28.8689 7.17049 28.93 12.4054 30.408C34.4111 36.6216 48.7055 28.1485 52.8433 18.5456C55.3949 12.624 59.8777 4.41088 68.8054 0H71.4113C73.4889 0 75.173 1.68617 75.173 3.76583V47.2686C75.173 49.3486 73.4889 51.0344 71.4113 51.0344H3.76166C1.68412 51.0344 0 49.3486 0 47.2686V29.6751Z"
          transform="translate(29.6106 71.1301)" fill="url(#paint9_linear)"/>
    <path d="M0 0.752749C0 0.337017 0.337017 0 0.752749 0H31.8255C32.2413 0 32.5783 0.337017 32.5783 0.752749V8.06485C32.5783 8.48058 32.2413 8.8176 31.8255 8.8176H0.75275C0.337018 8.8176 0 8.48058 0 8.06485V0.752749Z"
          transform="translate(64.6658 78.9072)" fill="white"/>
    <path d="M0 0.75275C0 0.337018 0.337017 0 0.752749 0H59.1208C59.5366 0 59.8736 0.337017 59.8736 0.752749V12.4737C59.8736 12.8894 59.5366 13.2264 59.1208 13.2264H0.75275C0.337018 13.2264 0 12.8894 0 12.4737V0.75275Z"
          transform="translate(37.3708 104.919)" fill="#FCFCFC"/>
    <path d="M0 0.752749C0 0.337017 0.337017 0 0.752749 0H19.9389C20.3546 0 20.6916 0.337017 20.6916 0.752749V3.65605C20.6916 4.07178 20.3546 4.4088 19.9389 4.4088H0.75275C0.337018 4.4088 0 4.07178 0 3.65605V0.752749Z"
          transform="translate(64.6658 91.2524)" fill="white"/>
    <path opacity="0.2"
          d="M59.8737 1.19019V8.46897C59.8737 9.00628 59.4394 9.44106 58.9037 9.44106H0.969975C0.43431 9.44106 0 9.00628 0 8.46897V2.79831C3.73095 0.276009 10.1246 -1.35584 19.9176 1.53811C36.8058 6.5286 50.9876 7.45037 59.8737 1.19019Z"
          transform="translate(37.3708 108.674)" fill="#C4C4C4"/>
    <defs>
        <linearGradient id="paint0_linear" x2="1" gradientUnits="userSpaceOnUse" gradientTransform="translate(122.96) scale(120.285 89.5139) rotate(90)">
            <stop stop-color="#62F7FF"/>
            <stop offset="1" stop-color="#AB4FFF"/>
        </linearGradient>
        <linearGradient id="paint1_linear" x2="1" gradientUnits="userSpaceOnUse" gradientTransform="translate(33.3429 2.79475) scale(33.265 33.3374) rotate(87.075)">
            <stop stop-color="#FF7446"/>
            <stop offset="1" stop-color="#FEDF89"/>
        </linearGradient>
        <linearGradient id="paint2_linear" x2="1" gradientUnits="userSpaceOnUse" gradientTransform="matrix(-45.0933 56.6812 -95.0595 -90.1803 131.102 47.0849)">
            <stop stop-color="#0E4EC3"/>
            <stop offset="1" stop-color="#09296F"/>
        </linearGradient>
        <linearGradient id="paint3_linear" x2="1" gradientUnits="userSpaceOnUse" gradientTransform="translate(63.0484 8.96776) scale(63.0484 63.1856) rotate(90)">
            <stop stop-color="#8B2F88"/>
            <stop offset="1" stop-color="#D6379A"/>
        </linearGradient>
        <linearGradient id="paint4_linear" x2="1" gradientUnits="userSpaceOnUse" gradientTransform="translate(35.96) scale(35.96 72.0631) rotate(90)">
            <stop stop-color="#C93698"/>
            <stop offset="1" stop-color="#99308C"/>
        </linearGradient>
        <linearGradient id="paint5_linear" x2="1" gradientUnits="userSpaceOnUse" gradientTransform="translate(44.8246 14.3203) scale(31.0173 30.839) rotate(93.4833)">
            <stop stop-color="#F6F7FB"/>
            <stop offset="1" stop-color="white"/>
        </linearGradient>
        <linearGradient id="paint6_linear" x2="1" gradientUnits="userSpaceOnUse" gradientTransform="translate(45.5888) scale(45.5888 45.6881) rotate(90)">
            <stop stop-color="#D4379A"/>
            <stop offset="1" stop-color="#8C2F89"/>
        </linearGradient>
        <linearGradient id="paint7_linear" x2="1" gradientUnits="userSpaceOnUse" gradientTransform="matrix(19.157 51.0346 -75.1731 28.341 66.6858 -14.1705)">
            <stop stop-color="#FEA042"/>
            <stop offset="1" stop-color="#FF4732"/>
        </linearGradient>
        <linearGradient id="paint8_linear" x2="1" gradientUnits="userSpaceOnUse" gradientTransform="translate(7.7598 -9.96389) scale(21.948 28.1821) rotate(45)">
            <stop stop-color="#FEA844"/>
            <stop offset="1" stop-color="#FF382F"/>
        </linearGradient>
        <linearGradient id="paint9_linear" x2="1" gradientUnits="userSpaceOnUse" gradientTransform="matrix(-78.9868 51.0049 -73.5608 -230.287 115.767 115.048)">
            <stop stop-color="#FF7039"/>
            <stop offset="1" stop-color="#FF4B33"/>
        </linearGradient>
    </defs>
</svg>
