<svg width="180" height="180" viewBox="0 0 180 180" fill="none" xmlns="http://www.w3.org/2000/svg">
    <path d="M60.3121 6.68453C72.5586 9.67277 78.4797 3.46246 90.1008 1.28909C114.511 -3.27609 128.991 5.02498 135.611 14.5707C146.482 30.2467 152.863 58.6918 109.008 83.5938C65.1522 108.496 29.7039 88.7924 15.2154 71.8446C-3.37223 50.1018 -4.64369 19.1355 9.83691 6.68453C24.3175 -5.76648 45.0041 2.94922 60.3121 6.68453Z"
          transform="translate(17.0476 51.4844)" fill="url(#paint0_linear)"/>
    <mask id="mask0" mask-type="alpha" maskUnits="userSpaceOnUse" x="17" y="51" width="144" height="96">
        <path d="M60.3121 6.68453C72.5586 9.67277 78.4797 3.46246 90.1008 1.28909C114.511 -3.27609 128.991 5.02498 135.611 14.5707C146.482 30.2467 152.863 58.6918 109.008 83.5938C65.1522 108.496 29.7039 88.7924 15.2154 71.8446C-3.37223 50.1018 -4.64369 19.1355 9.83691 6.68453C24.3175 -5.76648 45.0041 2.94922 60.3121 6.68453Z"
              transform="translate(17.0476 51.4844)" fill="url(#paint1_linear)"/>
    </mask>
    <g mask="url(#mask0)">
        <path d="M25.8204 93.7847C16.3994 99.2581 3.80041 95.9136 0 95.4654L37.2216 134.795L122.228 80.675L103.449 0C92.3275 1.96085 71.5259 6.2187 77.2936 7.56328C80.6742 8.35139 92.8864 16.135 90.2038 21.0091C86.6073 27.5435 89.3133 32.4333 90.2038 33.9507C93.9955 40.4124 87.5211 42.4906 78.8025 44.3713C65.557 47.2285 75.9957 61.8509 75.2816 65.7165C74.5674 69.5822 65.557 64.8762 60.1917 66.5569C51.7067 69.2149 56.3354 82.6654 50.8025 84.7088C44.4312 87.0618 40.5749 79.6666 37.2216 80.675C33.8683 81.6835 31.0681 90.7359 25.8204 93.7847Z"
              transform="translate(54.9917 44.7988)" fill="url(#paint2_linear)"/>
    </g>
    <ellipse cx="18.0445" cy="18.1184" rx="18.0445" ry="18.1184" transform="translate(97.2427 29)" fill="url(#paint3_linear)"/>
    <path d="M6.46684 0.0319373L9.68389 3.17954L12.9009 0.0319373L16.1181 3.17954L19.3352 0.0319373L22.5522 3.17954L25.7694 0.0319373L28.9864 3.17954L32.2035 0.0319373L35.4205 3.17954L38.6376 0.0319373L41.8548 3.17954L45.0718 0.0319373L48.289 3.17954L51.506 0.0319373L54.7231 3.17954L57.9729 0V93.1151L54.7231 89.9356L51.506 93.0832L48.289 89.9356L45.0719 93.0832L41.8548 89.9356L38.6376 93.0832L35.4205 89.9356L32.2035 93.0832L28.9864 89.9356L25.7694 93.0832L22.5522 89.9356L19.3352 93.0832L16.1181 89.9356L12.9009 93.0832L9.68389 89.9356L6.46684 93.0832L3.24978 89.9356L0 93.1151V0L3.24978 3.17954L6.46684 0.0319373Z"
          transform="translate(50.0767 42.7656)" fill="url(#paint4_linear)"/>
    <path d="M6.46684 0.0319373L9.68389 3.17954L12.9009 0.0319373L16.1181 3.17954L19.3352 0.0319373L22.5522 3.17954L25.7694 0.0319373L28.9864 3.17954L32.2035 0.0319373L35.4205 3.17954L38.6376 0.0319373L41.8548 3.17954L45.0718 0.0319373L48.289 3.17954L51.506 0.0319373L54.7231 3.17954L57.9729 0V93.1151L54.7231 89.9356L51.506 93.0832L48.289 89.9356L45.0719 93.0832L41.8548 89.9356L38.6376 93.0832L35.4205 89.9356L32.2035 93.0832L28.9864 89.9356L25.7694 93.0832L22.5522 89.9356L19.3352 93.0832L16.1181 89.9356L12.9009 93.0832L9.68389 89.9356L6.46684 93.0832L3.24978 89.9356L0 93.1151V0L3.24978 3.17954L6.46684 0.0319373Z"
          transform="translate(55.4304 37.4043)" fill="url(#paint5_linear)"/>
    <path d="M6.46684 93.0832L9.68389 89.9356L12.9009 93.0832L16.1181 89.9356L19.3352 93.0832L22.5522 89.9356L25.7694 93.0832L28.9864 89.9356L32.2035 93.0832L35.4205 89.9356L38.6376 93.0832L41.8548 89.9356L45.0719 93.0832L48.289 89.9356L51.506 93.0832L54.7231 89.9356L57.9729 93.1151V0L54.7231 3.17954L51.506 0.0319373L48.7702 2.70846C41.6839 12.0306 42.5531 20.3969 43.4491 29.0213C43.537 29.8672 43.6252 30.7162 43.7061 31.5683C45.1735 47.0206 38.2711 56.5504 21.5134 64.4992C6.46684 70.177 0.757767 85.7939 0 93.1151L3.24978 89.9356L6.46684 93.0832Z"
          transform="translate(55.4304 37.4043)" fill="url(#paint6_linear)"/>
    <ellipse cx="14.8007" cy="14.8325" rx="14.8007" ry="14.8325" transform="translate(69.4084 47.0073)" fill="white"/>
    <path d="M15.298 6.94907C15.2171 6.94907 12.1413 1.79851 11.089 0C16.3502 0.408817 20.5592 4.90519 20.721 10.3828C20.721 15.0427 17.6452 18.967 13.5173 20.3567L8.66075 12.1814C7.85132 10.7915 8.25608 9.07467 9.6321 8.25724L7.68949 4.90519C4.61372 6.78563 3.64237 10.7097 5.42304 13.8164C5.42304 13.8164 8.01325 18.2311 9.55108 20.7655C4.20895 20.3567 0 15.8603 0 10.3828C0 5.72282 2.99487 1.71679 7.20382 0.408817L12.0603 8.58413C12.8697 9.97403 12.465 11.6908 11.089 12.5085L13.0316 15.8603C16.1074 13.9799 17.0787 10.0558 15.298 6.94907Z"
          transform="translate(73.8508 51.4575)" fill="url(#paint7_linear)"/>
    <path d="M0 0.75275C0 0.337018 0.337017 0 0.752749 0H39.0083C39.4241 0 39.7611 0.337017 39.7611 0.752749V6.51477C39.7611 6.9305 39.4241 7.26752 39.0083 7.26752H0.752749C0.337017 7.26752 0 6.9305 0 6.51477V0.75275Z"
          transform="translate(64.4854 85.6201)" fill="white"/>
    <path d="M0 0.75275C0 0.337018 0.337017 0 0.752749 0H25.4209C25.8367 0 26.1737 0.337017 26.1737 0.752749V6.51477C26.1737 6.9305 25.8367 7.26752 25.4209 7.26752H0.752749C0.337017 7.26752 0 6.9305 0 6.51477V0.75275Z"
          transform="translate(64.4861 108.263)" fill="white"/>
    <path d="M0 0.75275C0 0.337017 0.337017 0 0.752749 0H20.215C20.6307 0 20.9677 0.337017 20.9677 0.752749V3.36739C20.9677 3.78312 20.6307 4.12014 20.215 4.12014H0.752749C0.337017 4.12014 0 3.78312 0 3.36739V0.75275Z"
          transform="translate(64.4861 96.6182)" fill="white"/>
    <path d="M0 0L3.17497 0V6.8035H0V0Z" transform="translate(153.273 54.0156) scale(0.998558 1.00144) rotate(45)" fill="#FE2933"/>
    <path d="M0 0H7.71064L3.85532 8.16421L0 0Z" transform="translate(99.1897 105.02) scale(0.998558 1.00144) rotate(45)" fill="url(#paint8_linear)"/>
    <path d="M0 0L1.81427 0V24.039H0V0Z" transform="translate(142.385 56.5859) scale(0.998558 1.00144) rotate(45)" fill="#EE708F"/>
    <path d="M0 0L1.81427 0V5.4428H0V0Z" transform="translate(146.226 60.4399) scale(0.998558 1.00144) rotate(135)" fill="#EE708F"/>
    <path d="M0 0H7.71064V69.8022H0L0 0Z" transform="translate(148.469 55.6221) scale(0.998558 1.00144) rotate(45)" fill="url(#paint9_linear)"/>
    <path d="M0 0L3.17497 0C3.17497 0 1.30186 3.79771 3.17497 17.0088C5.04807 30.2198 5.25688 37.7394 3.17497 51.4798C1.09306 65.2203 3.17497 69.8022 3.17497 69.8022H0L0 0Z" transform="translate(148.469 55.6221) scale(0.998558 1.00144) rotate(45)"
          fill="url(#paint10_linear)"/>
    <path d="M23.2389 28.069C23.2389 43.5712 19.0001 56.1381 13.7712 56.1381H0V42.7447H5.69906C4.81392 38.4747 4.30351 33.4486 4.30351 28.069C4.30351 22.6895 4.81392 17.6634 5.69906 13.3933H0V0H13.7712C19.0001 0 23.2389 12.5668 23.2389 28.069Z"
          transform="matrix(0.965739 -0.259516 0.258124 0.966112 18.4385 55.3462)" fill="url(#paint11_linear)"/>
    <path d="M58.5796 66.7831C50.6563 65.2444 45.2577 59.5244 41.5313 51.8067C41.4886 51.824 41.4442 51.8391 41.3985 51.8511C40.7862 52.0156 40.1581 51.656 39.9955 51.0481C39.8536 50.5173 40.1137 49.9723 40.5896 49.7333C39.3785 46.899 38.3655 43.8404 37.5133 40.6535C37.1111 39.149 36.3212 36.2074 35.1944 32.5643C34.6319 32.6392 34.089 32.2903 33.9396 31.7316C33.7992 31.2066 34.0522 30.6674 34.5183 30.4244C32.5122 24.2068 29.6667 16.5473 26.1904 10.4689C26.1042 10.5186 26.0101 10.5585 25.9092 10.5856C25.297 10.7501 24.6688 10.3905 24.5062 9.78254C24.373 9.28414 24.5938 8.77377 25.0148 8.51526C21.6691 3.24483 17.8028 -0.382747 13.5813 0.0322896L0 3.67938C4.42447 3.49447 8.32561 7.1256 11.64 12.3676C11.6949 12.3428 11.7527 12.322 11.8127 12.306C12.4251 12.1415 13.0533 12.5011 13.2158 13.109C13.3385 13.568 13.1607 14.038 12.8024 14.3111C16.1848 20.2751 18.8917 27.7692 20.8465 34.1242C20.9445 34.0608 21.0539 34.0121 21.1726 33.9801C21.785 33.8156 22.4131 34.1752 22.5756 34.7832C22.7382 35.3911 22.3736 36.0172 21.7613 36.1817C21.6665 36.207 21.5712 36.2198 21.4774 36.2212C22.6994 40.3733 23.5646 43.8506 24.0485 45.7949L24.2435 46.5767C24.8671 49.0531 25.6164 51.3624 26.4596 53.5046C27.0515 53.38 27.643 53.7356 27.8001 54.3231C27.9298 54.8082 27.7235 55.3053 27.3234 55.5696C32.2124 66.5871 39.1387 71.8323 42.729 73.2973C43.9139 72.3511 44.4745 72.4135 45.0466 72.5782C45.6187 72.7428 46.1793 73.0322 46.4058 73.9403L59.1233 67.9776C58.8729 67.8318 58.6782 67.5914 58.5978 67.2908C58.5519 67.1192 58.548 66.9467 58.5796 66.7831Z"
          transform="translate(18.4385 51.665) scale(0.999639 1.00036)" fill="url(#paint12_linear)"/>
    <path d="M60.8481 67.1015L60.9254 67.1081L60.8425 67.148L60.8481 67.1015Z" transform="translate(18.4385 51.665) scale(0.999639 1.00036)" fill="url(#paint13_linear)"/>
    <ellipse cx="9.46771" cy="28.069" rx="9.46771" ry="28.069" transform="matrix(0.965739 -0.259516 0.258124 0.966112 9.57349 57.7285)" fill="url(#paint14_linear)"/>
    <path opacity="0.5"
          d="M14.3813 47.1149C12.9489 49.6982 11.2669 51.1862 9.46771 51.1862C4.23886 51.1862 0 38.6194 0 23.1172C0 13.5289 1.62166 5.06341 4.09611 0C3.36674 2.76867 2.93856 6.81745 4.73386 9.58138C5.13738 10.2028 5.52675 10.7844 5.89715 11.3379C8.15992 14.7191 9.71427 17.0419 9.46771 20.8375C9.40026 21.8761 9.2138 23.0565 9.01845 24.2935C8.38294 28.3173 7.65287 32.9396 10.6153 35.2282C13.718 37.6251 15.0717 42.4906 14.3813 47.1149Z"
          transform="matrix(0.965739 -0.259516 0.258124 0.966112 10.8491 62.5122)" fill="url(#paint15_linear)"/>
    <ellipse cx="2.869" cy="8.40646" rx="2.869" ry="8.40646" transform="matrix(0.965739 -0.259516 0.258124 0.966112 21.021 75.0122)" fill="url(#paint16_linear)"/>
    <path opacity="0.6"
          d="M52.3579 67.5556C41.9076 67.7174 41.6509 64.6233 41.4771 62.5282C41.4529 62.2368 41.4303 61.9646 41.3822 61.7234C41.3203 61.4134 41.2669 60.9092 41.1972 60.2512C40.7562 56.0849 39.6617 45.748 31.641 39.4746C24.0007 33.4987 23.7183 30.5947 22.8498 21.6653C22.6625 19.7395 22.448 17.5331 22.1264 14.9555C20.7287 3.74996 7.70949 0.364487 0.68592 0L0 0.184461L0.0449095 0.313051C4.24826 0.430112 7.96767 3.9761 11.1471 9.00487C11.202 8.98004 11.2598 8.9592 11.3198 8.94323C11.9322 8.77873 12.5604 9.13834 12.7229 9.74626C12.8457 10.2052 12.6678 10.6752 12.3095 10.9484C15.6919 16.9123 18.3988 24.4064 20.3536 30.7615C20.4516 30.6981 20.561 30.6493 20.6797 30.6174C21.2921 30.4528 21.9202 30.8125 22.0827 31.4204C22.2453 32.0283 21.8807 32.6544 21.2684 32.8189C21.1736 32.8442 21.0784 32.857 20.9845 32.8584C22.2065 37.0105 23.0717 40.4878 23.5556 42.4321L23.7506 43.2139C24.3742 45.6904 25.1235 47.9997 25.9667 50.1418C26.5586 50.0172 27.1501 50.3728 27.3072 50.9603C27.4369 51.4454 27.2306 51.9425 26.8305 52.2068C31.7195 63.2243 38.6458 68.4695 42.2361 69.9345C43.421 68.9883 43.9816 69.0508 44.5537 69.2153C45.1258 69.3798 45.6864 69.6693 45.9129 70.5775L52.3579 67.5556Z"
          transform="translate(18.9304 55.0298) scale(0.999639 1.00036)" fill="url(#paint17_linear)"/>
    <path d="M16.3061 44.0218C16.2517 44.1545 16.2218 44.2995 16.2218 44.4514C16.2218 44.7208 16.3159 44.9685 16.4732 45.1636L3.44372 45.0228C3.54192 44.8547 3.59816 44.6596 3.59816 44.4514C3.59816 44.2444 3.54262 44.0502 3.44547 43.8829L16.3061 44.0218Z"
          transform="matrix(0.965739 -0.259516 0.258124 0.966112 31.2783 63.9966)" fill="url(#paint18_linear)"/>
    <path d="M15.5045 23.6665C15.4131 23.8302 15.3611 24.0186 15.3611 24.2189C15.3611 24.4193 15.4131 24.6074 15.5045 24.7711V24.7889H3.45471V24.7711C3.54612 24.6074 3.59816 24.4193 3.59816 24.2189C3.59816 24.0186 3.54612 23.8305 3.45471 23.6668V23.649H15.5045V23.6665Z"
          transform="matrix(0.965739 -0.259516 0.258124 0.966112 31.2783 63.9966)" fill="url(#paint19_linear)"/>
    <path d="M12.07 0C11.9735 0.166972 11.9183 0.36038 11.9183 0.566868C11.9183 0.775861 11.9749 0.971496 12.0736 1.13986L0.00364229 1.4187C0.100163 1.25173 0.155358 1.05804 0.155358 0.851833C0.155358 0.64284 0.0987621 0.447205 0 0.278842L12.07 0Z"
          transform="matrix(0.965739 -0.259516 0.258124 0.966112 31.2783 63.9966)" fill="url(#paint20_linear)"/>
    <defs>
        <linearGradient id="paint0_linear" x2="1" gradientUnits="userSpaceOnUse" gradientTransform="translate(142.785 -0.00898359) scale(139.678 93.9212) rotate(90)">
            <stop stop-color="#62F7FF"/>
            <stop offset="1" stop-color="#AB4FFF"/>
        </linearGradient>
        <linearGradient id="paint1_linear" x2="1" gradientUnits="userSpaceOnUse" gradientTransform="translate(142.785 -0.00898359) scale(139.678 93.9212) rotate(90)">
            <stop stop-color="#62F7FF"/>
            <stop offset="1" stop-color="#AB4FFF"/>
        </linearGradient>
        <linearGradient id="paint2_linear" x2="1" gradientUnits="userSpaceOnUse" gradientTransform="matrix(-47.0992 130.232 -99.2879 -207.201 156.047 108.184)">
            <stop stop-color="#0E4EC3"/>
            <stop offset="1" stop-color="#09296F"/>
        </linearGradient>
        <linearGradient id="paint3_linear" x2="1" gradientUnits="userSpaceOnUse" gradientTransform="translate(32.6464 2.7416) scale(32.5701 32.7035) rotate(87.075)">
            <stop stop-color="#FF7446"/>
            <stop offset="1" stop-color="#FEDF89"/>
        </linearGradient>
        <linearGradient id="paint4_linear" x2="1" gradientUnits="userSpaceOnUse" gradientTransform="translate(60.3766 -7.72174) scale(62.7804 100.837) rotate(90)">
            <stop stop-color="#1B87DF"/>
            <stop offset="1" stop-color="#023075"/>
        </linearGradient>
        <linearGradient id="paint5_linear" x2="1" gradientUnits="userSpaceOnUse" gradientTransform="translate(60.3766 -7.72174) scale(62.7804 100.837) rotate(90)">
            <stop stop-color="#93E5FF"/>
            <stop offset="1" stop-color="#014AC9"/>
        </linearGradient>
        <linearGradient id="paint6_linear" x2="1" gradientUnits="userSpaceOnUse" gradientTransform="matrix(-11.7757 89.0271 -55.4277 -7.37387 79.1195 7.77492)">
            <stop stop-color="#9AE7FF"/>
            <stop offset="1" stop-color="#0731A9"/>
        </linearGradient>
        <linearGradient id="paint7_linear" x2="1" gradientUnits="userSpaceOnUse" gradientTransform="translate(21.5802 -1.72202) scale(22.4393 22.4875) rotate(90)">
            <stop stop-color="#E88FCC"/>
            <stop offset="1" stop-color="#501F7B"/>
        </linearGradient>
        <linearGradient id="paint8_linear" x2="1" gradientUnits="userSpaceOnUse" gradientTransform="matrix(-1.04271 10.4965 -9.91334 -0.984784 9.78078 -2.07353)">
            <stop stop-color="#E54581"/>
            <stop offset="1" stop-color="#F9839E"/>
        </linearGradient>
        <linearGradient id="paint9_linear" x2="1" gradientUnits="userSpaceOnUse" gradientTransform="translate(7.71064) scale(7.71064 69.8022) rotate(90)">
            <stop stop-color="#FF609B"/>
            <stop offset="1" stop-color="#E0407C"/>
        </linearGradient>
        <linearGradient id="paint10_linear" x2="1" gradientUnits="userSpaceOnUse" gradientTransform="translate(4.65913) scale(4.65913 69.8022) rotate(90)">
            <stop stop-color="#FF9FA5"/>
            <stop offset="1" stop-color="#FF9AAB" stop-opacity="0.54"/>
        </linearGradient>
        <linearGradient id="paint11_linear" x2="1" gradientUnits="userSpaceOnUse" gradientTransform="translate(13.7712 1.18954) scale(13.9868 13.603) rotate(100.072)">
            <stop stop-color="#FDD985"/>
            <stop offset="1" stop-color="#FF7B4A"/>
        </linearGradient>
        <linearGradient id="paint12_linear" x2="1" gradientUnits="userSpaceOnUse" gradientTransform="matrix(30.3251 63.9765 -31.5361 14.8867 30.2336 3.11802)">
            <stop stop-color="#FEAB68"/>
            <stop offset="1" stop-color="#FF9359"/>
        </linearGradient>
        <linearGradient id="paint13_linear" x2="1" gradientUnits="userSpaceOnUse" gradientTransform="matrix(30.3251 63.9765 -31.5361 14.8867 30.2336 3.11802)">
            <stop stop-color="#FEAB68"/>
            <stop offset="1" stop-color="#FF9359"/>
        </linearGradient>
        <linearGradient id="paint14_linear" x2="1" gradientUnits="userSpaceOnUse" gradientTransform="translate(18.9354 4.98595) scale(19.2318 57.0168) rotate(100.072)">
            <stop stop-color="#FDD985"/>
            <stop offset="1" stop-color="#FF7B4A"/>
        </linearGradient>
        <linearGradient id="paint15_linear" x2="1" gradientUnits="userSpaceOnUse" gradientTransform="matrix(3.2622 49.8688 -14.1829 0.91531 11.1081 0.85975)">
            <stop stop-color="#FEAB68"/>
            <stop offset="1" stop-color="#FE8052"/>
        </linearGradient>
        <linearGradient id="paint16_linear" x2="1" gradientUnits="userSpaceOnUse" gradientTransform="matrix(-2.5972 15.5306 -5.041 -3.3317 6.96746 2.94819)">
            <stop stop-color="#F14505"/>
            <stop offset="1" stop-color="#FF8658"/>
        </linearGradient>
        <linearGradient id="paint17_linear" x2="1" gradientUnits="userSpaceOnUse" gradientTransform="matrix(9.48944 71.2869 -52.8842 7.07024 43.1316 -4.24458)">
            <stop stop-color="#FECA7B"/>
            <stop offset="1" stop-color="#F75D24"/>
        </linearGradient>
        <linearGradient id="paint18_linear" x2="1" gradientUnits="userSpaceOnUse" gradientTransform="matrix(634.637 -132007 288.273 1.13002e+06 125260 -5.43381e+07)">
            <stop stop-color="#FC7543"/>
            <stop offset="1" stop-color="#E424A4"/>
        </linearGradient>
        <linearGradient id="paint19_linear" x2="1" gradientUnits="userSpaceOnUse" gradientTransform="matrix(634.637 -132007 288.273 1.13002e+06 125260 -5.43381e+07)">
            <stop stop-color="#FC7543"/>
            <stop offset="1" stop-color="#E424A4"/>
        </linearGradient>
        <linearGradient id="paint20_linear" x2="1" gradientUnits="userSpaceOnUse" gradientTransform="matrix(634.637 -132007 288.273 1.13002e+06 125260 -5.43381e+07)">
            <stop stop-color="#FC7543"/>
            <stop offset="1" stop-color="#E424A4"/>
        </linearGradient>
    </defs>
</svg>
