<svg width="180" height="180" viewBox="0 0 180 180" fill="none" xmlns="http://www.w3.org/2000/svg">
    <path d="M106.112 0C88.2322 0 80.9395 20.7129 61.1795 27.5377C36.4809 36.0681 10.8365 21.6535 1.19155 48.7206C-8.53974 76.0299 42.8301 118.624 100.701 91.7922C154.153 67.0095 143.986 0 106.112 0Z" transform="translate(19 41)"
          fill="url(#paint0_linear)"/>
    <path d="M106.112 0C88.2322 0 80.9395 20.7129 61.1795 27.5377C36.4809 36.0681 10.8365 21.6535 1.19155 48.7206C-8.53974 76.0299 42.8301 118.624 100.701 91.7922C154.153 67.0095 143.986 0 106.112 0Z" transform="translate(19 41)"
          fill="url(#paint1_linear)"/>
    <mask id="mask0" mask-type="alpha" maskUnits="userSpaceOnUse" x="19" y="41" width="138" height="101">
        <path d="M106.112 0C88.2322 0 80.9395 20.7129 61.1795 27.5377C36.4809 36.0681 10.8365 21.6535 1.19155 48.7206C-8.53974 76.0299 42.8301 118.624 100.701 91.7922C154.153 67.0095 143.986 0 106.112 0Z" transform="translate(19 41)"
              fill="url(#paint2_linear)"/>
    </mask>
    <g mask="url(#mask0)">
        <path opacity="0.8"
              d="M13.3539 71.8344C5.52964 68.6711 1.19119 80.182 0 86.3329C1.1285 92.7348 4.36353 106.405 8.27566 109.869C13.1658 114.2 36.112 112.317 42.3187 109.869C48.5255 107.421 59.2462 102.149 63.7602 101.584C68.2742 101.02 113.602 49.4277 116.047 47.9213C118.492 46.415 111.345 4.23776 111.909 3.10801C112.474 1.97826 96.1105 -1.97586 97.6152 1.22509C99.1198 4.42605 103.634 35.4942 90.0918 26.6445C76.5498 17.7948 77.8664 46.6033 74.669 56.771C71.4716 66.9388 62.8198 70.5165 50.9705 61.1019C39.188 51.7403 35.5882 58.9486 30.74 68.6568L30.6576 68.8218C25.7674 78.613 23.1342 75.7885 13.3539 71.8344Z"
              transform="translate(52.4797 54.1809)" fill="#09296F"/>
    </g>
    <ellipse cx="17.8788" cy="17.8877" rx="17.8788" ry="17.8877" transform="translate(20.5051 136.275) scale(1 -1)" fill="url(#paint3_linear)"/>
    <path d="M0 3.76375C0 1.68509 1.68509 0 3.76375 0H82.8074C84.886 0 86.5711 1.68509 86.5711 3.76375V56.4896C86.5711 58.5682 84.886 60.2533 82.8074 60.2533H3.76375C1.68509 60.2533 0 58.5682 0 56.4896V3.76375Z"
          transform="translate(128.141 57.8525) scale(-1 1)" fill="url(#paint4_linear)"/>
    <path d="M0 3.76375C0 1.68509 1.68509 0 3.76375 0H82.8074C84.886 0 86.5711 1.68509 86.5711 3.76375V56.4896C86.5711 58.5682 84.886 60.2533 82.8074 60.2533H3.76375C1.68509 60.2533 0 58.5682 0 56.4896V3.76375Z" transform="translate(48.1562 51.2622)"
          fill="url(#paint5_linear)"/>
    <path d="M0 3.76375C0 1.68509 1.68509 0 3.76375 0H84.2188C86.2975 0 87.9826 1.68509 87.9826 3.76375V57.9018C87.9826 59.9804 86.2975 61.6655 84.2188 61.6655H3.76375C1.68509 61.6655 0 59.9804 0 57.9018V3.76375Z"
          transform="translate(54.7429 43.2598)" fill="url(#paint6_linear)"/>
    <path opacity="0.2" d="M87.9825 0V49.5345C87.9825 51.6143 86.2986 53.3003 84.2208 53.3003H3.76166C1.6843 53.3003 0 51.6143 0 49.5345V42.5754C11.7919 44.5514 32.5619 44.7367 48.1412 27.5985C67.1901 6.64372 79.5875 1.09628 87.9825 0Z"
          transform="translate(54.7429 51.6255)" fill="url(#paint7_linear)"/>
    <ellipse opacity="0.4" cx="14.2943" cy="14.3102" rx="14.2943" ry="14.3102" transform="translate(60.675 49.1907)" fill="url(#paint8_linear)"/>
    <path d="M5.14851 0.752749C5.14851 0.337017 4.8115 0 4.39576 0H0.753364C0.33765 0 0.000640044 0.336989 0.000614843 0.752704L4.56353e-05 10.1423C2.04321e-05 10.558 0.337045 10.8951 0.752795 10.8951H18.1768C18.5925 10.8951 18.9295 10.5581 18.9295 10.1424L18.93 6.49975C18.93 6.08398 18.593 5.7469 18.1772 5.7469H5.90126C5.48553 5.7469 5.14851 5.40989 5.14851 4.99415V0.752749Z"
          transform="translate(64.325 64.1587) scale(0.999749 1.00025) rotate(-45.0173)" fill="url(#paint9_linear)"/>
    <path d="M0 0.752749C0 0.337017 0.337017 0 0.752749 0H39.995C40.4107 0 40.7477 0.337017 40.7477 0.752749V10.2693C40.7477 10.685 40.4107 11.022 39.995 11.022H0.75275C0.337018 11.022 0 10.685 0 10.2692V0.752749Z"
          transform="translate(94.2629 54.0867)" fill="url(#paint10_linear)"/>
    <path d="M0 0.752749C0 0.337017 0.337017 0 0.752749 0H25.1276C25.5433 0 25.8803 0.337017 25.8803 0.752749V4.75825C25.8803 5.17398 25.5433 5.511 25.1276 5.511H0.752749C0.337017 5.511 0 5.17398 0 4.75825V0.752749Z"
          transform="translate(94.2629 69.5173)" fill="url(#paint11_linear)"/>
    <path d="M0 0.75275C0 0.337018 0.337017 0 0.752749 0H72.174C72.5897 0 72.9267 0.337017 72.9267 0.752749V14.3106C72.9267 14.7263 72.5897 15.0633 72.174 15.0633H0.752749C0.337017 15.0633 0 14.7263 0 14.3106V0.75275Z"
          transform="translate(62.2717 82.3306)" fill="url(#paint12_linear)"/>
    <defs>
        <linearGradient id="paint0_linear" x2="1" gradientUnits="userSpaceOnUse" gradientTransform="matrix(-62.3406 112.74 -144.332 -79.8896 178.278 35.0021)">
            <stop stop-color="#F4909D"/>
            <stop offset="1" stop-color="#C73698"/>
        </linearGradient>
        <linearGradient id="paint1_linear" x2="1" gradientUnits="userSpaceOnUse" gradientTransform="translate(137.677) scale(134.682 98.8573) rotate(90)">
            <stop stop-color="#62F7FF"/>
            <stop offset="1" stop-color="#AB4FFF"/>
        </linearGradient>
        <linearGradient id="paint2_linear" x2="1" gradientUnits="userSpaceOnUse" gradientTransform="translate(137.677) scale(134.682 98.8573) rotate(90)">
            <stop stop-color="#62F7FF"/>
            <stop offset="1" stop-color="#AB4FFF"/>
        </linearGradient>
        <linearGradient id="paint3_linear" x2="1" gradientUnits="userSpaceOnUse" gradientTransform="translate(32.3465 2.70669) scale(32.271 32.287) rotate(87.075)">
            <stop stop-color="#FF7446"/>
            <stop offset="1" stop-color="#FEDF89"/>
        </linearGradient>
        <linearGradient id="paint4_linear" x2="1" gradientUnits="userSpaceOnUse" gradientTransform="matrix(-104.511 48.1113 -22.7308 -59.974 100.506 21.1345)">
            <stop stop-color="#93E5FF"/>
            <stop offset="1" stop-color="#0A44BB"/>
        </linearGradient>
        <linearGradient id="paint5_linear" x2="1" gradientUnits="userSpaceOnUse" gradientTransform="matrix(-107.019 39.1647 -17.6587 -61.0246 100.479 30.6065)">
            <stop stop-color="#FF9F7C"/>
            <stop offset="1" stop-color="#7527D1"/>
        </linearGradient>
        <linearGradient id="paint6_linear" x2="1" gradientUnits="userSpaceOnUse" gradientTransform="matrix(-3.49222 -82.3744 117.533 -3.29263 -14.6565 18.6836)">
            <stop stop-color="white"/>
            <stop offset="1" stop-color="#CAD2E3"/>
        </linearGradient>
        <linearGradient id="paint7_linear" x2="1" gradientUnits="userSpaceOnUse" gradientTransform="translate(87.9825) scale(87.9825 53.3003) rotate(90)">
            <stop stop-color="#C4C4C4"/>
            <stop offset="1" stop-color="#C4C4C4" stop-opacity="0"/>
        </linearGradient>
        <linearGradient id="paint8_linear" x2="1" gradientUnits="userSpaceOnUse" gradientTransform="translate(28.5886) scale(28.5886 28.6203) rotate(90)">
            <stop stop-color="#B9B9B9"/>
            <stop offset="1" stop-color="#C4C4C4" stop-opacity="0"/>
        </linearGradient>
        <linearGradient id="paint9_linear" x2="1" gradientUnits="userSpaceOnUse" gradientTransform="matrix(-23.6882 2.46175 -186.46 -180.567 115.387 97.3787)">
            <stop stop-color="#58B9FF"/>
            <stop offset="1" stop-color="#1E5BD4"/>
        </linearGradient>
        <linearGradient id="paint10_linear" x2="1" gradientUnits="userSpaceOnUse" gradientTransform="matrix(44.3876 -29.5618 176.73 236.137 -92.1584 -95.756)">
            <stop stop-color="#FF4752"/>
            <stop offset="0.984867" stop-color="#FF6C3F"/>
        </linearGradient>
        <linearGradient id="paint11_linear" x2="1" gradientUnits="userSpaceOnUse" gradientTransform="matrix(28.1921 -14.7809 112.247 118.069 -58.533 -47.878)">
            <stop stop-color="#FF4752"/>
            <stop offset="0.984867" stop-color="#FF6C3F"/>
        </linearGradient>
        <linearGradient id="paint12_linear" x2="1" gradientUnits="userSpaceOnUse" gradientTransform="matrix(79.4411 -40.4009 316.295 322.719 -164.937 -130.866)">
            <stop stop-color="#FF4752"/>
            <stop offset="0.984867" stop-color="#FF6C3F"/>
        </linearGradient>
    </defs>
</svg>
