<svg width="180" height="180" viewBox="0 0 180 180" fill="none" xmlns="http://www.w3.org/2000/svg">
    <path d="M107.963 0C90.7356 0 90.889 11.1186 69.2436 18.9696C44.4236 27.9721 23.9062 -4.17969 4.21541 27.9721C-15.4753 60.124 36.8008 113.867 99.0276 90.8289C182.763 59.8279 145.111 0 107.963 0Z"
          transform="translate(165.599 134.405) rotate(-180)" fill="url(#paint0_linear)"/>
    <path d="M51.7843 60.0776C58.1714 59.2792 64.3757 55.3351 70.501 45.0147C78.5497 31.4527 74.6571 14.1943 63.0001 0.0761535L62.4568 0C65.6484 5.98182 71.2818 18.2379 66.6196 21.0757C63.5367 22.9523 61.1527 19.5145 58.7895 16.1073C56.6858 13.0741 54.5987 10.0648 52.0499 10.8506C49.4802 11.6435 50.5714 15.6362 51.7797 20.0572C53.1156 24.9465 54.5953 30.361 51.4254 32.5523C49.0414 34.2009 46.2998 32.333 43.3808 30.3442C38.9097 27.2981 34.0221 23.9678 29.3632 32.5523C22.4629 45.2661 22.4136 45.2481 17.0884 43.3058C16.4702 43.0803 15.781 42.8288 15.0014 42.5686C7.50841 40.0647 -0.192395 48.8286 0.223763 51.5413C0.363877 52.4547 0.23882 54.3359 0 56.4737C1.53581 55.7544 3.2017 55.0502 5.02025 54.3694C9.89494 52.5447 14.6048 52.3472 19.1759 52.9631C25.9783 52.6861 32.4645 54.7698 38.7136 56.7779C43.1817 58.2135 47.5286 59.6106 51.7843 60.0776Z"
          transform="translate(91.374 63.7075)" fill="url(#paint1_linear)"/>
    <ellipse cx="17.1156" cy="17.1345" rx="17.1156" ry="17.1345" transform="translate(7 121.224) scale(1 -1)" fill="url(#paint2_linear)"/>
    <path d="M0 3.76375C0 1.68509 1.68509 0 3.76375 0H49.5164C51.5951 0 53.2801 1.68509 53.2801 3.76375V81.7907C53.2801 83.8694 51.5951 85.5545 49.5164 85.5545H3.76375C1.68509 85.5545 0 83.8694 0 81.7907V3.76375Z"
          transform="translate(74.4404 41.3384)" fill="url(#paint3_linear)"/>
    <path d="M0 0.75275C0 0.337018 0.337017 0 0.752749 0H32.878C33.2937 0 33.6307 0.337017 33.6307 0.752749V6.81844C33.6307 7.23418 33.2937 7.57119 32.878 7.57119H0.752749C0.337017 7.57119 0 7.23418 0 6.81844V0.75275Z"
          transform="translate(84.2688 81.4663)" fill="#FF6E39"/>
    <path d="M0 0.75275C0 0.337018 0.337017 0 0.752749 0H32.878C33.2937 0 33.6307 0.337017 33.6307 0.752749V6.81844C33.6307 7.23418 33.2937 7.57119 32.878 7.57119H0.752749C0.337017 7.57119 0 7.23418 0 6.81844V0.75275Z"
          transform="translate(84.2688 100.395)" fill="#FF6E39"/>
    <path d="M0 0.75275C0 0.337018 0.337017 0 0.752749 0H32.878C33.2937 0 33.6307 0.337017 33.6307 0.752749V6.81844C33.6307 7.23418 33.2937 7.57119 32.878 7.57119H0.752749C0.337017 7.57119 0 7.23418 0 6.81844V0.75275Z"
          transform="translate(84.2688 111.751)" fill="#FF6E39"/>
    <ellipse cx="13.6034" cy="13.6281" rx="13.6034" ry="13.6281" transform="translate(87.2891 48.9102)" fill="url(#paint4_linear)"/>
    <path d="M14.0605 6.38483C13.9861 6.38483 11.1591 1.65248 10.192 0C15.0276 0.375622 18.8961 4.50691 19.0448 9.5398C19.0448 13.8213 16.2179 17.4269 12.4238 18.7038L7.96015 11.1923C7.2162 9.91523 7.58822 8.33784 8.85292 7.58679L7.06746 4.50691C4.2405 6.23466 3.34772 9.84015 4.98435 12.6946C4.98435 12.6946 7.36502 16.7508 8.77846 19.0794C3.86848 18.7038 0 14.5725 0 9.5398C0 5.25815 2.7526 1.57739 6.62108 0.375622L11.0847 7.88713C11.8286 9.16418 11.4567 10.7416 10.192 11.4928L11.9774 14.5725C14.8044 12.8448 15.6971 9.23926 14.0605 6.38483Z"
          transform="translate(91.3713 52.9976)" fill="white"/>
    <g opacity="0.6" transform="translate(74.4409 67.8384)">
        <path d="M0 45.8057V0H15.4928C17.5798 0 19.2715 1.69502 19.2715 3.7856V42.0201C19.2715 44.1107 17.5798 45.8057 15.4928 45.8057H0Z" fill="#E3E7F0" style="mix-blend-mode:multiply"/>
    </g>
    <path d="M0 0.75275C0 0.337018 0.337017 0 0.752749 0H18.5188C18.9345 0 19.2715 0.337017 19.2715 0.752749V3.03285C19.2715 3.44858 18.9345 3.7856 18.5188 3.7856H0.752749C0.337017 3.7856 0 3.44858 0 3.03285V0.75275Z"
          transform="translate(91.4453 92.8232)" fill="#FE9741"/>
    <path d="M0 3.76375C0 1.68509 1.68509 0 3.76375 0H60.4747C62.5534 0 64.2385 1.68509 64.2385 3.76375V42.042C64.2385 44.1206 62.5534 45.8057 60.4747 45.8057H3.76375C1.68509 45.8057 0 44.1206 0 42.042V3.76375Z" transform="translate(25.3157 64.0518)"
          fill="url(#paint5_linear)"/>
    <path d="M0 0.75275C0 0.337018 0.337017 0 0.752749 0H27.2099C27.6256 0 27.9626 0.337017 27.9626 0.752749V6.81844C27.9626 7.23418 27.6256 7.57119 27.2099 7.57119H0.752749C0.337017 7.57119 0 7.23418 0 6.81844V0.75275Z"
          transform="translate(55.1682 69.73)" fill="white"/>
    <path opacity="0.8" d="M0 24.2741V26.834C0 29.1387 1.86368 31.0074 4.16275 31.0074H60.0757C62.3748 31.0074 64.2385 29.1387 64.2385 26.834V0C59.2761 14.4764 41.5844 20.4688 23.3114 19.6634C12.9625 19.2074 5.00181 21.7106 0 24.2741Z"
          transform="translate(25.3157 78.8506)" fill="url(#paint6_linear)"/>
    <path d="M0 0.752749C0 0.337017 0.337017 0 0.752749 0H50.638C51.0538 0 51.3908 0.337017 51.3908 0.752749V10.604C51.3908 11.0198 51.0538 11.3568 50.638 11.3568H0.75275C0.337018 11.3568 0 11.0198 0 10.604V0.752749Z"
          transform="translate(31.7397 92.0654)" fill="white"/>
    <path d="M0 0.75275C0 0.337018 0.337017 0 0.752749 0H17.0073C17.423 0 17.76 0.337017 17.76 0.752749V3.03285C17.76 3.44858 17.423 3.7856 17.0073 3.7856H0.752749C0.337017 3.7856 0 3.44858 0 3.03285V0.75275Z" transform="translate(55.1682 80.3301)"
          fill="white"/>
    <ellipse cx="9.44683" cy="9.46399" rx="9.44683" ry="9.46399" transform="translate(31.7397 68.5942)" fill="white"/>
    <path d="M9.76421 4.43391C9.71257 4.43391 7.7494 1.14755 7.07777 0C10.4358 0.260849 13.1223 3.1298 13.2256 6.62486C13.2256 9.5981 11.2624 12.102 8.62766 12.9887L5.52788 7.77241C5.01125 6.88558 5.2696 5.79017 6.14786 5.2686L4.90796 3.1298C2.94479 4.32962 2.32481 6.83344 3.46136 8.81568C3.46136 8.81568 5.1146 11.6325 6.09615 13.2496C2.68644 12.9887 0 10.1198 0 6.62486C0 3.65149 1.91153 1.09541 4.59797 0.260849L7.69769 5.47718C8.21432 6.36401 7.95604 7.45942 7.07777 7.98112L8.31767 10.1198C10.2808 8.91997 10.9008 6.41616 9.76421 4.43391Z"
          transform="translate(34.5752 71.4336)" fill="url(#paint7_linear)"/>
    <defs>
        <linearGradient id="paint0_linear" x2="1" gradientUnits="userSpaceOnUse" gradientTransform="matrix(133.412 -51.8446 79.7856 205.485 -36.3318 -36.7584)">
            <stop stop-color="#62F7FF"/>
            <stop offset="1" stop-color="#AB4FFF"/>
        </linearGradient>
        <linearGradient id="paint1_linear" x2="1" gradientUnits="userSpaceOnUse" gradientTransform="matrix(-24.9453 55.526 -66.6451 -32.1649 98.3107 24.3712)">
            <stop stop-color="#0D53D6"/>
            <stop offset="1" stop-color="#09276A"/>
        </linearGradient>
        <linearGradient id="paint2_linear" x2="1" gradientUnits="userSpaceOnUse" gradientTransform="translate(34.2311) scale(34.2311 34.2691) rotate(90)">
            <stop stop-color="#FDE48C"/>
            <stop offset="1" stop-color="#FF7446"/>
        </linearGradient>
        <linearGradient id="paint3_linear" x2="1" gradientUnits="userSpaceOnUse" gradientTransform="matrix(-1.41589e-06 204.913 -127.708 5.35768 90.4922 -2.67884)">
            <stop stop-color="white"/>
            <stop offset="1" stop-color="#CAD2E3"/>
        </linearGradient>
        <linearGradient id="paint4_linear" x2="1" gradientUnits="userSpaceOnUse" gradientTransform="translate(13.6034 -13.6281) scale(38.4763 38.5462) rotate(45)">
            <stop stop-color="#FEA844"/>
            <stop offset="1" stop-color="#FF382F"/>
        </linearGradient>
        <linearGradient id="paint5_linear" x2="1" gradientUnits="userSpaceOnUse" gradientTransform="translate(32.1192 -22.9029) scale(90.8469 64.7791) rotate(45)">
            <stop stop-color="#FEA844"/>
            <stop offset="1" stop-color="#FF382F"/>
        </linearGradient>
        <linearGradient id="paint6_linear" x2="1" gradientUnits="userSpaceOnUse" gradientTransform="matrix(-89.0829 42.1512 -87.3254 -185.499 132.746 81.5298)">
            <stop stop-color="#FE9741"/>
            <stop offset="1" stop-color="#FF4B33"/>
        </linearGradient>
        <linearGradient id="paint7_linear" x2="1" gradientUnits="userSpaceOnUse" gradientTransform="translate(6.61278 -6.6248) scale(18.7038 18.7378) rotate(45)">
            <stop stop-color="#FEA844"/>
            <stop offset="1" stop-color="#FF382F"/>
        </linearGradient>
    </defs>
</svg>
