<svg width="180" height="180" viewBox="0 0 180 180" fill="none" xmlns="http://www.w3.org/2000/svg">
    <path d="M81.0216 0.0328925C56.7983 1.05622 49.3708 23.2423 31.2904 37.2962C23.0902 43.6703 5.27864e-05 44.5777 0 70.4541C-7.53737e-05 107.403 48.5541 120.603 90.7157 102.216C164.361 70.0984 123.429 -1.75866 81.0216 0.0328925Z"
          transform="translate(22 38)" fill="url(#paint0_linear)"/>
    <path d="M86.7498 44.4268C85.1745 43.9704 80.2534 46.3956 76.9838 44.4268C74.3671 42.8512 73.4238 38.7802 70.1335 37.1379C64.2702 34.2117 63.6526 42.1147 56.3226 42.1147C49.4668 42.1147 53.6873 32.5403 50.2803 28.4827C45.864 23.223 41.3869 37.5203 35.3905 34.9741C29.5629 32.4997 33.6353 25.7683 31.7219 22.4241C29.3048 18.2013 24.5498 22.4034 18.1268 20.693C8.53183 18.1393 24.0819 3.09752 9.20439 3.1709C7.07973 3.18146 4.90513 2.84253 2.93136 1.20235C2.51305 0.854533 2.11939 0.460231 1.78031 0C0.653708 3.08511 0 6.7323 0 11.0865C0 44.8993 42.2959 61.8053 86.7498 44.4268Z"
          transform="translate(22.0005 97.3672)" fill="url(#paint1_linear)"/>
    <path d="M5.55639 0C5.52878 0.0714224 5.4997 0.142422 5.46893 0.213844C4.89614 1.54171 3.77607 2.7542 2.69794 3.92147C0.305223 6.51211 -1.88097 8.8792 2.58182 11.7826C3.25597 12.1202 3.89008 12.411 4.48015 12.6819L4.48752 12.6853C7.63173 14.129 9.635 16.0345 9.52184 19.2743C9.42679 21.9951 7.44481 23.547 5.57072 25.0139L5.46893 25.0938C3.23764 26.8417 1.34479 28.3247 3.64942 30.7792C5.31509 32.553 7.4271 33.6759 9.20995 34.6238C11.9988 36.1059 13.1918 38.8779 11.4008 41.3261C10.7437 42.2241 9.76671 42.9075 8.80364 43.5812C6.31525 45.3215 3.92022 46.9968 7.37885 52.1451C9.03187 54.254 10.5901 57.2761 11.3057 60.6904C25.615 40.0139 19.7428 15.8177 5.55639 0Z"
          transform="translate(133.784 54.958)" fill="url(#paint2_linear)"/>
    <ellipse cx="18.3426" cy="18.3923" rx="18.3426" ry="18.3923" transform="translate(34.9468 41.541)" fill="url(#paint3_linear)"/>
    <path d="M0 0L75.8911 0.0764302V5.69498C75.8911 7.32436 74.5693 8.64478 72.9399 8.64314L2.9452 8.57265C1.31813 8.57101 0 7.25155 0 5.62448V0Z" transform="translate(124.271 117.752) scale(-1 1)" fill="url(#paint4_linear)"/>
    <path d="M0 0H79.0254L79.0336 5.22898C79.0362 6.85902 77.7155 8.18178 76.0855 8.18178H2.94817C1.31994 8.18178 0 6.86184 0 5.23362V0Z" transform="translate(161.559 118.217) scale(-1 1)" fill="url(#paint5_linear)"/>
    <path d="M0 2.58348C0 1.15883 1.15487 0.00390366 2.57952 0.00383296L76.5549 0.000162065C77.9797 9.13643e-05 79.1347 1.15506 79.1347 2.57981V56.0326L0 56.0365V2.58348Z" transform="translate(127.519 62.1836) scale(-1 1)"
          fill="url(#paint6_linear)"/>
    <path d="M0 0.523186C0 0.234238 0.234238 0 0.523185 0H70.6893C70.9783 0 71.2125 0.234238 71.2125 0.523185V47.946C71.2125 48.2349 70.9783 48.4692 70.6893 48.4692H0.523186C0.234239 48.4692 0 48.2349 0 47.946V0.523186Z"
          transform="translate(124.031 65.6748) scale(-1 1)" fill="url(#paint7_linear)"/>
    <path opacity="0.6" d="M0 0H21.9615L20.9671 2.32468C20.72 2.9023 20.1523 3.27693 19.524 3.27693H2.43751C1.80926 3.27693 1.24154 2.9023 0.994449 2.32468L0 0Z" transform="translate(114.804 118.217)" fill="#FF5A41"/>
    <rect width="6.90545" height="33.7125" rx="0.790727" transform="translate(79.4006 78.2373)" fill="#D752AE"/>
    <rect width="6.90545" height="12.1365" rx="0.790727" transform="translate(57.3914 99.8135)" fill="#E758B5"/>
    <rect width="6.90545" height="15.9573" rx="0.790727" transform="translate(68.1802 95.9922)" fill="#E658B5"/>
    <rect width="6.90545" height="23.5988" rx="0.790727" transform="translate(90.1936 88.127)" fill="#BA47A1"/>
    <path d="M0 0.790726C0 0.35402 0.35402 0 0.790727 0H6.11473C6.55143 0 6.90545 0.35402 6.90545 0.790727V19.4368C6.90545 19.8735 6.55143 20.2275 6.11473 20.2275H0.790727C0.35402 20.2275 0 19.8735 0 19.4368V0.790726Z"
          transform="translate(101.414 91.7227)" fill="#9A3A93"/>
    <path d="M0 0.790727C0 0.354021 0.35402 0 0.790727 0H6.11473C6.55143 0 6.90545 0.35402 6.90545 0.790727V28.4268C6.90545 28.8635 6.55143 29.2175 6.11473 29.2175H0.790727C0.35402 29.2175 0 28.8635 0 28.4268V0.790727Z"
          transform="translate(112.203 82.7324)" fill="#91378F"/>
    <path d="M0 24.7224C1.12206 26.6328 4.57477 35.9154 12.0249 35.9154C25.4042 35.9154 21.4572 12.684 33.1729 12.684C42.8837 12.684 43.7468 26.0996 53.8892 26.0996C64.0316 26.0996 65.3536 17.4721 70.2897 8.21866C75.253 -1.0858 85.3954 -3.033 96.6167 5.1895"
          transform="translate(64.5742 54.7432)" stroke="url(#paint8_linear)" stroke-width="3.76375"/>
    <g style="mix-blend-mode:darken" opacity="0.6" transform="translate(64.8704 77.5371)">
        <path d="M62.6456 10.8525C60.8783 12.6647 58.9077 13.6139 56.1802 13.6139C54.7583 13.6139 53.3639 13.0341 51.8754 11.9251C50.3674 10.8018 48.9272 9.26177 47.412 7.56073L46.9186 7.00457L46.8065 6.87778C45.5269 5.43159 44.1689 3.89706 42.7911 2.69387C41.2043 1.30853 39.232 0.0313807 36.8837 0.000952195C33.1027 -0.0484941 30.3726 1.83342 28.3225 4.33828C26.3428 6.75692 24.8397 9.94768 23.4667 12.8853L23.362 13.1093C21.9743 16.079 20.6896 18.8286 19.092 20.989C17.4902 23.1549 15.7501 24.4832 13.546 24.8335C11.1156 25.2207 9.09102 23.777 7.28352 21.2641C6.41148 20.0516 5.69434 18.7238 5.11229 17.5404C4.8691 17.046 4.65625 16.5908 4.46216 16.1758L4.34921 15.9345C4.14395 15.4966 3.92056 15.0233 3.71868 14.6797L0 16.8761C0.0786052 17.01 0.21137 17.2809 0.443603 17.7758L0.550447 18.0045C0.744747 18.4199 0.977823 18.9182 1.24146 19.4545C1.86967 20.7316 2.70903 22.3021 3.78295 23.7956C5.86799 26.6943 9.29501 29.8918 14.2225 29.1079C17.9435 28.5158 20.5728 26.2523 22.5588 23.5665C24.4211 21.0482 25.8702 17.9444 27.1894 15.1184L27.3748 14.7216C28.799 11.6741 30.0845 9.00735 31.6589 7.0836C33.1625 5.24606 34.7513 4.30109 36.8277 4.32813C37.6211 4.33828 38.6114 4.78329 39.9571 5.95775C41.1073 6.96231 42.255 8.25721 43.554 9.72327C43.7629 9.95909 43.9755 10.1991 44.1928 10.443C45.6995 12.1347 47.4004 13.9828 49.3017 15.399C51.2228 16.83 53.5063 17.9415 56.1802 17.9415C58.7151 17.9415 60.829 17.3418 62.6456 16.3013V10.8525Z"
              fill="#E3E7F0"/>
    </g>
    <path d="M0 3.76375C0 1.68509 1.68509 0 3.76375 0H31.9143C33.9929 0 35.678 1.68509 35.678 3.76375V27.1242C35.678 29.2029 33.9929 30.8879 31.9143 30.8879H3.76375C1.68509 30.8879 0 29.2029 0 27.1242V3.76375Z" transform="translate(34.9468 73.5654)"
          fill="url(#paint9_linear)"/>
    <path d="M35.5771 0.00010574C35.6426 0.279403 35.6777 0.570418 35.6777 0.869246V24.2296C35.6777 26.3087 33.9932 27.9933 31.9141 27.9933H3.76367C1.68555 27.9933 0 26.3087 0 24.2296V22.8673C2.05078 20.1476 5.00293 17.6798 9.05371 17.0401C20.1924 15.2814 22.0781 11.6573 24.0039 7.95714C25.2764 5.51182 26.5654 3.03429 30.5537 1.04014C32.1738 0.230574 33.9043 -0.00575363 35.5771 0.00010574Z"
          transform="translate(34.9463 76.46)" fill="url(#paint10_linear)"/>
    <path d="M12.855 6.50804C14.6258 6.50804 16.0613 5.05116 16.0613 3.25402C16.0613 1.45688 14.6258 0 12.855 0C11.3604 0 10.1048 1.03766 9.74926 2.44178L9.74878 2.44051C9.54838 2.94895 8.76684 4.23023 7.64459 4.47428C6.54573 4.71323 5.00497 4.41921 4.37686 4.27959C4.28777 4.24516 4.19682 4.21464 4.10415 4.18825C4.08189 4.18167 4.05953 4.17534 4.03703 4.16921C2.32655 3.70407 0.568364 4.73423 0.110031 6.47015C-0.330151 8.13755 0.588962 9.84961 2.17806 10.3943C2.50923 10.5117 2.86517 10.5756 3.23583 10.5756C3.36132 10.5756 3.48515 10.5683 3.60688 10.554C4.28831 10.5897 5.77535 10.72 6.73957 11.2206C7.76133 11.7511 8.18947 13.194 8.25337 13.7378L8.2542 13.7367C8.23948 15.1863 9.18775 16.5185 10.6313 16.911C12.3418 17.3762 14.1 16.346 14.5583 14.6101C15.0166 12.8742 14.0016 11.0899 12.2911 10.6247C11.6126 10.4403 10.9267 10.491 10.3173 10.7277C9.64628 10.9026 8.32627 11.0245 7.412 10.2454C6.52126 9.48652 6.33921 8.55905 6.36177 8.049C6.39254 7.91226 6.4148 7.77221 6.42801 7.62949L6.4422 7.62661C6.47562 7.18594 6.843 6.16228 8.04539 5.59285C9.12718 5.08051 10.3712 5.54493 10.9747 5.89011C11.5029 6.27884 12.1526 6.50804 12.855 6.50804Z"
          transform="matrix(0.994559 -0.104178 0.101118 0.994875 44.0117 81.729)" fill="white"/>
    <ellipse cx="2.75026" cy="2.76229" rx="2.75026" ry="2.76229" transform="translate(105.51 70.7568)" fill="#BA0360"/>
    <path d="M14.4081 7.78969C14.4081 11.4711 11.4327 14.4502 7.76864 14.4502C4.10461 14.4502 1.12912 11.4711 1.12912 7.78969C1.12912 4.10828 4.10461 1.12912 7.76864 1.12912C11.4327 1.12912 14.4081 4.10828 14.4081 7.78969Z"
          transform="translate(100.551 65.7754)" stroke="#BA0360" stroke-width="2.25825"/>
    <defs>
        <linearGradient id="paint0_linear" x2="1" gradientUnits="userSpaceOnUse" gradientTransform="translate(139.404 -6.4128) scale(139.404 117.711) rotate(90)">
            <stop stop-color="#7EF4FF"/>
            <stop offset="1" stop-color="#B28AF1"/>
        </linearGradient>
        <linearGradient id="paint1_linear" x2="1" gradientUnits="userSpaceOnUse" gradientTransform="matrix(30.6427 52.5843 -67.3605 39.125 41.8579 -18.3826)">
            <stop stop-color="#0B1C7D"/>
            <stop offset="1" stop-color="#103ECE"/>
        </linearGradient>
        <linearGradient id="paint2_linear" x2="1" gradientUnits="userSpaceOnUse" gradientTransform="translate(20.6865 -1.08444) scale(19.6146 68.9296) rotate(90)">
            <stop stop-color="#0B1C7D"/>
            <stop offset="1" stop-color="#103FD0"/>
        </linearGradient>
        <linearGradient id="paint3_linear" x2="1" gradientUnits="userSpaceOnUse" gradientTransform="translate(43.3004 -13.1051) scale(49.787 49.9219) rotate(90.074)">
            <stop stop-color="#7122BF"/>
            <stop offset="1" stop-color="#FFBF94"/>
        </linearGradient>
        <linearGradient id="paint4_linear" x2="1" gradientUnits="userSpaceOnUse" gradientTransform="matrix(50.0645 -21.2053 -11.7308 11.8881 28.5087 19.4646)">
            <stop stop-color="#FF4736"/>
            <stop offset="1" stop-color="#FBB979"/>
        </linearGradient>
        <linearGradient id="paint5_linear" x2="1" gradientUnits="userSpaceOnUse" gradientTransform="matrix(68.0509 -0.603723 -19.2371 8.15253 15.1673 1.47186)">
            <stop stop-color="#FF945C"/>
            <stop offset="1" stop-color="#F7CE89"/>
        </linearGradient>
        <linearGradient id="paint6_linear" x2="1" gradientUnits="userSpaceOnUse" gradientTransform="matrix(58.6964 -87.2012 55.8355 55.2998 -20.1576 50.9464)">
            <stop stop-color="#FF4034"/>
            <stop offset="1" stop-color="#FFA366"/>
        </linearGradient>
        <linearGradient id="paint7_linear" x2="1" gradientUnits="userSpaceOnUse" gradientTransform="matrix(-49.5927 45.6142 -68.2365 -72.684 123.089 14.6003)">
            <stop stop-color="#EAEDF4"/>
            <stop offset="1" stop-color="white"/>
        </linearGradient>
        <linearGradient id="paint8_linear" x2="1" gradientUnits="userSpaceOnUse" gradientTransform="matrix(74.7731 -16.9164 33.9645 144.81 -15.1519 -44.0287)">
            <stop stop-color="#FF9F2E"/>
            <stop offset="1" stop-color="#C83697"/>
        </linearGradient>
        <linearGradient id="paint9_linear" x2="1" gradientUnits="userSpaceOnUse" gradientTransform="matrix(1 -40.5 51.6183 1.54513 -6.25544 29.662)">
            <stop stop-color="#0D37B7"/>
            <stop offset="1" stop-color="#60CCF0"/>
        </linearGradient>
        <linearGradient id="paint10_linear" x2="1" gradientUnits="userSpaceOnUse" gradientTransform="matrix(-18.2148 35.4532 -45.1855 -23.215 58.6465 4.14755)">
            <stop stop-color="#7DF4FF"/>
            <stop offset="1" stop-color="#0850BE"/>
        </linearGradient>
    </defs>
</svg>
