<svg width="95px" height="90px" viewBox="0 0 95 90" version="1.1" xmlns="http://www.w3.org/2000/svg">
    <g id="Welcome" stroke="none" stroke-width="1" fill="none" fill-rule="evenodd">
        <g id="Design" transform="translate(-402.000000, -292.000000)">
            <g id="new-white" transform="translate(198.000000, 244.000000)">
                <g id="board" transform="translate(155.000000, 0.000000)">
                    <g id="chart" transform="translate(49.189394, 48.150000)">
                        <path d="M90.0825357,89.2486764 L9.63909334,89.2486764 C7.11479289,89.2486764 5.068375,87.1997391 5.068375,84.672254 L5.068375,9.61974481 C5.068375,7.09225972 7.11479289,5.04332247 9.63909334,5.04332247 L90.0825357,5.04332247 C92.6067452,5.04332247 94.6531631,7.09225972 94.6531631,9.61974481 L94.6531631,84.672254 C94.6531631,87.1846728 92.6310304,89.2242468 90.0825357,89.2486764 Z"
                              id="-copy-5" fill="#7E9ACA" opacity="0.1"></path>
                        <path d="M84.9570728,84.3796375 L5.03078464,84.3796375 C2.52271239,84.3796375 0.489450485,82.337557 0.489450485,79.8185301 L0.489450485,5.01718414 C0.489450485,2.49815728 2.52271239,0.4560768 5.03078464,0.4560768 L84.9570728,0.4560768 C87.4650547,0.4560768 89.4983166,2.49815728 89.4983166,5.01718414 L89.4983166,79.8185301 C89.4983166,82.3225411 87.4891838,84.3552896 84.9570728,84.3796375 Z"
                              id="base" fill="#FFFFFF"></path>
                        <g transform="translate(4.995394, 17.332028)" id="">
                            <path d="M2.10903249,46.2048322 C2.10903249,46.2048322 5.35849063,39.0056662 11.857248,24.6073816 L27.6141159,27.746916 L39.7341784,11.1060459 L59.8161604,3.00997844 L77.3593243,14.725433" stroke="#D6E3FA" stroke-width="5"
                                  fill-opacity="0" fill="#000000" opacity="0.4"></path>
                            <path d="M27.4362931,30.6643591 C29.1726574,30.6643591 30.5802358,29.2506206 30.5802358,27.5066619 C30.5802358,25.7627789 29.1726574,24.3490404 27.4362931,24.3490404 C25.6999288,24.3490404 24.2923504,25.7627789 24.2923504,27.5066619 C24.2923504,29.2506206 25.6999288,30.6643591 27.4362931,30.6643591 Z"
                                  fill="#FACA39"></path>
                            <path d="M11.9959692,29.0153176 C13.7323335,29.0153176 15.1399119,27.6015797 15.1399119,25.857705 C15.1399119,24.113781 13.7323335,22.700002 11.9959692,22.700002 C10.2596048,22.700002 8.85202644,24.113781 8.85202644,25.857705 C8.85202644,27.6015797 10.2596048,29.0153176 11.9959692,29.0153176 Z"
                                  fill="#FACA39"></path>
                            <path d="M39.697673,14.2445435 C41.4340291,14.2445435 42.8416647,12.8308049 42.8416647,11.0868462 C42.8416647,9.34296325 41.4340291,7.9292247 39.697673,7.9292247 C37.9613577,7.9292247 36.5537303,9.34296325 36.5537303,11.0868462 C36.5537303,12.8308049 37.9613577,14.2445435 39.697673,14.2445435 Z"
                                  fill="#FACA39"></path>
                            <path d="M59.6792884,6.94684762 C61.4156527,6.94684762 62.8232311,5.53307117 62.8232311,3.78915034 C62.8232311,2.0452674 61.4156527,0.631528846 59.6792884,0.631528846 C57.9429241,0.631528846 56.5353457,2.0452674 56.5353457,3.78915034 C56.5353457,5.53307117 57.9429241,6.94684762 59.6792884,6.94684762 Z"
                                  fill="#FACA39"></path>
                        </g>
                    </g>
                </g>
            </g>
        </g>
    </g>
</svg>