<svg width="220px" height="352px" viewBox="0 0 220 352" version="1.1" xmlns="http://www.w3.org/2000/svg">
    <defs>
        <linearGradient x1="50.0699301%" y1="116.754639%" x2="50.0699301%" y2="-46.8536082%" id="linearGradient-1">
            <stop stop-color="#FFFFFF" offset="10%"></stop>
            <stop stop-color="#B1CBE3" offset="67%"></stop>
        </linearGradient>
        <linearGradient x1="98.2629108%" y1="56.675542%" x2="65.4929577%" y2="52.9478889%" id="linearGradient-2">
            <stop stop-color="#FFFFFF" stop-opacity="0" offset="0%"></stop>
            <stop stop-color="#000000" offset="100%"></stop>
        </linearGradient>
        <linearGradient x1="139.301047%" y1="-41.2187657%" x2="-3.40115374%" y2="85.2817925%" id="linearGradient-3">
            <stop stop-color="#208CA3" offset="0%"></stop>
            <stop stop-color="#3C4178" offset="42%"></stop>
            <stop stop-color="#241B3C" offset="100%"></stop>
        </linearGradient>
        <linearGradient x1="-3.84187939%" y1="114.847645%" x2="55.3324834%" y2="23.033241%" id="linearGradient-4">
            <stop stop-color="#208CA3" offset="0%"></stop>
            <stop stop-color="#3C4178" offset="42%"></stop>
            <stop stop-color="#241B3C" offset="100%"></stop>
        </linearGradient>
        <linearGradient x1="-3.6176888%" y1="-13.678149%" x2="120.022812%" y2="157.060954%" id="linearGradient-5">
            <stop stop-color="#208CA3" offset="0%"></stop>
            <stop stop-color="#3C4178" offset="42%"></stop>
            <stop stop-color="#241B3C" offset="100%"></stop>
        </linearGradient>
        <linearGradient x1="50.0021098%" y1="114.366102%" x2="50.0021098%" y2="-87.0911889%" id="linearGradient-6">
            <stop stop-color="#FFFFFF" offset="10%"></stop>
            <stop stop-color="#B1CBE3" offset="67%"></stop>
        </linearGradient>
        <linearGradient x1="-49.8300146%" y1="119.112983%" x2="84.5313259%" y2="-14.688833%" id="linearGradient-7">
            <stop stop-color="#FFFFFF" stop-opacity="0" offset="0%"></stop>
            <stop stop-color="#000000" offset="100%"></stop>
        </linearGradient>
        <linearGradient x1="137.164601%" y1="92.5481128%" x2="-27.9783354%" y2="-15.7019245%" id="linearGradient-8">
            <stop stop-color="#FFFFFF" stop-opacity="0" offset="0%"></stop>
            <stop stop-color="#000000" offset="100%"></stop>
        </linearGradient>
        <linearGradient x1="172.410449%" y1="67.807966%" x2="31.9511022%" y2="46.2132424%" id="linearGradient-9">
            <stop stop-color="#208CA3" offset="0%"></stop>
            <stop stop-color="#3C4178" offset="42%"></stop>
            <stop stop-color="#241B3C" offset="100%"></stop>
        </linearGradient>
        <linearGradient x1="3.33683657%" y1="55.3429581%" x2="68.1292696%" y2="36.3682296%" id="linearGradient-10">
            <stop stop-color="#208CA3" offset="0%"></stop>
            <stop stop-color="#3C4178" offset="42%"></stop>
            <stop stop-color="#241B3C" offset="100%"></stop>
        </linearGradient>
        <linearGradient x1="117.385791%" y1="-13.7808224%" x2="-5.66173784%" y2="122.597653%" id="linearGradient-11">
            <stop stop-color="#208CA3" offset="0%"></stop>
            <stop stop-color="#3C4178" offset="42%"></stop>
            <stop stop-color="#241B3C" offset="100%"></stop>
        </linearGradient>
        <linearGradient x1="83.0545062%" y1="-20.8335787%" x2="32.7846735%" y2="61.5929886%" id="linearGradient-12">
            <stop stop-color="#FFD600" offset="0%"></stop>
            <stop stop-color="#FF9C38" offset="22%"></stop>
            <stop stop-color="#FF5147" offset="100%"></stop>
        </linearGradient>
        <linearGradient x1="91.9955889%" y1="222.708138%" x2="52.5615036%" y2="67.6099158%" id="linearGradient-13">
            <stop stop-color="#208CA3" offset="0%"></stop>
            <stop stop-color="#3C4178" offset="42%"></stop>
            <stop stop-color="#241B3C" offset="100%"></stop>
        </linearGradient>
        <linearGradient x1="153.979167%" y1="96.5429856%" x2="-37.4583333%" y2="12.8434347%" id="linearGradient-14">
            <stop stop-color="#FFD600" offset="0%"></stop>
            <stop stop-color="#FF9C38" offset="22%"></stop>
            <stop stop-color="#FF5147" offset="100%"></stop>
        </linearGradient>
        <linearGradient x1="191.843137%" y1="94.9559648%" x2="4.39215686%" y2="38.2706165%" id="linearGradient-15">
            <stop stop-color="#FFD600" offset="0%"></stop>
            <stop stop-color="#FF9C38" offset="22%"></stop>
            <stop stop-color="#FF5147" offset="100%"></stop>
        </linearGradient>
        <linearGradient x1="1980.5%" y1="4389.5%" x2="-958.5%" y2="-2214.5%" id="linearGradient-16">
            <stop stop-color="#208CA3" offset="0%"></stop>
            <stop stop-color="#3C4178" offset="42%"></stop>
            <stop stop-color="#241B3C" offset="100%"></stop>
        </linearGradient>
        <linearGradient x1="50.0636784%" y1="121.263871%" x2="50.0636784%" y2="-101.317557%" id="linearGradient-17">
            <stop stop-color="#FFFFFF" stop-opacity="0" offset="0%"></stop>
            <stop stop-color="#000000" offset="100%"></stop>
        </linearGradient>
        <linearGradient x1="45.1495052%" y1="108.670776%" x2="52.508191%" y2="-8.04208076%" id="linearGradient-18">
            <stop stop-color="#FFFFFF" stop-opacity="0" offset="0%"></stop>
            <stop stop-color="#000000" offset="100%"></stop>
        </linearGradient>
        <linearGradient x1="45.1020739%" y1="108.66152%" x2="52.4607597%" y2="-8.05133616%" id="linearGradient-19">
            <stop stop-color="#FFFFFF" stop-opacity="0" offset="0%"></stop>
            <stop stop-color="#000000" offset="100%"></stop>
        </linearGradient>
        <linearGradient x1="45.2477636%" y1="165.255313%" x2="60.9808976%" y2="-203.974058%" id="linearGradient-20">
            <stop stop-color="#FFFFFF" stop-opacity="0" offset="0%"></stop>
            <stop stop-color="#000000" offset="100%"></stop>
        </linearGradient>
        <linearGradient x1="45.5637829%" y1="177.308994%" x2="52.3503031%" y2="-2.43891871%" id="linearGradient-21">
            <stop stop-color="#FFD600" offset="0%"></stop>
            <stop stop-color="#FF9C38" offset="30%"></stop>
            <stop stop-color="#FF5147" offset="100%"></stop>
        </linearGradient>
        <linearGradient x1="198.338955%" y1="81.9412296%" x2="-142.731318%" y2="14.3365301%" id="linearGradient-22">
            <stop stop-color="#ABCF9C" offset="0%"></stop>
            <stop stop-color="#84CF9C" offset="17%"></stop>
            <stop stop-color="#39CE9C" offset="46%"></stop>
            <stop stop-color="#007A75" offset="100%"></stop>
        </linearGradient>
        <linearGradient x1="37.7094772%" y1="166.265504%" x2="54.9256288%" y2="-8.01657501%" id="linearGradient-23">
            <stop stop-color="#FFD600" offset="0%"></stop>
            <stop stop-color="#FF9C38" offset="22%"></stop>
            <stop stop-color="#FF5147" offset="100%"></stop>
        </linearGradient>
        <linearGradient x1="195.454423%" y1="106.080332%" x2="-22.8599879%" y2="21.9864055%" id="linearGradient-24">
            <stop stop-color="#FFD600" offset="0%"></stop>
            <stop stop-color="#FF9C38" offset="22%"></stop>
            <stop stop-color="#FF5147" offset="100%"></stop>
        </linearGradient>
        <linearGradient x1="48.5423083%" y1="139.217869%" x2="51.6822537%" y2="13.2353434%" id="linearGradient-25">
            <stop stop-color="#FFD600" offset="0%"></stop>
            <stop stop-color="#FF9C38" offset="22%"></stop>
            <stop stop-color="#FF5147" offset="100%"></stop>
        </linearGradient>
        <linearGradient x1="41.9232669%" y1="165.269689%" x2="53.3777977%" y2="-7.44558204%" id="linearGradient-26">
            <stop stop-color="#FFD600" offset="0%"></stop>
            <stop stop-color="#FF9C38" offset="22%"></stop>
            <stop stop-color="#FF5147" offset="100%"></stop>
        </linearGradient>
        <linearGradient x1="47.7128573%" y1="138.624858%" x2="50.5236258%" y2="24.5763994%" id="linearGradient-27">
            <stop stop-color="#FFD600" offset="0%"></stop>
            <stop stop-color="#FF9C38" offset="22%"></stop>
            <stop stop-color="#FF5147" offset="100%"></stop>
        </linearGradient>
        <linearGradient x1="-162.586748%" y1="626.559913%" x2="-162.586748%" y2="456.748055%" id="linearGradient-28">
            <stop stop-color="#ABCF9C" offset="0%"></stop>
            <stop stop-color="#84CF9C" offset="17%"></stop>
            <stop stop-color="#39CE9C" offset="46%"></stop>
            <stop stop-color="#007A75" offset="100%"></stop>
        </linearGradient>
        <linearGradient x1="-403.71827%" y1="584.897801%" x2="-523.989989%" y2="481.557051%" id="linearGradient-29">
            <stop stop-color="#ABCF9C" offset="0%"></stop>
            <stop stop-color="#84CF9C" offset="17%"></stop>
            <stop stop-color="#39CE9C" offset="46%"></stop>
            <stop stop-color="#007A75" offset="100%"></stop>
        </linearGradient>
        <linearGradient x1="379.89505%" y1="128.501328%" x2="-136.529737%" y2="10.0901366%" id="linearGradient-30">
            <stop stop-color="#FFD600" offset="0%"></stop>
            <stop stop-color="#FF9C38" offset="27%"></stop>
            <stop stop-color="#FF5147" offset="100%"></stop>
        </linearGradient>
        <linearGradient x1="414.485853%" y1="82.2839085%" x2="-75.0047836%" y2="36.8014044%" id="linearGradient-31">
            <stop stop-color="#FFD600" offset="0%"></stop>
            <stop stop-color="#FF9C38" offset="22%"></stop>
            <stop stop-color="#FF5147" offset="100%"></stop>
        </linearGradient>
        <linearGradient x1="43.3112947%" y1="169.553774%" x2="55.6748727%" y2="-62.5627612%" id="linearGradient-32">
            <stop stop-color="#FFD600" offset="0%"></stop>
            <stop stop-color="#FF9C38" offset="22%"></stop>
            <stop stop-color="#FF5147" offset="100%"></stop>
        </linearGradient>
        <linearGradient x1="398.715306%" y1="72.040718%" x2="-414.031934%" y2="15.4293727%" id="linearGradient-33">
            <stop stop-color="#FFD600" offset="0%"></stop>
            <stop stop-color="#FF9C38" offset="22%"></stop>
            <stop stop-color="#FF5147" offset="100%"></stop>
        </linearGradient>
        <linearGradient x1="46.191078%" y1="194.547864%" x2="59.0278%" y2="-277.777097%" id="linearGradient-34">
            <stop stop-color="#FFD600" offset="0%"></stop>
            <stop stop-color="#FF9C38" offset="22%"></stop>
            <stop stop-color="#FF5147" offset="100%"></stop>
        </linearGradient>
        <linearGradient x1="48.738658%" y1="100.120185%" x2="65.3017247%" y2="-474.105372%" id="linearGradient-35">
            <stop stop-color="#FFD600" offset="0%"></stop>
            <stop stop-color="#FF9C38" offset="22%"></stop>
            <stop stop-color="#FF5147" offset="100%"></stop>
        </linearGradient>
        <linearGradient x1="47.5631552%" y1="163.677792%" x2="51.0451215%" y2="-5.99963378%" id="linearGradient-36">
            <stop stop-color="#FFD600" offset="0%"></stop>
            <stop stop-color="#FF9C38" offset="22%"></stop>
            <stop stop-color="#FF5147" offset="100%"></stop>
        </linearGradient>
        <linearGradient x1="105.00533%" y1="101.235937%" x2="-10.3366228%" y2="-6.09187545%" id="linearGradient-37">
            <stop stop-color="#FFD600" offset="0%"></stop>
            <stop stop-color="#FF9C38" offset="22%"></stop>
            <stop stop-color="#FF5147" offset="100%"></stop>
        </linearGradient>
        <linearGradient x1="47.4531485%" y1="100.845513%" x2="52.4980376%" y2="-0.242587138%" id="linearGradient-38">
            <stop stop-color="#208CA3" offset="0%"></stop>
            <stop stop-color="#3C4178" offset="42%"></stop>
            <stop stop-color="#241B3C" offset="100%"></stop>
        </linearGradient>
        <linearGradient x1="47.3643624%" y1="100.816115%" x2="52.4038268%" y2="-0.273256041%" id="linearGradient-39">
            <stop stop-color="#208CA3" offset="0%"></stop>
            <stop stop-color="#3C4178" offset="42%"></stop>
            <stop stop-color="#241B3C" offset="100%"></stop>
        </linearGradient>
        <linearGradient x1="47.5759569%" y1="163.884194%" x2="51.0589319%" y2="-6.03110213%" id="linearGradient-40">
            <stop stop-color="#FFD600" offset="0%"></stop>
            <stop stop-color="#FF9C38" offset="22%"></stop>
            <stop stop-color="#FF5147" offset="100%"></stop>
        </linearGradient>
        <linearGradient x1="104.950533%" y1="101.244132%" x2="-10.1663522%" y2="-6.08652992%" id="linearGradient-41">
            <stop stop-color="#FFD600" offset="0%"></stop>
            <stop stop-color="#FF9C38" offset="22%"></stop>
            <stop stop-color="#FF5147" offset="100%"></stop>
        </linearGradient>
        <linearGradient x1="78.7594847%" y1="-85.4377331%" x2="-38.1092968%" y2="464.290913%" id="linearGradient-42">
            <stop stop-color="#208CA3" offset="0%"></stop>
            <stop stop-color="#3C4178" offset="42%"></stop>
            <stop stop-color="#241B3C" offset="100%"></stop>
        </linearGradient>
        <linearGradient x1="-186.841555%" y1="105.791962%" x2="409.754242%" y2="-37.9432624%" id="linearGradient-43">
            <stop stop-color="#208CA3" offset="0%"></stop>
            <stop stop-color="#3C4178" offset="42%"></stop>
            <stop stop-color="#241B3C" offset="100%"></stop>
        </linearGradient>
        <linearGradient x1="-67.0809852%" y1="188.745387%" x2="131.928155%" y2="-45.202952%" id="linearGradient-44">
            <stop stop-color="#FFFFFF" stop-opacity="0" offset="0%"></stop>
            <stop stop-color="#000000" offset="100%"></stop>
        </linearGradient>
        <linearGradient x1="217.052758%" y1="138.474715%" x2="-41.601254%" y2="-4.60306322%" id="linearGradient-45">
            <stop stop-color="#FFD600" offset="0%"></stop>
            <stop stop-color="#FF9C38" offset="27%"></stop>
            <stop stop-color="#FF5147" offset="100%"></stop>
        </linearGradient>
        <linearGradient x1="-8644.5%" y1="6785%" x2="-1799.5%" y2="1482%" id="linearGradient-46">
            <stop stop-color="#FFD600" offset="0%"></stop>
            <stop stop-color="#FF9C38" offset="27%"></stop>
            <stop stop-color="#FF5147" offset="100%"></stop>
        </linearGradient>
        <linearGradient x1="18.9295832%" y1="205.013619%" x2="63.2107443%" y2="-11.4340884%" id="linearGradient-47">
            <stop stop-color="#FFD600" offset="0%"></stop>
            <stop stop-color="#FF9C38" offset="27%"></stop>
            <stop stop-color="#FF5147" offset="100%"></stop>
        </linearGradient>
        <linearGradient x1="-54.4284467%" y1="213.518451%" x2="91.6831079%" y2="-15.2721958%" id="linearGradient-48">
            <stop stop-color="#FFFFFF" stop-opacity="0" offset="0%"></stop>
            <stop stop-color="#000000" offset="100%"></stop>
        </linearGradient>
    </defs>
    <g id="Welcome" stroke="none" stroke-width="1" fill="none" fill-rule="evenodd">
        <g id="Design" transform="translate(-913.000000, -2492.000000)">
            <g id="Group-26" transform="translate(301.000000, 2351.000000)">
                <g id="koohnavard" transform="translate(612.000000, 0.000000)">
                    <g id="Group-33" transform="translate(0.000000, 141.000000)">
                        <path d="M206.898151,64.1441264 L202.833984,63.0225745 C202.833984,63.0225745 201.015367,63.1179064 201.592002,61.5533414 C202.168636,59.9887765 202.207448,61.1720138 201.397942,58.5307589 C200.588435,55.8895041 200.799129,53.4276976 204.075967,54.117452 C207.352805,54.8072065 209.038353,53.954827 211.483507,63.5721349 C213.92866,73.1894429 206.898151,64.1441264 206.898151,64.1441264 Z"
                              id="Path" fill="#F9AA8F"></path>
                        <rect id="Rectangle" fill="url(#linearGradient-1)" x="100" y="33" width="4" height="136"></rect>
                        <path d="M99.561884,107.163604 C99.6294664,106.642359 99.4825015,106.115869 99.1556251,105.708216 C98.8287488,105.300563 98.3508752,105.047806 97.834627,105.009513 C96.156564,104.84296 95.1836154,106.858256 95.0032373,111.45513 C94.8228592,116.052005 102.240226,119 102.240226,119 L103,112.115792 C101.726421,111.976998 99.3104478,108.829138 99.561884,107.163604 Z"
                              id="Path" fill="#F9AA8F"></path>
                        <path d="M104.678214,107.322575 C104.079655,106.519936 104.074263,107.467981 104.074263,107.467981 C104.088554,108.571453 103.304255,109.496382 102.283981,109.579273 C100.493699,109.724679 100.175547,107.34584 100.175547,107.34584 L99,114.051954 L103.885529,115 C103.190565,114.242947 103.190565,113.023424 103.885529,112.266372 C105.055683,110.695989 105.276772,108.119399 104.678214,107.322575 Z"
                              id="Path" fill="#F9AA8F"></path>
                        <path d="M177,62.6114286 C177,62.6114286 175.512676,73.6971429 174.447887,74.7428571 C173.871845,75.3433535 173.148431,75.7772913 172.352113,76 L165,67.7542857 L167.028169,61" id="Path" fill="#F9AA8F"></path>
                        <path d="M167.028169,61 L165,67.7668315 L172.352113,76 C172.876527,75.8567691 173.369623,75.6148215 173.805634,75.2868011 C173.962096,73.2562033 174.678496,71.3109169 175.873239,69.672499 C176.498592,66.3461392 177,62.6317992 177,62.6317992 L167.028169,61 Z"
                              id="Path" fill="url(#linearGradient-2)" opacity="0.68" style="mix-blend-mode: multiply;"></path>
                        <path d="M146.383113,70.610234 C146.383113,70.610234 143.434256,65.8589495 146.1481,57.0096124 C147.502224,52.5877355 144.519793,48.9865857 148.722055,46.111249 C151.430304,44.2520507 167.478357,41.9685309 175.250583,47.3395482 C183.022809,52.7105654 182.138711,60.0356949 177.197836,65.6635383 C172.256961,71.2913817 174.774961,77.8181168 176.929249,77.857199 C179.083538,77.8962813 160.96513,90.0061943 160.96513,90.0061943 L152.650135,91"
                              id="Path" fill="url(#linearGradient-3)"></path>
                        <path d="M176.257754,77.6380886 C174.086573,77.598338 171.536567,70.9599723 176.529151,65.2358726 C177.500105,64.136521 178.330178,62.9193894 179,61.6128809 C179,61.6128809 175.856311,66.0763158 172.661736,64.4862881 C169.46716,62.8962604 173.91695,55.9682825 169.184455,54.2135734 C164.451959,52.4588643 162.91404,57.6718837 155.795508,58.3817175 C148.676976,59.0915512 145.380626,50 145.380626,50 C145.380626,51.9193906 145.883842,54.0602493 145.160116,56.4339335 C142.417869,65.4403047 145.397588,70.2671745 145.397588,70.2671745 L151.730198,91 L160.132215,89.9891967 C160.132215,89.9891967 178.434588,77.6778393 176.257754,77.6380886 Z"
                              id="Path" fill="url(#linearGradient-4)"></path>
                        <path d="M129.447567,108.637653 L121.667868,100 C121.667868,100 117.347713,113.818007 103.57793,112.078169 C97.610644,111.322934 94.2992849,121.935387 114.372619,119.686465 C134.445953,117.437542 129.447567,108.637653 129.447567,108.637653 Z"
                              id="Path" fill="url(#linearGradient-5)"></path>
                        <path d="M158.477615,263.563486 C158.477615,263.563486 127.09089,298.722008 125.230643,317.482974 C123.370395,336.24394 176.995274,280.062332 179.720621,235 L197,235 C197,235 196.434575,240.368315 190.175324,248.167564 C183.916072,255.966814 159.337061,317.111581 160.484873,352 L63,352 C63,352 139.897759,286.027126 146.043926,259.151789"
                              id="Path" fill="url(#linearGradient-6)"></path>
                        <polyline id="Path" fill="#70462A" points="136 146.963842 143.774011 248 150.084746 248 160 141"></polyline>
                        <path d="M143.729966,145 L136,146.94329 L143.685284,248 C142.959203,237.770972 151.733609,212.857432 153.621418,207.658427 L153.716367,206.633271 C152.375911,206.272777 146.226566,204.154873 146.67897,195.615662 C147.187227,186.040031 157.117776,169.485453 157.117776,169.485453 L159,148.954173 L143.729966,145 Z"
                              id="Path" fill="url(#linearGradient-7)" opacity="0.68" style="mix-blend-mode: multiply;"></path>
                        <path d="M154.349939,256.982463 C150.11334,255.475338 150.192004,248.898794 150.276286,248 L144,248 L144.000051,261.772379 C143.997058,262.096004 144.126385,262.407456 144.359423,262.637841 C144.592462,262.868226 144.910005,262.998555 145.241813,263 L157.968467,263 C157.968467,263 158.586538,258.489587 154.349939,256.982463 Z"
                              id="Path" fill="#B78A39"></path>
                        <path d="M138.984247,140.614251 C138.984247,140.614251 147.663129,125.486094 168.981652,144.896231 C196.970627,170.367798 187.433394,223 187.433394,223 L180.443162,223 C183.489467,181.72239 162.905873,170.30001 150.872128,167.14784 C145.629866,165.77028 141.24719,162.154818 138.874433,157.250412 C136.501677,152.346007 136.375794,146.642435 138.529826,141.636729 C138.671949,141.297786 138.823423,140.95696 138.984247,140.614251 Z"
                              id="Path" fill="#70462A"></path>
                        <path d="M185.436244,194.849843 C184.953773,191.090333 183.540019,186.715426 182.109435,182.995077 C179.669473,176.669523 178.414452,169.951107 178.406746,163.173728 L178.406746,156.19178 L137.082496,147 C136.229372,156.04845 142.07341,164.381604 150.889037,166.68708 C162.922775,169.814411 183.506358,181.120916 180.460055,222 L187.450283,222 C187.450283,222 188.044957,218.743995 188.504988,213.468372 C188.751834,209.087871 188.959409,205.138147 188.99868,203.784276 L188.99868,203.73952 C189.066001,200.270923 186.541441,203.375876 185.436244,194.849843 Z"
                              id="Path" fill="url(#linearGradient-8)" opacity="0.68" style="mix-blend-mode: multiply;"></path>
                        <path d="M165.203763,79.7324 C165.203763,79.7324 180.49716,75.0401636 185.76376,89.4090839 C191.030361,103.778004 177.655672,138.860198 179.416832,146.777996 C181.177992,154.695794 181.667516,157.792108 172.535366,154.982385 C163.403216,152.172663 141.177712,152.734607 137.942354,152.380582 C129.592317,151.537666 133.727949,141.703637 136.591944,132.347262 C139.455939,122.990886 165.203763,79.7324 165.203763,79.7324 Z"
                              id="Path" fill="url(#linearGradient-9)"></path>
                        <path d="M185,106.11385 L164,92 L164,109.495816 C164,109.495816 172.375723,130.563345 175.586968,118.00654 C178.798213,105.449734 185,106.11385 185,106.11385 Z" id="Path" fill="url(#linearGradient-10)"></path>
                        <path d="M171.073197,78.9860381 C171.073197,78.9860381 165.231212,74.4197579 202.36429,88.7531188 C213.301751,92.9738121 210.937812,73.8872141 206.549254,64.0634798 C206.164491,63.2348846 206.398568,62.2500208 207.11479,61.6840286 C208.21193,60.856886 209.942469,60.3186768 211.814392,62.8907503 C214.879596,67.1397703 238.999696,116.354753 186.529289,106.763298 C186.529289,106.763298 168.675325,99.3700035 168.149377,89.2969934 C167.623429,79.2239832 168.460422,81.3258318 171.073197,78.9860381 Z"
                              id="Path" fill="url(#linearGradient-11)"></path>
                        <path d="M175.007285,97.406473 C175.007285,97.406473 174.85429,81.920766 184,82.1641128 C181.931317,78.9441471 177.99284,77.3656245 174.202644,78.23738 C167.40286,79.5647263 163,92.2298223 163,92.2298223 L170.015111,105"
                              id="Path" fill="url(#linearGradient-12)"></path>
                        <path d="M137.447152,130 C137.065506,130.903648 136.773659,131.683817 136.582836,132.306829 C133.726103,141.663237 129.600958,151.474275 137.929822,152.316183 C140.736043,152.602432 157.988689,152.231993 168.388544,154 C165.969581,152.98971 165.021078,150.581852 169.196735,149.420019 C174.528555,147.921422 175,139.176801 175,139.176801 L137.447152,130 Z"
                              id="Path" fill="url(#linearGradient-13)"></path>
                        <path d="M186.0625,107 C186.0625,107 186.776875,142.936636 164.6875,143.771595 L163,147.957523 C163,147.957523 188.070625,150.896579 190,107.87949 C189.938125,107.862791 189.758125,108.21904 186.0625,107 Z" id="Path"
                              fill="url(#linearGradient-14)"></path>
                        <path d="M185.211765,106 C185.211765,106 185.420392,116.990392 182,127 C182.642353,125.565252 183.493333,124.035228 184.377255,123.553243 C186.062745,122.634107 187.616471,119.456365 188.099608,116.676541 L188.132549,116.452362 C188.132549,116.345877 188.16549,116.239392 188.176471,116.138511 C188.571765,113.336269 188.851765,110.225781 189,106.86309 C188.99451,106.868695 188.818824,107.227382 185.211765,106 Z"
                              id="Path" fill="url(#linearGradient-15)"></path>
                        <path d="M171.275,154.445 L171.725,154.555 C171.665,154.485 171.525,154.445 171.285,154.445 L171.275,154.445 Z" id="Path" fill="url(#linearGradient-16)"></path>
                        <path d="M165.464907,83.9976576 L136.031326,82.8149549 C133.124356,82.6691093 130.880005,80.2172308 131.004975,77.3238353 L131.09554,75.0710682 C131.200076,72.1809727 133.629819,69.9168706 136.535093,70.0023424 L165.968674,71.1850451 C168.875644,71.3308907 171.119995,73.7827692 170.995025,76.6761647 L170.90446,78.9289318 C170.799924,81.8190273 168.370181,84.0831294 165.464907,83.9976576 Z"
                              id="Path" fill="#39CE9C"></path>
                        <path d="M165.464907,83.9976576 L136.031326,82.8149549 C133.124356,82.6691093 130.880005,80.2172308 131.004975,77.3238353 L131.09554,75.0710682 C131.200076,72.1809727 133.629819,69.9168706 136.535093,70.0023424 L165.968674,71.1850451 C168.875644,71.3308907 171.119995,73.7827692 170.995025,76.6761647 L170.90446,78.9289318 C170.799924,81.8190273 168.370181,84.0831294 165.464907,83.9976576 Z"
                              id="Path" fill="url(#linearGradient-17)" opacity="0.68" style="mix-blend-mode: multiply;"></path>
                        <g id="Group" opacity="0.24" transform="translate(138.000000, 70.000000)">
                            <path d="M3.21243243,7.7392 L3.30324324,5.4992 C3.40806306,2.62548339 5.84440453,0.374212611 8.75756757,0.4592 L6.08432432,0.3528 C3.17116128,0.267812611 0.73481982,2.51908339 0.63,5.3928 L0.539189189,7.6328 C0.413878939,10.5097979 2.66432486,12.947781 5.57918919,13.0928 L8.25243243,13.1992 C5.3375681,13.054181 3.08712218,10.6161979 3.21243243,7.7392 Z"
                                  id="Path" fill="url(#linearGradient-18)" opacity="0.68" style="mix-blend-mode: multiply;"></path>
                            <path d="M15.0178378,8.2096 L15.1086486,5.9696 C15.2134685,3.09588339 17.6498099,0.844612611 20.562973,0.9296 L17.8897297,0.8232 C14.9765667,0.738212611 12.5402252,2.98948339 12.4354054,5.8632 L12.3445946,8.1032 C12.2192843,10.9801979 14.4697303,13.418181 17.3845946,13.5632 L20.0578378,13.6696 C17.1429735,13.524581 14.8925276,11.0865979 15.0178378,8.2096 Z"
                                  id="Path" fill="url(#linearGradient-19)" opacity="0.68" style="mix-blend-mode: multiply;"></path>
                        </g>
                        <path d="M170.905517,78.881059 L170.99508,76.6072655 C171.118667,73.686864 168.89916,71.2121005 166.024369,71.0648936 L164.473821,71.0023643 C161.600708,70.9160947 159.197862,73.2013291 159.094483,76.1183998 L159.00492,78.3921934 C158.881333,81.3125949 161.10084,83.7873584 163.975631,83.9345653 L165.509386,83.9970946 C168.388959,84.0929539 170.802184,81.8049921 170.905517,78.881059 Z"
                              id="Path" fill="#39CE9C"></path>
                        <path d="M167.951738,77.6231534 L167.997546,76.5531093 C168.059175,75.2122786 166.952608,74.0756488 165.5182,74.0064042 L164.733742,74.001054 C163.297975,73.9619853 162.098052,75.0138397 162.048262,76.3551511 L162.002454,77.4251952 C161.940825,78.7660259 163.047392,79.9026557 164.4818,79.9719003 L165.254806,79.9986514 C165.950291,80.0202555 166.626234,79.7815631 167.132588,79.3355594 C167.638942,78.8895557 167.93381,78.273143 167.951738,77.6231534 Z"
                              id="Path" fill="url(#linearGradient-20)" opacity="0.68" style="mix-blend-mode: multiply;"></path>
                        <path d="M155.038518,85.9991111 L138.375877,85.3274076 C137.578935,85.2884839 136.964008,84.6103489 137.001639,83.8119113 L137.467107,71.9544013 C137.560461,69.1283594 139.921349,66.9122817 142.742409,67.0026696 L152.123803,67.3801558 C154.944915,67.5179369 157.123134,69.9160612 156.994591,72.7426814 L156.529123,84.6001914 C156.517564,84.9840419 156.353786,85.3474517 156.074032,85.6099982 C155.794278,85.8725448 155.421617,86.012579 155.038518,85.9991111 Z M139.184905,83.1679641 L154.417894,83.7841549 L154.855656,72.6816175 C154.927784,71.052153 153.672354,69.6704291 152.046225,69.5895608 L142.664831,69.2120745 C141.038493,69.1590795 139.676862,70.4362011 139.622666,72.0654266 L139.184905,83.1679641 Z"
                              id="Shape" fill="url(#linearGradient-21)" fill-rule="nonzero"></path>
                        <path d="M151.631034,69.9993612 L142.684983,69.6510067 C142.215423,69.6353731 141.772307,69.440628 141.455763,69.1107751 C141.139218,68.7809222 140.975957,68.3437985 141.00287,67.898175 L141.00287,67.6217032 C141.013379,67.1757655 141.212488,66.7526388 141.555264,66.4478096 C141.898039,66.1429804 142.355595,65.9821374 142.824674,66.001578 L151.782366,66.3444031 C152.485219,66.3772358 153.02848,66.9427212 152.998843,67.6106443 L152.946459,68.8271205 C152.935824,69.1483391 152.791217,69.4523672 152.544488,69.6722394 C152.297759,69.8921117 151.969148,70.0097924 151.631034,69.9993612 Z"
                              id="Path" fill="#DAE0E0"></path>
                        <path d="M123.146037,107 L130.861987,107.307723 C133.830635,107.449679 136.125196,109.950885 135.994699,112.902681 L135.009803,137.822626 C134.914128,140.256433 131.413529,142.091579 129.004756,141.996465 L120,141.632792 L122.622635,112.365565 C122.752079,109.400237 126.095095,107.117494 123.146037,107 Z"
                              id="Path" fill="url(#linearGradient-22)"></path>
                        <path d="M122.595104,136.44823 L122.595104,136.151314 L123.506912,112.784583 L123.506912,112.487667 C123.551872,111.065992 124.156247,109.720734 125.186737,108.748598 C126.217228,107.776462 127.58918,107.257309 129,107.305642 L121.711095,107.003124 C120.223055,106.953283 118.776385,107.501528 117.689749,108.527096 C116.603113,109.552664 115.965651,110.971424 115.917778,112.470861 L115.00597,135.837592 C114.864431,138.959421 117.25669,141.60796 120.354503,141.759106 L126.236777,142 C123.306759,141.882354 122.478349,139.428595 122.595104,136.44823 Z"
                              id="Path" fill="url(#linearGradient-23)"></path>
                        <path d="M138,82 L165.47502,83.1323471 C170.986803,83.3950998 175.244564,88.0850844 174.989078,93.6122191 L173.165315,140.191316 C172.984632,144.720704 166.502651,148.174362 162.030761,147.993187 L145.368455,147.31944 L150.224295,92.610092 C150.444501,87.0219592 143.45435,82.2264694 138,82 Z"
                              id="Path" fill="url(#linearGradient-24)"></path>
                        <path d="M153.959885,134 L153.759312,139.208074 C153.641407,142.350944 152.311587,145.320408 150.057307,147.474582 L150,147.527012 L161.381089,147.993059 C165.100287,148.144524 170.183381,145.802639 172,142.377194 L153.959885,134 Z"
                              id="Path" fill="url(#linearGradient-25)"></path>
                        <path d="M148.152904,136.775865 L148.152904,136.217779 L149.826223,93.217253 L149.826223,92.659167 C149.910645,90.044288 151.030113,87.570145 152.938211,85.781346 C154.846309,83.992547 157.38663,83.0357184 160,83.1214774 L132.858771,82.0053054 C130.245401,81.9195465 127.70508,82.876375 125.796982,84.665174 C123.888885,86.453973 122.769416,88.928116 122.684994,91.542995 L122.684994,92.101081 L121.011675,135.101607 L121.011675,135.659693 C120.884348,138.279009 121.802606,140.841583 123.564288,142.783242 C125.32597,144.724901 127.786643,145.886459 130.404571,146.012188 L154.862912,147 C149.469248,146.782346 147.94095,142.267431 148.152904,136.775865 Z"
                              id="Path" fill="url(#linearGradient-26)"></path>
                        <path d="M145.960218,142.41682 L146,141.49137 L121.164785,132 L121.011341,135.789938 L121.011341,136.340801 C120.750622,141.708293 125.01682,146.26959 130.553292,146.542784 L142.163897,147 L145.005455,144.405435 C145.582278,143.890875 145.925533,143.17593 145.960218,142.41682 Z"
                              id="Path" fill="url(#linearGradient-27)"></path>
                        <path d="M120.239705,91.8837489 L120.239705,92.4604576 L120.002503,98.6889109 C119.944996,99.9326098 120.885507,100.988532 122.103434,101.047649 L145.202389,101.999218 C146.414713,102.031545 147.424553,101.057067 147.461455,99.8192598 L147.698657,93.5908065 L147.698657,93.0140979 C147.784138,90.3119636 148.917643,87.7552615 150.849666,85.9067724 C152.781688,84.0582834 155.353862,83.0695267 158,83.1581473 L130.518457,82.00473 C127.872369,81.9224219 125.302683,82.9171121 123.374939,84.7698872 C121.447195,86.6226623 120.31938,89.1816809 120.239705,91.8837489 Z"
                              id="Path" fill="url(#linearGradient-28)"></path>
                        <path d="M154.96246,83.0053808 C152.281821,82.9198177 149.675647,83.8575894 147.718398,85.6119904 C145.761148,87.3663914 144.613501,89.7933956 144.528423,92.3580379 L144.528423,92.905297 L144.288166,98.8156947 C144.250789,99.9902934 143.22794,100.91501 142,100.884334 L145.03754,100.999258 C146.26548,101.029934 147.288329,100.105218 147.325706,98.9306191 L147.565964,93.0202214 L147.565964,92.4729623 C147.652545,89.9088124 148.800651,87.482668 150.757561,85.728572 C152.71447,83.974476 155.319776,83.03621 158,83.1203052 L154.96246,83.0053808 Z"
                              id="Path" fill="url(#linearGradient-29)"></path>
                        <path d="M163.127926,109 L170.854748,109.307821 C173.827578,109.449822 176.125372,111.951829 175.994691,114.904569 L175.030952,139.82129 C174.935142,142.255875 171.42961,144.091608 169.017444,143.996464 L160,143.632675 L162.626331,114.356088 C162.755956,111.401005 166.109318,109.117532 163.127926,109 Z"
                              id="Path" fill="url(#linearGradient-30)"></path>
                        <path d="M161.61286,137.437915 L161.61286,137.141047 L162.52214,113.778051 L162.52214,113.481183 C162.566975,112.059735 163.169674,110.714692 164.197308,109.742711 C165.224942,108.77073 166.593091,108.251661 168,108.299986 L160.692491,108.003118 C159.207644,107.9533 157.764165,108.502221 156.680382,109.528826 C155.596599,110.555432 154.961533,111.975398 154.915234,113.475581 L154.005954,136.838577 C153.864807,139.959908 156.250434,142.608023 159.339659,142.759144 L165.205626,143 C162.322542,142.859968 161.501972,140.417804 161.61286,137.437915 Z"
                              id="Path" fill="url(#linearGradient-31)"></path>
                        <path d="M173.597509,122.999872 L165.374173,122.746718 C165.270498,122.743377 165.172834,122.708933 165.102715,122.65098 C165.032596,122.593027 164.99578,122.516324 165.000385,122.437784 L165.000385,122.287608 C165.003346,122.209077 165.047385,122.134657 165.122804,122.080737 C165.198224,122.026817 165.298838,121.997819 165.402491,122.000128 L173.625827,122.253282 C173.729502,122.256623 173.827166,122.291067 173.897285,122.34902 C173.967404,122.406973 174.00422,122.483676 173.999615,122.562216 L173.999615,122.712392 C173.996654,122.790923 173.952615,122.865343 173.877196,122.919263 C173.801776,122.973183 173.701162,123.002181 173.597509,122.999872 Z"
                              id="Path" fill="#DAE0E0"></path>
                        <path d="M173.726418,124.999815 L173.215025,124.973845 C173.154947,124.969818 173.098542,124.934148 173.05826,124.874708 C173.017978,124.815267 172.997131,124.736943 173.000318,124.657021 L173.039356,123.291041 C173.041391,123.21113 173.067221,123.135574 173.111155,123.081018 C173.155089,123.026462 173.213522,122.997382 173.273582,123.000185 L173.784975,123.026155 C173.845053,123.030182 173.901458,123.065852 173.94174,123.125292 C173.982022,123.184733 174.002869,123.263057 173.999682,123.342979 L173.960644,124.708959 C173.958609,124.78887 173.932779,124.864426 173.888845,124.918982 C173.844911,124.973538 173.786478,125.002618 173.726418,124.999815 Z"
                              id="Path" fill="#DAE0E0"></path>
                        <path d="M145.13437,142.999628 L123.709752,142.150409 C120.413318,141.996545 117.863745,139.262091 118.005647,136.032674 L119.043794,110.109121 C119.146072,107.195282 121.635765,104.911623 124.611001,105.002628 L146.623141,105.874196 C146.72756,105.878546 146.825925,105.923396 146.896548,105.998856 C146.96717,106.074317 147.00425,106.174191 146.999612,106.276458 L145.545065,142.625301 C145.54211,142.728562 145.496966,142.82634 145.419757,142.896712 C145.342549,142.967084 145.239735,143.00416 145.13437,142.999628 Z"
                              id="Path" fill="url(#linearGradient-32)"></path>
                        <path d="M141.99759,109.569047 L141.004655,136.011203 C140.893626,138.877647 142.779991,141.40899 145.467526,142 C145.56741,141.934059 145.630944,141.822068 145.638354,141.698887 L146.999637,105.403655 C147.003978,105.301586 146.969275,105.201905 146.903181,105.126591 C146.837087,105.051276 146.745029,105.006513 146.647305,105.002172 C144.156672,104.923969 142.07599,106.967582 141.99759,109.569047 Z"
                              id="Path" fill="url(#linearGradient-33)"></path>
                        <path d="M166.55268,100.999934 L159.24507,100.678304 C159.103095,100.668878 158.994177,100.536199 159.000241,100.380065 L159.181202,95.2749136 C159.186968,95.1189517 159.305287,94.9967517 159.44732,95.0000658 L166.75493,95.3216962 C166.896905,95.331122 167.005823,95.4638011 166.999759,95.6199353 L166.818798,100.725086 C166.813032,100.881048 166.694713,101.003248 166.55268,100.999934 Z"
                              id="Path" fill="url(#linearGradient-34)"></path>
                        <path d="M159.380682,95.0000662 C159.229057,94.9967326 159.102747,95.1196488 159.096591,95.2765246 L159,97.8469993 L162.619318,97.9999338 C162.770943,98.0032674 162.897253,97.8803512 162.903409,97.7234754 L163,95.1530007 L159.380682,95.0000662 Z"
                              id="Path" fill="url(#linearGradient-35)"></path>
                        <path d="M120.239705,91.8837489 L120.239705,92.4604576 L120.002503,98.6889109 C119.944996,99.9326098 120.885507,100.988532 122.103434,101.047649 L145.202389,101.999218 C146.414713,102.031545 147.424553,101.057067 147.461455,99.8192598 L147.698657,93.5908065 L147.698657,93.0140979 C147.784138,90.3119636 148.917643,87.7552615 150.849666,85.9067724 C152.781688,84.0582834 155.353862,83.0695267 158,83.1581473 L130.518457,82.00473 C127.872369,81.9224219 125.302683,82.9171121 123.374939,84.7698872 C121.447195,86.6226623 120.31938,89.1816809 120.239705,91.8837489 Z"
                              id="Path" fill="url(#linearGradient-36)"></path>
                        <path d="M154.96246,83.0053808 C152.281821,82.9198177 149.675647,83.8575894 147.718398,85.6119904 C145.761148,87.3663914 144.613501,89.7933956 144.528423,92.3580379 L144.528423,92.905297 L144.288166,98.8156947 C144.250789,99.9902934 143.22794,100.91501 142,100.884334 L145.03754,100.999258 C146.26548,101.029934 147.288329,100.105218 147.325706,98.9306191 L147.565964,93.0202214 L147.565964,92.4729623 C147.652545,89.9088124 148.800651,87.482668 150.757561,85.728572 C152.71447,83.974476 155.319776,83.03621 158,83.1203052 L154.96246,83.0053808 Z"
                              id="Path" fill="url(#linearGradient-37)"></path>
                        <path d="M135.989092,81.9904926 C134.352832,81.4103166 133.692873,81.085418 131.854808,81.0041934 C130.218548,80.9345723 127.540535,81.7352151 126.536963,83.1566463 C125.119262,85.1493776 124.311916,87.557641 124.224382,90.054939 L124.00076,96.1003729 C123.991885,96.3081542 124.06107,96.5111576 124.193059,96.6646179 C124.325048,96.8180782 124.509,96.9093912 124.704351,96.9184211 L126.607867,96.9996458 C126.803174,97.0058927 126.992807,96.9293069 127.135004,96.7867543 C127.277201,96.6442018 127.3603,96.4473734 127.366001,96.2396152 L127.595078,90.0665425 C127.769612,85.3090993 131.571189,81.9092679 136,82.0195014 L135.989092,81.9904926 Z"
                              id="Path" fill="url(#linearGradient-38)"></path>
                        <path d="M127.551936,94.9998084 L124.332361,94.8328902 C124.240271,94.8278918 124.153521,94.7763554 124.091237,94.6896443 C124.028953,94.6029333 123.996252,94.4881687 124.000342,94.3706552 L124.090893,91.430327 C124.093523,91.3128261 124.132641,91.2014772 124.199632,91.1208008 C124.266623,91.0401244 124.355994,90.9967365 124.448064,91.0001916 L127.667639,91.1671098 C127.759729,91.1721082 127.846479,91.2236446 127.908763,91.3103557 C127.971047,91.3970667 128.003748,91.5118313 127.999658,91.6293448 L127.909107,94.569673 C127.906477,94.6871739 127.867359,94.7985228 127.800368,94.8791992 C127.733377,94.9598756 127.644006,95.0032635 127.551936,94.9998084 Z"
                              id="Path" fill="#DAE0E0"></path>
                        <path d="M148.983637,82.929598 C147.482518,82.3828689 145.905887,82.0706415 144.309388,82.0039356 C142.673128,81.9385947 140.535081,82.6900148 139.526054,84.0240578 C138.115403,85.8910583 137.312076,88.1449703 137.224382,90.4819147 L137.00076,96.1556812 C136.991885,96.3506882 137.06107,96.5412112 137.193059,96.6852369 C137.325048,96.8292626 137.509,96.9149618 137.704351,96.9234365 L139.607867,96.9996675 C139.803174,97.0055304 139.992807,96.933653 140.135004,96.7998645 C140.277201,96.6660759 140.3603,96.4813483 140.366001,96.2863629 L140.595078,90.4928049 C140.769612,86.0278448 144.571189,82.8370318 149,82.9404882 L148.983637,82.929598 Z"
                              id="Path" fill="url(#linearGradient-39)"></path>
                        <path d="M140.551936,94.9998084 L137.332361,94.8328902 C137.240271,94.8278918 137.153521,94.7763554 137.091237,94.6896443 C137.028953,94.6029333 136.996252,94.4881687 137.000342,94.3706552 L137.090893,91.430327 C137.093523,91.3128261 137.132641,91.2014772 137.199632,91.1208008 C137.266623,91.0401244 137.355994,90.9967365 137.448064,91.0001916 L140.667639,91.1671098 C140.759729,91.1721082 140.846479,91.2236446 140.908763,91.3103557 C140.971047,91.3970667 141.003748,91.5118313 140.999658,91.6293448 L140.909107,94.569673 C140.906477,94.6871739 140.867359,94.7985228 140.800368,94.8791992 C140.733377,94.9598756 140.644006,95.0032635 140.551936,94.9998084 Z"
                              id="Path" fill="#DAE0E0"></path>
                        <path d="M127.692804,91.0249157 L127.106943,91 C127.19206,91.0038798 127.272242,91.0438823 127.32981,91.1111872 C127.387378,91.1784922 127.417604,91.2675724 127.413822,91.3587862 L127.330128,93.6410651 C127.327697,93.7322691 127.291541,93.8186979 127.229622,93.8813189 C127.167703,93.9439398 127.085099,93.9776174 127,93.9749356 L127.585861,93.9998513 C127.67096,94.0025331 127.753564,93.9688555 127.815483,93.9062346 C127.877402,93.8436136 127.913558,93.7571848 127.915989,93.6659808 L127.999684,91.3837019 C128.003465,91.2924881 127.973239,91.2034079 127.915671,91.1361029 C127.858103,91.068798 127.777921,91.0287955 127.692804,91.0249157 Z"
                              id="Path" fill="#E4EFEF"></path>
                        <path d="M140.692804,92.0249157 L140.106943,92 C140.19206,92.0038798 140.272242,92.0438823 140.32981,92.1111872 C140.387378,92.1784922 140.417604,92.2675724 140.413822,92.3587862 L140.330128,94.6410651 C140.327697,94.7322691 140.291541,94.8186979 140.229622,94.8813189 C140.167703,94.9439398 140.085099,94.9776174 140,94.9749356 L140.585861,94.9998513 C140.67096,95.0025331 140.753564,94.9688555 140.815483,94.9062346 C140.877402,94.8436136 140.913558,94.7571848 140.915989,94.6659808 L140.999684,92.3837019 C141.003465,92.2924881 140.973239,92.2034079 140.915671,92.1361029 C140.858103,92.068798 140.777921,92.0287955 140.692804,92.0249157 Z"
                              id="Path" fill="#E4EFEF"></path>
                        <path d="M118.186042,111.416989 L118.186042,111.842861 L118.001981,116.521849 C117.95766,117.444414 118.662504,118.230107 119.580446,118.281373 L137.211286,118.998631 C137.658906,119.016784 138.095079,118.853853 138.422162,118.546312 C138.749245,118.238771 138.93992,117.812305 138.951502,117.362386 L139.135563,112.683398 L139.135563,112.257526 C139.199595,110.227555 140.064601,108.306513 141.539875,106.917925 C143.015149,105.529337 144.979553,104.787225 147,104.855199 L126.022591,104.003455 C121.821336,103.877772 118.313506,107.196249 118.186042,111.416989 Z"
                              id="Path" fill="url(#linearGradient-40)"></path>
                        <path d="M144.722992,105.004216 C142.71611,104.937408 140.764896,105.66679 139.299526,107.031557 C137.834157,108.396325 136.974959,110.284413 136.911357,112.279562 L136.911357,112.698128 L136.728532,117.296851 C136.717028,117.739053 136.527633,118.158202 136.202746,118.460468 C135.877859,118.762733 135.444615,118.922869 135,118.905027 L137.277008,118.998654 C137.721623,119.016496 138.154868,118.85636 138.479755,118.554094 C138.804642,118.251829 138.994036,117.832679 139.00554,117.390478 L139.188366,112.791755 L139.188366,112.373188 C139.251968,110.37804 140.111166,108.489952 141.576535,107.125184 C143.041904,105.760416 144.993118,105.031034 147,105.097843 L144.722992,105.004216 Z"
                              id="Path" fill="url(#linearGradient-41)"></path>
                        <path d="M193.392067,230.1447 C190.789694,229.591705 186.074283,229.409217 186.925059,223 L180.00764,223 C179.483265,226.426233 179.147275,229.87837 179.001167,233.341014 C178.984598,233.773396 179.145034,234.193982 179.445806,234.506643 C179.746578,234.819305 180.161979,234.997319 180.597067,235 L196,235 C196,235 195.994439,230.697696 193.392067,230.1447 Z"
                              id="Path" fill="#B78A39"></path>
                        <path d="M155.0003,157.910993 C154.992958,159.585678 155.120432,161.258625 155.38171,162.916579 C155.478801,163.494267 155.848451,164.005409 156.39483,164.317497 L158.95147,165.766908 C159.480604,166.077697 160.162518,166.077697 160.691653,165.766908 L162.25305,164.823983 C162.702447,164.55236 163.016783,164.132829 163.129101,163.654755 C163.569649,161.881223 163.860517,160.07999 163.999193,158.26661 C164.0227,157.694165 163.52974,157.212331 162.89668,157.188981 L156.055137,157.000396 C155.781229,156.993158 155.515519,157.085379 155.317326,157.25647 C155.119134,157.427561 155.004962,157.663276 155.0003,157.910993 Z"
                              id="Path" fill="#70462A"></path>
                        <path d="M191.944273,90.8087751 C191.602515,92.4043178 189.78159,93.334134 187.880565,92.8884825 C185.97954,92.4428309 184.71397,90.7867676 185.055727,89.1912249 C185.397485,87.5956822 187.21841,86.665866 189.119435,87.1115175 C191.02046,87.5571691 192.28603,89.2132324 191.944273,90.8087751 Z"
                              id="Path" fill="url(#linearGradient-42)"></path>
                        <path d="M188.317962,89.1820331 L185.584789,88 C185.330215,88.3153989 185.151223,88.6854648 185.061666,89.0815603 C184.697243,90.7364066 185.984479,92.4503546 187.959417,93 L188.917497,90.6891253 C189.146498,90.106386 188.883478,89.4452153 188.317962,89.1820331 Z"
                              id="Path" fill="url(#linearGradient-43)"></path>
                        <path d="M189.942903,229.195572 C186.880493,227.994465 186.924875,224.092251 187.168981,222 L180.322939,222 L180.322939,222.060886 L180.322939,222.149446 L180.322939,222.238007 L180.322939,222.326568 L180.322939,222.398524 L180.322939,222.48155 L180.322939,222.597786 L180.322939,222.691882 L180.322939,222.802583 L180.322939,222.918819 L180.250817,223.472325 L180.250817,223.583026 L180.250817,223.765683 L180.250817,223.920664 L180.250817,224.092251 L180.250817,224.236162 L180.223078,224.457565 L180.223078,224.601476 L180.223078,224.817343 L180.223078,224.98893 L180.223078,225.210332 L180.223078,225.376384 L180.189791,225.642066 L180.189791,225.785978 L180.13986,226.206642 L180.13986,226.245387 L180.095478,226.638376 L180.095478,226.793358 L180.062191,227.092251 L180.062191,227.258303 L180.034451,227.546125 L180.034451,227.734317 L180.034451,228.005535 L180.034451,228.210332 L180.034451,228.487085 L180.034451,228.680812 L180.034451,228.97417 L180.034451,229.162362 L180.034451,229.46679 L180.034451,229.643911 C180.034451,229.802583 180.023356,229.961255 180.001164,230.119926 L180.001164,230.164207 C180.001164,230.308118 180.001164,230.453875 180.001164,230.601476 L180.001164,230.750923 C180.001164,230.857934 180.001164,230.96679 180.001164,231.077491 L180.001164,231.260148 C180.001164,231.354244 180.001164,231.453875 180.001164,231.54797 L180.001164,231.741697 C180.001164,231.833948 180.001164,231.926199 180.001164,232.01845 C180.001164,232.110701 180.001164,232.175277 180.001164,232.212177 C180.001164,232.256458 180.001164,232.295203 180.001164,232.339483 C179.984633,232.772265 180.1447,233.193238 180.444781,233.506188 C180.744862,233.819139 181.159308,233.997317 181.593396,234 L193.892969,234 C194.181457,232.682657 194.181457,230.856089 189.942903,229.195572 Z"
                              id="Path" fill="url(#linearGradient-44)" opacity="0.68" style="mix-blend-mode: multiply;"></path>
                        <path d="M102.595425,35.3783096 C103.497973,34.4511581 104.002097,33.2075199 103.999993,31.9133396 L103.999993,4.57732197 C103.999993,4.57732197 103.717952,-5.72165246 92.4137169,4.57732197 C81.1094822,14.8762964 64.2433834,42.150238 50.1638575,26.7271711 C36.0843316,11.3041042 5.68586806,70.3666063 0.129644898,59.2719303 C0.129644898,59.2719303 -2.27899194,78.9274524 13.6676506,72.4376877 C13.6676506,72.4376877 6.62788762,75.5922777 9.77547394,85.5808721 C12.9230603,95.5694664 19.2238737,94.9938525 19.2238737,94.9938525 C19.2238737,94.9938525 44.2861067,50.976318 51.8843124,63.39152 C60.3850518,77.3191194 95.1551631,43.0136589 102.595425,35.3783096 Z"
                              id="Path" fill="url(#linearGradient-45)"></path>
                        <g id="HS-1-Copy" transform="translate(75.000000, 20.000000)" fill="#FFFFFF" fill-rule="nonzero">
                            <path d="M4.8208563,14.2357105 L9.87647308,9.58799724 L12.5216617,12.0189534 L7.46604493,16.6666667 L4.8208563,14.2357105 Z M0,9.80522732 L2.64518864,7.37225045 L7.46824926,11.8047544 L4.82306062,14.2357105 L0,9.80522732 Z M2.64518864,7.37225045 L9.56786774,1.00690398 C10.2666316,0.363904375 11.2154156,0.00171139088 12.2054911,6.04923391e-06 C13.1955666,-0.00169929241 14.1458287,0.357222707 14.8472234,0.997810624 L14.8571429,1.00690398 L5.29037728,9.80522732 L2.64518864,7.37225045 Z M11.4772361,7.9807643 L16.5328529,3.33333333 L19.1780415,5.76414179 L14.1224248,10.4115728 L11.4772361,7.9807643 Z M16.5328529,8.19495024 L19.1780415,5.76414179 L24,10.2034487 L21.3548114,12.6281953 L16.5328529,8.19495024 Z M9.14285714,18.9931551 L18.7096227,10.2034487 L21.3548114,12.6281953 L14.4321323,18.9931551 C12.9774596,20.3316598 10.6146368,20.3361825 9.15387876,19.0032582 L9.14285714,18.9931551 Z"
                                  id="Combined-Shape"></path>
                        </g>
                        <path d="M53.755,65.7 C53.6011174,65.5473059 53.4299628,65.4130669 53.245,65.3 L53.755,65.7 Z" id="Path" fill="url(#linearGradient-46)"></path>
                        <path d="M49.9930775,26.5914113 C35.938998,11.1376758 5.66651084,70.317623 0.129203529,59.2008854 C0.129203529,59.2008854 -2.27123324,78.8954923 13.6211198,72.3928228 C13.6211198,72.3928228 6.60532334,75.5536856 9.74219388,85.5621422 C12.8790644,95.5705988 19.1640487,94.9938403 19.1640487,94.9938403 C19.1640487,94.9938403 44.1409588,50.8887774 51.7132968,63.3286669 C51.8032429,63.4813383 51.9044323,63.6170462 52,63.7584085 C48.7675617,57.9116605 51.7695131,37.4706601 51.8369727,31.8048559 C51.9041581,30.2149818 51.5011541,28.6407685 50.6789165,27.2812597 C50.4315647,27.0663889 50.2029517,26.8364394 49.9930775,26.5914113 Z"
                              id="Path" fill="url(#linearGradient-47)"></path>
                        <path d="M144.000049,261.772379 C143.997166,262.096004 144.121763,262.407456 144.34628,262.637841 C144.570797,262.868226 144.876728,262.998555 145.196402,263 L155,263 C154.96752,260.928389 154.220476,259.196566 152.217532,257.464742 C150.214588,255.732919 150.052187,251.123858 150.052187,249.035806 C150.03436,248.690773 150.03436,248.345033 150.052187,248 L144,248 L144.000049,261.772379 Z"
                              id="Path" fill="url(#linearGradient-48)" opacity="0.68" style="mix-blend-mode: multiply;"></path>
                    </g>
                </g>
            </g>
        </g>
    </g>
</svg>