<svg width="96px" height="90px" viewBox="0 0 96 90" version="1.1" xmlns="http://www.w3.org/2000/svg">
    <defs>
        <linearGradient x1="50%" y1="6.36152275%" x2="50%" y2="98.5455982%" id="linearGradient-1">
            <stop stop-color="#E97A99" offset="0%"></stop>
            <stop stop-color="#FAC9B6" offset="100%"></stop>
        </linearGradient>
        <linearGradient x1="50%" y1="100%" x2="50%" y2="10.3430509%" id="linearGradient-2">
            <stop stop-color="#FFF7CA" offset="0%"></stop>
            <stop stop-color="#FAB539" offset="100%"></stop>
        </linearGradient>
        <linearGradient x1="50%" y1="6.36152275%" x2="50%" y2="95.3422182%" id="linearGradient-3">
            <stop stop-color="#7AE9B6" offset="0%"></stop>
            <stop stop-color="#E4FFE8" offset="100%"></stop>
        </linearGradient>
    </defs>
    <g id="Welcome" stroke="none" stroke-width="1" fill="none" fill-rule="evenodd">
        <g id="Design" transform="translate(-515.000000, -292.000000)">
            <g id="new-white" transform="translate(198.000000, 244.000000)">
                <g id="board" transform="translate(155.000000, 0.000000)">
                    <g id="graph" transform="translate(162.439394, 48.150000)">
                        <path d="M90.6417382,89.2486764 L10.1982959,89.2486764 C7.67399541,89.2486764 5.62757751,87.1997391 5.62757751,84.672254 L5.62757751,9.61974481 C5.62757751,7.09225972 7.67399541,5.04332247 10.1982959,5.04332247 L90.6417382,5.04332247 C93.1660386,5.04332247 95.2123656,7.09225972 95.2123656,9.61974481 L95.2123656,84.672254 C95.2123656,87.1846728 93.1902329,89.2242468 90.6417382,89.2486764 Z"
                              id="-copy-6" fill="#7E9ACA" opacity="0.1"></path>
                        <path d="M84.9570728,84.3796375 L5.03078464,84.3796375 C2.52271239,84.3796375 0.489450485,82.337557 0.489450485,79.8185301 L0.489450485,5.01718414 C0.489450485,2.49815728 2.52271239,0.4560768 5.03078464,0.4560768 L84.9570728,0.4560768 C87.4650547,0.4560768 89.4983166,2.49815728 89.4983166,5.01718414 L89.4983166,79.8185301 C89.4983166,82.3225411 87.4891838,84.3552896 84.9570728,84.3796375 Z"
                              id="base" fill="#FFFFFF"></path>
                        <g transform="translate(15.440308, 26.454147)">
                            <path d="M12.2967627,46.5228019 L1.85183602,46.5228019 C0.848674691,46.5228019 0.035374653,45.7059708 0.035374653,44.6983415 L0.035374653,1.8244308 C0.035374653,0.816849341 0.848674691,-2.96468894e-05 1.85183602,-2.96468894e-05 L12.2967627,-2.96468894e-05 C13.2999849,-2.96468894e-05 14.1132849,0.816849341 14.1132849,1.8244308 L14.1132849,44.6983415 C14.1132849,45.6917951 13.3227439,46.4997663 12.2967627,46.5228019 Z"
                                  id="" fill="url(#linearGradient-1)"></path>
                            <path d="M35.0030974,46.5228019 L24.5581707,46.5228019 C23.5550094,46.5228019 22.7417094,45.8981667 22.7417094,45.1276269 L22.7417094,12.3417097 C22.7417094,11.5712065 23.5550094,10.9465347 24.5581707,10.9465347 L35.0030974,10.9465347 C36.0063196,10.9465347 36.8196196,11.5712065 36.8196196,12.3417097 L36.8196196,45.1276269 C36.8196196,45.8873264 36.0290786,46.5051865 35.0030974,46.5228019 Z"
                                  id="-copy-9" fill="url(#linearGradient-2)"></path>
                            <path d="M57.2553054,46.5228019 L46.8103787,46.5228019 C45.8072174,46.5228019 44.9939174,46.0503214 44.9939174,45.4674772 L44.9939174,20.6678732 C44.9939174,20.0850567 45.8072174,19.6125485 46.8103787,19.6125485 L57.2553054,19.6125485 C58.2585276,19.6125485 59.0718276,20.0850567 59.0718276,20.6678732 L59.0718276,45.4674772 C59.0718276,46.0421217 58.2812866,46.5094774 57.2553054,46.5228019 Z"
                                  id="-copy-10" fill="url(#linearGradient-3)"></path>
                        </g>
                    </g>
                </g>
            </g>
        </g>
    </g>
</svg>