<svg width="94px" height="222px" viewBox="0 0 94 222" version="1.1" xmlns="http://www.w3.org/2000/svg">
    <defs>
        <linearGradient x1="76.467529%" y1="-6.92819979%" x2="-4.41592867%" y2="172.579073%" id="linearGradient-1">
            <stop stop-color="#ABCF9C" offset="0%"></stop>
            <stop stop-color="#84BC93" offset="25%"></stop>
            <stop stop-color="#228B7D" offset="82%"></stop>
            <stop stop-color="#007A75" offset="100%"></stop>
        </linearGradient>
        <linearGradient x1="37.5984727%" y1="-6.39410288%" x2="66.5596174%" y2="130.992953%" id="linearGradient-2">
            <stop stop-color="#ABCF9C" offset="0%"></stop>
            <stop stop-color="#84BC93" offset="25%"></stop>
            <stop stop-color="#228B7D" offset="82%"></stop>
            <stop stop-color="#007A75" offset="100%"></stop>
        </linearGradient>
        <linearGradient x1="-12.5594086%" y1="-26.7000345%" x2="107.142742%" y2="99.5967575%" id="linearGradient-3">
            <stop stop-color="#ABCF9C" offset="0%"></stop>
            <stop stop-color="#84BC93" offset="25%"></stop>
            <stop stop-color="#228B7D" offset="82%"></stop>
            <stop stop-color="#007A75" offset="100%"></stop>
        </linearGradient>
        <linearGradient x1="76.8903664%" y1="-11.7276986%" x2="-17.4976475%" y2="183.863207%" id="linearGradient-4">
            <stop stop-color="#ABCF9C" offset="0%"></stop>
            <stop stop-color="#84BC93" offset="25%"></stop>
            <stop stop-color="#228B7D" offset="82%"></stop>
            <stop stop-color="#007A75" offset="100%"></stop>
        </linearGradient>
        <linearGradient x1="92.62473%" y1="-8.37154134%" x2="-39.2266357%" y2="127.696773%" id="linearGradient-5">
            <stop stop-color="#ABCF9C" offset="0%"></stop>
            <stop stop-color="#84BC93" offset="25%"></stop>
            <stop stop-color="#228B7D" offset="82%"></stop>
            <stop stop-color="#007A75" offset="100%"></stop>
        </linearGradient>
        <linearGradient x1="154.056437%" y1="-16.0957545%" x2="-41.2110523%" y2="96.6538818%" id="linearGradient-6">
            <stop stop-color="#ABCF9C" offset="0%"></stop>
            <stop stop-color="#84BC93" offset="25%"></stop>
            <stop stop-color="#228B7D" offset="82%"></stop>
            <stop stop-color="#007A75" offset="100%"></stop>
        </linearGradient>
        <linearGradient x1="19.7228651%" y1="-18.533974%" x2="87.9768773%" y2="171.78856%" id="linearGradient-7">
            <stop stop-color="#ABCF9C" offset="0%"></stop>
            <stop stop-color="#84BC93" offset="25%"></stop>
            <stop stop-color="#228B7D" offset="82%"></stop>
            <stop stop-color="#007A75" offset="100%"></stop>
        </linearGradient>
        <linearGradient x1="-0.72452052%" y1="-15.7754988%" x2="122.216585%" y2="119.697052%" id="linearGradient-8">
            <stop stop-color="#ABCF9C" offset="0%"></stop>
            <stop stop-color="#84BC93" offset="25%"></stop>
            <stop stop-color="#228B7D" offset="82%"></stop>
            <stop stop-color="#007A75" offset="100%"></stop>
        </linearGradient>
        <linearGradient x1="-86.3816531%" y1="-27.8788192%" x2="134.046963%" y2="87.7303881%" id="linearGradient-9">
            <stop stop-color="#ABCF9C" offset="0%"></stop>
            <stop stop-color="#84BC93" offset="25%"></stop>
            <stop stop-color="#228B7D" offset="82%"></stop>
            <stop stop-color="#007A75" offset="100%"></stop>
        </linearGradient>
        <linearGradient x1="49.9943586%" y1="166.319721%" x2="49.9943586%" y2="-233.208621%" id="linearGradient-10">
            <stop stop-color="#FFFFFF" offset="0%"></stop>
            <stop stop-color="#D1D3D4" offset="100%"></stop>
        </linearGradient>
    </defs>
    <g id="Welcome" stroke="none" stroke-width="1" fill="none" fill-rule="evenodd">
        <g id="Design" transform="translate(-266.000000, -3099.000000)">
            <g id="Group-50" transform="translate(170.000000, 2900.000000)">
                <g id="Group-32">
                    <g id="Group-38" transform="translate(96.000000, 199.000000)">
                        <path d="M38.31,30 L34.96,37.38 C33.7321173,40.0801368 33.7946362,43.1913705 35.13,45.84 L37.13,49.84 C38.5573072,52.6719105 37.9958722,56.1011071 35.74,58.33 L31.65,62.33 C25.9835242,67.9300312 23.2702008,75.8627081 24.32,83.76 C24.8418624,87.6755506 27.3434819,91.0463127 30.94,92.68 C33.5574662,93.8594118 35.5957117,96.0350547 36.6021102,98.7237911 C37.6085088,101.412528 37.4997552,104.391796 36.3,107 L34.25,111.51 C32.1038469,116.237005 30.8656682,121.32541 30.6,126.51 C30.2065499,133.970225 32.0260447,141.380405 35.83,147.81 L43.51,160.81 L57.26,167.06 L71.59,141.13 C79.6396957,126.564225 79.369519,108.82389 70.88,94.51 C66.965426,87.9135984 67.8262333,79.5329092 73,73.87 L75,71.69 C78.8831122,67.4391057 81.1669052,61.9700225 81.46,56.22 L81.65,52.44 C81.9095542,47.396024 78.4974679,42.8986578 73.57,41.79 L67.21,40.36 C64.2241951,39.687009 62.3259303,36.7484773 62.94,33.75 L64.65,25.4 C66.4414506,16.5932494 62.6961235,7.58229316 55.19,2.64 L55.01,2.52 C52.1614175,0.663616372 48.6453127,0.140652897 45.3797714,1.08765989 C42.11423,2.03466689 39.4234436,4.35762878 38.01,7.45 C36.2640553,11.2720567 35.9102862,15.5845012 37.01,19.64 L38.68,25.78 C39.0392795,27.1878838 38.9087945,28.6761179 38.31,30 Z"
                              id="Path" fill="url(#linearGradient-1)"></path>
                        <path d="M70.91,94.49 C66.9851123,87.888599 67.8376539,79.4971538 73.01,73.82 L75.01,71.64 C78.8938253,67.3895607 81.1777302,61.9202097 81.47,56.17 L81.66,52.39 C81.9195542,47.346024 78.5074679,42.8486578 73.58,41.74 L67.22,40.31 C64.2341951,39.637009 62.3359303,36.6984773 62.95,33.7 L64.66,25.35 C66.4514506,16.5432494 62.7061235,7.53229316 55.2,2.59 L55.02,2.47 L54.94,2.47 C53.3932737,1.46064177 51.3987571,1.45073542 49.8420808,2.4446797 C48.2854045,3.43862397 47.4551588,5.25215279 47.72,7.08 L50.72,28.24 C51.0284116,30.3928649 51.0821151,32.5745683 50.88,34.74 L49.81,46.29 C49.5484025,49.5201359 50.7140706,52.7028848 53,55 C57.2649796,59.3217057 58.0286585,65.9966721 54.85,71.17 C48.9624522,80.7600491 47.504235,92.4257868 50.85,103.17 C51.923682,106.62954 52.2106758,110.285295 51.69,113.87 L48.22,137.77 L49.31,163.34 L57.31,166.97 L71.64,141.04 C79.6568091,126.488803 79.3791403,108.782664 70.91,94.49 Z"
                              id="Path" fill="url(#linearGradient-2)"></path>
                        <path d="M51.1,27.63 C51.6309048,30.6584714 51.9118516,33.7254746 51.94,36.8 C51.7643396,39.8651757 51.4305621,42.9192398 50.94,45.95 C50.431604,48.9279547 50.0977013,51.9330792 49.94,54.95 C49.89,57.95 50.65,60.77 51.24,63.8 L53.07,72.8 L54.65,80.55 L57.02,76.32 C58.21,74.25 59.31,72.11 60.62,70.08 C61.9226765,68.0556242 63.3733003,66.1303723 64.96,64.32 L69.67,58.9 L65.26,64.56 C63.7821073,66.4317034 62.4451049,68.410467 61.26,70.48 C60.09,72.53 59.1,74.72 58.03,76.86 L55.1,82.86 C55.7389683,85.5367826 56.1471313,88.2634454 56.32,91.01 C56.438852,94.154574 56.1463771,97.3012005 55.45,100.37 L53.33,109.28 L52.74,111.74 C53.58,110.27 54.36,108.74 55.29,107.32 C56.2503874,105.826349 57.3199738,104.405805 58.49,103.07 L61.96,99.07 L58.71,103.24 C57.6271469,104.619087 56.6478073,106.076398 55.78,107.6 C54.91,109.11 54.19,110.72 53.4,112.3 L51.86,115.44 L51.21,118.18 C50.4601467,121.10309 49.8659775,124.063922 49.43,127.05 C49.0224856,130.032449 48.825332,133.039875 48.84,136.05 C48.84,139.05 49.03,142.14 49.11,145.18 C49.23,151.28 49.42,157.38 49.48,163.49 C48.93,157.41 48.48,151.32 48.03,145.24 C47.83,142.19 47.6,139.17 47.45,136.09 C47.3325044,133.003448 47.4327529,129.912452 47.75,126.84 C47.83,126.05 47.97,125.26 48.08,124.46 L47.26,120.29 C46.9,118.56 46.62,116.82 46.18,115.13 C45.7381542,113.423469 45.1699183,111.752187 44.48,110.13 L42.42,105.26 L44.74,110.02 C45.5273498,111.611755 46.1958415,113.259587 46.74,114.95 C47.28,116.65 47.66,118.38 48.11,120.08 L48.52,121.7 C48.77,120.36 49.05,119.02 49.37,117.7 L51.37,108.78 L53.37,99.87 C53.6500967,98.5499167 53.8504592,97.2141667 53.97,95.87 L49.25,91.13 C47.54,89.45 45.91,87.7 44.14,86.13 C42.359123,84.5521411 40.4639504,83.1082001 38.47,81.81 L32.47,77.87 L38.67,81.48 C40.7677716,82.6828989 42.7732897,84.0399661 44.67,85.54 C46.57,87.05 48.29,88.71 50.08,90.29 L54.08,93.94 C54.08,92.94 54.08,92 54.08,91.03 C53.8943232,88.0390031 53.4594824,85.0687056 52.78,82.15 L51.05,73.15 L49.32,64.15 C49.04,62.64 48.73,61.15 48.47,59.62 C48.2367401,58.0580977 48.1430367,56.4785257 48.19,54.9 C48.4452928,51.8234648 48.8827266,48.7647672 49.5,45.74 C49.98,42.74 50.66,39.74 50.83,36.74 C50.9654318,33.7124579 50.8517154,30.6789059 50.49,27.67 L49.79,18.54 L51.1,27.63 Z"
                              id="Path" fill="url(#linearGradient-3)"></path>
                        <path d="M88,114.14 L88,118.78 C88.0005264,120.477885 87.2320689,122.08466 85.91,123.15 L83.91,124.75 C82.4945555,125.885483 81.9733892,127.804506 82.62,129.5 L83.79,132.57 C85.4159779,136.833053 84.9495792,141.611789 82.53,145.48 C81.3310071,147.39593 79.2301706,148.559703 76.97,148.56 C73.5624031,148.56 70.8,151.322403 70.8,154.73 L70.8,157.57 C70.7991603,160.533774 70.2428922,163.471141 69.16,166.23 C67.5974869,170.210113 64.894462,173.640206 61.39,176.09 L54.31,181.04 L45.66,181.04 L44.33,164.13 C43.5805156,154.636236 47.9141128,145.455402 55.72,140 C59.3139692,137.482504 60.8469003,132.916154 59.5,128.74 L58.98,127.13 C57.9611,123.996504 58.0636221,120.606204 59.27,117.54 L60.06,115.54 C61.1191227,112.851026 63.9598773,111.31457 66.79,111.9 L70.45,112.66 C72.1637703,113.014508 73.8469216,111.935337 74.24,110.23 L75.33,105.47 C76.4789656,100.454594 80.5663706,96.6444358 85.65,95.85 L85.77,95.85 C87.7008432,95.549138 89.6667091,96.107538 91.1510832,97.3784853 C92.6354573,98.6494325 93.4899315,100.505857 93.49,102.46 C93.4914278,104.865616 92.6532295,107.196302 91.12,109.05 L88.8,111.86 C88.2829184,112.507524 88.0008737,113.311351 88,114.14 Z"
                              id="Path" fill="url(#linearGradient-4)"></path>
                        <path d="M55.7,140 C59.3101388,137.485323 60.8526385,132.906535 59.5,128.72 L58.98,127.11 C57.9611,123.976504 58.0636221,120.586204 59.27,117.52 L60.06,115.52 C61.1191227,112.831026 63.9598773,111.29457 66.79,111.88 L70.45,112.64 C72.1637703,112.994508 73.8469216,111.915337 74.24,110.21 L75.33,105.45 C76.4753924,100.430695 80.5635537,96.6158701 85.65,95.82 L85.77,95.82 L85.82,95.82 C86.8643152,95.6611003 87.9049712,96.1281266 88.4804341,97.0139516 C89.055897,97.8997765 89.0596388,99.0404187 88.49,99.93 L81.89,110.24 C81.2204184,111.28923 80.6766768,112.413634 80.27,113.59 L78.1,119.87 C77.4880209,121.638872 76.1268162,123.047646 74.38,123.72 C71.1306672,124.964342 69.1525016,128.268168 69.59,131.72 C70.3876345,138.108587 68.3902917,144.5307 64.11,149.34 C62.7207746,150.886793 61.6956783,152.725132 61.11,154.72 L57.29,168 L50.66,181.07 L45.66,181.07 L44.33,164.16 C43.5651287,154.659784 47.8919784,145.465704 55.7,140 Z"
                              id="Path" fill="url(#linearGradient-5)"></path>
                        <path d="M81.86,109.85 C80.8659427,111.302552 79.9930018,112.834379 79.25,114.43 C78.621207,116.067585 78.0771534,117.736461 77.62,119.43 C77.1790625,121.096521 76.6414865,122.735961 76.01,124.34 C75.2401879,125.866605 74.3117335,127.307888 73.24,128.64 L70.16,132.88 L67.5,136.54 L67.27,133.78 C67.14,132.42 67.07,131.05 66.87,129.67 C66.6681533,128.316464 66.3673471,126.979548 65.97,125.67 L64.8,121.73 L65.8,125.73 C66.1210572,127.045112 66.3449942,128.382049 66.47,129.73 C66.6,131.08 66.59,132.45 66.64,133.82 L66.75,137.62 C65.7796685,138.876784 64.9198007,140.2151 64.18,141.62 C63.3740712,143.232738 62.782393,144.943898 62.42,146.71 L61.42,151.86 L61.14,153.28 C61.05,152.28 61,151.34 60.86,150.37 C60.7148576,149.354988 60.4942462,148.352209 60.2,147.37 L59.34,144.47 L60.05,147.42 C60.2912281,148.406136 60.458361,149.408933 60.55,150.42 C60.64,151.42 60.64,152.42 60.68,153.42 L60.74,155.42 L60.43,157 C60.1247102,158.686225 59.7308315,160.355203 59.25,162 C58.7545091,163.654337 58.1429928,165.271681 57.42,166.84 C56.68,168.4 55.88,169.97 55.12,171.54 C53.61,174.69 52.07,177.83 50.59,181 C52.32,178 53.97,174.89 55.67,171.83 C56.5,170.29 57.33,168.77 58.14,167.2 C58.9203792,165.618857 59.5886917,163.984833 60.14,162.31 C60.29,161.88 60.4,161.43 60.53,160.99 L61.94,158.99 C62.53,158.17 63.09,157.33 63.73,156.56 C64.3616991,155.780179 65.0502463,155.04818 65.79,154.37 L68.02,152.32 L65.69,154.25 C64.9059239,154.894835 64.170587,155.596748 63.49,156.35 C62.8,157.11 62.2,157.92 61.56,158.7 L60.96,159.45 C61.15,158.69 61.32,157.93 61.46,157.17 L62.52,152.04 L63.58,146.92 C63.7457791,146.171439 63.9561542,145.433456 64.21,144.71 L67.79,143.36 C69.08,142.89 70.34,142.36 71.64,141.96 C72.9489329,141.557934 74.2859529,141.253762 75.64,141.05 L79.7,140.42 L75.61,140.84 C74.2379521,140.972831 72.8775863,141.2068 71.54,141.54 C70.19,141.88 68.9,142.33 67.59,142.74 L64.59,143.68 C64.8,143.17 65.03,142.68 65.28,142.16 C66.0849509,140.645215 67.0148407,139.200206 68.06,137.84 L71.06,133.56 L74.06,129.28 C74.56,128.56 75.06,127.88 75.57,127.12 C76.0604989,126.35904 76.4821686,125.55586 76.83,124.72 C77.4269266,123.054305 77.924468,121.35465 78.32,119.63 C78.79,117.94 79.14,116.23 79.76,114.63 C80.4046457,113.019063 81.1805905,111.463829 82.08,109.98 L84.61,105.39 L81.86,109.85 Z"
                              id="Path" fill="url(#linearGradient-6)"></path>
                        <path d="M5.36,96.46 L4.76,102.14 C4.54373269,104.21626 5.279045,106.278811 6.76,107.75 L9,110 C10.6050046,111.5685 11.009545,113.995742 10,116 L8.17,119.61 C5.61745778,124.628033 5.57301118,130.554246 8.05,135.61 C9.26943056,138.111895 11.692019,139.808841 14.46,140.1 C16.4617944,140.309117 18.2982355,141.305781 19.564453,142.870263 C20.8306705,144.434745 21.4226928,146.438582 21.21,148.44 L20.85,151.91 C20.4682343,155.537286 20.7701189,159.203997 21.74,162.72 C23.1403347,167.789923 26.0069147,172.333313 29.98,175.78 L37.98,182.78 L48.56,183.89 L52.36,163.37 C54.5051815,151.841071 50.3709097,140.039743 41.5,132.37 C37.4171333,128.834562 36.1260904,123.045168 38.32,118.11 L39.17,116.21 C40.8165765,112.506379 41.1241376,108.345467 40.04,104.44 L39.33,101.87 C38.3788327,98.4439059 35.0975571,96.2014898 31.56,96.56 L26.99,97.02 C24.8486002,97.2151889 22.9360344,95.6824861 22.66,93.55 L21.94,87.55 C21.181896,81.2639127 16.669735,76.0743333 10.55,74.45 L10.41,74.45 C8.08751324,73.8317872 5.61080017,74.2609671 3.63173602,75.6245788 C1.65267188,76.9881905 0.369516998,79.1496291 0.12,81.54 C-0.186869677,84.4814642 0.541621971,87.4378672 2.18,89.9 L4.66,93.63 C5.2008998,94.469523 5.44716202,95.465126 5.36,96.46 Z"
                              id="Path" fill="url(#linearGradient-7)"></path>
                        <path d="M41.51,132.26 C37.4167749,128.723033 36.1176096,122.925508 38.31,117.98 L39.16,116.08 C40.8065765,112.376379 41.1141376,108.215467 40.03,104.31 L39.32,101.74 C38.3688327,98.3139059 35.0875571,96.0714898 31.55,96.43 L26.98,96.89 C24.8386002,97.0851889 22.9260344,95.5524861 22.65,93.42 L21.93,87.42 C21.171896,81.1339127 16.659735,75.9443333 10.54,74.32 L10.4,74.32 L10.34,74.32 C9.0808323,73.9879404 7.74396416,74.4250394 6.92417774,75.4368284 C6.10439131,76.4486175 5.95403367,77.8470682 6.54,79.01 L13.28,92.47 C13.967629,93.8403433 14.4912455,95.2870015 14.84,96.78 L16.69,104.78 C17.2115502,107.024169 18.6973822,108.923545 20.75,109.97 C24.5583393,111.90995 26.5517028,116.197951 25.58,120.36 C23.7801939,128.076288 25.3986158,136.193913 30.02,142.63 C31.5151128,144.712987 32.5232596,147.105199 32.97,149.63 L35.97,166.37 L42.4,183.22 L48.55,183.87 L52.35,163.35 C54.5339829,151.795513 50.4044955,139.951808 41.51,132.26 Z"
                              id="Path" fill="url(#linearGradient-8)"></path>
                        <path d="M13.37,92 C14.4013761,93.9050974 15.2743187,95.8917942 15.98,97.94 C16.5391595,100.03198 16.9897612,102.151477 17.33,104.29 C17.6554229,106.38761 18.1028485,108.464466 18.67,110.51 C19.4169004,112.477772 20.3688092,114.361478 21.51,116.13 L24.73,121.71 L27.51,126.53 L28.15,123.18 C28.48,121.53 28.74,119.86 29.15,118.18 C29.5702801,116.535547 30.1117608,114.924475 30.77,113.36 L32.71,108.69 L31.02,113.46 C30.4546301,115.038094 30.0067419,116.655839 29.68,118.3 C29.35,119.93 29.18,121.61 28.94,123.3 L28.31,127.93 C29.3327639,129.575029 30.2126507,131.304692 30.94,133.1 C31.7221911,135.175032 32.2298236,137.343396 32.45,139.55 L33,146 L33.16,147.77 C33.39,146.6 33.58,145.42 33.88,144.25 C34.188617,143.038951 34.5863682,141.852382 35.07,140.7 L36.5,137.26 L35.26,140.77 C34.8387681,141.93361 34.5045159,143.12689 34.26,144.34 C34.02,145.54 33.89,146.78 33.72,148.01 L33.39,150.45 L33.56,152.45 C33.7113478,154.569158 33.975052,156.678792 34.35,158.77 C34.7411699,160.858633 35.2791715,162.917074 35.96,164.93 C36.66,166.93 37.44,168.93 38.17,170.93 C39.61,174.98 41.1,179.01 42.49,183.08 C40.77,179.14 39.13,175.16 37.49,171.21 C36.68,169.21 35.85,167.21 35.06,165.21 C34.2938168,163.172992 33.6722744,161.084475 33.2,158.96 C33.07,158.41 32.99,157.85 32.89,157.3 L31.41,154.7 C30.79,153.62 30.21,152.52 29.54,151.49 C28.8668991,150.456072 28.1181868,149.473387 27.3,148.55 L24.84,145.75 L27.45,148.41 C28.3292203,149.298733 29.14144,150.251336 29.88,151.26 C30.62,152.26 31.26,153.35 31.94,154.38 L32.57,155.38 C32.44,154.38 32.33,153.47 32.25,152.53 L31.62,146.12 L30.98,139.72 C30.8757846,138.78126 30.7154982,137.849595 30.5,136.93 L26.29,134.82 C24.78,134.08 23.29,133.27 21.76,132.62 C20.215492,131.963257 18.6244758,131.421776 17,131 L12.11,129.7 L17.11,130.7 C18.7720782,131.041985 20.4065481,131.506589 22,132.09 C23.6,132.67 25.13,133.4 26.68,134.09 L30.2,135.62 C30.01,134.96 29.8,134.31 29.55,133.67 C28.7614487,131.714463 27.811503,129.827951 26.71,128.03 L23.55,122.41 L20.39,116.79 C19.87,115.84 19.33,114.94 18.82,113.95 C18.3157563,112.958853 17.9007838,111.924768 17.58,110.86 C17.0632765,108.745043 16.672589,106.601271 16.41,104.44 C16.05,102.32 15.85,100.17 15.3,98.14 C14.7158557,96.0816663 13.9633162,94.0748942 13.05,92.14 L10.55,86.2 L13.37,92 Z"
                              id="Path" fill="url(#linearGradient-9)"></path>
                        <path d="M2.45,184.13 C2.45,195.96 6.73,207.13 10.58,216.96 C11.7541167,219.973308 14.6560285,221.9582 17.89,221.96 L75.64,221.96 C78.8739715,221.9582 81.7758833,219.973308 82.95,216.96 C86.8,207.11 91.08,195.96 91.08,184.13 C91.0840159,178.440229 90.6662041,172.75799 89.83,167.13 C89.2463573,163.296394 85.9477772,160.465396 82.07,160.47 L11.46,160.47 C7.5822228,160.465396 4.28364272,163.296394 3.7,167.13 C2.86379587,172.75799 2.44598414,178.440229 2.45,184.13 Z"
                              id="Path" fill="url(#linearGradient-10)"></path>
                    </g>
                </g>
            </g>
        </g>
    </g>
</svg>