<svg width="209px" height="122px" viewBox="0 0 209 122" version="1.1" xmlns="http://www.w3.org/2000/svg">
    <g id="Welcome" stroke="none" stroke-width="1" fill="none" fill-rule="evenodd">
        <g id="Design" transform="translate(-401.000000, -399.000000)">
            <g id="new-white" transform="translate(198.000000, 244.000000)">
                <g id="board" transform="translate(155.000000, 0.000000)">
                    <g id="list" transform="translate(48.045455, 154.767857)">
                        <g id="shadow" opacity="0.1" transform="translate(5.719697, 3.967857)" fill="#7E9ACA">
                            <path d="M48.4844891,118.242363 L5.06329372,118.242363 C2.53903577,118.242363 0.492630218,116.193411 0.492630218,113.665993 L0.492630218,70.1904227 C0.492630218,67.6629513 2.53903577,65.6140525 5.06329372,65.6140525 L48.4844891,65.6140525 C51.0087471,65.6140525 53.0550987,67.6629513 53.0550987,70.1904227 L53.0550987,113.665993 C53.0550987,116.178418 51.0330172,118.218001 48.4844891,118.242363 Z"
                                  id="-copy-8"></path>
                            <path d="M201.144173,80.2584228 L62.1963928,80.2584228 C61.439169,80.2584228 60.8252926,79.6438121 60.8252926,78.8855104 L60.8252926,67.902211 C60.8252926,67.143968 61.439169,66.5293279 62.1963928,66.5293279 L201.144173,66.5293279 C201.90154,66.5293279 202.515416,67.143968 202.515416,67.902211 L202.515416,78.8855104 C202.515416,79.6295631 201.924287,80.2353286 201.144173,80.2584228 Z"
                                  id="-copy-2"></path>
                            <path d="M169.149632,103.140326 L62.1964015,103.140326 C61.4391479,103.140326 60.8252817,102.525656 60.8252817,101.767413 L60.8252817,90.7841141 C60.8252817,90.0258417 61.4391479,89.4112016 62.1964015,89.4112016 L169.149632,89.4112016 C169.906997,89.4112016 170.520863,90.0258417 170.520863,90.7841141 L170.520863,101.767413 C170.520863,102.511407 169.929765,103.117173 169.149632,103.140326 Z"
                                  id="-copy-4"></path>
                            <path d="M48.4844891,54.1730932 L5.06329372,54.1730932 C2.53903577,54.1730932 0.492630218,52.1241788 0.492630218,49.5967596 L0.492630218,6.12113184 C0.492630218,3.59371264 2.53903577,1.54479828 5.06329372,1.54479828 L48.4844891,1.54479828 C51.0087471,1.54479828 53.0550987,3.59371264 53.0550987,6.12113184 L53.0550987,49.5967596 C53.0550987,52.1091665 51.0330172,54.1487387 48.4844891,54.1730932 Z"
                                  id="-copy-7"></path>
                            <path d="M201.144173,16.1892062 L62.1963928,16.1892062 C61.439169,16.1892062 60.8252926,15.5745382 60.8252926,14.8162649 L60.8252926,3.8329916 C60.8252926,3.07471834 61.439169,2.46005035 62.1963928,2.46005035 L201.144173,2.46005035 C201.90154,2.46005035 202.515416,3.07471834 202.515416,3.8329916 L202.515416,14.8162649 C202.515416,15.560312 201.924287,16.1660849 201.144173,16.1892062 Z"
                                  id="-copy"></path>
                            <path d="M169.149632,39.0710501 L62.1964015,39.0710501 C61.4391479,39.0710501 60.8252817,38.4564101 60.8252817,37.698167 L60.8252817,26.7148383 C60.8252817,25.9565953 61.4391479,25.3419552 62.1964015,25.3419552 L169.149632,25.3419552 C169.906997,25.3419552 170.520863,25.9565953 170.520863,26.7148383 L170.520863,37.698167 C170.520863,38.4421904 169.929765,39.0479559 169.149632,39.0710501 Z"
                                  id="-copy-3"></path>
                        </g>
                        <path d="M202.515368,15.591429 L63.567588,15.591429 C62.8103642,15.591429 62.1964878,14.9755066 62.1964878,14.2156859 L62.1964878,3.20999771 C62.1964878,2.45017695 62.8103642,1.83425453 63.567588,1.83425453 L202.515368,1.83425453 C203.272735,1.83425453 203.886612,2.45017695 203.886612,3.20999771 L203.886612,14.2156859 C203.886612,14.9612515 203.295482,15.5682606 202.515368,15.591429 Z"
                              id="" fill="#FFFFFF"></path>
                        <path d="M202.515368,79.7913992 L63.567588,79.7913992 C62.8103642,79.7913992 62.1964878,79.1755341 62.1964878,78.4156849 L62.1964878,67.4099707 C62.1964878,66.6501802 62.8103642,66.0342857 63.567588,66.0342857 L202.515368,66.0342857 C203.272735,66.0342857 203.886612,66.6501802 203.886612,67.4099707 L203.886612,78.4156849 C203.886612,79.161256 203.295482,79.7682579 202.515368,79.7913992 Z"
                              id="" fill="#FFFFFF"></path>
                        <path d="M170.520827,38.5199707 L63.5677077,38.5199707 C62.8103431,38.5199707 62.1964769,37.9040762 62.1964769,37.1442857 L62.1964769,26.1385421 C62.1964769,25.3787516 62.8103431,24.7628571 63.5677077,24.7628571 L170.520827,24.7628571 C171.278192,24.7628571 171.892058,25.3787516 171.892058,26.1385421 L171.892058,37.1442857 C171.892058,37.8898275 171.300961,38.4968293 170.520827,38.5199707 Z"
                              id="" fill="#FFFFFF"></path>
                        <path d="M170.520827,102.72 L63.5677077,102.72 C62.8103431,102.72 62.1964769,102.104076 62.1964769,101.344286 L62.1964769,90.3385714 C62.1964769,89.5787516 62.8103431,88.9628571 63.5677077,88.9628571 L170.520827,88.9628571 C171.278192,88.9628571 171.892058,89.5787516 171.892058,90.3385714 L171.892058,101.344286 C171.892058,102.089798 171.300961,102.6968 170.520827,102.72 Z"
                              id="" fill="#FFFFFF"></path>
                        <path d="M48.4844891,53.6528342 L5.06329372,53.6528342 C2.53903577,53.6528342 0.492684151,51.5997384 0.492684151,49.0671612 L0.492684151,5.50280762 C0.492684151,2.97023043 2.53903577,0.917134603 5.06329372,0.917134603 L48.4844891,0.917134603 C51.0087471,0.917134603 53.0551526,2.97023043 53.0551526,5.50280762 L53.0551526,49.0671612 C53.0551526,51.5846954 51.0330172,53.62843 48.4844891,53.6528342 Z"
                              id="" fill="#FFFFFF"></path>
                        <path d="M48.4844891,115.559977 L5.06329372,115.559977 C2.53903577,115.559977 0.492684151,113.506881 0.492684151,110.974304 L0.492684151,67.4099505 C0.492684151,64.8773733 2.53903577,62.8242775 5.06329372,62.8242775 L48.4844891,62.8242775 C51.0087471,62.8242775 53.0551526,64.8773733 53.0551526,67.4099505 L53.0551526,110.974304 C53.0551526,113.491838 51.0330172,115.535573 48.4844891,115.559977 Z"
                              id="-copy-11" fill="#FFE7AD"></path>
                    </g>
                </g>
            </g>
        </g>
    </g>
</svg>