<svg width="122px" height="288px" viewBox="0 0 122 288" version="1.1" xmlns="http://www.w3.org/2000/svg" xmlns:xlink="http://www.w3.org/1999/xlink">
    <defs>
        <path d="M2.46801361,5.09062201 C2.46801361,12.3571187 -3.48425375,26.5963947 4.27753047,30.2881098 C9.45205327,32.7492532 14.3272566,27.5884016 18.9031405,14.8055549 C18.5087195,5.41898554 15.9725126,0.725700841 11.2945198,0.725700841 C4.27753047,0.725700841 2.46801361,-2.17587468 2.46801361,5.09062201 Z"
              id="path-1"></path>
        <linearGradient x1="-25.8029357%" y1="100%" x2="42.445841%" y2="30.4265738%" id="linearGradient-3">
            <stop stop-color="#47689B" offset="0%"></stop>
            <stop stop-color="#223762" offset="100%"></stop>
        </linearGradient>
        <linearGradient x1="0%" y1="106.763463%" x2="28.5542338%" y2="0%" id="linearGradient-4">
            <stop stop-color="#CFDDF3" offset="0%"></stop>
            <stop stop-color="#A1B8E3" offset="100%"></stop>
        </linearGradient>
        <path d="M57.8173037,0.23252215 C67.9806041,37.6754171 73.7238425,60.6567704 75.0470187,69.1765821 C77.0317832,81.9562997 81.8887539,125.154022 81.2031405,132.120666 C77.88553,135.522297 71.9090217,133.485567 70.8679571,132.861652 C69.8268925,132.237738 63.4127951,96.6963458 57.8173037,82.908865 C52.2218122,69.1213841 39.6298597,56.4320991 31.3326955,42.5602343 C31.3326955,48.5794127 29.19703,59.6430031 24.9256989,75.7510053 C18.6973539,104.197035 14.5234293,120.722276 12.4039249,125.32673 C10.895364,127.777031 3.27984828,125.980261 0.325995,125.32673 C0.325995,118.855144 6.69482697,86.1597457 6.69482697,74.8094688 C6.69482697,63.459192 4.93347778,42.8892969 4.2754232,34.4567347 C3.61736862,26.0241725 2.00956314,9.6641962 4.2754232,0.23252215 C8.10466103,0.23252215 25.9519545,0.23252215 57.8173037,0.23252215 Z"
              id="path-5"></path>
        <linearGradient x1="89.2651436%" y1="83.2202103%" x2="79.8543348%" y2="25.681003%" id="linearGradient-7">
            <stop stop-color="#CFDDF3" stop-opacity="0.477723053" offset="0%"></stop>
            <stop stop-color="#A1B8E3" offset="100%"></stop>
        </linearGradient>
        <path d="M18.7227784,0.393283554 C20.095987,3.06821262 21.9456269,4.97349111 24.2716982,6.109119 C26.5977695,7.2447469 28.3420278,8.09038304 29.5044731,8.64602743 L28.0211598,14.4313184 C29.8643057,20.1028912 30.3587434,23.8947485 29.5044731,25.8068906 C28.2230676,28.6751037 24.2716982,30.5806397 21.9718985,33.1380128 C20.4386987,34.8429282 18.9633556,38.5872946 17.545869,44.3711121 L2.38778518,44.3711121 L1.70142694,33.1380128 C-0.993627754,22.3320355 -0.0549340058,14.1680403 4.51750818,8.64602743 C9.08995037,3.12401452 13.8250404,0.373099891 18.7227784,0.393283554 Z"
              id="path-8"></path>
        <linearGradient x1="50%" y1="0%" x2="81.4402452%" y2="56.408967%" id="linearGradient-10">
            <stop stop-color="#164898" offset="0%"></stop>
            <stop stop-color="#223762" offset="100%"></stop>
        </linearGradient>
        <linearGradient x1="-1.11022302e-14%" y1="50%" x2="75.5130009%" y2="33.4689142%" id="linearGradient-11">
            <stop stop-color="#EDF3FD" offset="0%"></stop>
            <stop stop-color="#D6E3FA" offset="100%"></stop>
        </linearGradient>
        <path d="M33.7861923,0.664583442 C40.9698561,2.57075238 46.6781768,6.04234253 50.9111542,11.0793539 C57.2606204,18.6348709 55.8456475,41.3658456 57.644068,54.8945626 C59.4424884,68.4232797 67.2676844,78.2571164 55.180674,85.891884 C43.0936637,93.5266516 8.91877797,91.7929343 6.12395017,85.891884 C4.26073164,81.9578505 2.26726511,67.9013316 0.143550576,43.7223272 C0.143550576,21.960345 1.41602445,10.1621248 3.96097219,8.32766676 C6.50591993,6.49320869 10.748951,3.80330545 16.6900653,0.257957053 C16.5568532,0.797403393 17.9231962,1.3344106 20.7890945,1.86897868 C23.6549928,2.40354675 27.9873587,2.00208167 33.7861923,0.664583442 Z"
              id="path-12"></path>
        <linearGradient x1="44.7356789%" y1="57.7816012%" x2="67.4239091%" y2="23.7180568%" id="linearGradient-14">
            <stop stop-color="#CFDDF3" offset="0%"></stop>
            <stop stop-color="#A1B8E3" offset="100%"></stop>
        </linearGradient>
        <linearGradient x1="86.2225509%" y1="231.608002%" x2="56.9641755%" y2="-57.1406441%" id="linearGradient-15">
            <stop stop-color="#CFDDF3" offset="0%"></stop>
            <stop stop-color="#A1B8E3" offset="100%"></stop>
        </linearGradient>
        <path d="M17.9863877,50.5406649 L27.8242373,57.8285299 C38.5920549,42.0946924 44.4508362,33.1504827 45.400581,30.9959009 C46.8251983,27.7640283 45.3908963,22.3361197 45.3888755,20.529141 C45.3868546,18.7221623 46.4439296,14.7372679 47.985375,13.5695349 C49.5268203,12.4018019 48.6903101,8.47660649 51.4661196,6.52618864 C54.0118882,4.73740868 63.8404034,7.74571892 65.3347733,10.457064 C66.8291433,13.1684091 66.1860116,19.9695037 64.3393497,23.154426 C62.4926878,26.3393483 56.3486434,31.4089618 56.3502174,32.8163775 C56.3517914,34.2237932 46.1562931,55.501855 42.4585671,64.1073748 C38.7608412,72.7128945 35.2709808,78.5223072 27.8446732,76.1016763 C22.8938014,74.4879224 15.894479,69.5551002 6.8467058,61.3032097 C8.60853979,57.1052168 10.345005,54.3460133 12.0561014,53.025599 C13.7671977,51.7051848 15.7439599,50.8768734 17.9863877,50.5406649 Z"
              id="path-16"></path>
        <linearGradient x1="22.1069515%" y1="11.2137508%" x2="22.1069515%" y2="79.6109734%" id="linearGradient-18">
            <stop stop-color="#D6E3FA" offset="0%"></stop>
            <stop stop-color="#E3EDFE" offset="100%"></stop>
        </linearGradient>
    </defs>
    <g id="Welcome" stroke="none" stroke-width="1" fill="none" fill-rule="evenodd">
        <g id="Design" transform="translate(-319.000000, -462.000000)">
            <g id="new-white" transform="translate(198.000000, 244.000000)">
                <g id="person" transform="translate(121.000000, 218.000000)">
                    <g id="Group-7">
                        <g id="Path-7" transform="translate(0.404391, 95.557202)">
                            <mask id="mask-2" fill="white">
                                <use xlink:href="#path-1"></use>
                            </mask>
                            <use id="Mask" fill="#EAB999" xlink:href="#path-1"></use>
                            <path d="M2.02122846,8.3444582 C2.64715987,9.62345404 11.1768014,16.3892747 12.587241,17.9891424 C13.9976805,19.5890101 14.3201385,23.7707314 15.1300524,23.3386913 C15.669995,23.0506646 15.669995,18.8178508 15.1300524,10.6402501 C5.97354884,8.25705828 1.60394086,7.49179431 2.02122846,8.3444582 Z"
                                  fill="#CFB4A2" style="mix-blend-mode: multiply;" opacity="0.5" mask="url(#mask-2)"></path>
                        </g>
                        <g id="Group-10" transform="translate(15.676432, 261.340143)">
                            <path d="M0.428775961,5.26329741 C0.428775961,9.01835153 -0.535969951,13.7105006 0.428775961,15.5753461 C1.39352187,17.4401917 6.17527989,18.4206706 7.75281034,18.4206706 C9.33034079,18.4206706 9.85798305,15.745545 12.307922,17.1218197 C14.757861,18.4980944 28.721194,18.4206706 29.6283789,12.8364793 C30.5355639,7.25228804 23.4567632,7.25228804 20.3082978,7.25228804 C17.1598325,7.25228804 13.8254931,5.71048658 9.15046274,1.70714235 C4.47543237,-2.29620187 0.428775961,1.50824329 0.428775961,5.26329741 Z"
                                  id="Path-90" fill="url(#linearGradient-3)"></path>
                            <g id="Group-9" transform="translate(14.273641, 4.256931)" stroke="#FFFFFF" stroke-linecap="round" stroke-width="2">
                                <path d="M0.291324113,5.02683272 C1.00685029,2.50552813 1.00685029,1.53408028 3.0262924,0.575887067" id="Path-14" transform="translate(1.658808, 2.801360) scale(-1, 1) translate(-1.658808, -2.801360) "></path>
                                <path d="M2.65036507,5.8400855 C3.36589125,3.31878091 4.38109245,2.47550719 7.07020051,3.31878091" id="Path-14-Copy" transform="translate(4.860283, 4.421253) scale(-1, 1) translate(-4.860283, -4.421253) "></path>
                            </g>
                        </g>
                        <g id="Group-11" transform="translate(85.730852, 269.186670)">
                            <path d="M0.474674298,5.26329741 C0.474674298,9.01835153 -0.593342872,13.7105006 0.474674298,15.5753461 C1.54269147,17.4401917 6.83631293,18.4206706 8.58271018,18.4206706 C10.3291074,18.4206706 10.9132312,15.745545 13.6254239,17.1218197 C16.3376167,18.4980944 31.7956552,18.4206706 32.7999497,12.8364793 C33.8042443,7.25228804 25.9676932,7.25228804 22.4822003,7.25228804 C18.9967073,7.25228804 15.3054435,5.71048658 10.1299743,1.70714235 C4.95450518,-2.29620187 0.474674298,1.50824329 0.474674298,5.26329741 Z"
                                  id="Path-90-Copy" fill="url(#linearGradient-3)"></path>
                            <g id="Group-9" transform="translate(16.390405, 4.663557)" stroke="#FFFFFF" stroke-linecap="round" stroke-width="2">
                                <path d="M0.178216086,5.02683272 C0.893742261,2.50552813 1.45467496,1.33999979 3.7402647,0.280802157" id="Path-14" transform="translate(1.959240, 2.653817) scale(-1, 1) translate(-1.959240, -2.653817) "></path>
                                <path d="M2.95994655,5.43345911 C3.67547273,2.91215452 4.69067394,2.0688808 7.379782,2.91215452" id="Path-14-Copy" transform="translate(5.169864, 4.014626) scale(-1, 1) translate(-5.169864, -4.014626) "></path>
                            </g>
                        </g>
                        <g id="Path-5" transform="translate(16.175632, 138.659599)">
                            <mask id="mask-6" fill="white">
                                <use xlink:href="#path-5"></use>
                            </mask>
                            <use id="Mask" fill="url(#linearGradient-4)" xlink:href="#path-5"></use>
                            <path d="M23.2925289,82.3098843 C23.2925289,76.8123867 26.1093908,31.8914794 26.7565168,33.7349229 C27.1879341,34.9638852 29.083479,38.8965597 32.4431516,45.5329463 C26.3427364,73.7159034 23.2925289,85.9748827 23.2925289,82.3098843 Z"
                                  id="Path-10" fill="#A1B8E3" style="mix-blend-mode: multiply;" opacity="0.5" mask="url(#mask-6)"></path>
                            <path d="M26.9093688,33.7602117 C27.6983216,37.0878776 30.7357632,41.7109116 32.13788,44.467185" stroke="#FFFFFF" stroke-width="2" stroke-linecap="round" mask="url(#mask-6)"></path>
                            <path d="M7.80316789,9.61575834 C11.3667418,11.5429033 25.3220004,19.7457278 43.3039177,16.4584752 C52.1885456,14.8342871 57.9038094,12.7086726 60.4674947,9.61575834 C60.4674947,8.09227721 58.3125227,1.68422548 57.7107405,-0.767423313 C57.1089583,-3.2190721 3.43905232,7.25568847 7.80316789,9.61575834 Z"
                                  id="Path-6" fill="url(#linearGradient-7)" style="mix-blend-mode: multiply;" opacity="0.5" mask="url(#mask-6)"></path>
                        </g>
                        <g id="Path-3" transform="translate(28.307357, 19.111440)">
                            <mask id="mask-9" fill="white">
                                <use xlink:href="#path-8"></use>
                            </mask>
                            <use id="Mask" fill="#FFBF9E" xlink:href="#path-8"></use>
                            <path d="M23.8607234,31.6107669 C20.0344509,31.6107669 14.0656456,28.2040484 12.9168367,27.040131 C11.7680278,25.8762135 22.4823231,38.4676965 21.5879708,40.4730987 C20.8824061,42.0551833 18.3635111,42.5391606 19.9521322,42.5391606 C25.6815672,42.5391606 27.6869959,31.6107669 23.8607234,31.6107669 Z"
                                  fill="#C3B8B1" style="mix-blend-mode: multiply;" opacity="0.5" mask="url(#mask-9)"></path>
                        </g>
                        <path d="M30.0094762,51.7755654 C16.6446026,39.2146882 6.06191339,28.4949891 15.1887665,13.5579348 C24.3156195,-1.37911947 45.5517652,-6.40041476 49.5212158,11.7568684 C49.5212158,16.9506514 47.6143097,20.9348472 43.8004973,23.7094559 C43.0870242,25.1693599 43.6707802,26.6736364 45.5517652,28.2222856 C47.4327503,29.7709349 47.4327503,31.185182 45.5517652,32.4650272 C41.8373823,30.0627643 39.4951991,30.4611882 38.5252156,33.6602989 C37.0702403,38.4589649 42.4408657,40.1766541 42.4408657,41.3777704 C43.674944,44.3205022 43.0185097,47.1377795 40.4715626,49.8296026 C39.1676481,51.1269111 35.680286,51.7755654 30.0094762,51.7755654 Z"
                              id="Path-82" fill="url(#linearGradient-10)"></path>
                        <path d="M16.2241015,68.7198599 C6.68623313,85.5440629 1.34191472,95.8072263 0.191146295,99.5093501 C-0.959622125,103.211474 4.38469629,106.133026 16.2241015,108.274006 L23.6349917,76.5291151 L16.2241015,68.7198599 Z"
                              id="Path-86" fill="url(#linearGradient-11)"></path>
                        <g id="Path-4" transform="translate(13.344897, 59.367453)">
                            <mask id="mask-13" fill="white">
                                <use xlink:href="#path-12"></use>
                            </mask>
                            <use id="Mask" fill="#D6E3FA" xlink:href="#path-12"></use>
                            <path d="M42.7359258,26.4869604 C46.6107463,44.6989173 49.7139805,55.5116801 52.0456286,58.9252488 C55.5431008,64.045602 57.817191,79.5400668 60.6166355,81.3876307 C63.4160799,83.2351946 67.4375729,62.098822 65.4268264,54.8620831 C64.0863288,50.0375904 60.3949542,41.716849 54.3527027,29.8998587 L42.7359258,26.4869604 Z"
                                  fill="url(#linearGradient-14)" opacity="0.5" mask="url(#mask-13)"></path>
                            <path d="M19.2494685,2.12932719 C21.8362417,3.85456455 28.5764394,4.78845052 34.2418809,4.78845052 C39.9073225,4.78845052 41.6792655,4.84877862 44.3900815,4.01916592 C47.1008976,3.18955323 46.0497951,2.12932719 44.3900815,2.12932719 C42.730368,2.12932719 37.5824194,0.912617452 34.811618,0.912617452 C32.0408165,0.912617452 16.6626952,0.404089826 19.2494685,2.12932719 Z"
                                  id="Path-11" fill="url(#linearGradient-15)" opacity="0.5" mask="url(#mask-13)"></path>
                        </g>
                        <path d="M29.5449872,60.0317377 C29.3227485,57.2461501 29.2116291,55.4041359 29.2116291,54.505695 C29.2116291,53.1580337 40.3725069,55.0611363 48.4041909,55.8164479 C49.2756957,59.1782012 49.1213696,59.4006094 49.1213696,60.0317377 C49.1213696,60.3472183 47.1155793,63.0516022 36.3240711,62.1747793 C33.6978564,61.9613963 31.4381618,61.2470491 29.5449872,60.0317377 Z"
                              id="Path-8" fill="#E1ECFF"></path>
                        <g id="Group-2" transform="translate(92.543670, 65.638822) rotate(-26.000000) translate(-92.543670, -65.638822) translate(49.543670, 24.138822)">
                            <path d="M21.3337727,61.3277898 C27.2657717,61.3116789 35.4734769,59.129842 35.4810763,56.3290493 C35.4886758,53.5282566 28.7427186,52.5827556 22.8107197,52.5988665 C16.8787208,52.6149774 14.2738572,55.4216517 13.5351603,57.3713481 C13.8924477,59.027027 15.4017738,61.3439007 21.3337727,61.3277898 Z"
                                  id="Oval" fill="#A1B8E3" transform="translate(24.508122, 56.963269) rotate(-40.000000) translate(-24.508122, -56.963269) "></path>
                            <g id="Path-2" transform="translate(12.940506, -0.000000)">
                                <mask id="mask-17" fill="white">
                                    <use xlink:href="#path-16"></use>
                                </mask>
                                <use id="Mask" fill="#FCC8A5" transform="translate(36.505177, 41.320530) rotate(12.000000) translate(-36.505177, -41.320530) " xlink:href="#path-16"></use>
                                <path d="M19.2616988,49.2390866 C13.7386772,56.9673473 10.8252351,62.2923719 10.5213723,65.2141605 C10.2175095,68.135949 8.44815314,66.6369192 5.21330324,60.717071 C7.06171679,57.1513296 8.76318698,54.7334101 10.3177138,53.4633124 C11.8722407,52.1932147 14.853569,50.7851394 19.2616988,49.2390866 Z"
                                      fill="#C3B8B1" style="mix-blend-mode: multiply;" opacity="0.5" mask="url(#mask-17)"></path>
                                <path d="M24.514198,55.258205 C24.957526,55.802031 25.8410537,56.7433406 26.1560611,58.5710047" id="Path-9" stroke="#E5B595" stroke-width="2" stroke-linecap="round" mask="url(#mask-17)"></path>
                            </g>
                            <path d="M16.292433,64.2474139 C20.2230191,59.0594105 25.7067461,51.9560843 32.5777149,49.4647946 C19.6873523,34.3818537 15.7608009,29.349894 11.6981189,24.6287342 C7.63543693,19.9075744 -4.07698761,32.13707 2.22130383,44.1665007 C8.51959528,56.1959314 14.1553425,61.7018249 16.292433,64.2474139 Z"
                                  id="Path-85" fill="url(#linearGradient-18)"></path>
                        </g>
                    </g>
                </g>
            </g>
        </g>
    </g>
</svg>