<svg width="491px" height="168px" viewBox="0 0 491 168" version="1.1" xmlns="http://www.w3.org/2000/svg">
    <defs>
        <linearGradient x1="50%" y1="116.754194%" x2="50%" y2="-46.8538577%" id="linearGradient-1">
            <stop stop-color="#FFFFFF" offset="10%"></stop>
            <stop stop-color="#B1CBE3" offset="67%"></stop>
        </linearGradient>
        <linearGradient x1="49.7837838%" y1="105.878134%" x2="53.6699858%" y2="0.150608577%" id="linearGradient-2">
            <stop stop-color="#FFFFFF" offset="10%"></stop>
            <stop stop-color="#B1CBE3" offset="67%"></stop>
        </linearGradient>
    </defs>
    <g id="Welcome" stroke="none" stroke-width="1" fill="none" fill-rule="evenodd">
        <g id="Design" transform="translate(-833.000000, -2655.000000)">
            <g id="Group-26" transform="translate(301.000000, 2351.000000)">
                <g id="koohnavard" transform="translate(532.000000, 0.000000)">
                    <g id="Group-33" transform="translate(0.000000, 141.000000)">
                        <path d="M395.253872,256.753724 C378.914887,244.056441 358.80152,237.155233 338.092762,237.140863 L297.476953,237.140863 C277.484486,237.11985 258.271319,229.400479 243.841521,215.591485 L193.28048,167.364338 C187.210944,161.545221 177.620559,161.545221 171.551023,167.364338 L0,331 L491,331 L395.253872,256.753724 Z"
                              id="Path" fill="url(#linearGradient-1)"></path>
                        <path d="M197.498663,328.632148 L177.163528,328.632148 C170.893024,328.624017 164.888149,326.10337 160.495477,321.635454 C151.307004,312.257387 151.307004,297.26741 160.495477,287.889344 C164.115161,284.198525 164.115161,278.295443 160.495477,274.604625 L149.792774,263.749626 C140.604301,254.371559 140.604301,239.381582 149.792774,230.003515 L173.78936,205.689442 C179.871213,199.506353 183.274271,191.18348 183.264068,182.517113 L183.264068,176.043484 C183.295157,173.122171 181.896036,170.369645 179.516137,168.670087 C177.136238,166.970528 174.075263,166.537964 171.316472,167.511343 L0,331 L198,331 L197.498663,328.632148 Z"
                              id="Path" fill="url(#linearGradient-2)"></path>
                    </g>
                </g>
            </g>
        </g>
    </g>
</svg>