<svg width="151px" height="107px" viewBox="0 0 151 107" version="1.1" xmlns="http://www.w3.org/2000/svg">
    <defs>
        <linearGradient x1="100%" y1="50%" x2="0%" y2="50%" id="linearGradient-1">
            <stop stop-color="#D6E1F1" stop-opacity="0.245895607" offset="0%"></stop>
            <stop stop-color="#6F8EC2" offset="100%"></stop>
        </linearGradient>
        <linearGradient x1="93.6946777%" y1="68.1590573%" x2="0%" y2="64.642489%" id="linearGradient-2">
            <stop stop-color="#F4F6FD" offset="0%"></stop>
            <stop stop-color="#FFFFFF" offset="17.3806902%"></stop>
            <stop stop-color="#F3F4FA" offset="50.5342846%"></stop>
            <stop stop-color="#D9E2F9" offset="79.1685711%"></stop>
            <stop stop-color="#B0C3E6" offset="100%"></stop>
        </linearGradient>
        <linearGradient x1="50%" y1="100%" x2="50%" y2="3.061617e-15%" id="linearGradient-3">
            <stop stop-color="#829FCE" offset="0%"></stop>
            <stop stop-color="#AAC1E7" offset="56.417501%"></stop>
            <stop stop-color="#C0D1F0" offset="100%"></stop>
        </linearGradient>
    </defs>
    <g id="Welcome" stroke="none" stroke-width="1" fill="none" fill-rule="evenodd">
        <g id="Design" transform="translate(-585.000000, -524.000000)">
            <g id="new-white" transform="translate(198.000000, 244.000000)">
                <g id="paint" transform="translate(387.000000, 280.000000)">
                    <path d="M72.2090078,106.41844 C111.761101,106.41844 143.824304,99.5212524 143.824304,91.0131096 C143.824304,82.5049668 111.761101,75.6078428 72.2090078,75.6078428 C32.6569147,75.6078428 0.593567015,82.5049668 0.593567015,91.0131096 C0.593567015,99.5212524 32.6569147,106.41844 72.2090078,106.41844 Z"
                          id="shadow" fill="url(#linearGradient-1)" opacity="0.7"></path>
                    <path d="M14.6991343,90.5049219 L7.64548775,12.431895 L150.876224,12.431895 L143.848675,90.5049219 C143.829392,90.6206842 143.827507,90.7368165 143.817068,90.8535034 C143.210888,97.5907439 114.30806,103.052287 79.2609285,103.052287 C44.2139424,103.052287 15.3111143,97.5907439 14.7046437,90.8535034 C14.6940598,90.7368165 14.69232,90.6206842 14.6991343,90.5049219 Z"
                          id="side" fill="url(#linearGradient-2)"></path>
                    <path d="M79.2609285,24.9793175 C118.813022,24.9793175 150.876224,19.5177048 150.876224,12.7804289 C150.876224,6.04315298 118.813022,0.581514761 79.2609285,0.581514761 C39.7088354,0.581514761 7.64548775,6.04315298 7.64548775,12.7804289 C7.64548775,19.5177048 39.7088354,24.9793175 79.2609285,24.9793175 Z"
                          id="top" fill="url(#linearGradient-3)"></path>
                </g>
            </g>
        </g>
    </g>
</svg>