<svg width="660px" height="338px" viewBox="0 0 660 338" version="1.1" xmlns="http://www.w3.org/2000/svg">
    <defs>
        <linearGradient x1="50.0007953%" y1="202.020587%" x2="50.0007953%" y2="-36.2943195%" id="linearGradient-1">
            <stop stop-color="#FFFFFF" stop-opacity="0" offset="0%"></stop>
            <stop stop-color="#EAEAEA" stop-opacity="0.09" offset="9%"></stop>
            <stop stop-color="#000000" offset="100%"></stop>
        </linearGradient>
        <linearGradient x1="-96.9722154%" y1="115.848997%" x2="130.819938%" y2="-6.54106906%" id="linearGradient-2">
            <stop stop-color="#FFFFFF" stop-opacity="0" offset="0%"></stop>
            <stop stop-color="#000000" offset="100%"></stop>
        </linearGradient>
        <linearGradient x1="0.00689935037%" y1="50.0040443%" x2="100.005288%" y2="50.0040443%" id="linearGradient-3">
            <stop stop-color="#0F0D18" offset="0%"></stop>
            <stop stop-color="#15102F" offset="22%"></stop>
            <stop stop-color="#191342" offset="46%"></stop>
            <stop stop-color="#1C144C" offset="71%"></stop>
            <stop stop-color="#1D1550" offset="100%"></stop>
        </linearGradient>
        <linearGradient x1="-7.12294245%" y1="106.02047%" x2="50.9354122%" y2="18.2219546%" id="linearGradient-4">
            <stop stop-color="#FFFFFF" stop-opacity="0" offset="0%"></stop>
            <stop stop-color="#000000" offset="80%"></stop>
        </linearGradient>
        <linearGradient x1="105.91188%" y1="44.4771242%" x2="27.5515895%" y2="54.248366%" id="linearGradient-5">
            <stop stop-color="#866F6C" offset="0%"></stop>
            <stop stop-color="#977C78" offset="5%"></stop>
            <stop stop-color="#B6948E" offset="14%"></stop>
            <stop stop-color="#CFA7A0" offset="25%"></stop>
            <stop stop-color="#E2B6AE" offset="37%"></stop>
            <stop stop-color="#F0C1B8" offset="51%"></stop>
            <stop stop-color="#F8C7BD" offset="68%"></stop>
            <stop stop-color="#FAC9BF" offset="100%"></stop>
        </linearGradient>
        <linearGradient x1="40.6886859%" y1="-19.5384151%" x2="98.0791755%" y2="246.33865%" id="linearGradient-6">
            <stop stop-color="#FFFFFF" stop-opacity="0" offset="0%"></stop>
            <stop stop-color="#000000" offset="80%"></stop>
        </linearGradient>
    </defs>
    <g id="Welcome" stroke="none" stroke-width="1" fill="none" fill-rule="evenodd">
        <g id="Design" transform="translate(-116.000000, -313.000000)">
            <g id="tarahi-site-2" transform="translate(50.000000, 236.000000)">
                <rect id="Rectangle" fill="#FFFFFF" x="298" y="91" width="428" height="288" rx="14"></rect>
                <path d="M312,77 L712,77 C719.731986,77 726,83.2680135 726,91 L726,105 L298,105 L298,91 C298,83.2680135 304.268014,77 312,77 Z" id="Rectangle" fill="#282A49"></path>
                <circle id="Oval" fill="#39CE9C" cx="362" cy="91" r="4"></circle>
                <circle id="Oval" fill="#3D6FD3" cx="343" cy="91" r="4"></circle>
                <circle id="Oval" fill="#EF513D" cx="323" cy="91" r="4"></circle>
                <g id="Group-14" transform="translate(66.000000, 234.000000)">
                    <path d="M150.271493,30.2461723 C150.271493,30.2461723 225.819081,24.0539041 231.955655,14.5246914 C231.955655,14.5246914 236.005657,21.281144 231.955655,23.173226 C205.274899,35.6540866 171.910271,51.8847096 150.271493,54.7469136"
                          id="Path" fill="#1D1550"></path>
                    <path d="M231.200669,14.6687779 C230.484852,12.9496962 229.877062,11.18843 229.380777,9.39506094 C228.851739,7.21572359 231.200669,3.54856939 231.200669,0.754547142 C231.200669,-2.03947511 233.613084,3.72319578 233.175746,5.1202069 C232.738407,6.51721803 234.057476,9.22741961 234.057476,9.22741961 C234.057476,9.22741961 236.088984,8.70354044 236.794368,12.7199474 C237.499753,16.7363544 237.436268,20.7527614 231.207723,23.462963 C231.200669,23.4489929 234.163284,18.6293045 231.200669,14.6687779 Z"
                          id="Path" fill="#F59180"></path>
                    <path d="M86.3711805,74.5416953 C86.3711805,74.5416953 51.0186221,62.3122758 49.9346508,133.42635 L11.1312217,154.175598 L12.036818,163.123457 C12.036818,163.123457 114.561295,141.490973 86.3711805,74.5416953 Z" id="Path"
                          fill="#F2BBB1"></path>
                    <path d="M57.8055489,92.7345679 C54.0248484,101.711841 51.3545157,114.784611 51.0684087,133.757905 C51.0684087,133.757905 48.8681091,143.815459 51.0684087,142.960807 C53.2687083,142.106154 72.2539559,128.13087 70.1422132,133.757905 C68.0304706,139.384939 64.4745684,141.962572 64.4745684,141.962572 C76.0074081,134.004045 86.06884,123.57728 90.1628959,110.203672 L57.8055489,92.7345679 Z"
                          id="Path" fill="url(#linearGradient-2)" opacity="0.49" style="mix-blend-mode: color-burn;"></path>
                    <polygon id="Path" fill="#F59180" points="140.253394 166.475309 143.39357 173.179012 146.932127 173.179012 146.447821 166.475309"></polygon>
                    <polygon id="Path" fill="#000000" points="143.59276 174.296296 145.680641 181 161.402715 181 146.595332 174.296296"></polygon>
                    <path d="M99.7865237,103.567695 C99.7865237,103.567695 90.2784999,121.929271 114.586558,103.567695 C119.127401,100.138031 121.644828,88.2087681 130.022716,84.4740953 C162.904914,69.8336359 174.158895,45.8395496 156.286517,27.9320988 L99.7865237,91.9298849 L99.7865237,103.567695 Z"
                          id="Path" fill="url(#linearGradient-3)"></path>
                    <path d="M172.533937,27.9320988 L172.533937,34.6303816 C172.533937,34.6303816 167.172775,45.7030533 155.081358,60.3435858 C149.659197,66.8846641 124.168265,76.9047484 117.898892,82.2155298 C109.826651,89.0505123 109.270879,92.7345679 101.591744,92.7345679 L57.8823529,92.0510697 C57.8823529,92.0510697 70.4278768,27.9320988 172.533937,27.9320988 Z"
                          id="Path" fill="#F16554"></path>
                    <path d="M57.5771765,92.067701 C57.5771765,92.067701 45.2410121,127.554139 116.975808,128.642215 L137.906166,167.592593 L146.932127,166.683567 C146.932127,166.683567 125.110823,63.7846036 57.5771765,92.067701 Z" id="Path"
                          fill="#FAC9BF"></path>
                    <path d="M165.514448,41.1874856 L134.287615,34.6358025 C134.287615,34.6358025 129.62608,53.3356783 144.142264,68.154321 C149.124109,65.4636914 153.329032,62.8874135 155.182742,60.6945504 C158.979642,56.2064874 162.541771,51.5299085 165.855204,46.6830966 C165.626266,44.8599732 165.512461,43.024558 165.514448,41.1874856 Z"
                          id="Path" fill="url(#linearGradient-4)" opacity="0.49" style="mix-blend-mode: color-burn;"></path>
                    <polygon id="Path" fill="#F59180" points="161.402715 29.0493827 162.122706 51.3950617 179.21267 35.5561438"></polygon>
                    <path d="M172.533937,28.9803599 C161.427888,16.5662168 155.073783,28.9803599 155.073783,28.9803599 L154.978335,29.0213307 C153.498892,29.1374145 151.855824,29.3422684 150.096855,29.5402937 C124.775882,32.503846 72.6681291,40.5477737 56.7692308,92.6079645 C56.7692308,92.6079645 69.2524567,106.141975 85.4036103,106.141975 C101.554764,106.141975 73.2612698,77.6331484 153.137553,52.5522091 C164.400409,49.0218945 164.775383,32.0668245 164.727659,28.9735314 L172.533937,28.9803599 Z"
                          id="Path" fill="#1D1550"></path>
                    <path d="M190.309667,24.6332187 C189.509183,22.1398179 188.701857,19.9631464 187.942424,18.1099431 C186.775527,14.9264167 185.311994,11.8560987 183.570552,8.9382716 C183.570552,8.9382716 164.742081,10.4343121 164.742081,30.0108777 C164.742081,49.5874432 169.757077,40.2136041 169.757077,40.2136041 C174.709301,39.6244194 179.556846,38.3729323 184.165783,36.4937197 C186.293565,35.6243989 187.935582,26.0955645 187.935582,26.0955645 C187.935582,26.0955645 190.679121,25.8933969 190.309667,24.6332187 Z"
                          id="Path" fill="#F59180"></path>
                    <path d="M184.593525,11.9705493 L171.485434,16.5921172 L165.855204,20.1111111 L166.715191,16.6251284 C167.453697,13.6553281 169.840742,11.3531287 172.876195,10.6831125 C176.060836,9.97667286 178.990169,9.46169814 179.379851,4.08087262 C179.621722,0.79295715 189.323456,1.04384227 184.593525,11.9705493 Z"
                          id="Path" fill="#59342D"></path>
                    <path d="M184.778281,13.4074074 C184.778281,13.4074074 178.678838,17.7748899 178.678838,22.2351458 L176.988631,23.2913344 C176.988631,23.2913344 174.396535,16.747247 171.744313,19.5804015 C170.138764,21.3984451 169.244855,23.8035445 169.245746,26.3028991 C169.245746,26.3028991 161.6966,34.6524981 166.14592,22.2351458 L173.100487,13.8784104 L184.778281,13.4074074 Z"
                          id="Path" fill="#59342D"></path>
                    <polygon id="Path" fill="url(#linearGradient-5)" points="137.447308 167.592593 140.253394 167.408569 132.542865 147.481481 129.122172 151.280247"></polygon>
                    <path d="M228.190045,69.6323589 C228.190045,69.6323589 231.895049,64.5725846 233.837349,63.9401128 C236.544595,63.0420029 239.418135,64.6864295 245.045483,66.2359854 C248.797048,67.2669144 240.588836,71.3400328 236.01911,69.27185 C236.01911,69.27185 231.582418,74.2430783 229.713287,73.6991525 C228.622407,73.4271897 228.190045,69.6323589 228.190045,69.6323589 Z"
                          id="Path" fill="#F59180"></path>
                    <path d="M136.914027,33.3775748 C136.914027,33.3775748 153.132346,96.4449993 229.303167,74.806253 L227.77301,70.3123182 C227.77301,70.3123182 177.439601,73.1790193 164.692784,32.4012346 L136.914027,33.3775748 Z" id="Path"
                          fill="#1D1550"></path>
                    <polygon id="Path" fill="#F59180" points="11.6770422 157.537037 4.45248869 160.854386 5.01979043 165.358025 12.2443439 163.39745"></polygon>
                    <polygon id="Path" fill="#000000" points="5.16229822 160.888889 0 163.442838 2.80662107 175.41358 14.4705882 175.41358 8.07660739 170.576772"></polygon>
                    <path d="M155.738542,30.2020029 C154.210835,30.3221462 152.514165,30.5341638 150.697812,30.7391141 C142.319156,31.6485505 134.000159,33.0455051 125.782805,34.9229276 C133.428382,34.2868748 141.440046,42.2304666 147.459354,39.7357265 C153.478662,37.2409864 155.837104,30.1666667 155.837104,30.1666667 L155.738542,30.2020029 Z"
                          id="Path" fill="url(#linearGradient-6)" opacity="0.49" style="mix-blend-mode: color-burn;"></path>
                </g>
            </g>
        </g>
    </g>
</svg>