<svg width="72px" height="95px" viewBox="0 0 72 95" version="1.1" xmlns="http://www.w3.org/2000/svg">
    <defs>
        <linearGradient x1="69.6608581%" y1="-81.6416894%" x2="23.4778607%" y2="134.621935%" id="linearGradient-1">
            <stop stop-color="#FFFFFF" stop-opacity="0" offset="0%"></stop>
            <stop stop-color="#000000" offset="100%"></stop>
        </linearGradient>
        <linearGradient x1="50.0042145%" y1="-42.2343324%" x2="50.0042145%" y2="169.00545%" id="linearGradient-2">
            <stop stop-color="#FFFFFF" stop-opacity="0" offset="0%"></stop>
            <stop stop-color="#000000" offset="100%"></stop>
        </linearGradient>
        <linearGradient x1="16.6414141%" y1="49.0292393%" x2="157.070707%" y2="55.8144408%" id="linearGradient-3">
            <stop stop-color="#FFFFFF" stop-opacity="0" offset="0%"></stop>
            <stop stop-color="#000000" offset="100%"></stop>
        </linearGradient>
        <linearGradient x1="69.6608581%" y1="-81.6246594%" x2="23.4778607%" y2="134.638965%" id="linearGradient-4">
            <stop stop-color="#FFFFFF" stop-opacity="0" offset="0%"></stop>
            <stop stop-color="#000000" offset="100%"></stop>
        </linearGradient>
        <linearGradient x1="50.0042145%" y1="-42.2173025%" x2="50.0042145%" y2="169.02248%" id="linearGradient-5">
            <stop stop-color="#FFFFFF" stop-opacity="0" offset="0%"></stop>
            <stop stop-color="#000000" offset="100%"></stop>
        </linearGradient>
    </defs>
    <g id="Welcome" stroke="none" stroke-width="1" fill="none" fill-rule="evenodd">
        <g id="Software" transform="translate(-314.000000, -548.000000)">
            <g id="Group-14" transform="translate(215.000000, 277.000000)">
                <g id="tolid" transform="translate(0.000000, 47.000000)">
                    <g id="Group-2" transform="translate(99.000000, 224.000000)">
                        <path d="M56.5354203,46.1726063 L29.5364111,46.1726063 C26.9210477,46.1718921 24.5593471,44.6559566 23.5376909,42.3221295 L14.9544665,22.7276861 C14.6011648,21.9044038 14.6948379,20.9645307 15.2041935,20.2220401 C15.7135491,19.4795494 16.5714423,19.0323187 17.4912862,19.0297492 L68.5662399,19.0297492 C69.4860838,19.0323187 70.343977,19.4795494 70.8533326,20.2220401 C71.3626882,20.9645307 71.4563613,21.9044038 71.1030595,22.7276861 L62.5198351,42.3221295 C61.5002161,44.6513244 59.1455813,46.1663375 56.5354203,46.1726063 Z"
                              id="Path" fill="#DB5753"></path>
                        <path d="M56.5354203,46.1726063 L29.5364111,46.1726063 C26.9210477,46.1718921 24.5593471,44.6559566 23.5376909,42.3221295 L14.9544665,22.7276861 C14.6011648,21.9044038 14.6948379,20.9645307 15.2041935,20.2220401 C15.7135491,19.4795494 16.5714423,19.0323187 17.4912862,19.0297492 L68.5662399,19.0297492 C69.4860838,19.0323187 70.343977,19.4795494 70.8533326,20.2220401 C71.3626882,20.9645307 71.4563613,21.9044038 71.1030595,22.7276861 L62.5198351,42.3221295 C61.5002161,44.6513244 59.1455813,46.1663375 56.5354203,46.1726063 Z"
                              id="Path" fill="url(#linearGradient-1)" opacity="0.49" style="mix-blend-mode: multiply;"></path>
                        <path d="M42.1306519,46.1726063 L15.1364111,46.1726063 C12.5210477,46.1718921 10.1593471,44.6559566 9.13769095,42.3221295 L0.554466541,22.7276861 C0.201164815,21.9044038 0.294837915,20.9645307 0.80419349,20.2220401 C1.31354907,19.4795494 2.17144232,19.0323187 3.0912862,19.0297492 L54.1662399,19.0297492 C55.0860838,19.0323187 55.943977,19.4795494 56.4533326,20.2220401 C56.9626882,20.9645307 57.0563613,21.9044038 56.7030595,22.7276861 L48.1198351,42.3221295 C47.099536,44.652867 44.7425474,46.1681871 42.1306519,46.1726063 Z"
                              id="Path" fill="#DB5753"></path>
                        <path d="M42.1306519,46.1726063 L15.1364111,46.1726063 C12.5210477,46.1718921 10.1593471,44.6559566 9.13769095,42.3221295 L0.554466541,22.7276861 C0.201164815,21.9044038 0.294837915,20.9645307 0.80419349,20.2220401 C1.31354907,19.4795494 2.17144232,19.0323187 3.0912862,19.0297492 L54.1662399,19.0297492 C55.0860838,19.0323187 55.943977,19.4795494 56.4533326,20.2220401 C56.9626882,20.9645307 57.0563613,21.9044038 56.7030595,22.7276861 L48.1198351,42.3221295 C47.099536,44.652867 44.7425474,46.1681871 42.1306519,46.1726063 Z"
                              id="Path" fill="url(#linearGradient-2)" opacity="0.49" style="mix-blend-mode: multiply;"></path>
                        <ellipse id="Oval" fill="#AD4545" cx="10.1144773" cy="25.8154635" rx="1.54285714" ry="1.56593407"></ellipse>
                        <ellipse id="Oval" fill="#AD4545" cx="17.3144773" cy="25.8154635" rx="1.54285714" ry="1.56593407"></ellipse>
                        <ellipse id="Oval" fill="#AD4545" cx="24.5144773" cy="25.8154635" rx="1.54285714" ry="1.56593407"></ellipse>
                        <ellipse id="Oval" fill="#AD4545" cx="32.7430488" cy="25.8154635" rx="1.54285714" ry="1.56593407"></ellipse>
                        <ellipse id="Oval" fill="#AD4545" cx="39.9430488" cy="25.8154635" rx="1.54285714" ry="1.56593407"></ellipse>
                        <ellipse id="Oval" fill="#AD4545" cx="46.1144773" cy="25.8154635" rx="1.54285714" ry="1.56593407"></ellipse>
                        <ellipse id="Oval" fill="#AD4545" cx="14.228763" cy="32.0791997" rx="1.54285714" ry="1.56593407"></ellipse>
                        <ellipse id="Oval" fill="#AD4545" cx="20.4001916" cy="32.0791997" rx="1.54285714" ry="1.56593407"></ellipse>
                        <ellipse id="Oval" fill="#AD4545" cx="28.628763" cy="32.0791997" rx="1.54285714" ry="1.56593407"></ellipse>
                        <ellipse id="Oval" fill="#AD4545" cx="35.828763" cy="32.0791997" rx="1.54285714" ry="1.56593407"></ellipse>
                        <ellipse id="Oval" fill="#AD4545" cx="43.028763" cy="32.0791997" rx="1.54285714" ry="1.56593407"></ellipse>
                        <ellipse id="Oval" fill="#AD4545" cx="17.3144773" cy="38.342936" rx="1.54285714" ry="1.56593407"></ellipse>
                        <ellipse id="Oval" fill="#AD4545" cx="24.5144773" cy="38.342936" rx="1.54285714" ry="1.56593407"></ellipse>
                        <ellipse id="Oval" fill="#AD4545" cx="32.7430488" cy="38.342936" rx="1.54285714" ry="1.56593407"></ellipse>
                        <ellipse id="Oval" fill="#AD4545" cx="39.9430488" cy="38.342936" rx="1.54285714" ry="1.56593407"></ellipse>
                        <path d="M29.0588929,0.23854664 L25.0942176,0.23854664 C21.0910324,0.243682652 17.8441962,3.49499609 17.828763,7.51402006 L17.828763,21.257624 C17.828763,22.3334467 18.6974469,23.2055734 19.7690228,23.2055734 C20.8405987,23.2055734 21.7092825,22.3334467 21.7092825,21.257624 L21.7092825,7.51402006 C21.7118578,5.63823509 23.2258373,4.1182554 25.0942176,4.11566989 L29.0588929,4.11566989 C29.9594916,4.11192763 30.8245499,4.46816444 31.4631267,5.10574945 C32.1017035,5.74333446 32.4612948,6.60984527 32.4625293,7.51402006 L32.4625293,19.2486546 L36.3430488,19.2486546 L36.3430488,7.51402006 C36.3275875,3.48766966 33.0693756,0.233341423 29.0588929,0.23854664 Z"
                              id="Path" fill="#94AAD6"></path>
                        <path d="M29.0588929,0.23854664 L25.0942176,0.23854664 C21.0910324,0.243682652 17.8441962,3.49499609 17.828763,7.51402006 L17.828763,21.257624 C17.828763,22.3334467 18.6974469,23.2055734 19.7690228,23.2055734 C20.8405987,23.2055734 21.7092825,22.3334467 21.7092825,21.257624 L21.7092825,7.51402006 C21.7118578,5.63823509 23.2258373,4.1182554 25.0942176,4.11566989 L29.0588929,4.11566989 C29.9594916,4.11192763 30.8245499,4.46816444 31.4631267,5.10574945 C32.1017035,5.74333446 32.4612948,6.60984527 32.4625293,7.51402006 L32.4625293,19.2486546 L36.3430488,19.2486546 L36.3430488,7.51402006 C36.3275875,3.48766966 33.0693756,0.233341423 29.0588929,0.23854664 Z"
                              id="Path" fill="url(#linearGradient-3)" opacity="0.49" style="mix-blend-mode: color-burn;"></path>
                        <path d="M43.4665692,0.238540405 L39.4865129,0.238540405 C35.4845655,0.253980171 32.2441652,3.50229441 32.228763,7.51401569 L32.228763,21.2576232 C32.2287629,21.9535587 32.5991355,22.5966297 33.2003649,22.9445975 C33.8015944,23.2925653 34.5423397,23.2925653 35.1435691,22.9445975 C35.7447986,22.5966297 36.1151711,21.9535587 36.115171,21.2576232 L36.115171,7.51401569 C36.1177502,5.63823024 37.6340271,4.11825017 39.5052426,4.11566466 L43.4665692,4.11566466 C45.3377847,4.11825017 46.8540616,5.63823024 46.8566408,7.51401569 L46.8566408,19.2486533 L50.7430488,19.2486533 L50.7430488,7.51401569 C50.7275921,3.49499069 47.4758291,0.243676418 43.4665692,0.238540405 Z"
                              id="Path" fill="#A9C2EA"></path>
                        <path d="M56.5354203,70.1835954 L29.5364111,70.1835954 C26.9210477,70.1828811 24.5593471,68.6669456 23.5376909,66.3331185 L14.9544665,46.7386751 C14.6011648,45.9153928 14.6948379,44.9755197 15.2041935,44.2330291 C15.7135491,43.4905385 16.5714423,43.0433077 17.4912862,43.0407382 L68.5662399,43.0407382 C69.4860838,43.0433077 70.343977,43.4905385 70.8533326,44.2330291 C71.3626882,44.9755197 71.4563613,45.9153928 71.1030595,46.7386751 L62.5198351,66.3331185 C61.5002161,68.6623134 59.1455813,70.1773265 56.5354203,70.1835954 Z"
                              id="Path" fill="#DB5753"></path>
                        <path d="M56.5354203,70.1835954 L29.5364111,70.1835954 C26.9210477,70.1828811 24.5593471,68.6669456 23.5376909,66.3331185 L14.9544665,46.7386751 C14.6011648,45.9153928 14.6948379,44.9755197 15.2041935,44.2330291 C15.7135491,43.4905385 16.5714423,43.0433077 17.4912862,43.0407382 L68.5662399,43.0407382 C69.4860838,43.0433077 70.343977,43.4905385 70.8533326,44.2330291 C71.3626882,44.9755197 71.4563613,45.9153928 71.1030595,46.7386751 L62.5198351,66.3331185 C61.5002161,68.6623134 59.1455813,70.1773265 56.5354203,70.1835954 Z"
                              id="Path" fill="url(#linearGradient-4)" opacity="0.49" style="mix-blend-mode: multiply;"></path>
                        <path d="M42.1306519,70.1835954 L15.1364111,70.1835954 C12.5210477,70.1828811 10.1593471,68.6669456 9.13769095,66.3331185 L0.554466541,46.7386751 C0.201164815,45.9153928 0.294837915,44.9755197 0.80419349,44.2330291 C1.31354907,43.4905385 2.17144232,43.0433077 3.0912862,43.0407382 L54.1662399,43.0407382 C55.0860838,43.0433077 55.943977,43.4905385 56.4533326,44.2330291 C56.9626882,44.9755197 57.0563613,45.9153928 56.7030595,46.7386751 L48.1198351,66.3331185 C47.099536,68.663856 44.7425474,70.1791762 42.1306519,70.1835954 Z"
                              id="Path" fill="#DB5753"></path>
                        <path d="M42.1306519,70.1835954 L15.1364111,70.1835954 C12.5210477,70.1828811 10.1593471,68.6669456 9.13769095,66.3331185 L0.554466541,46.7386751 C0.201164815,45.9153928 0.294837915,44.9755197 0.80419349,44.2330291 C1.31354907,43.4905385 2.17144232,43.0433077 3.0912862,43.0407382 L54.1662399,43.0407382 C55.0860838,43.0433077 55.943977,43.4905385 56.4533326,44.2330291 C56.9626882,44.9755197 57.0563613,45.9153928 56.7030595,46.7386751 L48.1198351,66.3331185 C47.099536,68.663856 44.7425474,70.1791762 42.1306519,70.1835954 Z"
                              id="Path" fill="url(#linearGradient-5)" opacity="0.49" style="mix-blend-mode: multiply;"></path>
                        <ellipse id="Oval" fill="#AD4545" cx="10.1144773" cy="50.8704085" rx="1.54285714" ry="1.56593407"></ellipse>
                        <ellipse id="Oval" fill="#AD4545" cx="17.3144773" cy="50.8704085" rx="1.54285714" ry="1.56593407"></ellipse>
                        <ellipse id="Oval" fill="#AD4545" cx="24.5144773" cy="50.8704085" rx="1.54285714" ry="1.56593407"></ellipse>
                        <ellipse id="Oval" fill="#AD4545" cx="32.7430488" cy="50.8704085" rx="1.54285714" ry="1.56593407"></ellipse>
                        <ellipse id="Oval" fill="#AD4545" cx="39.9430488" cy="50.8704085" rx="1.54285714" ry="1.56593407"></ellipse>
                        <ellipse id="Oval" fill="#AD4545" cx="46.1144773" cy="50.8704085" rx="1.54285714" ry="1.56593407"></ellipse>
                        <ellipse id="Oval" fill="#AD4545" cx="14.228763" cy="57.1341448" rx="1.54285714" ry="1.56593407"></ellipse>
                        <ellipse id="Oval" fill="#AD4545" cx="20.4001916" cy="57.1341448" rx="1.54285714" ry="1.56593407"></ellipse>
                        <ellipse id="Oval" fill="#AD4545" cx="28.628763" cy="57.1341448" rx="1.54285714" ry="1.56593407"></ellipse>
                        <ellipse id="Oval" fill="#AD4545" cx="35.828763" cy="57.1341448" rx="1.54285714" ry="1.56593407"></ellipse>
                        <ellipse id="Oval" fill="#AD4545" cx="43.028763" cy="57.1341448" rx="1.54285714" ry="1.56593407"></ellipse>
                        <ellipse id="Oval" fill="#AD4545" cx="17.3144773" cy="63.3978811" rx="1.54285714" ry="1.56593407"></ellipse>
                        <ellipse id="Oval" fill="#AD4545" cx="24.5144773" cy="63.3978811" rx="1.54285714" ry="1.56593407"></ellipse>
                        <ellipse id="Oval" fill="#AD4545" cx="32.7430488" cy="63.3978811" rx="1.54285714" ry="1.56593407"></ellipse>
                        <ellipse id="Oval" fill="#AD4545" cx="39.9430488" cy="63.3978811" rx="1.54285714" ry="1.56593407"></ellipse>
                        <path d="M56.5354203,94.1945844 L29.5364111,94.1945844 C26.9210477,94.1938701 24.5593471,92.6779346 23.5376909,90.3441075 L14.9544665,70.7496642 C14.6011648,69.9263818 14.6948379,68.9865087 15.2041935,68.2440181 C15.7135491,67.5015275 16.5714423,67.0542967 17.4912862,67.0517272 L68.5662399,67.0517272 C69.4860838,67.0542967 70.343977,67.5015275 70.8533326,68.2440181 C71.3626882,68.9865087 71.4563613,69.9263818 71.1030595,70.7496642 L62.5198351,90.3441075 C61.5002161,92.6733024 59.1455813,94.1883155 56.5354203,94.1945844 Z"
                              id="Path" fill="#DB5753"></path>
                        <path d="M56.5354203,94.1945844 L29.5364111,94.1945844 C26.9210477,94.1938701 24.5593471,92.6779346 23.5376909,90.3441075 L14.9544665,70.7496642 C14.6011648,69.9263818 14.6948379,68.9865087 15.2041935,68.2440181 C15.7135491,67.5015275 16.5714423,67.0542967 17.4912862,67.0517272 L68.5662399,67.0517272 C69.4860838,67.0542967 70.343977,67.5015275 70.8533326,68.2440181 C71.3626882,68.9865087 71.4563613,69.9263818 71.1030595,70.7496642 L62.5198351,90.3441075 C61.5002161,92.6733024 59.1455813,94.1883155 56.5354203,94.1945844 Z"
                              id="Path" fill="url(#linearGradient-4)" opacity="0.49" style="mix-blend-mode: multiply;"></path>
                        <path d="M42.1306519,94.1945844 L15.1364111,94.1945844 C12.5210477,94.1938701 10.1593471,92.6779346 9.13769095,90.3441075 L0.554466541,70.7496642 C0.201164815,69.9263818 0.294837915,68.9865087 0.80419349,68.2440181 C1.31354907,67.5015275 2.17144232,67.0542967 3.0912862,67.0517272 L54.1662399,67.0517272 C55.0860838,67.0542967 55.943977,67.5015275 56.4533326,68.2440181 C56.9626882,68.9865087 57.0563613,69.9263818 56.7030595,70.7496642 L48.1198351,90.3441075 C47.099536,92.674845 44.7425474,94.1901652 42.1306519,94.1945844 Z"
                              id="Path" fill="#DB5753"></path>
                        <path d="M42.1306519,94.1945844 L15.1364111,94.1945844 C12.5210477,94.1938701 10.1593471,92.6779346 9.13769095,90.3441075 L0.554466541,70.7496642 C0.201164815,69.9263818 0.294837915,68.9865087 0.80419349,68.2440181 C1.31354907,67.5015275 2.17144232,67.0542967 3.0912862,67.0517272 L54.1662399,67.0517272 C55.0860838,67.0542967 55.943977,67.5015275 56.4533326,68.2440181 C56.9626882,68.9865087 57.0563613,69.9263818 56.7030595,70.7496642 L48.1198351,90.3441075 C47.099536,92.674845 44.7425474,94.1901652 42.1306519,94.1945844 Z"
                              id="Path" fill="url(#linearGradient-5)" opacity="0.49" style="mix-blend-mode: multiply;"></path>
                        <ellipse id="Oval" fill="#AD4545" cx="10.1144773" cy="74.8813975" rx="1.54285714" ry="1.56593407"></ellipse>
                        <ellipse id="Oval" fill="#AD4545" cx="17.3144773" cy="74.8813975" rx="1.54285714" ry="1.56593407"></ellipse>
                        <ellipse id="Oval" fill="#AD4545" cx="24.5144773" cy="74.8813975" rx="1.54285714" ry="1.56593407"></ellipse>
                        <ellipse id="Oval" fill="#AD4545" cx="32.7430488" cy="74.8813975" rx="1.54285714" ry="1.56593407"></ellipse>
                        <ellipse id="Oval" fill="#AD4545" cx="39.9430488" cy="74.8813975" rx="1.54285714" ry="1.56593407"></ellipse>
                        <ellipse id="Oval" fill="#AD4545" cx="46.1144773" cy="74.8813975" rx="1.54285714" ry="1.56593407"></ellipse>
                        <ellipse id="Oval" fill="#AD4545" cx="14.228763" cy="81.1451338" rx="1.54285714" ry="1.56593407"></ellipse>
                        <ellipse id="Oval" fill="#AD4545" cx="20.4001916" cy="81.1451338" rx="1.54285714" ry="1.56593407"></ellipse>
                        <ellipse id="Oval" fill="#AD4545" cx="28.628763" cy="81.1451338" rx="1.54285714" ry="1.56593407"></ellipse>
                        <ellipse id="Oval" fill="#AD4545" cx="35.828763" cy="81.1451338" rx="1.54285714" ry="1.56593407"></ellipse>
                        <ellipse id="Oval" fill="#AD4545" cx="43.028763" cy="81.1451338" rx="1.54285714" ry="1.56593407"></ellipse>
                        <ellipse id="Oval" fill="#AD4545" cx="17.3144773" cy="87.4088701" rx="1.54285714" ry="1.56593407"></ellipse>
                        <ellipse id="Oval" fill="#AD4545" cx="24.5144773" cy="87.4088701" rx="1.54285714" ry="1.56593407"></ellipse>
                        <ellipse id="Oval" fill="#AD4545" cx="32.7430488" cy="87.4088701" rx="1.54285714" ry="1.56593407"></ellipse>
                        <ellipse id="Oval" fill="#AD4545" cx="39.9430488" cy="87.4088701" rx="1.54285714" ry="1.56593407"></ellipse>
                    </g>
                </g>
            </g>
        </g>
    </g>
</svg>