<svg width="452px" height="268px" viewBox="0 0 452 268" version="1.1" xmlns="http://www.w3.org/2000/svg">
    <g id="Welcome" stroke="none" stroke-width="1" fill="none" fill-rule="evenodd">
        <g id="Software" transform="translate(-297.000000, -1396.000000)">
            <g id="Group-36" transform="translate(91.000000, 1337.000000)">
                <g id="Group-23" transform="translate(206.000000, 59.000000)">
                    <rect id="Rectangle" fill="#EBF2F7" x="0" y="0" width="452" height="268" rx="8"></rect>
                    <path d="M288.515625,80 C288.234374,80 288.014324,79.9062509 287.855469,79.71875 C287.696614,79.5312491 287.617187,79.2916681 287.617187,79 L287.617187,78.9140625 C287.617187,78.617186 287.696614,78.3750009 287.855469,78.1875 C288.014324,77.9999991 288.234374,77.90625 288.515625,77.90625 L288.789062,77.90625 C289.320315,77.90625 289.701822,77.7994802 289.933594,77.5859375 C290.165366,77.3723948 290.28125,77.0260441 290.28125,76.546875 L290.289062,74.3203125 L292.351562,74.3203125 L292.351562,76.578125 C292.351562,76.8229179 292.373698,77.0299471 292.417969,77.1992188 C292.46224,77.3684904 292.528645,77.5052078 292.617187,77.609375 C292.70573,77.7135422 292.815104,77.7890623 292.945312,77.8359375 C293.075521,77.8828127 293.234374,77.90625 293.421875,77.90625 C293.593751,77.90625 293.740885,77.8854169 293.863281,77.84375 C293.985678,77.8020831 294.088541,77.7304693 294.171875,77.6289062 C294.255209,77.5273432 294.316406,77.39323 294.355469,77.2265625 C294.394531,77.059895 294.414062,76.8515637 294.414062,76.6015625 L294.40625,74.328125 L296.460937,74.328125 L296.460937,76.609375 C296.466146,77.0781273 296.557291,77.4114573 296.734375,77.609375 C296.911459,77.8072927 297.197915,77.90625 297.59375,77.90625 C297.703126,77.90625 297.799479,77.8945314 297.882812,77.8710938 C297.966146,77.8476561 298.042968,77.8059899 298.113281,77.7460938 C298.183594,77.6861976 298.240885,77.6067713 298.285156,77.5078125 C298.329427,77.4088537 298.363281,77.285157 298.386719,77.1367188 C298.410156,76.9882805 298.421875,76.8151052 298.421875,76.6171875 L298.421875,73.984375 L300.445312,73.984375 L300.445312,76.6796875 C300.445312,77.382816 300.342449,77.9817684 300.136719,78.4765625 C299.930989,78.9713566 299.618492,79.348957 299.199219,79.609375 C298.779946,79.869793 298.265628,80 297.65625,80 C296.64062,80 295.89844,79.6796907 295.429687,79.0390625 C295.226561,79.3619808 294.960939,79.6028638 294.632812,79.7617188 C294.304686,79.9205737 293.924481,80 293.492187,80 C292.528641,80 291.828127,79.6875031 291.390625,79.0625 C290.864581,79.6875031 289.994798,80 288.78125,80 L288.515625,80 Z M284.257812,82.6171875 C284.257812,82.3046859 284.367186,82.0377615 284.585937,81.8164062 C284.804689,81.595051 285.070311,81.484375 285.382812,81.484375 C285.539063,81.484375 285.684895,81.5130205 285.820312,81.5703125 C285.95573,81.6276045 286.078124,81.7096349 286.1875,81.8164062 C286.296876,81.9231776 286.378906,82.0442702 286.433594,82.1796875 C286.488282,82.3151048 286.515625,82.4583326 286.515625,82.609375 C286.515625,82.7708341 286.488282,82.9192702 286.433594,83.0546875 C286.378906,83.1901048 286.296876,83.3098953 286.1875,83.4140625 C286.114583,83.4869795 286.036459,83.5481768 285.953125,83.5976562 C285.869791,83.6471357 285.78125,83.6848957 285.6875,83.7109375 C285.59375,83.7369793 285.494792,83.75 285.390625,83.75 C285.234374,83.75 285.088542,83.7213545 284.953125,83.6640625 C284.817708,83.6067705 284.695313,83.5247401 284.585937,83.4179688 C284.476562,83.3111974 284.394532,83.1901048 284.339844,83.0546875 C284.285156,82.9192702 284.257812,82.7734383 284.257812,82.6171875 Z M282.054687,83.4140625 C281.835936,83.1953114 281.726562,82.9296891 281.726562,82.6171875 C281.726562,82.3046859 281.835936,82.0377615 282.054687,81.8164062 C282.273439,81.595051 282.539061,81.484375 282.851562,81.484375 C282.95573,81.484375 283.055989,81.4973957 283.152344,81.5234375 C283.248698,81.5494793 283.338541,81.5872393 283.421875,81.6367188 C283.505209,81.6861982 283.583333,81.7473955 283.65625,81.8203125 C283.765626,81.9244797 283.847656,82.0442702 283.902344,82.1796875 C283.957032,82.3151048 283.984375,82.4583326 283.984375,82.609375 C283.984375,82.6458335 283.983073,82.6783853 283.980469,82.7070312 C283.977865,82.7356772 283.973958,82.7656248 283.96875,82.796875 C283.963542,82.8281252 283.958333,82.8580728 283.953125,82.8867188 C283.947917,82.9153647 283.940104,82.9427082 283.929687,82.96875 C283.919271,82.9947918 283.908854,83.0221353 283.898437,83.0507812 C283.888021,83.0794272 283.876302,83.1067707 283.863281,83.1328125 C283.85026,83.1588543 283.835938,83.1835936 283.820312,83.2070312 L283.773437,83.2773438 C283.757812,83.3007814 283.739583,83.3242186 283.71875,83.3476562 C283.697917,83.3710939 283.677083,83.3932291 283.65625,83.4140625 C283.432291,83.638022 283.166668,83.75 282.859375,83.75 C282.541665,83.75 282.273439,83.638022 282.054687,83.4140625 Z M288.59375,80 L288.429687,80 C287.85156,80 287.330731,79.9166675 286.867187,79.75 C286.403644,79.5833325 286.007814,79.3307309 285.679687,78.9921875 C285.023434,79.6640659 284.104173,80 282.921875,80 L281.664062,80 C281.476562,80 281.313803,79.9557296 281.175781,79.8671875 C281.03776,79.7786454 280.934896,79.660157 280.867187,79.5117188 C280.799479,79.3632805 280.765625,79.1927093 280.765625,79 L280.765625,78.9140625 C280.765625,78.617186 280.845051,78.3750009 281.003906,78.1875 C281.162761,77.9999991 281.382811,77.90625 281.664062,77.90625 L282.960937,77.90625 C283.55469,77.90625 283.979165,77.8007823 284.234375,77.5898438 C284.489585,77.3789052 284.617187,77.0442731 284.617187,76.5859375 L284.617187,74.2890625 L286.679687,74.2890625 L286.679687,76.5859375 C286.679687,77.0390648 286.813801,77.3723948 287.082031,77.5859375 C287.350262,77.7994802 287.796872,77.90625 288.421875,77.90625 L288.59375,77.90625 C288.875001,77.90625 289.095051,77.9999991 289.253906,78.1875 C289.412761,78.3750009 289.492187,78.617186 289.492187,78.9140625 L289.492187,79 C289.492187,79.1927093 289.458334,79.3632805 289.390625,79.5117188 C289.322916,79.660157 289.220053,79.7786454 289.082031,79.8671875 C288.94401,79.9557296 288.781251,80 288.59375,80 Z M281.75,80 L281.28125,80 C280.140619,80 279.341148,79.6927114 278.882812,79.078125 C278.674478,79.3854182 278.41146,79.6171867 278.09375,79.7734375 C277.77604,79.9296883 277.414065,80.0052084 277.007812,80 C276.554685,80 276.151043,79.9192716 275.796875,79.7578125 C275.442707,79.5963534 275.151043,79.3593766 274.921875,79.046875 C274.505206,79.6822948 273.843755,80 272.9375,80 C271.963537,80 271.260419,79.6875031 270.828125,79.0625 C270.333331,79.6875031 269.50261,80 268.335937,80 L267.828125,80 C267.640624,80 267.477865,79.9557296 267.339844,79.8671875 C267.201822,79.7786454 267.098959,79.660157 267.03125,79.5117188 C266.963541,79.3632805 266.929687,79.1927093 266.929687,79 L266.929687,78.9140625 C266.929687,78.617186 267.009114,78.3750009 267.167969,78.1875 C267.326824,77.9999991 267.546874,77.90625 267.828125,77.90625 L268.320312,77.90625 C268.86719,77.90625 269.253905,77.813803 269.480469,77.6289062 C269.707032,77.4440095 269.817708,77.1510437 269.8125,76.75 L269.789062,74.3125 L271.890625,74.3125 L271.882812,76.6875 C271.882812,77.1302105 271.967447,77.4440095 272.136719,77.6289062 C272.30599,77.813803 272.585936,77.90625 272.976562,77.90625 C273.278647,77.90625 273.499999,77.8164071 273.640625,77.6367188 C273.781251,77.4570304 273.851562,77.1380231 273.851562,76.6796875 L273.851562,74.3125 L275.921875,74.3125 L275.929687,76.6640625 C275.934896,77.1171898 276.022135,77.4374991 276.191406,77.625 C276.360678,77.8125009 276.635415,77.90625 277.015625,77.90625 C277.130209,77.90625 277.229166,77.888021 277.3125,77.8515625 C277.395834,77.815104 277.470052,77.7513025 277.535156,77.6601562 C277.600261,77.56901 277.649739,77.4427091 277.683594,77.28125 C277.717448,77.1197909 277.734375,76.919272 277.734375,76.6796875 L277.742187,74.2890625 L279.796875,74.2890625 L279.796875,76.65625 C279.796875,77.0937522 279.911457,77.4114573 280.140625,77.609375 C280.369793,77.8072927 280.755206,77.90625 281.296875,77.90625 L281.75,77.90625 C282.031251,77.90625 282.251301,77.9999991 282.410156,78.1875 C282.569011,78.3750009 282.648437,78.617186 282.648437,78.9140625 L282.648437,79 C282.648437,79.2916681 282.569011,79.5312491 282.410156,79.71875 C282.251301,79.9062509 282.031251,80 281.75,80 Z M264.070312,71.59375 C264.070312,71.2812484 264.179686,71.014324 264.398437,70.7929688 C264.617189,70.5716135 264.882811,70.4609375 265.195312,70.4609375 C265.351563,70.4609375 265.497395,70.489583 265.632812,70.546875 C265.76823,70.604167 265.890624,70.6861974 266,70.7929688 C266.109376,70.8997401 266.191406,71.0208327 266.246094,71.15625 C266.300782,71.2916673 266.328125,71.4348951 266.328125,71.5859375 C266.328125,71.7473966 266.300782,71.8958327 266.246094,72.03125 C266.191406,72.1666673 266.109376,72.2864578 266,72.390625 C265.927083,72.463542 265.848959,72.5247393 265.765625,72.5742188 C265.682291,72.6236982 265.59375,72.6614582 265.5,72.6875 C265.40625,72.7135418 265.307292,72.7265625 265.203125,72.7265625 C265.046874,72.7265625 264.901042,72.697917 264.765625,72.640625 C264.630208,72.583333 264.507813,72.5013026 264.398437,72.3945312 C264.289062,72.2877599 264.207032,72.1666673 264.152344,72.03125 C264.097656,71.8958327 264.070312,71.7500008 264.070312,71.59375 Z M261.867187,72.390625 C261.648436,72.1718739 261.539062,71.9062516 261.539062,71.59375 C261.539062,71.2812484 261.648436,71.014324 261.867187,70.7929688 C262.085939,70.5716135 262.351561,70.4609375 262.664062,70.4609375 C262.76823,70.4609375 262.868489,70.4739582 262.964844,70.5 C263.061198,70.5260418 263.151041,70.5638018 263.234375,70.6132812 C263.317709,70.6627607 263.395833,70.723958 263.46875,70.796875 C263.578126,70.9010422 263.660156,71.0208327 263.714844,71.15625 C263.769532,71.2916673 263.796875,71.4348951 263.796875,71.5859375 C263.796875,71.622396 263.795573,71.6549478 263.792969,71.6835938 C263.790365,71.7122397 263.786458,71.7421873 263.78125,71.7734375 C263.776042,71.8046877 263.770833,71.8346353 263.765625,71.8632812 C263.760417,71.8919272 263.752604,71.9192707 263.742187,71.9453125 C263.731771,71.9713543 263.721354,71.9986978 263.710937,72.0273438 C263.700521,72.0559897 263.688802,72.0833332 263.675781,72.109375 C263.66276,72.1354168 263.648438,72.1601561 263.632812,72.1835938 L263.585937,72.2539062 C263.570312,72.2773439 263.552083,72.3007811 263.53125,72.3242188 C263.510417,72.3476564 263.489583,72.3697916 263.46875,72.390625 C263.244791,72.6145845 262.979168,72.7265625 262.671875,72.7265625 C262.354165,72.7265625 262.085939,72.6145845 261.867187,72.390625 Z M267.90625,80 L267.742187,80 C267.16406,80 266.643231,79.9166675 266.179687,79.75 C265.716144,79.5833325 265.320314,79.3307309 264.992187,78.9921875 C264.335934,79.6640659 263.416673,80 262.234375,80 L260.976562,80 C260.789062,80 260.626303,79.9557296 260.488281,79.8671875 C260.35026,79.7786454 260.247396,79.660157 260.179687,79.5117188 C260.111979,79.3632805 260.078125,79.1927093 260.078125,79 L260.078125,78.9140625 C260.078125,78.617186 260.157551,78.3750009 260.316406,78.1875 C260.475261,77.9999991 260.695311,77.90625 260.976562,77.90625 L262.273437,77.90625 C262.86719,77.90625 263.291665,77.8007823 263.546875,77.5898438 C263.802085,77.3789052 263.929687,77.0442731 263.929687,76.5859375 L263.929687,74.2890625 L265.992187,74.2890625 L265.992187,76.5859375 C265.992187,77.0390648 266.126301,77.3723948 266.394531,77.5859375 C266.662762,77.7994802 267.109372,77.90625 267.734375,77.90625 L267.90625,77.90625 C268.187501,77.90625 268.407551,77.9999991 268.566406,78.1875 C268.725261,78.3750009 268.804687,78.617186 268.804687,78.9140625 L268.804687,79 C268.804687,79.1927093 268.770834,79.3632805 268.703125,79.5117188 C268.635416,79.660157 268.532553,79.7786454 268.394531,79.8671875 C268.25651,79.9557296 268.093751,80 267.90625,80 Z M261.046875,80 L260.773437,80 C260.044267,80 259.486981,79.796877 259.101562,79.390625 C258.648435,79.8906275 258.010421,80.1380209 257.1875,80.1328125 C256.223954,80.1276041 255.473961,79.8671901 254.9375,79.3515625 C254.260413,78.7057259 253.9375,77.7083401 253.96875,76.359375 C253.973958,76.1249988 253.981771,75.9192717 253.992187,75.7421875 C253.174475,75.9973971 252.765625,76.8932215 252.765625,78.4296875 L252.765625,83.875 L250.78125,83.875 L250.78125,78.4609375 C250.78125,76.8723879 251.124997,75.6575563 251.8125,74.8164062 C252.500003,73.9752562 253.515618,73.5546875 254.859375,73.5546875 L257.242187,73.5546875 C258.070317,73.5546875 258.721352,73.766925 259.195312,74.1914062 C259.669273,74.6158875 259.934896,75.2265585 259.992187,76.0234375 C260.018229,76.3411474 260.023438,76.6041656 260.007812,76.8125 C260.002604,76.9010421 259.997396,76.9843746 259.992187,77.0625 L259.980469,77.2382812 C259.977865,77.2773439 259.976562,77.2994791 259.976562,77.3046875 C259.976562,77.5234386 260.029947,77.678385 260.136719,77.7695312 C260.24349,77.8606775 260.445311,77.90625 260.742187,77.90625 L261.046875,77.90625 C261.328126,77.90625 261.548176,77.9999991 261.707031,78.1875 C261.865886,78.3750009 261.945312,78.617186 261.945312,78.9140625 L261.945312,79 C261.945312,79.2916681 261.865886,79.5312491 261.707031,79.71875 C261.548176,79.9062509 261.328126,80 261.046875,80 Z M256.890625,75.515625 C256.499998,75.515625 256.197918,75.5208333 255.984375,75.53125 C255.979167,75.5937503 255.976562,75.661458 255.976562,75.734375 L255.976562,76.5625 C255.981771,77.2708369 256.093749,77.7343739 256.3125,77.953125 C256.510418,78.156251 256.796873,78.2578125 257.171875,78.2578125 C257.479168,78.2578125 257.709635,78.1250013 257.863281,77.859375 C258.016928,77.5937487 258.083333,77.1328158 258.0625,76.4765625 C258.052083,76.1380191 257.958334,75.8932299 257.78125,75.7421875 C257.604166,75.5911451 257.307294,75.515625 256.890625,75.515625 Z M241.992187,85.5703125 C241.773436,85.3515614 241.664062,85.0859391 241.664062,84.7734375 C241.664062,84.4609359 241.776041,84.1953136 242,83.9765625 C242.104167,83.867187 242.223958,83.7838545 242.359375,83.7265625 C242.494792,83.6692705 242.63802,83.640625 242.789062,83.640625 C243.106772,83.640625 243.376301,83.751301 243.597656,83.9726562 C243.819012,84.1940115 243.929687,84.4583318 243.929687,84.765625 C243.929687,85.0833349 243.819012,85.3528635 243.597656,85.5742188 C243.376301,85.795574 243.111981,85.90625 242.804687,85.90625 C242.486978,85.90625 242.216147,85.794272 241.992187,85.5703125 Z M243.25,83.15625 C243.031249,82.9322905 242.921875,82.6640641 242.921875,82.3515625 C242.921875,82.0390609 243.031249,81.7721365 243.25,81.5507812 C243.468751,81.329426 243.734373,81.21875 244.046875,81.21875 C244.109375,81.21875 244.170573,81.2239583 244.230469,81.234375 C244.290365,81.2447917 244.347656,81.2591145 244.402344,81.2773438 C244.457032,81.295573 244.510416,81.3177082 244.5625,81.34375 C244.614584,81.3697918 244.665364,81.3997394 244.714844,81.4335938 C244.764323,81.4674481 244.809896,81.5078123 244.851562,81.5546875 C244.960938,81.6588547 245.042968,81.7786452 245.097656,81.9140625 C245.152344,82.0494798 245.179687,82.1927076 245.179687,82.34375 C245.179687,82.6614599 245.070314,82.9309885 244.851562,83.1523438 C244.632811,83.373699 244.367189,83.484375 244.054687,83.484375 C243.736978,83.484375 243.468751,83.3750011 243.25,83.15625 Z M240.71875,83.15625 C240.499999,82.9322905 240.390625,82.6640641 240.390625,82.3515625 C240.390625,82.0390609 240.499999,81.7721365 240.71875,81.5507812 C240.937501,81.329426 241.203123,81.21875 241.515625,81.21875 C241.619792,81.21875 241.720052,81.2317707 241.816406,81.2578125 C241.912761,81.2838543 242.002604,81.3216143 242.085937,81.3710938 C242.169271,81.4205732 242.247395,81.4817705 242.320312,81.5546875 C242.429688,81.6588547 242.511718,81.7786452 242.566406,81.9140625 C242.621094,82.0494798 242.648437,82.1927076 242.648437,82.34375 C242.648437,82.6614599 242.539064,82.9309885 242.320312,83.1523438 C242.101561,83.373699 241.835939,83.484375 241.523437,83.484375 C241.205728,83.484375 240.937501,83.3750011 240.71875,83.15625 Z M240.359375,80 C240.078124,80 239.858074,79.9062509 239.699219,79.71875 C239.540364,79.5312491 239.460937,79.2916681 239.460937,79 L239.460937,78.9140625 C239.460937,78.7213532 239.494791,78.5494799 239.5625,78.3984375 C239.630209,78.2473951 239.733072,78.1276046 239.871094,78.0390625 C240.009115,77.9505204 240.171874,77.90625 240.359375,77.90625 L242.179687,77.90625 C242.559898,77.90625 242.837239,77.8020844 243.011719,77.59375 C243.186199,77.3854156 243.273437,77.0286484 243.273437,76.5234375 L243.273437,73.9765625 L245.289062,73.9765625 L245.289062,76.484375 C245.289062,77.614589 245.035159,78.4830699 244.527344,79.0898438 C244.019529,79.6966176 243.276047,80 242.296875,80 L240.359375,80 Z M240.429687,80 L240.304687,80 C239.809893,80 239.38021,79.9036468 239.015625,79.7109375 L239.015625,79.8203125 C239.015625,81.1432358 238.627608,82.1458299 237.851562,82.828125 C237.075517,83.5104201 235.947924,83.8489584 234.46875,83.84375 L233.351562,83.8438092 L233.351562,81.75 L234.4375,81.75 C235.317713,81.75 235.955727,81.5937516 236.351562,81.28125 C236.747398,80.9687484 236.945312,80.4869824 236.945312,79.8359375 L236.945312,74.625 L239.007812,74.609375 L239.007812,76.984375 C239.018229,77.1979177 239.063802,77.369791 239.144531,77.5 C239.225261,77.630209 239.360676,77.7304684 239.550781,77.8007812 C239.740886,77.8710941 239.992186,77.90625 240.304687,77.90625 L240.429687,77.90625 C240.710939,77.90625 240.930989,77.9999991 241.089844,78.1875 C241.248699,78.3750009 241.328125,78.617186 241.328125,78.9140625 L241.328125,79 C241.328125,79.2916681 241.248699,79.5312491 241.089844,79.71875 C240.930989,79.9062509 240.710939,80 240.429687,80 Z M221.632812,80 C221.351561,80 221.131511,79.9062509 220.972656,79.71875 C220.813801,79.5312491 220.734375,79.2916681 220.734375,79 L220.734375,78.9140625 C220.734375,78.617186 220.813801,78.3750009 220.972656,78.1875 C221.131511,77.9999991 221.351561,77.90625 221.632812,77.90625 L221.90625,77.90625 C222.437503,77.90625 222.819009,77.7994802 223.050781,77.5859375 C223.282553,77.3723948 223.398437,77.0260441 223.398437,76.546875 L223.40625,74.3203125 L225.46875,74.3203125 L225.46875,76.578125 C225.46875,76.8229179 225.490885,77.0299471 225.535156,77.1992188 C225.579427,77.3684904 225.645833,77.5052078 225.734375,77.609375 C225.822917,77.7135422 225.932291,77.7890623 226.0625,77.8359375 C226.192709,77.8828127 226.351562,77.90625 226.539062,77.90625 C226.710938,77.90625 226.858072,77.8854169 226.980469,77.84375 C227.102865,77.8020831 227.205729,77.7304693 227.289062,77.6289062 C227.372396,77.5273432 227.433594,77.39323 227.472656,77.2265625 C227.511719,77.059895 227.53125,76.8515637 227.53125,76.6015625 L227.523437,74.328125 L229.578125,74.328125 L229.578125,76.609375 C229.583333,77.0781273 229.674478,77.4114573 229.851562,77.609375 C230.028647,77.8072927 230.315102,77.90625 230.710937,77.90625 C230.820313,77.90625 230.916666,77.8945314 231,77.8710938 C231.083334,77.8476561 231.160156,77.8059899 231.230469,77.7460938 C231.300782,77.6861976 231.358073,77.6067713 231.402344,77.5078125 C231.446615,77.4088537 231.480469,77.285157 231.503906,77.1367188 C231.527344,76.9882805 231.539062,76.8151052 231.539062,76.6171875 L231.539062,73.984375 L233.5625,73.984375 L233.5625,76.6796875 C233.5625,77.382816 233.459636,77.9817684 233.253906,78.4765625 C233.048176,78.9713566 232.735679,79.348957 232.316406,79.609375 C231.897133,79.869793 231.382816,80 230.773437,80 C229.757807,80 229.015627,79.6796907 228.546875,79.0390625 C228.343749,79.3619808 228.078127,79.6028638 227.75,79.7617188 C227.421873,79.9205737 227.041669,80 226.609375,80 C225.645829,80 224.945315,79.6875031 224.507812,79.0625 C223.981768,79.6875031 223.111985,80 221.898437,80 L221.632812,80 Z M213.492187,69.6015625 C213.492187,69.4973953 213.505208,69.398438 213.53125,69.3046875 C213.557292,69.210937 213.595052,69.1210942 213.644531,69.0351562 C213.694011,68.9492183 213.755208,68.8723962 213.828125,68.8046875 C214.046876,68.580728 214.309894,68.46875 214.617187,68.46875 C214.934897,68.46875 215.204426,68.579426 215.425781,68.8007812 C215.647137,69.0221365 215.757812,69.2864568 215.757812,69.59375 C215.757812,69.9114599 215.647137,70.1809885 215.425781,70.4023438 C215.204426,70.623699 214.940106,70.734375 214.632812,70.734375 C214.315103,70.734375 214.045574,70.623699 213.824219,70.4023438 C213.602863,70.1809885 213.492187,69.9140641 213.492187,69.6015625 Z M214.75,72.0234375 C214.75,71.7109359 214.859374,71.4440115 215.078125,71.2226562 C215.296876,71.001301 215.562498,70.890625 215.875,70.890625 C216.031251,70.890625 216.177083,70.9192705 216.3125,70.9765625 C216.447917,71.0338545 216.570312,71.1158849 216.679687,71.2226562 C216.789063,71.3294276 216.871093,71.4505202 216.925781,71.5859375 C216.980469,71.7213548 217.007812,71.8645826 217.007812,72.015625 C217.007812,72.1770841 216.980469,72.3255202 216.925781,72.4609375 C216.871093,72.5963548 216.789063,72.7161453 216.679687,72.8203125 C216.60677,72.8932295 216.528646,72.9544268 216.445312,73.0039062 C216.361979,73.0533857 216.273438,73.0911457 216.179687,73.1171875 C216.085937,73.1432293 215.98698,73.15625 215.882812,73.15625 C215.726562,73.15625 215.58073,73.1276045 215.445312,73.0703125 C215.309895,73.0130205 215.187501,72.9309901 215.078125,72.8242188 C214.968749,72.7174474 214.886719,72.5963548 214.832031,72.4609375 C214.777343,72.3255202 214.75,72.1796883 214.75,72.0234375 Z M212.546875,72.8203125 C212.328124,72.6015614 212.21875,72.3359391 212.21875,72.0234375 C212.21875,71.7109359 212.328124,71.4440115 212.546875,71.2226562 C212.765626,71.001301 213.031248,70.890625 213.34375,70.890625 C213.447917,70.890625 213.548177,70.9036457 213.644531,70.9296875 C213.740886,70.9557293 213.830729,70.9934893 213.914062,71.0429688 C213.997396,71.0924482 214.07552,71.1536455 214.148437,71.2265625 C214.257813,71.3307297 214.339843,71.4505202 214.394531,71.5859375 C214.449219,71.7213548 214.476562,71.8645826 214.476562,72.015625 C214.476562,72.0520835 214.47526,72.0846353 214.472656,72.1132812 C214.470052,72.1419272 214.466146,72.1718748 214.460937,72.203125 C214.455729,72.2343752 214.450521,72.2643228 214.445312,72.2929688 C214.440104,72.3216147 214.432292,72.3489582 214.421875,72.375 C214.411458,72.4010418 214.401042,72.4283853 214.390625,72.4570312 C214.380208,72.4856772 214.36849,72.5130207 214.355469,72.5390625 C214.342448,72.5651043 214.328125,72.5898436 214.3125,72.6132812 L214.265625,72.6835938 C214.25,72.7070314 214.231771,72.7304686 214.210937,72.7539062 C214.190104,72.7773439 214.169271,72.7994791 214.148437,72.8203125 C213.924478,73.044272 213.658856,73.15625 213.351562,73.15625 C213.033853,73.15625 212.765626,73.044272 212.546875,72.8203125 Z M221.710937,80 L221.164062,80 C220.153641,80 219.401044,79.6901073 218.90625,79.0703125 C218.770833,79.2786469 218.601564,79.4531243 218.398437,79.59375 C218.195311,79.7343757 217.968751,79.8372393 217.71875,79.9023438 C217.468749,79.9674482 217.195314,80 216.898437,80 C215.960933,80 215.276044,79.6953155 214.84375,79.0859375 C214.46354,79.7005239 213.864587,80.0052084 213.046875,80 C212.45833,79.9947916 211.979169,79.8802095 211.609375,79.65625 C211.541666,80.8906312 211.100264,81.8333301 210.285156,82.484375 C209.470048,83.1354199 208.322924,83.4843748 206.84375,83.53125 L206.6875,83.5390625 L206.46875,83.5390625 C204.822908,83.5390625 203.565109,83.1862014 202.695312,82.4804688 C201.825516,81.7747361 201.390625,80.7317777 201.390625,79.3515625 L201.390625,75.890625 L203.414062,75.890625 L203.414062,79.34375 C203.414062,80.0416702 203.65755,80.5638004 204.144531,80.9101562 C204.631513,81.2565121 205.411453,81.4296875 206.484375,81.4296875 L206.898437,81.4296875 C208.257819,81.4036457 209.101561,81.0234412 209.429687,80.2890625 C209.554688,80.0130195 209.617187,79.6848977 209.617187,79.3046875 L209.617187,74.3359375 L211.726562,74.3359375 L211.726562,76.6015625 C211.731771,77.0703148 211.830728,77.4049469 212.023437,77.6054688 C212.216147,77.8059906 212.531248,77.9036459 212.96875,77.8984375 C213.250001,77.8984375 213.459635,77.8020843 213.597656,77.609375 C213.735678,77.4166657 213.804687,77.0755233 213.804687,76.5859375 L213.804687,74.28125 L215.867187,74.28125 L215.875,76.6328125 C215.875,77.1015648 215.958332,77.4309886 216.125,77.6210938 C216.291667,77.8111989 216.562498,77.9036459 216.9375,77.8984375 C217.218751,77.8984375 217.428385,77.796876 217.566406,77.59375 C217.704428,77.390624 217.773437,77.0416691 217.773437,76.546875 L217.773437,74.2734375 L219.828125,74.2734375 L219.835937,76.5625 C219.841146,77.0364607 219.959634,77.3789052 220.191406,77.5898438 C220.423178,77.8007823 220.807289,77.90625 221.34375,77.90625 L221.710937,77.90625 C221.992189,77.90625 222.212239,77.9999991 222.371094,78.1875 C222.529949,78.3750009 222.609375,78.617186 222.609375,78.9140625 L222.609375,79 C222.609375,79.2916681 222.529949,79.5312491 222.371094,79.71875 C222.212239,79.9062509 221.992189,80 221.710937,80 Z M195.960937,79.609375 C195.960937,80.9947986 195.572921,82.0455693 194.796875,82.7617188 C194.020829,83.4778682 192.893237,83.8333334 191.414062,83.828125 L190.289062,83.828125 L190.289062,81.734375 L191.382812,81.734375 C192.236983,81.7395834 192.863279,81.5989598 193.261719,81.3125 C193.660158,81.0260402 193.875,80.5885446 193.90625,80 L192.804687,80 C191.914058,80 191.238284,79.7265652 190.777344,79.1796875 C190.316404,78.6328098 190.085937,77.8541717 190.085937,76.84375 C190.091146,75.8281199 190.34505,75.0481798 190.847656,74.5039062 C191.350263,73.9596327 192.07812,73.6848959 193.03125,73.6796875 C193.505211,73.6796875 193.925779,73.7513014 194.292969,73.8945312 C194.660158,74.0377611 194.966145,74.2460924 195.210937,74.5195312 C195.45573,74.7929701 195.641926,75.1289043 195.769531,75.5273438 C195.897136,75.9257832 195.960937,76.3828099 195.960937,76.8984375 L195.960937,79.609375 Z M193,75.6796875 C192.624998,75.6796875 192.356772,75.7669262 192.195312,75.9414062 C192.033853,76.1158863 191.953125,76.4140604 191.953125,76.8359375 C191.953125,77.1015638 191.984375,77.3124992 192.046875,77.46875 C192.109375,77.6250008 192.20052,77.7356768 192.320312,77.8007812 C192.440105,77.8658857 192.598957,77.8984375 192.796875,77.8984375 L193.984375,77.8984375 L193.976562,76.9453125 C193.976562,76.4817685 193.898438,76.1549489 193.742187,75.9648438 C193.585937,75.7747386 193.338543,75.6796875 193,75.6796875 Z M181.296875,85.5703125 C181.078124,85.3515614 180.96875,85.0859391 180.96875,84.7734375 C180.96875,84.4609359 181.080728,84.1953136 181.304687,83.9765625 C181.408855,83.867187 181.528645,83.7838545 181.664062,83.7265625 C181.79948,83.6692705 181.942708,83.640625 182.09375,83.640625 C182.41146,83.640625 182.680988,83.751301 182.902344,83.9726562 C183.123699,84.1940115 183.234375,84.4583318 183.234375,84.765625 C183.234375,85.0833349 183.123699,85.3528635 182.902344,85.5742188 C182.680988,85.795574 182.416668,85.90625 182.109375,85.90625 C181.791665,85.90625 181.520834,85.794272 181.296875,85.5703125 Z M182.554687,83.15625 C182.335936,82.9322905 182.226562,82.6640641 182.226562,82.3515625 C182.226562,82.0390609 182.335936,81.7721365 182.554687,81.5507812 C182.773439,81.329426 183.039061,81.21875 183.351562,81.21875 C183.414063,81.21875 183.47526,81.2239583 183.535156,81.234375 C183.595052,81.2447917 183.652343,81.2591145 183.707031,81.2773438 C183.761719,81.295573 183.815104,81.3177082 183.867187,81.34375 C183.919271,81.3697918 183.970052,81.3997394 184.019531,81.4335938 C184.069011,81.4674481 184.114583,81.5078123 184.15625,81.5546875 C184.265626,81.6588547 184.347656,81.7786452 184.402344,81.9140625 C184.457032,82.0494798 184.484375,82.1927076 184.484375,82.34375 C184.484375,82.6614599 184.375001,82.9309885 184.15625,83.1523438 C183.937499,83.373699 183.671877,83.484375 183.359375,83.484375 C183.041665,83.484375 182.773439,83.3750011 182.554687,83.15625 Z M180.023437,83.15625 C179.804686,82.9322905 179.695312,82.6640641 179.695312,82.3515625 C179.695312,82.0390609 179.804686,81.7721365 180.023437,81.5507812 C180.242189,81.329426 180.507811,81.21875 180.820312,81.21875 C180.92448,81.21875 181.024739,81.2317707 181.121094,81.2578125 C181.217448,81.2838543 181.307291,81.3216143 181.390625,81.3710938 C181.473959,81.4205732 181.552083,81.4817705 181.625,81.5546875 C181.734376,81.6588547 181.816406,81.7786452 181.871094,81.9140625 C181.925782,82.0494798 181.953125,82.1927076 181.953125,82.34375 C181.953125,82.6614599 181.843751,82.9309885 181.625,83.1523438 C181.406249,83.373699 181.140627,83.484375 180.828125,83.484375 C180.510415,83.484375 180.242189,83.3750011 180.023437,83.15625 Z M179.664062,80 C179.382811,80 179.162761,79.9062509 179.003906,79.71875 C178.845051,79.5312491 178.765625,79.2916681 178.765625,79 L178.765625,78.9140625 C178.765625,78.7213532 178.799479,78.5494799 178.867187,78.3984375 C178.934896,78.2473951 179.03776,78.1276046 179.175781,78.0390625 C179.313803,77.9505204 179.476562,77.90625 179.664062,77.90625 L181.484375,77.90625 C181.864585,77.90625 182.141926,77.8020844 182.316406,77.59375 C182.490886,77.3854156 182.578125,77.0286484 182.578125,76.5234375 L182.578125,73.9765625 L184.59375,73.9765625 L184.59375,76.484375 C184.59375,77.614589 184.339846,78.4830699 183.832031,79.0898438 C183.324216,79.6966176 182.580734,80 181.601562,80 L179.664062,80 Z M179.742187,80 L179.539062,80 C178.486974,80 177.684899,79.6927114 177.132812,79.078125 C176.585935,78.4635386 176.3125,77.5807349 176.3125,76.4296875 L176.3125,69.3203125 L178.328125,69.3203125 L178.328125,76.359375 C178.328125,76.9166695 178.427082,77.315103 178.625,77.5546875 C178.822918,77.7890637 179.135415,77.90625 179.5625,77.90625 L179.742187,77.90625 C180.023439,77.90625 180.242187,77.9999991 180.398437,78.1875 C180.559897,78.3750009 180.640625,78.617186 180.640625,78.9140625 L180.640625,79 C180.640625,79.2916681 180.561199,79.5312491 180.402344,79.71875 C180.243489,79.9062509 180.023439,80 179.742187,80 Z M162.90625,80 C162.624999,80 162.404949,79.9062509 162.246094,79.71875 C162.087239,79.5312491 162.007812,79.2916681 162.007812,79 L162.007812,78.9140625 C162.007812,78.617186 162.087239,78.3750009 162.246094,78.1875 C162.404949,77.9999991 162.624999,77.90625 162.90625,77.90625 L163.179687,77.90625 C163.71094,77.90625 164.092447,77.7994802 164.324219,77.5859375 C164.555991,77.3723948 164.671875,77.0260441 164.671875,76.546875 L164.679687,74.3203125 L166.742187,74.3203125 L166.742187,76.578125 C166.742187,76.8229179 166.764323,77.0299471 166.808594,77.1992188 C166.852865,77.3684904 166.91927,77.5052078 167.007812,77.609375 C167.096355,77.7135422 167.205729,77.7890623 167.335937,77.8359375 C167.466146,77.8828127 167.624999,77.90625 167.8125,77.90625 C167.984376,77.90625 168.13151,77.8854169 168.253906,77.84375 C168.376303,77.8020831 168.479166,77.7304693 168.5625,77.6289062 C168.645834,77.5273432 168.707031,77.39323 168.746094,77.2265625 C168.785156,77.059895 168.804687,76.8515637 168.804687,76.6015625 L168.796875,74.328125 L170.851562,74.328125 L170.851562,76.609375 C170.856771,77.0781273 170.947916,77.4114573 171.125,77.609375 C171.302084,77.8072927 171.58854,77.90625 171.984375,77.90625 C172.093751,77.90625 172.190104,77.8945314 172.273437,77.8710938 C172.356771,77.8476561 172.433593,77.8059899 172.503906,77.7460938 C172.574219,77.6861976 172.63151,77.6067713 172.675781,77.5078125 C172.720052,77.4088537 172.753906,77.285157 172.777344,77.1367188 C172.800781,76.9882805 172.8125,76.8151052 172.8125,76.6171875 L172.8125,73.984375 L174.835937,73.984375 L174.835937,76.6796875 C174.835937,77.382816 174.733074,77.9817684 174.527344,78.4765625 C174.321614,78.9713566 174.009117,79.348957 173.589844,79.609375 C173.170571,79.869793 172.656253,80 172.046875,80 C171.031245,80 170.289065,79.6796907 169.820312,79.0390625 C169.617186,79.3619808 169.351564,79.6028638 169.023437,79.7617188 C168.695311,79.9205737 168.315106,80 167.882812,80 C166.919266,80 166.218752,79.6875031 165.78125,79.0625 C165.255206,79.6875031 164.385423,80 163.171875,80 L162.90625,80 Z M156.6875,71.0859375 C156.468749,70.8671864 156.359375,70.6015641 156.359375,70.2890625 C156.359375,69.9765609 156.468749,69.7096365 156.6875,69.4882812 C156.906251,69.266926 157.171873,69.15625 157.484375,69.15625 C157.588542,69.15625 157.688802,69.1692707 157.785156,69.1953125 C157.881511,69.2213543 157.971354,69.2591143 158.054687,69.3085938 C158.138021,69.3580732 158.216145,69.4192705 158.289062,69.4921875 C158.398438,69.5963547 158.480468,69.7161452 158.535156,69.8515625 C158.589844,69.9869798 158.617187,70.1302076 158.617187,70.28125 C158.617187,70.3177085 158.615885,70.3502603 158.613281,70.3789062 C158.610677,70.4075522 158.606771,70.4374998 158.601562,70.46875 C158.596354,70.5000002 158.591146,70.5299478 158.585937,70.5585938 C158.580729,70.5872397 158.572917,70.6145832 158.5625,70.640625 C158.552083,70.6666668 158.541667,70.6940103 158.53125,70.7226562 C158.520833,70.7513022 158.509115,70.7786457 158.496094,70.8046875 C158.483073,70.8307293 158.46875,70.8554686 158.453125,70.8789062 L158.40625,70.9492188 C158.390625,70.9726564 158.372396,70.9960936 158.351562,71.0195312 C158.330729,71.0429689 158.309896,71.0651041 158.289062,71.0859375 C158.065103,71.309897 157.799481,71.421875 157.492187,71.421875 C157.174478,71.421875 156.906251,71.309897 156.6875,71.0859375 Z M162.976562,80 L162.570312,80 C161.664058,80 160.92969,79.8307309 160.367187,79.4921875 C159.804685,79.1536441 159.445313,78.6484409 159.289062,77.9765625 C157.695305,78.2473972 156.520837,78.6562473 155.765625,79.203125 C155.010413,79.7500027 154.632812,80.4270793 154.632812,81.234375 C154.627604,82.1093794 154.942705,82.7630187 155.578125,83.1953125 C156.213545,83.6276063 157.221347,83.84375 158.601562,83.84375 L162.148437,83.84375 L162.148437,85.90625 L158.507812,85.8984375 C156.408844,85.8932291 154.90365,85.4583377 153.992187,84.59375 C153.070308,83.7031205 152.617187,82.6276105 152.632812,81.3671875 C152.648438,79.9036385 153.208328,78.7200566 154.3125,77.8164062 C155.416672,76.9127559 157.023427,76.2864601 159.132812,75.9375 L157.84375,75.34375 C157.744791,75.2968748 157.647136,75.2565106 157.550781,75.2226562 C157.454427,75.1888019 157.36198,75.1601564 157.273437,75.1367188 C157.184895,75.1132811 157.097657,75.0963542 157.011719,75.0859375 C156.925781,75.0755208 156.84375,75.0703125 156.765625,75.0703125 C156.421873,75.0755209 156.119793,75.1744782 155.859375,75.3671875 L154.414062,76.46875 L153.085937,74.9765625 L154.46875,73.8125 C155.16667,73.2239554 155.911454,72.9296875 156.703125,72.9296875 C156.890626,72.9296875 157.078124,72.9466144 157.265625,72.9804688 C157.453126,73.0143231 157.641926,73.0624997 157.832031,73.125 C158.022136,73.1875003 158.213541,73.2682287 158.40625,73.3671875 L160.914062,74.6171875 C161.721358,75.0182312 162.125,75.4921848 162.125,76.0390625 L162.125,77.4375 L161.84375,77.46875 C161.58854,77.4895834 161.351564,77.5156248 161.132812,77.546875 C161.184896,77.6145837 161.265624,77.6731768 161.375,77.7226562 C161.484376,77.7721357 161.64453,77.815104 161.855469,77.8515625 C162.066407,77.888021 162.30729,77.90625 162.578125,77.90625 L162.976562,77.90625 C163.257814,77.90625 163.477864,77.9999991 163.636719,78.1875 C163.795574,78.3750009 163.875,78.617186 163.875,78.9140625 L163.875,79 C163.875,79.2916681 163.795574,79.5312491 163.636719,79.71875 C163.477864,79.9062509 163.257814,80 162.976562,80 Z"
                          id="سیستم-پرسش-و-پاسخ" fill="#35546F"></path>
                    <g id="flaticon1543582682-svg" transform="translate(213.000000, 29.000000)" fill="#35546F">
                        <path d="M13.4901839,18 C12.6667042,18 12,18.6818182 12,19.5 C12,20.2986773 12.6470721,21 13.4901839,21 C14.3332958,21 15,20.2987332 15,19.5 C15,18.6818182 14.3137762,18 13.4901839,18 Z" id="Path"></path>
                        <path d="M12.3633934,8 C10.0585177,8 9,9.24510231 9,10.0855743 C9,10.6926091 9.56337378,10.9727515 10.0243783,10.9727515 C10.9462894,10.9727515 10.5707069,9.77430986 12.3121598,9.77430986 C13.165841,9.77430986 13.8487762,10.1167409 13.8487762,10.8326803 C13.8487762,11.6731969 12.8926767,12.1556545 12.329254,12.5914515 C11.834159,12.9805432 11.1853632,13.6187 11.1853632,14.9572129 C11.1853632,15.7665182 11.4243391,16 12.1243685,16 C12.9609555,16 13.1316526,15.6576136 13.1316526,15.3618879 C13.1316526,14.5525379 13.1487958,14.0856189 14.0878011,13.4163848 C14.5487566,13.0895371 16,12.0311666 16,10.5681212 C16,9.10507574 14.5487566,8 12.3633934,8 Z"
                              id="Path"></path>
                        <path d="M13,0 C5.81526563,0 0,5.81430078 0,13 L0,24.984375 C0,25.5453047 0.454695313,26 1.015625,26 L13,26 C20.1846836,26 26,20.1856992 26,13 C26,5.81526563 20.1856992,0 13,0 Z M13,23.96875 L2.03125,23.96875 L2.03125,13 C2.03125,6.93788672 6.93707422,2.03125 13,2.03125 C19.0621133,2.03125 23.96875,6.93707422 23.96875,13 C23.96875,19.0621133 19.0629258,23.96875 13,23.96875 Z"
                              id="Shape" fill-rule="nonzero"></path>
                    </g>
                    <rect id="Rectangle" fill="#FFFFFF" x="35" y="107" width="383" height="132" rx="8"></rect>
                    <path d="M381.445312,135.826172 C381.445312,135.735026 381.456706,135.648438 381.479492,135.566406 C381.502279,135.484375 381.535319,135.405762 381.578613,135.330566 C381.621908,135.255371 381.675455,135.188151 381.739258,135.128906 C381.930665,134.932942 382.160806,134.834961 382.429688,134.834961 C382.707684,134.834961 382.943521,134.931802 383.137207,135.125488 C383.330893,135.319174 383.427734,135.550454 383.427734,135.819336 C383.427734,136.097332 383.330893,136.33317 383.137207,136.526855 C382.943521,136.720541 382.712241,136.817383 382.443359,136.817383 C382.165363,136.817383 381.929526,136.720541 381.73584,136.526855 C381.542154,136.33317 381.445312,136.099611 381.445312,135.826172 Z M382.545898,137.945312 C382.545898,137.671874 382.641601,137.438315 382.833008,137.244629 C383.024415,137.050943 383.256835,136.954102 383.530273,136.954102 C383.666993,136.954102 383.794596,136.979166 383.913086,137.029297 C384.031576,137.079427 384.138671,137.151204 384.234375,137.244629 C384.330079,137.338054 384.401855,137.44401 384.449707,137.5625 C384.497559,137.68099 384.521484,137.806314 384.521484,137.938477 C384.521484,138.079753 384.497559,138.209635 384.449707,138.328125 C384.401855,138.446615 384.330079,138.551432 384.234375,138.642578 C384.170573,138.706381 384.102214,138.759928 384.029297,138.803223 C383.95638,138.846517 383.878907,138.879557 383.796875,138.902344 C383.714843,138.92513 383.628256,138.936523 383.537109,138.936523 C383.40039,138.936523 383.272787,138.911459 383.154297,138.861328 C383.035807,138.811198 382.928711,138.739421 382.833008,138.645996 C382.737304,138.552571 382.665528,138.446615 382.617676,138.328125 C382.569824,138.209635 382.545898,138.082032 382.545898,137.945312 Z M380.618164,138.642578 C380.426757,138.451171 380.331055,138.218751 380.331055,137.945312 C380.331055,137.671874 380.426757,137.438315 380.618164,137.244629 C380.809571,137.050943 381.041991,136.954102 381.31543,136.954102 C381.406576,136.954102 381.494303,136.965495 381.578613,136.988281 C381.662924,137.011068 381.741536,137.044108 381.814453,137.087402 C381.88737,137.130697 381.955729,137.184244 382.019531,137.248047 C382.115235,137.339193 382.187011,137.44401 382.234863,137.5625 C382.282715,137.68099 382.306641,137.806314 382.306641,137.938477 C382.306641,137.970378 382.305501,137.998861 382.303223,138.023926 C382.300944,138.048991 382.297526,138.075195 382.292969,138.102539 C382.288411,138.129883 382.283854,138.156087 382.279297,138.181152 C382.27474,138.206218 382.267904,138.230143 382.258789,138.25293 C382.249674,138.275716 382.24056,138.299642 382.231445,138.324707 C382.222331,138.349772 382.212077,138.373698 382.200684,138.396484 C382.18929,138.419271 382.176758,138.440918 382.163086,138.461426 L382.12207,138.522949 C382.108398,138.543457 382.092448,138.563965 382.074219,138.584473 C382.055989,138.604981 382.037761,138.624349 382.019531,138.642578 C381.823567,138.838543 381.591147,138.936523 381.322266,138.936523 C381.044269,138.936523 380.809571,138.838543 380.618164,138.642578 Z M379.900391,145 C379.654296,145 379.461752,144.91797 379.322754,144.753906 C379.183756,144.589843 379.114258,144.38021 379.114258,144.125 L379.114258,144.049805 C379.114258,143.881184 379.14388,143.730795 379.203125,143.598633 C379.26237,143.466471 379.352376,143.361654 379.473145,143.28418 C379.593913,143.206705 379.736327,143.167969 379.900391,143.167969 L381.493164,143.167969 C381.825848,143.167969 382.068521,143.076824 382.221191,142.894531 C382.373861,142.712239 382.450195,142.400067 382.450195,141.958008 L382.450195,139.729492 L384.213867,139.729492 L384.213867,141.923828 C384.213867,142.912765 383.991701,143.672686 383.547363,144.203613 C383.103025,144.73454 382.452478,145 381.595703,145 L379.900391,145 Z M375.210938,147.987305 C375.01953,147.795897 374.923828,147.563478 374.923828,147.290039 C374.923828,147.0166 375.01953,146.783041 375.210938,146.589355 C375.402345,146.39567 375.634764,146.298828 375.908203,146.298828 C375.999349,146.298828 376.087076,146.310221 376.171387,146.333008 C376.255697,146.355794 376.33431,146.388834 376.407227,146.432129 C376.480144,146.475423 376.548502,146.528971 376.612305,146.592773 C376.708008,146.68392 376.779785,146.788736 376.827637,146.907227 C376.875489,147.025717 376.899414,147.151041 376.899414,147.283203 C376.899414,147.315104 376.898275,147.343587 376.895996,147.368652 C376.893717,147.393718 376.8903,147.419922 376.885742,147.447266 C376.881185,147.47461 376.876628,147.500814 376.87207,147.525879 C376.867513,147.550944 376.860677,147.57487 376.851562,147.597656 C376.842448,147.620443 376.833333,147.644368 376.824219,147.669434 C376.815104,147.694499 376.80485,147.718424 376.793457,147.741211 C376.782064,147.763998 376.769531,147.785644 376.755859,147.806152 L376.714844,147.867676 C376.701172,147.888184 376.685221,147.908691 376.666992,147.929199 C376.648763,147.949707 376.630534,147.969075 376.612305,147.987305 C376.41634,148.183269 376.183921,148.28125 375.915039,148.28125 C375.637043,148.28125 375.402345,148.183269 375.210938,147.987305 Z M379.900391,145 L379.756836,145 C379.250974,145 378.795249,144.927084 378.389648,144.78125 C377.984047,144.635416 377.637697,144.41439 377.350586,144.118164 C376.776364,144.706058 375.97201,145 374.9375,145 L373.836914,145 C373.672851,145 373.530437,144.961263 373.409668,144.883789 C373.288899,144.806315 373.198894,144.702637 373.139648,144.572754 C373.080403,144.44287 373.050781,144.293621 373.050781,144.125 L373.050781,144.049805 C373.050781,143.790038 373.120279,143.578126 373.259277,143.414062 C373.398275,143.249999 373.590819,143.167969 373.836914,143.167969 L374.97168,143.167969 C375.491214,143.167969 375.862629,143.075685 376.085938,142.891113 C376.309246,142.706542 376.420898,142.413739 376.420898,142.012695 L376.420898,140.00293 L378.225586,140.00293 L378.225586,142.012695 C378.225586,142.409182 378.342935,142.700845 378.577637,142.887695 C378.812338,143.074545 379.203122,143.167969 379.75,143.167969 L379.900391,143.167969 C380.146486,143.167969 380.339029,143.249999 380.478027,143.414062 C380.617025,143.578126 380.686523,143.790038 380.686523,144.049805 L380.686523,144.125 C380.686523,144.293621 380.656901,144.44287 380.597656,144.572754 C380.538411,144.702637 380.448406,144.806315 380.327637,144.883789 C380.206868,144.961263 380.064454,145 379.900391,145 Z M366.331055,138.704102 C366.331055,138.430663 366.426757,138.197104 366.618164,138.003418 C366.809571,137.809732 367.041991,137.712891 367.31543,137.712891 C367.452149,137.712891 367.579752,137.737955 367.698242,137.788086 C367.816732,137.838216 367.923828,137.909993 368.019531,138.003418 C368.115235,138.096843 368.187011,138.202799 368.234863,138.321289 C368.282715,138.439779 368.306641,138.565104 368.306641,138.697266 C368.306641,138.838542 368.282715,138.968424 368.234863,139.086914 C368.187011,139.205404 368.115235,139.310221 368.019531,139.401367 C367.955729,139.46517 367.88737,139.518717 367.814453,139.562012 C367.741536,139.605306 367.664063,139.638346 367.582031,139.661133 C367.5,139.683919 367.413412,139.695312 367.322266,139.695312 C367.185546,139.695312 367.057943,139.670248 366.939453,139.620117 C366.820963,139.569987 366.713868,139.49821 366.618164,139.404785 C366.52246,139.31136 366.450684,139.205404 366.402832,139.086914 C366.35498,138.968424 366.331055,138.840821 366.331055,138.704102 Z M364.40332,139.401367 C364.211913,139.20996 364.116211,138.97754 364.116211,138.704102 C364.116211,138.430663 364.211913,138.197104 364.40332,138.003418 C364.594728,137.809732 364.827147,137.712891 365.100586,137.712891 C365.191732,137.712891 365.279459,137.724284 365.36377,137.74707 C365.44808,137.769857 365.526692,137.802897 365.599609,137.846191 C365.672526,137.889486 365.740885,137.943034 365.804688,138.006836 C365.900391,138.097982 365.972168,138.202799 366.02002,138.321289 C366.067871,138.439779 366.091797,138.565104 366.091797,138.697266 C366.091797,138.729167 366.090658,138.75765 366.088379,138.782715 C366.0861,138.80778 366.082682,138.833984 366.078125,138.861328 C366.073568,138.888672 366.06901,138.914876 366.064453,138.939941 C366.059896,138.965007 366.05306,138.988932 366.043945,139.011719 C366.034831,139.034505 366.025716,139.058431 366.016602,139.083496 C366.007487,139.108561 365.997233,139.132487 365.98584,139.155273 C365.974447,139.17806 365.961914,139.199707 365.948242,139.220215 L365.907227,139.281738 C365.893555,139.302246 365.877604,139.322754 365.859375,139.343262 C365.841146,139.36377 365.822917,139.383138 365.804688,139.401367 C365.608723,139.597332 365.376303,139.695312 365.107422,139.695312 C364.829426,139.695312 364.594728,139.597332 364.40332,139.401367 Z M373.905273,145 L373.707031,145 C373.2513,145 372.849123,144.91797 372.500488,144.753906 C372.151854,144.589843 371.870444,144.34603 371.65625,144.022461 C371.118487,144.674157 370.30274,145 369.208984,145 L362.94043,145 C361.997066,145 361.281578,144.709476 360.793945,144.128418 C360.306313,143.54736 360.0625,142.712245 360.0625,141.623047 L360.0625,139.96875 L361.833008,139.96875 L361.833008,141.636719 C361.833008,142.188154 361.920735,142.581216 362.096191,142.815918 C362.271648,143.05062 362.541665,143.167969 362.90625,143.167969 L369.222656,143.167969 C369.787763,143.167969 370.193358,143.060873 370.439453,142.84668 C370.685548,142.632486 370.808594,142.292971 370.808594,141.828125 L370.808594,140.037109 L372.606445,140.037109 L372.606445,141.841797 C372.606445,142.320315 372.694172,142.660969 372.869629,142.86377 C373.045086,143.06657 373.328774,143.167969 373.720703,143.167969 L373.905273,143.167969 C374.151368,143.167969 374.343912,143.249999 374.48291,143.414062 C374.621908,143.578126 374.691406,143.790038 374.691406,144.049805 L374.691406,144.125 C374.691406,144.38021 374.621908,144.589843 374.48291,144.753906 C374.343912,144.91797 374.151368,145 373.905273,145 Z M344.893555,145 C344.64746,145 344.454916,144.91797 344.315918,144.753906 C344.17692,144.589843 344.107422,144.38021 344.107422,144.125 L344.107422,144.049805 C344.107422,143.790038 344.17692,143.578126 344.315918,143.414062 C344.454916,143.249999 344.64746,143.167969 344.893555,143.167969 L345.132812,143.167969 C345.597659,143.167969 345.931477,143.074545 346.134277,142.887695 C346.337078,142.700845 346.438477,142.397789 346.438477,141.978516 L346.445312,140.030273 L348.25,140.030273 L348.25,142.005859 C348.25,142.220053 348.269368,142.401204 348.308105,142.549316 C348.346843,142.697429 348.404948,142.817057 348.482422,142.908203 C348.559896,142.999349 348.655598,143.065429 348.769531,143.106445 C348.883464,143.147461 349.02246,143.167969 349.186523,143.167969 C349.336915,143.167969 349.465657,143.14974 349.572754,143.113281 C349.679851,143.076823 349.769856,143.014161 349.842773,142.925293 C349.91569,142.836425 349.969238,142.719076 350.003418,142.573242 C350.037598,142.427408 350.054688,142.245118 350.054688,142.026367 L350.047852,140.037109 L351.845703,140.037109 L351.845703,142.033203 C351.85026,142.443361 351.930012,142.735025 352.084961,142.908203 C352.23991,143.081381 352.490558,143.167969 352.836914,143.167969 C352.932618,143.167969 353.016927,143.157715 353.089844,143.137207 C353.162761,143.116699 353.22998,143.080241 353.291504,143.027832 C353.353028,142.975423 353.403157,142.905925 353.441895,142.819336 C353.480632,142.732747 353.510254,142.624512 353.530762,142.494629 C353.55127,142.364745 353.561523,142.213217 353.561523,142.040039 L353.561523,139.736328 L355.332031,139.736328 L355.332031,142.094727 C355.332031,142.709964 355.242026,143.234047 355.062012,143.666992 C354.881998,144.099937 354.608563,144.430337 354.241699,144.658203 C353.874835,144.886069 353.424807,145 352.891602,145 C352.002925,145 351.353518,144.719729 350.943359,144.15918 C350.765624,144.441733 350.533205,144.652506 350.246094,144.791504 C349.958983,144.930502 349.626304,145 349.248047,145 C348.404944,145 347.791994,144.726565 347.40918,144.179688 C346.948891,144.726565 346.187831,145 345.125977,145 L344.893555,145 Z M344.955078,145 L344.175781,145 C344.111979,146.10287 343.741703,146.937985 343.064941,147.505371 C342.38818,148.072757 341.439134,148.354167 340.217773,148.349609 L339.219727,148.349609 L339.219727,146.517578 L340.176758,146.517578 C340.924157,146.522135 341.472166,146.39909 341.820801,146.148438 C342.169435,145.897785 342.357422,145.514977 342.384766,145 L341.420898,145 C340.641598,145 340.050295,144.760745 339.646973,144.282227 C339.24365,143.803709 339.041992,143.1224 339.041992,142.238281 C339.04655,141.349605 339.268715,140.667157 339.708496,140.190918 C340.148277,139.714679 340.784013,139.475423 341.615723,139.473145 C342.447433,139.470866 343.082029,139.7124 343.519531,140.197754 C343.957033,140.683108 344.17806,141.379227 344.182617,142.286133 L344.182617,143.167969 L344.955078,143.167969 C345.201173,143.167969 345.393717,143.249999 345.532715,143.414062 C345.671713,143.578126 345.741211,143.790038 345.741211,144.049805 L345.741211,144.125 C345.741211,144.38021 345.671713,144.589843 345.532715,144.753906 C345.393717,144.91797 345.201173,145 344.955078,145 Z M341.591797,141.219727 C341.26367,141.219727 341.028972,141.29606 340.887695,141.44873 C340.746419,141.601401 340.675781,141.862303 340.675781,142.231445 C340.675781,142.463868 340.703125,142.648437 340.757812,142.785156 C340.8125,142.921876 340.892252,143.018717 340.99707,143.075684 C341.101889,143.13265 341.240885,143.161133 341.414062,143.161133 L342.453125,143.161133 L342.446289,142.327148 C342.446289,141.91699 342.37793,141.628744 342.241211,141.462402 C342.104492,141.29606 341.888022,141.215169 341.591797,141.219727 Z M335.863281,144.993164 L335.863281,135.716797 L337.606445,135.716797 L337.606445,144.993164 L335.863281,144.993164 Z M327.496094,144.015625 C327.496094,144.767582 327.696613,145.321287 328.097656,145.676758 C328.494143,146.036786 329.1276,146.216797 329.998047,146.216797 L330.168945,146.216797 L330.360352,146.209961 C331.422206,146.187174 332.073892,145.79753 332.31543,145.041016 C332.392904,144.776691 332.431641,144.471356 332.431641,144.125 L332.431641,135.655273 L334.167969,135.655273 L334.161133,144.152344 C334.161133,145.387376 333.833011,146.337562 333.176758,147.00293 C332.525062,147.66374 331.524746,148.014648 330.175781,148.055664 L329.984375,148.055664 C328.061188,148.055664 326.785159,147.415371 326.15625,146.134766 C325.869139,145.546872 325.725586,144.842778 325.725586,144.022461 L325.725586,141.404297 L327.496094,141.404297 L327.496094,144.015625 Z M315.382812,147.987305 C315.191405,147.795897 315.095703,147.563478 315.095703,147.290039 C315.095703,147.0166 315.191405,146.783041 315.382812,146.589355 C315.57422,146.39567 315.806639,146.298828 316.080078,146.298828 C316.171224,146.298828 316.258951,146.310221 316.343262,146.333008 C316.427572,146.355794 316.506185,146.388834 316.579102,146.432129 C316.652019,146.475423 316.720377,146.528971 316.78418,146.592773 C316.879883,146.68392 316.95166,146.788736 316.999512,146.907227 C317.047364,147.025717 317.071289,147.151041 317.071289,147.283203 C317.071289,147.315104 317.07015,147.343587 317.067871,147.368652 C317.065592,147.393718 317.062175,147.419922 317.057617,147.447266 C317.05306,147.47461 317.048503,147.500814 317.043945,147.525879 C317.039388,147.550944 317.032552,147.57487 317.023438,147.597656 C317.014323,147.620443 317.005208,147.644368 316.996094,147.669434 C316.986979,147.694499 316.976725,147.718424 316.965332,147.741211 C316.953939,147.763998 316.941406,147.785644 316.927734,147.806152 L316.886719,147.867676 C316.873047,147.888184 316.857096,147.908691 316.838867,147.929199 C316.820638,147.949707 316.802409,147.969075 316.78418,147.987305 C316.588215,148.183269 316.355796,148.28125 316.086914,148.28125 C315.808918,148.28125 315.57422,148.183269 315.382812,147.987305 Z M312.614258,145 C312.368163,145 312.175619,144.91797 312.036621,144.753906 C311.897623,144.589843 311.828125,144.38021 311.828125,144.125 L311.828125,144.049805 C311.828125,143.790038 311.897623,143.578126 312.036621,143.414062 C312.175619,143.249999 312.368163,143.167969 312.614258,143.167969 L314.835938,143.167969 C315.305341,143.167969 315.748533,143.120118 316.165527,143.024414 C316.582522,142.92871 316.975584,142.785157 317.344727,142.59375 L318.506836,142.005859 C318.616211,141.951172 318.714192,141.901042 318.800781,141.855469 L318.698242,141.800781 L317.057617,140.946289 C316.939127,140.887044 316.825196,140.838054 316.71582,140.799316 C316.606445,140.760579 316.501628,140.732096 316.401367,140.713867 C316.301106,140.695638 316.204265,140.687663 316.11084,140.689941 C316.017415,140.69222 315.92627,140.704752 315.837402,140.727539 C315.748535,140.750326 315.661947,140.782226 315.577637,140.823242 C315.493326,140.864258 315.410157,140.916666 315.328125,140.980469 L314.063477,141.9375 L312.901367,140.638672 L314.111328,139.613281 C314.644534,139.166664 315.202797,138.910319 315.786133,138.844238 C316.369469,138.778157 316.961911,138.906899 317.563477,139.230469 L319.915039,140.488281 C319.987956,140.52474 320.056315,140.563476 320.120117,140.604492 C320.18392,140.645508 320.246582,140.686523 320.308105,140.727539 C320.369629,140.768555 320.425455,140.810709 320.475586,140.854004 C320.525716,140.897298 320.573567,140.941732 320.619141,140.987305 C320.664714,141.032878 320.705729,141.080729 320.742188,141.130859 C320.778646,141.18099 320.812825,141.23112 320.844727,141.28125 C321.24577,141.992191 320.785488,142.72135 319.463867,143.46875 L318.356445,144.09082 C317.271804,144.696943 316.102871,145 314.849609,145 L312.614258,145 Z M312.675781,145 L312.566406,145 C311.750647,145 311.030602,144.676436 310.40625,144.029297 C310.16927,144.366538 309.825198,144.612629 309.374023,144.767578 C308.922849,144.922527 308.369144,145 307.712891,145 L304.834961,145 L304.834961,143.167969 L307.624023,143.167969 C307.706055,143.167969 307.788086,143.16569 307.870117,143.161133 C308.704106,143.133789 309.116537,142.958335 309.107422,142.634766 C309.098307,142.374999 308.886395,142.005862 308.47168,141.527344 L306.43457,139.175781 L307.671875,137.822266 L311.547852,142.484375 C311.743816,142.721355 311.931802,142.894531 312.111816,143.003906 C312.29183,143.113282 312.459309,143.167969 312.614258,143.167969 L312.675781,143.167969 C312.921876,143.167969 313.11442,143.249999 313.253418,143.414062 C313.392416,143.578126 313.461914,143.790038 313.461914,144.049805 L313.461914,144.125 C313.461914,144.38021 313.392416,144.589843 313.253418,144.753906 C313.11442,144.91797 312.921876,145 312.675781,145 Z M301.710938,147.290039 C301.710938,147.0166 301.80664,146.783041 301.998047,146.589355 C302.189454,146.39567 302.421874,146.298828 302.695312,146.298828 C302.832032,146.298828 302.959635,146.323893 303.078125,146.374023 C303.196615,146.424154 303.30371,146.495931 303.399414,146.589355 C303.495118,146.68278 303.566894,146.788736 303.614746,146.907227 C303.662598,147.025717 303.686523,147.151041 303.686523,147.283203 C303.686523,147.42448 303.662598,147.554361 303.614746,147.672852 C303.566894,147.791342 303.495118,147.896158 303.399414,147.987305 C303.335612,148.051107 303.267253,148.104655 303.194336,148.147949 C303.121419,148.191244 303.043946,148.224284 302.961914,148.24707 C302.879882,148.269857 302.793295,148.28125 302.702148,148.28125 C302.565429,148.28125 302.437826,148.256185 302.319336,148.206055 C302.200846,148.155924 302.09375,148.084148 301.998047,147.990723 C301.902343,147.897298 301.830567,147.791342 301.782715,147.672852 C301.734863,147.554361 301.710938,147.426758 301.710938,147.290039 Z M299.783203,147.987305 C299.591796,147.795897 299.496094,147.563478 299.496094,147.290039 C299.496094,147.0166 299.591796,146.783041 299.783203,146.589355 C299.97461,146.39567 300.20703,146.298828 300.480469,146.298828 C300.571615,146.298828 300.659342,146.310221 300.743652,146.333008 C300.827963,146.355794 300.906575,146.388834 300.979492,146.432129 C301.052409,146.475423 301.120768,146.528971 301.18457,146.592773 C301.280274,146.68392 301.352051,146.788736 301.399902,146.907227 C301.447754,147.025717 301.47168,147.151041 301.47168,147.283203 C301.47168,147.315104 301.47054,147.343587 301.468262,147.368652 C301.465983,147.393718 301.462565,147.419922 301.458008,147.447266 C301.45345,147.47461 301.448893,147.500814 301.444336,147.525879 C301.439779,147.550944 301.432943,147.57487 301.423828,147.597656 C301.414713,147.620443 301.405599,147.644368 301.396484,147.669434 C301.38737,147.694499 301.377116,147.718424 301.365723,147.741211 C301.354329,147.763998 301.341797,147.785644 301.328125,147.806152 L301.287109,147.867676 C301.273437,147.888184 301.257487,147.908691 301.239258,147.929199 C301.221029,147.949707 301.2028,147.969075 301.18457,147.987305 C300.988606,148.183269 300.756186,148.28125 300.487305,148.28125 C300.209309,148.28125 299.97461,148.183269 299.783203,147.987305 Z M299.523438,145 C299.277343,145 299.084799,144.91797 298.945801,144.753906 C298.806803,144.589843 298.737305,144.38021 298.737305,144.125 L298.737305,144.049805 C298.737305,143.881184 298.766927,143.730795 298.826172,143.598633 C298.885417,143.466471 298.975423,143.361654 299.096191,143.28418 C299.21696,143.206705 299.359374,143.167969 299.523438,143.167969 L301.116211,143.167969 C301.448895,143.167969 301.691568,143.076824 301.844238,142.894531 C301.996908,142.712239 302.073242,142.400067 302.073242,141.958008 L302.073242,139.729492 L303.836914,139.729492 L303.836914,141.923828 C303.836914,142.912765 303.614748,143.672686 303.17041,144.203613 C302.726072,144.73454 302.075525,145 301.21875,145 L299.523438,145 Z M299.584961,145 L299.475586,145 C298.659827,145 297.939782,144.676436 297.31543,144.029297 C297.078449,144.366538 296.734377,144.612629 296.283203,144.767578 C295.832029,144.922527 295.278324,145 294.62207,145 L291.744141,145 L291.744141,143.167969 L294.533203,143.167969 C294.615235,143.167969 294.697265,143.16569 294.779297,143.161133 C295.613285,143.133789 296.025716,142.958335 296.016602,142.634766 C296.007487,142.374999 295.795575,142.005862 295.380859,141.527344 L293.34375,139.175781 L294.581055,137.822266 L298.457031,142.484375 C298.652996,142.721355 298.840982,142.894531 299.020996,143.003906 C299.20101,143.113282 299.368489,143.167969 299.523438,143.167969 L299.584961,143.167969 C299.831056,143.167969 300.0236,143.249999 300.162598,143.414062 C300.301596,143.578126 300.371094,143.790038 300.371094,144.049805 L300.371094,144.125 C300.371094,144.38021 300.301596,144.589843 300.162598,144.753906 C300.0236,144.91797 299.831056,145 299.584961,145 Z"
                          id="ثبت-سوال-جدید" fill="#35546F"></path>
                    <path d="M159.490234,148.874023 C159.298827,148.682616 159.203125,148.450197 159.203125,148.176758 C159.203125,147.903319 159.301106,147.670899 159.49707,147.479492 C159.588217,147.383789 159.693033,147.310873 159.811523,147.260742 C159.930014,147.210612 160.055338,147.185547 160.1875,147.185547 C160.465496,147.185547 160.701334,147.282388 160.89502,147.476074 C161.088705,147.66976 161.185547,147.90104 161.185547,148.169922 C161.185547,148.447918 161.088705,148.683756 160.89502,148.877441 C160.701334,149.071127 160.470053,149.167969 160.201172,149.167969 C159.923176,149.167969 159.686199,149.069988 159.490234,148.874023 Z M160.59082,146.761719 C160.399413,146.565754 160.303711,146.331056 160.303711,146.057617 C160.303711,145.784178 160.399413,145.550619 160.59082,145.356934 C160.782228,145.163248 161.014647,145.066406 161.288086,145.066406 C161.342774,145.066406 161.396321,145.070963 161.44873,145.080078 C161.50114,145.089193 161.551269,145.101725 161.599121,145.117676 C161.646973,145.133626 161.693685,145.152995 161.739258,145.175781 C161.784831,145.198568 161.829264,145.224772 161.872559,145.254395 C161.915853,145.284017 161.955729,145.319336 161.992188,145.360352 C162.087891,145.451498 162.159668,145.556315 162.20752,145.674805 C162.255371,145.793295 162.279297,145.918619 162.279297,146.050781 C162.279297,146.328777 162.183595,146.564615 161.992188,146.758301 C161.80078,146.951987 161.568361,147.048828 161.294922,147.048828 C161.016926,147.048828 160.782228,146.953126 160.59082,146.761719 Z M158.375977,146.761719 C158.184569,146.565754 158.088867,146.331056 158.088867,146.057617 C158.088867,145.784178 158.184569,145.550619 158.375977,145.356934 C158.567384,145.163248 158.799803,145.066406 159.073242,145.066406 C159.164388,145.066406 159.252115,145.077799 159.336426,145.100586 C159.420736,145.123373 159.499349,145.156413 159.572266,145.199707 C159.645183,145.243002 159.713541,145.296549 159.777344,145.360352 C159.873047,145.451498 159.944824,145.556315 159.992676,145.674805 C160.040528,145.793295 160.064453,145.918619 160.064453,146.050781 C160.064453,146.328777 159.968751,146.564615 159.777344,146.758301 C159.585937,146.951987 159.353517,147.048828 159.080078,147.048828 C158.802082,147.048828 158.567384,146.953126 158.375977,146.761719 Z M158.061523,144 C157.815428,144 157.622885,143.91797 157.483887,143.753906 C157.344889,143.589843 157.275391,143.38021 157.275391,143.125 L157.275391,143.049805 C157.275391,142.881184 157.305013,142.730795 157.364258,142.598633 C157.423503,142.466471 157.513509,142.361654 157.634277,142.28418 C157.755046,142.206705 157.89746,142.167969 158.061523,142.167969 L159.654297,142.167969 C159.986981,142.167969 160.229654,142.076824 160.382324,141.894531 C160.534994,141.712239 160.611328,141.400067 160.611328,140.958008 L160.611328,138.729492 L162.375,138.729492 L162.375,140.923828 C162.375,141.912765 162.152834,142.672686 161.708496,143.203613 C161.264158,143.73454 160.613611,144 159.756836,144 L158.061523,144 Z M154.335938,146.290039 C154.335938,146.0166 154.43164,145.783041 154.623047,145.589355 C154.814454,145.39567 155.046874,145.298828 155.320312,145.298828 C155.457032,145.298828 155.584635,145.323893 155.703125,145.374023 C155.821615,145.424154 155.92871,145.495931 156.024414,145.589355 C156.120118,145.68278 156.191894,145.788736 156.239746,145.907227 C156.287598,146.025717 156.311523,146.151041 156.311523,146.283203 C156.311523,146.42448 156.287598,146.554361 156.239746,146.672852 C156.191894,146.791342 156.120118,146.896158 156.024414,146.987305 C155.960612,147.051107 155.892253,147.104655 155.819336,147.147949 C155.746419,147.191244 155.668946,147.224284 155.586914,147.24707 C155.504882,147.269857 155.418295,147.28125 155.327148,147.28125 C155.190429,147.28125 155.062826,147.256185 154.944336,147.206055 C154.825846,147.155924 154.71875,147.084148 154.623047,146.990723 C154.527343,146.897298 154.455567,146.791342 154.407715,146.672852 C154.359863,146.554361 154.335938,146.426758 154.335938,146.290039 Z M152.408203,146.987305 C152.216796,146.795897 152.121094,146.563478 152.121094,146.290039 C152.121094,146.0166 152.216796,145.783041 152.408203,145.589355 C152.59961,145.39567 152.83203,145.298828 153.105469,145.298828 C153.196615,145.298828 153.284342,145.310221 153.368652,145.333008 C153.452963,145.355794 153.531575,145.388834 153.604492,145.432129 C153.677409,145.475423 153.745768,145.528971 153.80957,145.592773 C153.905274,145.68392 153.977051,145.788736 154.024902,145.907227 C154.072754,146.025717 154.09668,146.151041 154.09668,146.283203 C154.09668,146.315104 154.09554,146.343587 154.093262,146.368652 C154.090983,146.393718 154.087565,146.419922 154.083008,146.447266 C154.07845,146.47461 154.073893,146.500814 154.069336,146.525879 C154.064779,146.550944 154.057943,146.57487 154.048828,146.597656 C154.039713,146.620443 154.030599,146.644368 154.021484,146.669434 C154.01237,146.694499 154.002116,146.718424 153.990723,146.741211 C153.979329,146.763998 153.966797,146.785644 153.953125,146.806152 L153.912109,146.867676 C153.898437,146.888184 153.882487,146.908691 153.864258,146.929199 C153.846029,146.949707 153.8278,146.969075 153.80957,146.987305 C153.613606,147.183269 153.381186,147.28125 153.112305,147.28125 C152.834309,147.28125 152.59961,147.183269 152.408203,146.987305 Z M158.129883,144 L157.986328,144 C157.480466,144 157.024742,143.927084 156.619141,143.78125 C156.21354,143.635416 155.867189,143.41439 155.580078,143.118164 C155.005857,143.706058 154.201503,144 153.166992,144 L152.066406,144 C151.902343,144 151.759929,143.961263 151.63916,143.883789 C151.518391,143.806315 151.428386,143.702637 151.369141,143.572754 C151.309896,143.44287 151.280273,143.293621 151.280273,143.125 L151.280273,143.049805 C151.280273,142.790038 151.349771,142.578126 151.48877,142.414062 C151.627768,142.249999 151.820311,142.167969 152.066406,142.167969 L153.201172,142.167969 C153.720706,142.167969 154.092121,142.075685 154.31543,141.891113 C154.538738,141.706542 154.650391,141.413739 154.650391,141.012695 L154.650391,139.00293 L156.455078,139.00293 L156.455078,141.012695 C156.455078,141.409182 156.572427,141.700845 156.807129,141.887695 C157.041831,142.074545 157.432614,142.167969 157.979492,142.167969 L158.129883,142.167969 C158.375978,142.167969 158.568521,142.249999 158.70752,142.414062 C158.846518,142.578126 158.916016,142.790038 158.916016,143.049805 L158.916016,143.125 C158.916016,143.293621 158.886394,143.44287 158.827148,143.572754 C158.767903,143.702637 158.677898,143.806315 158.557129,143.883789 C158.43636,143.961263 158.293946,144 158.129883,144 Z M152.134766,144 L152.032227,144 C151.14355,144 150.346032,143.585291 149.639648,142.755859 C149.188474,143.594405 148.395513,144.011393 147.260742,144.006836 L144.779297,144 C144.533202,144 144.340658,143.91797 144.20166,143.753906 C144.062662,143.589843 143.993164,143.38021 143.993164,143.125 L143.993164,143.049805 C143.993164,142.790038 144.062662,142.578126 144.20166,142.414062 C144.340658,142.249999 144.533202,142.167969 144.779297,142.167969 L147.137695,142.167969 C147.361004,142.167969 147.547851,142.153158 147.698242,142.123535 C147.848634,142.093913 147.965983,142.049479 148.050293,141.990234 C148.134603,141.930989 148.194987,141.864909 148.231445,141.791992 C148.267904,141.719075 148.286133,141.630209 148.286133,141.525391 C148.286133,141.511719 148.282715,141.491211 148.275879,141.463867 C148.269043,141.436523 148.256511,141.404623 148.238281,141.368164 L148.176758,141.245117 C148.153971,141.199544 148.124349,141.148275 148.087891,141.091309 C148.051432,141.034342 148.010417,140.975098 147.964844,140.913574 C147.919271,140.85205 147.866862,140.784831 147.807617,140.711914 C147.748372,140.638997 147.686849,140.563802 147.623047,140.486328 L145.770508,138.374023 C145.556314,138.137043 145.371746,137.913738 145.216797,137.704102 C145.052734,137.489908 144.984375,137.211916 145.011719,136.870117 C145.039063,136.546548 145.137043,136.269695 145.305664,136.039551 C145.474285,135.809406 145.704426,135.641928 145.996094,135.537109 L150.788086,133.869141 L150.788086,135.714844 L146.953125,137.027344 L150.624023,141.197266 C150.819988,141.416017 151.006835,141.600585 151.18457,141.750977 C151.362306,141.901368 151.514973,142.008463 151.642578,142.072266 C151.770183,142.136068 151.879557,142.167969 151.970703,142.167969 L152.141602,142.167969 C152.305665,142.172526 152.44694,142.214681 152.56543,142.294434 C152.68392,142.374187 152.772786,142.479003 152.832031,142.608887 C152.891276,142.73877 152.920898,142.885741 152.920898,143.049805 L152.920898,143.131836 C152.920898,143.382488 152.8514,143.589843 152.712402,143.753906 C152.573404,143.91797 152.380861,144 152.134766,144 Z M150.65359,133.474415 L145.884806,135.156655 L145.884806,134.154625 L150.65359,132.472386 L150.65359,133.474415 Z M141.053711,146.290039 C141.053711,146.0166 141.149413,145.783041 141.34082,145.589355 C141.532228,145.39567 141.764647,145.298828 142.038086,145.298828 C142.174805,145.298828 142.302408,145.323893 142.420898,145.374023 C142.539389,145.424154 142.646484,145.495931 142.742188,145.589355 C142.837891,145.68278 142.909668,145.788736 142.95752,145.907227 C143.005371,146.025717 143.029297,146.151041 143.029297,146.283203 C143.029297,146.42448 143.005371,146.554361 142.95752,146.672852 C142.909668,146.791342 142.837891,146.896158 142.742188,146.987305 C142.678385,147.051107 142.610026,147.104655 142.537109,147.147949 C142.464192,147.191244 142.386719,147.224284 142.304688,147.24707 C142.222656,147.269857 142.136068,147.28125 142.044922,147.28125 C141.908202,147.28125 141.7806,147.256185 141.662109,147.206055 C141.543619,147.155924 141.436524,147.084148 141.34082,146.990723 C141.245117,146.897298 141.17334,146.791342 141.125488,146.672852 C141.077636,146.554361 141.053711,146.426758 141.053711,146.290039 Z M139.125977,146.987305 C138.934569,146.795897 138.838867,146.563478 138.838867,146.290039 C138.838867,146.0166 138.934569,145.783041 139.125977,145.589355 C139.317384,145.39567 139.549803,145.298828 139.823242,145.298828 C139.914388,145.298828 140.002115,145.310221 140.086426,145.333008 C140.170736,145.355794 140.249349,145.388834 140.322266,145.432129 C140.395183,145.475423 140.463541,145.528971 140.527344,145.592773 C140.623047,145.68392 140.694824,145.788736 140.742676,145.907227 C140.790528,146.025717 140.814453,146.151041 140.814453,146.283203 C140.814453,146.315104 140.813314,146.343587 140.811035,146.368652 C140.808756,146.393718 140.805339,146.419922 140.800781,146.447266 C140.796224,146.47461 140.791667,146.500814 140.787109,146.525879 C140.782552,146.550944 140.775716,146.57487 140.766602,146.597656 C140.757487,146.620443 140.748372,146.644368 140.739258,146.669434 C140.730143,146.694499 140.719889,146.718424 140.708496,146.741211 C140.697103,146.763998 140.68457,146.785644 140.670898,146.806152 L140.629883,146.867676 C140.616211,146.888184 140.600261,146.908691 140.582031,146.929199 C140.563802,146.949707 140.545573,146.969075 140.527344,146.987305 C140.331379,147.183269 140.09896,147.28125 139.830078,147.28125 C139.552082,147.28125 139.317384,147.183269 139.125977,146.987305 Z M144.847656,144 L144.704102,144 C144.19824,144 143.742515,143.927084 143.336914,143.78125 C142.931313,143.635416 142.584962,143.41439 142.297852,143.118164 C141.72363,143.706058 140.919276,144 139.884766,144 L138.78418,144 C138.620116,144 138.477702,143.961263 138.356934,143.883789 C138.236165,143.806315 138.146159,143.702637 138.086914,143.572754 C138.027669,143.44287 137.998047,143.293621 137.998047,143.125 L137.998047,143.049805 C137.998047,142.790038 138.067545,142.578126 138.206543,142.414062 C138.345541,142.249999 138.538085,142.167969 138.78418,142.167969 L139.918945,142.167969 C140.438479,142.167969 140.809895,142.075685 141.033203,141.891113 C141.256512,141.706542 141.368164,141.413739 141.368164,141.012695 L141.368164,139.00293 L143.172852,139.00293 L143.172852,141.012695 C143.172852,141.409182 143.290201,141.700845 143.524902,141.887695 C143.759604,142.074545 144.150388,142.167969 144.697266,142.167969 L144.847656,142.167969 C145.093751,142.167969 145.286295,142.249999 145.425293,142.414062 C145.564291,142.578126 145.633789,142.790038 145.633789,143.049805 L145.633789,143.125 C145.633789,143.293621 145.604167,143.44287 145.544922,143.572754 C145.485677,143.702637 145.395671,143.806315 145.274902,143.883789 C145.154134,143.961263 145.01172,144 144.847656,144 Z M138.845703,144 L138.736328,144 C138.303383,144 137.92741,143.915691 137.608398,143.74707 L137.608398,143.842773 C137.608398,145.000331 137.268884,145.877601 136.589844,146.474609 C135.910804,147.071618 134.92416,147.367839 133.629883,147.363281 L132.652344,147.363333 L132.652344,145.53125 L133.602539,145.53125 C134.372725,145.53125 134.930988,145.394533 135.277344,145.121094 C135.6237,144.847655 135.796875,144.42611 135.796875,143.856445 L135.796875,139.296875 L137.601562,139.283203 L137.601562,141.361328 C137.610677,141.548178 137.650553,141.698567 137.721191,141.8125 C137.79183,141.926433 137.910318,142.01416 138.07666,142.075684 C138.243002,142.137207 138.462889,142.167969 138.736328,142.167969 L138.845703,142.167969 C139.091798,142.167969 139.284342,142.249999 139.42334,142.414062 C139.562338,142.578126 139.631836,142.790038 139.631836,143.049805 L139.631836,143.125 C139.631836,143.38021 139.562338,143.589843 139.42334,143.753906 C139.284342,143.91797 139.091798,144 138.845703,144 Z M130.280273,141.586914 C130.854495,141.586914 131.298827,141.74186 131.613281,142.051758 C131.927736,142.361655 132.084961,142.803708 132.084961,143.37793 L132.084961,143.576172 C132.084961,144.792975 131.70557,145.713539 130.946777,146.337891 C130.187984,146.962243 129.08627,147.274414 127.641602,147.274414 L127.272461,147.274414 C125.823235,147.274414 124.719242,146.930342 123.960449,146.242188 C123.201656,145.554033 122.822266,144.542324 122.822266,143.207031 L122.822266,140.110352 L124.592773,140.110352 L124.592773,143.200195 C124.592773,143.961267 124.808103,144.524087 125.23877,144.888672 C125.669436,145.253257 126.351883,145.435547 127.286133,145.435547 L127.703125,145.435547 C128.623703,145.435547 129.292478,145.290854 129.709473,145.001465 C130.126467,144.712075 130.334961,144.277998 130.334961,143.699219 L130.334961,143.617188 C130.334961,143.503255 130.319011,143.430339 130.287109,143.398438 C130.255208,143.366536 130.182292,143.350586 130.068359,143.350586 L128.762695,143.350586 C128.306964,143.350586 127.950359,143.226401 127.692871,142.978027 C127.435383,142.729654 127.306641,142.382164 127.306641,141.935547 L127.306641,141.491211 C127.306641,140.35644 127.575518,139.488284 128.113281,138.886719 C128.651044,138.285153 129.437169,137.984375 130.47168,137.984375 L132.084961,137.984375 L132.091797,139.823242 L130.18457,139.823242 C129.819985,139.823242 129.54655,139.948566 129.364258,140.199219 C129.181965,140.449871 129.086263,140.866859 129.077148,141.450195 L129.070312,141.586914 L130.280273,141.586914 Z M107.660156,144 C107.414061,144 107.221518,143.91797 107.08252,143.753906 C106.943521,143.589843 106.874023,143.38021 106.874023,143.125 L106.874023,143.049805 C106.874023,142.790038 106.943521,142.578126 107.08252,142.414062 C107.221518,142.249999 107.414061,142.167969 107.660156,142.167969 L107.899414,142.167969 C108.36426,142.167969 108.698078,142.074545 108.900879,141.887695 C109.103679,141.700845 109.205078,141.397789 109.205078,140.978516 L109.211914,139.030273 L111.016602,139.030273 L111.016602,141.005859 C111.016602,141.220053 111.03597,141.401204 111.074707,141.549316 C111.113444,141.697429 111.171549,141.817057 111.249023,141.908203 C111.326498,141.999349 111.4222,142.065429 111.536133,142.106445 C111.650066,142.147461 111.789062,142.167969 111.953125,142.167969 C112.103516,142.167969 112.232259,142.14974 112.339355,142.113281 C112.446452,142.076823 112.536458,142.014161 112.609375,141.925293 C112.682292,141.836425 112.73584,141.719076 112.77002,141.573242 C112.804199,141.427408 112.821289,141.245118 112.821289,141.026367 L112.814453,139.037109 L114.612305,139.037109 L114.612305,141.033203 C114.616862,141.443361 114.696614,141.735025 114.851562,141.908203 C115.006511,142.081381 115.25716,142.167969 115.603516,142.167969 C115.699219,142.167969 115.783528,142.157715 115.856445,142.137207 C115.929362,142.116699 115.996582,142.080241 116.058105,142.027832 C116.119629,141.975423 116.169759,141.905925 116.208496,141.819336 C116.247233,141.732747 116.276855,141.624512 116.297363,141.494629 C116.317871,141.364745 116.328125,141.213217 116.328125,141.040039 L116.328125,138.736328 L118.098633,138.736328 L118.098633,141.094727 C118.098633,141.709964 118.008627,142.234047 117.828613,142.666992 C117.648599,143.099937 117.375165,143.430337 117.008301,143.658203 C116.641437,143.886069 116.191409,144 115.658203,144 C114.769527,144 114.120119,143.719729 113.709961,143.15918 C113.532226,143.441733 113.299806,143.652506 113.012695,143.791504 C112.725585,143.930502 112.392906,144 112.014648,144 C111.171545,144 110.558596,143.726565 110.175781,143.179688 C109.715492,143.726565 108.954432,144 107.892578,144 L107.660156,144 Z M107.72168,144 L106.942383,144 C106.87858,145.10287 106.508304,145.937985 105.831543,146.505371 C105.154782,147.072757 104.205735,147.354167 102.984375,147.349609 L101.986328,147.349609 L101.986328,145.517578 L102.943359,145.517578 C103.690759,145.522135 104.238768,145.39909 104.587402,145.148438 C104.936037,144.897785 105.124023,144.514977 105.151367,144 L104.1875,144 C103.408199,144 102.816897,143.760745 102.413574,143.282227 C102.010252,142.803709 101.808594,142.1224 101.808594,141.238281 C101.813151,140.349605 102.035317,139.667157 102.475098,139.190918 C102.914879,138.714679 103.550614,138.475423 104.382324,138.473145 C105.214034,138.470866 105.848631,138.7124 106.286133,139.197754 C106.723635,139.683108 106.944661,140.379227 106.949219,141.286133 L106.949219,142.167969 L107.72168,142.167969 C107.967775,142.167969 108.160318,142.249999 108.299316,142.414062 C108.438314,142.578126 108.507812,142.790038 108.507812,143.049805 L108.507812,143.125 C108.507812,143.38021 108.438314,143.589843 108.299316,143.753906 C108.160318,143.91797 107.967775,144 107.72168,144 Z M104.358398,140.219727 C104.030272,140.219727 103.795574,140.29606 103.654297,140.44873 C103.51302,140.601401 103.442383,140.862303 103.442383,141.231445 C103.442383,141.463868 103.469726,141.648437 103.524414,141.785156 C103.579102,141.921876 103.658854,142.018717 103.763672,142.075684 C103.86849,142.13265 104.007486,142.161133 104.180664,142.161133 L105.219727,142.161133 L105.212891,141.327148 C105.212891,140.91699 105.144532,140.628744 105.007812,140.462402 C104.871093,140.29606 104.654624,140.215169 104.358398,140.219727 Z M98.6298828,143.993164 L98.6298828,134.716797 L100.373047,134.716797 L100.373047,143.993164 L98.6298828,143.993164 Z M90.2626953,143.015625 C90.2626953,143.767582 90.4632141,144.321287 90.8642578,144.676758 C91.2607442,145.036786 91.8942014,145.216797 92.7646484,145.216797 L92.9355469,145.216797 L93.1269531,145.209961 C94.1888074,145.187174 94.8404936,144.79753 95.0820312,144.041016 C95.1595056,143.776691 95.1982422,143.471356 95.1982422,143.125 L95.1982422,134.655273 L96.9345703,134.655273 L96.9277344,143.152344 C96.9277344,144.387376 96.5996127,145.337562 95.9433594,146.00293 C95.2916634,146.66374 94.2913479,147.014648 92.9423828,147.055664 L92.7509766,147.055664 C90.8277899,147.055664 89.551761,146.415371 88.9228516,145.134766 C88.6357408,144.546872 88.4921875,143.842778 88.4921875,143.022461 L88.4921875,140.404297 L90.2626953,140.404297 L90.2626953,143.015625 Z M81.2119141,134.566406 C81.2119141,134.292967 81.3076162,134.059409 81.4990234,133.865723 C81.6904306,133.672037 81.9228502,133.575195 82.1962891,133.575195 C82.3330085,133.575195 82.4606114,133.60026 82.5791016,133.650391 C82.6975917,133.700521 82.804687,133.772298 82.9003906,133.865723 C82.9960942,133.959148 83.0678709,134.065104 83.1157227,134.183594 C83.1635745,134.302084 83.1875,134.427408 83.1875,134.55957 C83.1875,134.700847 83.1635745,134.830729 83.1157227,134.949219 C83.0678709,135.067709 82.9960942,135.172526 82.9003906,135.263672 C82.8365882,135.327474 82.7682295,135.381022 82.6953125,135.424316 C82.6223955,135.467611 82.5449223,135.500651 82.4628906,135.523438 C82.380859,135.546224 82.2942713,135.557617 82.203125,135.557617 C82.0664056,135.557617 81.9388027,135.532552 81.8203125,135.482422 C81.7018223,135.432291 81.594727,135.360515 81.4990234,135.26709 C81.4033198,135.173665 81.3315432,135.067709 81.2836914,134.949219 C81.2358396,134.830729 81.2119141,134.703126 81.2119141,134.566406 Z M79.2841797,135.263672 C79.0927725,135.072265 78.9970703,134.839845 78.9970703,134.566406 C78.9970703,134.292967 79.0927725,134.059409 79.2841797,133.865723 C79.4755869,133.672037 79.7080064,133.575195 79.9814453,133.575195 C80.0725916,133.575195 80.1603186,133.586588 80.2446289,133.609375 C80.3289392,133.632162 80.4075517,133.665202 80.4804688,133.708496 C80.5533858,133.751791 80.6217445,133.805338 80.6855469,133.869141 C80.7812505,133.960287 80.8530271,134.065104 80.9008789,134.183594 C80.9487307,134.302084 80.9726562,134.427408 80.9726562,134.55957 C80.9726562,134.591472 80.9715169,134.619954 80.9692383,134.64502 C80.9669596,134.670085 80.9635417,134.696289 80.9589844,134.723633 C80.9544271,134.750977 80.9498698,134.777181 80.9453125,134.802246 C80.9407552,134.827311 80.9339193,134.851237 80.9248047,134.874023 C80.9156901,134.89681 80.9065756,134.920736 80.8974609,134.945801 C80.8883463,134.970866 80.8780925,134.994792 80.8666992,135.017578 C80.8553059,135.040365 80.8427735,135.062012 80.8291016,135.08252 L80.7880859,135.144043 C80.774414,135.164551 80.7584636,135.185058 80.7402344,135.205566 C80.7220051,135.226074 80.7037761,135.245443 80.6855469,135.263672 C80.4895824,135.459636 80.2571628,135.557617 79.9882812,135.557617 C79.7102851,135.557617 79.4755869,135.459636 79.2841797,135.263672 Z M82.0117188,138.886719 C82.0117188,138.699869 81.9843753,138.552898 81.9296875,138.445801 C81.8749997,138.338704 81.7861334,138.258952 81.6630859,138.206543 C81.5400384,138.154134 81.3714203,138.12793 81.1572266,138.12793 C81.0706376,138.12793 80.9920251,138.131348 80.9213867,138.138184 C80.8507483,138.14502 80.7846683,138.156413 80.7231445,138.172363 C80.6616208,138.188314 80.6080731,138.208821 80.5625,138.233887 C80.5169269,138.258952 80.4759116,138.287435 80.4394531,138.319336 C80.4029946,138.351237 80.3722332,138.388834 80.347168,138.432129 C80.3221027,138.475423 80.3004558,138.523274 80.2822266,138.575684 C80.2639973,138.628093 80.2514649,138.685058 80.2446289,138.746582 C80.2377929,138.808106 80.234375,138.875325 80.234375,138.948242 C80.234375,139.048503 80.2446288,139.13623 80.2651367,139.211426 C80.2856446,139.286621 80.3186847,139.353841 80.3642578,139.413086 C80.409831,139.472331 80.4702145,139.520182 80.5454102,139.556641 C80.6206058,139.593099 80.7140294,139.621582 80.8256836,139.64209 C80.9373378,139.662598 81.0683586,139.672852 81.21875,139.672852 C81.4602877,139.672852 81.7246079,139.661458 82.0117188,139.638672 L82.0117188,138.886719 Z M78.4023438,144 C78.1562488,144 77.9648444,143.91797 77.828125,143.753906 C77.6868483,143.589843 77.6162109,143.38021 77.6162109,143.125 L77.6162109,143.049805 C77.6162109,142.790038 77.6845696,142.578126 77.8212891,142.414062 C77.9625658,142.249999 78.1562488,142.167969 78.4023438,142.167969 L80.0429688,142.167969 C81.2005266,142.167969 81.8294266,141.935549 81.9296875,141.470703 C81.5878889,141.488932 81.2483741,141.498047 80.9111328,141.498047 C80.0817016,141.49349 79.4710306,141.270185 79.0791016,140.828125 C78.7509749,140.458983 78.5869141,139.85059 78.5869141,139.00293 C78.5869141,138.164384 78.8056619,137.517255 79.2431641,137.061523 C79.6852236,136.610349 80.323238,136.384766 81.1572266,136.384766 C81.9912151,136.384766 82.6337868,136.587563 83.0849609,136.993164 C83.5361351,137.403322 83.7617188,137.993486 83.7617188,138.763672 L83.7617188,141.149414 C83.7617188,142.092778 83.4381543,142.803709 82.7910156,143.282227 C82.1484343,143.760745 81.2278706,144 80.0292969,144 L78.4023438,144 Z M73.7128906,146.987305 C73.5214834,146.795897 73.4257812,146.563478 73.4257812,146.290039 C73.4257812,146.0166 73.5214834,145.783041 73.7128906,145.589355 C73.9042978,145.39567 74.1367174,145.298828 74.4101562,145.298828 C74.5013025,145.298828 74.5890295,145.310221 74.6733398,145.333008 C74.7576502,145.355794 74.8362627,145.388834 74.9091797,145.432129 C74.9820967,145.475423 75.0504554,145.528971 75.1142578,145.592773 C75.2099614,145.68392 75.281738,145.788736 75.3295898,145.907227 C75.3774416,146.025717 75.4013672,146.151041 75.4013672,146.283203 C75.4013672,146.315104 75.4002279,146.343587 75.3979492,146.368652 C75.3956706,146.393718 75.3922526,146.419922 75.3876953,146.447266 C75.383138,146.47461 75.3785808,146.500814 75.3740234,146.525879 C75.3694661,146.550944 75.3626303,146.57487 75.3535156,146.597656 C75.344401,146.620443 75.3352865,146.644368 75.3261719,146.669434 C75.3170572,146.694499 75.3068034,146.718424 75.2954102,146.741211 C75.2840169,146.763998 75.2714844,146.785644 75.2578125,146.806152 L75.2167969,146.867676 C75.2031249,146.888184 75.1871746,146.908691 75.1689453,146.929199 C75.1507161,146.949707 75.1324871,146.969075 75.1142578,146.987305 C74.9182933,147.183269 74.6858737,147.28125 74.4169922,147.28125 C74.138996,147.28125 73.9042978,147.183269 73.7128906,146.987305 Z M78.4023438,144 L78.2587891,144 C77.7529272,144 77.2972025,143.927084 76.8916016,143.78125 C76.4860006,143.635416 76.1396499,143.41439 75.8525391,143.118164 C75.2783174,143.706058 74.4739635,144 73.4394531,144 L72.3388672,144 C72.1748039,144 72.0323899,143.961263 71.9116211,143.883789 C71.7908523,143.806315 71.7008467,143.702637 71.6416016,143.572754 C71.5823565,143.44287 71.5527344,143.293621 71.5527344,143.125 L71.5527344,143.049805 C71.5527344,142.790038 71.6222324,142.578126 71.7612305,142.414062 C71.9002286,142.249999 72.0927722,142.167969 72.3388672,142.167969 L73.4736328,142.167969 C73.9931667,142.167969 74.3645822,142.075685 74.5878906,141.891113 C74.811199,141.706542 74.9228516,141.413739 74.9228516,141.012695 L74.9228516,139.00293 L76.7275391,139.00293 L76.7275391,141.012695 C76.7275391,141.409182 76.8448881,141.700845 77.0795898,141.887695 C77.3142915,142.074545 77.7050754,142.167969 78.2519531,142.167969 L78.4023438,142.167969 C78.6484387,142.167969 78.8409824,142.249999 78.9799805,142.414062 C79.1189786,142.578126 79.1884766,142.790038 79.1884766,143.049805 L79.1884766,143.125 C79.1884766,143.293621 79.1588545,143.44287 79.0996094,143.572754 C79.0403643,143.702637 78.9503587,143.806315 78.8295898,143.883789 C78.708821,143.961263 78.5664071,144 78.4023438,144 Z M72.4003906,144 L72.2568359,144 C71.7236301,144 71.2929704,143.911134 70.9648438,143.733398 C70.8828121,144.786138 70.5159538,145.592771 69.8642578,146.15332 C69.2125618,146.709313 68.3033913,147.005534 67.1367188,147.041992 L67,147.048828 L66.8085938,147.048828 C64.8854071,147.048828 63.6093781,146.408535 62.9804688,145.12793 C62.6933579,144.544593 62.5498047,143.842778 62.5498047,143.022461 L62.5498047,140.404297 L64.3203125,140.404297 L64.3203125,143.015625 C64.3203125,143.763025 64.5208313,144.314451 64.921875,144.669922 C65.3229187,145.025392 65.9563759,145.203125 66.8222656,145.203125 L67.1777344,145.203125 C67.9023474,145.184896 68.4287093,145.025392 68.7568359,144.724609 C69.0849626,144.419269 69.2490234,143.95443 69.2490234,143.330078 L69.2490234,134.655273 L70.9853516,134.655273 L70.9853516,140.759766 C70.9853516,141.101564 71.0286454,141.374999 71.1152344,141.580078 C71.2063807,141.785157 71.3396801,141.934407 71.5151367,142.027832 C71.6905933,142.121257 71.9218736,142.167969 72.2089844,142.167969 L72.4003906,142.167969 C72.6464856,142.167969 72.8378899,142.249999 72.9746094,142.414062 C73.1158861,142.578126 73.1865234,142.790038 73.1865234,143.049805 L73.1865234,143.125 C73.1865234,143.293621 73.1569013,143.441731 73.0976562,143.569336 C73.0384112,143.701498 72.9484056,143.806315 72.8276367,143.883789 C72.7068679,143.961263 72.5644539,144 72.4003906,144 Z"
                          id="پیگیری-سوال-قبل" fill="#35546F"></path>
                    <g id="Group-24" transform="translate(320.000000, 161.000000)">
                        <rect id="Rectangle" stroke="#C9D7E1" x="0.5" y="0.5" width="37" height="37" rx="8"></rect>
                        <g id="flaticon1543582787-svg" transform="translate(6.000000, 10.000000)" fill="#6C8397">
                            <path d="M24.5116532,0.586063057 C24.1860735,0.195372594 23.7932252,0 23.333154,0 L1.66666363,0 C1.20659241,0 0.813880943,0.195427321 0.488346808,0.586063057 C0.162858279,0.976698793 0,1.44811043 0,2.00002432 L0,15.9998115 C0,16.5519443 0.162858279,17.0230823 0.488346808,17.4137728 C0.813926549,17.8044632 1.20659241,18 1.66666363,18 L23.333154,18 C23.7932252,18 24.1860735,17.8044632 24.5116532,17.4137728 C24.8370505,17.0230823 25,16.5519443 25,15.9998115 L25,2.00002432 C25,1.44811043 24.8370505,0.976698793 24.5116532,0.586063057 Z M23.333154,15.9998115 L1.66666363,15.9998115 L1.66666363,2.00002432 L23.333154,2.00002432 L23.333154,15.9998115 Z"
                                  id="Shape" fill-rule="nonzero"></path>
                            <path d="M3.24999316,14 L4.74995211,14 C4.9166507,14 5,13.9164842 5,13.75 L5,12.25 C5,12.0836799 4.91681489,12 4.74995211,12 L3.24999316,12 C3.08340402,12 3,12.0836799 3,12.25 L3,13.75 C3,13.9164842 3.08340402,14 3.24999316,14 Z"
                                  id="Path"></path>
                            <path d="M3.18748974,10 L5.81242817,10 C5.93740765,10 6,9.91627907 6,9.74982216 L6,8.24995896 C6,8.08333789 5.93740765,8.00016416 5.81242817,8 L3.18748974,8 C3.06255131,8 3,8.08333789 3,8.24995896 L3,9.74982216 C3,9.91627907 3.06255131,10 3.18748974,10 Z"
                                  id="Path"></path>
                            <path d="M3.24999316,6 L4.74995211,6 C4.9166507,6 5,5.91654353 5,5.74990423 L5,4.25009577 C5,4.08340174 4.91681489,4.00027363 4.74995211,4 L3.24999316,4 C3.08340402,4 3,4.08340174 3,4.25009577 L3,5.74990423 C3,5.91654353 3.08340402,6 3.24999316,6 Z"
                                  id="Path"></path>
                            <path d="M17.8037895,12 L7.1965115,12 C7.0655325,12 7,12.0835066 7,12.2501915 L7,13.7498085 C7,13.9161103 7.0655325,14 7.1965115,14 L17.8034025,14 C17.9343815,14 18,13.9164934 18,13.7498085 L18,12.2501915 C18.000043,12.0835613 17.9344245,12 17.8037895,12 Z"
                                  id="Path"></path>
                            <path d="M8,9.74982216 C8,9.91627907 8.08335614,10 8.24984949,10 L9.75015051,10 C9.91675332,10 10,9.91627907 10,9.74982216 L10,8.24995896 C10,8.08333789 9.91691752,8.00016416 9.75015051,8 L8.24984949,8 C8.08335614,8 8,8.08333789 8,8.24995896 L8,9.74982216 Z"
                                  id="Path"></path>
                            <path d="M6.25009577,6 L7.74990423,6 C7.91659826,6 8,5.91654353 8,5.74990423 L8,4.25009577 C8,4.08340174 7.91659826,4.00027363 7.74990423,4 L6.25009577,4 C6.08340174,4 6,4.08340174 6,4.25009577 L6,5.74990423 C6,5.91654353 6.08345647,6 6.25009577,6 Z"
                                  id="Path"></path>
                            <path d="M11,9.74982216 C11,9.91627907 11.0833972,10 11.2499726,10 L12.7498085,10 C12.9164934,10 13,9.91627907 13,9.74982216 L13,8.24995896 C13,8.08333789 12.9164934,8.00016416 12.7498085,8 L11.2499726,8 C11.0833972,8 11,8.08333789 11,8.24995896 L11,9.74982216 Z"
                                  id="Path"></path>
                            <path d="M9.25009577,6 L10.7499042,6 C10.9165983,6 11,5.91654353 11,5.74990423 L11,4.25009577 C11,4.08340174 10.9167624,4.00027363 10.7499042,4 L9.25009577,4 C9.08340174,4 9,4.08340174 9,4.25009577 L9,5.74990423 C9,5.91654353 9.08340174,6 9.25009577,6 Z"
                                  id="Path"></path>
                            <path d="M15,9.74982216 C15,9.91627907 15.0834702,10 15.2498084,10 L16.7501916,10 C16.9168582,10 17,9.91627907 17,9.74982216 L17,8.24995896 C17,8.08333789 16.9168035,8.00016416 16.7501916,8 L15.2498084,8 C15.0834702,8 15,8.08333789 15,8.24995896 L15,9.74982216 Z"
                                  id="Path"></path>
                            <path d="M21.7498085,12 L20.2501915,12 C20.0835066,12 20,12.0835066 20,12.2501915 L20,13.7498085 C20,13.9161103 20.0835066,14 20.2501915,14 L21.7498085,14 C21.9164934,14 22,13.9164934 22,13.7498085 L22,12.2501915 C22,12.0835613 21.9166575,12 21.7498085,12 Z"
                                  id="Path"></path>
                            <path d="M14.2498563,6 L15.7501437,6 C15.9168605,6 16,5.91654353 16,5.74990423 L16,4.25009577 C16,4.08340174 15.9168058,4.00027363 15.7501437,4 L14.2498563,4 C14.0831395,4 14,4.08340174 14,4.25009577 L14,5.74990423 C13.9999453,5.91654353 14.0831395,6 14.2498563,6 Z"
                                  id="Path"></path>
                            <path d="M17.2501916,6 L18.7498085,6 C18.9164934,6 19,5.91654353 19,5.74990423 L19,4.25009577 C19,4.08340174 18.9164934,4.00027363 18.7498085,4 L17.2501916,4 C17.0835066,4 17,4.08340174 17,4.25009577 L17,5.74990423 C16.9999453,5.91654353 17.0835066,6 17.2501916,6 Z"
                                  id="Path"></path>
                            <path d="M19,9.74979934 C19,9.91627143 19.0624684,10 19.1874872,10 L21.8123487,10 C21.9373675,10 22,9.91627143 22,9.74979934 L22,4.25009121 C22,4.08340022 21.9375316,4.00027362 21.8123487,4 L20.6875898,4 C20.562571,4 20.4999384,4.08340022 20.4999384,4.25009121 L20.4999384,7.99981758 L19.1875282,7.99981758 C19.0625094,7.99981758 19.000041,8.08316308 19.000041,8.24979934 L19.000041,9.74979934 L19,9.74979934 Z"
                                  id="Path"></path>
                        </g>
                    </g>
                    <g id="Group-25" transform="translate(94.000000, 160.000000)">
                        <rect id="Rectangle-Copy" stroke="#C9D7E1" x="0.5" y="0.5" width="37" height="37" rx="8"></rect>
                        <g id="flaticon1543583849-svg" transform="translate(10.000000, 11.000000)" fill="#6C8397">
                            <path d="M5,0.533175355 L5,4.93770363 C5.56221281,4.7528973 6.09214043,4.82759737 6.53677507,5.10279363 L8.89509567,6.73675393 C9.3253146,6.99973155 9.61302821,7.49750076 9.61302821,8.03317536 C9.61302821,8.56898883 9.3253146,9.066758 8.84268856,9.36403102 L6.58858157,10.9292617 C6.04874313,11.2658286 5.53037811,11.3027621 5,11.1285082 C5,11.2955421 5,14.5790136 5,14.4668246 C5,14.7615984 5.25783103,15 5.57662853,15 L10.7662853,15 L10.7662853,3.73222749 C10.7662853,3.1975248 11.0613569,2.69253555 11.5417305,2.39831716 L15,0 L5.57662853,0 C5.25783103,0 5,0.23854045 5,0.533175355 Z"
                                  id="Path"></path>
                            <path d="M17,0.527333871 C17,0.337407646 16.9032552,0.162313004 16.7464844,0.0685171843 C16.5897135,-0.0251413147 16.3973958,-0.0226693724 16.2425781,0.0752463039 L12.2425781,3.23930996 C12.0921875,3.33447905 12,3.50600315 12,3.69139752 L12,17.4726525 C12,17.6627161 12.0966146,17.8378108 12.2533854,17.9314692 C12.4097656,18.0249904 12.6022135,18.0227931 12.7572917,17.9248774 L16.7572917,14.7608138 C16.9076823,14.6655074 17,14.4939833 17,14.3085889 L17,0.527333871 Z M13.5009115,10.582025 C13.2247396,10.582025 13.0009115,10.3459562 13.0009115,10.0546811 C13.0009115,9.76340597 13.2247396,9.52733715 13.5009115,9.52733715 C13.7770833,9.52733715 14.0009115,9.76340597 14.0009115,10.0546811 C14.0009115,10.3459562 13.7770833,10.582025 13.5009115,10.582025 Z"
                                  id="Shape" fill-rule="nonzero"></path>
                            <path d="M0.5,8.99995964 L5,8.99995964 L5,9.49996151 C5,9.6845976 5.1015625,9.8539993 5.2641927,9.94097879 C5.42447917,10.0269166 5.62226563,10.0193645 5.77734373,9.91597869 L7.77734373,8.4159731 C7.91653647,8.32326442 8,8.16701383 8,8.00008611 C8,7.83302822 7.91653647,7.67677764 7.77734373,7.58406896 L5.77734373,6.08367272 C5.62447917,5.98171921 5.42630207,5.97234418 5.2641927,6.05880283 C5.1015625,6.14578232 5,6.31518399 5,6.49982011 L5,7.00008238 L0.5,7.00008238 C0.2235677,7.00008238 0,7.22365095 0,7.50008424 L0,8.50008798 C0,8.77639111 0.2235677,8.99995964 0.5,8.99995964 Z"
                                  id="Path"></path>
                        </g>
                    </g>
                    <rect id="Rectangle" fill="#C4D3E0" x="292" y="211" width="94" height="4" rx="2"></rect>
                    <rect id="Rectangle-Copy-2" fill="#C4D3E0" x="70" y="210" width="86" height="4" rx="2"></rect>
                </g>
            </g>
        </g>
    </g>
</svg>