<svg width="384px" height="452px" viewBox="0 0 384 452" version="1.1" xmlns="http://www.w3.org/2000/svg" xmlns:xlink="http://www.w3.org/1999/xlink">
    <defs>
        <linearGradient x1="50%" y1="0%" x2="50%" y2="100%" id="linearGradient-1">
            <stop stop-color="#CFDDF3" offset="0%"></stop>
            <stop stop-color="#A1B8E3" offset="100%"></stop>
        </linearGradient>
        <linearGradient x1="227.604499%" y1="-30.2653238%" x2="50%" y2="100%" id="linearGradient-2">
            <stop stop-color="#CFDDF3" offset="0%"></stop>
            <stop stop-color="#A1B8E3" offset="100%"></stop>
        </linearGradient>
        <linearGradient x1="154.2902%" y1="35.5906696%" x2="57.6239868%" y2="78.8475359%" id="linearGradient-3">
            <stop stop-color="#47689B" offset="0%"></stop>
            <stop stop-color="#223762" offset="100%"></stop>
        </linearGradient>
        <linearGradient x1="104.045238%" y1="16.8405933%" x2="6.07416571%" y2="100%" id="linearGradient-4">
            <stop stop-color="#47689B" offset="0%"></stop>
            <stop stop-color="#223762" offset="100%"></stop>
        </linearGradient>
        <linearGradient x1="15.7963008%" y1="121.63627%" x2="148.737665%" y2="121.636271%" id="linearGradient-5">
            <stop stop-color="#365383" offset="0%"></stop>
            <stop stop-color="#1C2C4C" offset="100%"></stop>
        </linearGradient>
        <linearGradient x1="15.7963008%" y1="121.63627%" x2="88.7370862%" y2="18.4978525%" id="linearGradient-6">
            <stop stop-color="#365383" offset="0%"></stop>
            <stop stop-color="#1C2C4C" offset="100%"></stop>
        </linearGradient>
        <rect id="path-7" x="0" y="0" width="165.672731" height="243.787891" rx="12"></rect>
        <filter x="-146.7%" y="-99.7%" width="393.3%" height="299.4%" filterUnits="objectBoundingBox" id="filter-9">
            <feOffset dx="0" dy="0" in="SourceAlpha" result="shadowOffsetOuter1"></feOffset>
            <feGaussianBlur stdDeviation="81" in="shadowOffsetOuter1" result="shadowBlurOuter1"></feGaussianBlur>
            <feColorMatrix values="0 0 0 0 1   0 0 0 0 1   0 0 0 0 1  0 0 0 1 0" type="matrix" in="shadowBlurOuter1"></feColorMatrix>
        </filter>
        <linearGradient x1="55.1148219%" y1="227.006388%" x2="23.1723395%" y2="81.0265899%" id="linearGradient-10">
            <stop stop-color="#EDF3FD" offset="0%"></stop>
            <stop stop-color="#D6E3FA" offset="100%"></stop>
        </linearGradient>
        <filter x="-22.3%" y="-71.3%" width="144.7%" height="242.6%" filterUnits="objectBoundingBox" id="filter-11">
            <feOffset dx="17" dy="17" in="SourceAlpha" result="shadowOffsetOuter1"></feOffset>
            <feColorMatrix values="0 0 0 0 1   0 0 0 0 0.706612669   0 0 0 0 0.0893702652  0 0 0 0.17334692 0" type="matrix" in="shadowOffsetOuter1" result="shadowMatrixOuter1"></feColorMatrix>
            <feMerge>
                <feMergeNode in="shadowMatrixOuter1"></feMergeNode>
                <feMergeNode in="SourceGraphic"></feMergeNode>
            </feMerge>
        </filter>
        <linearGradient x1="90.6083424%" y1="172.734811%" x2="32.9575052%" y2="50%" id="linearGradient-12">
            <stop stop-color="#FFE883" offset="0%"></stop>
            <stop stop-color="#FECC4C" offset="100%"></stop>
        </linearGradient>
        <path d="M19.775354,0 L151.387554,0 C155.714186,-3.299976e-15 160.328247,3.05659394 161.693349,6.82709365 L170.838767,32.0873401 C172.203869,35.8578399 169.132031,38.9144338 163.977625,38.9144338 L7.18528358,38.9144338 C2.03087769,38.9144338 -1.0409605,35.8578399 0.324140927,32.0873401 L9.46955966,6.82709365 C10.8346611,3.05659394 15.4487224,1.649988e-15 19.775354,0 Z"
              id="path-13"></path>
        <filter x="-26.6%" y="-100.0%" width="153.2%" height="300.0%" filterUnits="objectBoundingBox" id="filter-15">
            <feOffset dx="-6" dy="7" in="SourceAlpha" result="shadowOffsetOuter1"></feOffset>
            <feGaussianBlur stdDeviation="8.5" in="shadowOffsetOuter1" result="shadowBlurOuter1"></feGaussianBlur>
            <feColorMatrix values="0 0 0 0 0.260845908   0 0 0 0 0.43670489   0 0 0 0 0.801950468  0 0 0 0.185999774 0" type="matrix" in="shadowBlurOuter1" result="shadowMatrixOuter1"></feColorMatrix>
            <feMerge>
                <feMergeNode in="shadowMatrixOuter1"></feMergeNode>
                <feMergeNode in="SourceGraphic"></feMergeNode>
            </feMerge>
        </filter>
        <path d="M19.775354,0 L151.387554,0 C155.714186,-3.299976e-15 160.328247,3.05659394 161.693349,6.82709365 L170.838767,32.0873401 C172.203869,35.8578399 169.132031,38.9144338 163.977625,38.9144338 L7.18528358,38.9144338 C2.03087769,38.9144338 -1.0409605,35.8578399 0.324140927,32.0873401 L9.46955966,6.82709365 C10.8346611,3.05659394 15.4487224,1.649988e-15 19.775354,0 Z"
              id="path-16"></path>
        <filter x="-26.6%" y="-100.0%" width="153.2%" height="300.0%" filterUnits="objectBoundingBox" id="filter-18">
            <feOffset dx="-6" dy="7" in="SourceAlpha" result="shadowOffsetOuter1"></feOffset>
            <feGaussianBlur stdDeviation="8.5" in="shadowOffsetOuter1" result="shadowBlurOuter1"></feGaussianBlur>
            <feColorMatrix values="0 0 0 0 0.260845908   0 0 0 0 0.43670489   0 0 0 0 0.801950468  0 0 0 0.185999774 0" type="matrix" in="shadowBlurOuter1" result="shadowMatrixOuter1"></feColorMatrix>
            <feMerge>
                <feMergeNode in="shadowMatrixOuter1"></feMergeNode>
                <feMergeNode in="SourceGraphic"></feMergeNode>
            </feMerge>
        </filter>
        <path d="M19.775354,0 L151.387554,0 C155.714186,-3.299976e-15 160.328247,3.05659394 161.693349,6.82709365 L170.838767,32.0873401 C172.203869,35.8578399 169.132031,38.9144338 163.977625,38.9144338 L7.18528358,38.9144338 C2.03087769,38.9144338 -1.0409605,35.8578399 0.324140927,32.0873401 L9.46955966,6.82709365 C10.8346611,3.05659394 15.4487224,1.649988e-15 19.775354,0 Z"
              id="path-19"></path>
        <path d="M19.7676413,0 L151.32851,0 C155.653455,-3.32177002e-15 160.265716,3.0767806 161.630285,6.8721818 L170.772137,32.2992545 C172.136706,36.0946557 169.066066,39.1714363 163.913671,39.1714363 L7.18248119,39.1714363 C2.03008562,39.1714363 -1.04055451,36.0946557 0.324014507,32.2992545 L9.46586637,6.8721818 C10.8304354,3.0767806 15.4426971,1.66088501e-15 19.7676413,0 Z"
              id="path-21"></path>
    </defs>
    <g id="Welcome" stroke="none" stroke-width="1" fill="none" fill-rule="evenodd">
        <g id="Software" transform="translate(-981.000000, -3529.000000)">
            <g id="Group-53" transform="translate(323.000000, 3573.000000)">
                <g id="Group-51" transform="translate(708.000000, 5.000000)">
                    <g id="Group-49" transform="translate(0.000000, 114.000000)">
                        <g id="plant" transform="translate(246.828744, 35.744681)">
                            <path d="M19.5526735,128.652954 C19.5526735,111.897635 33.1572509,60.0453025 51.5208176,31.6729351" id="stem" stroke="url(#linearGradient-1)" stroke-width="6" stroke-linecap="round"></path>
                            <path d="M35.1712258,41.4954688 C38.4635085,36.8849302 40.1903054,31.7927956 40.3516163,26.219065 C40.5935828,17.858469 38.6665481,11.1427436 36.0474638,11.2190725 C33.4283795,11.2954014 31.1090397,18.1348804 30.8670732,26.4954764 C30.7057622,32.069207 32.1404798,37.0692045 35.1712258,41.4954688 Z"
                                  id="leaf" fill="url(#linearGradient-2)" transform="translate(35.613485, 26.356949) rotate(-30.000000) translate(-35.613485, -26.356949) "></path>
                            <path d="M62.5570944,56.7257208 C65.7859185,52.3125617 67.3939321,47.3793667 67.3811352,41.9261358 C67.3619399,33.7462895 65.1710215,27.110138 62.487582,27.1038768 C59.8041425,27.0976155 57.6443458,33.7236154 57.6635412,41.9034617 C57.6763381,47.3566926 59.3075225,52.2974456 62.5570944,56.7257208 Z"
                                  id="leaf" fill="url(#linearGradient-2)" transform="translate(62.522313, 41.914797) rotate(88.000000) translate(-62.522313, -41.914797) "></path>
                            <path d="M53.7163348,78.8423488 C56.9608456,74.4179695 58.5863022,69.4792379 58.5927045,64.0261541 C58.6023079,55.8465283 56.434653,49.2181709 53.7511118,49.2213036 C51.0675707,49.2244362 48.8843456,55.8578725 48.8747422,64.0374983 C48.8683399,69.4905822 50.4822041,74.4255324 53.7163348,78.8423488 Z"
                                  id="leaf" fill="url(#linearGradient-2)" transform="translate(53.733730, 64.031826) rotate(91.000000) translate(-53.733730, -64.031826) "></path>
                            <path d="M46.5545465,100.290082 C49.7990573,95.8657029 51.4245138,90.9269713 51.4309161,85.4738875 C51.4405195,77.2942617 49.2728647,70.6659044 46.5893235,70.669037 C43.9057823,70.6721696 41.7225573,77.3056059 41.7129538,85.4852317 C41.7065516,90.9383156 43.3204158,95.8732658 46.5545465,100.290082 Z"
                                  id="leaf" fill="url(#linearGradient-2)" transform="translate(46.571941, 85.479559) rotate(91.000000) translate(-46.571941, -85.479559) "></path>
                            <path d="M61.6082465,30.8088555 C64.6354461,26.3938238 66.0640777,21.4031921 65.8941414,15.8369605 C65.6392369,7.48761315 63.3070945,0.653792085 60.6851555,0.57319398 C58.0632166,0.492595876 56.1443561,7.19574159 56.3992606,15.545089 C56.5691969,21.1113206 58.3055256,26.1992428 61.6082465,30.8088555 Z"
                                  id="leaf" fill="url(#linearGradient-2)" transform="translate(61.142113, 15.690665) rotate(33.000000) translate(-61.142113, -15.690665) "></path>
                            <path d="M23.3999724,64.8138063 C26.7247005,60.2131523 28.4788453,55.1404691 28.6624069,49.5957567 C28.9377492,41.278688 27.0280952,34.6074082 24.3970753,34.6950362 C21.7660553,34.7826643 19.4099832,41.5960172 19.1346408,49.9130859 C18.9510792,55.4577984 20.3728565,60.4247052 23.3999724,64.8138063 Z"
                                  id="leaf" fill="url(#linearGradient-2)" transform="translate(23.903853, 49.753995) rotate(-41.000000) translate(-23.903853, -49.753995) "></path>
                            <path d="M14.6088156,88.2255123 C17.9439109,83.6374452 19.7036894,78.5794594 19.8881509,73.051555 C20.1648432,64.7596983 18.2498112,58.1095545 15.6108071,58.1980431 C12.971803,58.2865316 10.608164,65.0801437 10.3314717,73.3720004 C10.1470102,78.8999048 11.5727915,83.8510754 14.6088156,88.2255123 Z"
                                  id="leaf" fill="url(#linearGradient-2)" transform="translate(15.115177, 73.211341) rotate(-47.000000) translate(-15.115177, -73.211341) "></path>
                        </g>
                        <g id="plant" opacity="0.300000012" transform="translate(307.322884, 136.505465) scale(-1, 1) rotate(-18.000000) translate(-307.322884, -136.505465) translate(277.822884, 87.505465)">
                            <path d="M14.2621414,97.0002433 C14.2621414,84.3672646 24.6148784,45.2722519 38.5890849,23.8803876" id="stem" stroke="url(#linearGradient-1)" stroke-width="4.5" stroke-linecap="round"></path>
                            <path d="M26.2116246,31.3002576 C28.6970483,27.8320936 29.9894796,23.9942425 30.0889186,19.7867042 C30.238077,13.4753968 28.7439869,8.39753908 26.751775,8.44499155 C24.7595631,8.49244402 23.0236394,13.6472374 22.874481,19.9585449 C22.7750421,24.1660831 23.8874233,27.946654 26.2116246,31.3002576 Z"
                                  id="leaf" fill="url(#linearGradient-2)" transform="translate(26.483772, 19.872460) rotate(-30.000000) translate(-26.483772, -19.872460) "></path>
                            <path d="M46.982518,42.8253352 C49.4287536,39.4802218 50.6479018,35.7415852 50.6399627,31.6094251 C50.6280539,25.4111851 48.9712522,20.3833864 46.9393925,20.3795225 C44.9075328,20.3756585 43.2700391,25.3971925 43.2819479,31.5954325 C43.2898871,35.7275925 44.5234105,39.4708934 46.982518,42.8253352 Z"
                                  id="leaf" fill="url(#linearGradient-2)" transform="translate(46.960942, 31.602428) rotate(88.000000) translate(-46.960942, -31.602428) "></path>
                            <path d="M40.2622634,59.5006203 C42.7182279,56.1485837 43.9481962,52.4065314 43.9521682,48.2744633 C43.9581262,42.0763611 42.3157593,37.0533738 40.2838392,37.055307 C38.251919,37.0572402 36.5998923,42.0833619 36.5939343,48.281464 C36.5899623,52.4135321 37.8127387,56.1532508 40.2622634,59.5006203 Z"
                                  id="leaf" fill="url(#linearGradient-2)" transform="translate(40.273055, 48.277963) rotate(91.000000) translate(-40.273055, -48.277963) "></path>
                            <path d="M34.8123248,75.6715304 C37.2682894,72.3194938 38.4982577,68.5774415 38.5022297,64.4453734 C38.5081877,58.2472713 36.8658208,53.2242839 34.8339006,53.2262171 C32.8019805,53.2281503 31.1499538,58.254272 31.1439958,64.4523741 C31.1400238,68.5844422 32.3628002,72.3241609 34.8123248,75.6715304 Z"
                                  id="leaf" fill="url(#linearGradient-2)" transform="translate(34.823116, 64.448873) rotate(91.000000) translate(-34.823116, -64.448873) "></path>
                            <path d="M46.197865,23.2455144 C48.5199736,19.8988955 49.6286224,16.1241648 49.5238113,11.9213222 C49.3665947,5.61705828 47.6226193,0.465840493 45.6285332,0.41575523 C43.6344471,0.365669968 42.1453702,5.4356835 42.3025868,11.7399474 C42.4073979,15.94279 43.705824,19.777979 46.197865,23.2455144 Z"
                                  id="leaf" fill="url(#linearGradient-2)" transform="translate(45.910900, 11.830451) rotate(33.000000) translate(-45.910900, -11.830451) "></path>
                            <path d="M17.2624142,48.8916993 C19.768434,45.4298928 21.0781309,41.6043036 21.191505,37.4149317 C21.361566,31.1308739 19.8781757,26.080727 17.8782599,26.1351129 C15.878344,26.1894988 14.1192302,31.3278227 13.9491691,37.6118805 C13.835795,41.8012524 14.94021,45.561192 17.2624142,48.8916993 Z"
                                  id="leaf" fill="url(#linearGradient-2)" transform="translate(17.573018, 37.513189) rotate(-41.000000) translate(-17.573018, -37.513189) "></path>
                            <path d="M10.5726391,66.5492595 C13.0852496,63.095401 14.3985768,59.2790447 14.5126205,55.1001907 C14.6836861,48.8319096 13.1970485,43.7949407 11.1921224,43.8498057 C9.18719639,43.9046708 7.42320665,49.0305934 7.25214106,55.2988745 C7.13809733,59.4777285 8.24493002,63.2278569 10.5726391,66.5492595 Z"
                                  id="leaf" fill="url(#linearGradient-2)" transform="translate(10.885086, 55.199311) rotate(-47.000000) translate(-10.885086, -55.199311) "></path>
                        </g>
                    </g>
                    <g id="Group-50" transform="translate(33.000000, 0.000000)">
                        <g id="phone">
                            <path d="M41.0986019,0 L185.506648,0 C195.447773,-1.82615513e-15 203.506648,8.0588745 203.506648,18 L203.506648,323.957512 C203.506648,333.898638 195.447773,341.957512 185.506648,341.957512 L41.0986019,341.957512 C31.1574764,341.957512 23.0986019,333.898638 23.0986019,323.957512 L23.0986019,18 C23.0986019,8.0588745 31.1574764,1.82615513e-15 41.0986019,0 Z"
                                  id="side" fill="url(#linearGradient-3)"></path>
                            <path d="M26.3632869,0 L170.771333,0 C180.712458,-1.82615513e-15 188.771333,8.0588745 188.771333,18 L188.771333,323.957512 C188.771333,333.898638 180.712458,341.957512 170.771333,341.957512 L26.3632869,341.957512 C16.4221614,341.957512 8.3632869,333.898638 8.3632869,323.957512 L8.3632869,18 C8.3632869,8.0588745 16.4221614,1.82615513e-15 26.3632869,0 Z"
                                  id="front" fill="url(#linearGradient-4)"></path>
                            <rect id="speaker" fill="url(#linearGradient-5)" x="51.3744767" y="22.0881647" width="94.7839182" height="6.13560129" rx="3.06780065"></rect>
                            <ellipse id="button" fill="url(#linearGradient-6)" cx="98.368184" cy="317.415107" rx="16.7265738" ry="17.1796836"></ellipse>
                            <g id="screen" transform="translate(15.930070, 49.084810)">
                                <mask id="mask-8" fill="white">
                                    <use xlink:href="#path-7"></use>
                                </mask>
                                <g>
                                    <use fill="black" fill-opacity="1" filter="url(#filter-9)" xlink:href="#path-7"></use>
                                    <use fill="#FFFFFF" fill-rule="evenodd" xlink:href="#path-7"></use>
                                </g>
                                <g id="4" opacity="0.600000024" mask="url(#mask-8)">
                                    <g transform="translate(7.965035, 186.931319)">
                                        <rect id="Rectangle-16" fill="url(#linearGradient-10)" x="0" y="0" width="149.742661" height="46.6305698" rx="20"></rect>
                                        <ellipse id="Oval-Copy-2" fill="#A1B8E3" cx="22.7003502" cy="23.3152849" rx="16.7265738" ry="17.1796836"></ellipse>
                                        <rect id="Rectangle" fill="#A1B8E3" x="45.4007003" y="8.18080173" width="92.7926594" height="6.95368147" rx="3.47684073"></rect>
                                        <rect id="Rectangle-Copy" fill="#A1B8E3" x="45.4007003" y="19.6339241" width="70.8888128" height="6.95368147" rx="3.47684073"></rect>
                                        <rect id="Rectangle-Copy-2" fill="#A1B8E3" opacity="0.5" x="45.4007003" y="33.5412871" width="26.284616" height="4.90848104" rx="2.45424052"></rect>
                                    </g>
                                </g>
                                <g id="3" opacity="0.600000024" mask="url(#mask-8)">
                                    <g transform="translate(7.965035, 130.483788)">
                                        <rect id="Rectangle-16" fill="url(#linearGradient-10)" x="0" y="0" width="149.742661" height="46.6305698" rx="20"></rect>
                                        <ellipse id="Oval-Copy-2" fill="#A1B8E3" cx="22.7003502" cy="23.3152849" rx="16.7265738" ry="17.1796836"></ellipse>
                                        <rect id="Rectangle" fill="#A1B8E3" x="45.4007003" y="8.18080173" width="92.7926594" height="6.95368147" rx="3.47684073"></rect>
                                        <rect id="Rectangle-Copy" fill="#A1B8E3" x="45.4007003" y="19.6339241" width="70.8888128" height="6.95368147" rx="3.47684073"></rect>
                                        <rect id="Rectangle-Copy-2" fill="#A1B8E3" opacity="0.5" x="45.4007003" y="33.5412871" width="26.284616" height="4.90848104" rx="2.45424052"></rect>
                                    </g>
                                </g>
                                <g id="1" opacity="0.600000024" mask="url(#mask-8)">
                                    <g transform="translate(7.965035, 12.680243)">
                                        <rect id="Rectangle-16" fill="url(#linearGradient-10)" x="0" y="0" width="149.742661" height="46.6305698" rx="20"></rect>
                                        <ellipse id="Oval-Copy-2" fill="#A1B8E3" cx="22.7003502" cy="23.3152849" rx="16.7265738" ry="17.1796836"></ellipse>
                                        <rect id="Rectangle" fill="#A1B8E3" x="45.4007003" y="8.18080173" width="92.7926594" height="6.95368147" rx="3.47684073"></rect>
                                        <rect id="Rectangle-Copy" fill="#A1B8E3" x="45.4007003" y="19.6339241" width="70.8888128" height="6.95368147" rx="3.47684073"></rect>
                                        <rect id="Rectangle-Copy-2" fill="#A1B8E3" opacity="0.5" x="45.4007003" y="33.5412871" width="26.284616" height="4.90848104" rx="2.45424052"></rect>
                                    </g>
                                </g>
                            </g>
                            <g id="yellow-comment" filter="url(#filter-11)" transform="translate(0.000000, 116.985465)">
                                <rect id="Rectangle-16" fill="url(#linearGradient-12)" x="0" y="0" width="149.742661" height="46.6305698" rx="20"></rect>
                                <ellipse id="Oval-Copy-2" fill="#FFB417" cx="22.7003502" cy="23.3152849" rx="16.7265738" ry="17.1796836"></ellipse>
                                <rect id="Rectangle" fill="#FFB417" x="45.4007003" y="8.18080173" width="92.7926594" height="6.95368147" rx="3.47684073"></rect>
                                <rect id="Rectangle-Copy" fill="#FFB417" x="45.4007003" y="19.6339241" width="70.8888128" height="6.95368147" rx="3.47684073"></rect>
                                <rect id="Rectangle-Copy-2" fill="#FFB417" opacity="0.5" x="45.4007003" y="33.5412871" width="26.284616" height="4.90848104" rx="2.45424052"></rect>
                            </g>
                        </g>
                        <g id="comment-stack" transform="translate(90.560458, 304.189070)">
                            <g id="other-comments" transform="translate(97.265924, 52.565111) rotate(-2.000000) translate(-97.265924, -52.565111) translate(4.765924, 13.565111)">
                                <g id="3" transform="translate(93.294702, 51.910134) rotate(2.000000) translate(-93.294702, -51.910134) translate(6.794702, 28.910134)">
                                    <path d="M0,34.3678447 L171.174201,34.3678447 L171.174201,34.3678447 C171.174201,40.5237917 166.18382,45.5141727 160.027873,45.5141727 L11.146328,45.5141727 C4.99038103,45.5141727 7.53886076e-16,40.5237917 0,34.3678447 Z"
                                          id="side" fill="#CAD7F1"></path>
                                    <g id="top" transform="translate(0.391703, 0.000000)">
                                        <mask id="mask-14" fill="white">
                                            <use xlink:href="#path-13"></use>
                                        </mask>
                                        <use id="Mask" fill="#EBF1FD" xlink:href="#path-13"></use>
                                        <path d="M25.5747089,33.782527 C36.1702342,33.782527 45.8597629,27.3636797 47.216877,19.4456303 C48.5739911,11.5275809 42.1231309,5.10873367 32.8084774,5.10873367 C23.493824,5.10873367 13.8042952,11.5275809 11.1663093,19.4456303 C8.52832344,27.3636797 14.9791837,33.782527 25.5747089,33.782527 Z"
                                              id="Oval-Copy-2" fill="#CAD7F1" mask="url(#mask-14)"></path>
                                        <path d="M59.1092707,6.966455 L146.556979,6.966455 C148.457518,6.966455 150.395978,8.26550743 150.886653,9.8679698 C151.377327,11.4704322 150.191877,12.7694846 148.238876,12.7694846 L58.3772822,12.7694846 C56.4242817,12.7694846 55.0261877,11.4704322 55.2545517,9.8679698 C55.4829158,8.26550743 57.2087322,6.966455 59.1092707,6.966455 Z"
                                              id="Rectangle" fill="#CAD7F1" mask="url(#mask-14)"></path>
                                        <path d="M57.6978922,16.719492 L125.842275,16.719492 C127.829222,16.719492 129.700137,18.0185444 130.021081,19.6210068 C130.342025,21.2234692 128.948934,22.5225216 126.909526,22.5225216 L56.9659038,22.5225216 C54.9264953,22.5225216 53.4583537,21.2234692 53.6867177,19.6210068 C53.9150818,18.0185444 55.7109458,16.719492 57.6978922,16.719492 Z"
                                              id="Rectangle-Copy" fill="#CAD7F1" mask="url(#mask-14)"></path>
                                        <path d="M55.4695592,28.3302503 L79.5323822,28.3302503 C81.0089966,28.3302503 82.1919019,29.2472285 82.1744751,30.3783784 C82.1570483,31.5095284 80.9246976,32.4265065 79.4219429,32.4265065 L54.9331402,32.4265065 C53.4303855,32.4265065 52.342839,31.5095284 52.5040372,30.3783784 C52.6652353,29.2472285 53.9929448,28.3302503 55.4695592,28.3302503 Z"
                                              id="Rectangle-Copy-2" fill="#CAD7F1" opacity="0.5" mask="url(#mask-14)"></path>
                                    </g>
                                </g>
                                <g id="2" filter="url(#filter-15)" transform="translate(87.690004, 37.629205) rotate(3.000000) translate(-87.690004, -37.629205) translate(1.190004, 14.629205)">
                                    <path d="M0,34.3678447 L171.174201,34.3678447 L171.174201,34.3678447 C171.174201,40.5237917 166.18382,45.5141727 160.027873,45.5141727 L11.146328,45.5141727 C4.99038103,45.5141727 7.53886076e-16,40.5237917 0,34.3678447 Z"
                                          id="side" fill="#CAD7F1"></path>
                                    <g id="top" transform="translate(0.391703, 0.000000)">
                                        <mask id="mask-17" fill="white">
                                            <use xlink:href="#path-16"></use>
                                        </mask>
                                        <use id="Mask" fill="#EBF1FD" xlink:href="#path-16"></use>
                                        <path d="M25.5747089,33.782527 C36.1702342,33.782527 45.8597629,27.3636797 47.216877,19.4456303 C48.5739911,11.5275809 42.1231309,5.10873367 32.8084774,5.10873367 C23.493824,5.10873367 13.8042952,11.5275809 11.1663093,19.4456303 C8.52832344,27.3636797 14.9791837,33.782527 25.5747089,33.782527 Z"
                                              id="Oval-Copy-2" fill="#CAD7F1" mask="url(#mask-17)"></path>
                                        <path d="M59.1092707,6.966455 L146.556979,6.966455 C148.457518,6.966455 150.395978,8.26550743 150.886653,9.8679698 C151.377327,11.4704322 150.191877,12.7694846 148.238876,12.7694846 L58.3772822,12.7694846 C56.4242817,12.7694846 55.0261877,11.4704322 55.2545517,9.8679698 C55.4829158,8.26550743 57.2087322,6.966455 59.1092707,6.966455 Z"
                                              id="Rectangle" fill="#CAD7F1" mask="url(#mask-17)"></path>
                                        <path d="M57.6978922,16.719492 L125.842275,16.719492 C127.829222,16.719492 129.700137,18.0185444 130.021081,19.6210068 C130.342025,21.2234692 128.948934,22.5225216 126.909526,22.5225216 L56.9659038,22.5225216 C54.9264953,22.5225216 53.4583537,21.2234692 53.6867177,19.6210068 C53.9150818,18.0185444 55.7109458,16.719492 57.6978922,16.719492 Z"
                                              id="Rectangle-Copy" fill="#CAD7F1" mask="url(#mask-17)"></path>
                                        <path d="M55.4695592,28.3302503 L79.5323822,28.3302503 C81.0089966,28.3302503 82.1919019,29.2472285 82.1744751,30.3783784 C82.1570483,31.5095284 80.9246976,32.4265065 79.4219429,32.4265065 L54.9331402,32.4265065 C53.4303855,32.4265065 52.342839,31.5095284 52.5040372,30.3783784 C52.6652353,29.2472285 53.9929448,28.3302503 55.4695592,28.3302503 Z"
                                              id="Rectangle-Copy-2" fill="#CAD7F1" opacity="0.5" mask="url(#mask-17)"></path>
                                    </g>
                                </g>
                                <g id="1" filter="url(#filter-18)" transform="translate(11.082796, 0.157194)">
                                    <path d="M0,34.3678447 L171.174201,34.3678447 L171.174201,34.3678447 C171.174201,40.5237917 166.18382,45.5141727 160.027873,45.5141727 L11.146328,45.5141727 C4.99038103,45.5141727 7.53886076e-16,40.5237917 0,34.3678447 Z"
                                          id="side" fill="#CAD7F1"></path>
                                    <g id="top" transform="translate(0.391703, 0.000000)">
                                        <mask id="mask-20" fill="white">
                                            <use xlink:href="#path-19"></use>
                                        </mask>
                                        <use id="Mask" fill="#EBF1FD" xlink:href="#path-19"></use>
                                        <path d="M25.5747089,33.782527 C36.1702342,33.782527 45.8597629,27.3636797 47.216877,19.4456303 C48.5739911,11.5275809 42.1231309,5.10873367 32.8084774,5.10873367 C23.493824,5.10873367 13.8042952,11.5275809 11.1663093,19.4456303 C8.52832344,27.3636797 14.9791837,33.782527 25.5747089,33.782527 Z"
                                              id="Oval-Copy-2" fill="#CAD7F1" mask="url(#mask-20)"></path>
                                        <path d="M59.1092707,6.966455 L146.556979,6.966455 C148.457518,6.966455 150.395978,8.26550743 150.886653,9.8679698 C151.377327,11.4704322 150.191877,12.7694846 148.238876,12.7694846 L58.3772822,12.7694846 C56.4242817,12.7694846 55.0261877,11.4704322 55.2545517,9.8679698 C55.4829158,8.26550743 57.2087322,6.966455 59.1092707,6.966455 Z"
                                              id="Rectangle" fill="#CAD7F1" mask="url(#mask-20)"></path>
                                        <path d="M57.6978922,16.719492 L125.842275,16.719492 C127.829222,16.719492 129.700137,18.0185444 130.021081,19.6210068 C130.342025,21.2234692 128.948934,22.5225216 126.909526,22.5225216 L56.9659038,22.5225216 C54.9264953,22.5225216 53.4583537,21.2234692 53.6867177,19.6210068 C53.9150818,18.0185444 55.7109458,16.719492 57.6978922,16.719492 Z"
                                              id="Rectangle-Copy" fill="#CAD7F1" mask="url(#mask-20)"></path>
                                        <path d="M55.4695592,28.3302503 L79.5323822,28.3302503 C81.0089966,28.3302503 82.1919019,29.2472285 82.1744751,30.3783784 C82.1570483,31.5095284 80.9246976,32.4265065 79.4219429,32.4265065 L54.9331402,32.4265065 C53.4303855,32.4265065 52.342839,31.5095284 52.5040372,30.3783784 C52.6652353,29.2472285 53.9929448,28.3302503 55.4695592,28.3302503 Z"
                                              id="Rectangle-Copy-2" fill="#CAD7F1" opacity="0.5" mask="url(#mask-20)"></path>
                                    </g>
                                </g>
                            </g>
                            <g id="top-comment">
                                <path d="M0,34.5948201 L171.10744,34.5948201 L171.10744,34.5948201 C171.10744,40.7914228 166.084101,45.8147618 159.887498,45.8147618 L11.2199417,45.8147618 C5.02333899,45.8147618 7.58864963e-16,40.7914228 0,34.5948201 Z"
                                      id="side" fill="#C6D5EF"></path>
                                <g id="top" transform="translate(0.391550, 0.000000)">
                                    <mask id="mask-22" fill="white">
                                        <use xlink:href="#path-21"></use>
                                    </mask>
                                    <use id="Mask" fill="#EBF1FD" xlink:href="#path-21"></use>
                                    <path d="M25.5647343,34.0056368 C36.1561271,34.0056368 45.8418768,27.5443976 47.1984616,19.5740551 C48.5550464,11.6037125 42.1067022,5.14247326 32.7956816,5.14247326 C23.484661,5.14247326 13.7989113,11.6037125 11.1619543,19.5740551 C8.52499724,27.5443976 14.9733415,34.0056368 25.5647343,34.0056368 Z"
                                          id="Oval-Copy-2" fill="#AABFE5" opacity="0.5" mask="url(#mask-22)"></path>
                                    <path d="M59.086217,7.01246354 L146.499819,7.01246354 C148.399617,7.01246354 150.337321,8.3200953 150.827804,9.93314081 C151.318287,11.5461863 150.133299,12.8538181 148.181061,12.8538181 L58.354514,12.8538181 C56.4022753,12.8538181 55.0047265,11.5461863 55.2330015,9.93314081 C55.4612764,8.3200953 57.1864198,7.01246354 59.086217,7.01246354 Z"
                                          id="Rectangle" fill="#AABFE5" opacity="0.5" mask="url(#mask-22)"></path>
                                    <path d="M57.6753891,16.8299125 L125.793195,16.8299125 C127.779366,16.8299125 129.649551,18.1375443 129.97037,19.7505898 C130.291189,21.3636353 128.898642,22.671267 126.860029,22.671267 L56.9436861,22.671267 C54.905073,22.671267 53.437504,21.3636353 53.665779,19.7505898 C53.894054,18.1375443 55.6892175,16.8299125 57.6753891,16.8299125 Z"
                                          id="Rectangle-Copy" fill="#AABFE5" opacity="0.5" mask="url(#mask-22)"></path>
                                    <path d="M55.4479252,28.5173517 L79.5013631,28.5173517 C80.9774017,28.5173517 82.1598456,29.4403859 82.1424256,30.5790063 C82.1250056,31.7176266 80.8931356,32.6406608 79.390967,32.6406608 L54.9117153,32.6406608 C53.4095467,32.6406608 52.3224244,31.7176266 52.4835597,30.5790063 C52.644695,29.4403859 53.9718866,28.5173517 55.4479252,28.5173517 Z"
                                          id="Rectangle-Copy-2" fill="#A1B8E3" opacity="0.300000012" mask="url(#mask-22)"></path>
                                </g>
                            </g>
                        </g>
                    </g>
                </g>
            </g>
        </g>
    </g>
</svg>