<svg width="584px" height="408px" viewBox="0 0 584 408" version="1.1" xmlns="http://www.w3.org/2000/svg" xmlns:xlink="http://www.w3.org/1999/xlink">
    <defs>
        <rect id="path-1" x="0" y="0" width="520" height="344" rx="8"></rect>
        <filter x="-10.2%" y="-12.5%" width="120.4%" height="130.8%" filterUnits="objectBoundingBox" id="filter-3">
            <feOffset dx="0" dy="10" in="SourceAlpha" result="shadowOffsetOuter1"></feOffset>
            <feGaussianBlur stdDeviation="16" in="shadowOffsetOuter1" result="shadowBlurOuter1"></feGaussianBlur>
            <feColorMatrix values="0 0 0 0 0.658502856   0 0 0 0 0.689201537   0 0 0 0 0.791214923  0 0 0 0.149116848 0" type="matrix" in="shadowBlurOuter1"></feColorMatrix>
        </filter>
        <rect id="path-4" x="0" y="0" width="256" height="28" rx="4"></rect>
    </defs>
    <g id="Welcome" stroke="none" stroke-width="1" fill="none" fill-rule="evenodd">
        <g id="Design" transform="translate(-182.000000, -1896.000000)">
            <g id="taiin-vaght" transform="translate(0.000000, 1738.000000)">
                <g id="Group-13" transform="translate(128.000000, 180.000000)">
                    <g id="Group-11" transform="translate(86.000000, 0.000000)">
                        <g id="Rectangle">
                            <mask id="mask-2" fill="white">
                                <use xlink:href="#path-1"></use>
                            </mask>
                            <g id="Mask">
                                <use fill="black" fill-opacity="1" filter="url(#filter-3)" xlink:href="#path-1"></use>
                                <use fill="#FFFFFF" fill-rule="evenodd" xlink:href="#path-1"></use>
                            </g>
                            <rect fill-opacity="0.297412817" fill="#6F81AF" mask="url(#mask-2)" x="0" y="0" width="520" height="57"></rect>
                            <rect fill="#FFFFFF" opacity="0.701822917" mask="url(#mask-2)" x="39" y="11" width="442" height="35" rx="17.5"></rect>
                        </g>
                        <rect id="Rectangle" fill="#EDEDF2" x="36" y="122" width="142" height="196"></rect>
                        <g id="Group" transform="translate(153.000000, 84.000000)" fill="#EDEDF2">
                            <rect id="Rectangle" x="152" y="0" width="62" height="7" rx="3.5"></rect>
                            <rect id="Rectangle-Copy" x="76" y="0" width="62" height="7" rx="3.5"></rect>
                            <rect id="Rectangle-Copy-2" x="0" y="0" width="62" height="7" rx="3.5"></rect>
                        </g>
                        <g id="Group-10" transform="translate(205.000000, 123.000000)">
                            <g id="Group-4">
                                <rect id="Rectangle" fill="#E2E2ED" x="0" y="0" width="276" height="5"></rect>
                                <rect id="Rectangle-Copy-3" fill="#EDEDF2" x="0" y="5" width="276" height="36"></rect>
                                <path d="M245.599121,21.5009766 C245.466633,21.3649082 245.400391,21.2001963 245.400391,21.0068359 C245.400391,20.8134756 245.467529,20.6496589 245.601807,20.5153809 C245.736085,20.3811028 245.898111,20.3139648 246.087891,20.3139648 C246.284832,20.3139648 246.450439,20.3811028 246.584717,20.5153809 C246.718995,20.6496589 246.786133,20.8116852 246.786133,21.0014648 C246.786133,21.1984059 246.718995,21.364013 246.584717,21.498291 C246.450439,21.632569 246.288412,21.699707 246.098633,21.699707 C245.901692,21.699707 245.735189,21.6334642 245.599121,21.5009766 Z M246.458496,23.1606445 C246.326008,23.0281569 246.259766,22.8652353 246.259766,22.671875 C246.259766,22.4785147 246.326904,22.3146979 246.461182,22.1804199 C246.59546,22.0461419 246.759276,21.9790039 246.952637,21.9790039 C247.149578,21.9790039 247.31429,22.0452467 247.446777,22.1777344 C247.514812,22.2457686 247.565836,22.3209631 247.599854,22.4033203 C247.633871,22.4856775 247.650879,22.5734045 247.650879,22.6665039 C247.650879,22.863445 247.583741,23.0290521 247.449463,23.1633301 C247.315185,23.2976081 247.151368,23.3647461 246.958008,23.3647461 C246.761067,23.3647461 246.594564,23.2967129 246.458496,23.1606445 Z M244.718262,23.1606445 C244.585774,23.0281569 244.519531,22.8652353 244.519531,22.671875 C244.519531,22.4785147 244.586669,22.3146979 244.720947,22.1804199 C244.855225,22.0461419 245.019042,21.9790039 245.212402,21.9790039 C245.409343,21.9790039 245.574951,22.0461419 245.709229,22.1804199 C245.843507,22.3146979 245.910645,22.4767243 245.910645,22.6665039 C245.910645,22.863445 245.843507,23.0290521 245.709229,23.1633301 C245.574951,23.2976081 245.411134,23.3647461 245.217773,23.3647461 C245.020832,23.3647461 244.85433,23.2967129 244.718262,23.1606445 Z M244.095215,28 C243.826659,28 243.692383,27.8424495 243.692383,27.5273438 L243.692383,27.4682617 C243.692383,27.1495752 243.826659,26.9902344 244.095215,26.9902344 L245.34668,26.9902344 C245.991214,26.9902344 246.313477,26.6017291 246.313477,25.824707 L246.313477,24.2885742 L247.269531,24.2885742 L247.269531,25.7978516 C247.269531,27.2659579 246.655442,28 245.427246,28 L244.095215,28 Z M240.469727,30.2880859 C240.337239,30.1555983 240.270996,29.9926767 240.270996,29.7993164 C240.270996,29.6059561 240.338134,29.4421393 240.472412,29.3078613 C240.60669,29.1735833 240.770507,29.1064453 240.963867,29.1064453 C241.160808,29.1064453 241.326415,29.1735833 241.460693,29.3078613 C241.594971,29.4421393 241.662109,29.6041657 241.662109,29.7939453 C241.662109,29.9908864 241.594971,30.1564935 241.460693,30.2907715 C241.326415,30.4250495 241.162599,30.4921875 240.969238,30.4921875 C240.772297,30.4921875 240.605795,30.4241543 240.469727,30.2880859 Z M244.095215,28 L243.982422,28 C243.137366,28 242.505373,27.7332383 242.086426,27.199707 C241.678221,27.7332383 241.048019,28 240.195801,28 L239.331055,28 C239.062499,28 238.928223,27.8424495 238.928223,27.5273438 L238.928223,27.4682617 C238.928223,27.1495752 239.062499,26.9902344 239.331055,26.9902344 L240.222656,26.9902344 C241.125005,26.9902344 241.576172,26.6160519 241.576172,25.8676758 L241.576172,24.503418 L242.564453,24.503418 L242.564453,25.8676758 C242.564453,26.6160519 243.035314,26.9902344 243.977051,26.9902344 L244.095215,26.9902344 C244.363771,26.9902344 244.498047,27.1495752 244.498047,27.4682617 L244.498047,27.5273438 C244.498047,27.8424495 244.363771,28 244.095215,28 Z M233.771973,23.7568359 C233.639485,23.6243483 233.573242,23.4614267 233.573242,23.2680664 C233.573242,23.0747061 233.64038,22.9108893 233.774658,22.7766113 C233.908936,22.6423333 234.072753,22.5751953 234.266113,22.5751953 C234.463054,22.5751953 234.627766,22.6414381 234.760254,22.7739258 C234.828288,22.84196 234.879313,22.9171545 234.91333,22.9995117 C234.947347,23.0818689 234.964355,23.1695959 234.964355,23.2626953 C234.964355,23.4596364 234.897217,23.6252435 234.762939,23.7595215 C234.628661,23.8937995 234.464845,23.9609375 234.271484,23.9609375 C234.074543,23.9609375 233.908041,23.8929043 233.771973,23.7568359 Z M232.031738,23.7568359 C231.899251,23.6243483 231.833008,23.4614267 231.833008,23.2680664 C231.833008,23.0747061 231.900146,22.9108893 232.034424,22.7766113 C232.168702,22.6423333 232.332519,22.5751953 232.525879,22.5751953 C232.72282,22.5751953 232.888427,22.6423333 233.022705,22.7766113 C233.156983,22.9108893 233.224121,23.0729157 233.224121,23.2626953 C233.224121,23.4596364 233.156983,23.6252435 233.022705,23.7595215 C232.888427,23.8937995 232.72461,23.9609375 232.53125,23.9609375 C232.334309,23.9609375 232.167807,23.8929043 232.031738,23.7568359 Z M239.390137,28 L239.234375,28 C238.44303,28 237.913087,27.6759473 237.644531,27.027832 C237.286457,27.6759473 236.638351,28 235.700195,28 L230.774902,28 C229.410638,28 228.728516,27.1871826 228.728516,25.5615234 L228.728516,24.4765625 L229.689941,24.4765625 L229.689941,25.5722656 C229.689941,26.5175829 230.04264,26.9902344 230.748047,26.9902344 L235.710938,26.9902344 C236.688481,26.9902344 237.175456,26.5677126 237.171875,25.7226562 L237.171875,24.5302734 L238.154785,24.5302734 L238.154785,25.7333984 C238.154785,26.5712933 238.518226,26.9902344 239.245117,26.9902344 L239.390137,26.9902344 C239.658693,26.9902344 239.792969,27.1495752 239.792969,27.4682617 L239.792969,27.5273438 C239.792969,27.8424495 239.658693,28 239.390137,28 Z M224.780762,27.9462891 C224.780762,29.7402433 223.810394,30.6354167 221.869629,30.6318359 L221.311035,30.6318359 L221.311035,29.6220703 L221.848145,29.6220703 C223.151536,29.6256511 223.801432,29.1207733 223.797852,28.1074219 L223.797852,28 L222.825684,28 C221.719233,28 221.167806,27.3483138 221.171387,26.0449219 C221.178548,24.7415299 221.781895,24.0880534 222.981445,24.0844727 C224.177415,24.0844727 224.777181,24.7504816 224.780762,26.0825195 L224.780762,27.9462891 Z M222.959961,25.0297852 C222.336911,25.0297852 222.025391,25.3663703 222.025391,26.0395508 C222.025391,26.6697623 222.290362,26.9848633 222.820312,26.9848633 L223.851562,26.9848633 L223.846191,26.1147461 C223.846191,25.3914352 223.550784,25.0297852 222.959961,25.0297852 Z M218.68457,21.2915039 C218.552083,21.1590163 218.48584,20.9960947 218.48584,20.8027344 C218.48584,20.609374 218.552978,20.4455573 218.687256,20.3112793 C218.821534,20.1770013 218.985351,20.1098633 219.178711,20.1098633 C219.375652,20.1098633 219.540364,20.1761061 219.672852,20.3085938 C219.740886,20.3766279 219.791911,20.4518225 219.825928,20.5341797 C219.859945,20.6165369 219.876953,20.7042639 219.876953,20.7973633 C219.876953,20.9943044 219.809815,21.1599114 219.675537,21.2941895 C219.541259,21.4284675 219.377442,21.4956055 219.184082,21.4956055 C218.987141,21.4956055 218.820639,21.4275723 218.68457,21.2915039 Z M216.944336,21.2915039 C216.811848,21.1590163 216.745605,20.9960947 216.745605,20.8027344 C216.745605,20.609374 216.812743,20.4455573 216.947021,20.3112793 C217.081299,20.1770013 217.245116,20.1098633 217.438477,20.1098633 C217.635418,20.1098633 217.801025,20.1770013 217.935303,20.3112793 C218.069581,20.4455573 218.136719,20.6075837 218.136719,20.7973633 C218.136719,20.9943044 218.069581,21.1599114 217.935303,21.2941895 C217.801025,21.4284675 217.637208,21.4956055 217.443848,21.4956055 C217.246907,21.4956055 217.080404,21.4275723 216.944336,21.2915039 Z M216.192383,28 C215.923827,28 215.789551,27.8424495 215.789551,27.5273438 L215.789551,27.4682617 C215.789551,27.1495752 215.923827,26.9902344 216.192383,26.9902344 L217.481445,26.9902344 C218.620123,26.9902344 219.189453,26.7001982 219.189453,26.1201172 L219.189453,26.0073242 C218.93522,26.025228 218.682781,26.0341797 218.432129,26.0341797 C217.712399,26.0305989 217.20215,25.8640967 216.901367,25.534668 C216.668619,25.2768542 216.552246,24.8668648 216.552246,24.3046875 C216.552246,23.065749 217.150222,22.4462891 218.346191,22.4462891 C219.574388,22.4462891 220.188477,22.9977158 220.188477,24.1005859 L220.188477,25.9750977 C220.188477,27.3250393 219.282561,28 217.470703,28 L216.192383,28 Z M219.243164,24.1972656 C219.243164,23.6565728 218.947757,23.3862305 218.356934,23.3862305 C217.730303,23.3862305 217.416992,23.6726859 217.416992,24.2456055 C217.416992,24.7683945 217.746416,25.0297852 218.405273,25.0297852 C218.659506,25.0297852 218.938801,25.013672 219.243164,24.9814453 L219.243164,24.1972656 Z M210.633301,23.7568359 C210.500813,23.6243483 210.43457,23.4614267 210.43457,23.2680664 C210.43457,23.0747061 210.501708,22.9108893 210.635986,22.7766113 C210.770264,22.6423333 210.934081,22.5751953 211.127441,22.5751953 C211.324382,22.5751953 211.489094,22.6414381 211.621582,22.7739258 C211.689616,22.84196 211.740641,22.9171545 211.774658,22.9995117 C211.808675,23.0818689 211.825684,23.1695959 211.825684,23.2626953 C211.825684,23.4596364 211.758546,23.6252435 211.624268,23.7595215 C211.48999,23.8937995 211.326173,23.9609375 211.132812,23.9609375 C210.935871,23.9609375 210.769369,23.8929043 210.633301,23.7568359 Z M208.893066,23.7568359 C208.760579,23.6243483 208.694336,23.4614267 208.694336,23.2680664 C208.694336,23.0747061 208.761474,22.9108893 208.895752,22.7766113 C209.03003,22.6423333 209.193847,22.5751953 209.387207,22.5751953 C209.584148,22.5751953 209.749755,22.6423333 209.884033,22.7766113 C210.018311,22.9108893 210.085449,23.0729157 210.085449,23.2626953 C210.085449,23.4596364 210.018311,23.6252435 209.884033,23.7595215 C209.749755,23.8937995 209.585938,23.9609375 209.392578,23.9609375 C209.195637,23.9609375 209.029135,23.8929043 208.893066,23.7568359 Z M216.251465,28 L216.095703,28 C215.304358,28 214.774415,27.6759473 214.505859,27.027832 C214.147785,27.6759473 213.499679,28 212.561523,28 L207.63623,28 C206.271966,28 205.589844,27.1871826 205.589844,25.5615234 L205.589844,24.4765625 L206.55127,24.4765625 L206.55127,25.5722656 C206.55127,26.5175829 206.903968,26.9902344 207.609375,26.9902344 L212.572266,26.9902344 C213.54981,26.9902344 214.036784,26.5677126 214.033203,25.7226562 L214.033203,24.5302734 L215.016113,24.5302734 L215.016113,25.7333984 C215.016113,26.5712933 215.379554,26.9902344 216.106445,26.9902344 L216.251465,26.9902344 C216.520021,26.9902344 216.654297,27.1495752 216.654297,27.4682617 L216.654297,27.5273438 C216.654297,27.8424495 216.520021,28 216.251465,28 Z M197.51709,30.2880859 C197.384602,30.1555983 197.318359,29.9926767 197.318359,29.7993164 C197.318359,29.6059561 197.385497,29.4421393 197.519775,29.3078613 C197.654053,29.1735833 197.81787,29.1064453 198.01123,29.1064453 C198.208172,29.1064453 198.373779,29.1735833 198.508057,29.3078613 C198.642335,29.4421393 198.709473,29.6041657 198.709473,29.7939453 C198.709473,29.9908864 198.642335,30.1564935 198.508057,30.2907715 C198.373779,30.4250495 198.209962,30.4921875 198.016602,30.4921875 C197.81966,30.4921875 197.653158,30.4241543 197.51709,30.2880859 Z M195.282715,28 C195.014159,28 194.879883,27.8424495 194.879883,27.5273438 L194.879883,27.4682617 C194.879883,27.1495752 195.014159,26.9902344 195.282715,26.9902344 L197.02832,26.9902344 C197.798181,26.9902344 198.487464,26.8326839 199.096191,26.5175781 L200.009277,26.0556641 C200.388837,25.8623037 200.582194,25.7566733 200.589355,25.7387695 L200.165039,25.5131836 L198.870605,24.8417969 C198.26904,24.5266911 197.740888,24.5410139 197.286133,24.8847656 L196.448242,25.5185547 L195.814453,24.8095703 L196.598633,24.1489258 C197.372074,23.4972298 198.195634,23.4041318 199.069336,23.8696289 L200.916992,24.8579102 C201.987636,25.4308297 201.867682,26.0860966 200.557129,26.8237305 L199.687012,27.3125 C198.870601,27.7708356 197.98796,28 197.039062,28 L195.282715,28 Z M195.336426,28 L195.250488,28 C194.580889,28 194.000816,27.6920604 193.510254,27.0761719 C193.277505,27.6920604 192.586432,28 191.437012,28 L189.390625,28 L189.390625,26.9902344 L191.367188,26.9902344 C192.301762,26.9902344 192.761882,26.7771831 192.747559,26.3510742 C192.736816,26.0932604 192.552411,25.7584656 192.194336,25.3466797 L190.722656,23.644043 L191.399414,22.902832 L194.283691,26.3779297 C194.623862,26.7861349 194.958657,26.9902344 195.288086,26.9902344 L195.336426,26.9902344 C195.604982,26.9902344 195.739258,27.1495752 195.739258,27.4682617 L195.739258,27.5273438 C195.739258,27.8424495 195.604982,28 195.336426,28 Z M187.215332,30.2880859 C187.082844,30.1555983 187.016602,29.9926767 187.016602,29.7993164 C187.016602,29.6059561 187.08374,29.4421393 187.218018,29.3078613 C187.352296,29.1735833 187.516112,29.1064453 187.709473,29.1064453 C187.906414,29.1064453 188.071126,29.1726881 188.203613,29.3051758 C188.271647,29.37321 188.322672,29.4484045 188.356689,29.5307617 C188.390707,29.6131189 188.407715,29.7008459 188.407715,29.7939453 C188.407715,29.9908864 188.340577,30.1564935 188.206299,30.2907715 C188.072021,30.4250495 187.908204,30.4921875 187.714844,30.4921875 C187.517903,30.4921875 187.3514,30.4241543 187.215332,30.2880859 Z M185.475098,30.2880859 C185.34261,30.1555983 185.276367,29.9926767 185.276367,29.7993164 C185.276367,29.6059561 185.343505,29.4421393 185.477783,29.3078613 C185.612061,29.1735833 185.775878,29.1064453 185.969238,29.1064453 C186.166179,29.1064453 186.331786,29.1735833 186.466064,29.3078613 C186.600342,29.4421393 186.66748,29.6041657 186.66748,29.7939453 C186.66748,29.9908864 186.600342,30.1564935 186.466064,30.2907715 C186.331786,30.4250495 186.16797,30.4921875 185.974609,30.4921875 C185.777668,30.4921875 185.611166,30.4241543 185.475098,30.2880859 Z M185.211914,28 C184.943358,28 184.809082,27.8424495 184.809082,27.5273438 L184.809082,27.4682617 C184.809082,27.1495752 184.943358,26.9902344 185.211914,26.9902344 L186.463379,26.9902344 C187.107913,26.9902344 187.430176,26.6017291 187.430176,25.824707 L187.430176,24.2885742 L188.38623,24.2885742 L188.38623,25.7978516 C188.38623,27.2659579 187.772142,28 186.543945,28 L185.211914,28 Z M185.265625,28 L185.179688,28 C184.510088,28 183.930015,27.6920604 183.439453,27.0761719 C183.206705,27.6920604 182.515631,28 181.366211,28 L179.319824,28 L179.319824,26.9902344 L181.296387,26.9902344 C182.230962,26.9902344 182.691081,26.7771831 182.676758,26.3510742 C182.666016,26.0932604 182.48161,25.7584656 182.123535,25.3466797 L180.651855,23.644043 L181.328613,22.902832 L184.212891,26.3779297 C184.553062,26.7861349 184.887856,26.9902344 185.217285,26.9902344 L185.265625,26.9902344 C185.534181,26.9902344 185.668457,27.1495752 185.668457,27.4682617 L185.668457,27.5273438 C185.668457,27.8424495 185.534181,28 185.265625,28 Z"
                                      id="ثبت-وقت-جدید" fill="#69747D"></path>
                                <path d="M111.459473,31.7705078 C111.326985,31.6380202 111.260742,31.4750986 111.260742,31.2817383 C111.260742,31.0883779 111.326985,30.923666 111.459473,30.7875977 C111.527507,30.7231442 111.602701,30.6739097 111.685059,30.6398926 C111.767416,30.6058755 111.855143,30.5888672 111.948242,30.5888672 C112.145183,30.5888672 112.31079,30.6560052 112.445068,30.7902832 C112.579346,30.9245612 112.646484,31.0865876 112.646484,31.2763672 C112.646484,31.4733083 112.579346,31.6389153 112.445068,31.7731934 C112.31079,31.9074714 112.148764,31.9746094 111.958984,31.9746094 C111.762043,31.9746094 111.595541,31.9065762 111.459473,31.7705078 Z M112.318848,30.1108398 C112.18636,29.9747715 112.120117,29.8100596 112.120117,29.6166992 C112.120117,29.4233389 112.187255,29.2595222 112.321533,29.1252441 C112.455811,28.9909661 112.619628,28.9238281 112.812988,28.9238281 C113.009929,28.9238281 113.174641,28.990071 113.307129,29.1225586 C113.375163,29.1905928 113.426188,29.2657873 113.460205,29.3481445 C113.494222,29.4305017 113.51123,29.5182287 113.51123,29.6113281 C113.51123,29.8082692 113.444092,29.9738763 113.309814,30.1081543 C113.175536,30.2424323 113.01172,30.3095703 112.818359,30.3095703 C112.621418,30.3095703 112.454916,30.2433275 112.318848,30.1108398 Z M110.578613,30.1108398 C110.446126,29.9747715 110.379883,29.8100596 110.379883,29.6166992 C110.379883,29.4233389 110.447021,29.2595222 110.581299,29.1252441 C110.715577,28.9909661 110.879394,28.9238281 111.072754,28.9238281 C111.269695,28.9238281 111.435302,28.9909661 111.56958,29.1252441 C111.703858,29.2595222 111.770996,29.4215485 111.770996,29.6113281 C111.770996,29.8082692 111.703858,29.9738763 111.56958,30.1081543 C111.435302,30.2424323 111.271485,30.3095703 111.078125,30.3095703 C110.881184,30.3095703 110.714682,30.2433275 110.578613,30.1108398 Z M110.272461,28 C110.003905,28 109.869629,27.8424495 109.869629,27.5273438 L109.869629,27.4682617 C109.869629,27.1495752 110.003905,26.9902344 110.272461,26.9902344 L111.523926,26.9902344 C112.16846,26.9902344 112.490723,26.6017291 112.490723,25.824707 L112.490723,24.2885742 L113.446777,24.2885742 L113.446777,25.7978516 C113.446777,27.2659579 112.832688,28 111.604492,28 L110.272461,28 Z M107.629883,30.2880859 C107.497395,30.1555983 107.431152,29.9926767 107.431152,29.7993164 C107.431152,29.6059561 107.49829,29.4421393 107.632568,29.3078613 C107.766846,29.1735833 107.930663,29.1064453 108.124023,29.1064453 C108.320965,29.1064453 108.485676,29.1726881 108.618164,29.3051758 C108.686198,29.37321 108.737223,29.4484045 108.77124,29.5307617 C108.805257,29.6131189 108.822266,29.7008459 108.822266,29.7939453 C108.822266,29.9908864 108.755128,30.1564935 108.62085,30.2907715 C108.486572,30.4250495 108.322755,30.4921875 108.129395,30.4921875 C107.932453,30.4921875 107.765951,30.4241543 107.629883,30.2880859 Z M105.889648,30.2880859 C105.757161,30.1555983 105.690918,29.9926767 105.690918,29.7993164 C105.690918,29.6059561 105.758056,29.4421393 105.892334,29.3078613 C106.026612,29.1735833 106.190429,29.1064453 106.383789,29.1064453 C106.58073,29.1064453 106.746337,29.1735833 106.880615,29.3078613 C107.014893,29.4421393 107.082031,29.6041657 107.082031,29.7939453 C107.082031,29.9908864 107.014893,30.1564935 106.880615,30.2907715 C106.746337,30.4250495 106.58252,30.4921875 106.38916,30.4921875 C106.192219,30.4921875 106.025717,30.4241543 105.889648,30.2880859 Z M110.326172,28 L110.213379,28 C109.368323,28 108.73633,27.7332383 108.317383,27.199707 C107.909178,27.7332383 107.278976,28 106.426758,28 L105.562012,28 C105.293456,28 105.15918,27.8424495 105.15918,27.5273438 L105.15918,27.4682617 C105.15918,27.1495752 105.293456,26.9902344 105.562012,26.9902344 L106.453613,26.9902344 C107.355962,26.9902344 107.807129,26.6160519 107.807129,25.8676758 L107.807129,24.503418 L108.79541,24.503418 L108.79541,25.8676758 C108.79541,26.6160519 109.266271,26.9902344 110.208008,26.9902344 L110.326172,26.9902344 C110.594728,26.9902344 110.729004,27.1495752 110.729004,27.4682617 L110.729004,27.5273438 C110.729004,27.8424495 110.594728,28 110.326172,28 Z M105.615723,28 L105.535156,28 C104.811845,28 104.169111,27.6061237 103.606934,26.8183594 C103.334797,27.6132852 102.72966,28.0089518 101.791504,28.0053711 L99.8364258,28 C99.5678698,28 99.4335938,27.8424495 99.4335938,27.5273438 L99.4335938,27.4682617 C99.4335938,27.1495752 99.5678698,26.9902344 99.8364258,26.9902344 L101.689453,26.9902344 C102.430668,26.9902344 102.80306,26.7503279 102.806641,26.2705078 C102.806641,26.069986 102.615074,25.7513043 102.231934,25.3144531 L100.776367,23.6547852 C100.611653,23.4685863 100.470215,23.296713 100.352051,23.1391602 C100.255371,23.013834 100.215983,22.8455414 100.233887,22.6342773 C100.269694,22.1938455 100.479165,21.9055996 100.862305,21.7695312 L104.342773,20.5610352 L104.342773,21.5493164 L101.173828,22.6396484 L104.267578,26.1523438 C104.75456,26.7037788 105.160968,26.9830729 105.486816,26.9902344 L105.615723,26.9902344 C105.884279,26.9973959 106.018555,27.1567367 106.018555,27.4682617 L106.018555,27.5273438 C106.018555,27.8424495 105.884279,28 105.615723,28 Z M104.336631,19.8793141 L100.8196,21.1206189 L100.8196,20.5172068 L104.336631,19.275902 L104.336631,19.8793141 Z M97.1938477,30.2880859 C97.06136,30.1555983 96.9951172,29.9926767 96.9951172,29.7993164 C96.9951172,29.6059561 97.0622552,29.4421393 97.1965332,29.3078613 C97.3308112,29.1735833 97.4946279,29.1064453 97.6879883,29.1064453 C97.8849294,29.1064453 98.0496413,29.1726881 98.1821289,29.3051758 C98.2501631,29.37321 98.301188,29.4484045 98.3352051,29.5307617 C98.3692222,29.6131189 98.3862305,29.7008459 98.3862305,29.7939453 C98.3862305,29.9908864 98.3190925,30.1564935 98.1848145,30.2907715 C98.0505364,30.4250495 97.8867197,30.4921875 97.6933594,30.4921875 C97.4964183,30.4921875 97.329916,30.4241543 97.1938477,30.2880859 Z M95.4536133,30.2880859 C95.3211256,30.1555983 95.2548828,29.9926767 95.2548828,29.7993164 C95.2548828,29.6059561 95.3220208,29.4421393 95.4562988,29.3078613 C95.5905768,29.1735833 95.7543936,29.1064453 95.9477539,29.1064453 C96.144695,29.1064453 96.3103021,29.1735833 96.4445801,29.3078613 C96.5788581,29.4421393 96.6459961,29.6041657 96.6459961,29.7939453 C96.6459961,29.9908864 96.5788581,30.1564935 96.4445801,30.2907715 C96.3103021,30.4250495 96.1464853,30.4921875 95.953125,30.4921875 C95.7561839,30.4921875 95.5896817,30.4241543 95.4536133,30.2880859 Z M99.8901367,28 L99.7773438,28 C98.9322874,28 98.3002951,27.7332383 97.8813477,27.199707 C97.4731425,27.7332383 96.8429405,28 95.9907227,28 L95.1259766,28 C94.8574205,28 94.7231445,27.8424495 94.7231445,27.5273438 L94.7231445,27.4682617 C94.7231445,27.1495752 94.8574205,26.9902344 95.1259766,26.9902344 L96.0175781,26.9902344 C96.9199264,26.9902344 97.3710938,26.6160519 97.3710938,25.8676758 L97.3710938,24.503418 L98.359375,24.503418 L98.359375,25.8676758 C98.359375,26.6160519 98.8302362,26.9902344 99.7719727,26.9902344 L99.8901367,26.9902344 C100.158693,26.9902344 100.292969,27.1495752 100.292969,27.4682617 L100.292969,27.5273438 C100.292969,27.8424495 100.158693,28 99.8901367,28 Z M95.1796875,28 L95.09375,28 C94.6210914,28 94.2540703,27.860353 93.9926758,27.5810547 L93.9926758,28.0913086 C93.9926758,29.7957442 93.0223079,30.6461589 91.081543,30.6425781 L90.5283203,30.6425894 L90.5283203,29.6328125 L91.0600586,29.6328125 C92.3527083,29.6328125 92.9990234,29.1225637 92.9990234,28.1020508 L92.9990234,24.7290039 L93.9873047,24.7236328 L93.9873047,26.1469727 C94.0087892,26.7091499 94.3776006,26.9902344 95.09375,26.9902344 L95.1796875,26.9902344 C95.4482435,26.9902344 95.5825195,27.1495752 95.5825195,27.4682617 L95.5825195,27.5273438 C95.5825195,27.8424495 95.4482435,28 95.1796875,28 Z M88.7182617,26.5336914 C89.5203491,26.5336914 89.9213867,26.9311484 89.9213867,27.7260742 L89.9213867,27.8818359 C89.9213867,29.6757902 88.8292752,30.5727539 86.6450195,30.5727539 L86.3549805,30.5727539 C84.1707248,30.5727539 83.0768229,29.5791115 83.0732422,27.5917969 L83.0732422,25.3735352 L84.034668,25.3735352 L84.034668,27.5864258 C84.034668,28.90056 84.8116784,29.5576172 86.3657227,29.5576172 L86.6933594,29.5576172 C88.2151769,29.5576172 88.9760742,29.0312553 88.9760742,27.9785156 L88.9760742,27.9140625 C88.9760742,27.6311835 88.8346368,27.4897461 88.5517578,27.4897461 L87.5258789,27.4897461 C86.9064097,27.4897461 86.5966797,27.1907582 86.5966797,26.5927734 L86.5966797,26.2436523 C86.5966797,24.549959 87.3539963,23.703125 88.8686523,23.703125 L89.9213867,23.703125 L89.9267578,24.7182617 L88.6430664,24.7182617 C87.9376592,24.7182617 87.5760092,25.2141877 87.5581055,26.2060547 L87.5473633,26.5336914 L88.7182617,26.5336914 Z M79.1308594,27.9462891 C79.1308594,29.7402433 78.1604915,30.6354167 76.2197266,30.6318359 L75.6611328,30.6318359 L75.6611328,29.6220703 L76.1982422,29.6220703 C77.5016341,29.6256511 78.15153,29.1207733 78.1479492,28.1074219 L78.1479492,28 L77.1757812,28 C76.0693304,28 75.5179036,27.3483138 75.5214844,26.0449219 C75.5286459,24.7415299 76.1319927,24.0880534 77.331543,24.0844727 C78.5275125,24.0844727 79.1272786,24.7504816 79.1308594,26.0825195 L79.1308594,27.9462891 Z M77.3100586,25.0297852 C76.6870086,25.0297852 76.3754883,25.3663703 76.3754883,26.0395508 C76.3754883,26.6697623 76.6404596,26.9848633 77.1704102,26.9848633 L78.2016602,26.9848633 L78.1962891,26.1147461 C78.1962891,25.3914352 77.9008819,25.0297852 77.3100586,25.0297852 Z M73.034668,21.2915039 C72.9021803,21.1590163 72.8359375,20.9960947 72.8359375,20.8027344 C72.8359375,20.609374 72.9030755,20.4455573 73.0373535,20.3112793 C73.1716315,20.1770013 73.3354483,20.1098633 73.5288086,20.1098633 C73.7257497,20.1098633 73.8904616,20.1761061 74.0229492,20.3085938 C74.0909834,20.3766279 74.1420083,20.4518225 74.1760254,20.5341797 C74.2100425,20.6165369 74.2270508,20.7042639 74.2270508,20.7973633 C74.2270508,20.9943044 74.1599128,21.1599114 74.0256348,21.2941895 C73.8913568,21.4284675 73.72754,21.4956055 73.5341797,21.4956055 C73.3372386,21.4956055 73.1707364,21.4275723 73.034668,21.2915039 Z M71.2944336,21.2915039 C71.161946,21.1590163 71.0957031,20.9960947 71.0957031,20.8027344 C71.0957031,20.609374 71.1628411,20.4455573 71.2971191,20.3112793 C71.4313972,20.1770013 71.5952139,20.1098633 71.7885742,20.1098633 C71.9855153,20.1098633 72.1511224,20.1770013 72.2854004,20.3112793 C72.4196784,20.4455573 72.4868164,20.6075837 72.4868164,20.7973633 C72.4868164,20.9943044 72.4196784,21.1599114 72.2854004,21.2941895 C72.1511224,21.4284675 71.9873057,21.4956055 71.7939453,21.4956055 C71.5970042,21.4956055 71.430502,21.4275723 71.2944336,21.2915039 Z M70.5424805,28 C70.2739244,28 70.1396484,27.8424495 70.1396484,27.5273438 L70.1396484,27.4682617 C70.1396484,27.1495752 70.2739244,26.9902344 70.5424805,26.9902344 L71.831543,26.9902344 C72.9702205,26.9902344 73.5395508,26.7001982 73.5395508,26.1201172 L73.5395508,26.0073242 C73.2853177,26.025228 73.0328789,26.0341797 72.7822266,26.0341797 C72.0624964,26.0305989 71.5522476,25.8640967 71.2514648,25.534668 C71.0187163,25.2768542 70.9023438,24.8668648 70.9023438,24.3046875 C70.9023438,23.065749 71.5003195,22.4462891 72.6962891,22.4462891 C73.9244853,22.4462891 74.5385742,22.9977158 74.5385742,24.1005859 L74.5385742,25.9750977 C74.5385742,27.3250393 73.6326588,28 71.8208008,28 L70.5424805,28 Z M73.5932617,24.1972656 C73.5932617,23.6565728 73.2978545,23.3862305 72.7070312,23.3862305 C72.0804005,23.3862305 71.7670898,23.6726859 71.7670898,24.2456055 C71.7670898,24.7683945 72.0965136,25.0297852 72.7553711,25.0297852 C73.0096041,25.0297852 73.2888982,25.013672 73.5932617,24.9814453 L73.5932617,24.1972656 Z M64.9833984,23.7568359 C64.8509108,23.6243483 64.784668,23.4614267 64.784668,23.2680664 C64.784668,23.0747061 64.851806,22.9108893 64.986084,22.7766113 C65.120362,22.6423333 65.2841787,22.5751953 65.4775391,22.5751953 C65.6744802,22.5751953 65.839192,22.6414381 65.9716797,22.7739258 C66.0397139,22.84196 66.0907388,22.9171545 66.1247559,22.9995117 C66.158773,23.0818689 66.1757812,23.1695959 66.1757812,23.2626953 C66.1757812,23.4596364 66.1086432,23.6252435 65.9743652,23.7595215 C65.8400872,23.8937995 65.6762705,23.9609375 65.4829102,23.9609375 C65.2859691,23.9609375 65.1194668,23.8929043 64.9833984,23.7568359 Z M63.2431641,23.7568359 C63.1106764,23.6243483 63.0444336,23.4614267 63.0444336,23.2680664 C63.0444336,23.0747061 63.1115716,22.9108893 63.2458496,22.7766113 C63.3801276,22.6423333 63.5439443,22.5751953 63.7373047,22.5751953 C63.9342458,22.5751953 64.0998528,22.6423333 64.2341309,22.7766113 C64.3684089,22.9108893 64.4355469,23.0729157 64.4355469,23.2626953 C64.4355469,23.4596364 64.3684089,23.6252435 64.2341309,23.7595215 C64.0998528,23.8937995 63.9360361,23.9609375 63.7426758,23.9609375 C63.5457347,23.9609375 63.3792325,23.8929043 63.2431641,23.7568359 Z M70.6015625,28 L70.4458008,28 C69.6544557,28 69.1245131,27.6759473 68.855957,27.027832 C68.4978823,27.6759473 67.8497768,28 66.9116211,28 L61.9863281,28 C60.6220635,28 59.9399414,27.1871826 59.9399414,25.5615234 L59.9399414,24.4765625 L60.9013672,24.4765625 L60.9013672,25.5722656 C60.9013672,26.5175829 61.2540655,26.9902344 61.9594727,26.9902344 L66.9223633,26.9902344 C67.8999072,26.9902344 68.3868815,26.5677126 68.3833008,25.7226562 L68.3833008,24.5302734 L69.3662109,24.5302734 L69.3662109,25.7333984 C69.3662109,26.5712933 69.7296513,26.9902344 70.456543,26.9902344 L70.6015625,26.9902344 C70.8701185,26.9902344 71.0043945,27.1495752 71.0043945,27.4682617 L71.0043945,27.5273438 C71.0043945,27.8424495 70.8701185,28 70.6015625,28 Z M54.4990234,21.2915039 C54.3665358,21.1590163 54.300293,20.9960947 54.300293,20.8027344 C54.300293,20.609374 54.367431,20.4455573 54.501709,20.3112793 C54.635987,20.1770013 54.7998037,20.1098633 54.9931641,20.1098633 C55.1901052,20.1098633 55.354817,20.1761061 55.4873047,20.3085938 C55.5553389,20.3766279 55.6063638,20.4518225 55.6403809,20.5341797 C55.674398,20.6165369 55.6914062,20.7042639 55.6914062,20.7973633 C55.6914062,20.9943044 55.6242682,21.1599114 55.4899902,21.2941895 C55.3557122,21.4284675 55.1918955,21.4956055 54.9985352,21.4956055 C54.8015941,21.4956055 54.6350918,21.4275723 54.4990234,21.2915039 Z M52.7587891,21.2915039 C52.6263014,21.1590163 52.5600586,20.9960947 52.5600586,20.8027344 C52.5600586,20.609374 52.6271966,20.4455573 52.7614746,20.3112793 C52.8957526,20.1770013 53.0595693,20.1098633 53.2529297,20.1098633 C53.4498708,20.1098633 53.6154778,20.1770013 53.7497559,20.3112793 C53.8840339,20.4455573 53.9511719,20.6075837 53.9511719,20.7973633 C53.9511719,20.9943044 53.8840339,21.1599114 53.7497559,21.2941895 C53.6154778,21.4284675 53.4516611,21.4956055 53.2583008,21.4956055 C53.0613597,21.4956055 52.8948575,21.4275723 52.7587891,21.2915039 Z M52.0068359,28 C51.7382799,28 51.6040039,27.8424495 51.6040039,27.5273438 L51.6040039,27.4682617 C51.6040039,27.1495752 51.7382799,26.9902344 52.0068359,26.9902344 L53.2958984,26.9902344 C54.434576,26.9902344 55.0039062,26.7001982 55.0039062,26.1201172 L55.0039062,26.0073242 C54.7496732,26.025228 54.4972343,26.0341797 54.246582,26.0341797 C53.5268519,26.0305989 53.0166031,25.8640967 52.7158203,25.534668 C52.4830718,25.2768542 52.3666992,24.8668648 52.3666992,24.3046875 C52.3666992,23.065749 52.964675,22.4462891 54.1606445,22.4462891 C55.3888408,22.4462891 56.0029297,22.9977158 56.0029297,24.1005859 L56.0029297,25.9750977 C56.0029297,27.3250393 55.0970143,28 53.2851562,28 L52.0068359,28 Z M55.0576172,24.1972656 C55.0576172,23.6565728 54.76221,23.3862305 54.1713867,23.3862305 C53.544756,23.3862305 53.2314453,23.6726859 53.2314453,24.2456055 C53.2314453,24.7683945 53.5608691,25.0297852 54.2197266,25.0297852 C54.4739596,25.0297852 54.7532537,25.013672 55.0576172,24.9814453 L55.0576172,24.1972656 Z M48.3813477,30.2880859 C48.24886,30.1555983 48.1826172,29.9926767 48.1826172,29.7993164 C48.1826172,29.6059561 48.2497552,29.4421393 48.3840332,29.3078613 C48.5183112,29.1735833 48.6821279,29.1064453 48.8754883,29.1064453 C49.0724294,29.1064453 49.2380364,29.1735833 49.3723145,29.3078613 C49.5065925,29.4421393 49.5737305,29.6041657 49.5737305,29.7939453 C49.5737305,29.9908864 49.5065925,30.1564935 49.3723145,30.2907715 C49.2380364,30.4250495 49.0742197,30.4921875 48.8808594,30.4921875 C48.6839183,30.4921875 48.517416,30.4241543 48.3813477,30.2880859 Z M52.0068359,28 L51.894043,28 C51.0489867,28 50.4169943,27.7332383 49.9980469,27.199707 C49.5898417,27.7332383 48.9596397,28 48.1074219,28 L47.2426758,28 C46.9741198,28 46.8398438,27.8424495 46.8398438,27.5273438 L46.8398438,27.4682617 C46.8398438,27.1495752 46.9741198,26.9902344 47.2426758,26.9902344 L48.1342773,26.9902344 C49.0366256,26.9902344 49.487793,26.6160519 49.487793,25.8676758 L49.487793,24.503418 L50.4760742,24.503418 L50.4760742,25.8676758 C50.4760742,26.6160519 50.9469354,26.9902344 51.8886719,26.9902344 L52.0068359,26.9902344 C52.275392,26.9902344 52.409668,27.1495752 52.409668,27.4682617 L52.409668,27.5273438 C52.409668,27.8424495 52.275392,28 52.0068359,28 Z M47.3017578,28 L47.0546875,28 C46.4567027,28 45.9410829,27.7511418 45.5078125,27.253418 C45.1210918,27.7511418 44.6180044,28 43.9985352,28 L43.4882812,28 C43.2197252,28 43.0854492,27.8424495 43.0854492,27.5273438 L43.0854492,27.4682617 C43.0854492,27.1495752 43.2197252,26.9902344 43.4882812,26.9902344 L43.987793,26.9902344 C44.6896194,26.9902344 45.0405273,26.5408574 45.0405273,25.6420898 L45.0405273,20.6523438 L45.9804688,20.6523438 L45.9804688,25.6474609 C45.9804688,26.5426477 46.3564416,26.9902344 47.1083984,26.9902344 L47.3017578,26.9902344 C47.5703138,26.9902344 47.7045898,27.1495752 47.7045898,27.4682617 L47.7045898,27.5273438 C47.7045898,27.8424495 47.5703138,28 47.3017578,28 Z M43.5419922,28 L42.9941406,28 L42.9887695,28.4135742 C42.967285,29.9676184 41.8859157,30.7446289 39.7446289,30.7446289 L39.4814453,30.7446289 C37.3652238,30.7446289 36.3053386,29.7563575 36.3017578,27.7797852 L36.3017578,25.9375 L37.2631836,25.9428711 L37.2631836,27.7744141 C37.2631836,29.077806 37.9972257,29.7294922 39.465332,29.7294922 L39.7661133,29.7294922 C41.28435,29.7294922 42.043457,29.2783248 42.043457,28.3759766 L42.043457,28 L40.6953125,28 C40.5055329,28 40.3694666,27.8388688 40.2871094,27.5166016 C40.2047522,27.1943343 40.2172846,27.0188804 40.324707,26.9902344 L43.5419922,26.9902344 C43.8105482,26.9902344 43.9448242,27.1495752 43.9448242,27.4682617 L43.9448242,27.5273438 C43.9448242,27.8424495 43.8105482,28 43.5419922,28 Z"
                                      id="پیگیری-وقت-قبلی" fill="#69747D"></path>
                            </g>
                            <rect id="Rectangle" stroke="#EDEDF2" x="0.5" y="41.5" width="275" height="129"></rect>
                            <g id="Combined-Shape" transform="translate(10.000000, 49.000000)">
                                <mask id="mask-5" fill="white">
                                    <use xlink:href="#path-4"></use>
                                </mask>
                                <rect stroke="#EDEDF2" x="0.5" y="0.5" width="255" height="27" rx="4"></rect>
                                <path d="M190.656103,13.7254104 L190.5,13.5 L190.656103,13.7254104 L200.541667,0 L190.656103,13.7254104 Z M190.656103,13.7254104 L190.458333,14 L190.656103,13.7254104 L200.541667,28 L190.656103,13.7254104 Z"
                                      stroke="#EDEDF2" stroke-linecap="square" mask="url(#mask-5)"></path>
                                <path d="M123.656103,13.7254104 L123.5,13.5 L123.656103,13.7254104 L133.541667,0 L123.656103,13.7254104 Z M123.656103,13.7254104 L123.458333,14 L123.656103,13.7254104 L133.541667,28 L123.656103,13.7254104 Z"
                                      id="Combined-Shape-Copy" stroke="#EDEDF2" stroke-linecap="square" mask="url(#mask-5)"></path>
                                <path d="M55.6561032,13.7254104 L55.5,13.5 L55.6561032,13.7254104 L65.5416667,0 L55.6561032,13.7254104 Z M55.6561032,13.7254104 L55.4583333,14 L55.6561032,13.7254104 L65.5416667,28 L55.6561032,13.7254104 Z"
                                      id="Combined-Shape-Copy-2" stroke="#EDEDF2" stroke-linecap="square" mask="url(#mask-5)"></path>
                            </g>
                            <polygon id="Path-25" fill="#F7F7FD" points="209 50 200 63 210 76 143 76 134 63 143 50"></polygon>
                        </g>
                    </g>
                </g>
            </g>
        </g>
    </g>
</svg>