<svg width="231px" height="248px" viewBox="0 0 231 248" version="1.1" xmlns="http://www.w3.org/2000/svg" xmlns:xlink="http://www.w3.org/1999/xlink">
    <defs>
        <rect id="path-1" x="0" y="23" width="171" height="186" rx="10"></rect>
        <filter x="-28.9%" y="-21.8%" width="157.9%" height="153.2%" filterUnits="objectBoundingBox" id="filter-2">
            <feOffset dx="0" dy="9" in="SourceAlpha" result="shadowOffsetOuter1"></feOffset>
            <feGaussianBlur stdDeviation="15" in="shadowOffsetOuter1" result="shadowBlurOuter1"></feGaussianBlur>
            <feColorMatrix values="0 0 0 0 0.231900428   0 0 0 0 0.231900428   0 0 0 0 0.345397534  0 0 0 0.129472373 0" type="matrix" in="shadowBlurOuter1"></feColorMatrix>
        </filter>
        <linearGradient x1="-42.1867677%" y1="-60.0326955%" x2="146.667984%" y2="117.752487%" id="linearGradient-3">
            <stop stop-color="#E9CA49" offset="0%"></stop>
            <stop stop-color="#FF257B" offset="100%"></stop>
            <stop stop-color="#FF62A0" offset="100%"></stop>
        </linearGradient>
    </defs>
    <g id="Welcome" stroke="none" stroke-width="1" fill="none" fill-rule="evenodd">
        <g id="Design" transform="translate(-561.000000, -2115.000000)">
            <g id="taiin-vaght" transform="translate(0.000000, 1738.000000)">
                <g id="Group-13" transform="translate(128.000000, 180.000000)">
                    <g id="Group-8" transform="translate(463.000000, 197.000000)">
                        <g id="Rectangle">
                            <use fill="black" fill-opacity="1" filter="url(#filter-2)" xlink:href="#path-1"></use>
                            <use fill="#FFFFFF" fill-rule="evenodd" xlink:href="#path-1"></use>
                        </g>
                        <rect id="Rectangle" fill="#EDEDF2" x="12" y="33" width="146" height="36" rx="4"></rect>
                        <path d="M145.333057,82.8081055 C145.333057,82.7364905 145.342009,82.6684574 145.359912,82.6040039 C145.377816,82.5395505 145.403776,82.4777835 145.437793,82.4187012 C145.47181,82.3596188 145.513883,82.3068036 145.564014,82.2602539 C145.714405,82.1062818 145.89523,82.0292969 146.106494,82.0292969 C146.32492,82.0292969 146.510221,82.1053866 146.662403,82.2575684 C146.814584,82.4097501 146.890674,82.5914703 146.890674,82.8027344 C146.890674,83.0211599 146.814584,83.2064608 146.662403,83.3586426 C146.510221,83.5108243 146.328501,83.5869141 146.117237,83.5869141 C145.898811,83.5869141 145.71351,83.5108243 145.561328,83.3586426 C145.409147,83.2064608 145.333057,83.0229503 145.333057,82.8081055 Z M146.197803,84.4731445 C146.197803,84.2582997 146.272998,84.0747892 146.423389,83.9226074 C146.57378,83.7704257 146.756396,83.6943359 146.971241,83.6943359 C147.078663,83.6943359 147.178922,83.7140298 147.272022,83.753418 C147.365121,83.7928062 147.449267,83.8492021 147.524463,83.9226074 C147.599659,83.9960127 147.656055,84.0792639 147.693653,84.1723633 C147.73125,84.2654627 147.750049,84.3639318 147.750049,84.4677734 C147.750049,84.5787766 147.73125,84.6808264 147.693653,84.7739258 C147.656055,84.8670252 147.599659,84.9493812 147.524463,85.0209961 C147.474333,85.0711266 147.420622,85.1131997 147.36333,85.1472168 C147.306038,85.1812339 147.245167,85.2071939 147.180713,85.2250977 C147.11626,85.2430014 147.048227,85.2519531 146.976612,85.2519531 C146.869189,85.2519531 146.76893,85.2322593 146.67583,85.1928711 C146.582731,85.1534829 146.498585,85.097087 146.423389,85.0236816 C146.348193,84.9502763 146.291797,84.8670252 146.2542,84.7739258 C146.216602,84.6808264 146.197803,84.5805669 146.197803,84.4731445 Z M144.683155,85.0209961 C144.532763,84.8706047 144.457569,84.6879894 144.457569,84.4731445 C144.457569,84.2582997 144.532763,84.0747892 144.683155,83.9226074 C144.833546,83.7704257 145.016161,83.6943359 145.231006,83.6943359 C145.302621,83.6943359 145.371549,83.7032877 145.437793,83.7211914 C145.504037,83.7390951 145.565804,83.7650552 145.623096,83.7990723 C145.680388,83.8330894 145.734098,83.8751625 145.784229,83.925293 C145.859424,83.9969079 145.91582,84.0792639 145.953418,84.1723633 C145.991016,84.2654627 146.009815,84.3639318 146.009815,84.4677734 C146.009815,84.4928387 146.00892,84.515218 146.007129,84.5349121 C146.005339,84.5546062 146.002653,84.5751952 145.999073,84.5966797 C145.995492,84.6181642 145.991911,84.6387532 145.98833,84.6584473 C145.98475,84.6781414 145.979379,84.69694 145.972217,84.7148438 C145.965056,84.7327475 145.957894,84.7515461 145.950733,84.7712402 C145.943571,84.7909343 145.935515,84.809733 145.926563,84.8276367 C145.917611,84.8455405 145.907764,84.8625487 145.897022,84.8786621 L145.864795,84.927002 C145.854053,84.9431153 145.841521,84.9592284 145.827198,84.9753418 C145.812875,84.9914552 145.798552,85.0066731 145.784229,85.0209961 C145.630257,85.1749682 145.447641,85.2519531 145.236377,85.2519531 C145.017952,85.2519531 144.833546,85.1749682 144.683155,85.0209961 Z M136.927295,87.1748047 L138.318408,87.1748047 L138.318408,89.2265625 C138.318408,89.6276062 138.390022,89.95703 138.533252,90.2148438 C138.676482,90.4726575 138.900275,90.6651198 139.204639,90.7922363 C139.509002,90.9193528 139.899298,90.9829102 140.375537,90.9829102 L140.622608,90.9829102 C141.30653,90.9650064 141.804247,90.8361015 142.115772,90.5961914 C142.427297,90.3562814 142.583057,89.998212 142.583057,89.5219727 L142.583057,86.105957 L144.033252,86.105957 L144.033252,87.824707 C144.036833,87.9643562 144.053841,88.082519 144.084278,88.1791992 C144.114714,88.2758794 144.163053,88.356445 144.229297,88.4208984 C144.295541,88.4853519 144.382373,88.5336912 144.489795,88.565918 C144.597218,88.5981447 144.727913,88.6142578 144.881885,88.6142578 C145.078826,88.6178386 145.225635,88.5489102 145.322315,88.4074707 C145.418995,88.2660312 145.467334,88.0144875 145.467334,87.652832 L145.461963,86.0683594 L146.879932,86.0683594 L146.885303,87.6850586 C146.885303,88.0252296 146.94707,88.265136 147.070606,88.4047852 C147.194142,88.5444343 147.393765,88.6124675 147.669483,88.6088867 C147.844939,88.6088867 147.979215,88.5310066 148.072315,88.3752441 C148.165414,88.2194816 148.211963,87.9518248 148.211963,87.5722656 L148.211963,85.8427734 L149.603076,85.8427734 L149.603076,87.5400391 C149.603076,88.3278034 149.44284,88.9347309 149.122364,89.3608398 C148.801887,89.7869487 148.32834,90.0017903 147.701709,90.0053711 C146.996302,90.0089518 146.489634,89.7923199 146.18169,89.3554688 C145.902391,89.7959006 145.487031,90.0125326 144.935596,90.0053711 C144.530972,90.0017903 144.203338,89.9212247 143.952686,89.7636719 C143.902555,90.6158897 143.593721,91.2648903 143.026172,91.7106934 C142.458624,92.1564964 141.657444,92.3955077 140.622608,92.4277344 L140.515186,92.4331055 L140.364795,92.4331055 C138.810751,92.4331055 137.779511,91.9210663 137.271045,90.8969727 C137.041877,90.4350563 136.927295,89.8800488 136.927295,89.2319336 L136.927295,87.1748047 Z M124.338819,88.1040039 C124.789993,88.1040039 125.13911,88.2257475 125.386182,88.4692383 C125.633253,88.7127291 125.756787,89.0600563 125.756787,89.5112305 L125.756787,89.6669922 C125.756787,90.6230517 125.458695,91.3463517 124.8625,91.8369141 C124.266306,92.3274764 123.400673,92.5727539 122.265576,92.5727539 L121.975537,92.5727539 C120.83686,92.5727539 119.969437,92.3024116 119.373242,91.7617188 C118.777048,91.2210259 118.478955,90.426112 118.478955,89.3769531 L118.478955,86.9438477 L119.870069,86.9438477 L119.870069,89.371582 C119.870069,89.9695668 120.039256,90.4117824 120.377637,90.6982422 C120.716018,90.984702 121.252226,91.1279297 121.986279,91.1279297 L122.313916,91.1279297 C123.037227,91.1279297 123.562694,91.0142427 123.890332,90.7868652 C124.217971,90.5594878 124.381787,90.2184268 124.381787,89.7636719 L124.381787,89.6992188 C124.381787,89.6097001 124.369255,89.552409 124.34419,89.5273438 C124.319124,89.5022785 124.261833,89.4897461 124.172315,89.4897461 L123.146436,89.4897461 C122.788361,89.4897461 122.508172,89.3921722 122.30586,89.1970215 C122.103547,89.0018708 122.002393,88.7288429 122.002393,88.3779297 L122.002393,88.0288086 C122.002393,87.1372026 122.213654,86.4550805 122.636182,85.9824219 C123.05871,85.5097633 123.67638,85.2734375 124.489209,85.2734375 L125.756787,85.2734375 L125.762158,86.7182617 L124.263623,86.7182617 C123.977163,86.7182617 123.762322,86.8167308 123.619092,87.0136719 C123.475862,87.210613 123.400668,87.5382464 123.393506,87.996582 L123.388135,88.1040039 L124.338819,88.1040039 Z M104.730322,90 L102.549658,90 L102.549658,88.5605469 L104.735693,88.5605469 C104.821631,88.5605469 104.903987,88.5587565 104.982764,88.5551758 C105.172543,88.5444335 105.332779,88.5256349 105.463477,88.4987793 C105.594174,88.4719237 105.690853,88.4379071 105.753516,88.3967285 C105.816179,88.3555499 105.860042,88.314372 105.885108,88.2731934 C105.910173,88.2320148 105.922705,88.1863609 105.922705,88.1362305 C105.919124,88.1075845 105.912858,88.0762534 105.903906,88.0422363 C105.894954,88.0082192 105.882422,87.9697268 105.866309,87.9267578 C105.850195,87.8837888 105.828711,87.838135 105.801856,87.7897949 C105.775,87.7414548 105.743669,87.69043 105.707861,87.6367188 C105.672054,87.5830075 105.629981,87.5248213 105.581641,87.4621582 C105.533301,87.3994951 105.482276,87.3359378 105.428565,87.2714844 L103.827979,85.4238281 L104.778662,84.3603516 L106.551123,86.4228516 C107.066751,87.0208363 107.32277,87.6098604 107.31919,88.1899414 C107.31919,88.5945658 107.214454,88.9329413 107.004981,89.2050781 C106.795507,89.4772149 106.5001,89.6777337 106.11875,89.8066406 C105.737401,89.9355475 105.274596,90 104.730322,90 Z M78.7463379,87.1748047 L80.1374512,87.1748047 L80.1374512,89.2265625 C80.1374512,89.6276062 80.209065,89.95703 80.3522949,90.2148438 C80.4955248,90.4726575 80.7193181,90.6651198 81.0236816,90.7922363 C81.3280451,90.9193528 81.7183407,90.9829102 82.1945801,90.9829102 L82.4416504,90.9829102 C83.1255731,90.9650064 83.6232895,90.8361015 83.9348145,90.5961914 C84.2463394,90.3562814 84.4020996,89.998212 84.4020996,89.5219727 L84.4020996,86.105957 L85.8522949,86.105957 L85.8522949,87.824707 C85.8558757,87.9643562 85.872884,88.082519 85.9033203,88.1791992 C85.9337567,88.2758794 85.982096,88.356445 86.0483398,88.4208984 C86.1145837,88.4853519 86.2014155,88.5336912 86.3088379,88.565918 C86.4162603,88.5981447 86.5469556,88.6142578 86.7009277,88.6142578 C86.8978688,88.6178386 87.0446773,88.5489102 87.1413574,88.4074707 C87.2380376,88.2660312 87.286377,88.0144875 87.286377,87.652832 L87.2810059,86.0683594 L88.6989746,86.0683594 L88.7043457,87.6850586 C88.7043457,88.0252296 88.7661127,88.265136 88.8896484,88.4047852 C89.0131842,88.5444343 89.2128079,88.6124675 89.4885254,88.6088867 C89.663982,88.6088867 89.798258,88.5310066 89.8913574,88.3752441 C89.9844568,88.2194816 90.0310059,87.9518248 90.0310059,87.5722656 L90.0310059,85.8427734 L91.4221191,85.8427734 L91.4221191,87.5400391 C91.4221191,88.3278034 91.2618831,88.9347309 90.9414062,89.3608398 C90.6209294,89.7869487 90.1473827,90.0017903 89.520752,90.0053711 C88.8153448,90.0089518 88.3086767,89.7923199 88.0007324,89.3554688 C87.7214342,89.7959006 87.3060737,90.0125326 86.7546387,90.0053711 C86.3500143,90.0017903 86.0223808,89.9212247 85.7717285,89.7636719 C85.7215981,90.6158897 85.4127633,91.2648903 84.8452148,91.7106934 C84.2776664,92.1564964 83.4764863,92.3955077 82.4416504,92.4277344 L82.3342285,92.4331055 L82.1838379,92.4331055 C80.6297937,92.4331055 79.598554,91.9210663 79.0900879,90.8969727 C78.8609201,90.4350563 78.7463379,89.8800488 78.7463379,89.2319336 L78.7463379,87.1748047 Z M64.6093904,92.1659558 C64.4657732,92.0223387 64.3939657,91.847949 64.3939657,91.6427817 C64.3939657,91.4376143 64.4674829,91.2632247 64.6145195,91.1196075 C64.6829087,91.0477989 64.761555,90.9930885 64.8504608,90.9554744 C64.9393667,90.9178604 65.0334003,90.8990537 65.1325645,90.8990537 C65.3411514,90.8990537 65.5181056,90.971716 65.6634324,91.1170429 C65.8087593,91.2623698 65.8814217,91.4359046 65.8814217,91.6376525 C65.8814217,91.8462393 65.8087593,92.0231935 65.6634324,92.1685204 C65.5181056,92.3138473 65.3445708,92.3865097 65.1428229,92.3865097 C64.934236,92.3865097 64.756427,92.3129925 64.6093904,92.1659558 Z M65.4351849,90.5810459 C65.2915677,90.4340093 65.2197602,90.2579099 65.2197602,90.0527425 C65.2197602,89.8475752 65.2915677,89.6723307 65.4351849,89.5270038 C65.5788021,89.3816769 65.7531917,89.3090146 65.9583591,89.3090146 C65.9993925,89.3090146 66.0395705,89.312434 66.0788943,89.3192729 C66.118218,89.3261118 66.1558315,89.3355152 66.1917358,89.3474832 C66.2276401,89.3594513 66.262689,89.3739838 66.2968835,89.3910811 C66.3310781,89.4081784 66.3644173,89.42784 66.3969021,89.4500664 C66.4293869,89.4722929 66.4593067,89.4987933 66.4866624,89.5295684 C66.558471,89.5979575 66.6123266,89.6766038 66.6482309,89.7655097 C66.6841352,89.8544155 66.702087,89.9484492 66.702087,90.0476134 C66.702087,90.2562002 66.6302795,90.4331544 66.4866624,90.5784813 C66.3430452,90.7238082 66.1686556,90.7964705 65.9634882,90.7964705 C65.7549014,90.7964705 65.5788021,90.724663 65.4351849,90.5810459 Z M63.7733375,90.5810459 C63.6297204,90.4340093 63.5579129,90.2579099 63.5579129,90.0527425 C63.5579129,89.8475752 63.6297204,89.6723307 63.7733375,89.5270038 C63.9169547,89.3816769 64.0913443,89.3090146 64.2965117,89.3090146 C64.3649008,89.3090146 64.4307244,89.3175631 64.4939843,89.3346604 C64.5572442,89.3517576 64.616229,89.3765483 64.6709403,89.4090331 C64.7256516,89.441518 64.7769426,89.481696 64.824815,89.5295684 C64.8966236,89.5979575 64.9504792,89.6766038 64.9863835,89.7655097 C65.0222878,89.8544155 65.0402397,89.9484492 65.0402397,90.0476134 C65.0402397,90.2562002 64.9684322,90.4331544 64.824815,90.5784813 C64.6811979,90.7238082 64.5068082,90.7964705 64.3016409,90.7964705 C64.093054,90.7964705 63.9169547,90.724663 63.7733375,90.5810459 Z M66.6412597,88.3564453 C65.2017993,88.5748709 64.1365431,88.8953429 63.4454589,89.3178711 C62.7543747,89.7403992 62.4088378,90.2506481 62.4088378,90.8486328 C62.405257,91.4501983 62.621889,91.9004705 63.0587401,92.1994629 C63.4955913,92.4984553 64.1884554,92.6461589 65.1373534,92.6425781 L67.57583,92.6425781 L67.57583,94.0605469 L65.0729003,94.0551758 C63.6298592,94.051595 62.5950388,93.7526071 61.9684081,93.1582031 C61.3346159,92.5458954 61.0230956,91.8064822 61.0338378,90.9399414 C61.04458,89.9337515 61.4295046,89.1200389 62.188623,88.4987793 C62.9477413,87.8775197 64.0523852,87.4469413 65.5025878,87.2070312 L64.6163573,86.7988281 C64.5268386,86.7558592 64.4382165,86.7200522 64.3504882,86.6914062 C64.2627599,86.6627603 64.1795088,86.6421713 64.1007323,86.6296387 C64.0219559,86.6171061 63.9467613,86.6108398 63.8751464,86.6108398 C63.7927892,86.6108398 63.7158043,86.6180012 63.6441894,86.6323242 C63.5725744,86.6466472 63.5045412,86.6690265 63.4400878,86.6994629 C63.3756343,86.7298992 63.3129722,86.7683917 63.2520995,86.8149414 L62.2584472,87.5722656 L61.3453612,86.5463867 L62.2960448,85.7460938 C62.7758649,85.3414693 63.2879041,85.1391602 63.8321776,85.1391602 C63.9610845,85.1391602 64.0899895,85.1507974 64.2188964,85.1740723 C64.3478033,85.1973471 64.4776034,85.2304685 64.6083007,85.2734375 C64.738998,85.3164065 64.8705884,85.3719072 65.0030761,85.4399414 L66.7271972,86.2993164 C67.282213,86.5750339 67.5597167,86.900877 67.5597167,87.2768555 L67.5597167,88.2382812 L67.3663573,88.2597656 C67.0906398,88.2848309 66.8525237,88.3170571 66.6520019,88.3564453 L66.6412597,88.3564453 Z M44.6265135,93.8618164 C44.4761221,93.711425 44.4009275,93.5288097 44.4009275,93.3139648 C44.4009275,93.09912 44.4779125,92.9165047 44.6318846,92.7661133 C44.7034995,92.6909176 44.7858555,92.6336265 44.8789549,92.5942383 C44.9720543,92.5548501 45.0705234,92.5351562 45.174365,92.5351562 C45.3927906,92.5351562 45.5780915,92.611246 45.7302732,92.7634277 C45.882455,92.9156095 45.9585447,93.0973297 45.9585447,93.3085938 C45.9585447,93.5270193 45.882455,93.7123202 45.7302732,93.864502 C45.5780915,94.0166837 45.3963713,94.0927734 45.1851072,94.0927734 C44.9666817,94.0927734 44.7804856,94.0157885 44.6265135,93.8618164 Z M45.4912596,92.2021484 C45.3408682,92.0481763 45.2656736,91.8637706 45.2656736,91.6489258 C45.2656736,91.434081 45.3408682,91.2505704 45.4912596,91.0983887 C45.641651,90.9462069 45.8242663,90.8701172 46.0391111,90.8701172 C46.0820801,90.8701172 46.1241532,90.8736979 46.1653318,90.8808594 C46.2065104,90.8880209 46.2458981,90.8978678 46.2834959,90.9104004 C46.3210937,90.922933 46.3577959,90.938151 46.3936033,90.9560547 C46.4294108,90.9739584 46.4643226,90.9945474 46.4983397,91.0178223 C46.5323568,91.0410971 46.5636878,91.0688475 46.5923338,91.1010742 C46.6675295,91.1726892 46.7239254,91.2550451 46.7615232,91.3481445 C46.7991211,91.441244 46.8179197,91.539713 46.8179197,91.6435547 C46.8179197,91.8619803 46.7427252,92.0472811 46.5923338,92.1994629 C46.4419424,92.3516446 46.2593271,92.4277344 46.0444822,92.4277344 C45.8260567,92.4277344 45.641651,92.3525398 45.4912596,92.2021484 Z M43.7510252,92.2021484 C43.6006338,92.0481763 43.5254393,91.8637706 43.5254393,91.6489258 C43.5254393,91.434081 43.6006338,91.2505704 43.7510252,91.0983887 C43.9014166,90.9462069 44.0840319,90.8701172 44.2988768,90.8701172 C44.3704917,90.8701172 44.4394201,90.8790689 44.5056639,90.8969727 C44.5719077,90.9148764 44.6336747,90.9408364 44.6909666,90.9748535 C44.7482586,91.0088706 44.801969,91.0509438 44.8520994,91.1010742 C44.9272951,91.1726892 44.983691,91.2550451 45.0212889,91.3481445 C45.0588867,91.441244 45.0776854,91.539713 45.0776854,91.6435547 C45.0776854,91.8619803 45.0024908,92.0472811 44.8520994,92.1994629 C44.701708,92.3516446 44.5190927,92.4277344 44.3042479,92.4277344 C44.0858223,92.4277344 43.9014166,92.3525398 43.7510252,92.2021484 Z M47.6880369,88.5605469 C47.9780774,88.5605469 48.1920239,88.468344 48.3298826,88.2839355 C48.4677414,88.0995271 48.5366697,87.7924826 48.5366697,87.362793 L48.5366697,86.0576172 L49.9224119,86.0576172 L49.9224119,87.3789062 C49.9224119,87.7978537 49.8740726,88.1702458 49.7773924,88.4960938 C49.6807122,88.8219417 49.5383797,89.0958648 49.3503904,89.3178711 C49.1624012,89.5398774 48.9251803,89.7090652 48.6387205,89.8254395 C48.3522607,89.9418137 48.022837,90 47.6504393,90 L42.3706541,90 C41.6294395,90 41.0663754,89.7771018 40.6814451,89.3312988 C40.2965148,88.8854958 40.1040525,88.2454469 40.1040525,87.4111328 L40.1040525,86.0576172 L41.4951658,86.0576172 L41.4951658,87.3520508 C41.4951658,87.7889019 41.5640942,88.0995271 41.7019529,88.2839355 C41.8398117,88.468344 42.0519678,88.5605469 42.3384275,88.5605469 L47.6880369,88.5605469 Z M25.8935056,91.2729492 C25.7431142,91.1225578 25.6679196,90.9399425 25.6679196,90.7250977 C25.6679196,90.5102528 25.7431142,90.3267423 25.8935056,90.1745605 C26.043897,90.0223788 26.2265123,89.9462891 26.4413571,89.9462891 C26.5129721,89.9462891 26.5819004,89.9552408 26.6481442,89.9731445 C26.7143881,89.9910483 26.776155,90.0170083 26.833447,90.0510254 C26.8907389,90.0850425 26.9444493,90.1271156 26.9945798,90.1772461 C27.0697755,90.248861 27.1261714,90.331217 27.1637692,90.4243164 C27.2013671,90.5174158 27.2201657,90.6158849 27.2201657,90.7197266 C27.2201657,90.7447918 27.2192706,90.7671711 27.2174802,90.7868652 C27.2156898,90.8065593 27.2130043,90.8271483 27.2094235,90.8486328 C27.2058428,90.8701173 27.2022621,90.8907063 27.1986814,90.9104004 C27.1951006,90.9300945 27.1897296,90.9488931 27.1825681,90.9667969 C27.1754066,90.9847006 27.1682452,91.0034993 27.1610837,91.0231934 C27.1539222,91.0428875 27.1458656,91.0616861 27.1369138,91.0795898 C27.1279619,91.0974936 27.118115,91.1145019 27.1073728,91.1306152 L27.0751462,91.1789551 C27.064404,91.1950684 27.0518715,91.2111816 27.0375485,91.2272949 C27.0232256,91.2434083 27.0089028,91.2586262 26.9945798,91.2729492 C26.8406077,91.4269213 26.6579923,91.5039062 26.4467282,91.5039062 C26.2283027,91.5039062 26.043897,91.4269213 25.8935056,91.2729492 Z M27.9936032,88.3564453 C26.5541429,88.5748709 25.4888866,88.8953429 24.7978024,89.3178711 C24.1067183,89.7403992 23.7611814,90.2506481 23.7611814,90.8486328 C23.7576006,91.4501983 23.9742326,91.9004705 24.4110837,92.1994629 C24.8479348,92.4984553 25.540799,92.6461589 26.489697,92.6425781 L28.9281735,92.6425781 L28.9281735,94.0605469 L26.4252439,94.0551758 C24.9822028,94.051595 23.9473824,93.7526071 23.3207517,93.1582031 C22.6869594,92.5458954 22.3754391,91.8064822 22.3861814,90.9399414 C22.3969236,89.9337515 22.7818481,89.1200389 23.5409665,88.4987793 C24.3000849,87.8775197 25.4047288,87.4469413 26.8549314,87.2070312 L25.9687009,86.7988281 C25.8791822,86.7558592 25.79056,86.7200522 25.7028317,86.6914062 C25.6151034,86.6627603 25.5318523,86.6421713 25.4530759,86.6296387 C25.3742995,86.6171061 25.2991049,86.6108398 25.2274899,86.6108398 C25.1451328,86.6108398 25.0681479,86.6180012 24.9965329,86.6323242 C24.924918,86.6466472 24.8568848,86.6690265 24.7924314,86.6994629 C24.7279779,86.7298992 24.6653158,86.7683917 24.6044431,86.8149414 L23.6107907,87.5722656 L22.6977048,86.5463867 L23.6483884,85.7460938 C24.1282085,85.3414693 24.6402476,85.1391602 25.1845212,85.1391602 C25.3134281,85.1391602 25.4423331,85.1507974 25.5712399,85.1740723 C25.7001468,85.1973471 25.829947,85.2304685 25.9606442,85.2734375 C26.0913415,85.3164065 26.222932,85.3719072 26.3554196,85.4399414 L28.0795407,86.2993164 C28.6345565,86.5750339 28.9120603,86.900877 28.9120603,87.2768555 L28.9120603,88.2382812 L28.7187009,88.2597656 C28.4429834,88.2848309 28.2048673,88.3170571 28.0043454,88.3564453 L27.9936032,88.3564453 Z"
                              id="ش-ی-د-س-چ-پ-ج" fill="#959FA8"></path>
                        <g id="Group-6" transform="translate(21.000000, 102.000000)" opacity="0.445405506">
                            <g id="Group-5" fill="#D8D8D8">
                                <rect id="Rectangle-Copy-7" x="57" y="0" width="15" height="15" rx="2"></rect>
                                <rect id="Rectangle-Copy-8" x="38" y="0" width="15" height="15" rx="2"></rect>
                                <rect id="Rectangle-Copy-9" x="19" y="0" width="15" height="15" rx="2"></rect>
                                <rect id="Rectangle-Copy-10" x="0" y="0" width="15" height="15" rx="2"></rect>
                            </g>
                            <g id="Group-5-Copy" transform="translate(0.000000, 20.000000)" fill="#D8D8D8">
                                <rect id="Rectangle" x="115" y="0" width="15" height="15" rx="2"></rect>
                                <rect id="Rectangle-Copy-7" x="57" y="0" width="15" height="15" rx="2"></rect>
                                <rect id="Rectangle-Copy-5" x="96" y="0" width="15" height="15" rx="2"></rect>
                                <rect id="Rectangle-Copy-8" x="38" y="0" width="15" height="15" rx="2"></rect>
                                <rect id="Rectangle-Copy-6" x="77" y="0" width="15" height="15" rx="2"></rect>
                                <rect id="Rectangle-Copy-9" x="19" y="0" width="15" height="15" rx="2"></rect>
                                <rect id="Rectangle-Copy-10" x="0" y="0" width="15" height="15" rx="2"></rect>
                            </g>
                            <g id="Group-5-Copy-2" transform="translate(0.000000, 40.000000)">
                                <rect id="Rectangle" fill="#D8D8D8" x="115" y="0" width="15" height="15" rx="2"></rect>
                                <rect id="Rectangle-Copy-7" fill="#D8D8D8" x="57" y="0" width="15" height="15" rx="2"></rect>
                                <rect id="Rectangle-Copy-5" fill="#D8D8D8" x="96" y="0" width="15" height="15" rx="2"></rect>
                                <rect id="Rectangle-Copy-8" fill="#D8D8D8" x="38" y="0" width="15" height="15" rx="2"></rect>
                                <rect id="Rectangle-Copy-6" fill="#9CBAFF" x="77" y="0" width="15" height="15" rx="2"></rect>
                                <rect id="Rectangle-Copy-9" fill="#D8D8D8" x="19" y="0" width="15" height="15" rx="2"></rect>
                                <rect id="Rectangle-Copy-10" fill="#D8D8D8" x="0" y="0" width="15" height="15" rx="2"></rect>
                            </g>
                            <g id="Group-5-Copy-3" transform="translate(0.000000, 60.000000)" fill="#D8D8D8">
                                <rect id="Rectangle" x="115" y="0" width="15" height="15" rx="2"></rect>
                                <rect id="Rectangle-Copy-7" x="57" y="0" width="15" height="15" rx="2"></rect>
                                <rect id="Rectangle-Copy-5" x="96" y="0" width="15" height="15" rx="2"></rect>
                                <rect id="Rectangle-Copy-8" x="38" y="0" width="15" height="15" rx="2"></rect>
                                <rect id="Rectangle-Copy-6" x="77" y="0" width="15" height="15" rx="2"></rect>
                                <rect id="Rectangle-Copy-9" x="19" y="0" width="15" height="15" rx="2"></rect>
                                <rect id="Rectangle-Copy-10" x="0" y="0" width="15" height="15" rx="2"></rect>
                            </g>
                            <g id="Group-5-Copy-4" transform="translate(0.000000, 80.000000)" fill="#D8D8D8">
                                <rect id="Rectangle" x="115" y="0" width="15" height="15" rx="2"></rect>
                                <rect id="Rectangle-Copy-7" x="57" y="0" width="15" height="15" rx="2"></rect>
                                <rect id="Rectangle-Copy-5" x="96" y="0" width="15" height="15" rx="2"></rect>
                                <rect id="Rectangle-Copy-8" x="38" y="0" width="15" height="15" rx="2"></rect>
                                <rect id="Rectangle-Copy-6" x="77" y="0" width="15" height="15" rx="2"></rect>
                            </g>
                        </g>
                        <polygon id="Polygon" fill="#FFC099" points="88 0 107.918584 11.5 107.918584 34.5 88 46 68.0814157 34.5 68.0814157 11.5"></polygon>
                        <polygon id="Polygon-Copy" fill="url(#linearGradient-3)" points="88 7 101.856406 15 101.856406 31 88 39 74.1435935 31 74.1435935 15"></polygon>
                        <path d="M113.883789,58.9946289 L113.883789,51.7060547 L115.253418,51.7060547 L115.253418,58.9946289 L113.883789,58.9946289 Z M110.602051,53.7685547 C110.451659,53.6181633 110.376465,53.4355479 110.376465,53.2207031 C110.376465,53.0058583 110.451659,52.8223478 110.602051,52.670166 C110.752442,52.5179843 110.935058,52.4418945 111.149902,52.4418945 C111.221517,52.4418945 111.290446,52.4508463 111.356689,52.46875 C111.422933,52.4866537 111.4847,52.5126138 111.541992,52.5466309 C111.599284,52.580648 111.652995,52.6227211 111.703125,52.6728516 C111.778321,52.7444665 111.834717,52.8268225 111.872314,52.9199219 C111.909912,53.0130213 111.928711,53.1114904 111.928711,53.215332 C111.928711,53.2403973 111.927816,53.2627766 111.926025,53.2824707 C111.924235,53.3021648 111.921549,53.3227538 111.917969,53.3442383 C111.914388,53.3657228 111.910807,53.3863118 111.907227,53.4060059 C111.903646,53.4257 111.898275,53.4444986 111.891113,53.4624023 C111.883952,53.4803061 111.87679,53.4991047 111.869629,53.5187988 C111.862467,53.5384929 111.854411,53.5572916 111.845459,53.5751953 C111.836507,53.593099 111.82666,53.6101073 111.815918,53.6262207 L111.783691,53.6745605 C111.772949,53.6906739 111.760417,53.706787 111.746094,53.7229004 C111.731771,53.7390138 111.717448,53.7542317 111.703125,53.7685547 C111.549153,53.9225268 111.366538,53.9995117 111.155273,53.9995117 C110.936848,53.9995117 110.752442,53.9225268 110.602051,53.7685547 Z M109.377441,59 C109.184081,59 109.032797,58.9355475 108.923584,58.8066406 C108.814371,58.6777337 108.759766,58.5130218 108.759766,58.3125 L108.759766,58.253418 C108.759766,58.1209303 108.78304,58.0027674 108.82959,57.8989258 C108.87614,57.7950841 108.946858,57.7127282 109.041748,57.6518555 C109.136638,57.5909828 109.248535,57.5605469 109.377441,57.5605469 L110.628906,57.5605469 C110.890301,57.5605469 111.080973,57.488933 111.200928,57.3457031 C111.320883,57.2024732 111.380859,56.9571957 111.380859,56.6098633 L111.380859,54.8588867 L112.766602,54.8588867 L112.766602,56.5830078 C112.766602,57.3600299 112.592043,57.9571105 112.24292,58.3742676 C111.893797,58.7914246 111.382653,59 110.709473,59 L109.377441,59 Z M106.793945,53.2207031 C106.793945,53.0058583 106.86914,52.8223478 107.019531,52.670166 C107.169923,52.5179843 107.352538,52.4418945 107.567383,52.4418945 C107.674805,52.4418945 107.775065,52.4615883 107.868164,52.5009766 C107.961263,52.5403648 108.04541,52.5967607 108.120605,52.670166 C108.195801,52.7435713 108.252197,52.8268225 108.289795,52.9199219 C108.327393,53.0130213 108.346191,53.1114904 108.346191,53.215332 C108.346191,53.3263352 108.327393,53.428385 108.289795,53.5214844 C108.252197,53.6145838 108.195801,53.6969397 108.120605,53.7685547 C108.070475,53.8186851 108.016765,53.8607583 107.959473,53.8947754 C107.902181,53.9287925 107.841309,53.9547525 107.776855,53.9726562 C107.712402,53.99056 107.644369,53.9995117 107.572754,53.9995117 C107.465331,53.9995117 107.365072,53.9798179 107.271973,53.9404297 C107.178873,53.9010415 107.094727,53.8446455 107.019531,53.7712402 C106.944336,53.6978349 106.88794,53.6145838 106.850342,53.5214844 C106.812744,53.428385 106.793945,53.3281255 106.793945,53.2207031 Z M105.279297,53.7685547 C105.128905,53.6181633 105.053711,53.4355479 105.053711,53.2207031 C105.053711,53.0058583 105.128905,52.8223478 105.279297,52.670166 C105.429688,52.5179843 105.612304,52.4418945 105.827148,52.4418945 C105.898763,52.4418945 105.967692,52.4508463 106.033936,52.46875 C106.100179,52.4866537 106.161946,52.5126138 106.219238,52.5466309 C106.27653,52.580648 106.330241,52.6227211 106.380371,52.6728516 C106.455567,52.7444665 106.511963,52.8268225 106.549561,52.9199219 C106.587158,53.0130213 106.605957,53.1114904 106.605957,53.215332 C106.605957,53.2403973 106.605062,53.2627766 106.603271,53.2824707 C106.601481,53.3021648 106.598796,53.3227538 106.595215,53.3442383 C106.591634,53.3657228 106.588053,53.3863118 106.584473,53.4060059 C106.580892,53.4257 106.575521,53.4444986 106.568359,53.4624023 C106.561198,53.4803061 106.554036,53.4991047 106.546875,53.5187988 C106.539714,53.5384929 106.531657,53.5572916 106.522705,53.5751953 C106.513753,53.593099 106.503906,53.6101073 106.493164,53.6262207 L106.460938,53.6745605 C106.450195,53.6906739 106.437663,53.706787 106.42334,53.7229004 C106.409017,53.7390138 106.394694,53.7542317 106.380371,53.7685547 C106.226399,53.9225268 106.043784,53.9995117 105.83252,53.9995117 C105.614094,53.9995117 105.429688,53.9225268 105.279297,53.7685547 Z M109.431152,59 L109.318359,59 C108.920896,59 108.562827,58.9427089 108.244141,58.828125 C107.925454,58.7135411 107.653321,58.5398775 107.427734,58.3071289 C106.97656,58.7690453 106.344568,59 105.531738,59 L104.666992,59 C104.538085,59 104.426189,58.9695641 104.331299,58.9086914 C104.236409,58.8478187 104.16569,58.7663579 104.119141,58.6643066 C104.072591,58.5622553 104.049316,58.4449876 104.049316,58.3125 L104.049316,58.253418 C104.049316,58.0493154 104.103922,57.8828131 104.213135,57.7539062 C104.322348,57.6249994 104.473632,57.5605469 104.666992,57.5605469 L105.558594,57.5605469 C105.966799,57.5605469 106.258625,57.4880378 106.434082,57.3430176 C106.609539,57.1979973 106.697266,56.9679378 106.697266,56.652832 L106.697266,55.0737305 L108.115234,55.0737305 L108.115234,56.652832 C108.115234,56.964357 108.207437,57.1935214 108.391846,57.340332 C108.576254,57.4871427 108.883299,57.5605469 109.312988,57.5605469 L109.431152,57.5605469 C109.624513,57.5605469 109.775797,57.6249994 109.88501,57.7539062 C109.994223,57.8828131 110.048828,58.0493154 110.048828,58.253418 L110.048828,58.3125 C110.048828,58.4449876 110.025554,58.5622553 109.979004,58.6643066 C109.932454,58.7663579 109.861736,58.8478187 109.766846,58.9086914 C109.671956,58.9695641 109.560059,59 109.431152,59 Z M100.063965,53.0219727 C99.9135735,52.8715813 99.8383789,52.6889659 99.8383789,52.4741211 C99.8383789,52.2592763 99.9135735,52.0757657 100.063965,51.923584 C100.214356,51.7714022 100.396972,51.6953125 100.611816,51.6953125 C100.683431,51.6953125 100.75236,51.7042642 100.818604,51.722168 C100.884847,51.7400717 100.946614,51.7660317 101.003906,51.8000488 C101.061198,51.8340659 101.114909,51.8761391 101.165039,51.9262695 C101.240235,51.9978845 101.296631,52.0802404 101.334229,52.1733398 C101.371826,52.2664393 101.390625,52.3649083 101.390625,52.46875 C101.390625,52.4938152 101.38973,52.5161946 101.387939,52.5358887 C101.386149,52.5555828 101.383464,52.5761718 101.379883,52.5976562 C101.376302,52.6191407 101.372721,52.6397297 101.369141,52.6594238 C101.36556,52.6791179 101.360189,52.6979166 101.353027,52.7158203 C101.345866,52.733724 101.338704,52.7525227 101.331543,52.7722168 C101.324381,52.7919109 101.316325,52.8107095 101.307373,52.8286133 C101.298421,52.846517 101.288574,52.8635253 101.277832,52.8796387 L101.245605,52.9279785 C101.234863,52.9440919 101.222331,52.960205 101.208008,52.9763184 C101.193685,52.9924317 101.179362,53.0076497 101.165039,53.0219727 C101.011067,53.1759448 100.828452,53.2529297 100.617188,53.2529297 C100.398762,53.2529297 100.214356,53.1759448 100.063965,53.0219727 Z M104.720703,59 L104.248047,59 C103.503251,59 102.916018,58.69027 102.486328,58.0708008 L102.083496,58.2910156 C101.657387,58.5273449 101.214276,58.7045893 100.75415,58.8227539 C100.294024,58.9409186 99.822268,59 99.3388672,59 L97.5825195,59 C97.4536126,59 97.341716,58.9695641 97.2468262,58.9086914 C97.1519364,58.8478187 97.0812177,58.7663579 97.034668,58.6643066 C96.9881183,58.5622553 96.9648438,58.4449876 96.9648438,58.3125 L96.9648438,58.253418 C96.9648438,58.0493154 97.0194493,57.8828131 97.1286621,57.7539062 C97.2378749,57.6249994 97.3891592,57.5605469 97.5825195,57.5605469 L99.328125,57.5605469 C100.058597,57.5605469 100.713864,57.4119481 101.293945,57.1147461 L102.207031,56.6474609 L102.437988,56.5292969 L101.068359,55.8095703 C100.835611,55.6878249 100.592124,55.6269531 100.337891,55.6269531 C100.298502,55.6269531 100.26001,55.6287435 100.222412,55.6323242 C100.184814,55.635905 100.148112,55.641276 100.112305,55.6484375 C100.076497,55.655599 100.041585,55.6654459 100.007568,55.6779785 C99.9735513,55.6905111 99.9404298,55.7039387 99.9082031,55.7182617 C99.8759764,55.7325847 99.8437502,55.749593 99.8115234,55.7692871 C99.7792967,55.7889812 99.7470705,55.8113606 99.7148438,55.8364258 L98.7211914,56.5883789 L97.8081055,55.5678711 L98.7587891,54.762207 C99.2386092,54.3575826 99.7506483,54.1552734 100.294922,54.1552734 C100.703127,54.1552734 101.095213,54.2573232 101.471191,54.4614258 L103.313477,55.4550781 C103.864912,55.7522801 104.140625,56.0781232 104.140625,56.4326172 C104.140625,56.6009123 104.0896,56.7629387 103.987549,56.9187012 C103.885498,57.0744637 103.741375,57.2293287 103.555176,57.3833008 C103.741375,57.5014654 103.966958,57.5605469 104.231934,57.5605469 L104.720703,57.5605469 C104.914063,57.5605469 105.065348,57.6249994 105.174561,57.7539062 C105.283773,57.8828131 105.338379,58.0493154 105.338379,58.253418 L105.338379,58.3125 C105.338379,58.5130218 105.283773,58.6777337 105.174561,58.8066406 C105.065348,58.9355475 104.914063,59 104.720703,59 Z M97.6362305,59 L97.496582,59 C96.7732711,59 96.2218443,58.7887391 95.8422852,58.3662109 C95.4663067,57.9436828 95.2783203,57.3367553 95.2783203,56.5454102 L95.2783203,51.6577148 L96.6640625,51.6577148 L96.6640625,56.4970703 C96.6640625,56.8802102 96.7320957,57.1541333 96.8681641,57.3188477 C97.0042325,57.4799813 97.2190741,57.5605469 97.5126953,57.5605469 L97.6362305,57.5605469 C97.8295908,57.5605469 97.9799799,57.6249994 98.0874023,57.7539062 C98.1984055,57.8828131 98.2539062,58.0493154 98.2539062,58.253418 L98.2539062,58.3125 C98.2539062,58.5130218 98.1993007,58.6777337 98.0900879,58.8066406 C97.9808751,58.9355475 97.8295908,59 97.6362305,59 Z M88.9189453,61.347168 C88.7685539,61.1967766 88.6933594,61.0141612 88.6933594,60.7993164 C88.6933594,60.5844716 88.7685539,60.400961 88.9189453,60.2487793 C89.0693367,60.0965975 89.2519521,60.0205078 89.4667969,60.0205078 C89.5384118,60.0205078 89.6073402,60.0294595 89.673584,60.0473633 C89.7398278,60.065267 89.8015948,60.091227 89.8588867,60.1252441 C89.9161787,60.1592612 89.9698891,60.2013344 90.0200195,60.2514648 C90.0952152,60.3230798 90.1516111,60.4054357 90.189209,60.4985352 C90.2268068,60.5916346 90.2456055,60.6901036 90.2456055,60.7939453 C90.2456055,60.8190105 90.2447103,60.8413899 90.2429199,60.861084 C90.2411295,60.8807781 90.238444,60.9013671 90.2348633,60.9228516 C90.2312825,60.944336 90.2277018,60.964925 90.2241211,60.9846191 C90.2205403,61.0043132 90.2151693,61.0231119 90.2080078,61.0410156 C90.2008463,61.0589194 90.1936849,61.077718 90.1865234,61.0974121 C90.1793619,61.1171062 90.1713054,61.1359049 90.1623535,61.1538086 C90.1534016,61.1717123 90.1435547,61.1887206 90.1328125,61.204834 L90.1005859,61.2531738 C90.0898437,61.2692872 90.0773113,61.2854003 90.0629883,61.3015137 C90.0486653,61.317627 90.0343425,61.332845 90.0200195,61.347168 C89.8660474,61.5011401 89.683432,61.578125 89.472168,61.578125 C89.2537424,61.578125 89.0693367,61.5011401 88.9189453,61.347168 Z M92.0234375,57.5605469 C92.313478,57.5605469 92.5274244,57.468344 92.6652832,57.2839355 C92.803142,57.0995271 92.8720703,56.7924826 92.8720703,56.362793 L92.8720703,55.0576172 L94.2578125,55.0576172 L94.2578125,56.3789062 C94.2578125,56.7978537 94.2094731,57.1702458 94.112793,57.4960938 C94.0161128,57.8219417 93.8737802,58.0958648 93.685791,58.3178711 C93.4978018,58.5398774 93.2605809,58.7090652 92.9741211,58.8254395 C92.6876613,58.9418137 92.3582375,59 91.9858398,59 L86.7060547,59 C85.96484,59 85.401776,58.7771018 85.0168457,58.3312988 C84.6319154,57.8854958 84.4394531,57.2454469 84.4394531,56.4111328 L84.4394531,55.0576172 L85.8305664,55.0576172 L85.8305664,56.3520508 C85.8305664,56.7889019 85.8994948,57.0995271 86.0373535,57.2839355 C86.1752123,57.468344 86.3873684,57.5605469 86.6738281,57.5605469 L92.0234375,57.5605469 Z M79.1542969,53.2260742 C79.1542969,53.0112294 79.2294914,52.8277189 79.3798828,52.6755371 C79.5302742,52.5233554 79.7128896,52.4472656 79.9277344,52.4472656 C80.0351568,52.4472656 80.1354162,52.4669594 80.2285156,52.5063477 C80.321615,52.5457359 80.4057613,52.6021318 80.480957,52.6755371 C80.5561527,52.7489424 80.6125486,52.8321935 80.6501465,52.925293 C80.6877443,53.0183924 80.706543,53.1168615 80.706543,53.2207031 C80.706543,53.3317063 80.6877443,53.433756 80.6501465,53.5268555 C80.6125486,53.6199549 80.5561527,53.7023108 80.480957,53.7739258 C80.4308266,53.8240562 80.3771162,53.8661294 80.3198242,53.9001465 C80.2625323,53.9341636 80.2016605,53.9601236 80.137207,53.9780273 C80.0727536,53.9959311 80.0047204,54.0048828 79.9331055,54.0048828 C79.8256831,54.0048828 79.7254236,53.985189 79.6323242,53.9458008 C79.5392248,53.9064126 79.4550785,53.8500166 79.3798828,53.7766113 C79.3046871,53.703206 79.2482912,53.6199549 79.2106934,53.5268555 C79.1730955,53.433756 79.1542969,53.3334966 79.1542969,53.2260742 Z M77.6396484,53.7739258 C77.4892571,53.6235344 77.4140625,53.440919 77.4140625,53.2260742 C77.4140625,53.0112294 77.4892571,52.8277189 77.6396484,52.6755371 C77.7900398,52.5233554 77.9726552,52.4472656 78.1875,52.4472656 C78.2591149,52.4472656 78.3280433,52.4562174 78.3942871,52.4741211 C78.4605309,52.4920248 78.5222979,52.5179849 78.5795898,52.552002 C78.6368818,52.5860191 78.6905922,52.6280922 78.7407227,52.6782227 C78.8159183,52.7498376 78.8723143,52.8321935 78.9099121,52.925293 C78.94751,53.0183924 78.9663086,53.1168615 78.9663086,53.2207031 C78.9663086,53.2457684 78.9654134,53.2681477 78.963623,53.2878418 C78.9618327,53.3075359 78.9591472,53.3281249 78.9555664,53.3496094 C78.9519857,53.3710939 78.948405,53.3916828 78.9448242,53.411377 C78.9412435,53.4310711 78.9358724,53.4498697 78.9287109,53.4677734 C78.9215494,53.4856772 78.9143881,53.5044758 78.9072266,53.5241699 C78.9000651,53.543864 78.8920085,53.5626627 78.8830566,53.5805664 C78.8741048,53.5984701 78.8642579,53.6154784 78.8535156,53.6315918 L78.8212891,53.6799316 C78.8105468,53.696045 78.7980144,53.7121581 78.7836914,53.7282715 C78.7693684,53.7443848 78.7550456,53.7596028 78.7407227,53.7739258 C78.5867505,53.9278979 78.4041352,54.0048828 78.1928711,54.0048828 C77.9744455,54.0048828 77.7900398,53.9278979 77.6396484,53.7739258 Z M77.2368164,59 C77.0434561,59 76.8921718,58.9355475 76.782959,58.8066406 C76.6737462,58.6777337 76.6191406,58.5130218 76.6191406,58.3125 L76.6191406,58.253418 C76.6191406,58.1209303 76.6424151,58.0027674 76.6889648,57.8989258 C76.7355146,57.7950841 76.8062332,57.7127282 76.901123,57.6518555 C76.9960128,57.5909828 77.1079095,57.5605469 77.2368164,57.5605469 L78.4882812,57.5605469 C78.7496758,57.5605469 78.9403477,57.488933 79.0603027,57.3457031 C79.1802578,57.2024732 79.2402344,56.9571957 79.2402344,56.6098633 L79.2402344,54.8588867 L80.6259766,54.8588867 L80.6259766,56.5830078 C80.6259766,57.3600299 80.4514178,57.9571105 80.1022949,58.3742676 C79.7531721,58.7914246 79.2420281,59 78.5688477,59 L77.2368164,59 Z M77.2905273,59 L77.1508789,59 C76.427568,59 75.8761412,58.7887391 75.496582,58.3662109 C75.1206036,57.9436828 74.9326172,57.3367553 74.9326172,56.5454102 L74.9326172,51.6577148 L76.3183594,51.6577148 L76.3183594,56.4970703 C76.3183594,56.8802102 76.3863925,57.1541333 76.5224609,57.3188477 C76.6585293,57.4799813 76.8733709,57.5605469 77.1669922,57.5605469 L77.2905273,57.5605469 C77.4838877,57.5605469 77.6342768,57.6249994 77.7416992,57.7539062 C77.8527024,57.8828131 77.9082031,58.0493154 77.9082031,58.253418 L77.9082031,58.3125 C77.9082031,58.5130218 77.8535976,58.6777337 77.7443848,58.8066406 C77.635172,58.9355475 77.4838877,59 77.2905273,59 Z M70.7915039,60.203125 C71.3859079,60.2067057 71.8173815,60.0921236 72.0859375,59.859375 C72.3544935,59.6266264 72.4887695,59.2631861 72.4887695,58.769043 L72.4887695,55.3046875 L73.9174805,55.2939453 L73.9174805,58.7583008 C73.9174805,59.6964565 73.651614,60.4099097 73.119873,60.8986816 C72.5881321,61.3874536 71.8173879,61.6336263 70.8076172,61.637207 L70.0288086,61.6425781 L70.0288086,60.203125 L70.7915039,60.203125 Z M67.9501953,60.7993164 C67.9501953,60.5844716 68.0253899,60.400961 68.1757812,60.2487793 C68.3261726,60.0965975 68.508788,60.0205078 68.7236328,60.0205078 C68.8310552,60.0205078 68.9313146,60.0402016 69.0244141,60.0795898 C69.1175135,60.1189781 69.2016598,60.175374 69.2768555,60.2487793 C69.3520512,60.3221846 69.4084471,60.4054357 69.4460449,60.4985352 C69.4836428,60.5916346 69.5024414,60.6901036 69.5024414,60.7939453 C69.5024414,60.9049485 69.4836428,61.0069982 69.4460449,61.1000977 C69.4084471,61.1931971 69.3520512,61.275553 69.2768555,61.347168 C69.226725,61.3972984 69.1730146,61.4393716 69.1157227,61.4733887 C69.0584307,61.5074058 68.9975589,61.5333658 68.9331055,61.5512695 C68.868652,61.5691733 68.8006188,61.578125 68.7290039,61.578125 C68.6215815,61.578125 68.5213221,61.5584312 68.4282227,61.519043 C68.3351232,61.4796548 68.2509769,61.4232588 68.1757812,61.3498535 C68.1005856,61.2764482 68.0441896,61.1931971 68.0065918,61.1000977 C67.968994,61.0069982 67.9501953,60.9067388 67.9501953,60.7993164 Z M66.4355469,61.347168 C66.2851555,61.1967766 66.2099609,61.0141612 66.2099609,60.7993164 C66.2099609,60.5844716 66.2851555,60.400961 66.4355469,60.2487793 C66.5859383,60.0965975 66.7685536,60.0205078 66.9833984,60.0205078 C67.0550134,60.0205078 67.1239417,60.0294595 67.1901855,60.0473633 C67.2564294,60.065267 67.3181963,60.091227 67.3754883,60.1252441 C67.4327802,60.1592612 67.4864906,60.2013344 67.5366211,60.2514648 C67.6118168,60.3230798 67.6682127,60.4054357 67.7058105,60.4985352 C67.7434084,60.5916346 67.762207,60.6901036 67.762207,60.7939453 C67.762207,60.8190105 67.7613119,60.8413899 67.7595215,60.861084 C67.7577311,60.8807781 67.7550456,60.9013671 67.7514648,60.9228516 C67.7478841,60.944336 67.7443034,60.964925 67.7407227,60.9846191 C67.7371419,61.0043132 67.7317709,61.0231119 67.7246094,61.0410156 C67.7174479,61.0589194 67.7102865,61.077718 67.703125,61.0974121 C67.6959635,61.1171062 67.6879069,61.1359049 67.6789551,61.1538086 C67.6700032,61.1717123 67.6601563,61.1887206 67.6494141,61.204834 L67.6171875,61.2531738 C67.6064453,61.2692872 67.5939128,61.2854003 67.5795898,61.3015137 C67.5652669,61.317627 67.5509441,61.332845 67.5366211,61.347168 C67.382649,61.5011401 67.2000336,61.578125 66.9887695,61.578125 C66.770344,61.578125 66.5859383,61.5011401 66.4355469,61.347168 Z M66.2314453,59 C66.038085,59 65.8868007,58.9355475 65.7775879,58.8066406 C65.6683751,58.6777337 65.6137695,58.5130218 65.6137695,58.3125 L65.6137695,58.253418 C65.6137695,58.1209303 65.637044,58.0027674 65.6835938,57.8989258 C65.7301435,57.7950841 65.8008622,57.7127282 65.895752,57.6518555 C65.9906418,57.5909828 66.1025384,57.5605469 66.2314453,57.5605469 L67.4829102,57.5605469 C67.7443047,57.5605469 67.9349766,57.488933 68.0549316,57.3457031 C68.1748867,57.2024732 68.2348633,56.9571957 68.2348633,56.6098633 L68.2348633,54.8588867 L69.6206055,54.8588867 L69.6206055,56.5830078 C69.6206055,57.3600299 69.4460467,57.9571105 69.0969238,58.3742676 C68.747801,58.7914246 68.236657,59 67.5634766,59 L66.2314453,59 Z M61.9560547,52.871582 C61.8056633,52.7211907 61.7304688,52.5385753 61.7304688,52.3237305 C61.7304688,52.1088856 61.8056633,51.9253751 61.9560547,51.7731934 C62.1064461,51.6210116 62.2890614,51.5449219 62.5039062,51.5449219 C62.5755212,51.5449219 62.6444495,51.5538736 62.7106934,51.5717773 C62.7769372,51.5896811 62.8387041,51.6156411 62.8959961,51.6496582 C62.953288,51.6836753 63.0069984,51.7257484 63.0571289,51.7758789 C63.1323246,51.8474938 63.1887205,51.9298498 63.2263184,52.0229492 C63.2639162,52.1160486 63.2827148,52.2145177 63.2827148,52.3183594 C63.2827148,52.3434246 63.2818197,52.3658039 63.2800293,52.385498 C63.2782389,52.4051922 63.2755534,52.4257811 63.2719727,52.4472656 C63.2683919,52.4687501 63.2648112,52.4893391 63.2612305,52.5090332 C63.2576497,52.5287273 63.2522787,52.547526 63.2451172,52.5654297 C63.2379557,52.5833334 63.2307943,52.6021321 63.2236328,52.6218262 C63.2164713,52.6415203 63.2084148,52.6603189 63.1994629,52.6782227 C63.190511,52.6961264 63.1806641,52.7131347 63.1699219,52.729248 L63.1376953,52.7775879 C63.1269531,52.7937013 63.1144206,52.8098144 63.1000977,52.8259277 C63.0857747,52.8420411 63.0714519,52.857259 63.0571289,52.871582 C62.9031568,53.0255542 62.7205414,53.1025391 62.5092773,53.1025391 C62.2908518,53.1025391 62.1064461,53.0255542 61.9560547,52.871582 Z M66.2797852,59 L66.0004883,59 C65.3774383,59 64.8725605,58.8836275 64.4858398,58.6508789 C64.0991192,58.4181303 63.8520513,58.0708031 63.7446289,57.6088867 C62.6489203,57.7950856 61.841474,58.07617 61.3222656,58.4521484 C60.8030573,58.8281269 60.543457,59.293617 60.543457,59.8486328 C60.5398763,60.4501983 60.7565082,60.8995753 61.1933594,61.1967773 C61.6302105,61.4939794 62.3230747,61.6425781 63.2719727,61.6425781 L65.7104492,61.6425781 L65.7104492,63.0605469 L63.2075195,63.0551758 C61.7644785,63.051595 60.7296581,62.7526071 60.1030273,62.1582031 C59.4692351,61.5458954 59.1577148,60.8064822 59.168457,59.9399414 C59.1791993,58.9337515 59.5641238,58.1200389 60.3232422,57.4987793 C61.0823606,56.8775197 62.1870045,56.4469413 63.637207,56.2070312 L62.7509766,55.7988281 C62.6829424,55.7666014 62.6158044,55.738851 62.5495605,55.7155762 C62.4833167,55.6923013 62.4197594,55.6726075 62.3588867,55.6564941 C62.298014,55.6403808 62.2380374,55.6287435 62.1789551,55.621582 C62.1198728,55.6144205 62.0634768,55.6108398 62.0097656,55.6108398 C61.7734363,55.6144206 61.5657561,55.6824538 61.3867188,55.8149414 L60.3930664,56.5722656 L59.4799805,55.5463867 L60.4306641,54.7460938 C60.9104842,54.3414693 61.4225233,54.1391602 61.9667969,54.1391602 C62.0957038,54.1391602 62.2246087,54.1507974 62.3535156,54.1740723 C62.4824225,54.1973471 62.6122227,54.2304685 62.7429199,54.2734375 C62.8736172,54.3164065 63.0052077,54.3719072 63.1376953,54.4399414 L64.8618164,55.2993164 C65.4168322,55.5750339 65.6943359,55.900877 65.6943359,56.2768555 L65.6943359,57.2382812 L65.5009766,57.2597656 C65.32552,57.2740886 65.1625984,57.2919921 65.012207,57.3134766 C65.0480145,57.3600263 65.1035152,57.4003091 65.1787109,57.4343262 C65.2539066,57.4683433 65.3640129,57.497884 65.5090332,57.5229492 C65.6540535,57.5480144 65.8196605,57.5605469 66.0058594,57.5605469 L66.2797852,57.5605469 C66.4731455,57.5605469 66.6244298,57.6249994 66.7336426,57.7539062 C66.8428554,57.8828131 66.8974609,58.0493154 66.8974609,58.253418 L66.8974609,58.3125 C66.8974609,58.5130218 66.8428554,58.6777337 66.7336426,58.8066406 C66.6244298,58.9355475 66.4731455,59 66.2797852,59 Z"
                              id="انتخاب-تاریخ" fill="#69747D"></path>
                        <g id="calendar-with-a-clock-time-tools" transform="translate(86.500000, 23.500000) scale(-1, 1) translate(-86.500000, -23.500000) translate(79.000000, 16.000000)" fill="#FFFFFF" fill-rule="nonzero">
                            <path d="M1.87498841,2.34379541 L1.87498841,0.468752898 C1.87498841,0.209629585 2.08461886,0 2.34380507,0 C2.60286762,0 2.81249807,0.209629585 2.81249807,0.468752898 L2.81249807,2.34379541 C2.81249807,2.60285689 2.60286762,2.81248648 2.34380507,2.81248648 C2.08461886,2.81251739 1.87498841,2.60285689 1.87498841,2.34379541 Z M9.84385144,2.81251739 C10.1028522,2.81251739 10.3126063,2.6028878 10.3126063,2.34382632 L10.3126063,0.468752898 C10.3126063,0.209629585 10.1028522,0 9.84385144,0 C9.58472706,0 9.37494204,0.209629585 9.37494204,0.468752898 L9.37494204,2.34379541 C9.37494204,2.60285689 9.58472706,2.81251739 9.84385144,2.81251739 Z M15,11.2498841 C15,13.3210157 13.3209779,15 11.2499923,15 C9.17916123,15 7.50001546,13.3210157 7.50001546,11.2498841 C7.50001546,9.17906157 9.17913032,7.49998454 11.2499923,7.49998454 C13.3209779,7.49998454 15,9.17903065 15,11.2498841 Z M14.062614,11.2498841 C14.062614,9.69919396 12.8009979,8.43742851 11.2500232,8.43742851 C9.69917211,8.43742851 8.43755603,9.69916305 8.43755603,11.2498841 C8.43755603,12.8008833 9.69917211,14.0624633 11.2500232,14.0624633 C12.8009979,14.0624633 14.062614,12.8008833 14.062614,11.2498841 Z M3.75003864,5.62500386 L1.87498841,5.62500386 L1.87498841,7.49998454 L3.75003864,7.49998454 L3.75003864,5.62500386 Z M1.87498841,10.3125019 L3.75003864,10.3125019 L3.75003864,8.43742851 L1.87498841,8.43742851 L1.87498841,10.3125019 Z M4.68748647,7.49998454 L6.56256763,7.49998454 L6.56256763,5.62500386 L4.68748647,5.62500386 L4.68748647,7.49998454 Z M4.68748647,10.3125019 L6.56256763,10.3125019 L6.56256763,8.43742851 L4.68748647,8.43742851 L4.68748647,10.3125019 Z M0.937540575,11.1566776 L0.937540575,4.68746715 L11.2500232,4.68746715 L11.2500232,6.56250966 L12.1875638,6.56250966 L12.1875638,2.90594028 C12.1875638,2.33646873 11.7333696,1.87498068 11.1722426,1.87498068 L10.7812684,1.87498068 L10.7812684,2.34382632 C10.7812684,2.86012535 10.3609564,3.2813012 9.84388235,3.2813012 C9.32665377,3.2813012 8.90637269,2.86012535 8.90637269,2.34382632 L8.90637269,1.87498068 L3.28122198,1.87498068 L3.28122198,2.34382632 C3.28122198,2.86012535 2.86100274,3.2813012 2.34383598,3.2813012 C1.82654556,3.2813012 1.40629541,2.86012535 1.40629541,2.34382632 L1.40629541,1.87498068 L1.01578489,1.87498068 C0.454626956,1.87498068 0,2.33646873 0,2.90594028 L0,11.1567085 C0,11.7242943 0.454626956,12.1875754 1.01578489,12.1875754 L6.56256763,12.1875754 L6.56256763,11.249915 L1.01578489,11.249915 C0.973308519,11.2498841 0.937540575,11.2060167 0.937540575,11.1566776 Z M9.37494204,7.49998454 L9.37494204,5.62500386 L7.50004637,5.62500386 L7.50004637,7.49998454 L9.37494204,7.49998454 Z M12.6562877,11.2498841 L11.2499923,11.2498841 L11.2499923,9.84359446 C11.2499923,9.58462572 11.0403618,9.37499614 10.7812374,9.37499614 C10.5221131,9.37499614 10.3126063,9.58462572 10.3126063,9.84359446 L10.3126063,11.7187915 C10.3126063,11.9777912 10.5221131,12.1875444 10.7812374,12.1875444 L12.6562877,12.1875444 C12.9154121,12.1875444 13.1250425,11.9777912 13.1250425,11.7187915 C13.1250425,11.4596682 12.9154121,11.2498841 12.6562877,11.2498841 Z"
                                  id="Shape"></path>
                        </g>
                    </g>
                </g>
            </g>
        </g>
    </g>
</svg>