<svg width="122px" height="178px" viewBox="0 0 122 178" version="1.1" xmlns="http://www.w3.org/2000/svg">
    <g id="Welcome" stroke="none" stroke-width="1" fill="none" fill-rule="evenodd">
        <g id="Software" transform="translate(-551.000000, -407.000000)">
            <g id="Group-14" transform="translate(215.000000, 277.000000)">
                <g id="Rectangle" transform="translate(105.000000, 0.000000)">
                    <g id="Group-40" transform="translate(31.000000, 129.000000)">
                        <g id="Group-20" transform="translate(200.297872, 0.734139)">
                            <g id="Group-18" transform="translate(20.212766, 0.000000)" fill="#0E111C" fill-opacity="0.0941745924">
                                <rect id="Rectangle" x="0" y="0.648391148" width="101.06383" height="5.28614458" rx="2.64307229"></rect>
                                <rect id="Rectangle-Copy-14" x="36.1702128" y="14.3923671" width="64.893617" height="5.28614458" rx="2.64307229"></rect>
                            </g>
                            <g id="Group-19" transform="translate(68.085106, 45.598187)">
                                <rect id="Rectangle" fill="#F3F4F5" x="0" y="0" width="52.1276596" height="58.3232628" rx="5"></rect>
                                <g id="flaticon1543497832-svg" transform="translate(9.000000, 12.000000)">
                                    <path d="M21.825983,16.6676737 L17.6170214,12.4588594 C17.6165259,8.08359482 19.3343431,-1.05655682 24.1036078,0.951992793 C26.6371094,2.019058 24.6844702,6.58925769 24.6294803,6.71756308 C24.735497,6.57092831 29.4411021,0.0729272502 31.8264776,2.45846697 C34.2116054,4.84351126 27.7136246,9.54895177 27.566737,9.65471708 C27.6952946,9.599729 32.2654065,7.64740592 33.3327567,10.1808189 C35.3411289,14.949669 26.2006575,16.6676737 21.825983,16.6676737 Z"
                                          id="Path" fill="#67C1B0"></path>
                                    <path d="M23.939169,9.3631975 C23.939169,9.3631975 24.1741903,5.44118564 21.4244649,5.44118564 C18.734532,5.44118564 18.6757157,13.3222543 18.6747395,13.6676737 L17.6170214,12.5831069 C17.6165332,8.16173876 19.3090287,-1.07472559 24.0079914,0.954988755 C26.5041476,2.03329797 24.5802916,6.65165532 24.5261122,6.78131271 C24.6305662,6.6331328 29.2668077,0.0666602158 31.6170213,2.47733713 C30.5837083,1.41755037 23.939169,9.3631975 23.939169,9.3631975 Z"
                                          id="Path" fill="#51A2AF"></path>
                                    <path d="M20.9577822,20.8231011 C20.8064099,21.1030642 20.6295641,21.3886609 20.4252852,21.680136 C20.4081394,21.7058544 20.3905038,21.730593 20.3721334,21.7563114 C19.9109136,22.4053947 19.3191414,23.0875445 18.5938775,23.8154975 C18.5794261,23.8311735 18.5644848,23.8468495 18.5492987,23.8620355 C16.7463039,25.6650174 13.270377,27.999023 9.86131832,29.8105776 C8.99129559,30.2730189 8.12519189,30.7016587 7.29239987,31.0788618 C4.30071703,32.4338538 1.73816696,33.1231068 0.949953833,32.3348992 C0.229343763,31.6142943 0.742980474,29.4115751 1.87190359,26.7532729 C2.00564016,26.4382838 2.14770468,26.1164365 2.298587,25.7896904 C3.20192141,23.8233355 4.38277155,21.6860145 5.61236442,19.7532159 C6.12624611,18.9461483 6.6484557,18.1743515 7.16258232,17.4659934 C7.95471447,16.3738189 8.72798634,15.4303213 9.42312277,14.7356797 C13.342389,10.8164414 15.9225746,10.7253248 19.2412508,14.0439774 C21.6254854,16.4274602 22.2493446,18.4305556 20.9577822,20.8231011 Z"
                                          id="Path" fill="#FF9216"></path>
                                    <path d="M0.938885435,32.6676737 C-0.338262068,31.3891579 2.39523601,25.2919122 5.44500268,20.4921445 C5.94118454,19.7113824 6.4458886,18.9642778 6.94301737,18.2787998 C7.70883243,17.2219028 8.45594589,16.3091174 9.12754324,15.6366759 C12.9156644,11.8440298 15.4093571,11.7556193 18.6170213,14.9673157 C17.0688202,13.4171685 15.1974855,14.1287193 11.409601,17.9213653 C10.7380037,18.5938068 9.94804241,19.4641647 9.10765808,20.4461616 C8.56176332,21.0828123 7.99456306,21.7673421 7.42523227,22.4748634 C3.92426209,26.8230974 0.322445758,32.0504592 0.938885435,32.6676737 Z"
                                          id="Path" fill="#E8590C"></path>
                                </g>
                            </g>
                            <g id="Group-19-Copy-2" transform="translate(68.085106, 119.827795)">
                                <rect id="Rectangle" stroke="#E8E9EA" x="0.5" y="0.5" width="51.1276596" height="57.3232628" rx="5"></rect>
                                <g id="flaticon1543497832-svg" transform="translate(9.000000, 13.000000)">
                                    <path d="M21.6441498,16.0241692 L17.4152877,11.8089972 C17.41479,7.4271234 19.1407292,-1.72683511 23.9325436,0.284748562 C26.4780239,1.35342565 24.5161524,5.93052896 24.4609025,6.05902817 C24.5674204,5.9121719 29.2952743,-0.595644874 31.6919282,1.79349838 C34.0883331,4.18214546 27.5596291,8.89469389 27.412047,9.00061895 C27.5412124,8.94554782 32.1329324,6.99027561 33.2053292,9.52751546 C35.2231972,14.3035693 26.0395084,16.0241692 21.6441498,16.0241692 Z"
                                          id="Path" fill="#67C1B0"></path>
                                    <path d="M24.0698054,8.93195796 C24.0698054,8.93195796 24.3171823,4.9033053 21.4228974,4.9033053 C18.5915485,4.9033053 18.5296401,12.9986629 18.5286125,13.3534743 L17.4152877,12.2394178 C17.4147739,7.69783116 19.1962478,-1.78977572 24.1422459,0.29512723 C26.7696309,1.40275603 24.7446333,6.14668805 24.6876056,6.27987087 C24.7975509,6.1276619 29.6775305,-0.617355257 32.1513002,1.85886876 C31.0636635,0.770266049 24.0698054,8.93195796 24.0698054,8.93195796 Z"
                                          id="Path" fill="#51A2AF"></path>
                                    <path d="M20.7613305,19.9975806 C20.6068284,20.2824171 20.4263261,20.5729854 20.2178235,20.8695343 C20.2003232,20.8957005 20.182323,20.9208697 20.1635727,20.9470358 C19.6928166,21.6074181 19.0888088,22.3014424 18.3485493,23.0420673 C18.3337991,23.0580162 18.3185489,23.073965 18.3030487,23.0894155 C16.4627748,24.9237829 12.914979,27.2984178 9.43543396,29.1415072 C8.54742247,29.6119984 7.66341104,30.0480998 6.81340004,30.4318692 C3.75986057,31.8104482 1.14432671,32.5116994 0.339816336,31.7097711 C-0.39569321,30.9766222 0.128563555,28.735559 1.28082851,26.0309822 C1.41733024,25.71051 1.56233212,25.38306 1.71633411,25.0506261 C2.63834604,23.0500418 3.84361167,20.8755151 5.09862784,18.9090713 C5.62313466,18.0879545 6.15614156,17.3027227 6.68089836,16.5820338 C7.48940879,15.4708472 8.27866898,14.5109256 8.98817819,13.804192 C12.9884799,9.81672927 15.622014,9.72402655 19.0093078,13.1004488 C21.4428393,15.5254222 22.0795975,17.5633867 20.7613305,19.9975806 Z"
                                          id="Path" fill="#FF9216"></path>
                                    <path d="M0.335363233,32.0483384 C-0.995348201,30.7678912 1.85279357,24.6614353 5.03046832,19.8544171 C5.54746019,19.0724756 6.07333169,18.3242424 6.59131018,17.637729 C7.38924373,16.5792355 8.16769135,15.6650712 8.86745568,14.9916139 C12.8144518,11.1932388 15.4127306,11.1046947 18.7549251,14.3212426 C17.1417921,12.7687538 15.1919731,13.4813794 11.2452236,17.2797546 C10.5454593,17.9532118 9.72236682,18.8248844 8.84673654,19.8083648 C8.27794679,20.4459772 7.68695799,21.131541 7.0937493,21.8401311 C3.44594744,26.1949334 -0.3069301,31.4301915 0.335363233,32.0483384 Z"
                                          id="Path" fill="#E8590C"></path>
                                </g>
                            </g>
                            <g id="Group-19-Copy" transform="translate(0.000000, 45.598187)">
                                <rect id="Rectangle" stroke="#E8E9EA" x="0.5" y="0.5" width="51.1276596" height="57.3232628" rx="5"></rect>
                                <g id="flaticon1543498152-svg" transform="translate(8.000000, 18.000000)">
                                    <path d="M34.6482814,3.47466784 C34.4450494,2.84612009 33.7215236,2.50966079 33.0687638,2.74076893 C32.8494143,2.81859591 32.609918,2.90330392 32.3585853,2.99180843 C31.68039,3.23122128 31.0598653,3.59022194 30.5254686,4.05077738 C27.9204734,6.29779411 24.35573,8.70497309 20.0697272,9.93478176 C10.800135,12.5948985 5.8714459,5.1348977 4.79409005,3.2490171 L3.70212766,5.41274946 C4.29243205,6.11983611 4.77268391,6.9251555 4.83790954,7.72074653 C5.16051195,11.6642965 9.90762702,19.2462579 21.9615218,15.7872283 C26.7041039,14.4262052 32.6784175,11.4474251 34.6656581,4.0925382 C34.7203066,3.89014055 34.7127515,3.67445543 34.6482814,3.47466784 Z"
                                          id="Path" fill="#FFE17D"></path>
                                    <path d="M34.6482814,3.3694003 C34.5445248,3.04580246 34.3040211,2.80065258 34.0073579,2.66767372 C32.9781027,5.82950936 31.1928349,8.13033076 29.118207,9.82007121 C26.1893504,12.2057982 22.4155828,13.4590523 18.5579536,13.5341519 C18.4156661,13.5370219 18.2738822,13.5384569 18.1320983,13.5384569 C16.0884464,13.5384569 9.82804673,12.9560764 7.02611559,6.17415422 C5.88000837,4.93596791 5.13809847,3.74920331 4.79409005,3.14218823 L3.70212766,5.32318517 C4.29243205,6.03591363 4.77268391,6.84741954 4.83790954,7.64935862 C5.16051195,11.6243744 9.90762702,19.2668325 21.9615218,15.7802031 C23.5911548,15.3087978 25.3640827,14.6386418 27.0712812,13.6668915 C27.0720368,13.6673699 27.0730441,13.667609 27.0737996,13.6678482 C30.3375987,11.8164284 33.3613977,8.85812699 34.6656581,3.99220066 C34.7203066,3.78818807 34.7127515,3.57078199 34.6482814,3.3694003 Z"
                                          id="Path" fill="#FFD164"></path>
                                    <path d="M33.0763687,2.74379328 C32.9573034,2.78802327 32.8314702,2.8344771 32.7021277,2.88241353 L34.5242028,4.66767372 C34.5733329,4.49767247 34.6207084,4.32618862 34.6658279,4.15149262 C34.7202219,3.94072067 34.712702,3.71611148 34.6485321,3.5080576 C34.4462464,2.85350339 33.7260893,2.50312294 33.0763687,2.74379328 Z"
                                          id="Path" fill="#C48D66"></path>
                                    <path d="M33.3260138,10.7218737 C33.0756933,10.7367864 32.802027,10.7529016 32.5151312,10.7694981 C31.7405646,10.8147172 30.9854529,10.9970368 30.2850744,11.3073169 C26.8703406,12.819752 22.4187872,14.2162529 17.6175635,14.2162529 C7.2343238,14.2162529 4.65381836,5.26383026 4.17444825,3.04953682 C4.10259463,2.71760927 3.9466956,2.40708863 3.71505194,2.14539503 L2.57239747,0.85448549 C2.36565615,0.620933617 1.98693301,0.60385617 1.75658633,0.81744433 L0.864511732,1.64461741 C0.676187791,1.81924013 0.647913272,2.09127642 0.799402529,2.29428138 C1.4769538,3.2005879 3.18198613,5.71890774 2.73763495,7.57289145 C1.76177432,11.6447766 4.11556463,20.6676737 17.6175635,20.6676737 C22.9300634,20.6676737 30.041239,19.3921579 34.5151007,12.5477157 C34.6383154,12.3593829 34.7021277,12.139541 34.7021277,11.9194586 C34.7021277,11.2264998 34.0717871,10.6776166 33.3260138,10.7218737 Z"
                                          id="Path" fill="#FFE17D"></path>
                                    <path d="M34.2912965,11.3502628 C29.9544395,17.3034795 23.4261495,18.4442588 18.4989258,18.4442588 C7.2722074,18.4442588 4.02981667,11.9786799 3.94580007,7.66767372 C3.93429776,7.78233307 3.9162942,7.89536438 3.889789,8.00583742 C2.94910308,11.9430959 5.21805147,20.6676737 18.2333733,20.6676737 C23.3543853,20.6676737 30.2092398,19.4343296 34.5218421,12.8161816 C34.6406155,12.6340756 34.7021277,12.4215023 34.7021277,12.2084638 C34.7021277,11.8663462 34.5423461,11.5619059 34.2912965,11.3502628 Z"
                                          id="Path" fill="#FFD164"></path>
                                    <path d="M4.70212766,2.82982082 C4.61538529,2.67951525 4.51434474,2.53514278 4.39265118,2.40320167 L2.99301654,0.88714962 C2.73977961,0.612813761 2.27588257,0.592754166 1.99373149,0.843357638 L0.90103151,1.8152583 C0.670353979,2.0203745 0.63572059,2.33991512 0.821279408,2.57836981 C1.16252966,3.01600762 1.71539326,3.77572878 2.21138187,4.66767372 L4.70212766,2.82982082 Z"
                                          id="Path" fill="#D29B6E"></path>
                                    <path d="M33.939915,11.6698606 C33.8643403,11.677013 33.7844552,11.6843757 33.7021277,11.6919487 L34.426984,13.6676737 C34.4848863,13.5361971 34.5420702,13.403248 34.5986794,13.2667227 C34.6667828,13.1020088 34.7021277,12.9097375 34.7021277,12.7172558 C34.7021277,12.1112013 34.3529897,11.6311539 33.939915,11.6698606 Z"
                                          id="Path" fill="#C48D66"></path>
                                </g>
                            </g>
                            <g id="Group-19-Copy-3" transform="translate(0.000000, 119.827795)">
                                <rect id="Rectangle" stroke="#E8E9EA" x="0.5" y="0.5" width="51.1276596" height="57.3232628" rx="5"></rect>
                                <g id="flaticon1543498152-svg" transform="translate(9.000000, 18.000000)">
                                    <path d="M33.7044153,2.03311765 C33.4989051,1.38563478 32.7672684,1.0390396 32.107191,1.27710991 C31.8853825,1.35728144 31.6432014,1.44454129 31.3890512,1.53571201 C30.7032532,1.78233722 30.0757722,2.15215283 29.5353848,2.62658257 C26.901187,4.94129105 23.2964819,7.42098669 18.9624319,8.68784354 C9.58892531,11.4280967 4.60498436,3.7433622 3.51555108,1.80066914 L2.41134752,4.02958429 C3.00826937,4.75797203 3.49390497,5.5875518 3.5598618,6.40711014 C3.88608066,10.4694602 8.68641207,18.2798294 20.875434,14.7165959 C25.6711816,13.3145719 31.7124688,10.2460555 33.7219869,2.66960144 C33.777248,2.46110653 33.7696081,2.23892386 33.7044153,2.03311765 Z"
                                          id="Path" fill="#FFE17D"></path>
                                    <path d="M33.7044153,1.9246789 C33.5994956,1.59133262 33.3562958,1.33879757 33.0563069,1.20181269 C32.0155136,4.45889915 30.2102324,6.82903316 28.1123475,8.56967731 C25.1506576,11.0272747 21.3345851,12.3182833 17.433711,12.3956453 C17.2898284,12.3986017 17.1464551,12.40008 17.0030818,12.40008 C14.93652,12.40008 8.60593967,11.8001552 5.77259818,4.81392648 C4.61364281,3.53843961 3.86341591,2.31592353 3.51555108,1.69062203 L2.41134752,3.93732185 C3.00826937,4.67152137 3.49390497,5.50747403 3.5598618,6.33357166 C3.88608066,10.4283354 8.68641207,18.3010239 20.875434,14.7093592 C22.5233356,14.2237527 24.3161385,13.5334081 26.0424751,12.5323837 C26.0432391,12.5328765 26.0442578,12.5331229 26.0450218,12.5333692 C29.3454088,10.6261751 32.4031053,7.57875437 33.7219869,2.56624122 C33.777248,2.35608272 33.7696081,2.13212725 33.7044153,1.9246789 Z"
                                          id="Path" fill="#FFD164"></path>
                                    <path d="M31.7987303,1.29329414 C31.6551765,1.34645031 31.5034626,1.40227911 31.3475177,1.45988972 L33.5443459,3.60543807 C33.6035808,3.40112841 33.6607001,3.19503694 33.7150996,2.98508507 C33.780681,2.73177667 33.7716144,2.4618385 33.6942464,2.2117967 C33.4503559,1.42514514 32.5820814,1.00405348 31.7987303,1.29329414 Z"
                                          id="Path" fill="#C48D66"></path>
                                    <path d="M32.392511,10.2707753 C32.1439659,10.2860093 31.8722405,10.3024717 31.5873794,10.3194256 C30.8183062,10.3656188 30.0685498,10.5518657 29.3731387,10.8688295 C25.9826227,12.4138436 21.5626407,13.8404262 16.7954682,13.8404262 C6.48586851,13.8404262 3.92366453,4.69516136 3.4476942,2.4331703 C3.37635018,2.09409278 3.22155682,1.77688328 2.99155602,1.50955259 L1.85700549,0.190835846 C1.65173042,-0.0477469172 1.27569326,-0.065192226 1.04698024,0.152996791 L0.161232413,0.997987831 C-0.0257558975,1.17637206 -0.0538298884,1.45426823 0.0965849772,1.66164608 C0.769330917,2.58747515 2.46227082,5.16004157 2.02107107,7.05396155 C1.05213144,11.2135583 3.3892282,20.4308157 16.7954682,20.4308157 C22.0702908,20.4308157 29.1310325,19.1278243 33.5731647,12.1359474 C33.6955055,11.9435578 33.7588652,11.7189804 33.7588652,11.4941572 C33.7588652,10.7862715 33.1329951,10.225565 32.392511,10.2707753 Z"
                                          id="Path" fill="#FFE17D"></path>
                                    <path d="M33.3434285,10.9557688 C28.9579543,17.0097046 22.3564805,18.1697841 17.3740215,18.1697841 C6.02144874,18.1697841 2.74271,11.5948177 2.65775155,7.21087613 C2.6461203,7.32747534 2.62791492,7.44241897 2.60111259,7.55476103 C1.64988135,11.5586318 3.94426521,20.4308157 17.1054921,20.4308157 C22.2839118,20.4308157 29.215611,19.1766054 33.5765586,12.4464887 C33.6966635,12.2613017 33.7588652,12.045132 33.7588652,11.8284892 C33.7588652,11.4805836 33.5972925,11.1709926 33.3434285,10.9557688 Z"
                                          id="Path" fill="#FFD164"></path>
                                    <path d="M3.61702128,1.94887187 C3.53858403,1.81339251 3.44721757,1.68326101 3.33717552,1.56433464 L2.07154846,0.197826694 C1.84255762,-0.0494485421 1.42307625,-0.0675294495 1.16793963,0.158354375 L0.179859865,1.03438628 C-0.0287315196,1.21926973 -0.060048946,1.5072907 0.107743602,1.72222411 C0.416320957,2.11669311 0.916250809,2.80147501 1.36475115,3.60543807 L3.61702128,1.94887187 Z"
                                          id="Path" fill="#D29B6E"></path>
                                    <path d="M32.8398855,10.8189425 C32.748767,10.8275382 32.6524517,10.8363868 32.5531915,10.8454882 L33.4271317,13.2199396 C33.496943,13.0619294 33.5658882,12.9021494 33.6341404,12.7380716 C33.7162509,12.5401164 33.7588652,12.3090422 33.7588652,12.0777152 C33.7588652,11.3493512 33.3379188,10.7724242 32.8398855,10.8189425 Z"
                                          id="Path" fill="#C48D66"></path>
                                </g>
                            </g>
                        </g>
                    </g>
                </g>
            </g>
        </g>
    </g>
</svg>